<?xml version="1.0" encoding="UTF-8" standalone="no"?>
<!DOCTYPE svg PUBLIC "-//W3C//DTD SVG 1.1//EN"
 "http://www.w3.org/Graphics/SVG/1.1/DTD/svg11.dtd">
<!-- Generated by graphviz version 2.36.0 (20140111.2315)
 -->
<!-- Title: mexiface::MexIFace::checkScalarSize Pages: 1 -->
<svg width="240pt" height="318pt"
 viewBox="0.00 0.00 240.00 318.00" xmlns="http://www.w3.org/2000/svg" xmlns:xlink="http://www.w3.org/1999/xlink">
<g id="graph0" class="graph" transform="scale(1 1) rotate(0) translate(4 314)">
<title>mexiface::MexIFace::checkScalarSize</title>
<polygon fill="white" stroke="none" points="-4,4 -4,-314 236,-314 236,4 -4,4"/>
<!-- Node1 -->
<g id="node1" class="node"><title>Node1</title>
<polygon fill="#bfbfbf" stroke="black" points="0,-141 0,-169 98,-169 98,-141 0,-141"/>
<text text-anchor="start" x="8" y="-157.8" font-family="Helvetica,sans-Serif" font-size="9.00">mexiface::MexIFace</text>
<text text-anchor="middle" x="49" y="-147.8" font-family="Helvetica,sans-Serif" font-size="9.00">::checkScalarSize</text>
</g>
<!-- Node2 -->
<g id="node2" class="node"><title>Node2</title>
<g id="a_node2"><a xlink:href="classmexiface_1_1MexIFace.html#a6f1d4e9129f7eccfe254bc13cd94187d" target="_top" xlink:title="mexiface::MexIFace\l::checkedToScalar">
<polygon fill="white" stroke="black" points="134,-282 134,-310 232,-310 232,-282 134,-282"/>
<text text-anchor="start" x="142" y="-298.8" font-family="Helvetica,sans-Serif" font-size="9.00">mexiface::MexIFace</text>
<text text-anchor="middle" x="183" y="-288.8" font-family="Helvetica,sans-Serif" font-size="9.00">::checkedToScalar</text>
</a>
</g>
</g>
<!-- Node1&#45;&gt;Node2 -->
<g id="edge1" class="edge"><title>Node1&#45;&gt;Node2</title>
<path fill="none" stroke="midnightblue" d="M62.1808,-178.315C76.5262,-203.963 102.445,-245.103 134,-272 138.396,-275.747 143.478,-279.087 148.656,-281.997"/>
<polygon fill="midnightblue" stroke="midnightblue" points="65.126,-176.406 57.2618,-169.306 58.9822,-179.761 65.126,-176.406"/>
</g>
<!-- Node3 -->
<g id="node3" class="node"><title>Node3</title>
<g id="a_node3"><a xlink:href="classmexiface_1_1MexIFace.html#ab6a850c6bbb3cd5a468cba93e4c0019e" target="_top" xlink:title="mexiface::MexIFace\l::getAsScalarDict">
<polygon fill="white" stroke="black" points="134,-235 134,-263 232,-263 232,-235 134,-235"/>
<text text-anchor="start" x="142" y="-251.8" font-family="Helvetica,sans-Serif" font-size="9.00">mexiface::MexIFace</text>
<text text-anchor="middle" x="183" y="-241.8" font-family="Helvetica,sans-Serif" font-size="9.00">::getAsScalarDict</text>
</a>
</g>
</g>
<!-- Node1&#45;&gt;Node3 -->
<g id="edge2" class="edge"><title>Node1&#45;&gt;Node3</title>
<path fill="none" stroke="midnightblue" d="M72.0839,-175.837C88.4125,-190.62 111.609,-210.356 134,-225 139.38,-228.519 145.347,-231.884 151.194,-234.923"/>
<polygon fill="midnightblue" stroke="midnightblue" points="74.3888,-173.201 64.6534,-169.021 69.6573,-178.36 74.3888,-173.201"/>
</g>
<!-- Node4 -->
<g id="node4" class="node"><title>Node4</title>
<g id="a_node4"><a xlink:href="classmexiface_1_1MexIFace.html#add7627b38f958fc2252e107d2385bc07" target="_top" xlink:title="mexiface::MexIFace\l::getCubeDict">
<polygon fill="white" stroke="black" points="134,-188 134,-216 232,-216 232,-188 134,-188"/>
<text text-anchor="start" x="142" y="-204.8" font-family="Helvetica,sans-Serif" font-size="9.00">mexiface::MexIFace</text>
<text text-anchor="middle" x="183" y="-194.8" font-family="Helvetica,sans-Serif" font-size="9.00">::getCubeDict</text>
</a>
</g>
</g>
<!-- Node1&#45;&gt;Node4 -->
<g id="edge3" class="edge"><title>Node1&#45;&gt;Node4</title>
<path fill="none" stroke="midnightblue" d="M99.2513,-172.536C113.494,-177.608 128.852,-183.076 142.424,-187.908"/>
<polygon fill="midnightblue" stroke="midnightblue" points="100.199,-169.159 89.6044,-169.102 97.851,-175.753 100.199,-169.159"/>
</g>
<!-- Node5 -->
<g id="node5" class="node"><title>Node5</title>
<g id="a_node5"><a xlink:href="classmexiface_1_1MexIFace.html#adc2f6c4e44337eddb4450d891fab7663" target="_top" xlink:title="mexiface::MexIFace\l::getHypercubeDict">
<polygon fill="white" stroke="black" points="134,-141 134,-169 232,-169 232,-141 134,-141"/>
<text text-anchor="start" x="142" y="-157.8" font-family="Helvetica,sans-Serif" font-size="9.00">mexiface::MexIFace</text>
<text text-anchor="middle" x="183" y="-147.8" font-family="Helvetica,sans-Serif" font-size="9.00">::getHypercubeDict</text>
</a>
</g>
</g>
<!-- Node1&#45;&gt;Node5 -->
<g id="edge4" class="edge"><title>Node1&#45;&gt;Node5</title>
<path fill="none" stroke="midnightblue" d="M108.292,-155C116.809,-155 125.5,-155 133.786,-155"/>
<polygon fill="midnightblue" stroke="midnightblue" points="108.028,-151.5 98.0284,-155 108.028,-158.5 108.028,-151.5"/>
</g>
<!-- Node6 -->
<g id="node6" class="node"><title>Node6</title>
<g id="a_node6"><a xlink:href="classmexiface_1_1MexIFace.html#a1bbba7b227a01e60c32602394943302e" target="_top" xlink:title="mexiface::MexIFace\l::getMatDict">
<polygon fill="white" stroke="black" points="134,-94 134,-122 232,-122 232,-94 134,-94"/>
<text text-anchor="start" x="142" y="-110.8" font-family="Helvetica,sans-Serif" font-size="9.00">mexiface::MexIFace</text>
<text text-anchor="middle" x="183" y="-100.8" font-family="Helvetica,sans-Serif" font-size="9.00">::getMatDict</text>
</a>
</g>
</g>
<!-- Node1&#45;&gt;Node6 -->
<g id="edge5" class="edge"><title>Node1&#45;&gt;Node6</title>
<path fill="none" stroke="midnightblue" d="M99.2513,-137.464C113.494,-132.392 128.852,-126.924 142.424,-122.092"/>
<polygon fill="midnightblue" stroke="midnightblue" points="97.851,-134.247 89.6044,-140.898 100.199,-140.841 97.851,-134.247"/>
</g>
<!-- Node7 -->
<g id="node7" class="node"><title>Node7</title>
<g id="a_node7"><a xlink:href="classmexiface_1_1MexIFace.html#a5d447588f02084232527e98e71182a78" target="_top" xlink:title="mexiface::MexIFace\l::getScalarDict">
<polygon fill="white" stroke="black" points="134,-47 134,-75 232,-75 232,-47 134,-47"/>
<text text-anchor="start" x="142" y="-63.8" font-family="Helvetica,sans-Serif" font-size="9.00">mexiface::MexIFace</text>
<text text-anchor="middle" x="183" y="-53.8" font-family="Helvetica,sans-Serif" font-size="9.00">::getScalarDict</text>
</a>
</g>
</g>
<!-- Node1&#45;&gt;Node7 -->
<g id="edge6" class="edge"><title>Node1&#45;&gt;Node7</title>
<path fill="none" stroke="midnightblue" d="M72.0839,-134.163C88.4125,-119.38 111.609,-99.644 134,-85 139.38,-81.4813 145.347,-78.1158 151.194,-75.0766"/>
<polygon fill="midnightblue" stroke="midnightblue" points="69.6573,-131.64 64.6534,-140.979 74.3888,-136.799 69.6573,-131.64"/>
</g>
<!-- Node8 -->
<g id="node8" class="node"><title>Node8</title>
<g id="a_node8"><a xlink:href="classmexiface_1_1MexIFace.html#a7054db3d2f9b86ffca877a8069e4bb23" target="_top" xlink:title="mexiface::MexIFace\l::getVecDict">
<polygon fill="white" stroke="black" points="134,-0 134,-28 232,-28 232,-0 134,-0"/>
<text text-anchor="start" x="142" y="-16.8" font-family="Helvetica,sans-Serif" font-size="9.00">mexiface::MexIFace</text>
<text text-anchor="middle" x="183" y="-6.8" font-family="Helvetica,sans-Serif" font-size="9.00">::getVecDict</text>
</a>
</g>
</g>
<!-- Node1&#45;&gt;Node8 -->
<g id="edge7" class="edge"><title>Node1&#45;&gt;Node8</title>
<path fill="none" stroke="midnightblue" d="M62.1808,-131.685C76.5262,-106.037 102.445,-64.8975 134,-38 138.396,-34.2527 143.478,-30.9128 148.656,-28.0028"/>
<polygon fill="midnightblue" stroke="midnightblue" points="58.9822,-130.239 57.2618,-140.694 65.126,-133.594 58.9822,-130.239"/>
</g>
</g>
</svg>
