<?xml version="1.0" encoding="UTF-8" standalone="no"?>
<!DOCTYPE svg PUBLIC "-//W3C//DTD SVG 1.1//EN"
 "http://www.w3.org/Graphics/SVG/1.1/DTD/svg11.dtd">
<!-- Generated by graphviz version 2.36.0 (20140111.2315)
 -->
<!-- Title: mexiface::MexIFace::checkVectorSize Pages: 1 -->
<svg width="378pt" height="404pt"
 viewBox="0.00 0.00 378.00 404.00" xmlns="http://www.w3.org/2000/svg" xmlns:xlink="http://www.w3.org/1999/xlink">
<g id="graph0" class="graph" transform="scale(1 1) rotate(0) translate(4 400)">
<title>mexiface::MexIFace::checkVectorSize</title>
<polygon fill="white" stroke="none" points="-4,4 -4,-400 374,-400 374,4 -4,4"/>
<!-- Node1 -->
<g id="node1" class="node"><title>Node1</title>
<polygon fill="#bfbfbf" stroke="black" points="0,-180 0,-208 98,-208 98,-180 0,-180"/>
<text text-anchor="start" x="8" y="-196.8" font-family="Helvetica,sans-Serif" font-size="9.00">mexiface::MexIFace</text>
<text text-anchor="middle" x="49" y="-186.8" font-family="Helvetica,sans-Serif" font-size="9.00">::checkVectorSize</text>
</g>
<!-- Node2 -->
<g id="node2" class="node"><title>Node2</title>
<g id="a_node2"><a xlink:href="classmexiface_1_1MexIFace.html#a3a96c40f75e1816b2af75add7484f5c2" target="_top" xlink:title="mexiface::MexIFace\l::checkedToVec">
<polygon fill="white" stroke="black" points="136,-368 136,-396 234,-396 234,-368 136,-368"/>
<text text-anchor="start" x="144" y="-384.8" font-family="Helvetica,sans-Serif" font-size="9.00">mexiface::MexIFace</text>
<text text-anchor="middle" x="185" y="-374.8" font-family="Helvetica,sans-Serif" font-size="9.00">::checkedToVec</text>
</a>
</g>
</g>
<!-- Node1&#45;&gt;Node2 -->
<g id="edge1" class="edge"><title>Node1&#45;&gt;Node2</title>
<path fill="none" stroke="midnightblue" d="M56.8472,-217.955C67.8916,-252.813 92.6824,-317.736 134,-358 137.931,-361.83 142.59,-365.145 147.458,-367.983"/>
<polygon fill="midnightblue" stroke="midnightblue" points="60.1252,-216.705 53.8579,-208.163 53.4303,-218.749 60.1252,-216.705"/>
</g>
<!-- Node3 -->
<g id="node3" class="node"><title>Node3</title>
<g id="a_node3"><a xlink:href="classmexiface_1_1MexIFace.html#adb6d1c6c3b4abc16b1a7719e7faf271f" target="_top" xlink:title="mexiface::MexIFace\l::getAsScalarArray">
<polygon fill="white" stroke="black" points="136,-321 136,-349 234,-349 234,-321 136,-321"/>
<text text-anchor="start" x="144" y="-337.8" font-family="Helvetica,sans-Serif" font-size="9.00">mexiface::MexIFace</text>
<text text-anchor="middle" x="185" y="-327.8" font-family="Helvetica,sans-Serif" font-size="9.00">::getAsScalarArray</text>
</a>
</g>
</g>
<!-- Node1&#45;&gt;Node3 -->
<g id="edge2" class="edge"><title>Node1&#45;&gt;Node3</title>
<path fill="none" stroke="midnightblue" d="M62.1004,-217.41C76.3741,-243.143 102.229,-284.358 134,-311 138.427,-314.712 143.525,-318.003 148.737,-320.865"/>
<polygon fill="midnightblue" stroke="midnightblue" points="65.0457,-215.499 57.2088,-208.369 58.889,-218.83 65.0457,-215.499"/>
</g>
<!-- Node4 -->
<g id="node4" class="node"><title>Node4</title>
<g id="a_node4"><a xlink:href="classmexiface_1_1MexIFace.html#a7ace2738c19c8b6c6acaf2fcf1e0d149" target="_top" xlink:title="mexiface::MexIFace\l::getCubeArray">
<polygon fill="white" stroke="black" points="136,-274 136,-302 234,-302 234,-274 136,-274"/>
<text text-anchor="start" x="144" y="-290.8" font-family="Helvetica,sans-Serif" font-size="9.00">mexiface::MexIFace</text>
<text text-anchor="middle" x="185" y="-280.8" font-family="Helvetica,sans-Serif" font-size="9.00">::getCubeArray</text>
</a>
</g>
</g>
<!-- Node1&#45;&gt;Node4 -->
<g id="edge3" class="edge"><title>Node1&#45;&gt;Node4</title>
<path fill="none" stroke="midnightblue" d="M72.0128,-214.946C88.307,-229.782 111.492,-249.537 134,-264 139.508,-267.539 145.618,-270.892 151.621,-273.907"/>
<polygon fill="midnightblue" stroke="midnightblue" points="74.3222,-212.315 64.6005,-208.103 69.5738,-217.458 74.3222,-212.315"/>
</g>
<!-- Node5 -->
<g id="node5" class="node"><title>Node5</title>
<g id="a_node5"><a xlink:href="classmexiface_1_1MexIFace.html#a4a14aef74c93b58b5b33842442210eca" target="_top" xlink:title="mexiface::MexIFace\l::getHypercubeArray">
<polygon fill="white" stroke="black" points="134.5,-227 134.5,-255 235.5,-255 235.5,-227 134.5,-227"/>
<text text-anchor="start" x="142.5" y="-243.8" font-family="Helvetica,sans-Serif" font-size="9.00">mexiface::MexIFace</text>
<text text-anchor="middle" x="185" y="-233.8" font-family="Helvetica,sans-Serif" font-size="9.00">::getHypercubeArray</text>
</a>
</g>
</g>
<!-- Node1&#45;&gt;Node5 -->
<g id="edge4" class="edge"><title>Node1&#45;&gt;Node5</title>
<path fill="none" stroke="midnightblue" d="M99.9975,-211.536C114.456,-216.608 130.046,-222.076 143.824,-226.908"/>
<polygon fill="midnightblue" stroke="midnightblue" points="100.799,-208.109 90.2044,-208.102 98.4824,-214.714 100.799,-208.109"/>
</g>
<!-- Node6 -->
<g id="node6" class="node"><title>Node6</title>
<g id="a_node6"><a xlink:href="classmexiface_1_1MexIFace.html#af92d41ae927a407a8c287328e2902681" target="_top" xlink:title="mexiface::MexIFace\l::getMatArray">
<polygon fill="white" stroke="black" points="136,-180 136,-208 234,-208 234,-180 136,-180"/>
<text text-anchor="start" x="144" y="-196.8" font-family="Helvetica,sans-Serif" font-size="9.00">mexiface::MexIFace</text>
<text text-anchor="middle" x="185" y="-186.8" font-family="Helvetica,sans-Serif" font-size="9.00">::getMatArray</text>
</a>
</g>
</g>
<!-- Node1&#45;&gt;Node6 -->
<g id="edge5" class="edge"><title>Node1&#45;&gt;Node6</title>
<path fill="none" stroke="midnightblue" d="M108.502,-194C117.582,-194 126.873,-194 135.694,-194"/>
<polygon fill="midnightblue" stroke="midnightblue" points="108.377,-190.5 98.3771,-194 108.377,-197.5 108.377,-190.5"/>
</g>
<!-- Node7 -->
<g id="node7" class="node"><title>Node7</title>
<g id="a_node7"><a xlink:href="classmexiface_1_1MexIFace.html#af0b2e90f4bcca31d670cfaff193456f0" target="_top" xlink:title="mexiface::MexIFace\l::getScalarArray">
<polygon fill="white" stroke="black" points="136,-133 136,-161 234,-161 234,-133 136,-133"/>
<text text-anchor="start" x="144" y="-149.8" font-family="Helvetica,sans-Serif" font-size="9.00">mexiface::MexIFace</text>
<text text-anchor="middle" x="185" y="-139.8" font-family="Helvetica,sans-Serif" font-size="9.00">::getScalarArray</text>
</a>
</g>
</g>
<!-- Node1&#45;&gt;Node7 -->
<g id="edge6" class="edge"><title>Node1&#45;&gt;Node7</title>
<path fill="none" stroke="midnightblue" d="M99.9975,-176.464C114.456,-171.392 130.046,-165.924 143.824,-161.092"/>
<polygon fill="midnightblue" stroke="midnightblue" points="98.4824,-173.286 90.2044,-179.898 100.799,-179.891 98.4824,-173.286"/>
</g>
<!-- Node8 -->
<g id="node8" class="node"><title>Node8</title>
<g id="a_node8"><a xlink:href="classmexiface_1_1MexIFace.html#a82c2478cb12301e02edcef234fc80fb1" target="_top" xlink:title="Reads a mxArray as a string. ">
<polygon fill="white" stroke="black" points="136,-86 136,-114 234,-114 234,-86 136,-86"/>
<text text-anchor="start" x="144" y="-102.8" font-family="Helvetica,sans-Serif" font-size="9.00">mexiface::MexIFace</text>
<text text-anchor="middle" x="185" y="-92.8" font-family="Helvetica,sans-Serif" font-size="9.00">::getString</text>
</a>
</g>
</g>
<!-- Node1&#45;&gt;Node8 -->
<g id="edge7" class="edge"><title>Node1&#45;&gt;Node8</title>
<path fill="none" stroke="midnightblue" d="M72.0128,-173.054C88.307,-158.218 111.492,-138.463 134,-124 139.508,-120.461 145.618,-117.108 151.621,-114.093"/>
<polygon fill="midnightblue" stroke="midnightblue" points="69.5738,-170.542 64.6005,-179.897 74.3222,-175.685 69.5738,-170.542"/>
</g>
<!-- Node10 -->
<g id="node10" class="node"><title>Node10</title>
<g id="a_node10"><a xlink:href="classmexiface_1_1MexIFace.html#af398ae966ad89f4a0cf773069694be1f" target="_top" xlink:title="mexiface::MexIFace\l::getStringArray">
<polygon fill="white" stroke="black" points="272,-43 272,-71 370,-71 370,-43 272,-43"/>
<text text-anchor="start" x="280" y="-59.8" font-family="Helvetica,sans-Serif" font-size="9.00">mexiface::MexIFace</text>
<text text-anchor="middle" x="321" y="-49.8" font-family="Helvetica,sans-Serif" font-size="9.00">::getStringArray</text>
</a>
</g>
</g>
<!-- Node1&#45;&gt;Node10 -->
<g id="edge10" class="edge"><title>Node1&#45;&gt;Node10</title>
<path fill="none" stroke="midnightblue" d="M59.536,-170.329C72.1002,-142.538 97.0266,-97.5134 134,-76 175.944,-51.5946 232.331,-49.2143 271.989,-51.4575"/>
<polygon fill="midnightblue" stroke="midnightblue" points="56.2343,-169.146 55.467,-179.713 62.6565,-171.931 56.2343,-169.146"/>
</g>
<!-- Node11 -->
<g id="node11" class="node"><title>Node11</title>
<g id="a_node11"><a xlink:href="classmexiface_1_1MexIFace.html#a9ef24930476d54735e0cc97ef53f182b" target="_top" xlink:title="mexiface::MexIFace\l::getVecArray">
<polygon fill="white" stroke="black" points="136,-0 136,-28 234,-28 234,-0 136,-0"/>
<text text-anchor="start" x="144" y="-16.8" font-family="Helvetica,sans-Serif" font-size="9.00">mexiface::MexIFace</text>
<text text-anchor="middle" x="185" y="-6.8" font-family="Helvetica,sans-Serif" font-size="9.00">::getVecArray</text>
</a>
</g>
</g>
<!-- Node1&#45;&gt;Node11 -->
<g id="edge11" class="edge"><title>Node1&#45;&gt;Node11</title>
<path fill="none" stroke="midnightblue" d="M58.4607,-170.482C70.9215,-138.472 96.8219,-80.8504 134,-43 139.626,-37.2727 146.618,-32.293 153.574,-28.1528"/>
<polygon fill="midnightblue" stroke="midnightblue" points="55.1562,-169.325 54.89,-179.917 61.703,-171.803 55.1562,-169.325"/>
</g>
<!-- Node9 -->
<g id="node9" class="node"><title>Node9</title>
<g id="a_node9"><a xlink:href="classmexiface_1_1MexIFace.html#a17f0280024d7cdd318b13223174b6151" target="_top" xlink:title="The mexFunction that will be exposed as the entry point for the .mex file. ">
<polygon fill="white" stroke="black" points="272,-90 272,-118 370,-118 370,-90 272,-90"/>
<text text-anchor="start" x="280" y="-106.8" font-family="Helvetica,sans-Serif" font-size="9.00">mexiface::MexIFace</text>
<text text-anchor="middle" x="321" y="-96.8" font-family="Helvetica,sans-Serif" font-size="9.00">::mexFunction</text>
</a>
</g>
</g>
<!-- Node8&#45;&gt;Node9 -->
<g id="edge8" class="edge"><title>Node8&#45;&gt;Node9</title>
<path fill="none" stroke="midnightblue" d="M244.502,-101.746C253.582,-102.017 262.873,-102.295 271.694,-102.558"/>
<polygon fill="midnightblue" stroke="midnightblue" points="244.477,-98.2441 234.377,-101.444 244.268,-105.241 244.477,-98.2441"/>
</g>
<!-- Node8&#45;&gt;Node10 -->
<g id="edge9" class="edge"><title>Node8&#45;&gt;Node10</title>
<path fill="none" stroke="midnightblue" d="M239.444,-82.85C251.58,-78.9557 264.335,-74.8628 276.025,-71.1114"/>
<polygon fill="midnightblue" stroke="midnightblue" points="238.329,-79.532 229.877,-85.9202 240.468,-86.1973 238.329,-79.532"/>
</g>
</g>
</svg>
