<?xml version="1.0" encoding="UTF-8" standalone="no"?>
<!DOCTYPE svg PUBLIC "-//W3C//DTD SVG 1.1//EN"
 "http://www.w3.org/Graphics/SVG/1.1/DTD/svg11.dtd">
<!-- Generated by graphviz version 2.38.0 (20140413.2041)
 -->
<!-- Title: mexiface::MexIFace::toMXArray Pages: 1 -->
<svg width="240pt" height="84pt"
 viewBox="0.00 0.00 240.00 84.00" xmlns="http://www.w3.org/2000/svg" xmlns:xlink="http://www.w3.org/1999/xlink">
<g id="graph0" class="graph" transform="scale(1 1) rotate(0) translate(4 80)">
<title>mexiface::MexIFace::toMXArray</title>
<polygon fill="white" stroke="none" points="-4,4 -4,-80 236,-80 236,4 -4,4"/>
<!-- Node1 -->
<g id="node1" class="node"><title>Node1</title>
<polygon fill="#bfbfbf" stroke="black" points="0,-23.5 0,-51.5 98,-51.5 98,-23.5 0,-23.5"/>
<text text-anchor="start" x="8" y="-40.3" font-family="Helvetica,sans-Serif" font-size="9.00">mexiface::MexIFace</text>
<text text-anchor="middle" x="49" y="-30.3" font-family="Helvetica,sans-Serif" font-size="9.00">::toMXArray</text>
</g>
<!-- Node2 -->
<g id="node2" class="node"><title>Node2</title>
<g id="a_node2"><a xlink:href="classmexiface_1_1MexIFace.html#ae4c1f591d005bdefad19aabb9467d115" target="_top" xlink:title="mexiface::MexIFace\l::output">
<polygon fill="white" stroke="black" points="134,-47.5 134,-75.5 232,-75.5 232,-47.5 134,-47.5"/>
<text text-anchor="start" x="142" y="-64.3" font-family="Helvetica,sans-Serif" font-size="9.00">mexiface::MexIFace</text>
<text text-anchor="middle" x="183" y="-54.3" font-family="Helvetica,sans-Serif" font-size="9.00">::output</text>
</a>
</g>
</g>
<!-- Node1&#45;&gt;Node2 -->
<g id="edge1" class="edge"><title>Node1&#45;&gt;Node2</title>
<path fill="none" stroke="midnightblue" d="M108.012,-48.0476C116.618,-49.6124 125.409,-51.2107 133.786,-52.7338"/>
<polygon fill="midnightblue" stroke="midnightblue" points="108.493,-44.5778 98.0284,-46.2324 107.241,-51.4649 108.493,-44.5778"/>
</g>
<!-- Node3 -->
<g id="node3" class="node"><title>Node3</title>
<g id="a_node3"><a xlink:href="classmexiface_1_1MexIFace.html#a37a421b2b22cb183dc8bd40f6f3ea9d7" target="_top" xlink:title="mexiface::MexIFace\l::toMXArray">
<polygon fill="white" stroke="black" points="134,-0.5 134,-28.5 232,-28.5 232,-0.5 134,-0.5"/>
<text text-anchor="start" x="142" y="-17.3" font-family="Helvetica,sans-Serif" font-size="9.00">mexiface::MexIFace</text>
<text text-anchor="middle" x="183" y="-7.3" font-family="Helvetica,sans-Serif" font-size="9.00">::toMXArray</text>
</a>
</g>
</g>
<!-- Node1&#45;&gt;Node3 -->
<g id="edge2" class="edge"><title>Node1&#45;&gt;Node3</title>
<path fill="none" stroke="midnightblue" d="M108.012,-27.3919C116.618,-25.8923 125.409,-24.3606 133.786,-22.9009"/>
<polygon fill="midnightblue" stroke="midnightblue" points="107.279,-23.9667 98.0284,-29.1314 108.481,-30.8628 107.279,-23.9667"/>
</g>
</g>
</svg>
