<?xml version="1.0" encoding="UTF-8" standalone="no"?>
<!DOCTYPE svg PUBLIC "-//W3C//DTD SVG 1.1//EN"
 "http://www.w3.org/Graphics/SVG/1.1/DTD/svg11.dtd">
<!-- Generated by graphviz version 2.36.0 (20140111.2315)
 -->
<!-- Title: mexiface::Hypercube::Hypercube Pages: 1 -->
<svg width="252pt" height="36pt"
 viewBox="0.00 0.00 252.00 36.00" xmlns="http://www.w3.org/2000/svg" xmlns:xlink="http://www.w3.org/1999/xlink">
<g id="graph0" class="graph" transform="scale(1 1) rotate(0) translate(4 32)">
<title>mexiface::Hypercube::Hypercube</title>
<polygon fill="white" stroke="none" points="-4,4 -4,-32 248,-32 248,4 -4,4"/>
<!-- Node1 -->
<g id="node1" class="node"><title>Node1</title>
<polygon fill="#bfbfbf" stroke="black" points="0.5,-0 0.5,-28 103.5,-28 103.5,-0 0.5,-0"/>
<text text-anchor="start" x="8.5" y="-16.8" font-family="Helvetica,sans-Serif" font-size="9.00">mexiface::Hypercube</text>
<text text-anchor="middle" x="52" y="-6.8" font-family="Helvetica,sans-Serif" font-size="9.00">::Hypercube</text>
</g>
<!-- Node2 -->
<g id="node2" class="node"><title>Node2</title>
<g id="a_node2"><a xlink:href="classmexiface_1_1Hypercube.html#a8673203ba5a7b19c8b18590c71dec497" target="_top" xlink:title="Get the number of elements in each subcube. ">
<polygon fill="white" stroke="black" points="140.5,-0 140.5,-28 243.5,-28 243.5,-0 140.5,-0"/>
<text text-anchor="start" x="148.5" y="-16.8" font-family="Helvetica,sans-Serif" font-size="9.00">mexiface::Hypercube</text>
<text text-anchor="middle" x="192" y="-6.8" font-family="Helvetica,sans-Serif" font-size="9.00">::subcube_size</text>
</a>
</g>
</g>
<!-- Node1&#45;&gt;Node2 -->
<g id="edge1" class="edge"><title>Node1&#45;&gt;Node2</title>
<path fill="none" stroke="midnightblue" d="M103.603,-14C112.228,-14 121.266,-14 130.124,-14"/>
<polygon fill="midnightblue" stroke="midnightblue" points="130.404,-17.5001 140.404,-14 130.404,-10.5001 130.404,-17.5001"/>
</g>
</g>
</svg>
