<?xml version="1.0" encoding="UTF-8" standalone="no"?>
<!DOCTYPE svg PUBLIC "-//W3C//DTD SVG 1.1//EN"
 "http://www.w3.org/Graphics/SVG/1.1/DTD/svg11.dtd">
<!-- Generated by graphviz version 2.38.0 (20140413.2041)
 -->
<!-- Title: mexiface::MexIFace::checkMaxNdim Pages: 1 -->
<svg width="253pt" height="84pt"
 viewBox="0.00 0.00 253.00 84.00" xmlns="http://www.w3.org/2000/svg" xmlns:xlink="http://www.w3.org/1999/xlink">
<g id="graph0" class="graph" transform="scale(1 1) rotate(0) translate(4 80)">
<title>mexiface::MexIFace::checkMaxNdim</title>
<polygon fill="white" stroke="none" points="-4,4 -4,-80 249,-80 249,4 -4,4"/>
<!-- Node1 -->
<g id="node1" class="node"><title>Node1</title>
<polygon fill="#bfbfbf" stroke="black" points="0,-23.5 0,-51.5 98,-51.5 98,-23.5 0,-23.5"/>
<text text-anchor="start" x="8" y="-40.3" font-family="Helvetica,sans-Serif" font-size="9.00">mexiface::MexIFace</text>
<text text-anchor="middle" x="49" y="-30.3" font-family="Helvetica,sans-Serif" font-size="9.00">::checkMaxNdim</text>
</g>
<!-- Node2 -->
<g id="node2" class="node"><title>Node2</title>
<g id="a_node2"><a xlink:href="classmexiface_1_1MexIFace.html#a6b7f2640fd7317725165d729fb5b5fc6" target="_top" xlink:title="mexiface::MexIFace\l::checkedToCube">
<polygon fill="white" stroke="black" points="140.5,-47.5 140.5,-75.5 238.5,-75.5 238.5,-47.5 140.5,-47.5"/>
<text text-anchor="start" x="148.5" y="-64.3" font-family="Helvetica,sans-Serif" font-size="9.00">mexiface::MexIFace</text>
<text text-anchor="middle" x="189.5" y="-54.3" font-family="Helvetica,sans-Serif" font-size="9.00">::checkedToCube</text>
</a>
</g>
</g>
<!-- Node1&#45;&gt;Node2 -->
<g id="edge1" class="edge"><title>Node1&#45;&gt;Node2</title>
<path fill="none" stroke="midnightblue" d="M108.107,-47.5692C118.746,-49.4127 129.745,-51.3186 140.064,-53.1068"/>
<polygon fill="midnightblue" stroke="midnightblue" points="108.503,-44.0856 98.0519,-45.8267 107.307,-50.9828 108.503,-44.0856"/>
</g>
<!-- Node3 -->
<g id="node3" class="node"><title>Node3</title>
<g id="a_node3"><a xlink:href="classmexiface_1_1MexIFace.html#a582700615ee04a285d7241d006c5be9e" target="_top" xlink:title="mexiface::MexIFace\l::checkedToHypercube">
<polygon fill="white" stroke="black" points="134,-0.5 134,-28.5 245,-28.5 245,-0.5 134,-0.5"/>
<text text-anchor="start" x="142" y="-17.3" font-family="Helvetica,sans-Serif" font-size="9.00">mexiface::MexIFace</text>
<text text-anchor="middle" x="189.5" y="-7.3" font-family="Helvetica,sans-Serif" font-size="9.00">::checkedToHypercube</text>
</a>
</g>
</g>
<!-- Node1&#45;&gt;Node3 -->
<g id="edge2" class="edge"><title>Node1&#45;&gt;Node3</title>
<path fill="none" stroke="midnightblue" d="M107.983,-27.8711C116.563,-26.4462 125.38,-24.982 133.889,-23.5691"/>
<polygon fill="midnightblue" stroke="midnightblue" points="107.343,-24.4293 98.0519,-29.5203 108.49,-31.3347 107.343,-24.4293"/>
</g>
</g>
</svg>
