<?xml version="1.0" encoding="UTF-8" standalone="no"?>
<!DOCTYPE svg PUBLIC "-//W3C//DTD SVG 1.1//EN"
 "http://www.w3.org/Graphics/SVG/1.1/DTD/svg11.dtd">
<!-- Generated by graphviz version 2.38.0 (20140413.2041)
 -->
<!-- Title: mexiface::MexIFace::getStringArray Pages: 1 -->
<svg width="374pt" height="94pt"
 viewBox="0.00 0.00 374.00 94.00" xmlns="http://www.w3.org/2000/svg" xmlns:xlink="http://www.w3.org/1999/xlink">
<g id="graph0" class="graph" transform="scale(1 1) rotate(0) translate(4 90)">
<title>mexiface::MexIFace::getStringArray</title>
<polygon fill="white" stroke="none" points="-4,4 -4,-90 370,-90 370,4 -4,4"/>
<!-- Node1 -->
<g id="node1" class="node"><title>Node1</title>
<polygon fill="#bfbfbf" stroke="black" points="0,-24.5 0,-52.5 98,-52.5 98,-24.5 0,-24.5"/>
<text text-anchor="start" x="8" y="-41.3" font-family="Helvetica,sans-Serif" font-size="9.00">mexiface::MexIFace</text>
<text text-anchor="middle" x="49" y="-31.3" font-family="Helvetica,sans-Serif" font-size="9.00">::getStringArray</text>
</g>
<!-- Node2 -->
<g id="node2" class="node"><title>Node2</title>
<g id="a_node2"><a xlink:href="classmexiface_1_1MexIFace.html#a4e3b68c1b831521c073e1ca13c874044" target="_top" xlink:title="mexiface::MexIFace\l::checkType">
<polygon fill="white" stroke="black" points="268,-57.5 268,-85.5 366,-85.5 366,-57.5 268,-57.5"/>
<text text-anchor="start" x="276" y="-74.3" font-family="Helvetica,sans-Serif" font-size="9.00">mexiface::MexIFace</text>
<text text-anchor="middle" x="317" y="-64.3" font-family="Helvetica,sans-Serif" font-size="9.00">::checkType</text>
</a>
</g>
</g>
<!-- Node1&#45;&gt;Node2 -->
<g id="edge1" class="edge"><title>Node1&#45;&gt;Node2</title>
<path fill="none" stroke="midnightblue" d="M91.8718,-52.5008C105.193,-56.4026 120.084,-60.1991 134,-62.5 174.907,-69.2635 221.632,-71.4606 257.495,-71.9943"/>
<polygon fill="midnightblue" stroke="midnightblue" points="257.745,-75.4971 267.782,-72.1065 257.821,-68.4975 257.745,-75.4971"/>
</g>
<!-- Node3 -->
<g id="node3" class="node"><title>Node3</title>
<g id="a_node3"><a xlink:href="classmexiface_1_1MexIFace.html#a658f8f66c8d6bacce3947a42a90f5610" target="_top" xlink:title="mexiface::MexIFace\l::checkVectorSize">
<polygon fill="white" stroke="black" points="268,-0.5 268,-28.5 366,-28.5 366,-0.5 268,-0.5"/>
<text text-anchor="start" x="276" y="-17.3" font-family="Helvetica,sans-Serif" font-size="9.00">mexiface::MexIFace</text>
<text text-anchor="middle" x="317" y="-7.3" font-family="Helvetica,sans-Serif" font-size="9.00">::checkVectorSize</text>
</a>
</g>
</g>
<!-- Node1&#45;&gt;Node3 -->
<g id="edge2" class="edge"><title>Node1&#45;&gt;Node3</title>
<path fill="none" stroke="midnightblue" d="M90.524,-24.4604C104.163,-20.3994 119.581,-16.5195 134,-14.5 175.012,-8.75609 221.734,-8.89352 257.57,-10.3957"/>
<polygon fill="midnightblue" stroke="midnightblue" points="257.696,-13.9053 267.848,-10.8762 258.022,-6.91298 257.696,-13.9053"/>
</g>
<!-- Node4 -->
<g id="node4" class="node"><title>Node4</title>
<g id="a_node4"><a xlink:href="classmexiface_1_1MexIFace.html#a82c2478cb12301e02edcef234fc80fb1" target="_top" xlink:title="Reads a mxArray as a string. ">
<polygon fill="white" stroke="black" points="134,-24.5 134,-52.5 232,-52.5 232,-24.5 134,-24.5"/>
<text text-anchor="start" x="142" y="-41.3" font-family="Helvetica,sans-Serif" font-size="9.00">mexiface::MexIFace</text>
<text text-anchor="middle" x="183" y="-31.3" font-family="Helvetica,sans-Serif" font-size="9.00">::getString</text>
</a>
</g>
</g>
<!-- Node1&#45;&gt;Node4 -->
<g id="edge3" class="edge"><title>Node1&#45;&gt;Node4</title>
<path fill="none" stroke="midnightblue" d="M98.0284,-38.5C106.309,-38.5 114.997,-38.5 123.517,-38.5"/>
<polygon fill="midnightblue" stroke="midnightblue" points="123.786,-42.0001 133.786,-38.5 123.786,-35.0001 123.786,-42.0001"/>
</g>
<!-- Node4&#45;&gt;Node2 -->
<g id="edge4" class="edge"><title>Node4&#45;&gt;Node2</title>
<path fill="none" stroke="midnightblue" d="M232.028,-50.5071C240.491,-52.6227 249.38,-54.8449 258.078,-57.0196"/>
<polygon fill="midnightblue" stroke="midnightblue" points="257.236,-60.4166 267.786,-59.4465 258.934,-53.6256 257.236,-60.4166"/>
</g>
<!-- Node4&#45;&gt;Node3 -->
<g id="edge5" class="edge"><title>Node4&#45;&gt;Node3</title>
<path fill="none" stroke="midnightblue" d="M232.028,-29.7676C240.4,-28.2455 249.188,-26.6475 257.798,-25.0822"/>
<polygon fill="midnightblue" stroke="midnightblue" points="258.574,-28.4986 267.786,-23.2662 257.321,-21.6116 258.574,-28.4986"/>
</g>
</g>
</svg>
