<?xml version="1.0" encoding="UTF-8" standalone="no"?>
<!DOCTYPE svg PUBLIC "-//W3C//DTD SVG 1.1//EN"
 "http://www.w3.org/Graphics/SVG/1.1/DTD/svg11.dtd">
<!-- Generated by graphviz version 2.38.0 (20140413.2041)
 -->
<!-- Title: mexiface::MexIFace::checkType Pages: 1 -->
<!--zoomable 640 -->
<svg id="main" version="1.1" xmlns="http://www.w3.org/2000/svg" xmlns:xlink="http://www.w3.org/1999/xlink" xml:space="preserve" onload="init(evt)">
<style type="text/css"><![CDATA[
.edge:hover path { stroke: red; }
.edge:hover polygon { stroke: red; fill: red; }
]]></style>
<script type="text/javascript"><![CDATA[
var edges = document.getElementsByTagName('g');
if (edges && edges.length) {
  for (var i=0;i<edges.length;i++) {
    if (edges[i].id.substr(0,4)=='edge') {
      edges[i].setAttribute('class','edge');
    }
  }
}
]]></script>
        <defs>
                <circle id="rim" cx="0" cy="0" r="7"/>
                <circle id="rim2" cx="0" cy="0" r="3.5"/>
                <g id="zoomPlus">
                        <use xlink:href="#rim" fill="#404040">
                                <set attributeName="fill" to="#808080" begin="zoomplus.mouseover" end="zoomplus.mouseout"/>
                        </use>
                        <path d="M-4,0h8M0,-4v8" fill="none" stroke="white" stroke-width="1.5" pointer-events="none"/>
                </g>
                <g id="zoomMin">
                        <use xlink:href="#rim" fill="#404040">
                                <set attributeName="fill" to="#808080" begin="zoomminus.mouseover" end="zoomminus.mouseout"/>
                        </use>
                        <path d="M-4,0h8" fill="none" stroke="white" stroke-width="1.5" pointer-events="none"/>
                </g>
                <g id="dirArrow">
                        <path fill="none" stroke="white" stroke-width="1.5" d="M0,-3.0v7 M-2.5,-0.5L0,-3.0L2.5,-0.5"/>
                </g>
               <g id="resetDef">
                       <use xlink:href="#rim2" fill="#404040">
                               <set attributeName="fill" to="#808080" begin="reset.mouseover" end="reset.mouseout"/>
                       </use>
               </g>
        </defs>

<script type="text/javascript">
var viewWidth = 377;
var viewHeight = 640;
var sectionId = 'dynsection-15';
</script>
<script xlink:href="svgpan.js"/>
<svg id="graph" class="graph">
<g id="viewport">
<title>mexiface::MexIFace::checkType</title>
<polygon fill="white" stroke="none" points="-4,4 -4,-636 373,-636 373,4 -4,4"/>
<!-- Node1 -->
<g id="node1" class="node"><title>Node1</title>
<polygon fill="#bfbfbf" stroke="black" points="0,-297.5 0,-325.5 98,-325.5 98,-297.5 0,-297.5"/>
<text text-anchor="start" x="8" y="-314.3" font-family="Helvetica,sans-Serif" font-size="9.00">mexiface::MexIFace</text>
<text text-anchor="middle" x="49" y="-304.3" font-family="Helvetica,sans-Serif" font-size="9.00">::checkType</text>
</g>
<!-- Node2 -->
<g id="node2" class="node"><title>Node2</title>
<g id="a_node2"><a xlink:href="classmexiface_1_1MexIFace.html#adb6d1c6c3b4abc16b1a7719e7faf271f" target="_top" xlink:title="mexiface::MexIFace\l::getAsScalarArray">
<polygon fill="white" stroke="black" points="135.5,-603.5 135.5,-631.5 233.5,-631.5 233.5,-603.5 135.5,-603.5"/>
<text text-anchor="start" x="143.5" y="-620.3" font-family="Helvetica,sans-Serif" font-size="9.00">mexiface::MexIFace</text>
<text text-anchor="middle" x="184.5" y="-610.3" font-family="Helvetica,sans-Serif" font-size="9.00">::getAsScalarArray</text>
</a>
</g>
</g>
<!-- Node1&#45;&gt;Node2 -->
<g id="edge1" class="edge"><title>Node1&#45;&gt;Node2</title>
<path fill="none" stroke="midnightblue" d="M50.7324,-335.977C53.5826,-389.302 67.4001,-517.357 134,-594.5 136.972,-597.943 140.57,-600.903 144.455,-603.441"/>
<polygon fill="midnightblue" stroke="midnightblue" points="54.2196,-335.611 50.2756,-325.777 47.2266,-335.924 54.2196,-335.611"/>
</g>
<!-- Node3 -->
<g id="node3" class="node"><title>Node3</title>
<g id="a_node3"><a xlink:href="classmexiface_1_1MexIFace.html#ab6a850c6bbb3cd5a468cba93e4c0019e" target="_top" xlink:title="mexiface::MexIFace\l::getAsScalarDict">
<polygon fill="white" stroke="black" points="135.5,-556.5 135.5,-584.5 233.5,-584.5 233.5,-556.5 135.5,-556.5"/>
<text text-anchor="start" x="143.5" y="-573.3" font-family="Helvetica,sans-Serif" font-size="9.00">mexiface::MexIFace</text>
<text text-anchor="middle" x="184.5" y="-563.3" font-family="Helvetica,sans-Serif" font-size="9.00">::getAsScalarDict</text>
</a>
</g>
</g>
<!-- Node1&#45;&gt;Node3 -->
<g id="edge2" class="edge"><title>Node1&#45;&gt;Node3</title>
<path fill="none" stroke="midnightblue" d="M52.4425,-335.716C58.338,-382.305 77.3288,-485.296 134,-547.5 137.063,-550.862 140.718,-553.772 144.635,-556.282"/>
<polygon fill="midnightblue" stroke="midnightblue" points="55.9031,-335.175 51.2644,-325.649 48.9505,-335.988 55.9031,-335.175"/>
</g>
<!-- Node4 -->
<g id="node4" class="node"><title>Node4</title>
<g id="a_node4"><a xlink:href="classmexiface_1_1MexIFace.html#a7ace2738c19c8b6c6acaf2fcf1e0d149" target="_top" xlink:title="mexiface::MexIFace\l::getCubeArray">
<polygon fill="white" stroke="black" points="135.5,-509.5 135.5,-537.5 233.5,-537.5 233.5,-509.5 135.5,-509.5"/>
<text text-anchor="start" x="143.5" y="-526.3" font-family="Helvetica,sans-Serif" font-size="9.00">mexiface::MexIFace</text>
<text text-anchor="middle" x="184.5" y="-516.3" font-family="Helvetica,sans-Serif" font-size="9.00">::getCubeArray</text>
</a>
</g>
</g>
<!-- Node1&#45;&gt;Node4 -->
<g id="edge3" class="edge"><title>Node1&#45;&gt;Node4</title>
<path fill="none" stroke="midnightblue" d="M54.9012,-335.477C64.0445,-374.676 87.1681,-452.877 134,-500.5 137.322,-503.878 141.235,-506.814 145.381,-509.352"/>
<polygon fill="midnightblue" stroke="midnightblue" points="58.2727,-334.514 52.685,-325.513 51.4397,-336.034 58.2727,-334.514"/>
</g>
<!-- Node5 -->
<g id="node5" class="node"><title>Node5</title>
<g id="a_node5"><a xlink:href="classmexiface_1_1MexIFace.html#add7627b38f958fc2252e107d2385bc07" target="_top" xlink:title="mexiface::MexIFace\l::getCubeDict">
<polygon fill="white" stroke="black" points="135.5,-462.5 135.5,-490.5 233.5,-490.5 233.5,-462.5 135.5,-462.5"/>
<text text-anchor="start" x="143.5" y="-479.3" font-family="Helvetica,sans-Serif" font-size="9.00">mexiface::MexIFace</text>
<text text-anchor="middle" x="184.5" y="-469.3" font-family="Helvetica,sans-Serif" font-size="9.00">::getCubeDict</text>
</a>
</g>
</g>
<!-- Node1&#45;&gt;Node5 -->
<g id="edge4" class="edge"><title>Node1&#45;&gt;Node5</title>
<path fill="none" stroke="midnightblue" d="M58.8979,-335.42C71.4386,-366.287 96.9912,-419.992 134,-453.5 137.723,-456.871 142.026,-459.832 146.51,-462.408"/>
<polygon fill="midnightblue" stroke="midnightblue" points="62.066,-333.913 55.1461,-325.89 55.5525,-336.477 62.066,-333.913"/>
</g>
<!-- Node6 -->
<g id="node6" class="node"><title>Node6</title>
<g id="a_node6"><a xlink:href="classmexiface_1_1MexIFace.html#a4a14aef74c93b58b5b33842442210eca" target="_top" xlink:title="mexiface::MexIFace\l::getHypercubeArray">
<polygon fill="white" stroke="black" points="134,-415.5 134,-443.5 235,-443.5 235,-415.5 134,-415.5"/>
<text text-anchor="start" x="142" y="-432.3" font-family="Helvetica,sans-Serif" font-size="9.00">mexiface::MexIFace</text>
<text text-anchor="middle" x="184.5" y="-422.3" font-family="Helvetica,sans-Serif" font-size="9.00">::getHypercubeArray</text>
</a>
</g>
</g>
<!-- Node1&#45;&gt;Node6 -->
<g id="edge5" class="edge"><title>Node1&#45;&gt;Node6</title>
<path fill="none" stroke="midnightblue" d="M65.651,-334.012C81.0983,-354.934 106.36,-385.883 134,-406.5 138.406,-409.786 143.356,-412.764 148.378,-415.404"/>
<polygon fill="midnightblue" stroke="midnightblue" points="68.3496,-331.771 59.6533,-325.719 62.6775,-335.873 68.3496,-331.771"/>
</g>
<!-- Node7 -->
<g id="node7" class="node"><title>Node7</title>
<g id="a_node7"><a xlink:href="classmexiface_1_1MexIFace.html#adc2f6c4e44337eddb4450d891fab7663" target="_top" xlink:title="mexiface::MexIFace\l::getHypercubeDict">
<polygon fill="white" stroke="black" points="135.5,-368.5 135.5,-396.5 233.5,-396.5 233.5,-368.5 135.5,-368.5"/>
<text text-anchor="start" x="143.5" y="-385.3" font-family="Helvetica,sans-Serif" font-size="9.00">mexiface::MexIFace</text>
<text text-anchor="middle" x="184.5" y="-375.3" font-family="Helvetica,sans-Serif" font-size="9.00">::getHypercubeDict</text>
</a>
</g>
</g>
<!-- Node1&#45;&gt;Node7 -->
<g id="edge6" class="edge"><title>Node1&#45;&gt;Node7</title>
<path fill="none" stroke="midnightblue" d="M82.2815,-330.793C97.7583,-339.823 116.662,-350.539 134,-359.5 139.809,-362.502 146.082,-365.557 152.148,-368.418"/>
<polygon fill="midnightblue" stroke="midnightblue" points="83.9982,-327.742 73.6027,-325.696 80.4535,-333.778 83.9982,-327.742"/>
</g>
<!-- Node8 -->
<g id="node8" class="node"><title>Node8</title>
<g id="a_node8"><a xlink:href="classmexiface_1_1MexIFace.html#af92d41ae927a407a8c287328e2902681" target="_top" xlink:title="mexiface::MexIFace\l::getMatArray">
<polygon fill="white" stroke="black" points="135.5,-321.5 135.5,-349.5 233.5,-349.5 233.5,-321.5 135.5,-321.5"/>
<text text-anchor="start" x="143.5" y="-338.3" font-family="Helvetica,sans-Serif" font-size="9.00">mexiface::MexIFace</text>
<text text-anchor="middle" x="184.5" y="-328.3" font-family="Helvetica,sans-Serif" font-size="9.00">::getMatArray</text>
</a>
</g>
</g>
<!-- Node1&#45;&gt;Node8 -->
<g id="edge7" class="edge"><title>Node1&#45;&gt;Node8</title>
<path fill="none" stroke="midnightblue" d="M108.284,-321.978C117.329,-323.604 126.586,-325.268 135.374,-326.848"/>
<polygon fill="midnightblue" stroke="midnightblue" points="108.658,-318.489 98.1966,-320.165 107.419,-325.379 108.658,-318.489"/>
</g>
<!-- Node9 -->
<g id="node9" class="node"><title>Node9</title>
<g id="a_node9"><a xlink:href="classmexiface_1_1MexIFace.html#a1bbba7b227a01e60c32602394943302e" target="_top" xlink:title="mexiface::MexIFace\l::getMatDict">
<polygon fill="white" stroke="black" points="135.5,-274.5 135.5,-302.5 233.5,-302.5 233.5,-274.5 135.5,-274.5"/>
<text text-anchor="start" x="143.5" y="-291.3" font-family="Helvetica,sans-Serif" font-size="9.00">mexiface::MexIFace</text>
<text text-anchor="middle" x="184.5" y="-281.3" font-family="Helvetica,sans-Serif" font-size="9.00">::getMatDict</text>
</a>
</g>
</g>
<!-- Node1&#45;&gt;Node9 -->
<g id="edge8" class="edge"><title>Node1&#45;&gt;Node9</title>
<path fill="none" stroke="midnightblue" d="M108.284,-301.459C117.329,-299.9 126.586,-298.305 135.374,-296.791"/>
<polygon fill="midnightblue" stroke="midnightblue" points="107.457,-298.049 98.1966,-303.196 108.646,-304.948 107.457,-298.049"/>
</g>
<!-- Node10 -->
<g id="node10" class="node"><title>Node10</title>
<g id="a_node10"><a xlink:href="classmexiface_1_1MexIFace.html#af0b2e90f4bcca31d670cfaff193456f0" target="_top" xlink:title="mexiface::MexIFace\l::getScalarArray">
<polygon fill="white" stroke="black" points="135.5,-227.5 135.5,-255.5 233.5,-255.5 233.5,-227.5 135.5,-227.5"/>
<text text-anchor="start" x="143.5" y="-244.3" font-family="Helvetica,sans-Serif" font-size="9.00">mexiface::MexIFace</text>
<text text-anchor="middle" x="184.5" y="-234.3" font-family="Helvetica,sans-Serif" font-size="9.00">::getScalarArray</text>
</a>
</g>
</g>
<!-- Node1&#45;&gt;Node10 -->
<g id="edge9" class="edge"><title>Node1&#45;&gt;Node10</title>
<path fill="none" stroke="midnightblue" d="M83.8706,-292.454C99.1006,-284.019 117.358,-274.085 134,-265.5 140.366,-262.216 147.25,-258.797 153.803,-255.603"/>
<polygon fill="midnightblue" stroke="midnightblue" points="81.8591,-289.568 74.8205,-297.487 85.2611,-295.686 81.8591,-289.568"/>
</g>
<!-- Node11 -->
<g id="node11" class="node"><title>Node11</title>
<g id="a_node11"><a xlink:href="classmexiface_1_1MexIFace.html#a5d447588f02084232527e98e71182a78" target="_top" xlink:title="mexiface::MexIFace\l::getScalarDict">
<polygon fill="white" stroke="black" points="135.5,-180.5 135.5,-208.5 233.5,-208.5 233.5,-180.5 135.5,-180.5"/>
<text text-anchor="start" x="143.5" y="-197.3" font-family="Helvetica,sans-Serif" font-size="9.00">mexiface::MexIFace</text>
<text text-anchor="middle" x="184.5" y="-187.3" font-family="Helvetica,sans-Serif" font-size="9.00">::getScalarDict</text>
</a>
</g>
</g>
<!-- Node1&#45;&gt;Node11 -->
<g id="edge10" class="edge"><title>Node1&#45;&gt;Node11</title>
<path fill="none" stroke="midnightblue" d="M66.0872,-289.242C81.6808,-268.855 106.898,-238.841 134,-218.5 138.889,-214.831 144.427,-211.496 149.984,-208.559"/>
<polygon fill="midnightblue" stroke="midnightblue" points="63.2177,-287.235 60.0159,-297.335 68.817,-291.436 63.2177,-287.235"/>
</g>
<!-- Node12 -->
<g id="node12" class="node"><title>Node12</title>
<g id="a_node12"><a xlink:href="classmexiface_1_1MexIFace.html#a82c2478cb12301e02edcef234fc80fb1" target="_top" xlink:title="Reads a mxArray as a string. ">
<polygon fill="white" stroke="black" points="135.5,-133.5 135.5,-161.5 233.5,-161.5 233.5,-133.5 135.5,-133.5"/>
<text text-anchor="start" x="143.5" y="-150.3" font-family="Helvetica,sans-Serif" font-size="9.00">mexiface::MexIFace</text>
<text text-anchor="middle" x="184.5" y="-140.3" font-family="Helvetica,sans-Serif" font-size="9.00">::getString</text>
</a>
</g>
</g>
<!-- Node1&#45;&gt;Node12 -->
<g id="edge11" class="edge"><title>Node1&#45;&gt;Node12</title>
<path fill="none" stroke="midnightblue" d="M59.0678,-288.012C71.7934,-257.682 97.547,-204.846 134,-171.5 138.158,-167.697 143.028,-164.372 148.062,-161.507"/>
<polygon fill="midnightblue" stroke="midnightblue" points="55.7854,-286.792 55.2549,-297.374 62.2683,-289.432 55.7854,-286.792"/>
</g>
<!-- Node14 -->
<g id="node14" class="node"><title>Node14</title>
<g id="a_node14"><a xlink:href="classmexiface_1_1MexIFace.html#af398ae966ad89f4a0cf773069694be1f" target="_top" xlink:title="mexiface::MexIFace\l::getStringArray">
<polygon fill="white" stroke="black" points="271,-90.5 271,-118.5 369,-118.5 369,-90.5 271,-90.5"/>
<text text-anchor="start" x="279" y="-107.3" font-family="Helvetica,sans-Serif" font-size="9.00">mexiface::MexIFace</text>
<text text-anchor="middle" x="320" y="-97.3" font-family="Helvetica,sans-Serif" font-size="9.00">::getStringArray</text>
</a>
</g>
</g>
<!-- Node1&#45;&gt;Node14 -->
<g id="edge14" class="edge"><title>Node1&#45;&gt;Node14</title>
<path fill="none" stroke="midnightblue" d="M53.1526,-287.37C59.8987,-246.4 79.8094,-163.858 134,-124.5 173.339,-95.9289 230.363,-94.0389 270.682,-97.3334"/>
<polygon fill="midnightblue" stroke="midnightblue" points="49.6862,-286.885 51.6443,-297.297 56.6068,-287.936 49.6862,-286.885"/>
</g>
<!-- Node15 -->
<g id="node15" class="node"><title>Node15</title>
<g id="a_node15"><a xlink:href="classmexiface_1_1MexIFace.html#a9ef24930476d54735e0cc97ef53f182b" target="_top" xlink:title="mexiface::MexIFace\l::getVecArray">
<polygon fill="white" stroke="black" points="135.5,-47.5 135.5,-75.5 233.5,-75.5 233.5,-47.5 135.5,-47.5"/>
<text text-anchor="start" x="143.5" y="-64.3" font-family="Helvetica,sans-Serif" font-size="9.00">mexiface::MexIFace</text>
<text text-anchor="middle" x="184.5" y="-54.3" font-family="Helvetica,sans-Serif" font-size="9.00">::getVecArray</text>
</a>
</g>
</g>
<!-- Node1&#45;&gt;Node15 -->
<g id="edge15" class="edge"><title>Node1&#45;&gt;Node15</title>
<path fill="none" stroke="midnightblue" d="M53.7257,-287.452C61.5711,-243.75 83.4184,-150.305 134,-90.5 138.953,-84.6443 145.404,-79.6876 152.005,-75.6188"/>
<polygon fill="midnightblue" stroke="midnightblue" points="50.2533,-286.994 52.0238,-297.44 57.1538,-288.17 50.2533,-286.994"/>
</g>
<!-- Node16 -->
<g id="node16" class="node"><title>Node16</title>
<g id="a_node16"><a xlink:href="classmexiface_1_1MexIFace.html#a7054db3d2f9b86ffca877a8069e4bb23" target="_top" xlink:title="mexiface::MexIFace\l::getVecDict">
<polygon fill="white" stroke="black" points="135.5,-0.5 135.5,-28.5 233.5,-28.5 233.5,-0.5 135.5,-0.5"/>
<text text-anchor="start" x="143.5" y="-17.3" font-family="Helvetica,sans-Serif" font-size="9.00">mexiface::MexIFace</text>
<text text-anchor="middle" x="184.5" y="-7.3" font-family="Helvetica,sans-Serif" font-size="9.00">::getVecDict</text>
</a>
</g>
</g>
<!-- Node1&#45;&gt;Node16 -->
<g id="edge16" class="edge"><title>Node1&#45;&gt;Node16</title>
<path fill="none" stroke="midnightblue" d="M51.1398,-287.266C54.7909,-235.549 70.0882,-113.019 134,-38.5 137.233,-34.7303 141.195,-31.5017 145.457,-28.7501"/>
<polygon fill="midnightblue" stroke="midnightblue" points="47.6334,-287.263 50.5096,-297.46 54.6201,-287.695 47.6334,-287.263"/>
</g>
<!-- Node13 -->
<g id="node13" class="node"><title>Node13</title>
<g id="a_node13"><a xlink:href="classmexiface_1_1MexIFace.html#a17f0280024d7cdd318b13223174b6151" target="_top" xlink:title="The mexFunction that will be exposed as the entry point for the .mex file. ">
<polygon fill="white" stroke="black" points="271,-137.5 271,-165.5 369,-165.5 369,-137.5 271,-137.5"/>
<text text-anchor="start" x="279" y="-154.3" font-family="Helvetica,sans-Serif" font-size="9.00">mexiface::MexIFace</text>
<text text-anchor="middle" x="320" y="-144.3" font-family="Helvetica,sans-Serif" font-size="9.00">::mexFunction</text>
</a>
</g>
</g>
<!-- Node12&#45;&gt;Node13 -->
<g id="edge12" class="edge"><title>Node12&#45;&gt;Node13</title>
<path fill="none" stroke="midnightblue" d="M243.784,-149.246C252.829,-149.517 262.086,-149.795 270.874,-150.058"/>
<polygon fill="midnightblue" stroke="midnightblue" points="243.797,-145.745 233.697,-148.944 243.587,-152.742 243.797,-145.745"/>
</g>
<!-- Node12&#45;&gt;Node14 -->
<g id="edge13" class="edge"><title>Node12&#45;&gt;Node14</title>
<path fill="none" stroke="midnightblue" d="M238.745,-130.35C250.835,-126.456 263.542,-122.363 275.189,-118.611"/>
<polygon fill="midnightblue" stroke="midnightblue" points="237.658,-127.023 229.213,-133.42 239.804,-133.686 237.658,-127.023"/>
</g>
</g>
</svg>
        <g id="navigator" transform="translate(0 0)" fill="#404254">
                <rect fill="#f2f5e9" fill-opacity="0.5" stroke="#606060" stroke-width=".5" x="0" y="0" width="60" height="60"/>
                <use id="zoomplus" xlink:href="#zoomPlus" x="17" y="9" onmousedown="handleZoom(evt,'in')"/>
                <use id="zoomminus" xlink:href="#zoomMin" x="42" y="9" onmousedown="handleZoom(evt,'out')"/>
                <use id="reset" xlink:href="#resetDef" x="30" y="36" onmousedown="handleReset()"/>
                <g id="arrowUp" xlink:href="#dirArrow" transform="translate(30 24)" onmousedown="handlePan(0,-1)">
                  <use xlink:href="#rim" fill="#404040">
                        <set attributeName="fill" to="#808080" begin="arrowUp.mouseover" end="arrowUp.mouseout"/>
                  </use>
                  <path fill="none" stroke="white" stroke-width="1.5" d="M0,-3.0v7 M-2.5,-0.5L0,-3.0L2.5,-0.5"/>
                </g>
                <g id="arrowRight" xlink:href="#dirArrow" transform="rotate(90) translate(36 -43)" onmousedown="handlePan(1,0)">
                  <use xlink:href="#rim" fill="#404040">
                        <set attributeName="fill" to="#808080" begin="arrowRight.mouseover" end="arrowRight.mouseout"/>
                  </use>
                  <path fill="none" stroke="white" stroke-width="1.5" d="M0,-3.0v7 M-2.5,-0.5L0,-3.0L2.5,-0.5"/>
                </g>
                <g id="arrowDown" xlink:href="#dirArrow" transform="rotate(180) translate(-30 -48)" onmousedown="handlePan(0,1)">
                  <use xlink:href="#rim" fill="#404040">
                        <set attributeName="fill" to="#808080" begin="arrowDown.mouseover" end="arrowDown.mouseout"/>
                  </use>
                  <path fill="none" stroke="white" stroke-width="1.5" d="M0,-3.0v7 M-2.5,-0.5L0,-3.0L2.5,-0.5"/>
                </g>
                <g id="arrowLeft" xlink:href="#dirArrow" transform="rotate(270) translate(-36 17)" onmousedown="handlePan(-1,0)">
                  <use xlink:href="#rim" fill="#404040">
                        <set attributeName="fill" to="#808080" begin="arrowLeft.mouseover" end="arrowLeft.mouseout"/>
                  </use>
                  <path fill="none" stroke="white" stroke-width="1.5" d="M0,-3.0v7 M-2.5,-0.5L0,-3.0L2.5,-0.5"/>
                </g>
        </g>
        <svg viewBox="0 0 15 15" width="100%" height="30px" preserveAspectRatio="xMaxYMin meet">
         <g id="arrow_out" transform="scale(0.3 0.3)">
          <a xlink:href="classmexiface_1_1MexIFace_a4e3b68c1b831521c073e1ca13c874044_icgraph_org.svg" target="_base">
           <rect id="button" ry="5" rx="5" y="6" x="6" height="38" width="38"
                fill="#f2f5e9" fill-opacity="0.5" stroke="#606060" stroke-width="1.0"/>
           <path id="arrow"
             d="M 11.500037,31.436501 C 11.940474,20.09759 22.043105,11.32322 32.158766,21.979434 L 37.068811,17.246167 C 37.068811,17.246167 37.088388,32 37.088388,32 L 22.160133,31.978069 C 22.160133,31.978069 26.997745,27.140456 26.997745,27.140456 C 18.528582,18.264221 13.291696,25.230495 11.500037,31.436501 z"
             style="fill:#404040;"/>
          </a>
         </g>
        </svg>
</svg>
