<?xml version="1.0" encoding="UTF-8" standalone="no"?>
<!DOCTYPE svg PUBLIC "-//W3C//DTD SVG 1.1//EN"
 "http://www.w3.org/Graphics/SVG/1.1/DTD/svg11.dtd">
<!-- Generated by graphviz version 2.36.0 (20140111.2315)
 -->
<!-- Title: mexiface::MexIFaceHandler::outputHandle Pages: 1 -->
<svg width="296pt" height="36pt"
 viewBox="0.00 0.00 296.00 36.00" xmlns="http://www.w3.org/2000/svg" xmlns:xlink="http://www.w3.org/1999/xlink">
<g id="graph0" class="graph" transform="scale(1 1) rotate(0) translate(4 32)">
<title>mexiface::MexIFaceHandler::outputHandle</title>
<polygon fill="white" stroke="none" points="-4,4 -4,-32 292,-32 292,4 -4,4"/>
<!-- Node1 -->
<g id="node1" class="node"><title>Node1</title>
<polygon fill="#bfbfbf" stroke="black" points="0.5,-0 0.5,-28 131.5,-28 131.5,-0 0.5,-0"/>
<text text-anchor="start" x="8.5" y="-16.8" font-family="Helvetica,sans-Serif" font-size="9.00">mexiface::MexIFaceHandler</text>
<text text-anchor="middle" x="66" y="-6.8" font-family="Helvetica,sans-Serif" font-size="9.00">::outputHandle</text>
</g>
<!-- Node2 -->
<g id="node2" class="node"><title>Node2</title>
<g id="a_node2"><a xlink:href="classmexiface_1_1MexIFaceBase.html#a7b02010942d96c00d7e456b41139cc18" target="_top" xlink:title="Append a generic mxArray to the output arguments This is virtual because MexIFaceHandler need to use ...">
<polygon fill="white" stroke="black" points="168.5,-0 168.5,-28 287.5,-28 287.5,-0 168.5,-0"/>
<text text-anchor="start" x="176.5" y="-16.8" font-family="Helvetica,sans-Serif" font-size="9.00">mexiface::MexIFaceBase</text>
<text text-anchor="middle" x="228" y="-6.8" font-family="Helvetica,sans-Serif" font-size="9.00">::output</text>
</a>
</g>
</g>
<!-- Node1&#45;&gt;Node2 -->
<g id="edge1" class="edge"><title>Node1&#45;&gt;Node2</title>
<path fill="none" stroke="midnightblue" d="M131.617,-14C140.344,-14 149.325,-14 158.123,-14"/>
<polygon fill="midnightblue" stroke="midnightblue" points="158.341,-17.5001 168.341,-14 158.341,-10.5001 158.341,-17.5001"/>
</g>
</g>
</svg>
