<?xml version="1.0" encoding="UTF-8" standalone="no"?>
<!DOCTYPE svg PUBLIC "-//W3C//DTD SVG 1.1//EN"
 "http://www.w3.org/Graphics/SVG/1.1/DTD/svg11.dtd">
<!-- Generated by graphviz version 2.36.0 (20140111.2315)
 -->
<!-- Title: mexiface::MexIFaceHandler::objDestroy Pages: 1 -->
<svg width="298pt" height="36pt"
 viewBox="0.00 0.00 298.00 36.00" xmlns="http://www.w3.org/2000/svg" xmlns:xlink="http://www.w3.org/1999/xlink">
<g id="graph0" class="graph" transform="scale(1 1) rotate(0) translate(4 32)">
<title>mexiface::MexIFaceHandler::objDestroy</title>
<polygon fill="white" stroke="none" points="-4,4 -4,-32 294,-32 294,4 -4,4"/>
<!-- Node1 -->
<g id="node1" class="node"><title>Node1</title>
<polygon fill="#bfbfbf" stroke="black" points="0.5,-0 0.5,-28 131.5,-28 131.5,-0 0.5,-0"/>
<text text-anchor="start" x="8.5" y="-16.8" font-family="Helvetica,sans-Serif" font-size="9.00">mexiface::MexIFaceHandler</text>
<text text-anchor="middle" x="66" y="-6.8" font-family="Helvetica,sans-Serif" font-size="9.00">::objDestroy</text>
</g>
<!-- Node2 -->
<g id="node2" class="node"><title>Node2</title>
<g id="a_node2"><a xlink:href="classmexiface_1_1Handle.html#ab0fd78da00e309b26ec673a62d0b0b71" target="_top" xlink:title="Given a matlab mxArray object pointer to data that represents a handle, delete the handle which also ...">
<polygon fill="white" stroke="black" points="168,-0 168,-28 290,-28 290,-0 168,-0"/>
<text text-anchor="start" x="176" y="-16.8" font-family="Helvetica,sans-Serif" font-size="9.00">mexiface::Handle::destroy</text>
<text text-anchor="middle" x="229" y="-6.8" font-family="Helvetica,sans-Serif" font-size="9.00">Object</text>
</a>
</g>
</g>
<!-- Node1&#45;&gt;Node2 -->
<g id="edge1" class="edge"><title>Node1&#45;&gt;Node2</title>
<path fill="none" stroke="midnightblue" d="M131.557,-14C140.172,-14 149.04,-14 157.745,-14"/>
<polygon fill="midnightblue" stroke="midnightblue" points="157.865,-17.5001 167.865,-14 157.865,-10.5001 157.865,-17.5001"/>
</g>
</g>
</svg>
