<?xml version="1.0" encoding="UTF-8" standalone="no"?>
<!DOCTYPE svg PUBLIC "-//W3C//DTD SVG 1.1//EN"
 "http://www.w3.org/Graphics/SVG/1.1/DTD/svg11.dtd">
<!-- Generated by graphviz version 2.36.0 (20140111.2315)
 -->
<!-- Title: mexiface::MexIFace::getStringArray Pages: 1 -->
<svg width="374pt" height="93pt"
 viewBox="0.00 0.00 374.00 93.00" xmlns="http://www.w3.org/2000/svg" xmlns:xlink="http://www.w3.org/1999/xlink">
<g id="graph0" class="graph" transform="scale(1 1) rotate(0) translate(4 89)">
<title>mexiface::MexIFace::getStringArray</title>
<polygon fill="white" stroke="none" points="-4,4 -4,-89 370,-89 370,4 -4,4"/>
<!-- Node1 -->
<g id="node1" class="node"><title>Node1</title>
<polygon fill="#bfbfbf" stroke="black" points="0,-24 0,-52 98,-52 98,-24 0,-24"/>
<text text-anchor="start" x="8" y="-40.8" font-family="Helvetica,sans-Serif" font-size="9.00">mexiface::MexIFace</text>
<text text-anchor="middle" x="49" y="-30.8" font-family="Helvetica,sans-Serif" font-size="9.00">::getStringArray</text>
</g>
<!-- Node2 -->
<g id="node2" class="node"><title>Node2</title>
<g id="a_node2"><a xlink:href="classmexiface_1_1MexIFace.html#a4e3b68c1b831521c073e1ca13c874044" target="_top" xlink:title="mexiface::MexIFace\l::checkType">
<polygon fill="white" stroke="black" points="268,-57 268,-85 366,-85 366,-57 268,-57"/>
<text text-anchor="start" x="276" y="-73.8" font-family="Helvetica,sans-Serif" font-size="9.00">mexiface::MexIFace</text>
<text text-anchor="middle" x="317" y="-63.8" font-family="Helvetica,sans-Serif" font-size="9.00">::checkType</text>
</a>
</g>
</g>
<!-- Node1&#45;&gt;Node2 -->
<g id="edge1" class="edge"><title>Node1&#45;&gt;Node2</title>
<path fill="none" stroke="midnightblue" d="M94.5137,-52.0782C107.155,-55.5582 121.016,-58.8903 134,-61 174.938,-67.6516 221.662,-70.1136 257.517,-70.9323"/>
<polygon fill="midnightblue" stroke="midnightblue" points="257.736,-74.437 267.801,-71.1291 257.87,-67.4383 257.736,-74.437"/>
</g>
<!-- Node3 -->
<g id="node3" class="node"><title>Node3</title>
<g id="a_node3"><a xlink:href="classmexiface_1_1MexIFace.html#a658f8f66c8d6bacce3947a42a90f5610" target="_top" xlink:title="mexiface::MexIFace\l::checkVectorSize">
<polygon fill="white" stroke="black" points="268,-0 268,-28 366,-28 366,-0 268,-0"/>
<text text-anchor="start" x="276" y="-16.8" font-family="Helvetica,sans-Serif" font-size="9.00">mexiface::MexIFace</text>
<text text-anchor="middle" x="317" y="-6.8" font-family="Helvetica,sans-Serif" font-size="9.00">::checkVectorSize</text>
</a>
</g>
</g>
<!-- Node1&#45;&gt;Node3 -->
<g id="edge2" class="edge"><title>Node1&#45;&gt;Node3</title>
<path fill="none" stroke="midnightblue" d="M90.524,-23.9604C104.163,-19.8994 119.581,-16.0195 134,-14 175.012,-8.25609 221.734,-8.39352 257.57,-9.89574"/>
<polygon fill="midnightblue" stroke="midnightblue" points="257.696,-13.4053 267.848,-10.3762 258.022,-6.41298 257.696,-13.4053"/>
</g>
<!-- Node4 -->
<g id="node4" class="node"><title>Node4</title>
<g id="a_node4"><a xlink:href="classmexiface_1_1MexIFace.html#a82c2478cb12301e02edcef234fc80fb1" target="_top" xlink:title="Reads a mxArray as a string. ">
<polygon fill="white" stroke="black" points="134,-24 134,-52 232,-52 232,-24 134,-24"/>
<text text-anchor="start" x="142" y="-40.8" font-family="Helvetica,sans-Serif" font-size="9.00">mexiface::MexIFace</text>
<text text-anchor="middle" x="183" y="-30.8" font-family="Helvetica,sans-Serif" font-size="9.00">::getString</text>
</a>
</g>
</g>
<!-- Node1&#45;&gt;Node4 -->
<g id="edge3" class="edge"><title>Node1&#45;&gt;Node4</title>
<path fill="none" stroke="midnightblue" d="M98.0284,-38C106.309,-38 114.997,-38 123.517,-38"/>
<polygon fill="midnightblue" stroke="midnightblue" points="123.786,-41.5001 133.786,-38 123.786,-34.5001 123.786,-41.5001"/>
</g>
<!-- Node4&#45;&gt;Node2 -->
<g id="edge4" class="edge"><title>Node4&#45;&gt;Node2</title>
<path fill="none" stroke="midnightblue" d="M232.028,-50.0071C240.491,-52.1227 249.38,-54.3449 258.078,-56.5196"/>
<polygon fill="midnightblue" stroke="midnightblue" points="257.236,-59.9166 267.786,-58.9465 258.934,-53.1256 257.236,-59.9166"/>
</g>
<!-- Node4&#45;&gt;Node3 -->
<g id="edge5" class="edge"><title>Node4&#45;&gt;Node3</title>
<path fill="none" stroke="midnightblue" d="M232.028,-29.2676C240.4,-27.7455 249.188,-26.1475 257.798,-24.5822"/>
<polygon fill="midnightblue" stroke="midnightblue" points="258.574,-27.9986 267.786,-22.7662 257.321,-21.1116 258.574,-27.9986"/>
</g>
</g>
</svg>
