<?xml version="1.0" encoding="UTF-8" standalone="no"?>
<!DOCTYPE svg PUBLIC "-//W3C//DTD SVG 1.1//EN"
 "http://www.w3.org/Graphics/SVG/1.1/DTD/svg11.dtd">
<!-- Generated by graphviz version 2.38.0 (20140413.2041)
 -->
<!-- Title: mexiface::MexIFaceBase::obj_name Pages: 1 -->
<svg width="395pt" height="59pt"
 viewBox="0.00 0.00 395.00 59.00" xmlns="http://www.w3.org/2000/svg" xmlns:xlink="http://www.w3.org/1999/xlink">
<g id="graph0" class="graph" transform="scale(1 1) rotate(0) translate(4 55)">
<title>mexiface::MexIFaceBase::obj_name</title>
<polygon fill="white" stroke="none" points="-4,4 -4,-55 391,-55 391,4 -4,4"/>
<!-- Node1 -->
<g id="node1" class="node"><title>Node1</title>
<polygon fill="#bfbfbf" stroke="black" points="0,-0.5 0,-28.5 119,-28.5 119,-0.5 0,-0.5"/>
<text text-anchor="start" x="8" y="-17.3" font-family="Helvetica,sans-Serif" font-size="9.00">mexiface::MexIFaceBase</text>
<text text-anchor="middle" x="59.5" y="-7.3" font-family="Helvetica,sans-Serif" font-size="9.00">::obj_name</text>
</g>
<!-- Node2 -->
<g id="node2" class="node"><title>Node2</title>
<g id="a_node2"><a xlink:href="classmexiface_1_1MexIFace.html#ab37cc0883774aa152e3b117efc1eb2ad" target="_top" xlink:title="Reports an error condition to Matlab using the mexErrMsgIdAndTxt function. ">
<polygon fill="white" stroke="black" points="155,-22.5 155,-50.5 253,-50.5 253,-22.5 155,-22.5"/>
<text text-anchor="start" x="163" y="-39.3" font-family="Helvetica,sans-Serif" font-size="9.00">mexiface::MexIFace</text>
<text text-anchor="middle" x="204" y="-29.3" font-family="Helvetica,sans-Serif" font-size="9.00">::error</text>
</a>
</g>
</g>
<!-- Node1&#45;&gt;Node2 -->
<g id="edge1" class="edge"><title>Node1&#45;&gt;Node2</title>
<path fill="none" stroke="midnightblue" d="M129.327,-25.1259C137.926,-26.4535 146.573,-27.7885 154.765,-29.0532"/>
<polygon fill="midnightblue" stroke="midnightblue" points="129.7,-21.6421 119.283,-23.5753 128.632,-28.5601 129.7,-21.6421"/>
</g>
<!-- Node3 -->
<g id="node3" class="node"><title>Node3</title>
<g id="a_node3"><a xlink:href="classmexiface_1_1MexIFace.html#a17f0280024d7cdd318b13223174b6151" target="_top" xlink:title="The mexFunction that will be exposed as the entry point for the .mex file. ">
<polygon fill="white" stroke="black" points="289,-0.5 289,-28.5 387,-28.5 387,-0.5 289,-0.5"/>
<text text-anchor="start" x="297" y="-17.3" font-family="Helvetica,sans-Serif" font-size="9.00">mexiface::MexIFace</text>
<text text-anchor="middle" x="338" y="-7.3" font-family="Helvetica,sans-Serif" font-size="9.00">::mexFunction</text>
</a>
</g>
</g>
<!-- Node1&#45;&gt;Node3 -->
<g id="edge3" class="edge"><title>Node1&#45;&gt;Node3</title>
<path fill="none" stroke="midnightblue" d="M129.314,-13.6869C137.961,-13.6097 146.686,-13.544 155,-13.5 198.555,-13.2696 209.445,-13.2408 253,-13.5 264.521,-13.5686 276.931,-13.6901 288.584,-13.8253"/>
<polygon fill="midnightblue" stroke="midnightblue" points="129.193,-10.1878 119.227,-13.7821 129.259,-17.1875 129.193,-10.1878"/>
</g>
<!-- Node2&#45;&gt;Node3 -->
<g id="edge2" class="edge"><title>Node2&#45;&gt;Node3</title>
<path fill="none" stroke="midnightblue" d="M263.012,-26.8314C271.618,-25.397 280.409,-23.9319 288.786,-22.5356"/>
<polygon fill="midnightblue" stroke="midnightblue" points="262.317,-23.3988 253.028,-28.4953 263.468,-30.3036 262.317,-23.3988"/>
</g>
</g>
</svg>
