<?xml version="1.0" encoding="UTF-8" standalone="no"?>
<!DOCTYPE svg PUBLIC "-//W3C//DTD SVG 1.1//EN"
 "http://www.w3.org/Graphics/SVG/1.1/DTD/svg11.dtd">
<!-- Generated by graphviz version 2.38.0 (20140413.2041)
 -->
<!-- Title: mexiface::MexIFace::checkScalarSize Pages: 1 -->
<svg width="240pt" height="319pt"
 viewBox="0.00 0.00 240.00 319.00" xmlns="http://www.w3.org/2000/svg" xmlns:xlink="http://www.w3.org/1999/xlink">
<g id="graph0" class="graph" transform="scale(1 1) rotate(0) translate(4 315)">
<title>mexiface::MexIFace::checkScalarSize</title>
<polygon fill="white" stroke="none" points="-4,4 -4,-315 236,-315 236,4 -4,4"/>
<!-- Node1 -->
<g id="node1" class="node"><title>Node1</title>
<polygon fill="#bfbfbf" stroke="black" points="0,-141.5 0,-169.5 98,-169.5 98,-141.5 0,-141.5"/>
<text text-anchor="start" x="8" y="-158.3" font-family="Helvetica,sans-Serif" font-size="9.00">mexiface::MexIFace</text>
<text text-anchor="middle" x="49" y="-148.3" font-family="Helvetica,sans-Serif" font-size="9.00">::checkScalarSize</text>
</g>
<!-- Node2 -->
<g id="node2" class="node"><title>Node2</title>
<g id="a_node2"><a xlink:href="classmexiface_1_1MexIFace.html#a6f1d4e9129f7eccfe254bc13cd94187d" target="_top" xlink:title="mexiface::MexIFace\l::checkedToScalar">
<polygon fill="white" stroke="black" points="134,-282.5 134,-310.5 232,-310.5 232,-282.5 134,-282.5"/>
<text text-anchor="start" x="142" y="-299.3" font-family="Helvetica,sans-Serif" font-size="9.00">mexiface::MexIFace</text>
<text text-anchor="middle" x="183" y="-289.3" font-family="Helvetica,sans-Serif" font-size="9.00">::checkedToScalar</text>
</a>
</g>
</g>
<!-- Node1&#45;&gt;Node2 -->
<g id="edge1" class="edge"><title>Node1&#45;&gt;Node2</title>
<path fill="none" stroke="midnightblue" d="M61.823,-178.704C76.0034,-204.634 101.924,-246.51 134,-273.5 137.96,-276.832 142.484,-279.806 147.136,-282.421"/>
<polygon fill="midnightblue" stroke="midnightblue" points="64.7682,-176.789 56.9748,-169.611 58.5913,-180.082 64.7682,-176.789"/>
</g>
<!-- Node3 -->
<g id="node3" class="node"><title>Node3</title>
<g id="a_node3"><a xlink:href="classmexiface_1_1MexIFace.html#ab6a850c6bbb3cd5a468cba93e4c0019e" target="_top" xlink:title="mexiface::MexIFace\l::getAsScalarDict">
<polygon fill="white" stroke="black" points="134,-235.5 134,-263.5 232,-263.5 232,-235.5 134,-235.5"/>
<text text-anchor="start" x="142" y="-252.3" font-family="Helvetica,sans-Serif" font-size="9.00">mexiface::MexIFace</text>
<text text-anchor="middle" x="183" y="-242.3" font-family="Helvetica,sans-Serif" font-size="9.00">::getAsScalarDict</text>
</a>
</g>
</g>
<!-- Node1&#45;&gt;Node3 -->
<g id="edge2" class="edge"><title>Node1&#45;&gt;Node3</title>
<path fill="none" stroke="midnightblue" d="M71.6637,-176.501C87.9468,-191.594 111.268,-211.791 134,-226.5 138.888,-229.662 144.277,-232.661 149.624,-235.386"/>
<polygon fill="midnightblue" stroke="midnightblue" points="73.9518,-173.848 64.2689,-169.548 69.1568,-178.948 73.9518,-173.848"/>
</g>
<!-- Node4 -->
<g id="node4" class="node"><title>Node4</title>
<g id="a_node4"><a xlink:href="classmexiface_1_1MexIFace.html#add7627b38f958fc2252e107d2385bc07" target="_top" xlink:title="mexiface::MexIFace\l::getCubeDict">
<polygon fill="white" stroke="black" points="134,-188.5 134,-216.5 232,-216.5 232,-188.5 134,-188.5"/>
<text text-anchor="start" x="142" y="-205.3" font-family="Helvetica,sans-Serif" font-size="9.00">mexiface::MexIFace</text>
<text text-anchor="middle" x="183" y="-195.3" font-family="Helvetica,sans-Serif" font-size="9.00">::getCubeDict</text>
</a>
</g>
</g>
<!-- Node1&#45;&gt;Node4 -->
<g id="edge3" class="edge"><title>Node1&#45;&gt;Node4</title>
<path fill="none" stroke="midnightblue" d="M99.2513,-173.036C113.494,-178.108 128.852,-183.576 142.424,-188.408"/>
<polygon fill="midnightblue" stroke="midnightblue" points="100.199,-169.659 89.6044,-169.602 97.851,-176.253 100.199,-169.659"/>
</g>
<!-- Node5 -->
<g id="node5" class="node"><title>Node5</title>
<g id="a_node5"><a xlink:href="classmexiface_1_1MexIFace.html#adc2f6c4e44337eddb4450d891fab7663" target="_top" xlink:title="mexiface::MexIFace\l::getHypercubeDict">
<polygon fill="white" stroke="black" points="134,-141.5 134,-169.5 232,-169.5 232,-141.5 134,-141.5"/>
<text text-anchor="start" x="142" y="-158.3" font-family="Helvetica,sans-Serif" font-size="9.00">mexiface::MexIFace</text>
<text text-anchor="middle" x="183" y="-148.3" font-family="Helvetica,sans-Serif" font-size="9.00">::getHypercubeDict</text>
</a>
</g>
</g>
<!-- Node1&#45;&gt;Node5 -->
<g id="edge4" class="edge"><title>Node1&#45;&gt;Node5</title>
<path fill="none" stroke="midnightblue" d="M108.292,-155.5C116.809,-155.5 125.5,-155.5 133.786,-155.5"/>
<polygon fill="midnightblue" stroke="midnightblue" points="108.028,-152 98.0284,-155.5 108.028,-159 108.028,-152"/>
</g>
<!-- Node6 -->
<g id="node6" class="node"><title>Node6</title>
<g id="a_node6"><a xlink:href="classmexiface_1_1MexIFace.html#a1bbba7b227a01e60c32602394943302e" target="_top" xlink:title="mexiface::MexIFace\l::getMatDict">
<polygon fill="white" stroke="black" points="134,-94.5 134,-122.5 232,-122.5 232,-94.5 134,-94.5"/>
<text text-anchor="start" x="142" y="-111.3" font-family="Helvetica,sans-Serif" font-size="9.00">mexiface::MexIFace</text>
<text text-anchor="middle" x="183" y="-101.3" font-family="Helvetica,sans-Serif" font-size="9.00">::getMatDict</text>
</a>
</g>
</g>
<!-- Node1&#45;&gt;Node6 -->
<g id="edge5" class="edge"><title>Node1&#45;&gt;Node6</title>
<path fill="none" stroke="midnightblue" d="M99.2513,-137.964C113.494,-132.892 128.852,-127.424 142.424,-122.592"/>
<polygon fill="midnightblue" stroke="midnightblue" points="97.851,-134.747 89.6044,-141.398 100.199,-141.341 97.851,-134.747"/>
</g>
<!-- Node7 -->
<g id="node7" class="node"><title>Node7</title>
<g id="a_node7"><a xlink:href="classmexiface_1_1MexIFace.html#a5d447588f02084232527e98e71182a78" target="_top" xlink:title="mexiface::MexIFace\l::getScalarDict">
<polygon fill="white" stroke="black" points="134,-47.5 134,-75.5 232,-75.5 232,-47.5 134,-47.5"/>
<text text-anchor="start" x="142" y="-64.3" font-family="Helvetica,sans-Serif" font-size="9.00">mexiface::MexIFace</text>
<text text-anchor="middle" x="183" y="-54.3" font-family="Helvetica,sans-Serif" font-size="9.00">::getScalarDict</text>
</a>
</g>
</g>
<!-- Node1&#45;&gt;Node7 -->
<g id="edge6" class="edge"><title>Node1&#45;&gt;Node7</title>
<path fill="none" stroke="midnightblue" d="M72.0839,-134.663C88.4125,-119.88 111.609,-100.144 134,-85.5 139.38,-81.9813 145.347,-78.6158 151.194,-75.5766"/>
<polygon fill="midnightblue" stroke="midnightblue" points="69.6573,-132.14 64.6534,-141.479 74.3888,-137.299 69.6573,-132.14"/>
</g>
<!-- Node8 -->
<g id="node8" class="node"><title>Node8</title>
<g id="a_node8"><a xlink:href="classmexiface_1_1MexIFace.html#a7054db3d2f9b86ffca877a8069e4bb23" target="_top" xlink:title="mexiface::MexIFace\l::getVecDict">
<polygon fill="white" stroke="black" points="134,-0.5 134,-28.5 232,-28.5 232,-0.5 134,-0.5"/>
<text text-anchor="start" x="142" y="-17.3" font-family="Helvetica,sans-Serif" font-size="9.00">mexiface::MexIFace</text>
<text text-anchor="middle" x="183" y="-7.3" font-family="Helvetica,sans-Serif" font-size="9.00">::getVecDict</text>
</a>
</g>
</g>
<!-- Node1&#45;&gt;Node8 -->
<g id="edge7" class="edge"><title>Node1&#45;&gt;Node8</title>
<path fill="none" stroke="midnightblue" d="M62.1808,-132.185C76.5262,-106.537 102.445,-65.3975 134,-38.5 138.396,-34.7527 143.478,-31.4128 148.656,-28.5028"/>
<polygon fill="midnightblue" stroke="midnightblue" points="58.9822,-130.739 57.2618,-141.194 65.126,-134.094 58.9822,-130.739"/>
</g>
</g>
</svg>
