<?xml version="1.0" encoding="UTF-8" standalone="no"?>
<!DOCTYPE svg PUBLIC "-//W3C//DTD SVG 1.1//EN"
 "http://www.w3.org/Graphics/SVG/1.1/DTD/svg11.dtd">
<!-- Generated by graphviz version 2.36.0 (20140111.2315)
 -->
<!-- Title: mexiface::MexIFace::mexFunction Pages: 1 -->
<svg width="396pt" height="224pt"
 viewBox="0.00 0.00 396.00 224.00" xmlns="http://www.w3.org/2000/svg" xmlns:xlink="http://www.w3.org/1999/xlink">
<g id="graph0" class="graph" transform="scale(1 1) rotate(0) translate(4 220)">
<title>mexiface::MexIFace::mexFunction</title>
<polygon fill="white" stroke="none" points="-4,4 -4,-220 392,-220 392,4 -4,4"/>
<!-- Node1 -->
<g id="node1" class="node"><title>Node1</title>
<polygon fill="#bfbfbf" stroke="black" points="0,-94 0,-122 98,-122 98,-94 0,-94"/>
<text text-anchor="start" x="8" y="-110.8" font-family="Helvetica,sans-Serif" font-size="9.00">mexiface::MexIFace</text>
<text text-anchor="middle" x="49" y="-100.8" font-family="Helvetica,sans-Serif" font-size="9.00">::mexFunction</text>
</g>
<!-- Node2 -->
<g id="node2" class="node"><title>Node2</title>
<g id="a_node2"><a xlink:href="classmexiface_1_1MexIFace.html#ad95e8356de808820df69cfb526803232" target="_top" xlink:title="Checks the mex function was called with a minimum number of input and output arguments. ">
<polygon fill="white" stroke="black" points="145,-188 145,-216 243,-216 243,-188 145,-188"/>
<text text-anchor="start" x="153" y="-204.8" font-family="Helvetica,sans-Serif" font-size="9.00">mexiface::MexIFace</text>
<text text-anchor="middle" x="194" y="-194.8" font-family="Helvetica,sans-Serif" font-size="9.00">::checkMinNumArgs</text>
</a>
</g>
</g>
<!-- Node1&#45;&gt;Node2 -->
<g id="edge1" class="edge"><title>Node1&#45;&gt;Node2</title>
<path fill="none" stroke="midnightblue" d="M64.1156,-122.137C80.0112,-137.461 107.143,-161.882 134,-178 137.224,-179.935 140.632,-181.779 144.119,-183.522"/>
<polygon fill="midnightblue" stroke="midnightblue" points="142.918,-186.825 153.459,-187.896 145.887,-180.486 142.918,-186.825"/>
</g>
<!-- Node3 -->
<g id="node3" class="node"><title>Node3</title>
<g id="a_node3"><a xlink:href="classmexiface_1_1MexIFaceBase.html#ad5084392048409608fc95569cb986963" target="_top" xlink:title="Helper method which saves a pointer to the wrapped class&#39;s object in an internal member variable call...">
<polygon fill="white" stroke="black" points="134.5,-141 134.5,-169 253.5,-169 253.5,-141 134.5,-141"/>
<text text-anchor="start" x="142.5" y="-157.8" font-family="Helvetica,sans-Serif" font-size="9.00">mexiface::MexIFaceBase</text>
<text text-anchor="middle" x="194" y="-147.8" font-family="Helvetica,sans-Serif" font-size="9.00">::getObjectFromHandle</text>
</a>
</g>
</g>
<!-- Node1&#45;&gt;Node3 -->
<g id="edge2" class="edge"><title>Node1&#45;&gt;Node3</title>
<path fill="none" stroke="midnightblue" d="M92.9047,-122.102C107.893,-127.028 124.889,-132.614 140.565,-137.766"/>
<polygon fill="midnightblue" stroke="midnightblue" points="139.533,-141.111 150.126,-140.908 141.718,-134.461 139.533,-141.111"/>
</g>
<!-- Node4 -->
<g id="node4" class="node"><title>Node4</title>
<g id="a_node4"><a xlink:href="classmexiface_1_1MexIFace.html#a82c2478cb12301e02edcef234fc80fb1" target="_top" xlink:title="Reads a mxArray as a string. ">
<polygon fill="white" stroke="black" points="145,-94 145,-122 243,-122 243,-94 145,-94"/>
<text text-anchor="start" x="153" y="-110.8" font-family="Helvetica,sans-Serif" font-size="9.00">mexiface::MexIFace</text>
<text text-anchor="middle" x="194" y="-100.8" font-family="Helvetica,sans-Serif" font-size="9.00">::getString</text>
</a>
</g>
</g>
<!-- Node1&#45;&gt;Node4 -->
<g id="edge3" class="edge"><title>Node1&#45;&gt;Node4</title>
<path fill="none" stroke="midnightblue" d="M98.0147,-108C109.805,-108 122.554,-108 134.768,-108"/>
<polygon fill="midnightblue" stroke="midnightblue" points="134.869,-111.5 144.869,-108 134.869,-104.5 134.869,-111.5"/>
</g>
<!-- Node7 -->
<g id="node7" class="node"><title>Node7</title>
<g id="a_node7"><a xlink:href="classmexiface_1_1MexIFaceBase.html#a87f8e1dd67a75ac4fa678d8aa8857d6c" target="_top" xlink:title="Called when the mexFunction gets the @new command, passing on the remaining input arguments...">
<polygon fill="white" stroke="black" points="134.5,-47 134.5,-75 253.5,-75 253.5,-47 134.5,-47"/>
<text text-anchor="start" x="142.5" y="-63.8" font-family="Helvetica,sans-Serif" font-size="9.00">mexiface::MexIFaceBase</text>
<text text-anchor="middle" x="194" y="-53.8" font-family="Helvetica,sans-Serif" font-size="9.00">::objConstruct</text>
</a>
</g>
</g>
<!-- Node1&#45;&gt;Node7 -->
<g id="edge6" class="edge"><title>Node1&#45;&gt;Node7</title>
<path fill="none" stroke="midnightblue" d="M92.9047,-93.8985C107.893,-88.9722 124.889,-83.3863 140.565,-78.2339"/>
<polygon fill="midnightblue" stroke="midnightblue" points="141.718,-81.5391 150.126,-75.0916 139.533,-74.889 141.718,-81.5391"/>
</g>
<!-- Node8 -->
<g id="node8" class="node"><title>Node8</title>
<g id="a_node8"><a xlink:href="classmexiface_1_1MexIFaceBase.html#ae6989244cafb4668681f9c9411ed6256" target="_top" xlink:title="Called when the mexFunction gets the @delete command. ">
<polygon fill="white" stroke="black" points="134.5,-0 134.5,-28 253.5,-28 253.5,-0 134.5,-0"/>
<text text-anchor="start" x="142.5" y="-16.8" font-family="Helvetica,sans-Serif" font-size="9.00">mexiface::MexIFaceBase</text>
<text text-anchor="middle" x="194" y="-6.8" font-family="Helvetica,sans-Serif" font-size="9.00">::objDestroy</text>
</a>
</g>
</g>
<!-- Node1&#45;&gt;Node8 -->
<g id="edge7" class="edge"><title>Node1&#45;&gt;Node8</title>
<path fill="none" stroke="midnightblue" d="M64.1156,-93.8632C80.0112,-78.5386 107.143,-54.1184 134,-38 137.224,-36.0652 140.632,-34.2211 144.119,-32.4775"/>
<polygon fill="midnightblue" stroke="midnightblue" points="145.887,-35.5145 153.459,-28.1043 142.918,-29.1749 145.887,-35.5145"/>
</g>
<!-- Node5 -->
<g id="node5" class="node"><title>Node5</title>
<g id="a_node5"><a xlink:href="classmexiface_1_1MexIFace.html#a4e3b68c1b831521c073e1ca13c874044" target="_top" xlink:title="mexiface::MexIFace\l::checkType">
<polygon fill="white" stroke="black" points="290,-117 290,-145 388,-145 388,-117 290,-117"/>
<text text-anchor="start" x="298" y="-133.8" font-family="Helvetica,sans-Serif" font-size="9.00">mexiface::MexIFace</text>
<text text-anchor="middle" x="339" y="-123.8" font-family="Helvetica,sans-Serif" font-size="9.00">::checkType</text>
</a>
</g>
</g>
<!-- Node4&#45;&gt;Node5 -->
<g id="edge4" class="edge"><title>Node4&#45;&gt;Node5</title>
<path fill="none" stroke="midnightblue" d="M243.015,-115.723C254.805,-117.619 267.554,-119.67 279.768,-121.634"/>
<polygon fill="midnightblue" stroke="midnightblue" points="279.44,-125.126 289.869,-123.259 280.551,-118.215 279.44,-125.126"/>
</g>
<!-- Node6 -->
<g id="node6" class="node"><title>Node6</title>
<g id="a_node6"><a xlink:href="classmexiface_1_1MexIFace.html#a658f8f66c8d6bacce3947a42a90f5610" target="_top" xlink:title="mexiface::MexIFace\l::checkVectorSize">
<polygon fill="white" stroke="black" points="290,-70 290,-98 388,-98 388,-70 290,-70"/>
<text text-anchor="start" x="298" y="-86.8" font-family="Helvetica,sans-Serif" font-size="9.00">mexiface::MexIFace</text>
<text text-anchor="middle" x="339" y="-76.8" font-family="Helvetica,sans-Serif" font-size="9.00">::checkVectorSize</text>
</a>
</g>
</g>
<!-- Node4&#45;&gt;Node6 -->
<g id="edge5" class="edge"><title>Node4&#45;&gt;Node6</title>
<path fill="none" stroke="midnightblue" d="M243.015,-99.9416C254.805,-97.9628 267.554,-95.8231 279.768,-93.7732"/>
<polygon fill="midnightblue" stroke="midnightblue" points="280.586,-97.185 289.869,-92.078 279.427,-90.2815 280.586,-97.185"/>
</g>
</g>
</svg>
