<?xml version="1.0" encoding="UTF-8" standalone="no"?>
<!DOCTYPE svg PUBLIC "-//W3C//DTD SVG 1.1//EN"
 "http://www.w3.org/Graphics/SVG/1.1/DTD/svg11.dtd">
<!-- Generated by graphviz version 2.36.0 (20140111.2315)
 -->
<!-- Title: mexiface::MexIFace::getAsScalar Pages: 1 -->
<svg width="420pt" height="36pt"
 viewBox="0.00 0.00 420.00 36.00" xmlns="http://www.w3.org/2000/svg" xmlns:xlink="http://www.w3.org/1999/xlink">
<g id="graph0" class="graph" transform="scale(1 1) rotate(0) translate(4 32)">
<title>mexiface::MexIFace::getAsScalar</title>
<polygon fill="white" stroke="none" points="-4,4 -4,-32 416,-32 416,4 -4,4"/>
<!-- Node1 -->
<g id="node1" class="node"><title>Node1</title>
<polygon fill="#bfbfbf" stroke="black" points="0,-0 0,-28 98,-28 98,-0 0,-0"/>
<text text-anchor="start" x="8" y="-16.8" font-family="Helvetica,sans-Serif" font-size="9.00">mexiface::MexIFace</text>
<text text-anchor="middle" x="49" y="-6.8" font-family="Helvetica,sans-Serif" font-size="9.00">::getAsScalar</text>
</g>
<!-- Node2 -->
<g id="node2" class="node"><title>Node2</title>
<g id="a_node2"><a xlink:href="classmexiface_1_1MexIFace.html#a4bcf47602ed790926d4f1358ea76f754" target="_top" xlink:title="mexiface::MexIFace\l::getAsBool">
<polygon fill="white" stroke="black" points="134,-0 134,-28 232,-28 232,-0 134,-0"/>
<text text-anchor="start" x="142" y="-16.8" font-family="Helvetica,sans-Serif" font-size="9.00">mexiface::MexIFace</text>
<text text-anchor="middle" x="183" y="-6.8" font-family="Helvetica,sans-Serif" font-size="9.00">::getAsBool</text>
</a>
</g>
</g>
<!-- Node1&#45;&gt;Node2 -->
<g id="edge1" class="edge"><title>Node1&#45;&gt;Node2</title>
<path fill="none" stroke="midnightblue" d="M98.0284,-14C106.309,-14 114.997,-14 123.517,-14"/>
<polygon fill="midnightblue" stroke="midnightblue" points="123.786,-17.5001 133.786,-14 123.786,-10.5001 123.786,-17.5001"/>
</g>
<!-- Node3 -->
<g id="node3" class="node"><title>Node3</title>
<g id="a_node3"><a xlink:href="namespacemexiface.html#a32119030d13151b65f1f70cd35e0ceb7" target="_top" xlink:title="Returns a string representation of the class with given mxClassID. ">
<polygon fill="white" stroke="black" points="268.5,-5 268.5,-23 411.5,-23 411.5,-5 268.5,-5"/>
<text text-anchor="middle" x="340" y="-11.8" font-family="Helvetica,sans-Serif" font-size="9.00">mexiface::get_mx_class_name</text>
</a>
</g>
</g>
<!-- Node2&#45;&gt;Node3 -->
<g id="edge2" class="edge"><title>Node2&#45;&gt;Node3</title>
<path fill="none" stroke="midnightblue" d="M232.193,-14C240.523,-14 249.382,-14 258.297,-14"/>
<polygon fill="midnightblue" stroke="midnightblue" points="258.362,-17.5001 268.362,-14 258.362,-10.5001 258.362,-17.5001"/>
</g>
</g>
</svg>
