<?xml version="1.0" encoding="UTF-8" standalone="no"?>
<!DOCTYPE svg PUBLIC "-//W3C//DTD SVG 1.1//EN"
 "http://www.w3.org/Graphics/SVG/1.1/DTD/svg11.dtd">
<!-- Generated by graphviz version 2.36.0 (20140111.2315)
 -->
<!-- Title: mexiface::MexIFace::getHypercubeArray Pages: 1 -->
<svg width="244pt" height="83pt"
 viewBox="0.00 0.00 244.00 83.00" xmlns="http://www.w3.org/2000/svg" xmlns:xlink="http://www.w3.org/1999/xlink">
<g id="graph0" class="graph" transform="scale(1 1) rotate(0) translate(4 79)">
<title>mexiface::MexIFace::getHypercubeArray</title>
<polygon fill="white" stroke="none" points="-4,4 -4,-79 240,-79 240,4 -4,4"/>
<!-- Node1 -->
<g id="node1" class="node"><title>Node1</title>
<polygon fill="#bfbfbf" stroke="black" points="0.5,-23 0.5,-51 101.5,-51 101.5,-23 0.5,-23"/>
<text text-anchor="start" x="8.5" y="-39.8" font-family="Helvetica,sans-Serif" font-size="9.00">mexiface::MexIFace</text>
<text text-anchor="middle" x="51" y="-29.8" font-family="Helvetica,sans-Serif" font-size="9.00">::getHypercubeArray</text>
</g>
<!-- Node2 -->
<g id="node2" class="node"><title>Node2</title>
<g id="a_node2"><a xlink:href="classmexiface_1_1MexIFace.html#a4e3b68c1b831521c073e1ca13c874044" target="_top" xlink:title="mexiface::MexIFace\l::checkType">
<polygon fill="white" stroke="black" points="138,-47 138,-75 236,-75 236,-47 138,-47"/>
<text text-anchor="start" x="146" y="-63.8" font-family="Helvetica,sans-Serif" font-size="9.00">mexiface::MexIFace</text>
<text text-anchor="middle" x="187" y="-53.8" font-family="Helvetica,sans-Serif" font-size="9.00">::checkType</text>
</a>
</g>
</g>
<!-- Node1&#45;&gt;Node2 -->
<g id="edge1" class="edge"><title>Node1&#45;&gt;Node2</title>
<path fill="none" stroke="midnightblue" d="M101.516,-45.8685C109.982,-47.3849 118.849,-48.973 127.523,-50.5265"/>
<polygon fill="midnightblue" stroke="midnightblue" points="127.12,-54.0099 137.58,-52.3278 128.354,-47.1195 127.12,-54.0099"/>
</g>
<!-- Node3 -->
<g id="node3" class="node"><title>Node3</title>
<g id="a_node3"><a xlink:href="classmexiface_1_1MexIFace.html#a658f8f66c8d6bacce3947a42a90f5610" target="_top" xlink:title="mexiface::MexIFace\l::checkVectorSize">
<polygon fill="white" stroke="black" points="138,-0 138,-28 236,-28 236,-0 138,-0"/>
<text text-anchor="start" x="146" y="-16.8" font-family="Helvetica,sans-Serif" font-size="9.00">mexiface::MexIFace</text>
<text text-anchor="middle" x="187" y="-6.8" font-family="Helvetica,sans-Serif" font-size="9.00">::checkVectorSize</text>
</a>
</g>
</g>
<!-- Node1&#45;&gt;Node3 -->
<g id="edge2" class="edge"><title>Node1&#45;&gt;Node3</title>
<path fill="none" stroke="midnightblue" d="M101.516,-28.501C109.982,-27.0478 118.849,-25.5258 127.523,-24.0371"/>
<polygon fill="midnightblue" stroke="midnightblue" points="128.316,-27.4522 137.58,-22.3109 127.132,-20.5531 128.316,-27.4522"/>
</g>
</g>
</svg>
