<?xml version="1.0" encoding="UTF-8" standalone="no"?>
<!DOCTYPE svg PUBLIC "-//W3C//DTD SVG 1.1//EN"
 "http://www.w3.org/Graphics/SVG/1.1/DTD/svg11.dtd">
<!-- Generated by graphviz version 2.38.0 (20140413.2041)
 -->
<!-- Title: mexiface::MexIFaceHandler::objDestroy Pages: 1 -->
<svg width="468pt" height="37pt"
 viewBox="0.00 0.00 468.00 37.00" xmlns="http://www.w3.org/2000/svg" xmlns:xlink="http://www.w3.org/1999/xlink">
<g id="graph0" class="graph" transform="scale(1 1) rotate(0) translate(4 33)">
<title>mexiface::MexIFaceHandler::objDestroy</title>
<polygon fill="white" stroke="none" points="-4,4 -4,-33 464,-33 464,4 -4,4"/>
<!-- Node1 -->
<g id="node1" class="node"><title>Node1</title>
<polygon fill="#bfbfbf" stroke="black" points="0,-0.5 0,-28.5 131,-28.5 131,-0.5 0,-0.5"/>
<text text-anchor="start" x="8" y="-17.3" font-family="Helvetica,sans-Serif" font-size="9.00">mexiface::MexIFaceHandler</text>
<text text-anchor="middle" x="65.5" y="-7.3" font-family="Helvetica,sans-Serif" font-size="9.00">::objDestroy</text>
</g>
<!-- Node2 -->
<g id="node2" class="node"><title>Node2</title>
<g id="a_node2"><a xlink:href="classmexiface_1_1Handle.html#ab0fd78da00e309b26ec673a62d0b0b71" target="_top" xlink:title="Given a matlab mxArray object pointer to data that represents a handle, delete the handle which also ...">
<polygon fill="white" stroke="black" points="167,-0.5 167,-28.5 289,-28.5 289,-0.5 167,-0.5"/>
<text text-anchor="start" x="175" y="-17.3" font-family="Helvetica,sans-Serif" font-size="9.00">mexiface::Handle::destroy</text>
<text text-anchor="middle" x="228" y="-7.3" font-family="Helvetica,sans-Serif" font-size="9.00">Object</text>
</a>
</g>
</g>
<!-- Node1&#45;&gt;Node2 -->
<g id="edge1" class="edge"><title>Node1&#45;&gt;Node2</title>
<path fill="none" stroke="midnightblue" d="M131.319,-14.5C139.669,-14.5 148.251,-14.5 156.684,-14.5"/>
<polygon fill="midnightblue" stroke="midnightblue" points="156.871,-18.0001 166.871,-14.5 156.871,-11.0001 156.871,-18.0001"/>
</g>
<!-- Node3 -->
<g id="node3" class="node"><title>Node3</title>
<g id="a_node3"><a xlink:href="classmexiface_1_1Handle.html#a3f74c217c7e3dfcbdea960f69ec5dbd0" target="_top" xlink:title="Given a Matlab mxArray object pointer to data that represents a handle, return a Handle object pointe...">
<polygon fill="white" stroke="black" points="325,-5.5 325,-23.5 460,-23.5 460,-5.5 325,-5.5"/>
<text text-anchor="middle" x="392.5" y="-12.3" font-family="Helvetica,sans-Serif" font-size="9.00">mexiface::Handle::getHandle</text>
</a>
</g>
</g>
<!-- Node2&#45;&gt;Node3 -->
<g id="edge2" class="edge"><title>Node2&#45;&gt;Node3</title>
<path fill="none" stroke="midnightblue" d="M289.047,-14.5C297.43,-14.5 306.137,-14.5 314.775,-14.5"/>
<polygon fill="midnightblue" stroke="midnightblue" points="314.86,-18.0001 324.86,-14.5 314.86,-11.0001 314.86,-18.0001"/>
</g>
</g>
</svg>
