<?xml version="1.0" encoding="UTF-8" standalone="no"?>
<!DOCTYPE svg PUBLIC "-//W3C//DTD SVG 1.1//EN"
 "http://www.w3.org/Graphics/SVG/1.1/DTD/svg11.dtd">
<!-- Generated by graphviz version 2.36.0 (20140111.2315)
 -->
<!-- Title: mexiface::MexIFaceBase Pages: 1 -->
<svg width="255pt" height="94pt"
 viewBox="0.00 0.00 255.00 94.00" xmlns="http://www.w3.org/2000/svg" xmlns:xlink="http://www.w3.org/1999/xlink">
<g id="graph0" class="graph" transform="scale(1 1) rotate(0) translate(4 90)">
<title>mexiface::MexIFaceBase</title>
<polygon fill="white" stroke="none" points="-4,4 -4,-90 251,-90 251,4 -4,4"/>
<!-- Node1 -->
<g id="node1" class="node"><title>Node1</title>
<polygon fill="#bfbfbf" stroke="black" points="55.5,-67 55.5,-85 174.5,-85 174.5,-67 55.5,-67"/>
<text text-anchor="middle" x="115" y="-73.8" font-family="Helvetica,sans-Serif" font-size="9.00">mexiface::MexIFaceBase</text>
</g>
<!-- Node2 -->
<g id="node2" class="node"><title>Node2</title>
<g id="a_node2"><a xlink:href="classmexiface_1_1MexIFace.html" target="_top" xlink:title="Acts as a base class for implementing a C++ class &lt;–&gt; Matlab class interface. ">
<polygon fill="white" stroke="black" points="0,-6 0,-24 98,-24 98,-6 0,-6"/>
<text text-anchor="middle" x="49" y="-12.8" font-family="Helvetica,sans-Serif" font-size="9.00">mexiface::MexIFace</text>
</a>
</g>
</g>
<!-- Node1&#45;&gt;Node2 -->
<g id="edge1" class="edge"><title>Node1&#45;&gt;Node2</title>
<path fill="none" stroke="midnightblue" d="M98.1787,-59.9628C85.4332,-48.569 68.4091,-33.3505 58.0991,-24.134"/>
<polygon fill="midnightblue" stroke="midnightblue" points="96.035,-62.741 105.823,-66.7963 100.7,-57.5222 96.035,-62.741"/>
</g>
<!-- Node3 -->
<g id="node3" class="node"><title>Node3</title>
<g id="a_node3"><a xlink:href="classmexiface_1_1MexIFaceHandler.html" target="_top" xlink:title="Class encompassing the MexIFace type&#45;dependent operations. Must be inherited from to form a concrete ...">
<polygon fill="white" stroke="black" points="116.5,-1 116.5,-29 247.5,-29 247.5,-1 116.5,-1"/>
<text text-anchor="start" x="124.5" y="-17.8" font-family="Helvetica,sans-Serif" font-size="9.00">mexiface::MexIFaceHandler</text>
<text text-anchor="middle" x="182" y="-7.8" font-family="Helvetica,sans-Serif" font-size="9.00">&lt; ObjT &gt;</text>
</a>
</g>
</g>
<!-- Node1&#45;&gt;Node3 -->
<g id="edge2" class="edge"><title>Node1&#45;&gt;Node3</title>
<path fill="none" stroke="midnightblue" d="M131.89,-60.1271C142.728,-50.5824 156.673,-38.3026 167.099,-29.1215"/>
<polygon fill="midnightblue" stroke="midnightblue" points="129.508,-57.5607 124.316,-66.7963 134.134,-62.8142 129.508,-57.5607"/>
</g>
</g>
</svg>
