<?xml version="1.0" encoding="UTF-8" standalone="no"?>
<!DOCTYPE svg PUBLIC "-//W3C//DTD SVG 1.1//EN"
 "http://www.w3.org/Graphics/SVG/1.1/DTD/svg11.dtd">
<!-- Generated by graphviz version 2.36.0 (20140111.2315)
 -->
<!-- Title: mexiface::MexIFace::checkMaxNdim Pages: 1 -->
<svg width="254pt" height="83pt"
 viewBox="0.00 0.00 254.00 83.00" xmlns="http://www.w3.org/2000/svg" xmlns:xlink="http://www.w3.org/1999/xlink">
<g id="graph0" class="graph" transform="scale(1 1) rotate(0) translate(4 79)">
<title>mexiface::MexIFace::checkMaxNdim</title>
<polygon fill="white" stroke="none" points="-4,4 -4,-79 250,-79 250,4 -4,4"/>
<!-- Node1 -->
<g id="node1" class="node"><title>Node1</title>
<polygon fill="#bfbfbf" stroke="black" points="0,-23 0,-51 98,-51 98,-23 0,-23"/>
<text text-anchor="start" x="8" y="-39.8" font-family="Helvetica,sans-Serif" font-size="9.00">mexiface::MexIFace</text>
<text text-anchor="middle" x="49" y="-29.8" font-family="Helvetica,sans-Serif" font-size="9.00">::checkMaxNdim</text>
</g>
<!-- Node2 -->
<g id="node2" class="node"><title>Node2</title>
<g id="a_node2"><a xlink:href="classmexiface_1_1MexIFace.html#a6b7f2640fd7317725165d729fb5b5fc6" target="_top" xlink:title="mexiface::MexIFace\l::checkedToCube">
<polygon fill="white" stroke="black" points="141,-47 141,-75 239,-75 239,-47 141,-47"/>
<text text-anchor="start" x="149" y="-63.8" font-family="Helvetica,sans-Serif" font-size="9.00">mexiface::MexIFace</text>
<text text-anchor="middle" x="190" y="-53.8" font-family="Helvetica,sans-Serif" font-size="9.00">::checkedToCube</text>
</a>
</g>
</g>
<!-- Node1&#45;&gt;Node2 -->
<g id="edge1" class="edge"><title>Node1&#45;&gt;Node2</title>
<path fill="none" stroke="midnightblue" d="M108.101,-47.0318C119.007,-48.9149 130.298,-50.8644 140.86,-52.688"/>
<polygon fill="midnightblue" stroke="midnightblue" points="108.675,-43.5792 98.2254,-45.3267 107.484,-50.4772 108.675,-43.5792"/>
</g>
<!-- Node3 -->
<g id="node3" class="node"><title>Node3</title>
<g id="a_node3"><a xlink:href="classmexiface_1_1MexIFace.html#a582700615ee04a285d7241d006c5be9e" target="_top" xlink:title="mexiface::MexIFace\l::checkedToHypercube">
<polygon fill="white" stroke="black" points="134.5,-0 134.5,-28 245.5,-28 245.5,-0 134.5,-0"/>
<text text-anchor="start" x="142.5" y="-16.8" font-family="Helvetica,sans-Serif" font-size="9.00">mexiface::MexIFace</text>
<text text-anchor="middle" x="190" y="-6.8" font-family="Helvetica,sans-Serif" font-size="9.00">::checkedToHypercube</text>
</a>
</g>
</g>
<!-- Node1&#45;&gt;Node3 -->
<g id="edge2" class="edge"><title>Node1&#45;&gt;Node3</title>
<path fill="none" stroke="midnightblue" d="M108.192,-27.3711C116.803,-25.9462 125.652,-24.482 134.191,-23.0691"/>
<polygon fill="midnightblue" stroke="midnightblue" points="107.52,-23.9347 98.2254,-29.0203 108.663,-30.8408 107.52,-23.9347"/>
</g>
</g>
</svg>
