<?xml version="1.0" encoding="UTF-8" standalone="no"?>
<!DOCTYPE svg PUBLIC "-//W3C//DTD SVG 1.1//EN"
 "http://www.w3.org/Graphics/SVG/1.1/DTD/svg11.dtd">
<!-- Generated by graphviz version 2.36.0 (20140111.2315)
 -->
<!-- Title: mexiface::Handle::destroyObject Pages: 1 -->
<svg width="298pt" height="36pt"
 viewBox="0.00 0.00 298.00 36.00" xmlns="http://www.w3.org/2000/svg" xmlns:xlink="http://www.w3.org/1999/xlink">
<g id="graph0" class="graph" transform="scale(1 1) rotate(0) translate(4 32)">
<title>mexiface::Handle::destroyObject</title>
<polygon fill="white" stroke="none" points="-4,4 -4,-32 294,-32 294,4 -4,4"/>
<!-- Node1 -->
<g id="node1" class="node"><title>Node1</title>
<polygon fill="#bfbfbf" stroke="black" points="0,-0 0,-28 122,-28 122,-0 0,-0"/>
<text text-anchor="start" x="8" y="-16.8" font-family="Helvetica,sans-Serif" font-size="9.00">mexiface::Handle::destroy</text>
<text text-anchor="middle" x="61" y="-6.8" font-family="Helvetica,sans-Serif" font-size="9.00">Object</text>
</g>
<!-- Node2 -->
<g id="node2" class="node"><title>Node2</title>
<g id="a_node2"><a xlink:href="classmexiface_1_1MexIFaceHandler.html#ac809cfcc7b678330e56a58a8cd8f5f3d" target="_top" xlink:title="Called when the mexFunction gets the @delete command. ">
<polygon fill="white" stroke="black" points="158.5,-0 158.5,-28 289.5,-28 289.5,-0 158.5,-0"/>
<text text-anchor="start" x="166.5" y="-16.8" font-family="Helvetica,sans-Serif" font-size="9.00">mexiface::MexIFaceHandler</text>
<text text-anchor="middle" x="224" y="-6.8" font-family="Helvetica,sans-Serif" font-size="9.00">::objDestroy</text>
</a>
</g>
</g>
<!-- Node1&#45;&gt;Node2 -->
<g id="edge1" class="edge"><title>Node1&#45;&gt;Node2</title>
<path fill="none" stroke="midnightblue" d="M132.467,-14C141.118,-14 149.926,-14 158.483,-14"/>
<polygon fill="midnightblue" stroke="midnightblue" points="132.409,-10.5001 122.409,-14 132.408,-17.5001 132.409,-10.5001"/>
</g>
</g>
</svg>
