<?xml version="1.0" encoding="UTF-8" standalone="no"?>
<!DOCTYPE svg PUBLIC "-//W3C//DTD SVG 1.1//EN"
 "http://www.w3.org/Graphics/SVG/1.1/DTD/svg11.dtd">
<!-- Generated by graphviz version 2.38.0 (20140413.2041)
 -->
<!-- Title: mexiface::Handle::getHandle Pages: 1 -->
<svg width="477pt" height="84pt"
 viewBox="0.00 0.00 477.00 84.00" xmlns="http://www.w3.org/2000/svg" xmlns:xlink="http://www.w3.org/1999/xlink">
<g id="graph0" class="graph" transform="scale(1 1) rotate(0) translate(4 80)">
<title>mexiface::Handle::getHandle</title>
<polygon fill="white" stroke="none" points="-4,4 -4,-80 473,-80 473,4 -4,4"/>
<!-- Node1 -->
<g id="node1" class="node"><title>Node1</title>
<polygon fill="#bfbfbf" stroke="black" points="0,-28.5 0,-46.5 135,-46.5 135,-28.5 0,-28.5"/>
<text text-anchor="middle" x="67.5" y="-35.3" font-family="Helvetica,sans-Serif" font-size="9.00">mexiface::Handle::getHandle</text>
</g>
<!-- Node2 -->
<g id="node2" class="node"><title>Node2</title>
<g id="a_node2"><a xlink:href="classmexiface_1_1Handle.html#ab0fd78da00e309b26ec673a62d0b0b71" target="_top" xlink:title="Given a matlab mxArray object pointer to data that represents a handle, delete the handle which also ...">
<polygon fill="white" stroke="black" points="175.5,-45.5 175.5,-73.5 297.5,-73.5 297.5,-45.5 175.5,-45.5"/>
<text text-anchor="start" x="183.5" y="-62.3" font-family="Helvetica,sans-Serif" font-size="9.00">mexiface::Handle::destroy</text>
<text text-anchor="middle" x="236.5" y="-52.3" font-family="Helvetica,sans-Serif" font-size="9.00">Object</text>
</a>
</g>
</g>
<!-- Node1&#45;&gt;Node2 -->
<g id="edge1" class="edge"><title>Node1&#45;&gt;Node2</title>
<path fill="none" stroke="midnightblue" d="M145.417,-47.6328C155.435,-48.9525 165.58,-50.2889 175.27,-51.5655"/>
<polygon fill="midnightblue" stroke="midnightblue" points="145.835,-44.1576 135.463,-46.3215 144.92,-51.0977 145.835,-44.1576"/>
</g>
<!-- Node4 -->
<g id="node4" class="node"><title>Node4</title>
<g id="a_node4"><a xlink:href="classmexiface_1_1Handle.html#a2c3c72d6bef3ea3406e6028b3ffbad07" target="_top" xlink:title="Given a matlab mxArray object pointer to data that represents a handle, retrieve the object pointer f...">
<polygon fill="white" stroke="black" points="171,-7.5 171,-25.5 302,-25.5 302,-7.5 171,-7.5"/>
<text text-anchor="middle" x="236.5" y="-14.3" font-family="Helvetica,sans-Serif" font-size="9.00">mexiface::Handle::getObject</text>
</a>
</g>
</g>
<!-- Node1&#45;&gt;Node4 -->
<g id="edge3" class="edge"><title>Node1&#45;&gt;Node4</title>
<path fill="none" stroke="midnightblue" d="M145.426,-27.8267C153.967,-26.7527 162.6,-25.6671 170.965,-24.6152"/>
<polygon fill="midnightblue" stroke="midnightblue" points="144.948,-24.3591 135.463,-29.0795 145.822,-31.3044 144.948,-24.3591"/>
</g>
<!-- Node3 -->
<g id="node3" class="node"><title>Node3</title>
<g id="a_node3"><a xlink:href="classmexiface_1_1MexIFaceHandler.html#ac809cfcc7b678330e56a58a8cd8f5f3d" target="_top" xlink:title="Called when the mexFunction gets the @delete command. ">
<polygon fill="white" stroke="black" points="338,-47.5 338,-75.5 469,-75.5 469,-47.5 338,-47.5"/>
<text text-anchor="start" x="346" y="-64.3" font-family="Helvetica,sans-Serif" font-size="9.00">mexiface::MexIFaceHandler</text>
<text text-anchor="middle" x="403.5" y="-54.3" font-family="Helvetica,sans-Serif" font-size="9.00">::objDestroy</text>
</a>
</g>
</g>
<!-- Node2&#45;&gt;Node3 -->
<g id="edge2" class="edge"><title>Node2&#45;&gt;Node3</title>
<path fill="none" stroke="midnightblue" d="M307.793,-60.352C317.745,-60.4727 327.938,-60.5962 337.778,-60.7155"/>
<polygon fill="midnightblue" stroke="midnightblue" points="307.577,-56.8493 297.536,-60.2277 307.492,-63.8487 307.577,-56.8493"/>
</g>
<!-- Node5 -->
<g id="node5" class="node"><title>Node5</title>
<g id="a_node5"><a xlink:href="classmexiface_1_1MexIFaceHandler.html#a6757468ce8ec943db8d5203e81f535b0" target="_top" xlink:title="Helper method which saves a pointer to the wrapped class&#39;s object in an internal member variable call...">
<polygon fill="white" stroke="black" points="338,-0.5 338,-28.5 469,-28.5 469,-0.5 338,-0.5"/>
<text text-anchor="start" x="346" y="-17.3" font-family="Helvetica,sans-Serif" font-size="9.00">mexiface::MexIFaceHandler</text>
<text text-anchor="middle" x="403.5" y="-7.3" font-family="Helvetica,sans-Serif" font-size="9.00">::getObjectFromHandle</text>
</a>
</g>
</g>
<!-- Node4&#45;&gt;Node5 -->
<g id="edge4" class="edge"><title>Node4&#45;&gt;Node5</title>
<path fill="none" stroke="midnightblue" d="M312.239,-15.5941C320.821,-15.4901 329.516,-15.3847 337.948,-15.2824"/>
<polygon fill="midnightblue" stroke="midnightblue" points="312.196,-12.0942 302.239,-15.7153 312.281,-19.0937 312.196,-12.0942"/>
</g>
</g>
</svg>
