<?xml version="1.0" encoding="UTF-8" standalone="no"?>
<!DOCTYPE svg PUBLIC "-//W3C//DTD SVG 1.1//EN"
 "http://www.w3.org/Graphics/SVG/1.1/DTD/svg11.dtd">
<!-- Generated by graphviz version 2.38.0 (20140413.2041)
 -->
<!-- Title: mexiface::Hypercube::Hypercube Pages: 1 -->
<svg width="250pt" height="37pt"
 viewBox="0.00 0.00 250.00 37.00" xmlns="http://www.w3.org/2000/svg" xmlns:xlink="http://www.w3.org/1999/xlink">
<g id="graph0" class="graph" transform="scale(1 1) rotate(0) translate(4 33)">
<title>mexiface::Hypercube::Hypercube</title>
<polygon fill="white" stroke="none" points="-4,4 -4,-33 246,-33 246,4 -4,4"/>
<!-- Node1 -->
<g id="node1" class="node"><title>Node1</title>
<polygon fill="#bfbfbf" stroke="black" points="0,-0.5 0,-28.5 103,-28.5 103,-0.5 0,-0.5"/>
<text text-anchor="start" x="8" y="-17.3" font-family="Helvetica,sans-Serif" font-size="9.00">mexiface::Hypercube</text>
<text text-anchor="middle" x="51.5" y="-7.3" font-family="Helvetica,sans-Serif" font-size="9.00">::Hypercube</text>
</g>
<!-- Node2 -->
<g id="node2" class="node"><title>Node2</title>
<g id="a_node2"><a xlink:href="classmexiface_1_1Hypercube.html#a8673203ba5a7b19c8b18590c71dec497" target="_top" xlink:title="Get the number of elements in each subcube. ">
<polygon fill="white" stroke="black" points="139,-0.5 139,-28.5 242,-28.5 242,-0.5 139,-0.5"/>
<text text-anchor="start" x="147" y="-17.3" font-family="Helvetica,sans-Serif" font-size="9.00">mexiface::Hypercube</text>
<text text-anchor="middle" x="190.5" y="-7.3" font-family="Helvetica,sans-Serif" font-size="9.00">::subcube_size</text>
</a>
</g>
</g>
<!-- Node1&#45;&gt;Node2 -->
<g id="edge1" class="edge"><title>Node1&#45;&gt;Node2</title>
<path fill="none" stroke="midnightblue" d="M103.125,-14.5C111.361,-14.5 119.969,-14.5 128.424,-14.5"/>
<polygon fill="midnightblue" stroke="midnightblue" points="128.626,-18.0001 138.626,-14.5 128.626,-11.0001 128.626,-18.0001"/>
</g>
</g>
</svg>
