<?xml version="1.0" encoding="UTF-8" standalone="no"?>
<!DOCTYPE svg PUBLIC "-//W3C//DTD SVG 1.1//EN"
 "http://www.w3.org/Graphics/SVG/1.1/DTD/svg11.dtd">
<!-- Generated by graphviz version 2.38.0 (20140413.2041)
 -->
<!-- Title: mexiface::MexIFace::getAsScalarArray Pages: 1 -->
<svg width="240pt" height="84pt"
 viewBox="0.00 0.00 240.00 84.00" xmlns="http://www.w3.org/2000/svg" xmlns:xlink="http://www.w3.org/1999/xlink">
<g id="graph0" class="graph" transform="scale(1 1) rotate(0) translate(4 80)">
<title>mexiface::MexIFace::getAsScalarArray</title>
<polygon fill="white" stroke="none" points="-4,4 -4,-80 236,-80 236,4 -4,4"/>
<!-- Node1 -->
<g id="node1" class="node"><title>Node1</title>
<polygon fill="#bfbfbf" stroke="black" points="0,-23.5 0,-51.5 98,-51.5 98,-23.5 0,-23.5"/>
<text text-anchor="start" x="8" y="-40.3" font-family="Helvetica,sans-Serif" font-size="9.00">mexiface::MexIFace</text>
<text text-anchor="middle" x="49" y="-30.3" font-family="Helvetica,sans-Serif" font-size="9.00">::getAsScalarArray</text>
</g>
<!-- Node2 -->
<g id="node2" class="node"><title>Node2</title>
<g id="a_node2"><a xlink:href="classmexiface_1_1MexIFace.html#a4e3b68c1b831521c073e1ca13c874044" target="_top" xlink:title="mexiface::MexIFace\l::checkType">
<polygon fill="white" stroke="black" points="134,-47.5 134,-75.5 232,-75.5 232,-47.5 134,-47.5"/>
<text text-anchor="start" x="142" y="-64.3" font-family="Helvetica,sans-Serif" font-size="9.00">mexiface::MexIFace</text>
<text text-anchor="middle" x="183" y="-54.3" font-family="Helvetica,sans-Serif" font-size="9.00">::checkType</text>
</a>
</g>
</g>
<!-- Node1&#45;&gt;Node2 -->
<g id="edge1" class="edge"><title>Node1&#45;&gt;Node2</title>
<path fill="none" stroke="midnightblue" d="M98.0284,-46.2324C106.4,-47.7545 115.188,-49.3525 123.798,-50.9178"/>
<polygon fill="midnightblue" stroke="midnightblue" points="123.321,-54.3884 133.786,-52.7338 124.574,-47.5014 123.321,-54.3884"/>
</g>
<!-- Node3 -->
<g id="node3" class="node"><title>Node3</title>
<g id="a_node3"><a xlink:href="classmexiface_1_1MexIFace.html#a658f8f66c8d6bacce3947a42a90f5610" target="_top" xlink:title="mexiface::MexIFace\l::checkVectorSize">
<polygon fill="white" stroke="black" points="134,-0.5 134,-28.5 232,-28.5 232,-0.5 134,-0.5"/>
<text text-anchor="start" x="142" y="-17.3" font-family="Helvetica,sans-Serif" font-size="9.00">mexiface::MexIFace</text>
<text text-anchor="middle" x="183" y="-7.3" font-family="Helvetica,sans-Serif" font-size="9.00">::checkVectorSize</text>
</a>
</g>
</g>
<!-- Node1&#45;&gt;Node3 -->
<g id="edge2" class="edge"><title>Node1&#45;&gt;Node3</title>
<path fill="none" stroke="midnightblue" d="M98.0284,-29.1314C106.4,-27.6728 115.188,-26.1414 123.798,-24.6413"/>
<polygon fill="midnightblue" stroke="midnightblue" points="124.535,-28.0656 133.786,-22.9009 123.334,-21.1695 124.535,-28.0656"/>
</g>
</g>
</svg>
