<?xml version="1.0" encoding="UTF-8" standalone="no"?>
<!DOCTYPE svg PUBLIC "-//W3C//DTD SVG 1.1//EN"
 "http://www.w3.org/Graphics/SVG/1.1/DTD/svg11.dtd">
<!-- Generated by graphviz version 2.36.0 (20140111.2315)
 -->
<!-- Title: mexiface::MexIFaceBase::output Pages: 1 -->
<svg width="296pt" height="36pt"
 viewBox="0.00 0.00 296.00 36.00" xmlns="http://www.w3.org/2000/svg" xmlns:xlink="http://www.w3.org/1999/xlink">
<g id="graph0" class="graph" transform="scale(1 1) rotate(0) translate(4 32)">
<title>mexiface::MexIFaceBase::output</title>
<polygon fill="white" stroke="none" points="-4,4 -4,-32 292,-32 292,4 -4,4"/>
<!-- Node1 -->
<g id="node1" class="node"><title>Node1</title>
<polygon fill="#bfbfbf" stroke="black" points="0.5,-0 0.5,-28 119.5,-28 119.5,-0 0.5,-0"/>
<text text-anchor="start" x="8.5" y="-16.8" font-family="Helvetica,sans-Serif" font-size="9.00">mexiface::MexIFaceBase</text>
<text text-anchor="middle" x="60" y="-6.8" font-family="Helvetica,sans-Serif" font-size="9.00">::output</text>
</g>
<!-- Node2 -->
<g id="node2" class="node"><title>Node2</title>
<g id="a_node2"><a xlink:href="classmexiface_1_1MexIFaceHandler.html#aaa8b6d2ebc1c78770ed73f5c34f48291" target="_top" xlink:title="Should be called from all and only from objConstructor() overrides of MexIFace sub&#45;classes. ">
<polygon fill="white" stroke="black" points="156.5,-0 156.5,-28 287.5,-28 287.5,-0 156.5,-0"/>
<text text-anchor="start" x="164.5" y="-16.8" font-family="Helvetica,sans-Serif" font-size="9.00">mexiface::MexIFaceHandler</text>
<text text-anchor="middle" x="222" y="-6.8" font-family="Helvetica,sans-Serif" font-size="9.00">::outputHandle</text>
</a>
</g>
</g>
<!-- Node1&#45;&gt;Node2 -->
<g id="edge1" class="edge"><title>Node1&#45;&gt;Node2</title>
<path fill="none" stroke="midnightblue" d="M129.89,-14C138.69,-14 147.672,-14 156.401,-14"/>
<polygon fill="midnightblue" stroke="midnightblue" points="129.67,-10.5001 119.67,-14 129.67,-17.5001 129.67,-10.5001"/>
</g>
</g>
</svg>
