<?xml version="1.0" encoding="UTF-8" standalone="no"?>
<!DOCTYPE svg PUBLIC "-//W3C//DTD SVG 1.1//EN"
 "http://www.w3.org/Graphics/SVG/1.1/DTD/svg11.dtd">
<!-- Generated by graphviz version 2.38.0 (20140413.2041)
 -->
<!-- Title: mexiface::MexIFaceBase::output Pages: 1 -->
<svg width="294pt" height="37pt"
 viewBox="0.00 0.00 294.00 37.00" xmlns="http://www.w3.org/2000/svg" xmlns:xlink="http://www.w3.org/1999/xlink">
<g id="graph0" class="graph" transform="scale(1 1) rotate(0) translate(4 33)">
<title>mexiface::MexIFaceBase::output</title>
<polygon fill="white" stroke="none" points="-4,4 -4,-33 290,-33 290,4 -4,4"/>
<!-- Node1 -->
<g id="node1" class="node"><title>Node1</title>
<polygon fill="#bfbfbf" stroke="black" points="0,-0.5 0,-28.5 119,-28.5 119,-0.5 0,-0.5"/>
<text text-anchor="start" x="8" y="-17.3" font-family="Helvetica,sans-Serif" font-size="9.00">mexiface::MexIFaceBase</text>
<text text-anchor="middle" x="59.5" y="-7.3" font-family="Helvetica,sans-Serif" font-size="9.00">::output</text>
</g>
<!-- Node2 -->
<g id="node2" class="node"><title>Node2</title>
<g id="a_node2"><a xlink:href="classmexiface_1_1MexIFaceHandler.html#aaa8b6d2ebc1c78770ed73f5c34f48291" target="_top" xlink:title="Should be called from all and only from objConstructor() overrides of MexIFace sub&#45;classes. ">
<polygon fill="white" stroke="black" points="155,-0.5 155,-28.5 286,-28.5 286,-0.5 155,-0.5"/>
<text text-anchor="start" x="163" y="-17.3" font-family="Helvetica,sans-Serif" font-size="9.00">mexiface::MexIFaceHandler</text>
<text text-anchor="middle" x="220.5" y="-7.3" font-family="Helvetica,sans-Serif" font-size="9.00">::outputHandle</text>
</a>
</g>
</g>
<!-- Node1&#45;&gt;Node2 -->
<g id="edge1" class="edge"><title>Node1&#45;&gt;Node2</title>
<path fill="none" stroke="midnightblue" d="M129.436,-14.5C137.87,-14.5 146.466,-14.5 154.835,-14.5"/>
<polygon fill="midnightblue" stroke="midnightblue" points="129.254,-11.0001 119.254,-14.5 129.254,-18.0001 129.254,-11.0001"/>
</g>
</g>
</svg>
