<?xml version="1.0" encoding="UTF-8" standalone="no"?>
<!DOCTYPE svg PUBLIC "-//W3C//DTD SVG 1.1//EN"
 "http://www.w3.org/Graphics/SVG/1.1/DTD/svg11.dtd">
<!-- Generated by graphviz version 2.38.0 (20140413.2041)
 -->
<!-- Title: mexiface::MexIFaceHandler::getObjectFromHandle Pages: 1 -->
<svg width="477pt" height="37pt"
 viewBox="0.00 0.00 477.00 37.00" xmlns="http://www.w3.org/2000/svg" xmlns:xlink="http://www.w3.org/1999/xlink">
<g id="graph0" class="graph" transform="scale(1 1) rotate(0) translate(4 33)">
<title>mexiface::MexIFaceHandler::getObjectFromHandle</title>
<polygon fill="white" stroke="none" points="-4,4 -4,-33 473,-33 473,4 -4,4"/>
<!-- Node1 -->
<g id="node1" class="node"><title>Node1</title>
<polygon fill="#bfbfbf" stroke="black" points="0,-0.5 0,-28.5 131,-28.5 131,-0.5 0,-0.5"/>
<text text-anchor="start" x="8" y="-17.3" font-family="Helvetica,sans-Serif" font-size="9.00">mexiface::MexIFaceHandler</text>
<text text-anchor="middle" x="65.5" y="-7.3" font-family="Helvetica,sans-Serif" font-size="9.00">::getObjectFromHandle</text>
</g>
<!-- Node2 -->
<g id="node2" class="node"><title>Node2</title>
<g id="a_node2"><a xlink:href="classmexiface_1_1Handle.html#a2c3c72d6bef3ea3406e6028b3ffbad07" target="_top" xlink:title="Given a matlab mxArray object pointer to data that represents a handle, retrieve the object pointer f...">
<polygon fill="white" stroke="black" points="167,-5.5 167,-23.5 298,-23.5 298,-5.5 167,-5.5"/>
<text text-anchor="middle" x="232.5" y="-12.3" font-family="Helvetica,sans-Serif" font-size="9.00">mexiface::Handle::getObject</text>
</a>
</g>
</g>
<!-- Node1&#45;&gt;Node2 -->
<g id="edge1" class="edge"><title>Node1&#45;&gt;Node2</title>
<path fill="none" stroke="midnightblue" d="M131.239,-14.5C139.583,-14.5 148.182,-14.5 156.671,-14.5"/>
<polygon fill="midnightblue" stroke="midnightblue" points="156.948,-18.0001 166.948,-14.5 156.948,-11.0001 156.948,-18.0001"/>
</g>
<!-- Node3 -->
<g id="node3" class="node"><title>Node3</title>
<g id="a_node3"><a xlink:href="classmexiface_1_1Handle.html#a3f74c217c7e3dfcbdea960f69ec5dbd0" target="_top" xlink:title="Given a Matlab mxArray object pointer to data that represents a handle, return a Handle object pointe...">
<polygon fill="white" stroke="black" points="334,-5.5 334,-23.5 469,-23.5 469,-5.5 334,-5.5"/>
<text text-anchor="middle" x="401.5" y="-12.3" font-family="Helvetica,sans-Serif" font-size="9.00">mexiface::Handle::getHandle</text>
</a>
</g>
</g>
<!-- Node2&#45;&gt;Node3 -->
<g id="edge2" class="edge"><title>Node2&#45;&gt;Node3</title>
<path fill="none" stroke="midnightblue" d="M298.067,-14.5C306.511,-14.5 315.228,-14.5 323.847,-14.5"/>
<polygon fill="midnightblue" stroke="midnightblue" points="323.897,-18.0001 333.897,-14.5 323.897,-11.0001 323.897,-18.0001"/>
</g>
</g>
</svg>
