<?xml version="1.0" encoding="UTF-8" standalone="no"?>
<!DOCTYPE svg PUBLIC "-//W3C//DTD SVG 1.1//EN"
 "http://www.w3.org/Graphics/SVG/1.1/DTD/svg11.dtd">
<!-- Generated by graphviz version 2.36.0 (20140111.2315)
 -->
<!-- Title: mexiface::MexIFace::error Pages: 1 -->
<svg width="262pt" height="36pt"
 viewBox="0.00 0.00 262.00 36.00" xmlns="http://www.w3.org/2000/svg" xmlns:xlink="http://www.w3.org/1999/xlink">
<g id="graph0" class="graph" transform="scale(1 1) rotate(0) translate(4 32)">
<title>mexiface::MexIFace::error</title>
<polygon fill="white" stroke="none" points="-4,4 -4,-32 258,-32 258,4 -4,4"/>
<!-- Node1 -->
<g id="node1" class="node"><title>Node1</title>
<polygon fill="#bfbfbf" stroke="black" points="0,-0 0,-28 98,-28 98,-0 0,-0"/>
<text text-anchor="start" x="8" y="-16.8" font-family="Helvetica,sans-Serif" font-size="9.00">mexiface::MexIFace</text>
<text text-anchor="middle" x="49" y="-6.8" font-family="Helvetica,sans-Serif" font-size="9.00">::error</text>
</g>
<!-- Node2 -->
<g id="node2" class="node"><title>Node2</title>
<g id="a_node2"><a xlink:href="classmexiface_1_1MexIFaceBase.html#a20e05eeccf9c7a5738f7d9c90acc9430" target="_top" xlink:title="Get the name of the class of the stored object. ">
<polygon fill="white" stroke="black" points="134.5,-0 134.5,-28 253.5,-28 253.5,-0 134.5,-0"/>
<text text-anchor="start" x="142.5" y="-16.8" font-family="Helvetica,sans-Serif" font-size="9.00">mexiface::MexIFaceBase</text>
<text text-anchor="middle" x="194" y="-6.8" font-family="Helvetica,sans-Serif" font-size="9.00">::obj_name</text>
</a>
</g>
</g>
<!-- Node1&#45;&gt;Node2 -->
<g id="edge1" class="edge"><title>Node1&#45;&gt;Node2</title>
<path fill="none" stroke="midnightblue" d="M98.0147,-14C106.504,-14 115.49,-14 124.415,-14"/>
<polygon fill="midnightblue" stroke="midnightblue" points="124.437,-17.5001 134.437,-14 124.437,-10.5001 124.437,-17.5001"/>
</g>
</g>
</svg>
