<?xml version="1.0" encoding="UTF-8" standalone="no"?>
<!DOCTYPE svg PUBLIC "-//W3C//DTD SVG 1.1//EN"
 "http://www.w3.org/Graphics/SVG/1.1/DTD/svg11.dtd">
<!-- Generated by graphviz version 2.36.0 (20140111.2315)
 -->
<!-- Title: mexiface::MexIFace::checkType Pages: 1 -->
<svg width="378pt" height="639pt"
 viewBox="0.00 0.00 378.00 639.00" xmlns="http://www.w3.org/2000/svg" xmlns:xlink="http://www.w3.org/1999/xlink">
<g id="graph0" class="graph" transform="scale(1 1) rotate(0) translate(4 635)">
<title>mexiface::MexIFace::checkType</title>
<polygon fill="white" stroke="none" points="-4,4 -4,-635 374,-635 374,4 -4,4"/>
<!-- Node1 -->
<g id="node1" class="node"><title>Node1</title>
<polygon fill="#bfbfbf" stroke="black" points="0,-297 0,-325 98,-325 98,-297 0,-297"/>
<text text-anchor="start" x="8" y="-313.8" font-family="Helvetica,sans-Serif" font-size="9.00">mexiface::MexIFace</text>
<text text-anchor="middle" x="49" y="-303.8" font-family="Helvetica,sans-Serif" font-size="9.00">::checkType</text>
</g>
<!-- Node2 -->
<g id="node2" class="node"><title>Node2</title>
<g id="a_node2"><a xlink:href="classmexiface_1_1MexIFace.html#adb6d1c6c3b4abc16b1a7719e7faf271f" target="_top" xlink:title="mexiface::MexIFace\l::getAsScalarArray">
<polygon fill="white" stroke="black" points="136,-603 136,-631 234,-631 234,-603 136,-603"/>
<text text-anchor="start" x="144" y="-619.8" font-family="Helvetica,sans-Serif" font-size="9.00">mexiface::MexIFace</text>
<text text-anchor="middle" x="185" y="-609.8" font-family="Helvetica,sans-Serif" font-size="9.00">::getAsScalarArray</text>
</a>
</g>
</g>
<!-- Node1&#45;&gt;Node2 -->
<g id="edge1" class="edge"><title>Node1&#45;&gt;Node2</title>
<path fill="none" stroke="midnightblue" d="M50.8315,-335.33C53.8785,-388.346 68.0629,-515.724 134,-593 137.25,-596.809 141.243,-600.061 145.542,-602.824"/>
<polygon fill="midnightblue" stroke="midnightblue" points="54.32,-335.007 50.3357,-325.19 47.3284,-335.349 54.32,-335.007"/>
</g>
<!-- Node3 -->
<g id="node3" class="node"><title>Node3</title>
<g id="a_node3"><a xlink:href="classmexiface_1_1MexIFace.html#ab6a850c6bbb3cd5a468cba93e4c0019e" target="_top" xlink:title="mexiface::MexIFace\l::getAsScalarDict">
<polygon fill="white" stroke="black" points="136,-556 136,-584 234,-584 234,-556 136,-556"/>
<text text-anchor="start" x="144" y="-572.8" font-family="Helvetica,sans-Serif" font-size="9.00">mexiface::MexIFace</text>
<text text-anchor="middle" x="185" y="-562.8" font-family="Helvetica,sans-Serif" font-size="9.00">::getAsScalarDict</text>
</a>
</g>
</g>
<!-- Node1&#45;&gt;Node3 -->
<g id="edge2" class="edge"><title>Node1&#45;&gt;Node3</title>
<path fill="none" stroke="midnightblue" d="M52.5429,-335.052C58.6121,-381.337 77.8901,-483.714 134,-546 137.48,-549.863 141.717,-553.164 146.236,-555.969"/>
<polygon fill="midnightblue" stroke="midnightblue" points="56.0084,-334.555 51.3257,-325.051 49.0596,-335.401 56.0084,-334.555"/>
</g>
<!-- Node4 -->
<g id="node4" class="node"><title>Node4</title>
<g id="a_node4"><a xlink:href="classmexiface_1_1MexIFace.html#a7ace2738c19c8b6c6acaf2fcf1e0d149" target="_top" xlink:title="mexiface::MexIFace\l::getCubeArray">
<polygon fill="white" stroke="black" points="136,-509 136,-537 234,-537 234,-509 136,-509"/>
<text text-anchor="start" x="144" y="-525.8" font-family="Helvetica,sans-Serif" font-size="9.00">mexiface::MexIFace</text>
<text text-anchor="middle" x="185" y="-515.8" font-family="Helvetica,sans-Serif" font-size="9.00">::getCubeArray</text>
</a>
</g>
</g>
<!-- Node1&#45;&gt;Node4 -->
<g id="edge3" class="edge"><title>Node1&#45;&gt;Node4</title>
<path fill="none" stroke="midnightblue" d="M55.0727,-335.073C64.4099,-374.066 87.7403,-451.459 134,-499 137.693,-502.796 142.107,-506.068 146.762,-508.867"/>
<polygon fill="midnightblue" stroke="midnightblue" points="58.4447,-334.117 52.8028,-325.15 51.6209,-335.678 58.4447,-334.117"/>
</g>
<!-- Node5 -->
<g id="node5" class="node"><title>Node5</title>
<g id="a_node5"><a xlink:href="classmexiface_1_1MexIFace.html#add7627b38f958fc2252e107d2385bc07" target="_top" xlink:title="mexiface::MexIFace\l::getCubeDict">
<polygon fill="white" stroke="black" points="136,-462 136,-490 234,-490 234,-462 136,-462"/>
<text text-anchor="start" x="144" y="-478.8" font-family="Helvetica,sans-Serif" font-size="9.00">mexiface::MexIFace</text>
<text text-anchor="middle" x="185" y="-468.8" font-family="Helvetica,sans-Serif" font-size="9.00">::getCubeDict</text>
</a>
</g>
</g>
<!-- Node1&#45;&gt;Node5 -->
<g id="edge4" class="edge"><title>Node1&#45;&gt;Node5</title>
<path fill="none" stroke="midnightblue" d="M59.0051,-334.68C71.6625,-365.251 97.342,-418.493 134,-452 138.122,-455.768 142.943,-459.06 147.934,-461.899"/>
<polygon fill="midnightblue" stroke="midnightblue" points="62.1896,-333.218 55.2148,-325.243 55.694,-335.827 62.1896,-333.218"/>
</g>
<!-- Node6 -->
<g id="node6" class="node"><title>Node6</title>
<g id="a_node6"><a xlink:href="classmexiface_1_1MexIFace.html#a4a14aef74c93b58b5b33842442210eca" target="_top" xlink:title="mexiface::MexIFace\l::getHypercubeArray">
<polygon fill="white" stroke="black" points="134.5,-415 134.5,-443 235.5,-443 235.5,-415 134.5,-415"/>
<text text-anchor="start" x="142.5" y="-431.8" font-family="Helvetica,sans-Serif" font-size="9.00">mexiface::MexIFace</text>
<text text-anchor="middle" x="185" y="-421.8" font-family="Helvetica,sans-Serif" font-size="9.00">::getHypercubeArray</text>
</a>
</g>
</g>
<!-- Node1&#45;&gt;Node6 -->
<g id="edge5" class="edge"><title>Node1&#45;&gt;Node6</title>
<path fill="none" stroke="midnightblue" d="M65.7586,-333.186C81.283,-353.824 106.598,-384.405 134,-405 138.926,-408.702 144.514,-412.054 150.125,-414.998"/>
<polygon fill="midnightblue" stroke="midnightblue" points="68.4794,-330.979 59.7271,-325.008 62.8459,-335.134 68.4794,-330.979"/>
</g>
<!-- Node7 -->
<g id="node7" class="node"><title>Node7</title>
<g id="a_node7"><a xlink:href="classmexiface_1_1MexIFace.html#adc2f6c4e44337eddb4450d891fab7663" target="_top" xlink:title="mexiface::MexIFace\l::getHypercubeDict">
<polygon fill="white" stroke="black" points="136,-368 136,-396 234,-396 234,-368 136,-368"/>
<text text-anchor="start" x="144" y="-384.8" font-family="Helvetica,sans-Serif" font-size="9.00">mexiface::MexIFace</text>
<text text-anchor="middle" x="185" y="-374.8" font-family="Helvetica,sans-Serif" font-size="9.00">::getHypercubeDict</text>
</a>
</g>
</g>
<!-- Node1&#45;&gt;Node7 -->
<g id="edge6" class="edge"><title>Node1&#45;&gt;Node7</title>
<path fill="none" stroke="midnightblue" d="M83.4773,-330.364C98.7628,-339.041 117.173,-349.265 134,-358 140.409,-361.327 147.355,-364.765 153.972,-367.963"/>
<polygon fill="midnightblue" stroke="midnightblue" points="84.8261,-327.104 74.4059,-325.188 81.357,-333.184 84.8261,-327.104"/>
</g>
<!-- Node8 -->
<g id="node8" class="node"><title>Node8</title>
<g id="a_node8"><a xlink:href="classmexiface_1_1MexIFace.html#af92d41ae927a407a8c287328e2902681" target="_top" xlink:title="mexiface::MexIFace\l::getMatArray">
<polygon fill="white" stroke="black" points="136,-321 136,-349 234,-349 234,-321 136,-321"/>
<text text-anchor="start" x="144" y="-337.8" font-family="Helvetica,sans-Serif" font-size="9.00">mexiface::MexIFace</text>
<text text-anchor="middle" x="185" y="-327.8" font-family="Helvetica,sans-Serif" font-size="9.00">::getMatArray</text>
</a>
</g>
</g>
<!-- Node1&#45;&gt;Node8 -->
<g id="edge7" class="edge"><title>Node1&#45;&gt;Node8</title>
<path fill="none" stroke="midnightblue" d="M108.502,-321.478C117.582,-323.104 126.873,-324.768 135.694,-326.348"/>
<polygon fill="midnightblue" stroke="midnightblue" points="108.838,-317.982 98.3771,-319.665 107.603,-324.873 108.838,-317.982"/>
</g>
<!-- Node9 -->
<g id="node9" class="node"><title>Node9</title>
<g id="a_node9"><a xlink:href="classmexiface_1_1MexIFace.html#a1bbba7b227a01e60c32602394943302e" target="_top" xlink:title="mexiface::MexIFace\l::getMatDict">
<polygon fill="white" stroke="black" points="136,-274 136,-302 234,-302 234,-274 136,-274"/>
<text text-anchor="start" x="144" y="-290.8" font-family="Helvetica,sans-Serif" font-size="9.00">mexiface::MexIFace</text>
<text text-anchor="middle" x="185" y="-280.8" font-family="Helvetica,sans-Serif" font-size="9.00">::getMatDict</text>
</a>
</g>
</g>
<!-- Node1&#45;&gt;Node9 -->
<g id="edge8" class="edge"><title>Node1&#45;&gt;Node9</title>
<path fill="none" stroke="midnightblue" d="M108.502,-300.959C117.582,-299.4 126.873,-297.805 135.694,-296.291"/>
<polygon fill="midnightblue" stroke="midnightblue" points="107.641,-297.555 98.3771,-302.696 108.825,-304.454 107.641,-297.555"/>
</g>
<!-- Node10 -->
<g id="node10" class="node"><title>Node10</title>
<g id="a_node10"><a xlink:href="classmexiface_1_1MexIFace.html#af0b2e90f4bcca31d670cfaff193456f0" target="_top" xlink:title="mexiface::MexIFace\l::getScalarArray">
<polygon fill="white" stroke="black" points="136,-227 136,-255 234,-255 234,-227 136,-227"/>
<text text-anchor="start" x="144" y="-243.8" font-family="Helvetica,sans-Serif" font-size="9.00">mexiface::MexIFace</text>
<text text-anchor="middle" x="185" y="-233.8" font-family="Helvetica,sans-Serif" font-size="9.00">::getScalarArray</text>
</a>
</g>
</g>
<!-- Node1&#45;&gt;Node10 -->
<g id="edge9" class="edge"><title>Node1&#45;&gt;Node10</title>
<path fill="none" stroke="midnightblue" d="M83.8548,-291.923C99.0817,-283.482 117.341,-273.552 134,-265 140.425,-261.702 147.376,-258.276 153.995,-255.081"/>
<polygon fill="midnightblue" stroke="midnightblue" points="81.8416,-289.038 74.8071,-296.961 85.2468,-295.154 81.8416,-289.038"/>
</g>
<!-- Node11 -->
<g id="node11" class="node"><title>Node11</title>
<g id="a_node11"><a xlink:href="classmexiface_1_1MexIFace.html#a5d447588f02084232527e98e71182a78" target="_top" xlink:title="mexiface::MexIFace\l::getScalarDict">
<polygon fill="white" stroke="black" points="136,-180 136,-208 234,-208 234,-180 136,-180"/>
<text text-anchor="start" x="144" y="-196.8" font-family="Helvetica,sans-Serif" font-size="9.00">mexiface::MexIFace</text>
<text text-anchor="middle" x="185" y="-186.8" font-family="Helvetica,sans-Serif" font-size="9.00">::getScalarDict</text>
</a>
</g>
</g>
<!-- Node1&#45;&gt;Node11 -->
<g id="edge10" class="edge"><title>Node1&#45;&gt;Node11</title>
<path fill="none" stroke="midnightblue" d="M66.0688,-288.718C81.6495,-268.313 106.858,-238.287 134,-218 138.936,-214.311 144.529,-210.966 150.142,-208.024"/>
<polygon fill="midnightblue" stroke="midnightblue" points="63.196,-286.715 60.0032,-296.818 68.799,-290.911 63.196,-286.715"/>
</g>
<!-- Node12 -->
<g id="node12" class="node"><title>Node12</title>
<g id="a_node12"><a xlink:href="classmexiface_1_1MexIFace.html#a82c2478cb12301e02edcef234fc80fb1" target="_top" xlink:title="Reads a mxArray as a string. ">
<polygon fill="white" stroke="black" points="136,-133 136,-161 234,-161 234,-133 136,-133"/>
<text text-anchor="start" x="144" y="-149.8" font-family="Helvetica,sans-Serif" font-size="9.00">mexiface::MexIFace</text>
<text text-anchor="middle" x="185" y="-139.8" font-family="Helvetica,sans-Serif" font-size="9.00">::getString</text>
</a>
</g>
</g>
<!-- Node1&#45;&gt;Node12 -->
<g id="edge11" class="edge"><title>Node1&#45;&gt;Node12</title>
<path fill="none" stroke="midnightblue" d="M59.0478,-287.49C71.7516,-257.137 97.4815,-204.274 134,-171 138.128,-167.239 142.952,-163.95 147.945,-161.112"/>
<polygon fill="midnightblue" stroke="midnightblue" points="55.7625,-286.277 55.2421,-296.859 62.248,-288.912 55.7625,-286.277"/>
</g>
<!-- Node14 -->
<g id="node14" class="node"><title>Node14</title>
<g id="a_node14"><a xlink:href="classmexiface_1_1MexIFace.html#af398ae966ad89f4a0cf773069694be1f" target="_top" xlink:title="mexiface::MexIFace\l::getStringArray">
<polygon fill="white" stroke="black" points="272,-90 272,-118 370,-118 370,-90 272,-90"/>
<text text-anchor="start" x="280" y="-106.8" font-family="Helvetica,sans-Serif" font-size="9.00">mexiface::MexIFace</text>
<text text-anchor="middle" x="321" y="-96.8" font-family="Helvetica,sans-Serif" font-size="9.00">::getStringArray</text>
</a>
</g>
</g>
<!-- Node1&#45;&gt;Node14 -->
<g id="edge14" class="edge"><title>Node1&#45;&gt;Node14</title>
<path fill="none" stroke="midnightblue" d="M53.1502,-286.867C59.8927,-245.892 79.7981,-163.342 134,-124 173.689,-95.1922 231.269,-93.4103 271.827,-96.7949"/>
<polygon fill="midnightblue" stroke="midnightblue" points="49.6836,-286.383 51.6429,-296.795 56.6043,-287.434 49.6836,-286.383"/>
</g>
<!-- Node15 -->
<g id="node15" class="node"><title>Node15</title>
<g id="a_node15"><a xlink:href="classmexiface_1_1MexIFace.html#a9ef24930476d54735e0cc97ef53f182b" target="_top" xlink:title="mexiface::MexIFace\l::getVecArray">
<polygon fill="white" stroke="black" points="136,-47 136,-75 234,-75 234,-47 136,-47"/>
<text text-anchor="start" x="144" y="-63.8" font-family="Helvetica,sans-Serif" font-size="9.00">mexiface::MexIFace</text>
<text text-anchor="middle" x="185" y="-53.8" font-family="Helvetica,sans-Serif" font-size="9.00">::getVecArray</text>
</a>
</g>
</g>
<!-- Node1&#45;&gt;Node15 -->
<g id="edge15" class="edge"><title>Node1&#45;&gt;Node15</title>
<path fill="none" stroke="midnightblue" d="M53.7003,-286.93C61.5046,-243.194 83.2877,-149.695 134,-90 139.003,-84.1112 145.519,-79.1412 152.187,-75.0702"/>
<polygon fill="midnightblue" stroke="midnightblue" points="50.2263,-286.483 52.0082,-296.927 57.1281,-287.651 50.2263,-286.483"/>
</g>
<!-- Node16 -->
<g id="node16" class="node"><title>Node16</title>
<g id="a_node16"><a xlink:href="classmexiface_1_1MexIFace.html#a7054db3d2f9b86ffca877a8069e4bb23" target="_top" xlink:title="mexiface::MexIFace\l::getVecDict">
<polygon fill="white" stroke="black" points="136,-0 136,-28 234,-28 234,-0 136,-0"/>
<text text-anchor="start" x="144" y="-16.8" font-family="Helvetica,sans-Serif" font-size="9.00">mexiface::MexIFace</text>
<text text-anchor="middle" x="185" y="-6.8" font-family="Helvetica,sans-Serif" font-size="9.00">::getVecDict</text>
</a>
</g>
</g>
<!-- Node1&#45;&gt;Node16 -->
<g id="edge16" class="edge"><title>Node1&#45;&gt;Node16</title>
<path fill="none" stroke="midnightblue" d="M51.1172,-286.747C54.7245,-234.991 69.9418,-112.393 134,-38 137.267,-34.2058 141.27,-30.9628 145.575,-28.2035"/>
<polygon fill="midnightblue" stroke="midnightblue" points="47.6104,-286.754 50.496,-296.948 54.5975,-287.18 47.6104,-286.754"/>
</g>
<!-- Node13 -->
<g id="node13" class="node"><title>Node13</title>
<g id="a_node13"><a xlink:href="classmexiface_1_1MexIFace.html#a17f0280024d7cdd318b13223174b6151" target="_top" xlink:title="The mexFunction that will be exposed as the entry point for the .mex file. ">
<polygon fill="white" stroke="black" points="272,-137 272,-165 370,-165 370,-137 272,-137"/>
<text text-anchor="start" x="280" y="-153.8" font-family="Helvetica,sans-Serif" font-size="9.00">mexiface::MexIFace</text>
<text text-anchor="middle" x="321" y="-143.8" font-family="Helvetica,sans-Serif" font-size="9.00">::mexFunction</text>
</a>
</g>
</g>
<!-- Node12&#45;&gt;Node13 -->
<g id="edge12" class="edge"><title>Node12&#45;&gt;Node13</title>
<path fill="none" stroke="midnightblue" d="M244.502,-148.746C253.582,-149.017 262.873,-149.295 271.694,-149.558"/>
<polygon fill="midnightblue" stroke="midnightblue" points="244.477,-145.244 234.377,-148.444 244.268,-152.241 244.477,-145.244"/>
</g>
<!-- Node12&#45;&gt;Node14 -->
<g id="edge13" class="edge"><title>Node12&#45;&gt;Node14</title>
<path fill="none" stroke="midnightblue" d="M239.444,-129.85C251.58,-125.956 264.335,-121.863 276.025,-118.111"/>
<polygon fill="midnightblue" stroke="midnightblue" points="238.329,-126.532 229.877,-132.92 240.468,-133.197 238.329,-126.532"/>
</g>
</g>
</svg>
