<?xml version="1.0" encoding="UTF-8" standalone="no"?>
<!DOCTYPE svg PUBLIC "-//W3C//DTD SVG 1.1//EN"
 "http://www.w3.org/Graphics/SVG/1.1/DTD/svg11.dtd">
<!-- Generated by graphviz version 2.38.0 (20140413.2041)
 -->
<!-- Title: mexiface::MexIFace::checkVectorSize Pages: 1 -->
<svg width="377pt" height="405pt"
 viewBox="0.00 0.00 377.00 405.00" xmlns="http://www.w3.org/2000/svg" xmlns:xlink="http://www.w3.org/1999/xlink">
<g id="graph0" class="graph" transform="scale(1 1) rotate(0) translate(4 401)">
<title>mexiface::MexIFace::checkVectorSize</title>
<polygon fill="white" stroke="none" points="-4,4 -4,-401 373,-401 373,4 -4,4"/>
<!-- Node1 -->
<g id="node1" class="node"><title>Node1</title>
<polygon fill="#bfbfbf" stroke="black" points="0,-180.5 0,-208.5 98,-208.5 98,-180.5 0,-180.5"/>
<text text-anchor="start" x="8" y="-197.3" font-family="Helvetica,sans-Serif" font-size="9.00">mexiface::MexIFace</text>
<text text-anchor="middle" x="49" y="-187.3" font-family="Helvetica,sans-Serif" font-size="9.00">::checkVectorSize</text>
</g>
<!-- Node2 -->
<g id="node2" class="node"><title>Node2</title>
<g id="a_node2"><a xlink:href="classmexiface_1_1MexIFace.html#a3a96c40f75e1816b2af75add7484f5c2" target="_top" xlink:title="mexiface::MexIFace\l::checkedToVec">
<polygon fill="white" stroke="black" points="135.5,-368.5 135.5,-396.5 233.5,-396.5 233.5,-368.5 135.5,-368.5"/>
<text text-anchor="start" x="143.5" y="-385.3" font-family="Helvetica,sans-Serif" font-size="9.00">mexiface::MexIFace</text>
<text text-anchor="middle" x="184.5" y="-375.3" font-family="Helvetica,sans-Serif" font-size="9.00">::checkedToVec</text>
</a>
</g>
</g>
<!-- Node1&#45;&gt;Node2 -->
<g id="edge1" class="edge"><title>Node1&#45;&gt;Node2</title>
<path fill="none" stroke="midnightblue" d="M56.7415,-218.669C67.6532,-253.825 92.2791,-319.252 134,-359.5 137.546,-362.921 141.694,-365.901 146.053,-368.479"/>
<polygon fill="midnightblue" stroke="midnightblue" points="60.007,-217.372 53.7917,-208.792 53.2997,-219.376 60.007,-217.372"/>
</g>
<!-- Node3 -->
<g id="node3" class="node"><title>Node3</title>
<g id="a_node3"><a xlink:href="classmexiface_1_1MexIFace.html#adb6d1c6c3b4abc16b1a7719e7faf271f" target="_top" xlink:title="mexiface::MexIFace\l::getAsScalarArray">
<polygon fill="white" stroke="black" points="135.5,-321.5 135.5,-349.5 233.5,-349.5 233.5,-321.5 135.5,-321.5"/>
<text text-anchor="start" x="143.5" y="-338.3" font-family="Helvetica,sans-Serif" font-size="9.00">mexiface::MexIFace</text>
<text text-anchor="middle" x="184.5" y="-328.3" font-family="Helvetica,sans-Serif" font-size="9.00">::getAsScalarArray</text>
</a>
</g>
</g>
<!-- Node1&#45;&gt;Node3 -->
<g id="edge2" class="edge"><title>Node1&#45;&gt;Node3</title>
<path fill="none" stroke="midnightblue" d="M61.7648,-217.774C75.892,-243.768 101.764,-285.701 134,-312.5 138.008,-315.832 142.578,-318.794 147.285,-321.391"/>
<polygon fill="midnightblue" stroke="midnightblue" points="64.7097,-215.856 56.9367,-208.657 58.5236,-219.132 64.7097,-215.856"/>
</g>
<!-- Node4 -->
<g id="node4" class="node"><title>Node4</title>
<g id="a_node4"><a xlink:href="classmexiface_1_1MexIFace.html#a7ace2738c19c8b6c6acaf2fcf1e0d149" target="_top" xlink:title="mexiface::MexIFace\l::getCubeArray">
<polygon fill="white" stroke="black" points="135.5,-274.5 135.5,-302.5 233.5,-302.5 233.5,-274.5 135.5,-274.5"/>
<text text-anchor="start" x="143.5" y="-291.3" font-family="Helvetica,sans-Serif" font-size="9.00">mexiface::MexIFace</text>
<text text-anchor="middle" x="184.5" y="-281.3" font-family="Helvetica,sans-Serif" font-size="9.00">::getCubeArray</text>
</a>
</g>
</g>
<!-- Node1&#45;&gt;Node4 -->
<g id="edge3" class="edge"><title>Node1&#45;&gt;Node4</title>
<path fill="none" stroke="midnightblue" d="M71.6118,-215.582C87.8692,-230.715 111.181,-250.927 134,-265.5 139.031,-268.713 144.584,-271.738 150.097,-274.472"/>
<polygon fill="midnightblue" stroke="midnightblue" points="73.903,-212.931 64.2306,-208.608 69.0956,-218.02 73.903,-212.931"/>
</g>
<!-- Node5 -->
<g id="node5" class="node"><title>Node5</title>
<g id="a_node5"><a xlink:href="classmexiface_1_1MexIFace.html#a4a14aef74c93b58b5b33842442210eca" target="_top" xlink:title="mexiface::MexIFace\l::getHypercubeArray">
<polygon fill="white" stroke="black" points="134,-227.5 134,-255.5 235,-255.5 235,-227.5 134,-227.5"/>
<text text-anchor="start" x="142" y="-244.3" font-family="Helvetica,sans-Serif" font-size="9.00">mexiface::MexIFace</text>
<text text-anchor="middle" x="184.5" y="-234.3" font-family="Helvetica,sans-Serif" font-size="9.00">::getHypercubeArray</text>
</a>
</g>
</g>
<!-- Node1&#45;&gt;Node5 -->
<g id="edge4" class="edge"><title>Node1&#45;&gt;Node5</title>
<path fill="none" stroke="midnightblue" d="M99.8109,-212.036C114.216,-217.108 129.748,-222.576 143.474,-227.408"/>
<polygon fill="midnightblue" stroke="midnightblue" points="100.649,-208.621 90.0544,-208.602 98.3246,-215.224 100.649,-208.621"/>
</g>
<!-- Node6 -->
<g id="node6" class="node"><title>Node6</title>
<g id="a_node6"><a xlink:href="classmexiface_1_1MexIFace.html#af92d41ae927a407a8c287328e2902681" target="_top" xlink:title="mexiface::MexIFace\l::getMatArray">
<polygon fill="white" stroke="black" points="135.5,-180.5 135.5,-208.5 233.5,-208.5 233.5,-180.5 135.5,-180.5"/>
<text text-anchor="start" x="143.5" y="-197.3" font-family="Helvetica,sans-Serif" font-size="9.00">mexiface::MexIFace</text>
<text text-anchor="middle" x="184.5" y="-187.3" font-family="Helvetica,sans-Serif" font-size="9.00">::getMatArray</text>
</a>
</g>
</g>
<!-- Node1&#45;&gt;Node6 -->
<g id="edge5" class="edge"><title>Node1&#45;&gt;Node6</title>
<path fill="none" stroke="midnightblue" d="M108.284,-194.5C117.329,-194.5 126.586,-194.5 135.374,-194.5"/>
<polygon fill="midnightblue" stroke="midnightblue" points="108.197,-191 98.1966,-194.5 108.197,-198 108.197,-191"/>
</g>
<!-- Node7 -->
<g id="node7" class="node"><title>Node7</title>
<g id="a_node7"><a xlink:href="classmexiface_1_1MexIFace.html#af0b2e90f4bcca31d670cfaff193456f0" target="_top" xlink:title="mexiface::MexIFace\l::getScalarArray">
<polygon fill="white" stroke="black" points="135.5,-133.5 135.5,-161.5 233.5,-161.5 233.5,-133.5 135.5,-133.5"/>
<text text-anchor="start" x="143.5" y="-150.3" font-family="Helvetica,sans-Serif" font-size="9.00">mexiface::MexIFace</text>
<text text-anchor="middle" x="184.5" y="-140.3" font-family="Helvetica,sans-Serif" font-size="9.00">::getScalarArray</text>
</a>
</g>
</g>
<!-- Node1&#45;&gt;Node7 -->
<g id="edge6" class="edge"><title>Node1&#45;&gt;Node7</title>
<path fill="none" stroke="midnightblue" d="M99.8109,-176.964C114.216,-171.892 129.748,-166.424 143.474,-161.592"/>
<polygon fill="midnightblue" stroke="midnightblue" points="98.3246,-173.776 90.0544,-180.398 100.649,-180.379 98.3246,-173.776"/>
</g>
<!-- Node8 -->
<g id="node8" class="node"><title>Node8</title>
<g id="a_node8"><a xlink:href="classmexiface_1_1MexIFace.html#a82c2478cb12301e02edcef234fc80fb1" target="_top" xlink:title="Reads a mxArray as a string. ">
<polygon fill="white" stroke="black" points="135.5,-86.5 135.5,-114.5 233.5,-114.5 233.5,-86.5 135.5,-86.5"/>
<text text-anchor="start" x="143.5" y="-103.3" font-family="Helvetica,sans-Serif" font-size="9.00">mexiface::MexIFace</text>
<text text-anchor="middle" x="184.5" y="-93.3" font-family="Helvetica,sans-Serif" font-size="9.00">::getString</text>
</a>
</g>
</g>
<!-- Node1&#45;&gt;Node8 -->
<g id="edge7" class="edge"><title>Node1&#45;&gt;Node8</title>
<path fill="none" stroke="midnightblue" d="M72.0301,-173.58C88.3326,-158.757 111.52,-139.007 134,-124.5 139.457,-120.979 145.507,-117.634 151.451,-114.622"/>
<polygon fill="midnightblue" stroke="midnightblue" points="69.5941,-171.066 64.6134,-180.417 74.3384,-176.213 69.5941,-171.066"/>
</g>
<!-- Node10 -->
<g id="node10" class="node"><title>Node10</title>
<g id="a_node10"><a xlink:href="classmexiface_1_1MexIFace.html#af398ae966ad89f4a0cf773069694be1f" target="_top" xlink:title="mexiface::MexIFace\l::getStringArray">
<polygon fill="white" stroke="black" points="271,-43.5 271,-71.5 369,-71.5 369,-43.5 271,-43.5"/>
<text text-anchor="start" x="279" y="-60.3" font-family="Helvetica,sans-Serif" font-size="9.00">mexiface::MexIFace</text>
<text text-anchor="middle" x="320" y="-50.3" font-family="Helvetica,sans-Serif" font-size="9.00">::getStringArray</text>
</a>
</g>
</g>
<!-- Node1&#45;&gt;Node10 -->
<g id="edge10" class="edge"><title>Node1&#45;&gt;Node10</title>
<path fill="none" stroke="midnightblue" d="M59.538,-170.833C72.1041,-143.045 97.0325,-98.0235 134,-76.5 175.574,-52.2943 231.424,-49.8291 270.848,-51.997"/>
<polygon fill="midnightblue" stroke="midnightblue" points="56.2368,-169.648 55.4683,-180.215 62.6587,-172.434 56.2368,-169.648"/>
</g>
<!-- Node11 -->
<g id="node11" class="node"><title>Node11</title>
<g id="a_node11"><a xlink:href="classmexiface_1_1MexIFace.html#a9ef24930476d54735e0cc97ef53f182b" target="_top" xlink:title="mexiface::MexIFace\l::getVecArray">
<polygon fill="white" stroke="black" points="135.5,-0.5 135.5,-28.5 233.5,-28.5 233.5,-0.5 135.5,-0.5"/>
<text text-anchor="start" x="143.5" y="-17.3" font-family="Helvetica,sans-Serif" font-size="9.00">mexiface::MexIFace</text>
<text text-anchor="middle" x="184.5" y="-7.3" font-family="Helvetica,sans-Serif" font-size="9.00">::getVecArray</text>
</a>
</g>
</g>
<!-- Node1&#45;&gt;Node11 -->
<g id="edge11" class="edge"><title>Node1&#45;&gt;Node11</title>
<path fill="none" stroke="midnightblue" d="M58.4845,-171.005C70.9727,-139.022 96.9048,-81.4316 134,-43.5 139.641,-37.7321 146.667,-32.711 153.638,-28.5414"/>
<polygon fill="midnightblue" stroke="midnightblue" points="55.1829,-169.84 54.9051,-180.432 61.727,-172.325 55.1829,-169.84"/>
</g>
<!-- Node9 -->
<g id="node9" class="node"><title>Node9</title>
<g id="a_node9"><a xlink:href="classmexiface_1_1MexIFace.html#a17f0280024d7cdd318b13223174b6151" target="_top" xlink:title="The mexFunction that will be exposed as the entry point for the .mex file. ">
<polygon fill="white" stroke="black" points="271,-90.5 271,-118.5 369,-118.5 369,-90.5 271,-90.5"/>
<text text-anchor="start" x="279" y="-107.3" font-family="Helvetica,sans-Serif" font-size="9.00">mexiface::MexIFace</text>
<text text-anchor="middle" x="320" y="-97.3" font-family="Helvetica,sans-Serif" font-size="9.00">::mexFunction</text>
</a>
</g>
</g>
<!-- Node8&#45;&gt;Node9 -->
<g id="edge8" class="edge"><title>Node8&#45;&gt;Node9</title>
<path fill="none" stroke="midnightblue" d="M243.784,-102.246C252.829,-102.517 262.086,-102.795 270.874,-103.058"/>
<polygon fill="midnightblue" stroke="midnightblue" points="243.797,-98.7452 233.697,-101.944 243.587,-105.742 243.797,-98.7452"/>
</g>
<!-- Node8&#45;&gt;Node10 -->
<g id="edge9" class="edge"><title>Node8&#45;&gt;Node10</title>
<path fill="none" stroke="midnightblue" d="M238.745,-83.35C250.835,-79.4557 263.542,-75.3628 275.189,-71.6114"/>
<polygon fill="midnightblue" stroke="midnightblue" points="237.658,-80.0228 229.213,-86.4202 239.804,-86.6857 237.658,-80.0228"/>
</g>
</g>
</svg>
