<?xml version="1.0" encoding="UTF-8" standalone="no"?>
<!DOCTYPE svg PUBLIC "-//W3C//DTD SVG 1.1//EN"
 "http://www.w3.org/Graphics/SVG/1.1/DTD/svg11.dtd">
<!-- Generated by graphviz version 2.36.0 (20140111.2315)
 -->
<!-- Title: mexiface::MexIFace::getString Pages: 1 -->
<svg width="240pt" height="83pt"
 viewBox="0.00 0.00 240.00 83.00" xmlns="http://www.w3.org/2000/svg" xmlns:xlink="http://www.w3.org/1999/xlink">
<g id="graph0" class="graph" transform="scale(1 1) rotate(0) translate(4 79)">
<title>mexiface::MexIFace::getString</title>
<polygon fill="white" stroke="none" points="-4,4 -4,-79 236,-79 236,4 -4,4"/>
<!-- Node1 -->
<g id="node1" class="node"><title>Node1</title>
<polygon fill="#bfbfbf" stroke="black" points="0,-23 0,-51 98,-51 98,-23 0,-23"/>
<text text-anchor="start" x="8" y="-39.8" font-family="Helvetica,sans-Serif" font-size="9.00">mexiface::MexIFace</text>
<text text-anchor="middle" x="49" y="-29.8" font-family="Helvetica,sans-Serif" font-size="9.00">::getString</text>
</g>
<!-- Node2 -->
<g id="node2" class="node"><title>Node2</title>
<g id="a_node2"><a xlink:href="classmexiface_1_1MexIFace.html#af398ae966ad89f4a0cf773069694be1f" target="_top" xlink:title="mexiface::MexIFace\l::getStringArray">
<polygon fill="white" stroke="black" points="134,-47 134,-75 232,-75 232,-47 134,-47"/>
<text text-anchor="start" x="142" y="-63.8" font-family="Helvetica,sans-Serif" font-size="9.00">mexiface::MexIFace</text>
<text text-anchor="middle" x="183" y="-53.8" font-family="Helvetica,sans-Serif" font-size="9.00">::getStringArray</text>
</a>
</g>
</g>
<!-- Node1&#45;&gt;Node2 -->
<g id="edge1" class="edge"><title>Node1&#45;&gt;Node2</title>
<path fill="none" stroke="midnightblue" d="M108.012,-47.5476C116.618,-49.1124 125.409,-50.7107 133.786,-52.2338"/>
<polygon fill="midnightblue" stroke="midnightblue" points="108.493,-44.0778 98.0284,-45.7324 107.241,-50.9649 108.493,-44.0778"/>
</g>
<!-- Node3 -->
<g id="node3" class="node"><title>Node3</title>
<g id="a_node3"><a xlink:href="classmexiface_1_1MexIFace.html#a17f0280024d7cdd318b13223174b6151" target="_top" xlink:title="The mexFunction that will be exposed as the entry point for the .mex file. ">
<polygon fill="white" stroke="black" points="134,-0 134,-28 232,-28 232,-0 134,-0"/>
<text text-anchor="start" x="142" y="-16.8" font-family="Helvetica,sans-Serif" font-size="9.00">mexiface::MexIFace</text>
<text text-anchor="middle" x="183" y="-6.8" font-family="Helvetica,sans-Serif" font-size="9.00">::mexFunction</text>
</a>
</g>
</g>
<!-- Node1&#45;&gt;Node3 -->
<g id="edge2" class="edge"><title>Node1&#45;&gt;Node3</title>
<path fill="none" stroke="midnightblue" d="M108.012,-26.8919C116.618,-25.3923 125.409,-23.8606 133.786,-22.4009"/>
<polygon fill="midnightblue" stroke="midnightblue" points="107.279,-23.4667 98.0284,-28.6314 108.481,-30.3628 107.279,-23.4667"/>
</g>
</g>
</svg>
