<?xml version="1.0" encoding="UTF-8" standalone="no"?>
<!DOCTYPE svg PUBLIC "-//W3C//DTD SVG 1.1//EN"
 "http://www.w3.org/Graphics/SVG/1.1/DTD/svg11.dtd">
<!-- Generated by graphviz version 2.38.0 (20140413.2041)
 -->
<!-- Title: mexiface::MexIFace::mexFunction Pages: 1 -->
<svg width="809pt" height="786pt"
 viewBox="0.00 0.00 809.00 785.83" xmlns="http://www.w3.org/2000/svg" xmlns:xlink="http://www.w3.org/1999/xlink">
<g id="graph0" class="graph" transform="scale(1 1) rotate(0) translate(4 781.83)">
<title>mexiface::MexIFace::mexFunction</title>
<polygon fill="white" stroke="none" points="-4,4 -4,-781.83 805,-781.83 805,4 -4,4"/>
<!-- Node1 -->
<g id="node1" class="node"><title>Node1</title>
<polygon fill="#bfbfbf" stroke="black" points="0,-162.5 0,-190.5 98,-190.5 98,-162.5 0,-162.5"/>
<text text-anchor="start" x="8" y="-179.3" font-family="Helvetica,sans-Serif" font-size="9.00">mexiface::MexIFace</text>
<text text-anchor="middle" x="49" y="-169.3" font-family="Helvetica,sans-Serif" font-size="9.00">::mexFunction</text>
</g>
<!-- Node2 -->
<g id="node2" class="node"><title>Node2</title>
<g id="a_node2"><a xlink:href="classmexiface_1_1MexIFace.html#ad95e8356de808820df69cfb526803232" target="_top" xlink:title="Checks the mex function was called with a minimum number of input and output arguments. ">
<polygon fill="white" stroke="black" points="147.5,-311.5 147.5,-339.5 245.5,-339.5 245.5,-311.5 147.5,-311.5"/>
<text text-anchor="start" x="155.5" y="-328.3" font-family="Helvetica,sans-Serif" font-size="9.00">mexiface::MexIFace</text>
<text text-anchor="middle" x="196.5" y="-318.3" font-family="Helvetica,sans-Serif" font-size="9.00">::checkMinNumArgs</text>
</a>
</g>
</g>
<!-- Node1&#45;&gt;Node2 -->
<g id="edge1" class="edge"><title>Node1&#45;&gt;Node2</title>
<path fill="none" stroke="midnightblue" d="M56.894,-190.88C69.2781,-215.414 97.4444,-265.688 134,-296.5 138.452,-300.253 143.472,-303.636 148.676,-306.653"/>
<polygon fill="midnightblue" stroke="midnightblue" points="147.068,-309.762 157.538,-311.385 150.365,-303.587 147.068,-309.762"/>
</g>
<!-- Node3 -->
<g id="node3" class="node"><title>Node3</title>
<g id="a_node3"><a xlink:href="classmexiface_1_1MexIFace.html#ab37cc0883774aa152e3b117efc1eb2ad" target="_top" xlink:title="Reports an error condition to Matlab using the mexErrMsgIdAndTxt function. ">
<polygon fill="white" stroke="black" points="147.5,-225.5 147.5,-253.5 245.5,-253.5 245.5,-225.5 147.5,-225.5"/>
<text text-anchor="start" x="155.5" y="-242.3" font-family="Helvetica,sans-Serif" font-size="9.00">mexiface::MexIFace</text>
<text text-anchor="middle" x="196.5" y="-232.3" font-family="Helvetica,sans-Serif" font-size="9.00">::error</text>
</a>
</g>
</g>
<!-- Node1&#45;&gt;Node3 -->
<g id="edge2" class="edge"><title>Node1&#45;&gt;Node3</title>
<path fill="none" stroke="midnightblue" d="M78.1063,-190.633C94.2943,-198.583 115.115,-208.49 134,-216.5 138.126,-218.25 142.434,-220.005 146.773,-221.722"/>
<polygon fill="midnightblue" stroke="midnightblue" points="145.669,-225.048 156.258,-225.403 148.202,-218.522 145.669,-225.048"/>
</g>
<!-- Node4 -->
<g id="node4" class="node"><title>Node4</title>
<g id="a_node4"><a xlink:href="classmexiface_1_1MexIFaceBase.html#a20e05eeccf9c7a5738f7d9c90acc9430" target="_top" xlink:title="Get the name of the class of the stored object. ">
<polygon fill="white" stroke="black" points="295,-271.5 295,-299.5 414,-299.5 414,-271.5 295,-271.5"/>
<text text-anchor="start" x="303" y="-288.3" font-family="Helvetica,sans-Serif" font-size="9.00">mexiface::MexIFaceBase</text>
<text text-anchor="middle" x="354.5" y="-278.3" font-family="Helvetica,sans-Serif" font-size="9.00">::obj_name</text>
</a>
</g>
</g>
<!-- Node1&#45;&gt;Node4 -->
<g id="edge45" class="edge"><title>Node1&#45;&gt;Node4</title>
<path fill="none" stroke="midnightblue" d="M58.8228,-190.591C72.2805,-210.7 99.9938,-247.014 134,-263.5 180.679,-286.13 239.41,-290.972 284.373,-290.514"/>
<polygon fill="midnightblue" stroke="midnightblue" points="284.686,-294.008 294.617,-290.316 284.551,-287.01 284.686,-294.008"/>
</g>
<!-- Node5 -->
<g id="node5" class="node"><title>Node5</title>
<g id="a_node5"><a xlink:href="namespacemexiface.html#ae54146cf35d29dcc6c83a8ca96b62549" target="_top" xlink:title="Given the arguments to a matlab mex function call, print out the details of each arguments. ">
<polygon fill="white" stroke="black" points="134,-188.5 134,-206.5 259,-206.5 259,-188.5 134,-188.5"/>
<text text-anchor="middle" x="196.5" y="-195.3" font-family="Helvetica,sans-Serif" font-size="9.00">mexiface::exploreMexArgs</text>
</a>
</g>
</g>
<!-- Node1&#45;&gt;Node5 -->
<g id="edge4" class="edge"><title>Node1&#45;&gt;Node5</title>
<path fill="none" stroke="midnightblue" d="M98.0454,-183.434C106.256,-184.619 114.942,-185.873 123.613,-187.124"/>
<polygon fill="midnightblue" stroke="midnightblue" points="123.356,-190.624 133.754,-188.588 124.356,-183.695 123.356,-190.624"/>
</g>
<!-- Node25 -->
<g id="node25" class="node"><title>Node25</title>
<g id="a_node25"><a xlink:href="classmexiface_1_1MexIFaceBase.html#ad5084392048409608fc95569cb986963" target="_top" xlink:title="Helper method which saves a pointer to the wrapped class&#39;s object in an internal member variable call...">
<polygon fill="white" stroke="black" points="137,-141.5 137,-169.5 256,-169.5 256,-141.5 137,-141.5"/>
<text text-anchor="start" x="145" y="-158.3" font-family="Helvetica,sans-Serif" font-size="9.00">mexiface::MexIFaceBase</text>
<text text-anchor="middle" x="196.5" y="-148.3" font-family="Helvetica,sans-Serif" font-size="9.00">::getObjectFromHandle</text>
</a>
</g>
</g>
<!-- Node1&#45;&gt;Node25 -->
<g id="edge41" class="edge"><title>Node1&#45;&gt;Node25</title>
<path fill="none" stroke="midnightblue" d="M98.0454,-169.566C107.261,-168.236 117.076,-166.819 126.795,-165.416"/>
<polygon fill="midnightblue" stroke="midnightblue" points="127.461,-168.856 136.858,-163.964 126.461,-161.928 127.461,-168.856"/>
</g>
<!-- Node26 -->
<g id="node26" class="node"><title>Node26</title>
<g id="a_node26"><a xlink:href="classmexiface_1_1MexIFace.html#a82c2478cb12301e02edcef234fc80fb1" target="_top" xlink:title="Reads a mxArray as a string. ">
<polygon fill="white" stroke="black" points="147.5,-94.5 147.5,-122.5 245.5,-122.5 245.5,-94.5 147.5,-94.5"/>
<text text-anchor="start" x="155.5" y="-111.3" font-family="Helvetica,sans-Serif" font-size="9.00">mexiface::MexIFace</text>
<text text-anchor="middle" x="196.5" y="-101.3" font-family="Helvetica,sans-Serif" font-size="9.00">::getString</text>
</a>
</g>
</g>
<!-- Node1&#45;&gt;Node26 -->
<g id="edge42" class="edge"><title>Node1&#45;&gt;Node26</title>
<path fill="none" stroke="midnightblue" d="M75.002,-162.476C91.5198,-153.442 113.773,-141.71 134,-132.5 138.577,-130.416 143.391,-128.342 148.227,-126.334"/>
<polygon fill="midnightblue" stroke="midnightblue" points="149.547,-129.576 157.497,-122.573 146.915,-123.09 149.547,-129.576"/>
</g>
<!-- Node29 -->
<g id="node29" class="node"><title>Node29</title>
<g id="a_node29"><a xlink:href="classmexiface_1_1MexIFaceBase.html#a87f8e1dd67a75ac4fa678d8aa8857d6c" target="_top" xlink:title="Called when the mexFunction gets the @new command, passing on the remaining input arguments...">
<polygon fill="white" stroke="black" points="137,-47.5 137,-75.5 256,-75.5 256,-47.5 137,-47.5"/>
<text text-anchor="start" x="145" y="-64.3" font-family="Helvetica,sans-Serif" font-size="9.00">mexiface::MexIFaceBase</text>
<text text-anchor="middle" x="196.5" y="-54.3" font-family="Helvetica,sans-Serif" font-size="9.00">::objConstruct</text>
</a>
</g>
</g>
<!-- Node1&#45;&gt;Node29 -->
<g id="edge46" class="edge"><title>Node1&#45;&gt;Node29</title>
<path fill="none" stroke="midnightblue" d="M59.8378,-162.311C74.1247,-142.638 102.386,-107.069 134,-85.5 136.746,-83.6268 139.658,-81.8699 142.665,-80.2272"/>
<polygon fill="midnightblue" stroke="midnightblue" points="144.498,-83.2246 151.895,-75.6389 141.382,-76.9565 144.498,-83.2246"/>
</g>
<!-- Node30 -->
<g id="node30" class="node"><title>Node30</title>
<g id="a_node30"><a xlink:href="classmexiface_1_1MexIFaceBase.html#ae6989244cafb4668681f9c9411ed6256" target="_top" xlink:title="Called when the mexFunction gets the @delete command. ">
<polygon fill="white" stroke="black" points="137,-0.5 137,-28.5 256,-28.5 256,-0.5 137,-0.5"/>
<text text-anchor="start" x="145" y="-17.3" font-family="Helvetica,sans-Serif" font-size="9.00">mexiface::MexIFaceBase</text>
<text text-anchor="middle" x="196.5" y="-7.3" font-family="Helvetica,sans-Serif" font-size="9.00">::objDestroy</text>
</a>
</g>
</g>
<!-- Node1&#45;&gt;Node30 -->
<g id="edge47" class="edge"><title>Node1&#45;&gt;Node30</title>
<path fill="none" stroke="midnightblue" d="M55.0593,-162.291C65.569,-134.69 92.3142,-73.4718 134,-38.5 135.998,-36.8242 138.126,-35.2566 140.346,-33.7914"/>
<polygon fill="midnightblue" stroke="midnightblue" points="142.369,-36.6649 149.28,-28.6344 138.869,-30.6024 142.369,-36.6649"/>
</g>
<!-- Node3&#45;&gt;Node4 -->
<g id="edge3" class="edge"><title>Node3&#45;&gt;Node4</title>
<path fill="none" stroke="midnightblue" d="M245.153,-253.551C261.257,-258.3 279.406,-263.652 296.179,-268.598"/>
<polygon fill="midnightblue" stroke="midnightblue" points="295.289,-271.984 305.87,-271.455 297.269,-265.27 295.289,-271.984"/>
</g>
<!-- Node6 -->
<g id="node6" class="node"><title>Node6</title>
<g id="a_node6"><a xlink:href="namespacemexiface_1_1explore.html#a5a5c7c4c0ce2b61c1fe8f55cd7a685c8" target="_top" xlink:title="mexiface::explore::\lanalyze_class">
<polygon fill="white" stroke="black" points="308,-224.5 308,-252.5 401,-252.5 401,-224.5 308,-224.5"/>
<text text-anchor="start" x="316" y="-241.3" font-family="Helvetica,sans-Serif" font-size="9.00">mexiface::explore::</text>
<text text-anchor="middle" x="354.5" y="-231.3" font-family="Helvetica,sans-Serif" font-size="9.00">analyze_class</text>
</a>
</g>
</g>
<!-- Node5&#45;&gt;Node6 -->
<g id="edge5" class="edge"><title>Node5&#45;&gt;Node6</title>
<path fill="none" stroke="midnightblue" d="M232.121,-206.599C251.426,-211.673 275.929,-218.113 297.857,-223.876"/>
<polygon fill="midnightblue" stroke="midnightblue" points="297.161,-227.312 307.723,-226.469 298.941,-220.542 297.161,-227.312"/>
</g>
<!-- Node12 -->
<g id="node12" class="node"><title>Node12</title>
<g id="a_node12"><a xlink:href="namespacemexiface_1_1explore.html#af20e073842721a53872d786a38f401fe" target="_top" xlink:title="mexiface::explore::\lget_characteristics">
<polygon fill="white" stroke="black" points="579,-138.5 579,-166.5 672,-166.5 672,-138.5 579,-138.5"/>
<text text-anchor="start" x="587" y="-155.3" font-family="Helvetica,sans-Serif" font-size="9.00">mexiface::explore::</text>
<text text-anchor="middle" x="625.5" y="-145.3" font-family="Helvetica,sans-Serif" font-size="9.00">get_characteristics</text>
</a>
</g>
</g>
<!-- Node5&#45;&gt;Node12 -->
<g id="edge40" class="edge"><title>Node5&#45;&gt;Node12</title>
<path fill="none" stroke="midnightblue" d="M259.2,-190.014C310.296,-183.911 384.821,-175.23 450,-168.5 489.628,-164.408 534.375,-160.316 568.634,-157.294"/>
<polygon fill="midnightblue" stroke="midnightblue" points="569.257,-160.753 578.913,-156.392 568.645,-153.78 569.257,-160.753"/>
</g>
<!-- Node7 -->
<g id="node7" class="node"><title>Node7</title>
<g id="a_node7"><a xlink:href="namespacemexiface_1_1explore.html#a44ef87dec50add577651cf82ea3c8874" target="_top" xlink:title="mexiface::explore::\lanalyze_sparse">
<polygon fill="white" stroke="black" points="450,-271.5 450,-299.5 543,-299.5 543,-271.5 450,-271.5"/>
<text text-anchor="start" x="458" y="-288.3" font-family="Helvetica,sans-Serif" font-size="9.00">mexiface::explore::</text>
<text text-anchor="middle" x="496.5" y="-278.3" font-family="Helvetica,sans-Serif" font-size="9.00">analyze_sparse</text>
</a>
</g>
</g>
<!-- Node6&#45;&gt;Node7 -->
<g id="edge6" class="edge"><title>Node6&#45;&gt;Node7</title>
<path fill="none" stroke="midnightblue" d="M397.505,-252.602C412.04,-257.481 428.504,-263.008 443.73,-268.12"/>
<polygon fill="midnightblue" stroke="midnightblue" points="442.931,-271.544 453.525,-271.408 445.159,-264.908 442.931,-271.544"/>
</g>
<!-- Node8 -->
<g id="node8" class="node"><title>Node8</title>
<g id="a_node8"><a xlink:href="namespacemexiface_1_1explore.html#ae6d95ef17338c9baa90e1ce1c3e33d0f" target="_top" xlink:title="mexiface::explore::\lanalyze_logical">
<polygon fill="white" stroke="black" points="450,-318.5 450,-346.5 543,-346.5 543,-318.5 450,-318.5"/>
<text text-anchor="start" x="458" y="-335.3" font-family="Helvetica,sans-Serif" font-size="9.00">mexiface::explore::</text>
<text text-anchor="middle" x="496.5" y="-325.3" font-family="Helvetica,sans-Serif" font-size="9.00">analyze_logical</text>
</a>
</g>
</g>
<!-- Node6&#45;&gt;Node8 -->
<g id="edge7" class="edge"><title>Node6&#45;&gt;Node8</title>
<path fill="none" stroke="midnightblue" d="M397.583,-252.566C403.374,-255.398 409.031,-258.697 414,-262.5 434.895,-278.492 429.75,-292.698 450,-309.5 451.358,-310.627 452.781,-311.718 454.249,-312.771"/>
<polygon fill="midnightblue" stroke="midnightblue" points="452.728,-315.953 463.039,-318.39 456.498,-310.055 452.728,-315.953"/>
</g>
<!-- Node10 -->
<g id="node10" class="node"><title>Node10</title>
<g id="a_node10"><a xlink:href="namespacemexiface_1_1explore.html#aaa319b6e0131959ff3d2fbd9a4c368b3" target="_top" xlink:title="mexiface::explore::\lanalyze_string">
<polygon fill="white" stroke="black" points="450,-650.5 450,-678.5 543,-678.5 543,-650.5 450,-650.5"/>
<text text-anchor="start" x="458" y="-667.3" font-family="Helvetica,sans-Serif" font-size="9.00">mexiface::explore::</text>
<text text-anchor="middle" x="496.5" y="-657.3" font-family="Helvetica,sans-Serif" font-size="9.00">analyze_string</text>
</a>
</g>
</g>
<!-- Node6&#45;&gt;Node10 -->
<g id="edge9" class="edge"><title>Node6&#45;&gt;Node10</title>
<path fill="none" stroke="midnightblue" d="M401.085,-251.331C406.019,-254.314 410.507,-257.985 414,-262.5 450.232,-309.329 436.674,-468.809 450,-526.5 459.465,-567.475 475.897,-613.603 486.209,-640.798"/>
<polygon fill="midnightblue" stroke="midnightblue" points="482.983,-642.162 489.834,-650.243 489.518,-639.653 482.983,-642.162"/>
</g>
<!-- Node11 -->
<g id="node11" class="node"><title>Node11</title>
<g id="a_node11"><a xlink:href="namespacemexiface_1_1explore.html#a6205a96e991f64a98345df5645dd0ba5" target="_top" xlink:title="mexiface::explore::\lanalyze_structure">
<polygon fill="white" stroke="black" points="450,-177.5 450,-205.5 543,-205.5 543,-177.5 450,-177.5"/>
<text text-anchor="start" x="458" y="-194.3" font-family="Helvetica,sans-Serif" font-size="9.00">mexiface::explore::</text>
<text text-anchor="middle" x="496.5" y="-184.3" font-family="Helvetica,sans-Serif" font-size="9.00">analyze_structure</text>
</a>
</g>
</g>
<!-- Node6&#45;&gt;Node11 -->
<g id="edge11" class="edge"><title>Node6&#45;&gt;Node11</title>
<path fill="none" stroke="midnightblue" d="M381.505,-224.382C397.95,-217.671 419.844,-209.911 440.046,-203.498"/>
<polygon fill="midnightblue" stroke="midnightblue" points="441.285,-206.778 449.797,-200.469 439.208,-200.093 441.285,-206.778"/>
</g>
<!-- Node13 -->
<g id="node13" class="node"><title>Node13</title>
<g id="a_node13"><a xlink:href="namespacemexiface_1_1explore.html#a2fd795aab0989018a48cfce5b8f63719" target="_top" xlink:title="mexiface::explore::\lanalyze_cell">
<polygon fill="white" stroke="black" points="450,-224.5 450,-252.5 543,-252.5 543,-224.5 450,-224.5"/>
<text text-anchor="start" x="458" y="-241.3" font-family="Helvetica,sans-Serif" font-size="9.00">mexiface::explore::</text>
<text text-anchor="middle" x="496.5" y="-231.3" font-family="Helvetica,sans-Serif" font-size="9.00">analyze_cell</text>
</a>
</g>
</g>
<!-- Node6&#45;&gt;Node13 -->
<g id="edge15" class="edge"><title>Node6&#45;&gt;Node13</title>
<path fill="none" stroke="midnightblue" d="M401.341,-232.121C413.549,-231.732 426.873,-231.649 439.556,-231.872"/>
<polygon fill="midnightblue" stroke="midnightblue" points="439.473,-235.371 449.556,-232.118 439.645,-228.373 439.473,-235.371"/>
</g>
<!-- Node14 -->
<g id="node14" class="node"><title>Node14</title>
<g id="a_node14"><a xlink:href="namespacemexiface_1_1explore.html#aad11efd374cd1c241da644051e4d3479" target="_top" xlink:title="mexiface::explore::\lanalyze_full">
<polygon fill="white" stroke="black" points="450,-488.5 450,-516.5 543,-516.5 543,-488.5 450,-488.5"/>
<text text-anchor="start" x="458" y="-505.3" font-family="Helvetica,sans-Serif" font-size="9.00">mexiface::explore::</text>
<text text-anchor="middle" x="496.5" y="-495.3" font-family="Helvetica,sans-Serif" font-size="9.00">analyze_full</text>
</a>
</g>
</g>
<!-- Node6&#45;&gt;Node14 -->
<g id="edge19" class="edge"><title>Node6&#45;&gt;Node14</title>
<path fill="none" stroke="midnightblue" d="M401.165,-252.511C405.899,-255.282 410.316,-258.58 414,-262.5 421.729,-270.724 469.423,-419.937 488.054,-478.854"/>
<polygon fill="midnightblue" stroke="midnightblue" points="484.732,-479.958 491.08,-488.44 491.407,-477.85 484.732,-479.958"/>
</g>
<!-- Node9 -->
<g id="node9" class="node"><title>Node9</title>
<g id="a_node9"><a xlink:href="namespacemexiface_1_1explore.html#ad41bff4081494e68399068077d57f1ea" target="_top" xlink:title="mexiface::explore::\ldisplay_subscript">
<polygon fill="white" stroke="black" points="708,-464.5 708,-492.5 801,-492.5 801,-464.5 708,-464.5"/>
<text text-anchor="start" x="716" y="-481.3" font-family="Helvetica,sans-Serif" font-size="9.00">mexiface::explore::</text>
<text text-anchor="middle" x="754.5" y="-471.3" font-family="Helvetica,sans-Serif" font-size="9.00">display_subscript</text>
</a>
</g>
</g>
<!-- Node8&#45;&gt;Node9 -->
<g id="edge8" class="edge"><title>Node8&#45;&gt;Node9</title>
<path fill="none" stroke="midnightblue" d="M525.373,-318.431C548.828,-306.6 578.627,-291.589 579,-291.5 619.216,-281.954 637.424,-268.852 672,-291.5 728.021,-328.195 745.749,-412.714 751.189,-454.382"/>
<polygon fill="midnightblue" stroke="midnightblue" points="747.73,-454.937 752.372,-464.461 754.682,-454.121 747.73,-454.937"/>
</g>
<!-- Node10&#45;&gt;Node9 -->
<g id="edge10" class="edge"><title>Node10&#45;&gt;Node9</title>
<path fill="none" stroke="midnightblue" d="M504.318,-678.779C515.979,-701.311 542.115,-744.315 579,-761.5 616.466,-778.956 638.975,-786.356 672,-761.5 714.102,-729.812 741.242,-565.683 750.219,-502.932"/>
<polygon fill="midnightblue" stroke="midnightblue" points="753.72,-503.164 751.639,-492.776 746.788,-502.195 753.72,-503.164"/>
</g>
<!-- Node11&#45;&gt;Node6 -->
<g id="edge14" class="edge"><title>Node11&#45;&gt;Node6</title>
<path fill="none" stroke="midnightblue" d="M469.587,-205.58C453.169,-212.285 431.294,-220.042 411.093,-226.458"/>
<polygon fill="midnightblue" stroke="midnightblue" points="409.851,-223.179 401.341,-229.49 411.929,-229.863 409.851,-223.179"/>
</g>
<!-- Node11&#45;&gt;Node9 -->
<g id="edge12" class="edge"><title>Node11&#45;&gt;Node9</title>
<path fill="none" stroke="midnightblue" d="M543.238,-191.104C582.157,-193.216 637.138,-202.346 672,-234.5 736.265,-293.774 749.902,-405.066 752.761,-454.167"/>
<polygon fill="midnightblue" stroke="midnightblue" points="749.279,-454.633 753.252,-464.455 756.271,-454.299 749.279,-454.633"/>
</g>
<!-- Node11&#45;&gt;Node12 -->
<g id="edge13" class="edge"><title>Node11&#45;&gt;Node12</title>
<path fill="none" stroke="midnightblue" d="M543.35,-177.42C551.713,-174.852 560.519,-172.148 569.123,-169.505"/>
<polygon fill="midnightblue" stroke="midnightblue" points="570.185,-172.841 578.717,-166.559 568.13,-166.149 570.185,-172.841"/>
</g>
<!-- Node13&#45;&gt;Node6 -->
<g id="edge18" class="edge"><title>Node13&#45;&gt;Node6</title>
<path fill="none" stroke="midnightblue" d="M449.556,-244.882C437.463,-245.266 424.28,-245.349 411.714,-245.132"/>
<polygon fill="midnightblue" stroke="midnightblue" points="411.424,-241.624 401.341,-244.879 411.253,-248.622 411.424,-241.624"/>
</g>
<!-- Node13&#45;&gt;Node9 -->
<g id="edge16" class="edge"><title>Node13&#45;&gt;Node9</title>
<path fill="none" stroke="midnightblue" d="M543.03,-236.559C581.551,-237.33 636.069,-244.414 672,-274.5 727.548,-321.011 745.534,-410.825 751.117,-454.065"/>
<polygon fill="midnightblue" stroke="midnightblue" points="747.669,-454.715 752.31,-464.239 754.622,-453.9 747.669,-454.715"/>
</g>
<!-- Node13&#45;&gt;Node12 -->
<g id="edge17" class="edge"><title>Node13&#45;&gt;Node12</title>
<path fill="none" stroke="midnightblue" d="M527.323,-224.451C532.643,-221.657 538.06,-218.618 543,-215.5 563.219,-202.738 584.548,-186.123 600.313,-173.16"/>
<polygon fill="midnightblue" stroke="midnightblue" points="602.564,-175.84 608.014,-166.754 598.088,-170.458 602.564,-175.84"/>
</g>
<!-- Node15 -->
<g id="node15" class="node"><title>Node15</title>
<g id="a_node15"><a xlink:href="namespacemexiface_1_1explore.html#abbbd19941bd43d361d33e21fb0dadbae" target="_top" xlink:title="mexiface::explore::\lanalyze_int8">
<polygon fill="white" stroke="black" points="579,-441.5 579,-469.5 672,-469.5 672,-441.5 579,-441.5"/>
<text text-anchor="start" x="587" y="-458.3" font-family="Helvetica,sans-Serif" font-size="9.00">mexiface::explore::</text>
<text text-anchor="middle" x="625.5" y="-448.3" font-family="Helvetica,sans-Serif" font-size="9.00">analyze_int8</text>
</a>
</g>
</g>
<!-- Node14&#45;&gt;Node15 -->
<g id="edge20" class="edge"><title>Node14&#45;&gt;Node15</title>
<path fill="none" stroke="midnightblue" d="M535.604,-488.398C548.539,-483.612 563.156,-478.202 576.747,-473.172"/>
<polygon fill="midnightblue" stroke="midnightblue" points="578.259,-476.345 586.423,-469.592 575.83,-469.78 578.259,-476.345"/>
</g>
<!-- Node16 -->
<g id="node16" class="node"><title>Node16</title>
<g id="a_node16"><a xlink:href="namespacemexiface_1_1explore.html#ae0e1687942c1e218a665eedeadc63456" target="_top" xlink:title="mexiface::explore::\lanalyze_uint8">
<polygon fill="white" stroke="black" points="579,-394.5 579,-422.5 672,-422.5 672,-394.5 579,-394.5"/>
<text text-anchor="start" x="587" y="-411.3" font-family="Helvetica,sans-Serif" font-size="9.00">mexiface::explore::</text>
<text text-anchor="middle" x="625.5" y="-401.3" font-family="Helvetica,sans-Serif" font-size="9.00">analyze_uint8</text>
</a>
</g>
</g>
<!-- Node14&#45;&gt;Node16 -->
<g id="edge22" class="edge"><title>Node14&#45;&gt;Node16</title>
<path fill="none" stroke="midnightblue" d="M512.001,-488.27C527.697,-473.306 553.865,-449.604 579,-432.5 581.503,-430.796 584.142,-429.123 586.836,-427.502"/>
<polygon fill="midnightblue" stroke="midnightblue" points="588.588,-430.532 595.531,-422.528 585.112,-424.456 588.588,-430.532"/>
</g>
<!-- Node17 -->
<g id="node17" class="node"><title>Node17</title>
<g id="a_node17"><a xlink:href="namespacemexiface_1_1explore.html#a2c3a4139675fbbf8ca7ab0f92d6f11fd" target="_top" xlink:title="mexiface::explore::\lanalyze_int16">
<polygon fill="white" stroke="black" points="579,-347.5 579,-375.5 672,-375.5 672,-347.5 579,-347.5"/>
<text text-anchor="start" x="587" y="-364.3" font-family="Helvetica,sans-Serif" font-size="9.00">mexiface::explore::</text>
<text text-anchor="middle" x="625.5" y="-354.3" font-family="Helvetica,sans-Serif" font-size="9.00">analyze_int16</text>
</a>
</g>
</g>
<!-- Node14&#45;&gt;Node17 -->
<g id="edge24" class="edge"><title>Node14&#45;&gt;Node17</title>
<path fill="none" stroke="midnightblue" d="M504.512,-488.265C516.816,-464.456 544.316,-416.159 579,-385.5 580.685,-384.01 582.48,-382.581 584.345,-381.216"/>
<polygon fill="midnightblue" stroke="midnightblue" points="586.411,-384.046 592.861,-375.641 582.577,-378.189 586.411,-384.046"/>
</g>
<!-- Node18 -->
<g id="node18" class="node"><title>Node18</title>
<g id="a_node18"><a xlink:href="namespacemexiface_1_1explore.html#aa1951af918bc0b264d05f2db4fbec9e1" target="_top" xlink:title="mexiface::explore::\lanalyze_uint16">
<polygon fill="white" stroke="black" points="579,-300.5 579,-328.5 672,-328.5 672,-300.5 579,-300.5"/>
<text text-anchor="start" x="587" y="-317.3" font-family="Helvetica,sans-Serif" font-size="9.00">mexiface::explore::</text>
<text text-anchor="middle" x="625.5" y="-307.3" font-family="Helvetica,sans-Serif" font-size="9.00">analyze_uint16</text>
</a>
</g>
</g>
<!-- Node14&#45;&gt;Node18 -->
<g id="edge26" class="edge"><title>Node14&#45;&gt;Node18</title>
<path fill="none" stroke="midnightblue" d="M501.249,-488.463C510.072,-457.761 534.805,-383.777 579,-338.5 580.244,-337.226 581.57,-336.005 582.958,-334.836"/>
<polygon fill="midnightblue" stroke="midnightblue" points="585.383,-337.402 591.442,-328.71 581.285,-331.726 585.383,-337.402"/>
</g>
<!-- Node19 -->
<g id="node19" class="node"><title>Node19</title>
<g id="a_node19"><a xlink:href="namespacemexiface_1_1explore.html#ad8657b3604a735ef428823cdf0a72722" target="_top" xlink:title="mexiface::explore::\lanalyze_int32">
<polygon fill="white" stroke="black" points="579,-723.5 579,-751.5 672,-751.5 672,-723.5 579,-723.5"/>
<text text-anchor="start" x="587" y="-740.3" font-family="Helvetica,sans-Serif" font-size="9.00">mexiface::explore::</text>
<text text-anchor="middle" x="625.5" y="-730.3" font-family="Helvetica,sans-Serif" font-size="9.00">analyze_int32</text>
</a>
</g>
</g>
<!-- Node14&#45;&gt;Node19 -->
<g id="edge28" class="edge"><title>Node14&#45;&gt;Node19</title>
<path fill="none" stroke="midnightblue" d="M502.326,-516.798C517.629,-561.863 564.888,-698.885 579,-714.5 579.868,-715.46 580.785,-716.386 581.743,-717.278"/>
<polygon fill="midnightblue" stroke="midnightblue" points="579.696,-720.119 589.748,-723.467 583.978,-714.581 579.696,-720.119"/>
</g>
<!-- Node20 -->
<g id="node20" class="node"><title>Node20</title>
<g id="a_node20"><a xlink:href="namespacemexiface_1_1explore.html#aa0ebed3704023f9816e91293c9c08253" target="_top" xlink:title="mexiface::explore::\lanalyze_uint32">
<polygon fill="white" stroke="black" points="579,-676.5 579,-704.5 672,-704.5 672,-676.5 579,-676.5"/>
<text text-anchor="start" x="587" y="-693.3" font-family="Helvetica,sans-Serif" font-size="9.00">mexiface::explore::</text>
<text text-anchor="middle" x="625.5" y="-683.3" font-family="Helvetica,sans-Serif" font-size="9.00">analyze_uint32</text>
</a>
</g>
</g>
<!-- Node14&#45;&gt;Node20 -->
<g id="edge30" class="edge"><title>Node14&#45;&gt;Node20</title>
<path fill="none" stroke="midnightblue" d="M501.167,-516.68C509.825,-547.684 534.25,-622.335 579,-667.5 580.051,-668.561 581.162,-669.582 582.319,-670.564"/>
<polygon fill="midnightblue" stroke="midnightblue" points="580.348,-673.458 590.503,-676.48 584.449,-667.785 580.348,-673.458"/>
</g>
<!-- Node21 -->
<g id="node21" class="node"><title>Node21</title>
<g id="a_node21"><a xlink:href="namespacemexiface_1_1explore.html#a7025633935ccc85550b308e70b0fc771" target="_top" xlink:title="mexiface::explore::\lanalyze_int64">
<polygon fill="white" stroke="black" points="579,-629.5 579,-657.5 672,-657.5 672,-629.5 579,-629.5"/>
<text text-anchor="start" x="587" y="-646.3" font-family="Helvetica,sans-Serif" font-size="9.00">mexiface::explore::</text>
<text text-anchor="middle" x="625.5" y="-636.3" font-family="Helvetica,sans-Serif" font-size="9.00">analyze_int64</text>
</a>
</g>
</g>
<!-- Node14&#45;&gt;Node21 -->
<g id="edge32" class="edge"><title>Node14&#45;&gt;Node21</title>
<path fill="none" stroke="midnightblue" d="M504.229,-516.542C516.306,-540.518 543.724,-589.735 579,-620.5 580.284,-621.62 581.632,-622.701 583.028,-623.744"/>
<polygon fill="midnightblue" stroke="midnightblue" points="581.146,-626.695 591.419,-629.286 585.003,-620.854 581.146,-626.695"/>
</g>
<!-- Node22 -->
<g id="node22" class="node"><title>Node22</title>
<g id="a_node22"><a xlink:href="namespacemexiface_1_1explore.html#abe63c53129e4d37e66af71c8f66d9ae6" target="_top" xlink:title="mexiface::explore::\lanalyze_uint64">
<polygon fill="white" stroke="black" points="579,-582.5 579,-610.5 672,-610.5 672,-582.5 579,-582.5"/>
<text text-anchor="start" x="587" y="-599.3" font-family="Helvetica,sans-Serif" font-size="9.00">mexiface::explore::</text>
<text text-anchor="middle" x="625.5" y="-589.3" font-family="Helvetica,sans-Serif" font-size="9.00">analyze_uint64</text>
</a>
</g>
</g>
<!-- Node14&#45;&gt;Node22 -->
<g id="edge34" class="edge"><title>Node14&#45;&gt;Node22</title>
<path fill="none" stroke="midnightblue" d="M511.619,-516.761C527.201,-532.012 553.468,-556.318 579,-573.5 580.909,-574.785 582.9,-576.046 584.936,-577.275"/>
<polygon fill="midnightblue" stroke="midnightblue" points="583.614,-580.548 594.04,-582.431 587.063,-574.457 583.614,-580.548"/>
</g>
<!-- Node23 -->
<g id="node23" class="node"><title>Node23</title>
<g id="a_node23"><a xlink:href="namespacemexiface_1_1explore.html#acaf0a238e5467e317ae037a966647626" target="_top" xlink:title="mexiface::explore::\lanalyze_single">
<polygon fill="white" stroke="black" points="579,-535.5 579,-563.5 672,-563.5 672,-535.5 579,-535.5"/>
<text text-anchor="start" x="587" y="-552.3" font-family="Helvetica,sans-Serif" font-size="9.00">mexiface::explore::</text>
<text text-anchor="middle" x="625.5" y="-542.3" font-family="Helvetica,sans-Serif" font-size="9.00">analyze_single</text>
</a>
</g>
</g>
<!-- Node14&#45;&gt;Node23 -->
<g id="edge36" class="edge"><title>Node14&#45;&gt;Node23</title>
<path fill="none" stroke="midnightblue" d="M535.604,-516.602C548.539,-521.388 563.156,-526.798 576.747,-531.828"/>
<polygon fill="midnightblue" stroke="midnightblue" points="575.83,-535.22 586.423,-535.408 578.259,-528.655 575.83,-535.22"/>
</g>
<!-- Node24 -->
<g id="node24" class="node"><title>Node24</title>
<g id="a_node24"><a xlink:href="namespacemexiface_1_1explore.html#a3b7a85eeb040efe041ae992581c3861b" target="_top" xlink:title="mexiface::explore::\lanalyze_double">
<polygon fill="white" stroke="black" points="579,-488.5 579,-516.5 672,-516.5 672,-488.5 579,-488.5"/>
<text text-anchor="start" x="587" y="-505.3" font-family="Helvetica,sans-Serif" font-size="9.00">mexiface::explore::</text>
<text text-anchor="middle" x="625.5" y="-495.3" font-family="Helvetica,sans-Serif" font-size="9.00">analyze_double</text>
</a>
</g>
</g>
<!-- Node14&#45;&gt;Node24 -->
<g id="edge38" class="edge"><title>Node14&#45;&gt;Node24</title>
<path fill="none" stroke="midnightblue" d="M543.35,-502.5C551.533,-502.5 560.141,-502.5 568.568,-502.5"/>
<polygon fill="midnightblue" stroke="midnightblue" points="568.717,-506 578.717,-502.5 568.717,-499 568.717,-506"/>
</g>
<!-- Node15&#45;&gt;Node9 -->
<g id="edge21" class="edge"><title>Node15&#45;&gt;Node9</title>
<path fill="none" stroke="midnightblue" d="M672.35,-463.804C680.623,-465.302 689.33,-466.879 697.846,-468.421"/>
<polygon fill="midnightblue" stroke="midnightblue" points="697.254,-471.871 707.717,-470.209 698.501,-464.983 697.254,-471.871"/>
</g>
<!-- Node16&#45;&gt;Node9 -->
<g id="edge23" class="edge"><title>Node16&#45;&gt;Node9</title>
<path fill="none" stroke="midnightblue" d="M653.514,-422.587C659.612,-425.812 666.042,-429.248 672,-432.5 687.944,-441.202 705.505,-451.077 720.231,-459.44"/>
<polygon fill="midnightblue" stroke="midnightblue" points="718.571,-462.522 728.993,-464.428 722.034,-456.439 718.571,-462.522"/>
</g>
<!-- Node17&#45;&gt;Node9 -->
<g id="edge25" class="edge"><title>Node17&#45;&gt;Node9</title>
<path fill="none" stroke="midnightblue" d="M656.841,-375.501C662.108,-378.483 667.374,-381.848 672,-385.5 698.127,-406.127 722.503,-435.884 737.664,-456.145"/>
<polygon fill="midnightblue" stroke="midnightblue" points="735.026,-458.466 743.766,-464.455 740.669,-454.323 735.026,-458.466"/>
</g>
<!-- Node18&#45;&gt;Node9 -->
<g id="edge27" class="edge"><title>Node18&#45;&gt;Node9</title>
<path fill="none" stroke="midnightblue" d="M658.872,-328.64C663.579,-331.502 668.133,-334.791 672,-338.5 707.379,-372.43 732.362,-425.055 744.705,-455.19"/>
<polygon fill="midnightblue" stroke="midnightblue" points="741.455,-456.489 748.404,-464.488 747.96,-453.902 741.455,-456.489"/>
</g>
<!-- Node19&#45;&gt;Node9 -->
<g id="edge29" class="edge"><title>Node19&#45;&gt;Node9</title>
<path fill="none" stroke="midnightblue" d="M661.817,-723.266C665.581,-720.743 669.09,-717.834 672,-714.5 727.154,-651.315 745.493,-548.826 751.16,-502.541"/>
<polygon fill="midnightblue" stroke="midnightblue" points="754.645,-502.872 752.292,-492.542 747.69,-502.085 754.645,-502.872"/>
</g>
<!-- Node20&#45;&gt;Node9 -->
<g id="edge31" class="edge"><title>Node20&#45;&gt;Node9</title>
<path fill="none" stroke="midnightblue" d="M661.122,-676.347C665.096,-673.791 668.846,-670.852 672,-667.5 717.435,-619.21 739.823,-541.629 748.704,-502.588"/>
<polygon fill="midnightblue" stroke="midnightblue" points="752.159,-503.17 750.858,-492.655 745.318,-501.686 752.159,-503.17"/>
</g>
<!-- Node21&#45;&gt;Node9 -->
<g id="edge33" class="edge"><title>Node21&#45;&gt;Node9</title>
<path fill="none" stroke="midnightblue" d="M660.303,-629.282C664.502,-626.714 668.532,-623.789 672,-620.5 707.948,-586.408 732.726,-532.915 744.879,-502.242"/>
<polygon fill="midnightblue" stroke="midnightblue" points="748.197,-503.366 748.515,-492.776 741.662,-500.856 748.197,-503.366"/>
</g>
<!-- Node22&#45;&gt;Node9 -->
<g id="edge35" class="edge"><title>Node22&#45;&gt;Node9</title>
<path fill="none" stroke="midnightblue" d="M658.324,-582.46C663.101,-579.781 667.821,-576.777 672,-573.5 698.786,-552.501 723.303,-521.637 738.3,-500.839"/>
<polygon fill="midnightblue" stroke="midnightblue" points="741.21,-502.786 744.124,-492.6 735.494,-498.746 741.21,-502.786"/>
</g>
<!-- Node23&#45;&gt;Node9 -->
<g id="edge37" class="edge"><title>Node23&#45;&gt;Node9</title>
<path fill="none" stroke="midnightblue" d="M655.044,-535.424C660.698,-532.537 666.563,-529.471 672,-526.5 688.587,-517.435 706.735,-506.818 721.687,-497.877"/>
<polygon fill="midnightblue" stroke="midnightblue" points="723.773,-500.706 730.541,-492.555 720.167,-494.707 723.773,-500.706"/>
</g>
<!-- Node24&#45;&gt;Node9 -->
<g id="edge39" class="edge"><title>Node24&#45;&gt;Node9</title>
<path fill="none" stroke="midnightblue" d="M672.35,-493.835C680.623,-492.272 689.33,-490.627 697.846,-489.017"/>
<polygon fill="midnightblue" stroke="midnightblue" points="698.541,-492.448 707.717,-487.152 697.241,-485.57 698.541,-492.448"/>
</g>
<!-- Node27 -->
<g id="node27" class="node"><title>Node27</title>
<g id="a_node27"><a xlink:href="classmexiface_1_1MexIFace.html#a4e3b68c1b831521c073e1ca13c874044" target="_top" xlink:title="mexiface::MexIFace\l::checkType">
<polygon fill="white" stroke="black" points="305.5,-44.5 305.5,-72.5 403.5,-72.5 403.5,-44.5 305.5,-44.5"/>
<text text-anchor="start" x="313.5" y="-61.3" font-family="Helvetica,sans-Serif" font-size="9.00">mexiface::MexIFace</text>
<text text-anchor="middle" x="354.5" y="-51.3" font-family="Helvetica,sans-Serif" font-size="9.00">::checkType</text>
</a>
</g>
</g>
<!-- Node26&#45;&gt;Node27 -->
<g id="edge43" class="edge"><title>Node26&#45;&gt;Node27</title>
<path fill="none" stroke="midnightblue" d="M241.37,-94.4392C259.558,-88.6097 280.83,-81.7918 299.928,-75.6705"/>
<polygon fill="midnightblue" stroke="midnightblue" points="301.235,-78.9271 309.689,-72.5419 299.098,-72.2611 301.235,-78.9271"/>
</g>
<!-- Node28 -->
<g id="node28" class="node"><title>Node28</title>
<g id="a_node28"><a xlink:href="classmexiface_1_1MexIFace.html#a658f8f66c8d6bacce3947a42a90f5610" target="_top" xlink:title="mexiface::MexIFace\l::checkVectorSize">
<polygon fill="white" stroke="black" points="305.5,-91.5 305.5,-119.5 403.5,-119.5 403.5,-91.5 305.5,-91.5"/>
<text text-anchor="start" x="313.5" y="-108.3" font-family="Helvetica,sans-Serif" font-size="9.00">mexiface::MexIFace</text>
<text text-anchor="middle" x="354.5" y="-98.3" font-family="Helvetica,sans-Serif" font-size="9.00">::checkVectorSize</text>
</a>
</g>
</g>
<!-- Node26&#45;&gt;Node28 -->
<g id="edge44" class="edge"><title>Node26&#45;&gt;Node28</title>
<path fill="none" stroke="midnightblue" d="M245.578,-107.575C261.295,-107.273 278.923,-106.934 295.303,-106.619"/>
<polygon fill="midnightblue" stroke="midnightblue" points="295.381,-110.118 305.312,-106.427 295.247,-103.12 295.381,-110.118"/>
</g>
</g>
</svg>
