<?xml version="1.0" encoding="UTF-8" standalone="no"?>
<!DOCTYPE svg PUBLIC "-//W3C//DTD SVG 1.1//EN"
 "http://www.w3.org/Graphics/SVG/1.1/DTD/svg11.dtd">
<!-- Generated by graphviz version 2.36.0 (20140111.2315)
 -->
<!-- Title: mexiface::MexIFace::checkedToHypercube Pages: 1 -->
<svg width="254pt" height="36pt"
 viewBox="0.00 0.00 254.00 36.00" xmlns="http://www.w3.org/2000/svg" xmlns:xlink="http://www.w3.org/1999/xlink">
<g id="graph0" class="graph" transform="scale(1 1) rotate(0) translate(4 32)">
<title>mexiface::MexIFace::checkedToHypercube</title>
<polygon fill="white" stroke="none" points="-4,4 -4,-32 250,-32 250,4 -4,4"/>
<!-- Node1 -->
<g id="node1" class="node"><title>Node1</title>
<polygon fill="#bfbfbf" stroke="black" points="0.5,-0 0.5,-28 111.5,-28 111.5,-0 0.5,-0"/>
<text text-anchor="start" x="8.5" y="-16.8" font-family="Helvetica,sans-Serif" font-size="9.00">mexiface::MexIFace</text>
<text text-anchor="middle" x="56" y="-6.8" font-family="Helvetica,sans-Serif" font-size="9.00">::checkedToHypercube</text>
</g>
<!-- Node2 -->
<g id="node2" class="node"><title>Node2</title>
<g id="a_node2"><a xlink:href="classmexiface_1_1MexIFace.html#ab8db198726914a553b66d8f8fb9b850e" target="_top" xlink:title="mexiface::MexIFace\l::checkMaxNdim">
<polygon fill="white" stroke="black" points="148,-0 148,-28 246,-28 246,-0 148,-0"/>
<text text-anchor="start" x="156" y="-16.8" font-family="Helvetica,sans-Serif" font-size="9.00">mexiface::MexIFace</text>
<text text-anchor="middle" x="197" y="-6.8" font-family="Helvetica,sans-Serif" font-size="9.00">::checkMaxNdim</text>
</a>
</g>
</g>
<!-- Node1&#45;&gt;Node2 -->
<g id="edge1" class="edge"><title>Node1&#45;&gt;Node2</title>
<path fill="none" stroke="midnightblue" d="M111.538,-14C120.175,-14 129.136,-14 137.852,-14"/>
<polygon fill="midnightblue" stroke="midnightblue" points="137.938,-17.5001 147.937,-14 137.937,-10.5001 137.938,-17.5001"/>
</g>
</g>
</svg>
