<?xml version="1.0" encoding="UTF-8" standalone="no"?>
<!DOCTYPE svg PUBLIC "-//W3C//DTD SVG 1.1//EN"
 "http://www.w3.org/Graphics/SVG/1.1/DTD/svg11.dtd">
<!-- Generated by graphviz version 2.38.0 (20140413.2041)
 -->
<!-- Title: mexiface::MexIFaceBase Pages: 1 -->
<svg width="256pt" height="92pt"
 viewBox="0.00 0.00 255.50 92.00" xmlns="http://www.w3.org/2000/svg" xmlns:xlink="http://www.w3.org/1999/xlink">
<g id="graph0" class="graph" transform="scale(1 1) rotate(0) translate(4 88)">
<title>mexiface::MexIFaceBase</title>
<polygon fill="white" stroke="none" points="-4,4 -4,-88 251.5,-88 251.5,4 -4,4"/>
<!-- Node1 -->
<g id="node1" class="node"><title>Node1</title>
<polygon fill="#bfbfbf" stroke="black" points="55.5,-65.5 55.5,-83.5 174.5,-83.5 174.5,-65.5 55.5,-65.5"/>
<text text-anchor="middle" x="115" y="-72.3" font-family="Helvetica,sans-Serif" font-size="9.00">mexiface::MexIFaceBase</text>
</g>
<!-- Node2 -->
<g id="node2" class="node"><title>Node2</title>
<g id="a_node2"><a xlink:href="classmexiface_1_1MexIFace.html" target="_top" xlink:title="Base class for the C++ side of a MexIFace interface class. ">
<polygon fill="white" stroke="black" points="0,-5.5 0,-23.5 98,-23.5 98,-5.5 0,-5.5"/>
<text text-anchor="middle" x="49" y="-12.3" font-family="Helvetica,sans-Serif" font-size="9.00">mexiface::MexIFace</text>
</a>
</g>
</g>
<!-- Node1&#45;&gt;Node2 -->
<g id="edge1" class="edge"><title>Node1&#45;&gt;Node2</title>
<path fill="none" stroke="midnightblue" d="M98.2728,-58.8003C85.6913,-47.7439 68.9005,-32.9883 58.5265,-23.8718"/>
<polygon fill="midnightblue" stroke="midnightblue" points="96.0009,-61.4633 105.823,-65.4353 100.622,-56.2051 96.0009,-61.4633"/>
</g>
<!-- Node3 -->
<g id="node3" class="node"><title>Node3</title>
<g id="a_node3"><a xlink:href="classmexiface_1_1MexIFaceHandler.html" target="_top" xlink:title="Class encompassing the MexIFace type&#45;dependent operations. Must be inherited from to form a concrete ...">
<polygon fill="white" stroke="black" points="116.5,-0.5 116.5,-28.5 247.5,-28.5 247.5,-0.5 116.5,-0.5"/>
<text text-anchor="start" x="124.5" y="-17.3" font-family="Helvetica,sans-Serif" font-size="9.00">mexiface::MexIFaceHandler</text>
<text text-anchor="middle" x="182" y="-7.3" font-family="Helvetica,sans-Serif" font-size="9.00">&lt; ObjT &gt;</text>
</a>
</g>
</g>
<!-- Node1&#45;&gt;Node3 -->
<g id="edge2" class="edge"><title>Node1&#45;&gt;Node3</title>
<path fill="none" stroke="midnightblue" d="M132.153,-58.6511C142.865,-49.3781 156.531,-37.5478 166.844,-28.6203"/>
<polygon fill="midnightblue" stroke="midnightblue" points="129.586,-56.2441 124.316,-65.4353 134.167,-61.5365 129.586,-56.2441"/>
</g>
</g>
</svg>
