<?xml version="1.0" encoding="UTF-8" standalone="no"?>
<!DOCTYPE svg PUBLIC "-//W3C//DTD SVG 1.1//EN"
 "http://www.w3.org/Graphics/SVG/1.1/DTD/svg11.dtd">
<!-- Generated by graphviz version 2.36.0 (20140111.2315)
 -->
<!-- Title: mexiface::MexIFace::getCubeDict Pages: 1 -->
<svg width="240pt" height="83pt"
 viewBox="0.00 0.00 240.00 83.00" xmlns="http://www.w3.org/2000/svg" xmlns:xlink="http://www.w3.org/1999/xlink">
<g id="graph0" class="graph" transform="scale(1 1) rotate(0) translate(4 79)">
<title>mexiface::MexIFace::getCubeDict</title>
<polygon fill="white" stroke="none" points="-4,4 -4,-79 236,-79 236,4 -4,4"/>
<!-- Node1 -->
<g id="node1" class="node"><title>Node1</title>
<polygon fill="#bfbfbf" stroke="black" points="0,-23 0,-51 98,-51 98,-23 0,-23"/>
<text text-anchor="start" x="8" y="-39.8" font-family="Helvetica,sans-Serif" font-size="9.00">mexiface::MexIFace</text>
<text text-anchor="middle" x="49" y="-29.8" font-family="Helvetica,sans-Serif" font-size="9.00">::getCubeDict</text>
</g>
<!-- Node2 -->
<g id="node2" class="node"><title>Node2</title>
<g id="a_node2"><a xlink:href="classmexiface_1_1MexIFace.html#af55092f4a38f5c58bb95a9faa35cc3a1" target="_top" xlink:title="mexiface::MexIFace\l::checkScalarSize">
<polygon fill="white" stroke="black" points="134,-47 134,-75 232,-75 232,-47 134,-47"/>
<text text-anchor="start" x="142" y="-63.8" font-family="Helvetica,sans-Serif" font-size="9.00">mexiface::MexIFace</text>
<text text-anchor="middle" x="183" y="-53.8" font-family="Helvetica,sans-Serif" font-size="9.00">::checkScalarSize</text>
</a>
</g>
</g>
<!-- Node1&#45;&gt;Node2 -->
<g id="edge1" class="edge"><title>Node1&#45;&gt;Node2</title>
<path fill="none" stroke="midnightblue" d="M98.0284,-45.7324C106.4,-47.2545 115.188,-48.8525 123.798,-50.4178"/>
<polygon fill="midnightblue" stroke="midnightblue" points="123.321,-53.8884 133.786,-52.2338 124.574,-47.0014 123.321,-53.8884"/>
</g>
<!-- Node3 -->
<g id="node3" class="node"><title>Node3</title>
<g id="a_node3"><a xlink:href="classmexiface_1_1MexIFace.html#a4e3b68c1b831521c073e1ca13c874044" target="_top" xlink:title="mexiface::MexIFace\l::checkType">
<polygon fill="white" stroke="black" points="134,-0 134,-28 232,-28 232,-0 134,-0"/>
<text text-anchor="start" x="142" y="-16.8" font-family="Helvetica,sans-Serif" font-size="9.00">mexiface::MexIFace</text>
<text text-anchor="middle" x="183" y="-6.8" font-family="Helvetica,sans-Serif" font-size="9.00">::checkType</text>
</a>
</g>
</g>
<!-- Node1&#45;&gt;Node3 -->
<g id="edge2" class="edge"><title>Node1&#45;&gt;Node3</title>
<path fill="none" stroke="midnightblue" d="M98.0284,-28.6314C106.4,-27.1728 115.188,-25.6414 123.798,-24.1413"/>
<polygon fill="midnightblue" stroke="midnightblue" points="124.535,-27.5656 133.786,-22.4009 123.334,-20.6695 124.535,-27.5656"/>
</g>
</g>
</svg>
