<?xml version="1.0" encoding="UTF-8" standalone="no"?>
<!DOCTYPE svg PUBLIC "-//W3C//DTD SVG 1.1//EN"
 "http://www.w3.org/Graphics/SVG/1.1/DTD/svg11.dtd">
<!-- Generated by graphviz version 2.38.0 (20140413.2041)
 -->
<!-- Title: mexiface::Hypercube::subcube_size Pages: 1 -->
<svg width="250pt" height="37pt"
 viewBox="0.00 0.00 250.00 37.00" xmlns="http://www.w3.org/2000/svg" xmlns:xlink="http://www.w3.org/1999/xlink">
<g id="graph0" class="graph" transform="scale(1 1) rotate(0) translate(4 33)">
<title>mexiface::Hypercube::subcube_size</title>
<polygon fill="white" stroke="none" points="-4,4 -4,-33 246,-33 246,4 -4,4"/>
<!-- Node1 -->
<g id="node1" class="node"><title>Node1</title>
<polygon fill="#bfbfbf" stroke="black" points="0,-0.5 0,-28.5 103,-28.5 103,-0.5 0,-0.5"/>
<text text-anchor="start" x="8" y="-17.3" font-family="Helvetica,sans-Serif" font-size="9.00">mexiface::Hypercube</text>
<text text-anchor="middle" x="51.5" y="-7.3" font-family="Helvetica,sans-Serif" font-size="9.00">::subcube_size</text>
</g>
<!-- Node2 -->
<g id="node2" class="node"><title>Node2</title>
<g id="a_node2"><a xlink:href="classmexiface_1_1Hypercube.html#a59df889dee36a9f644d02f785bdcd112" target="_top" xlink:title="Create a hypercube of specified size using externally allocated 4D column&#45;major array data...">
<polygon fill="white" stroke="black" points="139,-0.5 139,-28.5 242,-28.5 242,-0.5 139,-0.5"/>
<text text-anchor="start" x="147" y="-17.3" font-family="Helvetica,sans-Serif" font-size="9.00">mexiface::Hypercube</text>
<text text-anchor="middle" x="190.5" y="-7.3" font-family="Helvetica,sans-Serif" font-size="9.00">::Hypercube</text>
</a>
</g>
</g>
<!-- Node1&#45;&gt;Node2 -->
<g id="edge1" class="edge"><title>Node1&#45;&gt;Node2</title>
<path fill="none" stroke="midnightblue" d="M113.32,-14.5C121.772,-14.5 130.382,-14.5 138.626,-14.5"/>
<polygon fill="midnightblue" stroke="midnightblue" points="113.125,-11.0001 103.125,-14.5 113.124,-18.0001 113.125,-11.0001"/>
</g>
</g>
</svg>
