<?xml version="1.0" encoding="UTF-8" standalone="no"?>
<!DOCTYPE svg PUBLIC "-//W3C//DTD SVG 1.1//EN"
 "http://www.w3.org/Graphics/SVG/1.1/DTD/svg11.dtd">
<!-- Generated by graphviz version 2.36.0 (20140111.2315)
 -->
<!-- Title: explore.h Pages: 1 -->
<svg width="252pt" height="84pt"
 viewBox="0.00 0.00 252.00 84.00" xmlns="http://www.w3.org/2000/svg" xmlns:xlink="http://www.w3.org/1999/xlink">
<g id="graph0" class="graph" transform="scale(1 1) rotate(0) translate(4 80)">
<title>explore.h</title>
<polygon fill="white" stroke="none" points="-4,4 -4,-80 248,-80 248,4 -4,4"/>
<!-- Node1 -->
<g id="node1" class="node"><title>Node1</title>
<polygon fill="#bfbfbf" stroke="black" points="92.5,-57 92.5,-75 147.5,-75 147.5,-57 92.5,-57"/>
<text text-anchor="middle" x="120" y="-63.8" font-family="Helvetica,sans-Serif" font-size="9.00">explore.h</text>
</g>
<!-- Node2 -->
<g id="node2" class="node"><title>Node2</title>
<g id="a_node2"><a xlink:href="explore_8cpp.html" target="_top" xlink:title="Code to analyze the data in an mxArray. ">
<polygon fill="white" stroke="black" points="-0.5,-1 -0.5,-19 64.5,-19 64.5,-1 -0.5,-1"/>
<text text-anchor="middle" x="32" y="-7.8" font-family="Helvetica,sans-Serif" font-size="9.00">explore.cpp</text>
</a>
</g>
</g>
<!-- Node1&#45;&gt;Node2 -->
<g id="edge1" class="edge"><title>Node1&#45;&gt;Node2</title>
<path fill="none" stroke="midnightblue" d="M98.0757,-51.5465C81.4599,-41.3504 59.1754,-27.6758 45.2027,-19.1017"/>
<polygon fill="midnightblue" stroke="midnightblue" points="96.2809,-54.5515 106.635,-56.7986 99.942,-48.5852 96.2809,-54.5515"/>
</g>
<!-- Node3 -->
<g id="node3" class="node"><title>Node3</title>
<g id="a_node3"><a xlink:href="MexIFace_8cpp.html" target="_top" xlink:title="The class definition for MexIFace. ">
<polygon fill="white" stroke="black" points="83,-1 83,-19 157,-19 157,-1 83,-1"/>
<text text-anchor="middle" x="120" y="-7.8" font-family="Helvetica,sans-Serif" font-size="9.00">MexIFace.cpp</text>
</a>
</g>
</g>
<!-- Node1&#45;&gt;Node3 -->
<g id="edge2" class="edge"><title>Node1&#45;&gt;Node3</title>
<path fill="none" stroke="midnightblue" d="M120,-46.3288C120,-37.0774 120,-26.3798 120,-19.2014"/>
<polygon fill="midnightblue" stroke="midnightblue" points="116.5,-46.5625 120,-56.5625 123.5,-46.5625 116.5,-46.5625"/>
</g>
<!-- Node4 -->
<g id="node4" class="node"><title>Node4</title>
<g id="a_node4"><a xlink:href="MexUtils_8cpp.html" target="_top" xlink:title="Helper functions for working with Matlab mxArrays and mxClassIDs. ">
<polygon fill="white" stroke="black" points="175.5,-1 175.5,-19 244.5,-19 244.5,-1 175.5,-1"/>
<text text-anchor="middle" x="210" y="-7.8" font-family="Helvetica,sans-Serif" font-size="9.00">MexUtils.cpp</text>
</a>
</g>
</g>
<!-- Node1&#45;&gt;Node4 -->
<g id="edge3" class="edge"><title>Node1&#45;&gt;Node4</title>
<path fill="none" stroke="midnightblue" d="M142.423,-51.5465C159.416,-41.3504 182.207,-27.6758 196.497,-19.1017"/>
<polygon fill="midnightblue" stroke="midnightblue" points="140.443,-48.6523 133.669,-56.7986 144.045,-54.6548 140.443,-48.6523"/>
</g>
</g>
</svg>
