<?xml version="1.0" encoding="UTF-8" standalone="no"?>
<!DOCTYPE svg PUBLIC "-//W3C//DTD SVG 1.1//EN"
 "http://www.w3.org/Graphics/SVG/1.1/DTD/svg11.dtd">
<!-- Generated by graphviz version 2.38.0 (20140413.2041)
 -->
<!-- Title: explore.h Pages: 1 -->
<svg width="253pt" height="82pt"
 viewBox="0.00 0.00 253.00 82.00" xmlns="http://www.w3.org/2000/svg" xmlns:xlink="http://www.w3.org/1999/xlink">
<g id="graph0" class="graph" transform="scale(1 1) rotate(0) translate(4 78)">
<title>explore.h</title>
<polygon fill="white" stroke="none" points="-4,4 -4,-78 249,-78 249,4 -4,4"/>
<!-- Node1 -->
<g id="node1" class="node"><title>Node1</title>
<polygon fill="#bfbfbf" stroke="black" points="93,-55.5 93,-73.5 148,-73.5 148,-55.5 93,-55.5"/>
<text text-anchor="middle" x="120.5" y="-62.3" font-family="Helvetica,sans-Serif" font-size="9.00">explore.h</text>
</g>
<!-- Node2 -->
<g id="node2" class="node"><title>Node2</title>
<g id="a_node2"><a xlink:href="explore_8cpp.html" target="_top" xlink:title="Code to analyze the data in an mxArray. ">
<polygon fill="white" stroke="black" points="0,-0.5 0,-18.5 65,-18.5 65,-0.5 0,-0.5"/>
<text text-anchor="middle" x="32.5" y="-7.3" font-family="Helvetica,sans-Serif" font-size="9.00">explore.cpp</text>
</a>
</g>
</g>
<!-- Node1&#45;&gt;Node2 -->
<g id="edge1" class="edge"><title>Node1&#45;&gt;Node2</title>
<path fill="none" stroke="midnightblue" d="M98.1691,-50.0507C81.7124,-40.1393 59.8659,-26.9817 45.9911,-18.6253"/>
<polygon fill="midnightblue" stroke="midnightblue" points="96.7626,-53.2893 107.135,-55.4504 100.374,-47.2929 96.7626,-53.2893"/>
</g>
<!-- Node3 -->
<g id="node3" class="node"><title>Node3</title>
<g id="a_node3"><a xlink:href="MexIFace_8cpp.html" target="_top" xlink:title="The class definition for MexIFace. ">
<polygon fill="white" stroke="black" points="83.5,-0.5 83.5,-18.5 157.5,-18.5 157.5,-0.5 83.5,-0.5"/>
<text text-anchor="middle" x="120.5" y="-7.3" font-family="Helvetica,sans-Serif" font-size="9.00">MexIFace.cpp</text>
</a>
</g>
</g>
<!-- Node1&#45;&gt;Node3 -->
<g id="edge2" class="edge"><title>Node1&#45;&gt;Node3</title>
<path fill="none" stroke="midnightblue" d="M120.5,-45.1746C120.5,-36.0945 120.5,-25.5949 120.5,-18.5496"/>
<polygon fill="midnightblue" stroke="midnightblue" points="117,-45.2187 120.5,-55.2188 124,-45.2188 117,-45.2187"/>
</g>
<!-- Node4 -->
<g id="node4" class="node"><title>Node4</title>
<g id="a_node4"><a xlink:href="MexUtils_8cpp.html" target="_top" xlink:title="Helper functions for working with Matlab mxArrays and mxClassIDs. ">
<polygon fill="white" stroke="black" points="176,-0.5 176,-18.5 245,-18.5 245,-0.5 176,-0.5"/>
<text text-anchor="middle" x="210.5" y="-7.3" font-family="Helvetica,sans-Serif" font-size="9.00">MexUtils.cpp</text>
</a>
</g>
</g>
<!-- Node1&#45;&gt;Node4 -->
<g id="edge3" class="edge"><title>Node1&#45;&gt;Node4</title>
<path fill="none" stroke="midnightblue" d="M142.868,-50.3277C159.751,-40.3856 182.38,-27.0598 196.702,-18.6253"/>
<polygon fill="midnightblue" stroke="midnightblue" points="141.01,-47.3601 134.169,-55.4504 144.562,-53.3919 141.01,-47.3601"/>
</g>
</g>
</svg>
