<?xml version="1.0" encoding="UTF-8" standalone="no"?>
<!DOCTYPE svg PUBLIC "-//W3C//DTD SVG 1.1//EN"
 "http://www.w3.org/Graphics/SVG/1.1/DTD/svg11.dtd">
<!-- Generated by graphviz version 2.36.0 (20140111.2315)
 -->
<!-- Title: explore.cpp Pages: 1 -->
<svg width="225pt" height="140pt"
 viewBox="0.00 0.00 225.00 140.00" xmlns="http://www.w3.org/2000/svg" xmlns:xlink="http://www.w3.org/1999/xlink">
<g id="graph0" class="graph" transform="scale(1 1) rotate(0) translate(4 136)">
<title>explore.cpp</title>
<polygon fill="white" stroke="none" points="-4,4 -4,-136 221,-136 221,4 -4,4"/>
<!-- Node1 -->
<g id="node1" class="node"><title>Node1</title>
<polygon fill="#bfbfbf" stroke="black" points="48.5,-113 48.5,-131 113.5,-131 113.5,-113 48.5,-113"/>
<text text-anchor="middle" x="81" y="-119.8" font-family="Helvetica,sans-Serif" font-size="9.00">explore.cpp</text>
</g>
<!-- Node2 -->
<g id="node2" class="node"><title>Node2</title>
<polygon fill="white" stroke="#bfbfbf" points="-0.5,-57 -0.5,-75 40.5,-75 40.5,-57 -0.5,-57"/>
<text text-anchor="middle" x="20" y="-63.8" font-family="Helvetica,sans-Serif" font-size="9.00">cstdio</text>
</g>
<!-- Node1&#45;&gt;Node2 -->
<g id="edge1" class="edge"><title>Node1&#45;&gt;Node2</title>
<path fill="none" stroke="midnightblue" d="M71.7354,-112.799C62.5095,-104.631 48.1372,-91.9083 36.88,-81.943"/>
<polygon fill="midnightblue" stroke="midnightblue" points="39.1594,-79.2864 29.3518,-75.2786 34.5195,-84.5277 39.1594,-79.2864"/>
</g>
<!-- Node3 -->
<g id="node3" class="node"><title>Node3</title>
<polygon fill="white" stroke="#bfbfbf" points="59,-57 59,-75 103,-75 103,-57 59,-57"/>
<text text-anchor="middle" x="81" y="-63.8" font-family="Helvetica,sans-Serif" font-size="9.00">cstring</text>
</g>
<!-- Node1&#45;&gt;Node3 -->
<g id="edge2" class="edge"><title>Node1&#45;&gt;Node3</title>
<path fill="none" stroke="midnightblue" d="M81,-112.562C81,-105.308 81,-94.5884 81,-85.3691"/>
<polygon fill="midnightblue" stroke="midnightblue" points="84.5001,-85.2014 81,-75.2014 77.5001,-85.2015 84.5001,-85.2014"/>
</g>
<!-- Node4 -->
<g id="node4" class="node"><title>Node4</title>
<g id="a_node4"><a xlink:href="explore_8h.html" target="_top" xlink:title="MexIFace/explore.h">
<polygon fill="white" stroke="black" points="120.5,-57 120.5,-75 217.5,-75 217.5,-57 120.5,-57"/>
<text text-anchor="middle" x="169" y="-63.8" font-family="Helvetica,sans-Serif" font-size="9.00">MexIFace/explore.h</text>
</a>
</g>
</g>
<!-- Node1&#45;&gt;Node4 -->
<g id="edge3" class="edge"><title>Node1&#45;&gt;Node4</title>
<path fill="none" stroke="midnightblue" d="M94.3653,-112.799C108.402,-104.185 130.697,-90.5043 147.268,-80.3354"/>
<polygon fill="midnightblue" stroke="midnightblue" points="149.105,-83.315 155.797,-75.1017 145.443,-77.3488 149.105,-83.315"/>
</g>
<!-- Node5 -->
<g id="node5" class="node"><title>Node5</title>
<polygon fill="white" stroke="#bfbfbf" points="148.5,-1 148.5,-19 189.5,-19 189.5,-1 148.5,-1"/>
<text text-anchor="middle" x="169" y="-7.8" font-family="Helvetica,sans-Serif" font-size="9.00">mex.h</text>
</g>
<!-- Node4&#45;&gt;Node5 -->
<g id="edge4" class="edge"><title>Node4&#45;&gt;Node5</title>
<path fill="none" stroke="midnightblue" d="M169,-56.5625C169,-49.308 169,-38.5884 169,-29.3691"/>
<polygon fill="midnightblue" stroke="midnightblue" points="172.5,-29.2014 169,-19.2014 165.5,-29.2015 172.5,-29.2014"/>
</g>
</g>
</svg>
