<?xml version="1.0" encoding="UTF-8" standalone="no"?>
<!DOCTYPE svg PUBLIC "-//W3C//DTD SVG 1.1//EN"
 "http://www.w3.org/Graphics/SVG/1.1/DTD/svg11.dtd">
<!-- Generated by graphviz version 2.38.0 (20140413.2041)
 -->
<!-- Title: explore.cpp Pages: 1 -->
<svg width="226pt" height="137pt"
 viewBox="0.00 0.00 226.00 137.00" xmlns="http://www.w3.org/2000/svg" xmlns:xlink="http://www.w3.org/1999/xlink">
<g id="graph0" class="graph" transform="scale(1 1) rotate(0) translate(4 133)">
<title>explore.cpp</title>
<polygon fill="white" stroke="none" points="-4,4 -4,-133 222,-133 222,4 -4,4"/>
<!-- Node1 -->
<g id="node1" class="node"><title>Node1</title>
<polygon fill="#bfbfbf" stroke="black" points="49,-110.5 49,-128.5 114,-128.5 114,-110.5 49,-110.5"/>
<text text-anchor="middle" x="81.5" y="-117.3" font-family="Helvetica,sans-Serif" font-size="9.00">explore.cpp</text>
</g>
<!-- Node2 -->
<g id="node2" class="node"><title>Node2</title>
<polygon fill="white" stroke="#bfbfbf" points="0,-55.5 0,-73.5 41,-73.5 41,-55.5 0,-55.5"/>
<text text-anchor="middle" x="20.5" y="-62.3" font-family="Helvetica,sans-Serif" font-size="9.00">cstdio</text>
</g>
<!-- Node1&#45;&gt;Node2 -->
<g id="edge1" class="edge"><title>Node1&#45;&gt;Node2</title>
<path fill="none" stroke="midnightblue" d="M72.2354,-110.45C63.099,-102.512 48.9158,-90.1891 37.7088,-80.4519"/>
<polygon fill="midnightblue" stroke="midnightblue" points="39.6961,-77.542 29.8518,-73.6253 35.105,-82.8261 39.6961,-77.542"/>
</g>
<!-- Node3 -->
<g id="node3" class="node"><title>Node3</title>
<polygon fill="white" stroke="#bfbfbf" points="59.5,-55.5 59.5,-73.5 103.5,-73.5 103.5,-55.5 59.5,-55.5"/>
<text text-anchor="middle" x="81.5" y="-62.3" font-family="Helvetica,sans-Serif" font-size="9.00">cstring</text>
</g>
<!-- Node1&#45;&gt;Node3 -->
<g id="edge2" class="edge"><title>Node1&#45;&gt;Node3</title>
<path fill="none" stroke="midnightblue" d="M81.5,-110.219C81.5,-103.177 81.5,-92.8083 81.5,-83.8277"/>
<polygon fill="midnightblue" stroke="midnightblue" points="85.0001,-83.5495 81.5,-73.5496 78.0001,-83.5496 85.0001,-83.5495"/>
</g>
<!-- Node4 -->
<g id="node4" class="node"><title>Node4</title>
<g id="a_node4"><a xlink:href="explore_8h.html" target="_top" xlink:title="MexIFace/explore.h">
<polygon fill="white" stroke="black" points="121,-55.5 121,-73.5 218,-73.5 218,-55.5 121,-55.5"/>
<text text-anchor="middle" x="169.5" y="-62.3" font-family="Helvetica,sans-Serif" font-size="9.00">MexIFace/explore.h</text>
</a>
</g>
</g>
<!-- Node1&#45;&gt;Node4 -->
<g id="edge3" class="edge"><title>Node1&#45;&gt;Node4</title>
<path fill="none" stroke="midnightblue" d="M94.8653,-110.45C108.692,-102.123 130.53,-88.9704 147.019,-79.0394"/>
<polygon fill="midnightblue" stroke="midnightblue" points="149.248,-81.7828 156.009,-73.6253 145.637,-75.7864 149.248,-81.7828"/>
</g>
<!-- Node5 -->
<g id="node5" class="node"><title>Node5</title>
<polygon fill="white" stroke="#bfbfbf" points="149,-0.5 149,-18.5 190,-18.5 190,-0.5 149,-0.5"/>
<text text-anchor="middle" x="169.5" y="-7.3" font-family="Helvetica,sans-Serif" font-size="9.00">mex.h</text>
</g>
<!-- Node4&#45;&gt;Node5 -->
<g id="edge4" class="edge"><title>Node4&#45;&gt;Node5</title>
<path fill="none" stroke="midnightblue" d="M169.5,-55.2188C169.5,-48.1769 169.5,-37.8083 169.5,-28.8277"/>
<polygon fill="midnightblue" stroke="midnightblue" points="173,-28.5495 169.5,-18.5496 166,-28.5496 173,-28.5495"/>
</g>
</g>
</svg>
