<?xml version="1.0" encoding="UTF-8" standalone="no"?>
<!DOCTYPE svg PUBLIC "-//W3C//DTD SVG 1.1//EN"
 "http://www.w3.org/Graphics/SVG/1.1/DTD/svg11.dtd">
<!-- Generated by graphviz version 2.38.0 (20140413.2041)
 -->
<!-- Title: Handle.h Pages: 1 -->
<svg width="444pt" height="147pt"
 viewBox="0.00 0.00 443.50 147.00" xmlns="http://www.w3.org/2000/svg" xmlns:xlink="http://www.w3.org/1999/xlink">
<g id="graph0" class="graph" transform="scale(1 1) rotate(0) translate(4 143)">
<title>Handle.h</title>
<polygon fill="white" stroke="none" points="-4,4 -4,-143 439.5,-143 439.5,4 -4,4"/>
<!-- Node1 -->
<g id="node1" class="node"><title>Node1</title>
<polygon fill="#bfbfbf" stroke="black" points="161.5,-120.5 161.5,-138.5 215.5,-138.5 215.5,-120.5 161.5,-120.5"/>
<text text-anchor="middle" x="188.5" y="-127.3" font-family="Helvetica,sans-Serif" font-size="9.00">Handle.h</text>
</g>
<!-- Node2 -->
<g id="node2" class="node"><title>Node2</title>
<polygon fill="white" stroke="#bfbfbf" points="0,-5.5 0,-23.5 43,-23.5 43,-5.5 0,-5.5"/>
<text text-anchor="middle" x="21.5" y="-12.3" font-family="Helvetica,sans-Serif" font-size="9.00">cstdint</text>
</g>
<!-- Node1&#45;&gt;Node2 -->
<g id="edge1" class="edge"><title>Node1&#45;&gt;Node2</title>
<path fill="none" stroke="midnightblue" d="M161.471,-129.289C125.695,-128.735 63.3244,-121.923 30.5,-84 18.74,-70.4132 17.6618,-49.2697 18.7908,-34.0669"/>
<polygon fill="midnightblue" stroke="midnightblue" points="22.3033,-34.1516 19.9439,-23.8228 15.3472,-33.3685 22.3033,-34.1516"/>
</g>
<!-- Node3 -->
<g id="node3" class="node"><title>Node3</title>
<polygon fill="white" stroke="#bfbfbf" points="86,-5.5 86,-23.5 125,-23.5 125,-5.5 86,-5.5"/>
<text text-anchor="middle" x="105.5" y="-12.3" font-family="Helvetica,sans-Serif" font-size="9.00">string</text>
</g>
<!-- Node1&#45;&gt;Node3 -->
<g id="edge2" class="edge"><title>Node1&#45;&gt;Node3</title>
<path fill="none" stroke="midnightblue" d="M184.127,-120.389C177.327,-108.024 163.537,-83.9045 149.5,-65 140.593,-53.005 129.393,-40.4341 120.521,-30.9621"/>
<polygon fill="midnightblue" stroke="midnightblue" points="122.872,-28.3557 113.441,-23.5284 117.803,-33.1834 122.872,-28.3557"/>
</g>
<!-- Node4 -->
<g id="node4" class="node"><title>Node4</title>
<polygon fill="white" stroke="#bfbfbf" points="235.5,-65.5 235.5,-83.5 291.5,-83.5 291.5,-65.5 235.5,-65.5"/>
<text text-anchor="middle" x="263.5" y="-72.3" font-family="Helvetica,sans-Serif" font-size="9.00">typeindex</text>
</g>
<!-- Node1&#45;&gt;Node4 -->
<g id="edge3" class="edge"><title>Node1&#45;&gt;Node4</title>
<path fill="none" stroke="midnightblue" d="M199.891,-120.45C211.455,-112.279 229.594,-99.4604 243.548,-89.5996"/>
<polygon fill="midnightblue" stroke="midnightblue" points="245.855,-92.2548 252.002,-83.6253 241.815,-86.5381 245.855,-92.2548"/>
</g>
<!-- Node5 -->
<g id="node5" class="node"><title>Node5</title>
<polygon fill="white" stroke="#bfbfbf" points="172,-5.5 172,-23.5 213,-23.5 213,-5.5 172,-5.5"/>
<text text-anchor="middle" x="192.5" y="-12.3" font-family="Helvetica,sans-Serif" font-size="9.00">mex.h</text>
</g>
<!-- Node1&#45;&gt;Node5 -->
<g id="edge4" class="edge"><title>Node1&#45;&gt;Node5</title>
<path fill="none" stroke="midnightblue" d="M188.788,-120.373C189.425,-102.374 190.968,-58.7736 191.851,-33.8264"/>
<polygon fill="midnightblue" stroke="midnightblue" points="195.359,-33.6706 192.215,-23.553 188.363,-33.4229 195.359,-33.6706"/>
</g>
<!-- Node6 -->
<g id="node6" class="node"><title>Node6</title>
<g id="a_node6"><a xlink:href="MexIFaceError_8h.html" target="_top" xlink:title="Exception classes for MexIFace. ">
<polygon fill="white" stroke="black" points="309.5,-65.5 309.5,-83.5 435.5,-83.5 435.5,-65.5 309.5,-65.5"/>
<text text-anchor="middle" x="372.5" y="-72.3" font-family="Helvetica,sans-Serif" font-size="9.00">MexIFace/MexIFaceError.h</text>
</a>
</g>
</g>
<!-- Node1&#45;&gt;Node6 -->
<g id="edge5" class="edge"><title>Node1&#45;&gt;Node6</title>
<path fill="none" stroke="midnightblue" d="M215.65,-120.68C247.131,-111.612 299.223,-96.6069 334.663,-86.3987"/>
<polygon fill="midnightblue" stroke="midnightblue" points="335.995,-89.6574 344.636,-83.5262 334.057,-82.9309 335.995,-89.6574"/>
</g>
<!-- Node8 -->
<g id="node8" class="node"><title>Node8</title>
<g id="a_node8"><a xlink:href="MexUtils_8h.html" target="_top" xlink:title="Helper functions for working with Matlab mxArrays and mxClassIDs. ">
<polygon fill="white" stroke="black" points="40,-65.5 40,-83.5 141,-83.5 141,-65.5 40,-65.5"/>
<text text-anchor="middle" x="90.5" y="-72.3" font-family="Helvetica,sans-Serif" font-size="9.00">MexIFace/MexUtils.h</text>
</a>
</g>
</g>
<!-- Node1&#45;&gt;Node8 -->
<g id="edge7" class="edge"><title>Node1&#45;&gt;Node8</title>
<path fill="none" stroke="midnightblue" d="M173.616,-120.45C157.93,-111.968 132.986,-98.477 114.512,-88.486"/>
<polygon fill="midnightblue" stroke="midnightblue" points="115.985,-85.3038 105.524,-83.6253 112.655,-91.461 115.985,-85.3038"/>
</g>
<!-- Node7 -->
<g id="node7" class="node"><title>Node7</title>
<polygon fill="white" stroke="#bfbfbf" points="319,-0.5 319,-28.5 426,-28.5 426,-0.5 319,-0.5"/>
<text text-anchor="start" x="327" y="-17.3" font-family="Helvetica,sans-Serif" font-size="9.00">BacktraceException</text>
<text text-anchor="middle" x="372.5" y="-7.3" font-family="Helvetica,sans-Serif" font-size="9.00">/BacktraceException.h</text>
</g>
<!-- Node6&#45;&gt;Node7 -->
<g id="edge6" class="edge"><title>Node6&#45;&gt;Node7</title>
<path fill="none" stroke="midnightblue" d="M372.5,-65.4353C372.5,-58.5603 372.5,-48.3238 372.5,-38.9057"/>
<polygon fill="midnightblue" stroke="midnightblue" points="376,-38.8427 372.5,-28.8428 369,-38.8428 376,-38.8427"/>
</g>
<!-- Node8&#45;&gt;Node2 -->
<g id="edge8" class="edge"><title>Node8&#45;&gt;Node2</title>
<path fill="none" stroke="midnightblue" d="M80.9058,-65.4353C70.2135,-56.4475 52.6869,-41.7151 39.4355,-30.5762"/>
<polygon fill="midnightblue" stroke="midnightblue" points="41.3665,-27.6271 31.4595,-23.8718 36.8623,-32.9855 41.3665,-27.6271"/>
</g>
<!-- Node8&#45;&gt;Node3 -->
<g id="edge9" class="edge"><title>Node8&#45;&gt;Node3</title>
<path fill="none" stroke="midnightblue" d="M92.5857,-65.4353C94.6887,-57.3035 98.008,-44.4692 100.755,-33.8485"/>
<polygon fill="midnightblue" stroke="midnightblue" points="104.22,-34.4296 103.335,-23.8718 97.4425,-32.6769 104.22,-34.4296"/>
</g>
<!-- Node8&#45;&gt;Node5 -->
<g id="edge10" class="edge"><title>Node8&#45;&gt;Node5</title>
<path fill="none" stroke="midnightblue" d="M104.683,-65.4353C121.411,-55.923 149.456,-39.9759 169.349,-28.6645"/>
<polygon fill="midnightblue" stroke="midnightblue" points="171.146,-31.6687 178.109,-23.6831 167.686,-25.5837 171.146,-31.6687"/>
</g>
</g>
</svg>
