<?xml version="1.0" encoding="UTF-8" standalone="no"?>
<!DOCTYPE svg PUBLIC "-//W3C//DTD SVG 1.1//EN"
 "http://www.w3.org/Graphics/SVG/1.1/DTD/svg11.dtd">
<!-- Generated by graphviz version 2.36.0 (20140111.2315)
 -->
<!-- Title: Handle.h Pages: 1 -->
<svg width="443pt" height="150pt"
 viewBox="0.00 0.00 443.00 150.00" xmlns="http://www.w3.org/2000/svg" xmlns:xlink="http://www.w3.org/1999/xlink">
<g id="graph0" class="graph" transform="scale(1 1) rotate(0) translate(4 146)">
<title>Handle.h</title>
<polygon fill="white" stroke="none" points="-4,4 -4,-146 439,-146 439,4 -4,4"/>
<!-- Node1 -->
<g id="node1" class="node"><title>Node1</title>
<polygon fill="#bfbfbf" stroke="black" points="161,-123 161,-141 215,-141 215,-123 161,-123"/>
<text text-anchor="middle" x="188" y="-129.8" font-family="Helvetica,sans-Serif" font-size="9.00">Handle.h</text>
</g>
<!-- Node2 -->
<g id="node2" class="node"><title>Node2</title>
<polygon fill="white" stroke="#bfbfbf" points="-0.5,-6 -0.5,-24 42.5,-24 42.5,-6 -0.5,-6"/>
<text text-anchor="middle" x="21" y="-12.8" font-family="Helvetica,sans-Serif" font-size="9.00">cstdint</text>
</g>
<!-- Node1&#45;&gt;Node2 -->
<g id="edge1" class="edge"><title>Node1&#45;&gt;Node2</title>
<path fill="none" stroke="midnightblue" d="M160.947,-131.71C125.144,-131.05 62.7434,-124.048 30,-86 17.7804,-71.8006 16.9465,-49.5941 18.257,-34.0092"/>
<polygon fill="midnightblue" stroke="midnightblue" points="21.7367,-34.3874 19.4581,-24.0405 14.7869,-33.5499 21.7367,-34.3874"/>
</g>
<!-- Node3 -->
<g id="node3" class="node"><title>Node3</title>
<polygon fill="white" stroke="#bfbfbf" points="85.5,-6 85.5,-24 124.5,-24 124.5,-6 85.5,-6"/>
<text text-anchor="middle" x="105" y="-12.8" font-family="Helvetica,sans-Serif" font-size="9.00">string</text>
</g>
<!-- Node1&#45;&gt;Node3 -->
<g id="edge2" class="edge"><title>Node1&#45;&gt;Node3</title>
<path fill="none" stroke="midnightblue" d="M183.65,-122.694C176.881,-110.033 163.131,-85.3388 149,-66 140.136,-53.8688 128.934,-41.1711 120.052,-31.6073"/>
<polygon fill="midnightblue" stroke="midnightblue" points="122.372,-28.967 112.96,-24.1026 117.285,-33.7748 122.372,-28.967"/>
</g>
<!-- Node4 -->
<g id="node4" class="node"><title>Node4</title>
<polygon fill="white" stroke="#bfbfbf" points="235,-67 235,-85 291,-85 291,-67 235,-67"/>
<text text-anchor="middle" x="263" y="-73.8" font-family="Helvetica,sans-Serif" font-size="9.00">typeindex</text>
</g>
<!-- Node1&#45;&gt;Node4 -->
<g id="edge3" class="edge"><title>Node1&#45;&gt;Node4</title>
<path fill="none" stroke="midnightblue" d="M199.391,-122.799C210.955,-114.473 229.094,-101.413 243.048,-91.3656"/>
<polygon fill="midnightblue" stroke="midnightblue" points="245.432,-93.9621 251.502,-85.2786 241.341,-88.2813 245.432,-93.9621"/>
</g>
<!-- Node5 -->
<g id="node5" class="node"><title>Node5</title>
<polygon fill="white" stroke="#bfbfbf" points="171.5,-6 171.5,-24 212.5,-24 212.5,-6 171.5,-6"/>
<text text-anchor="middle" x="192" y="-12.8" font-family="Helvetica,sans-Serif" font-size="9.00">mex.h</text>
</g>
<!-- Node1&#45;&gt;Node5 -->
<g id="edge4" class="edge"><title>Node1&#45;&gt;Node5</title>
<path fill="none" stroke="midnightblue" d="M188.288,-122.729C188.928,-104.329 190.482,-59.6374 191.363,-34.3073"/>
<polygon fill="midnightblue" stroke="midnightblue" points="194.865,-34.3112 191.715,-24.1956 187.869,-34.0678 194.865,-34.3112"/>
</g>
<!-- Node6 -->
<g id="node6" class="node"><title>Node6</title>
<g id="a_node6"><a xlink:href="MexIFaceError_8h.html" target="_top" xlink:title="Exception classes for MexIFace. ">
<polygon fill="white" stroke="black" points="309,-67 309,-85 435,-85 435,-67 309,-67"/>
<text text-anchor="middle" x="372" y="-73.8" font-family="Helvetica,sans-Serif" font-size="9.00">MexIFace/MexIFaceError.h</text>
</a>
</g>
</g>
<!-- Node1&#45;&gt;Node6 -->
<g id="edge5" class="edge"><title>Node1&#45;&gt;Node6</title>
<path fill="none" stroke="midnightblue" d="M215.15,-123.032C246.813,-113.74 299.326,-98.3282 334.776,-87.9244"/>
<polygon fill="midnightblue" stroke="midnightblue" points="336.129,-91.175 344.739,-85.0006 334.158,-84.4583 336.129,-91.175"/>
</g>
<!-- Node8 -->
<g id="node8" class="node"><title>Node8</title>
<g id="a_node8"><a xlink:href="MexUtils_8h.html" target="_top" xlink:title="Helper functions for working with Matlab mxArrays and mxClassIDs. ">
<polygon fill="white" stroke="black" points="39.5,-67 39.5,-85 140.5,-85 140.5,-67 39.5,-67"/>
<text text-anchor="middle" x="90" y="-73.8" font-family="Helvetica,sans-Serif" font-size="9.00">MexIFace/MexUtils.h</text>
</a>
</g>
</g>
<!-- Node1&#45;&gt;Node8 -->
<g id="edge7" class="edge"><title>Node1&#45;&gt;Node8</title>
<path fill="none" stroke="midnightblue" d="M173.116,-122.799C157.339,-114.105 132.195,-100.251 113.69,-90.0538"/>
<polygon fill="midnightblue" stroke="midnightblue" points="115.151,-86.8623 104.703,-85.1017 111.772,-92.9932 115.151,-86.8623"/>
</g>
<!-- Node7 -->
<g id="node7" class="node"><title>Node7</title>
<polygon fill="white" stroke="#bfbfbf" points="318.5,-1 318.5,-29 425.5,-29 425.5,-1 318.5,-1"/>
<text text-anchor="start" x="326.5" y="-17.8" font-family="Helvetica,sans-Serif" font-size="9.00">BacktraceException</text>
<text text-anchor="middle" x="372" y="-7.8" font-family="Helvetica,sans-Serif" font-size="9.00">/BacktraceException.h</text>
</g>
<!-- Node6&#45;&gt;Node7 -->
<g id="edge6" class="edge"><title>Node6&#45;&gt;Node7</title>
<path fill="none" stroke="midnightblue" d="M372,-66.7963C372,-59.7107 372,-49.1152 372,-39.4315"/>
<polygon fill="midnightblue" stroke="midnightblue" points="375.5,-39.1215 372,-29.1215 368.5,-39.1215 375.5,-39.1215"/>
</g>
<!-- Node8&#45;&gt;Node2 -->
<g id="edge8" class="edge"><title>Node8&#45;&gt;Node2</title>
<path fill="none" stroke="midnightblue" d="M80.4058,-66.7963C69.592,-57.5496 51.7877,-42.3257 38.4854,-30.9513"/>
<polygon fill="midnightblue" stroke="midnightblue" points="40.3876,-27.9728 30.5127,-24.134 35.8384,-33.293 40.3876,-27.9728"/>
</g>
<!-- Node8&#45;&gt;Node3 -->
<g id="edge9" class="edge"><title>Node8&#45;&gt;Node3</title>
<path fill="none" stroke="midnightblue" d="M92.0857,-66.7963C94.235,-58.3422 97.6547,-44.8916 100.435,-33.9548"/>
<polygon fill="midnightblue" stroke="midnightblue" points="103.86,-34.6881 102.932,-24.134 97.0759,-32.9633 103.86,-34.6881"/>
</g>
<!-- Node8&#45;&gt;Node5 -->
<g id="edge10" class="edge"><title>Node8&#45;&gt;Node5</title>
<path fill="none" stroke="midnightblue" d="M104.183,-66.7963C121.006,-57.0653 149.273,-40.7144 169.185,-29.197"/>
<polygon fill="midnightblue" stroke="midnightblue" points="171.034,-32.1708 177.938,-24.134 167.529,-26.1114 171.034,-32.1708"/>
</g>
</g>
</svg>
