<?xml version="1.0" encoding="UTF-8" standalone="no"?>
<!DOCTYPE svg PUBLIC "-//W3C//DTD SVG 1.1//EN"
 "http://www.w3.org/Graphics/SVG/1.1/DTD/svg11.dtd">
<!-- Generated by graphviz version 2.36.0 (20140111.2315)
 -->
<!-- Title: hypercube.h Pages: 1 -->
<svg width="335pt" height="150pt"
 viewBox="0.00 0.00 335.00 150.00" xmlns="http://www.w3.org/2000/svg" xmlns:xlink="http://www.w3.org/1999/xlink">
<g id="graph0" class="graph" transform="scale(1 1) rotate(0) translate(4 146)">
<title>hypercube.h</title>
<polygon fill="white" stroke="none" points="-4,4 -4,-146 331,-146 331,4 -4,4"/>
<!-- Node1 -->
<g id="node1" class="node"><title>Node1</title>
<polygon fill="#bfbfbf" stroke="black" points="96,-123 96,-141 164,-141 164,-123 96,-123"/>
<text text-anchor="middle" x="130" y="-129.8" font-family="Helvetica,sans-Serif" font-size="9.00">hypercube.h</text>
</g>
<!-- Node2 -->
<g id="node2" class="node"><title>Node2</title>
<polygon fill="white" stroke="#bfbfbf" points="-0.5,-67 -0.5,-85 54.5,-85 54.5,-67 -0.5,-67"/>
<text text-anchor="middle" x="27" y="-73.8" font-family="Helvetica,sans-Serif" font-size="9.00">armadillo</text>
</g>
<!-- Node1&#45;&gt;Node2 -->
<g id="edge1" class="edge"><title>Node1&#45;&gt;Node2</title>
<path fill="none" stroke="midnightblue" d="M114.357,-122.799C97.6228,-114.026 70.8626,-99.9959 51.3654,-89.7741"/>
<polygon fill="midnightblue" stroke="midnightblue" points="52.935,-86.6452 42.4532,-85.1017 49.6847,-92.8448 52.935,-86.6452"/>
</g>
<!-- Node3 -->
<g id="node3" class="node"><title>Node3</title>
<polygon fill="white" stroke="#bfbfbf" points="73,-67 73,-85 123,-85 123,-67 73,-67"/>
<text text-anchor="middle" x="98" y="-73.8" font-family="Helvetica,sans-Serif" font-size="9.00">memory</text>
</g>
<!-- Node1&#45;&gt;Node3 -->
<g id="edge2" class="edge"><title>Node1&#45;&gt;Node3</title>
<path fill="none" stroke="midnightblue" d="M125,-122.562C120.465,-114.909 113.644,-103.4 107.993,-93.8638"/>
<polygon fill="midnightblue" stroke="midnightblue" points="110.969,-92.02 102.86,-85.2014 104.947,-95.5887 110.969,-92.02"/>
</g>
<!-- Node4 -->
<g id="node4" class="node"><title>Node4</title>
<polygon fill="white" stroke="#bfbfbf" points="141.5,-67 141.5,-85 182.5,-85 182.5,-67 141.5,-67"/>
<text text-anchor="middle" x="162" y="-73.8" font-family="Helvetica,sans-Serif" font-size="9.00">vector</text>
</g>
<!-- Node1&#45;&gt;Node4 -->
<g id="edge3" class="edge"><title>Node1&#45;&gt;Node4</title>
<path fill="none" stroke="midnightblue" d="M135,-122.562C139.535,-114.909 146.356,-103.4 152.007,-93.8638"/>
<polygon fill="midnightblue" stroke="midnightblue" points="155.053,-95.5887 157.14,-85.2014 149.031,-92.02 155.053,-95.5887"/>
</g>
<!-- Node5 -->
<g id="node5" class="node"><title>Node5</title>
<g id="a_node5"><a xlink:href="MexIFaceError_8h.html" target="_top" xlink:title="Exception classes for MexIFace. ">
<polygon fill="white" stroke="black" points="201,-67 201,-85 327,-85 327,-67 201,-67"/>
<text text-anchor="middle" x="264" y="-73.8" font-family="Helvetica,sans-Serif" font-size="9.00">MexIFace/MexIFaceError.h</text>
</a>
</g>
</g>
<!-- Node1&#45;&gt;Node5 -->
<g id="edge4" class="edge"><title>Node1&#45;&gt;Node5</title>
<path fill="none" stroke="midnightblue" d="M150.061,-122.916C172.363,-113.929 208.607,-99.3225 234.221,-89.0005"/>
<polygon fill="midnightblue" stroke="midnightblue" points="235.835,-92.1238 243.802,-85.1396 233.218,-85.6311 235.835,-92.1238"/>
</g>
<!-- Node6 -->
<g id="node6" class="node"><title>Node6</title>
<polygon fill="white" stroke="#bfbfbf" points="210.5,-1 210.5,-29 317.5,-29 317.5,-1 210.5,-1"/>
<text text-anchor="start" x="218.5" y="-17.8" font-family="Helvetica,sans-Serif" font-size="9.00">BacktraceException</text>
<text text-anchor="middle" x="264" y="-7.8" font-family="Helvetica,sans-Serif" font-size="9.00">/BacktraceException.h</text>
</g>
<!-- Node5&#45;&gt;Node6 -->
<g id="edge5" class="edge"><title>Node5&#45;&gt;Node6</title>
<path fill="none" stroke="midnightblue" d="M264,-66.7963C264,-59.7107 264,-49.1152 264,-39.4315"/>
<polygon fill="midnightblue" stroke="midnightblue" points="267.5,-39.1215 264,-29.1215 260.5,-39.1215 267.5,-39.1215"/>
</g>
</g>
</svg>
