<?xml version="1.0" encoding="UTF-8" standalone="no"?>
<!DOCTYPE svg PUBLIC "-//W3C//DTD SVG 1.1//EN"
 "http://www.w3.org/Graphics/SVG/1.1/DTD/svg11.dtd">
<!-- Generated by graphviz version 2.38.0 (20140413.2041)
 -->
<!-- Title: hypercube.h Pages: 1 -->
<svg width="82pt" height="137pt"
 viewBox="0.00 0.00 82.00 137.00" xmlns="http://www.w3.org/2000/svg" xmlns:xlink="http://www.w3.org/1999/xlink">
<g id="graph0" class="graph" transform="scale(1 1) rotate(0) translate(4 133)">
<title>hypercube.h</title>
<polygon fill="white" stroke="none" points="-4,4 -4,-133 78,-133 78,4 -4,4"/>
<!-- Node1 -->
<g id="node1" class="node"><title>Node1</title>
<polygon fill="#bfbfbf" stroke="black" points="3,-110.5 3,-128.5 71,-128.5 71,-110.5 3,-110.5"/>
<text text-anchor="middle" x="37" y="-117.3" font-family="Helvetica,sans-Serif" font-size="9.00">hypercube.h</text>
</g>
<!-- Node2 -->
<g id="node2" class="node"><title>Node2</title>
<g id="a_node2"><a xlink:href="MexIFace_8h.html" target="_top" xlink:title="The class declaration and inline and templated functions for MexIFace. ">
<polygon fill="white" stroke="black" points="5,-55.5 5,-73.5 69,-73.5 69,-55.5 5,-55.5"/>
<text text-anchor="middle" x="37" y="-62.3" font-family="Helvetica,sans-Serif" font-size="9.00">MexIFace.h</text>
</a>
</g>
</g>
<!-- Node1&#45;&gt;Node2 -->
<g id="edge1" class="edge"><title>Node1&#45;&gt;Node2</title>
<path fill="none" stroke="midnightblue" d="M37,-100.175C37,-91.0945 37,-80.5949 37,-73.5496"/>
<polygon fill="midnightblue" stroke="midnightblue" points="33.5001,-100.219 37,-110.219 40.5001,-100.219 33.5001,-100.219"/>
</g>
<!-- Node3 -->
<g id="node3" class="node"><title>Node3</title>
<g id="a_node3"><a xlink:href="MexIFace_8cpp.html" target="_top" xlink:title="The class definition for MexIFace. ">
<polygon fill="white" stroke="black" points="0,-0.5 0,-18.5 74,-18.5 74,-0.5 0,-0.5"/>
<text text-anchor="middle" x="37" y="-7.3" font-family="Helvetica,sans-Serif" font-size="9.00">MexIFace.cpp</text>
</a>
</g>
</g>
<!-- Node2&#45;&gt;Node3 -->
<g id="edge2" class="edge"><title>Node2&#45;&gt;Node3</title>
<path fill="none" stroke="midnightblue" d="M37,-45.1746C37,-36.0945 37,-25.5949 37,-18.5496"/>
<polygon fill="midnightblue" stroke="midnightblue" points="33.5001,-45.2187 37,-55.2188 40.5001,-45.2188 33.5001,-45.2187"/>
</g>
</g>
</svg>
