<?xml version="1.0" encoding="UTF-8" standalone="no"?>
<!DOCTYPE svg PUBLIC "-//W3C//DTD SVG 1.1//EN"
 "http://www.w3.org/Graphics/SVG/1.1/DTD/svg11.dtd">
<!-- Generated by graphviz version 2.36.0 (20140111.2315)
 -->
<!-- Title: hypercube.h Pages: 1 -->
<svg width="82pt" height="140pt"
 viewBox="0.00 0.00 82.00 140.00" xmlns="http://www.w3.org/2000/svg" xmlns:xlink="http://www.w3.org/1999/xlink">
<g id="graph0" class="graph" transform="scale(1 1) rotate(0) translate(4 136)">
<title>hypercube.h</title>
<polygon fill="white" stroke="none" points="-4,4 -4,-136 78,-136 78,4 -4,4"/>
<!-- Node1 -->
<g id="node1" class="node"><title>Node1</title>
<polygon fill="#bfbfbf" stroke="black" points="3,-113 3,-131 71,-131 71,-113 3,-113"/>
<text text-anchor="middle" x="37" y="-119.8" font-family="Helvetica,sans-Serif" font-size="9.00">hypercube.h</text>
</g>
<!-- Node2 -->
<g id="node2" class="node"><title>Node2</title>
<g id="a_node2"><a xlink:href="MexIFace_8h.html" target="_top" xlink:title="The class declaration and inline and templated functions for MexIFace. ">
<polygon fill="white" stroke="black" points="5,-57 5,-75 69,-75 69,-57 5,-57"/>
<text text-anchor="middle" x="37" y="-63.8" font-family="Helvetica,sans-Serif" font-size="9.00">MexIFace.h</text>
</a>
</g>
</g>
<!-- Node1&#45;&gt;Node2 -->
<g id="edge1" class="edge"><title>Node1&#45;&gt;Node2</title>
<path fill="none" stroke="midnightblue" d="M37,-102.329C37,-93.0774 37,-82.3798 37,-75.2014"/>
<polygon fill="midnightblue" stroke="midnightblue" points="33.5001,-102.562 37,-112.562 40.5001,-102.563 33.5001,-102.562"/>
</g>
<!-- Node3 -->
<g id="node3" class="node"><title>Node3</title>
<g id="a_node3"><a xlink:href="MexIFace_8cpp.html" target="_top" xlink:title="The class definition for MexIFace. ">
<polygon fill="white" stroke="black" points="0,-1 0,-19 74,-19 74,-1 0,-1"/>
<text text-anchor="middle" x="37" y="-7.8" font-family="Helvetica,sans-Serif" font-size="9.00">MexIFace.cpp</text>
</a>
</g>
</g>
<!-- Node2&#45;&gt;Node3 -->
<g id="edge2" class="edge"><title>Node2&#45;&gt;Node3</title>
<path fill="none" stroke="midnightblue" d="M37,-46.3288C37,-37.0774 37,-26.3798 37,-19.2014"/>
<polygon fill="midnightblue" stroke="midnightblue" points="33.5001,-46.5625 37,-56.5625 40.5001,-46.5625 33.5001,-46.5625"/>
</g>
</g>
</svg>
