<?xml version="1.0" encoding="UTF-8" standalone="no"?>
<!DOCTYPE svg PUBLIC "-//W3C//DTD SVG 1.1//EN"
 "http://www.w3.org/Graphics/SVG/1.1/DTD/svg11.dtd">
<!-- Generated by graphviz version 2.38.0 (20140413.2041)
 -->
<!-- Title: hypercube.h Pages: 1 -->
<svg width="336pt" height="147pt"
 viewBox="0.00 0.00 335.50 147.00" xmlns="http://www.w3.org/2000/svg" xmlns:xlink="http://www.w3.org/1999/xlink">
<g id="graph0" class="graph" transform="scale(1 1) rotate(0) translate(4 143)">
<title>hypercube.h</title>
<polygon fill="white" stroke="none" points="-4,4 -4,-143 331.5,-143 331.5,4 -4,4"/>
<!-- Node1 -->
<g id="node1" class="node"><title>Node1</title>
<polygon fill="#bfbfbf" stroke="black" points="96.5,-120.5 96.5,-138.5 164.5,-138.5 164.5,-120.5 96.5,-120.5"/>
<text text-anchor="middle" x="130.5" y="-127.3" font-family="Helvetica,sans-Serif" font-size="9.00">hypercube.h</text>
</g>
<!-- Node2 -->
<g id="node2" class="node"><title>Node2</title>
<polygon fill="white" stroke="#bfbfbf" points="0,-65.5 0,-83.5 55,-83.5 55,-65.5 0,-65.5"/>
<text text-anchor="middle" x="27.5" y="-72.3" font-family="Helvetica,sans-Serif" font-size="9.00">armadillo</text>
</g>
<!-- Node1&#45;&gt;Node2 -->
<g id="edge1" class="edge"><title>Node1&#45;&gt;Node2</title>
<path fill="none" stroke="midnightblue" d="M114.857,-120.45C98.2196,-111.89 71.6716,-98.2291 52.2042,-88.2119"/>
<polygon fill="midnightblue" stroke="midnightblue" points="53.784,-85.0886 43.2907,-83.6253 50.5812,-91.313 53.784,-85.0886"/>
</g>
<!-- Node3 -->
<g id="node3" class="node"><title>Node3</title>
<polygon fill="white" stroke="#bfbfbf" points="73.5,-65.5 73.5,-83.5 123.5,-83.5 123.5,-65.5 73.5,-65.5"/>
<text text-anchor="middle" x="98.5" y="-72.3" font-family="Helvetica,sans-Serif" font-size="9.00">memory</text>
</g>
<!-- Node1&#45;&gt;Node3 -->
<g id="edge2" class="edge"><title>Node1&#45;&gt;Node3</title>
<path fill="none" stroke="midnightblue" d="M125.5,-120.219C121.012,-112.786 114.286,-101.646 108.67,-92.3446"/>
<polygon fill="midnightblue" stroke="midnightblue" points="111.525,-90.3012 103.36,-83.5496 105.533,-93.9193 111.525,-90.3012"/>
</g>
<!-- Node4 -->
<g id="node4" class="node"><title>Node4</title>
<polygon fill="white" stroke="#bfbfbf" points="142,-65.5 142,-83.5 183,-83.5 183,-65.5 142,-65.5"/>
<text text-anchor="middle" x="162.5" y="-72.3" font-family="Helvetica,sans-Serif" font-size="9.00">vector</text>
</g>
<!-- Node1&#45;&gt;Node4 -->
<g id="edge3" class="edge"><title>Node1&#45;&gt;Node4</title>
<path fill="none" stroke="midnightblue" d="M135.5,-120.219C139.988,-112.786 146.714,-101.646 152.33,-92.3446"/>
<polygon fill="midnightblue" stroke="midnightblue" points="155.467,-93.9193 157.64,-83.5496 149.475,-90.3012 155.467,-93.9193"/>
</g>
<!-- Node5 -->
<g id="node5" class="node"><title>Node5</title>
<g id="a_node5"><a xlink:href="MexIFaceError_8h.html" target="_top" xlink:title="Exception classes for MexIFace. ">
<polygon fill="white" stroke="black" points="201.5,-65.5 201.5,-83.5 327.5,-83.5 327.5,-65.5 201.5,-65.5"/>
<text text-anchor="middle" x="264.5" y="-72.3" font-family="Helvetica,sans-Serif" font-size="9.00">MexIFace/MexIFaceError.h</text>
</a>
</g>
</g>
<!-- Node1&#45;&gt;Node5 -->
<g id="edge4" class="edge"><title>Node1&#45;&gt;Node5</title>
<path fill="none" stroke="midnightblue" d="M150.852,-120.45C173.086,-111.656 208.928,-97.4802 234.412,-87.4006"/>
<polygon fill="midnightblue" stroke="midnightblue" points="235.945,-90.558 243.957,-83.6253 233.37,-84.0487 235.945,-90.558"/>
</g>
<!-- Node6 -->
<g id="node6" class="node"><title>Node6</title>
<polygon fill="white" stroke="#bfbfbf" points="211,-0.5 211,-28.5 318,-28.5 318,-0.5 211,-0.5"/>
<text text-anchor="start" x="219" y="-17.3" font-family="Helvetica,sans-Serif" font-size="9.00">BacktraceException</text>
<text text-anchor="middle" x="264.5" y="-7.3" font-family="Helvetica,sans-Serif" font-size="9.00">/BacktraceException.h</text>
</g>
<!-- Node5&#45;&gt;Node6 -->
<g id="edge5" class="edge"><title>Node5&#45;&gt;Node6</title>
<path fill="none" stroke="midnightblue" d="M264.5,-65.4353C264.5,-58.5603 264.5,-48.3238 264.5,-38.9057"/>
<polygon fill="midnightblue" stroke="midnightblue" points="268,-38.8427 264.5,-28.8428 261,-38.8428 268,-38.8427"/>
</g>
</g>
</svg>
