<?xml version="1.0" encoding="UTF-8" standalone="no"?>
<!DOCTYPE svg PUBLIC "-//W3C//DTD SVG 1.1//EN"
 "http://www.w3.org/Graphics/SVG/1.1/DTD/svg11.dtd">
<!-- Generated by graphviz version 2.36.0 (20140111.2315)
 -->
<!-- Title: Graphical Class Hierarchy Pages: 1 -->
<svg width="296pt" height="73pt"
 viewBox="0.00 0.00 296.00 73.00" xmlns="http://www.w3.org/2000/svg" xmlns:xlink="http://www.w3.org/1999/xlink">
<g id="graph0" class="graph" transform="scale(1 1) rotate(0) translate(4 69)">
<title>Graphical Class Hierarchy</title>
<polygon fill="white" stroke="none" points="-4,4 -4,-69 292,-69 292,4 -4,4"/>
<!-- Node1 -->
<g id="node1" class="node"><title>Node1</title>
<g id="a_node1"><a xlink:href="classmexiface_1_1MexIFaceBase.html" target="_top" xlink:title="Base class defining the virtual functions that will be implemented by MexIFaceHandler and the concret...">
<polygon fill="white" stroke="black" points="0.5,-26 0.5,-44 119.5,-44 119.5,-26 0.5,-26"/>
<text text-anchor="middle" x="60" y="-32.8" font-family="Helvetica,sans-Serif" font-size="9.00">mexiface::MexIFaceBase</text>
</a>
</g>
</g>
<!-- Node2 -->
<g id="node2" class="node"><title>Node2</title>
<g id="a_node2"><a xlink:href="classmexiface_1_1MexIFace.html" target="_top" xlink:title="Acts as a base class for implementing a C++ class &lt;–&gt; Matlab class interface. ">
<polygon fill="white" stroke="black" points="173,-47 173,-65 271,-65 271,-47 173,-47"/>
<text text-anchor="middle" x="222" y="-53.8" font-family="Helvetica,sans-Serif" font-size="9.00">mexiface::MexIFace</text>
</a>
</g>
</g>
<!-- Node1&#45;&gt;Node2 -->
<g id="edge1" class="edge"><title>Node1&#45;&gt;Node2</title>
<path fill="none" stroke="midnightblue" d="M129.633,-44.0081C144.177,-45.917 159.233,-47.8931 172.825,-49.6771"/>
<polygon fill="midnightblue" stroke="midnightblue" points="130.04,-40.5316 119.67,-42.7004 129.129,-47.472 130.04,-40.5316"/>
</g>
<!-- Node3 -->
<g id="node3" class="node"><title>Node3</title>
<g id="a_node3"><a xlink:href="classmexiface_1_1MexIFaceHandler.html" target="_top" xlink:title="Class encompassing the MexIFace type&#45;dependent operations. Must be inherited from to form a concrete ...">
<polygon fill="white" stroke="black" points="156.5,-0 156.5,-28 287.5,-28 287.5,-0 156.5,-0"/>
<text text-anchor="start" x="164.5" y="-16.8" font-family="Helvetica,sans-Serif" font-size="9.00">mexiface::MexIFaceHandler</text>
<text text-anchor="middle" x="222" y="-6.8" font-family="Helvetica,sans-Serif" font-size="9.00">&lt; ObjT &gt;</text>
</a>
</g>
</g>
<!-- Node1&#45;&gt;Node3 -->
<g id="edge2" class="edge"><title>Node1&#45;&gt;Node3</title>
<path fill="none" stroke="midnightblue" d="M129.603,-25.9959C138.494,-24.8289 147.578,-23.6367 156.401,-22.4786"/>
<polygon fill="midnightblue" stroke="midnightblue" points="129.129,-22.528 119.67,-27.2996 130.04,-29.4684 129.129,-22.528"/>
</g>
</g>
</svg>
