<?xml version="1.0" encoding="UTF-8" standalone="no"?>
<!DOCTYPE svg PUBLIC "-//W3C//DTD SVG 1.1//EN"
 "http://www.w3.org/Graphics/SVG/1.1/DTD/svg11.dtd">
<!-- Generated by graphviz version 2.38.0 (20140413.2041)
 -->
<!-- Title: Graphical Class Hierarchy Pages: 1 -->
<svg width="294pt" height="74pt"
 viewBox="0.00 0.00 294.00 74.00" xmlns="http://www.w3.org/2000/svg" xmlns:xlink="http://www.w3.org/1999/xlink">
<g id="graph0" class="graph" transform="scale(1 1) rotate(0) translate(4 70)">
<title>Graphical Class Hierarchy</title>
<polygon fill="white" stroke="none" points="-4,4 -4,-70 290,-70 290,4 -4,4"/>
<!-- Node1 -->
<g id="node1" class="node"><title>Node1</title>
<g id="a_node1"><a xlink:href="classmexiface_1_1MexIFaceBase.html" target="_top" xlink:title="Base class defining the virtual functions that will be implemented by MexIFaceHandler and the concret...">
<polygon fill="white" stroke="black" points="0,-26.5 0,-44.5 119,-44.5 119,-26.5 0,-26.5"/>
<text text-anchor="middle" x="59.5" y="-33.3" font-family="Helvetica,sans-Serif" font-size="9.00">mexiface::MexIFaceBase</text>
</a>
</g>
</g>
<!-- Node2 -->
<g id="node2" class="node"><title>Node2</title>
<g id="a_node2"><a xlink:href="classmexiface_1_1MexIFace.html" target="_top" xlink:title="Base class for the C++ side of a MexIFace interface class. ">
<polygon fill="white" stroke="black" points="171.5,-47.5 171.5,-65.5 269.5,-65.5 269.5,-47.5 171.5,-47.5"/>
<text text-anchor="middle" x="220.5" y="-54.3" font-family="Helvetica,sans-Serif" font-size="9.00">mexiface::MexIFace</text>
</a>
</g>
</g>
<!-- Node1&#45;&gt;Node2 -->
<g id="edge1" class="edge"><title>Node1&#45;&gt;Node2</title>
<path fill="none" stroke="midnightblue" d="M129.442,-44.6056C143.58,-46.4729 158.172,-48.4 171.385,-50.1452"/>
<polygon fill="midnightblue" stroke="midnightblue" points="129.626,-41.0996 119.254,-43.26 128.71,-48.0393 129.626,-41.0996"/>
</g>
<!-- Node3 -->
<g id="node3" class="node"><title>Node3</title>
<g id="a_node3"><a xlink:href="classmexiface_1_1MexIFaceHandler.html" target="_top" xlink:title="Class encompassing the MexIFace type&#45;dependent operations. Must be inherited from to form a concrete ...">
<polygon fill="white" stroke="black" points="155,-0.5 155,-28.5 286,-28.5 286,-0.5 155,-0.5"/>
<text text-anchor="start" x="163" y="-17.3" font-family="Helvetica,sans-Serif" font-size="9.00">mexiface::MexIFaceHandler</text>
<text text-anchor="middle" x="220.5" y="-7.3" font-family="Helvetica,sans-Serif" font-size="9.00">&lt; ObjT &gt;</text>
</a>
</g>
</g>
<!-- Node1&#45;&gt;Node3 -->
<g id="edge2" class="edge"><title>Node1&#45;&gt;Node3</title>
<path fill="none" stroke="midnightblue" d="M129.436,-26.3953C137.87,-25.2813 146.466,-24.146 154.835,-23.0407"/>
<polygon fill="midnightblue" stroke="midnightblue" points="128.71,-22.9607 119.254,-27.74 129.626,-29.9004 128.71,-22.9607"/>
</g>
</g>
</svg>
