<?xml version="1.0" encoding="UTF-8" standalone="no"?>
<!DOCTYPE svg PUBLIC "-//W3C//DTD SVG 1.1//EN"
 "http://www.w3.org/Graphics/SVG/1.1/DTD/svg11.dtd">
<!-- Generated by graphviz version 2.36.0 (20140111.2315)
 -->
<!-- Title: MexIFaceHandler.h Pages: 1 -->
<svg width="104pt" height="140pt"
 viewBox="0.00 0.00 104.00 140.00" xmlns="http://www.w3.org/2000/svg" xmlns:xlink="http://www.w3.org/1999/xlink">
<g id="graph0" class="graph" transform="scale(1 1) rotate(0) translate(4 136)">
<title>MexIFaceHandler.h</title>
<polygon fill="white" stroke="none" points="-4,4 -4,-136 100,-136 100,4 -4,4"/>
<!-- Node1 -->
<g id="node1" class="node"><title>Node1</title>
<polygon fill="#bfbfbf" stroke="black" points="-0.5,-113 -0.5,-131 96.5,-131 96.5,-113 -0.5,-113"/>
<text text-anchor="middle" x="48" y="-119.8" font-family="Helvetica,sans-Serif" font-size="9.00">MexIFaceHandler.h</text>
</g>
<!-- Node2 -->
<g id="node2" class="node"><title>Node2</title>
<g id="a_node2"><a xlink:href="MexIFace_8h.html" target="_top" xlink:title="The class declaration and inline and templated functions for MexIFace. ">
<polygon fill="white" stroke="black" points="16,-57 16,-75 80,-75 80,-57 16,-57"/>
<text text-anchor="middle" x="48" y="-63.8" font-family="Helvetica,sans-Serif" font-size="9.00">MexIFace.h</text>
</a>
</g>
</g>
<!-- Node1&#45;&gt;Node2 -->
<g id="edge1" class="edge"><title>Node1&#45;&gt;Node2</title>
<path fill="none" stroke="midnightblue" d="M48,-102.329C48,-93.0774 48,-82.3798 48,-75.2014"/>
<polygon fill="midnightblue" stroke="midnightblue" points="44.5001,-102.562 48,-112.562 51.5001,-102.563 44.5001,-102.562"/>
</g>
<!-- Node3 -->
<g id="node3" class="node"><title>Node3</title>
<g id="a_node3"><a xlink:href="MexIFace_8cpp.html" target="_top" xlink:title="The class definition for MexIFace. ">
<polygon fill="white" stroke="black" points="11,-1 11,-19 85,-19 85,-1 11,-1"/>
<text text-anchor="middle" x="48" y="-7.8" font-family="Helvetica,sans-Serif" font-size="9.00">MexIFace.cpp</text>
</a>
</g>
</g>
<!-- Node2&#45;&gt;Node3 -->
<g id="edge2" class="edge"><title>Node2&#45;&gt;Node3</title>
<path fill="none" stroke="midnightblue" d="M48,-46.3288C48,-37.0774 48,-26.3798 48,-19.2014"/>
<polygon fill="midnightblue" stroke="midnightblue" points="44.5001,-46.5625 48,-56.5625 51.5001,-46.5625 44.5001,-46.5625"/>
</g>
</g>
</svg>
