<?xml version="1.0" encoding="UTF-8" standalone="no"?>
<!DOCTYPE svg PUBLIC "-//W3C//DTD SVG 1.1//EN"
 "http://www.w3.org/Graphics/SVG/1.1/DTD/svg11.dtd">
<!-- Generated by graphviz version 2.38.0 (20140413.2041)
 -->
<!-- Title: MexIFaceError.h Pages: 1 -->
<svg width="115pt" height="92pt"
 viewBox="0.00 0.00 115.00 92.00" xmlns="http://www.w3.org/2000/svg" xmlns:xlink="http://www.w3.org/1999/xlink">
<g id="graph0" class="graph" transform="scale(1 1) rotate(0) translate(4 88)">
<title>MexIFaceError.h</title>
<polygon fill="white" stroke="none" points="-4,4 -4,-88 111,-88 111,4 -4,4"/>
<!-- Node1 -->
<g id="node1" class="node"><title>Node1</title>
<polygon fill="#bfbfbf" stroke="black" points="11.5,-65.5 11.5,-83.5 95.5,-83.5 95.5,-65.5 11.5,-65.5"/>
<text text-anchor="middle" x="53.5" y="-72.3" font-family="Helvetica,sans-Serif" font-size="9.00">MexIFaceError.h</text>
</g>
<!-- Node2 -->
<g id="node2" class="node"><title>Node2</title>
<polygon fill="white" stroke="#bfbfbf" points="-7.10543e-15,-0.5 -7.10543e-15,-28.5 107,-28.5 107,-0.5 -7.10543e-15,-0.5"/>
<text text-anchor="start" x="8" y="-17.3" font-family="Helvetica,sans-Serif" font-size="9.00">BacktraceException</text>
<text text-anchor="middle" x="53.5" y="-7.3" font-family="Helvetica,sans-Serif" font-size="9.00">/BacktraceException.h</text>
</g>
<!-- Node1&#45;&gt;Node2 -->
<g id="edge1" class="edge"><title>Node1&#45;&gt;Node2</title>
<path fill="none" stroke="midnightblue" d="M53.5,-65.4353C53.5,-58.5603 53.5,-48.3238 53.5,-38.9057"/>
<polygon fill="midnightblue" stroke="midnightblue" points="57.0001,-38.8427 53.5,-28.8428 50.0001,-38.8428 57.0001,-38.8427"/>
</g>
</g>
</svg>
