<?xml version="1.0" encoding="UTF-8" standalone="no"?>
<!DOCTYPE svg PUBLIC "-//W3C//DTD SVG 1.1//EN"
 "http://www.w3.org/Graphics/SVG/1.1/DTD/svg11.dtd">
<!-- Generated by graphviz version 2.38.0 (20140413.2041)
 -->
<!-- Title: MexIFaceError.h Pages: 1 -->
<svg width="230pt" height="247pt"
 viewBox="0.00 0.00 229.50 247.00" xmlns="http://www.w3.org/2000/svg" xmlns:xlink="http://www.w3.org/1999/xlink">
<g id="graph0" class="graph" transform="scale(1 1) rotate(0) translate(4 243)">
<title>MexIFaceError.h</title>
<polygon fill="white" stroke="none" points="-4,4 -4,-243 225.5,-243 225.5,4 -4,4"/>
<!-- Node1 -->
<g id="node1" class="node"><title>Node1</title>
<polygon fill="#bfbfbf" stroke="black" points="83.5,-220.5 83.5,-238.5 167.5,-238.5 167.5,-220.5 83.5,-220.5"/>
<text text-anchor="middle" x="125.5" y="-227.3" font-family="Helvetica,sans-Serif" font-size="9.00">MexIFaceError.h</text>
</g>
<!-- Node2 -->
<g id="node2" class="node"><title>Node2</title>
<g id="a_node2"><a xlink:href="Handle_8h.html" target="_top" xlink:title="Helper class and templated functions to represent and manipulate Handles to C++ objects as Matlab mxA...">
<polygon fill="white" stroke="black" points="32.5,-165.5 32.5,-183.5 86.5,-183.5 86.5,-165.5 32.5,-165.5"/>
<text text-anchor="middle" x="59.5" y="-172.3" font-family="Helvetica,sans-Serif" font-size="9.00">Handle.h</text>
</a>
</g>
</g>
<!-- Node1&#45;&gt;Node2 -->
<g id="edge1" class="edge"><title>Node1&#45;&gt;Node2</title>
<path fill="none" stroke="midnightblue" d="M107.351,-213.926C95.1926,-204.162 79.6354,-191.669 69.6183,-183.625"/>
<polygon fill="midnightblue" stroke="midnightblue" points="105.487,-216.918 115.476,-220.45 109.87,-211.46 105.487,-216.918"/>
</g>
<!-- Node4 -->
<g id="node4" class="node"><title>Node4</title>
<g id="a_node4"><a xlink:href="MexIFace_8h.html" target="_top" xlink:title="The class declaration and inline and templated functions for MexIFace. ">
<polygon fill="white" stroke="black" points="93.5,-55.5 93.5,-73.5 157.5,-73.5 157.5,-55.5 93.5,-55.5"/>
<text text-anchor="middle" x="125.5" y="-62.3" font-family="Helvetica,sans-Serif" font-size="9.00">MexIFace.h</text>
</a>
</g>
</g>
<!-- Node1&#45;&gt;Node4 -->
<g id="edge7" class="edge"><title>Node1&#45;&gt;Node4</title>
<path fill="none" stroke="midnightblue" d="M125.5,-209.841C125.5,-174.362 125.5,-98.4924 125.5,-73.5971"/>
<polygon fill="midnightblue" stroke="midnightblue" points="122,-210.193 125.5,-220.193 129,-210.193 122,-210.193"/>
</g>
<!-- Node6 -->
<g id="node6" class="node"><title>Node6</title>
<g id="a_node6"><a xlink:href="hypercube_8h.html" target="_top" xlink:title="The class declaration and inline and templated functions for hypercube. ">
<polygon fill="white" stroke="black" points="153.5,-110.5 153.5,-128.5 221.5,-128.5 221.5,-110.5 153.5,-110.5"/>
<text text-anchor="middle" x="187.5" y="-117.3" font-family="Helvetica,sans-Serif" font-size="9.00">hypercube.h</text>
</a>
</g>
</g>
<!-- Node1&#45;&gt;Node6 -->
<g id="edge5" class="edge"><title>Node1&#45;&gt;Node6</title>
<path fill="none" stroke="midnightblue" d="M135.247,-211.522C148.765,-187.973 172.683,-146.311 182.786,-128.712"/>
<polygon fill="midnightblue" stroke="midnightblue" points="132.103,-209.967 130.16,-220.382 138.174,-213.452 132.103,-209.967"/>
</g>
<!-- Node3 -->
<g id="node3" class="node"><title>Node3</title>
<g id="a_node3"><a xlink:href="MexIFaceHandler_8h.html" target="_top" xlink:title="class MexIFaceBase declaration. ">
<polygon fill="white" stroke="black" points="0,-110.5 0,-128.5 97,-128.5 97,-110.5 0,-110.5"/>
<text text-anchor="middle" x="48.5" y="-117.3" font-family="Helvetica,sans-Serif" font-size="9.00">MexIFaceHandler.h</text>
</a>
</g>
</g>
<!-- Node2&#45;&gt;Node3 -->
<g id="edge2" class="edge"><title>Node2&#45;&gt;Node3</title>
<path fill="none" stroke="midnightblue" d="M55.6966,-155.175C53.8121,-146.094 51.6329,-135.595 50.1707,-128.55"/>
<polygon fill="midnightblue" stroke="midnightblue" points="52.322,-156.139 57.7812,-165.219 59.176,-154.716 52.322,-156.139"/>
</g>
<!-- Node3&#45;&gt;Node4 -->
<g id="edge3" class="edge"><title>Node3&#45;&gt;Node4</title>
<path fill="none" stroke="midnightblue" d="M68.4445,-104.772C82.7959,-94.8937 101.668,-81.9036 113.695,-73.6253"/>
<polygon fill="midnightblue" stroke="midnightblue" points="66.4475,-101.898 60.1946,-110.45 70.4164,-107.664 66.4475,-101.898"/>
</g>
<!-- Node5 -->
<g id="node5" class="node"><title>Node5</title>
<g id="a_node5"><a xlink:href="MexIFace_8cpp.html" target="_top" xlink:title="The class definition for MexIFace. ">
<polygon fill="white" stroke="black" points="88.5,-0.5 88.5,-18.5 162.5,-18.5 162.5,-0.5 88.5,-0.5"/>
<text text-anchor="middle" x="125.5" y="-7.3" font-family="Helvetica,sans-Serif" font-size="9.00">MexIFace.cpp</text>
</a>
</g>
</g>
<!-- Node4&#45;&gt;Node5 -->
<g id="edge4" class="edge"><title>Node4&#45;&gt;Node5</title>
<path fill="none" stroke="midnightblue" d="M125.5,-45.1746C125.5,-36.0945 125.5,-25.5949 125.5,-18.5496"/>
<polygon fill="midnightblue" stroke="midnightblue" points="122,-45.2187 125.5,-55.2188 129,-45.2188 122,-45.2187"/>
</g>
<!-- Node6&#45;&gt;Node4 -->
<g id="edge6" class="edge"><title>Node6&#45;&gt;Node4</title>
<path fill="none" stroke="midnightblue" d="M170.451,-103.926C159.029,-94.1622 144.415,-81.6693 135.005,-73.6253"/>
<polygon fill="midnightblue" stroke="midnightblue" points="168.208,-106.613 178.084,-110.45 172.757,-101.292 168.208,-106.613"/>
</g>
</g>
</svg>
