<?xml version="1.0" encoding="UTF-8" standalone="no"?>
<!DOCTYPE svg PUBLIC "-//W3C//DTD SVG 1.1//EN"
 "http://www.w3.org/Graphics/SVG/1.1/DTD/svg11.dtd">
<!-- Generated by graphviz version 2.36.0 (20140111.2315)
 -->
<!-- Title: MexIFace.cpp Pages: 1 -->
<!--zoomable 318 -->
<svg id="main" version="1.1" xmlns="http://www.w3.org/2000/svg" xmlns:xlink="http://www.w3.org/1999/xlink" xml:space="preserve" onload="init(evt)">
<style type="text/css"><![CDATA[
.edge:hover path { stroke: red; }
.edge:hover polygon { stroke: red; fill: red; }
]]></style>
<script type="text/javascript"><![CDATA[
var edges = document.getElementsByTagName('g');
if (edges && edges.length) {
  for (var i=0;i<edges.length;i++) {
    if (edges[i].id.substr(0,4)=='edge') {
      edges[i].setAttribute('class','edge');
    }
  }
}
]]></script>
        <defs>
                <circle id="rim" cx="0" cy="0" r="7"/>
                <circle id="rim2" cx="0" cy="0" r="3.5"/>
                <g id="zoomPlus">
                        <use xlink:href="#rim" fill="#404040">
                                <set attributeName="fill" to="#808080" begin="zoomplus.mouseover" end="zoomplus.mouseout"/>
                        </use>
                        <path d="M-4,0h8M0,-4v8" fill="none" stroke="white" stroke-width="1.5" pointer-events="none"/>
                </g>
                <g id="zoomMin">
                        <use xlink:href="#rim" fill="#404040">
                                <set attributeName="fill" to="#808080" begin="zoomminus.mouseover" end="zoomminus.mouseout"/>
                        </use>
                        <path d="M-4,0h8" fill="none" stroke="white" stroke-width="1.5" pointer-events="none"/>
                </g>
                <g id="dirArrow">
                        <path fill="none" stroke="white" stroke-width="1.5" d="M0,-3.0v7 M-2.5,-0.5L0,-3.0L2.5,-0.5"/>
                </g>
               <g id="resetDef">
                       <use xlink:href="#rim2" fill="#404040">
                               <set attributeName="fill" to="#808080" begin="reset.mouseover" end="reset.mouseout"/>
                       </use>
               </g>
        </defs>

<script type="text/javascript">
var viewWidth = 849;
var viewHeight = 318;
var sectionId = 'dynsection-0';
</script>
<script xlink:href="svgpan.js"/>
<svg id="graph" class="graph">
<g id="viewport">
<title>MexIFace.cpp</title>
<polygon fill="white" stroke="none" points="-4,4 -4,-314 844.761,-314 844.761,4 -4,4"/>
<!-- Node1 -->
<g id="node1" class="node"><title>Node1</title>
<polygon fill="#bfbfbf" stroke="black" points="213.761,-291 213.761,-309 287.761,-309 287.761,-291 213.761,-291"/>
<text text-anchor="middle" x="250.761" y="-297.8" font-family="Helvetica,sans-Serif" font-size="9.00">MexIFace.cpp</text>
</g>
<!-- Node2 -->
<g id="node2" class="node"><title>Node2</title>
<g id="a_node2"><a xlink:href="MexIFace_8h.html" target="_top" xlink:title="The class declaration and inline and templated functions for MexIFace. ">
<polygon fill="white" stroke="black" points="315.761,-235 315.761,-253 421.761,-253 421.761,-235 315.761,-235"/>
<text text-anchor="middle" x="368.761" y="-241.8" font-family="Helvetica,sans-Serif" font-size="9.00">MexIFace/MexIFace.h</text>
</a>
</g>
</g>
<!-- Node1&#45;&gt;Node2 -->
<g id="edge1" class="edge"><title>Node1&#45;&gt;Node2</title>
<path fill="none" stroke="midnightblue" d="M268.427,-290.916C287.804,-282.048 319.137,-267.709 341.634,-257.414"/>
<polygon fill="midnightblue" stroke="midnightblue" points="343.338,-260.483 350.974,-253.14 340.425,-254.118 343.338,-260.483"/>
</g>
<!-- Node22 -->
<g id="node22" class="node"><title>Node22</title>
<g id="a_node22"><a xlink:href="explore_8h.html" target="_top" xlink:title="MexIFace/explore.h">
<polygon fill="white" stroke="black" points="84.2608,-235 84.2608,-253 181.261,-253 181.261,-235 84.2608,-235"/>
<text text-anchor="middle" x="132.761" y="-241.8" font-family="Helvetica,sans-Serif" font-size="9.00">MexIFace/explore.h</text>
</a>
</g>
</g>
<!-- Node1&#45;&gt;Node22 -->
<g id="edge34" class="edge"><title>Node1&#45;&gt;Node22</title>
<path fill="none" stroke="midnightblue" d="M233.095,-290.916C213.717,-282.048 182.385,-267.709 159.887,-257.414"/>
<polygon fill="midnightblue" stroke="midnightblue" points="161.097,-254.118 150.547,-253.14 158.184,-260.483 161.097,-254.118"/>
</g>
<!-- Node3 -->
<g id="node3" class="node"><title>Node3</title>
<polygon fill="white" stroke="#bfbfbf" points="700.261,-179 700.261,-197 749.261,-197 749.261,-179 700.261,-179"/>
<text text-anchor="middle" x="724.761" y="-185.8" font-family="Helvetica,sans-Serif" font-size="9.00">sstream</text>
</g>
<!-- Node2&#45;&gt;Node3 -->
<g id="edge2" class="edge"><title>Node2&#45;&gt;Node3</title>
<path fill="none" stroke="midnightblue" d="M421.892,-237.405C485.807,-230.248 596.193,-216.528 689.761,-198 689.865,-197.979 689.969,-197.959 690.073,-197.938"/>
<polygon fill="midnightblue" stroke="midnightblue" points="690.979,-201.322 699.983,-195.738 689.463,-194.488 690.979,-201.322"/>
</g>
<!-- Node4 -->
<g id="node4" class="node"><title>Node4</title>
<polygon fill="white" stroke="#bfbfbf" points="806.261,-179 806.261,-197 841.261,-197 841.261,-179 806.261,-179"/>
<text text-anchor="middle" x="823.761" y="-185.8" font-family="Helvetica,sans-Serif" font-size="9.00">map</text>
</g>
<!-- Node2&#45;&gt;Node4 -->
<g id="edge3" class="edge"><title>Node2&#45;&gt;Node4</title>
<path fill="none" stroke="midnightblue" d="M421.939,-240.219C502.525,-235.36 660.134,-223.325 791.761,-198 793.213,-197.721 794.695,-197.407 796.187,-197.069"/>
<polygon fill="midnightblue" stroke="midnightblue" points="797.121,-200.443 805.948,-194.582 795.393,-193.659 797.121,-200.443"/>
</g>
<!-- Node5 -->
<g id="node5" class="node"><title>Node5</title>
<polygon fill="white" stroke="#bfbfbf" points="32.2608,-123 32.2608,-141 73.2608,-141 73.2608,-123 32.2608,-123"/>
<text text-anchor="middle" x="52.7608" y="-129.8" font-family="Helvetica,sans-Serif" font-size="9.00">vector</text>
</g>
<!-- Node2&#45;&gt;Node5 -->
<g id="edge4" class="edge"><title>Node2&#45;&gt;Node5</title>
<path fill="none" stroke="midnightblue" d="M315.575,-239.758C245.344,-234.581 126.395,-222.437 90.7608,-198 74.4523,-186.816 64.1485,-166.151 58.4476,-151.117"/>
<polygon fill="midnightblue" stroke="midnightblue" points="61.6589,-149.693 55.09,-141.38 55.0414,-151.975 61.6589,-149.693"/>
</g>
<!-- Node6 -->
<g id="node6" class="node"><title>Node6</title>
<polygon fill="white" stroke="#bfbfbf" points="505.261,-179 505.261,-197 534.261,-197 534.261,-179 505.261,-179"/>
<text text-anchor="middle" x="519.761" y="-185.8" font-family="Helvetica,sans-Serif" font-size="9.00">list</text>
</g>
<!-- Node2&#45;&gt;Node6 -->
<g id="edge5" class="edge"><title>Node2&#45;&gt;Node6</title>
<path fill="none" stroke="midnightblue" d="M391.749,-234.996C415.432,-226.72 453.638,-213.284 495.498,-198.05"/>
<polygon fill="midnightblue" stroke="midnightblue" points="496.858,-201.279 505.053,-194.564 494.459,-194.703 496.858,-201.279"/>
</g>
<!-- Node7 -->
<g id="node7" class="node"><title>Node7</title>
<polygon fill="white" stroke="#bfbfbf" points="552.261,-179 552.261,-197 607.261,-197 607.261,-179 552.261,-179"/>
<text text-anchor="middle" x="579.761" y="-185.8" font-family="Helvetica,sans-Serif" font-size="9.00">algorithm</text>
</g>
<!-- Node2&#45;&gt;Node7 -->
<g id="edge6" class="edge"><title>Node2&#45;&gt;Node7</title>
<path fill="none" stroke="midnightblue" d="M400.35,-234.916C438.292,-225.205 501.865,-208.936 542.261,-198.597"/>
<polygon fill="midnightblue" stroke="midnightblue" points="543.182,-201.974 552.002,-196.104 541.446,-195.193 543.182,-201.974"/>
</g>
<!-- Node8 -->
<g id="node8" class="node"><title>Node8</title>
<polygon fill="white" stroke="#bfbfbf" points="625.761,-179 625.761,-197 681.761,-197 681.761,-179 625.761,-179"/>
<text text-anchor="middle" x="653.761" y="-185.8" font-family="Helvetica,sans-Serif" font-size="9.00">functional</text>
</g>
<!-- Node2&#45;&gt;Node8 -->
<g id="edge7" class="edge"><title>Node2&#45;&gt;Node8</title>
<path fill="none" stroke="midnightblue" d="M417.182,-234.949C467.088,-226.472 547.074,-212.381 615.761,-198 615.86,-197.979 615.96,-197.958 616.06,-197.937"/>
<polygon fill="midnightblue" stroke="midnightblue" points="616.559,-201.411 625.576,-195.849 615.058,-194.574 616.559,-201.411"/>
</g>
<!-- Node9 -->
<g id="node9" class="node"><title>Node9</title>
<polygon fill="white" stroke="#bfbfbf" points="198.261,-123 198.261,-141 253.261,-141 253.261,-123 198.261,-123"/>
<text text-anchor="middle" x="225.761" y="-129.8" font-family="Helvetica,sans-Serif" font-size="9.00">armadillo</text>
</g>
<!-- Node2&#45;&gt;Node9 -->
<g id="edge8" class="edge"><title>Node2&#45;&gt;Node9</title>
<path fill="none" stroke="midnightblue" d="M339.285,-234.873C317.683,-227.803 288.612,-215.855 267.761,-198 252.486,-184.921 240.716,-164.917 233.573,-150.556"/>
<polygon fill="midnightblue" stroke="midnightblue" points="236.631,-148.834 229.206,-141.276 230.298,-151.815 236.631,-148.834"/>
</g>
<!-- Node10 -->
<g id="node10" class="node"><title>Node10</title>
<polygon fill="white" stroke="#bfbfbf" points="353.261,-6 353.261,-24 394.261,-24 394.261,-6 353.261,-6"/>
<text text-anchor="middle" x="373.761" y="-12.8" font-family="Helvetica,sans-Serif" font-size="9.00">mex.h</text>
</g>
<!-- Node2&#45;&gt;Node10 -->
<g id="edge9" class="edge"><title>Node2&#45;&gt;Node10</title>
<path fill="none" stroke="midnightblue" d="M360.882,-234.946C336.851,-209.37 268.064,-128.027 300.761,-66 309.923,-48.62 328.151,-36.126 344.1,-27.974"/>
<polygon fill="midnightblue" stroke="midnightblue" points="345.615,-31.1292 353.141,-23.6719 342.607,-24.8083 345.615,-31.1292"/>
</g>
<!-- Node11 -->
<g id="node11" class="node"><title>Node11</title>
<g id="a_node11"><a xlink:href="MexIFaceError_8h.html" target="_top" xlink:title="Exception classes for MexIFace. ">
<polygon fill="white" stroke="black" points="38.7608,-67 38.7608,-85 164.761,-85 164.761,-67 38.7608,-67"/>
<text text-anchor="middle" x="101.761" y="-73.8" font-family="Helvetica,sans-Serif" font-size="9.00">MexIFace/MexIFaceError.h</text>
</a>
</g>
</g>
<!-- Node2&#45;&gt;Node11 -->
<g id="edge10" class="edge"><title>Node2&#45;&gt;Node11</title>
<path fill="none" stroke="midnightblue" d="M315.729,-239.617C241.19,-234.098 109.931,-221.355 68.7608,-198 34.4185,-178.519 2.91985,-156.136 22.7608,-122 31.7597,-106.518 48.2984,-95.9197 63.9266,-88.9179"/>
<polygon fill="midnightblue" stroke="midnightblue" points="65.5368,-92.0407 73.4641,-85.0115 62.8836,-85.563 65.5368,-92.0407"/>
</g>
<!-- Node13 -->
<g id="node13" class="node"><title>Node13</title>
<g id="a_node13"><a xlink:href="hypercube_8h.html" target="_top" xlink:title="The class declaration and inline and templated functions for hypercube. ">
<polygon fill="white" stroke="black" points="99.7608,-179 99.7608,-197 209.761,-197 209.761,-179 99.7608,-179"/>
<text text-anchor="middle" x="154.761" y="-185.8" font-family="Helvetica,sans-Serif" font-size="9.00">MexIFace/hypercube.h</text>
</a>
</g>
</g>
<!-- Node2&#45;&gt;Node13 -->
<g id="edge12" class="edge"><title>Node2&#45;&gt;Node13</title>
<path fill="none" stroke="midnightblue" d="M336.723,-234.916C299.345,-225.484 237.441,-209.863 196.375,-199.501"/>
<polygon fill="midnightblue" stroke="midnightblue" points="197.22,-196.104 186.668,-197.051 195.507,-202.892 197.22,-196.104"/>
</g>
<!-- Node15 -->
<g id="node15" class="node"><title>Node15</title>
<g id="a_node15"><a xlink:href="MexUtils_8h.html" target="_top" xlink:title="Helper functions for working with Matlab mxArrays and mxClassIDs. ">
<polygon fill="white" stroke="black" points="644.261,-67 644.261,-85 745.261,-85 745.261,-67 644.261,-67"/>
<text text-anchor="middle" x="694.761" y="-73.8" font-family="Helvetica,sans-Serif" font-size="9.00">MexIFace/MexUtils.h</text>
</a>
</g>
</g>
<!-- Node2&#45;&gt;Node15 -->
<g id="edge17" class="edge"><title>Node2&#45;&gt;Node15</title>
<path fill="none" stroke="midnightblue" d="M421.908,-240.711C523.194,-235.801 735.798,-222.65 757.761,-198 787.031,-165.148 740.639,-116.253 712.987,-91.9017"/>
<polygon fill="midnightblue" stroke="midnightblue" points="714.989,-89.009 705.111,-85.1773 710.443,-94.3325 714.989,-89.009"/>
</g>
<!-- Node18 -->
<g id="node18" class="node"><title>Node18</title>
<g id="a_node18"><a xlink:href="MexIFaceBase_8h.html" target="_top" xlink:title="class MexIFaceBase declaration. ">
<polygon fill="white" stroke="black" points="310.261,-67 310.261,-85 437.261,-85 437.261,-67 310.261,-67"/>
<text text-anchor="middle" x="373.761" y="-73.8" font-family="Helvetica,sans-Serif" font-size="9.00">MexIFace/MexIFaceBase.h</text>
</a>
</g>
</g>
<!-- Node2&#45;&gt;Node18 -->
<g id="edge21" class="edge"><title>Node2&#45;&gt;Node18</title>
<path fill="none" stroke="midnightblue" d="M361.105,-234.828C353.745,-226.362 343.114,-212.379 338.761,-198 327.56,-161.007 348.51,-117.416 362.555,-93.9725"/>
<polygon fill="midnightblue" stroke="midnightblue" points="365.686,-95.5674 368.037,-85.2368 359.757,-91.8464 365.686,-95.5674"/>
</g>
<!-- Node19 -->
<g id="node19" class="node"><title>Node19</title>
<g id="a_node19"><a xlink:href="MexIFaceHandler_8h.html" target="_top" xlink:title="class MexIFaceBase declaration. ">
<polygon fill="white" stroke="black" points="348.261,-179 348.261,-197 487.261,-197 487.261,-179 348.261,-179"/>
<text text-anchor="middle" x="417.761" y="-185.8" font-family="Helvetica,sans-Serif" font-size="9.00">MexIFace/MexIFaceHandler.h</text>
</a>
</g>
</g>
<!-- Node2&#45;&gt;Node19 -->
<g id="edge24" class="edge"><title>Node2&#45;&gt;Node19</title>
<path fill="none" stroke="midnightblue" d="M376.417,-234.562C383.651,-226.591 394.682,-214.434 403.53,-204.683"/>
<polygon fill="midnightblue" stroke="midnightblue" points="406.191,-206.959 410.319,-197.201 401.007,-202.255 406.191,-206.959"/>
</g>
<!-- Node12 -->
<g id="node12" class="node"><title>Node12</title>
<polygon fill="white" stroke="#bfbfbf" points="48.2608,-1 48.2608,-29 155.261,-29 155.261,-1 48.2608,-1"/>
<text text-anchor="start" x="56.2608" y="-17.8" font-family="Helvetica,sans-Serif" font-size="9.00">BacktraceException</text>
<text text-anchor="middle" x="101.761" y="-7.8" font-family="Helvetica,sans-Serif" font-size="9.00">/BacktraceException.h</text>
</g>
<!-- Node11&#45;&gt;Node12 -->
<g id="edge11" class="edge"><title>Node11&#45;&gt;Node12</title>
<path fill="none" stroke="midnightblue" d="M101.761,-66.7963C101.761,-59.7107 101.761,-49.1152 101.761,-39.4315"/>
<polygon fill="midnightblue" stroke="midnightblue" points="105.261,-39.1215 101.761,-29.1215 98.2609,-39.1215 105.261,-39.1215"/>
</g>
<!-- Node13&#45;&gt;Node5 -->
<g id="edge15" class="edge"><title>Node13&#45;&gt;Node5</title>
<path fill="none" stroke="midnightblue" d="M139.269,-178.799C122.773,-170.065 96.4382,-156.123 77.1533,-145.914"/>
<polygon fill="midnightblue" stroke="midnightblue" points="78.5395,-142.687 68.0639,-141.102 75.2642,-148.874 78.5395,-142.687"/>
</g>
<!-- Node13&#45;&gt;Node9 -->
<g id="edge13" class="edge"><title>Node13&#45;&gt;Node9</title>
<path fill="none" stroke="midnightblue" d="M165.544,-178.799C176.491,-170.473 193.663,-157.413 206.873,-147.366"/>
<polygon fill="midnightblue" stroke="midnightblue" points="209.035,-150.118 214.876,-141.279 204.798,-144.547 209.035,-150.118"/>
</g>
<!-- Node13&#45;&gt;Node11 -->
<g id="edge16" class="edge"><title>Node13&#45;&gt;Node11</title>
<path fill="none" stroke="midnightblue" d="M147.256,-178.987C139.607,-170.429 127.884,-156.173 120.761,-142 113.254,-127.063 108.225,-108.667 105.236,-95.262"/>
<polygon fill="midnightblue" stroke="midnightblue" points="108.643,-94.4494 103.197,-85.3612 101.787,-95.8617 108.643,-94.4494"/>
</g>
<!-- Node14 -->
<g id="node14" class="node"><title>Node14</title>
<polygon fill="white" stroke="#bfbfbf" points="129.761,-123 129.761,-141 179.761,-141 179.761,-123 129.761,-123"/>
<text text-anchor="middle" x="154.761" y="-129.8" font-family="Helvetica,sans-Serif" font-size="9.00">memory</text>
</g>
<!-- Node13&#45;&gt;Node14 -->
<g id="edge14" class="edge"><title>Node13&#45;&gt;Node14</title>
<path fill="none" stroke="midnightblue" d="M154.761,-178.562C154.761,-171.308 154.761,-160.588 154.761,-151.369"/>
<polygon fill="midnightblue" stroke="midnightblue" points="158.261,-151.201 154.761,-141.201 151.261,-151.201 158.261,-151.201"/>
</g>
<!-- Node15&#45;&gt;Node10 -->
<g id="edge20" class="edge"><title>Node15&#45;&gt;Node10</title>
<path fill="none" stroke="midnightblue" d="M651.135,-66.9816C585.132,-54.8502 461.535,-32.133 404.295,-21.6122"/>
<polygon fill="midnightblue" stroke="midnightblue" points="404.876,-18.1605 394.408,-19.795 403.611,-25.0452 404.876,-18.1605"/>
</g>
<!-- Node16 -->
<g id="node16" class="node"><title>Node16</title>
<polygon fill="white" stroke="#bfbfbf" points="644.261,-6 644.261,-24 687.261,-24 687.261,-6 644.261,-6"/>
<text text-anchor="middle" x="665.761" y="-12.8" font-family="Helvetica,sans-Serif" font-size="9.00">cstdint</text>
</g>
<!-- Node15&#45;&gt;Node16 -->
<g id="edge18" class="edge"><title>Node15&#45;&gt;Node16</title>
<path fill="none" stroke="midnightblue" d="M690.728,-66.7963C686.486,-58.1661 679.685,-44.329 674.252,-33.2746"/>
<polygon fill="midnightblue" stroke="midnightblue" points="677.311,-31.5646 669.759,-24.134 671.029,-34.6525 677.311,-31.5646"/>
</g>
<!-- Node17 -->
<g id="node17" class="node"><title>Node17</title>
<polygon fill="white" stroke="#bfbfbf" points="558.261,-6 558.261,-24 597.261,-24 597.261,-6 558.261,-6"/>
<text text-anchor="middle" x="577.761" y="-12.8" font-family="Helvetica,sans-Serif" font-size="9.00">string</text>
</g>
<!-- Node15&#45;&gt;Node17 -->
<g id="edge19" class="edge"><title>Node15&#45;&gt;Node17</title>
<path fill="none" stroke="midnightblue" d="M678.492,-66.7963C658.933,-56.9332 625.888,-40.2693 603.006,-28.7306"/>
<polygon fill="midnightblue" stroke="midnightblue" points="604.396,-25.5116 593.891,-24.134 601.244,-31.7619 604.396,-25.5116"/>
</g>
<!-- Node18&#45;&gt;Node10 -->
<g id="edge23" class="edge"><title>Node18&#45;&gt;Node10</title>
<path fill="none" stroke="midnightblue" d="M373.761,-66.7963C373.761,-58.4303 373.761,-45.1713 373.761,-34.2974"/>
<polygon fill="midnightblue" stroke="midnightblue" points="377.261,-34.134 373.761,-24.134 370.261,-34.1341 377.261,-34.134"/>
</g>
<!-- Node18&#45;&gt;Node17 -->
<g id="edge22" class="edge"><title>Node18&#45;&gt;Node17</title>
<path fill="none" stroke="midnightblue" d="M401.698,-66.92C440.164,-55.7952 509.118,-35.8526 548.346,-24.5071"/>
<polygon fill="midnightblue" stroke="midnightblue" points="549.474,-27.8245 558.108,-21.6839 547.529,-21.1001 549.474,-27.8245"/>
</g>
<!-- Node19&#45;&gt;Node15 -->
<g id="edge33" class="edge"><title>Node19&#45;&gt;Node15</title>
<path fill="none" stroke="midnightblue" d="M456.354,-178.942C489.519,-171.379 538.255,-158.728 578.761,-142 613.829,-127.517 651.682,-104.839 674.289,-90.4579"/>
<polygon fill="midnightblue" stroke="midnightblue" points="676.206,-93.3866 682.718,-85.0294 672.416,-87.5014 676.206,-93.3866"/>
</g>
<!-- Node19&#45;&gt;Node18 -->
<g id="edge32" class="edge"><title>Node19&#45;&gt;Node18</title>
<path fill="none" stroke="midnightblue" d="M414.454,-178.732C407.316,-160.887 390.336,-118.437 380.717,-94.3913"/>
<polygon fill="midnightblue" stroke="midnightblue" points="383.95,-93.0498 376.987,-85.0649 377.451,-95.6495 383.95,-93.0498"/>
</g>
<!-- Node20 -->
<g id="node20" class="node"><title>Node20</title>
<g id="a_node20"><a xlink:href="Handle_8h.html" target="_top" xlink:title="Helper class and templated functions to represent and manipulate Handles to C++ objects as Matlab mxA...">
<polygon fill="white" stroke="black" points="473.761,-123 473.761,-141 569.761,-141 569.761,-123 473.761,-123"/>
<text text-anchor="middle" x="521.761" y="-129.8" font-family="Helvetica,sans-Serif" font-size="9.00">MexIFace/Handle.h</text>
</a>
</g>
</g>
<!-- Node19&#45;&gt;Node20 -->
<g id="edge25" class="edge"><title>Node19&#45;&gt;Node20</title>
<path fill="none" stroke="midnightblue" d="M433.556,-178.799C450.452,-170.026 477.472,-155.996 497.159,-145.774"/>
<polygon fill="midnightblue" stroke="midnightblue" points="498.895,-148.816 506.158,-141.102 495.67,-142.604 498.895,-148.816"/>
</g>
<!-- Node20&#45;&gt;Node10 -->
<g id="edge29" class="edge"><title>Node20&#45;&gt;Node10</title>
<path fill="none" stroke="midnightblue" d="M512.652,-122.686C498.636,-110.014 470.776,-85.3054 445.761,-66 428.999,-53.0645 409.191,-39.4215 394.598,-29.6604"/>
<polygon fill="midnightblue" stroke="midnightblue" points="396.527,-26.7399 386.26,-24.1255 392.656,-32.572 396.527,-26.7399"/>
</g>
<!-- Node20&#45;&gt;Node11 -->
<g id="edge30" class="edge"><title>Node20&#45;&gt;Node11</title>
<path fill="none" stroke="midnightblue" d="M473.581,-124.806C400.181,-115.368 259.858,-97.3268 174.156,-86.308"/>
<polygon fill="midnightblue" stroke="midnightblue" points="174.349,-82.804 163.984,-85.0001 173.456,-89.7468 174.349,-82.804"/>
</g>
<!-- Node20&#45;&gt;Node15 -->
<g id="edge31" class="edge"><title>Node20&#45;&gt;Node15</title>
<path fill="none" stroke="midnightblue" d="M547.661,-122.916C577.302,-113.663 626.024,-98.4553 659.206,-88.098"/>
<polygon fill="midnightblue" stroke="midnightblue" points="660.464,-91.372 668.967,-85.0513 658.378,-84.69 660.464,-91.372"/>
</g>
<!-- Node20&#45;&gt;Node16 -->
<g id="edge26" class="edge"><title>Node20&#45;&gt;Node16</title>
<path fill="none" stroke="midnightblue" d="M532.117,-122.729C556.299,-103.417 616.746,-55.144 647.366,-30.6902"/>
<polygon fill="midnightblue" stroke="midnightblue" points="649.869,-33.1708 655.498,-24.1956 645.5,-27.701 649.869,-33.1708"/>
</g>
<!-- Node20&#45;&gt;Node17 -->
<g id="edge27" class="edge"><title>Node20&#45;&gt;Node17</title>
<path fill="none" stroke="midnightblue" d="M530.054,-122.763C538.191,-114.246 550.418,-100.224 557.761,-86 566.269,-69.5167 571.595,-48.9259 574.592,-34.355"/>
<polygon fill="midnightblue" stroke="midnightblue" points="578.102,-34.6282 576.511,-24.1534 571.222,-33.3337 578.102,-34.6282"/>
</g>
<!-- Node21 -->
<g id="node21" class="node"><title>Node21</title>
<polygon fill="white" stroke="#bfbfbf" points="493.761,-67 493.761,-85 549.761,-85 549.761,-67 493.761,-67"/>
<text text-anchor="middle" x="521.761" y="-73.8" font-family="Helvetica,sans-Serif" font-size="9.00">typeindex</text>
</g>
<!-- Node20&#45;&gt;Node21 -->
<g id="edge28" class="edge"><title>Node20&#45;&gt;Node21</title>
<path fill="none" stroke="midnightblue" d="M521.761,-122.562C521.761,-115.308 521.761,-104.588 521.761,-95.3691"/>
<polygon fill="midnightblue" stroke="midnightblue" points="525.261,-95.2014 521.761,-85.2014 518.261,-95.2015 525.261,-95.2014"/>
</g>
<!-- Node22&#45;&gt;Node10 -->
<g id="edge35" class="edge"><title>Node22&#45;&gt;Node10</title>
<path fill="none" stroke="midnightblue" d="M100.342,-234.951C79.2087,-228.215 52.3812,-216.638 34.7608,-198 -5.5713,-155.338 -14.754,-104.277 29.7608,-66 53.3606,-45.707 262.315,-25.6506 342.563,-18.6276"/>
<polygon fill="midnightblue" stroke="midnightblue" points="343.339,-22.0736 353,-17.7244 342.735,-15.0997 343.339,-22.0736"/>
</g>
</g>
</svg>
        <g id="navigator" transform="translate(0 0)" fill="#404254">
                <rect fill="#f2f5e9" fill-opacity="0.5" stroke="#606060" stroke-width=".5" x="0" y="0" width="60" height="60"/>
                <use id="zoomplus" xlink:href="#zoomPlus" x="17" y="9" onmousedown="handleZoom(evt,'in')"/>
                <use id="zoomminus" xlink:href="#zoomMin" x="42" y="9" onmousedown="handleZoom(evt,'out')"/>
                <use id="reset" xlink:href="#resetDef" x="30" y="36" onmousedown="handleReset()"/>
                <g id="arrowUp" xlink:href="#dirArrow" transform="translate(30 24)" onmousedown="handlePan(0,-1)">
                  <use xlink:href="#rim" fill="#404040">
                        <set attributeName="fill" to="#808080" begin="arrowUp.mouseover" end="arrowUp.mouseout"/>
                  </use>
                  <path fill="none" stroke="white" stroke-width="1.5" d="M0,-3.0v7 M-2.5,-0.5L0,-3.0L2.5,-0.5"/>
                </g>
                <g id="arrowRight" xlink:href="#dirArrow" transform="rotate(90) translate(36 -43)" onmousedown="handlePan(1,0)">
                  <use xlink:href="#rim" fill="#404040">
                        <set attributeName="fill" to="#808080" begin="arrowRight.mouseover" end="arrowRight.mouseout"/>
                  </use>
                  <path fill="none" stroke="white" stroke-width="1.5" d="M0,-3.0v7 M-2.5,-0.5L0,-3.0L2.5,-0.5"/>
                </g>
                <g id="arrowDown" xlink:href="#dirArrow" transform="rotate(180) translate(-30 -48)" onmousedown="handlePan(0,1)">
                  <use xlink:href="#rim" fill="#404040">
                        <set attributeName="fill" to="#808080" begin="arrowDown.mouseover" end="arrowDown.mouseout"/>
                  </use>
                  <path fill="none" stroke="white" stroke-width="1.5" d="M0,-3.0v7 M-2.5,-0.5L0,-3.0L2.5,-0.5"/>
                </g>
                <g id="arrowLeft" xlink:href="#dirArrow" transform="rotate(270) translate(-36 17)" onmousedown="handlePan(-1,0)">
                  <use xlink:href="#rim" fill="#404040">
                        <set attributeName="fill" to="#808080" begin="arrowLeft.mouseover" end="arrowLeft.mouseout"/>
                  </use>
                  <path fill="none" stroke="white" stroke-width="1.5" d="M0,-3.0v7 M-2.5,-0.5L0,-3.0L2.5,-0.5"/>
                </g>
        </g>
        <svg viewBox="0 0 15 15" width="100%" height="30px" preserveAspectRatio="xMaxYMin meet">
         <g id="arrow_out" transform="scale(0.3 0.3)">
          <a xlink:href="MexIFace_8cpp__incl_org.svg" target="_base">
           <rect id="button" ry="5" rx="5" y="6" x="6" height="38" width="38"
                fill="#f2f5e9" fill-opacity="0.5" stroke="#606060" stroke-width="1.0"/>
           <path id="arrow"
             d="M 11.500037,31.436501 C 11.940474,20.09759 22.043105,11.32322 32.158766,21.979434 L 37.068811,17.246167 C 37.068811,17.246167 37.088388,32 37.088388,32 L 22.160133,31.978069 C 22.160133,31.978069 26.997745,27.140456 26.997745,27.140456 C 18.528582,18.264221 13.291696,25.230495 11.500037,31.436501 z"
             style="fill:#404040;"/>
          </a>
         </g>
        </svg>
</svg>
