<?xml version="1.0" encoding="UTF-8" standalone="no"?>
<!DOCTYPE svg PUBLIC "-//W3C//DTD SVG 1.1//EN"
 "http://www.w3.org/Graphics/SVG/1.1/DTD/svg11.dtd">
<!-- Generated by graphviz version 2.36.0 (20140111.2315)
 -->
<!-- Title: MexIFaceBase.h Pages: 1 -->
<svg width="137pt" height="196pt"
 viewBox="0.00 0.00 137.00 196.00" xmlns="http://www.w3.org/2000/svg" xmlns:xlink="http://www.w3.org/1999/xlink">
<g id="graph0" class="graph" transform="scale(1 1) rotate(0) translate(4 192)">
<title>MexIFaceBase.h</title>
<polygon fill="white" stroke="none" points="-4,4 -4,-192 133,-192 133,4 -4,4"/>
<!-- Node1 -->
<g id="node1" class="node"><title>Node1</title>
<polygon fill="#bfbfbf" stroke="black" points="-0.5,-169 -0.5,-187 84.5,-187 84.5,-169 -0.5,-169"/>
<text text-anchor="middle" x="42" y="-175.8" font-family="Helvetica,sans-Serif" font-size="9.00">MexIFaceBase.h</text>
</g>
<!-- Node2 -->
<g id="node2" class="node"><title>Node2</title>
<g id="a_node2"><a xlink:href="MexIFace_8h.html" target="_top" xlink:title="The class declaration and inline and templated functions for MexIFace. ">
<polygon fill="white" stroke="black" points="10,-57 10,-75 74,-75 74,-57 10,-57"/>
<text text-anchor="middle" x="42" y="-63.8" font-family="Helvetica,sans-Serif" font-size="9.00">MexIFace.h</text>
</a>
</g>
</g>
<!-- Node1&#45;&gt;Node2 -->
<g id="edge1" class="edge"><title>Node1&#45;&gt;Node2</title>
<path fill="none" stroke="midnightblue" d="M33.3287,-159.798C29.6689,-151.602 25.8349,-141.528 24,-132 20.0142,-111.303 30.5324,-87.5764 37.1288,-75.3125"/>
<polygon fill="midnightblue" stroke="midnightblue" points="30.2477,-161.469 37.7078,-168.992 36.5675,-158.459 30.2477,-161.469"/>
</g>
<!-- Node4 -->
<g id="node4" class="node"><title>Node4</title>
<g id="a_node4"><a xlink:href="MexIFaceHandler_8h.html" target="_top" xlink:title="class MexIFaceBase declaration. ">
<polygon fill="white" stroke="black" points="32.5,-113 32.5,-131 129.5,-131 129.5,-113 32.5,-113"/>
<text text-anchor="middle" x="81" y="-119.8" font-family="Helvetica,sans-Serif" font-size="9.00">MexIFaceHandler.h</text>
</a>
</g>
</g>
<!-- Node1&#45;&gt;Node4 -->
<g id="edge3" class="edge"><title>Node1&#45;&gt;Node4</title>
<path fill="none" stroke="midnightblue" d="M53.963,-160.436C60.9627,-150.744 69.4936,-138.932 75.0767,-131.201"/>
<polygon fill="midnightblue" stroke="midnightblue" points="51.1113,-158.406 48.0938,-168.562 56.7861,-162.505 51.1113,-158.406"/>
</g>
<!-- Node3 -->
<g id="node3" class="node"><title>Node3</title>
<g id="a_node3"><a xlink:href="MexIFace_8cpp.html" target="_top" xlink:title="The class definition for MexIFace. ">
<polygon fill="white" stroke="black" points="5,-1 5,-19 79,-19 79,-1 5,-1"/>
<text text-anchor="middle" x="42" y="-7.8" font-family="Helvetica,sans-Serif" font-size="9.00">MexIFace.cpp</text>
</a>
</g>
</g>
<!-- Node2&#45;&gt;Node3 -->
<g id="edge2" class="edge"><title>Node2&#45;&gt;Node3</title>
<path fill="none" stroke="midnightblue" d="M42,-46.3288C42,-37.0774 42,-26.3798 42,-19.2014"/>
<polygon fill="midnightblue" stroke="midnightblue" points="38.5001,-46.5625 42,-56.5625 45.5001,-46.5625 38.5001,-46.5625"/>
</g>
<!-- Node4&#45;&gt;Node2 -->
<g id="edge4" class="edge"><title>Node4&#45;&gt;Node2</title>
<path fill="none" stroke="midnightblue" d="M69.037,-104.436C62.0373,-94.744 53.5064,-82.9319 47.9233,-75.2014"/>
<polygon fill="midnightblue" stroke="midnightblue" points="66.2139,-106.505 74.9062,-112.562 71.8887,-102.406 66.2139,-106.505"/>
</g>
</g>
</svg>
