<?xml version="1.0" encoding="UTF-8" standalone="no"?>
<!DOCTYPE svg PUBLIC "-//W3C//DTD SVG 1.1//EN"
 "http://www.w3.org/Graphics/SVG/1.1/DTD/svg11.dtd">
<!-- Generated by graphviz version 2.36.0 (20140111.2315)
 -->
<!-- Title: MexIFaceError.h Pages: 1 -->
<svg width="229pt" height="252pt"
 viewBox="0.00 0.00 229.00 252.00" xmlns="http://www.w3.org/2000/svg" xmlns:xlink="http://www.w3.org/1999/xlink">
<g id="graph0" class="graph" transform="scale(1 1) rotate(0) translate(4 248)">
<title>MexIFaceError.h</title>
<polygon fill="white" stroke="none" points="-4,4 -4,-248 225,-248 225,4 -4,4"/>
<!-- Node1 -->
<g id="node1" class="node"><title>Node1</title>
<polygon fill="#bfbfbf" stroke="black" points="83,-225 83,-243 167,-243 167,-225 83,-225"/>
<text text-anchor="middle" x="125" y="-231.8" font-family="Helvetica,sans-Serif" font-size="9.00">MexIFaceError.h</text>
</g>
<!-- Node2 -->
<g id="node2" class="node"><title>Node2</title>
<g id="a_node2"><a xlink:href="Handle_8h.html" target="_top" xlink:title="Helper class and templated functions to represent and manipulate Handles to C++ objects as Matlab mxA...">
<polygon fill="white" stroke="black" points="32,-169 32,-187 86,-187 86,-169 32,-169"/>
<text text-anchor="middle" x="59" y="-175.8" font-family="Helvetica,sans-Serif" font-size="9.00">Handle.h</text>
</a>
</g>
</g>
<!-- Node1&#45;&gt;Node2 -->
<g id="edge1" class="edge"><title>Node1&#45;&gt;Node2</title>
<path fill="none" stroke="midnightblue" d="M107.204,-218.44C94.9952,-208.451 79.2327,-195.554 69.1183,-187.279"/>
<polygon fill="midnightblue" stroke="midnightblue" points="105.02,-221.175 114.976,-224.799 109.453,-215.757 105.02,-221.175"/>
</g>
<!-- Node4 -->
<g id="node4" class="node"><title>Node4</title>
<g id="a_node4"><a xlink:href="MexIFace_8h.html" target="_top" xlink:title="The class declaration and inline and templated functions for MexIFace. ">
<polygon fill="white" stroke="black" points="93,-57 93,-75 157,-75 157,-57 93,-57"/>
<text text-anchor="middle" x="125" y="-63.8" font-family="Helvetica,sans-Serif" font-size="9.00">MexIFace.h</text>
</a>
</g>
</g>
<!-- Node1&#45;&gt;Node4 -->
<g id="edge7" class="edge"><title>Node1&#45;&gt;Node4</title>
<path fill="none" stroke="midnightblue" d="M125,-214.586C125,-178.744 125,-100.883 125,-75.3172"/>
<polygon fill="midnightblue" stroke="midnightblue" points="121.5,-214.993 125,-224.993 128.5,-214.994 121.5,-214.993"/>
</g>
<!-- Node6 -->
<g id="node6" class="node"><title>Node6</title>
<g id="a_node6"><a xlink:href="hypercube_8h.html" target="_top" xlink:title="The class declaration and inline and templated functions for hypercube. ">
<polygon fill="white" stroke="black" points="153,-113 153,-131 221,-131 221,-113 153,-113"/>
<text text-anchor="middle" x="187" y="-119.8" font-family="Helvetica,sans-Serif" font-size="9.00">hypercube.h</text>
</a>
</g>
</g>
<!-- Node1&#45;&gt;Node6 -->
<g id="edge5" class="edge"><title>Node1&#45;&gt;Node6</title>
<path fill="none" stroke="midnightblue" d="M134.594,-215.979C148.159,-191.911 172.413,-148.88 182.454,-131.065"/>
<polygon fill="midnightblue" stroke="midnightblue" points="131.521,-214.302 129.66,-224.732 137.619,-217.739 131.521,-214.302"/>
</g>
<!-- Node3 -->
<g id="node3" class="node"><title>Node3</title>
<g id="a_node3"><a xlink:href="MexIFaceHandler_8h.html" target="_top" xlink:title="class MexIFaceBase declaration. ">
<polygon fill="white" stroke="black" points="-0.5,-113 -0.5,-131 96.5,-131 96.5,-113 -0.5,-113"/>
<text text-anchor="middle" x="48" y="-119.8" font-family="Helvetica,sans-Serif" font-size="9.00">MexIFaceHandler.h</text>
</a>
</g>
</g>
<!-- Node2&#45;&gt;Node3 -->
<g id="edge2" class="edge"><title>Node2&#45;&gt;Node3</title>
<path fill="none" stroke="midnightblue" d="M55.2586,-158.633C53.36,-149.313 51.149,-138.459 49.6707,-131.201"/>
<polygon fill="midnightblue" stroke="midnightblue" points="51.8556,-159.462 57.2812,-168.562 58.7147,-158.065 51.8556,-159.462"/>
</g>
<!-- Node3&#45;&gt;Node4 -->
<g id="edge3" class="edge"><title>Node3&#45;&gt;Node4</title>
<path fill="none" stroke="midnightblue" d="M67.9965,-106.976C82.4422,-96.8457 101.448,-83.5171 113.448,-75.1017"/>
<polygon fill="midnightblue" stroke="midnightblue" points="65.8724,-104.191 59.6946,-112.799 69.8916,-109.922 65.8724,-104.191"/>
</g>
<!-- Node5 -->
<g id="node5" class="node"><title>Node5</title>
<g id="a_node5"><a xlink:href="MexIFace_8cpp.html" target="_top" xlink:title="The class definition for MexIFace. ">
<polygon fill="white" stroke="black" points="88,-1 88,-19 162,-19 162,-1 88,-1"/>
<text text-anchor="middle" x="125" y="-7.8" font-family="Helvetica,sans-Serif" font-size="9.00">MexIFace.cpp</text>
</a>
</g>
</g>
<!-- Node4&#45;&gt;Node5 -->
<g id="edge4" class="edge"><title>Node4&#45;&gt;Node5</title>
<path fill="none" stroke="midnightblue" d="M125,-46.3288C125,-37.0774 125,-26.3798 125,-19.2014"/>
<polygon fill="midnightblue" stroke="midnightblue" points="121.5,-46.5625 125,-56.5625 128.5,-46.5625 121.5,-46.5625"/>
</g>
<!-- Node6&#45;&gt;Node4 -->
<g id="edge6" class="edge"><title>Node6&#45;&gt;Node4</title>
<path fill="none" stroke="midnightblue" d="M169.951,-106.151C158.529,-96.203 143.915,-83.4744 134.505,-75.2786"/>
<polygon fill="midnightblue" stroke="midnightblue" points="167.744,-108.87 177.584,-112.799 172.341,-103.591 167.744,-108.87"/>
</g>
</g>
</svg>
