<?xml version="1.0" encoding="UTF-8" standalone="no"?>
<!DOCTYPE svg PUBLIC "-//W3C//DTD SVG 1.1//EN"
 "http://www.w3.org/Graphics/SVG/1.1/DTD/svg11.dtd">
<!-- Generated by graphviz version 2.38.0 (20140413.2041)
 -->
<!-- Title: MexIFace.h Pages: 1 -->
<svg width="873pt" height="257pt"
 viewBox="0.00 0.00 872.50 257.00" xmlns="http://www.w3.org/2000/svg" xmlns:xlink="http://www.w3.org/1999/xlink">
<g id="graph0" class="graph" transform="scale(1 1) rotate(0) translate(4 253)">
<title>MexIFace.h</title>
<polygon fill="white" stroke="none" points="-4,4 -4,-253 868.5,-253 868.5,4 -4,4"/>
<!-- Node1 -->
<g id="node1" class="node"><title>Node1</title>
<polygon fill="#bfbfbf" stroke="black" points="430.5,-230.5 430.5,-248.5 494.5,-248.5 494.5,-230.5 430.5,-230.5"/>
<text text-anchor="middle" x="462.5" y="-237.3" font-family="Helvetica,sans-Serif" font-size="9.00">MexIFace.h</text>
</g>
<!-- Node2 -->
<g id="node2" class="node"><title>Node2</title>
<polygon fill="white" stroke="#bfbfbf" points="0,-175.5 0,-193.5 49,-193.5 49,-175.5 0,-175.5"/>
<text text-anchor="middle" x="24.5" y="-182.3" font-family="Helvetica,sans-Serif" font-size="9.00">sstream</text>
</g>
<!-- Node1&#45;&gt;Node2 -->
<g id="edge1" class="edge"><title>Node1&#45;&gt;Node2</title>
<path fill="none" stroke="midnightblue" d="M430.248,-236.525C362.907,-232.067 202.354,-219.689 59.1261,-194.074"/>
<polygon fill="midnightblue" stroke="midnightblue" points="59.7464,-190.63 49.2821,-192.288 58.4963,-197.517 59.7464,-190.63"/>
</g>
<!-- Node3 -->
<g id="node3" class="node"><title>Node3</title>
<polygon fill="white" stroke="#bfbfbf" points="67,-175.5 67,-193.5 102,-193.5 102,-175.5 67,-175.5"/>
<text text-anchor="middle" x="84.5" y="-182.3" font-family="Helvetica,sans-Serif" font-size="9.00">map</text>
</g>
<!-- Node1&#45;&gt;Node3 -->
<g id="edge2" class="edge"><title>Node1&#45;&gt;Node3</title>
<path fill="none" stroke="midnightblue" d="M430.313,-235.788C368.895,-230.299 230.904,-216.45 116.5,-194 115.019,-193.709 113.506,-193.389 111.982,-193.048"/>
<polygon fill="midnightblue" stroke="midnightblue" points="112.555,-189.585 102.008,-190.596 110.884,-196.382 112.555,-189.585"/>
</g>
<!-- Node4 -->
<g id="node4" class="node"><title>Node4</title>
<polygon fill="white" stroke="#bfbfbf" points="84,-120.5 84,-138.5 125,-138.5 125,-120.5 84,-120.5"/>
<text text-anchor="middle" x="104.5" y="-127.3" font-family="Helvetica,sans-Serif" font-size="9.00">vector</text>
</g>
<!-- Node1&#45;&gt;Node4 -->
<g id="edge3" class="edge"><title>Node1&#45;&gt;Node4</title>
<path fill="none" stroke="midnightblue" d="M430.46,-236.025C364.666,-230.553 216.716,-216.131 171.5,-194 148.878,-182.928 128.781,-161.519 116.634,-146.638"/>
<polygon fill="midnightblue" stroke="midnightblue" points="119.373,-144.458 110.442,-138.757 113.869,-148.783 119.373,-144.458"/>
</g>
<!-- Node5 -->
<g id="node5" class="node"><title>Node5</title>
<polygon fill="white" stroke="#bfbfbf" points="688,-175.5 688,-193.5 717,-193.5 717,-175.5 688,-175.5"/>
<text text-anchor="middle" x="702.5" y="-182.3" font-family="Helvetica,sans-Serif" font-size="9.00">list</text>
</g>
<!-- Node1&#45;&gt;Node5 -->
<g id="edge4" class="edge"><title>Node1&#45;&gt;Node5</title>
<path fill="none" stroke="midnightblue" d="M494.85,-232.484C536.412,-224.57 610.69,-209.803 673.5,-194 674.963,-193.632 676.463,-193.239 677.973,-192.832"/>
<polygon fill="midnightblue" stroke="midnightblue" points="679.14,-196.14 687.807,-190.046 677.232,-189.405 679.14,-196.14"/>
</g>
<!-- Node6 -->
<g id="node6" class="node"><title>Node6</title>
<polygon fill="white" stroke="#bfbfbf" points="735,-175.5 735,-193.5 790,-193.5 790,-175.5 735,-175.5"/>
<text text-anchor="middle" x="762.5" y="-182.3" font-family="Helvetica,sans-Serif" font-size="9.00">algorithm</text>
</g>
<!-- Node1&#45;&gt;Node6 -->
<g id="edge5" class="edge"><title>Node1&#45;&gt;Node6</title>
<path fill="none" stroke="midnightblue" d="M494.729,-233.757C542.787,-226.536 636.282,-211.912 724.71,-194.266"/>
<polygon fill="midnightblue" stroke="midnightblue" points="725.519,-197.673 734.631,-192.269 724.137,-190.811 725.519,-197.673"/>
</g>
<!-- Node7 -->
<g id="node7" class="node"><title>Node7</title>
<polygon fill="white" stroke="#bfbfbf" points="808.5,-175.5 808.5,-193.5 864.5,-193.5 864.5,-175.5 808.5,-175.5"/>
<text text-anchor="middle" x="836.5" y="-182.3" font-family="Helvetica,sans-Serif" font-size="9.00">functional</text>
</g>
<!-- Node1&#45;&gt;Node7 -->
<g id="edge6" class="edge"><title>Node1&#45;&gt;Node7</title>
<path fill="none" stroke="midnightblue" d="M494.718,-235.271C553.236,-229.186 681.043,-214.882 798.404,-194.046"/>
<polygon fill="midnightblue" stroke="midnightblue" points="799.051,-197.486 808.275,-192.273 797.814,-190.596 799.051,-197.486"/>
</g>
<!-- Node8 -->
<g id="node8" class="node"><title>Node8</title>
<polygon fill="white" stroke="#bfbfbf" points="143,-120.5 143,-138.5 198,-138.5 198,-120.5 143,-120.5"/>
<text text-anchor="middle" x="170.5" y="-127.3" font-family="Helvetica,sans-Serif" font-size="9.00">armadillo</text>
</g>
<!-- Node1&#45;&gt;Node8 -->
<g id="edge7" class="edge"><title>Node1&#45;&gt;Node8</title>
<path fill="none" stroke="midnightblue" d="M430.058,-237.549C365.184,-234.981 222.666,-225.777 187.5,-194 174.939,-182.649 171.227,-163.131 170.326,-148.722"/>
<polygon fill="midnightblue" stroke="midnightblue" points="173.821,-148.433 170.092,-138.516 166.823,-148.594 173.821,-148.433"/>
</g>
<!-- Node9 -->
<g id="node9" class="node"><title>Node9</title>
<polygon fill="white" stroke="#bfbfbf" points="560,-5.5 560,-23.5 601,-23.5 601,-5.5 560,-5.5"/>
<text text-anchor="middle" x="580.5" y="-12.3" font-family="Helvetica,sans-Serif" font-size="9.00">mex.h</text>
</g>
<!-- Node1&#45;&gt;Node9 -->
<g id="edge8" class="edge"><title>Node1&#45;&gt;Node9</title>
<path fill="none" stroke="midnightblue" d="M493.175,-230.493C517.539,-223.274 551.828,-211.147 578.5,-194 637.189,-156.27 663.51,-148.339 690.5,-84 705.734,-47.6858 648.707,-29.0063 611.115,-20.8236"/>
<polygon fill="midnightblue" stroke="midnightblue" points="611.601,-17.3508 601.104,-18.7881 610.206,-24.2105 611.601,-17.3508"/>
</g>
<!-- Node10 -->
<g id="node10" class="node"><title>Node10</title>
<g id="a_node10"><a xlink:href="MexIFaceError_8h.html" target="_top" xlink:title="Exception classes for MexIFace. ">
<polygon fill="white" stroke="black" points="102.5,-65.5 102.5,-83.5 228.5,-83.5 228.5,-65.5 102.5,-65.5"/>
<text text-anchor="middle" x="165.5" y="-72.3" font-family="Helvetica,sans-Serif" font-size="9.00">MexIFace/MexIFaceError.h</text>
</a>
</g>
</g>
<!-- Node1&#45;&gt;Node10 -->
<g id="edge9" class="edge"><title>Node1&#45;&gt;Node10</title>
<path fill="none" stroke="midnightblue" d="M446.834,-230.479C430.776,-222.047 405.283,-208.075 384.5,-194 340.764,-164.381 337.708,-145.593 291.5,-120 264.805,-105.215 232.277,-93.8747 206.958,-86.3431"/>
<polygon fill="midnightblue" stroke="midnightblue" points="207.866,-82.9623 197.287,-83.546 205.921,-89.6867 207.866,-82.9623"/>
</g>
<!-- Node12 -->
<g id="node12" class="node"><title>Node12</title>
<g id="a_node12"><a xlink:href="hypercube_8h.html" target="_top" xlink:title="The class declaration and inline and templated functions for hypercube. ">
<polygon fill="white" stroke="black" points="196.5,-175.5 196.5,-193.5 306.5,-193.5 306.5,-175.5 196.5,-175.5"/>
<text text-anchor="middle" x="251.5" y="-182.3" font-family="Helvetica,sans-Serif" font-size="9.00">MexIFace/hypercube.h</text>
</a>
</g>
</g>
<!-- Node1&#45;&gt;Node12 -->
<g id="edge11" class="edge"><title>Node1&#45;&gt;Node12</title>
<path fill="none" stroke="midnightblue" d="M430.454,-230.45C393.787,-221.24 333.621,-206.128 293.299,-195.999"/>
<polygon fill="midnightblue" stroke="midnightblue" points="294.053,-192.58 283.502,-193.538 292.348,-199.369 294.053,-192.58"/>
</g>
<!-- Node14 -->
<g id="node14" class="node"><title>Node14</title>
<g id="a_node14"><a xlink:href="MexUtils_8h.html" target="_top" xlink:title="Helper functions for working with Matlab mxArrays and mxClassIDs. ">
<polygon fill="white" stroke="black" points="435,-65.5 435,-83.5 536,-83.5 536,-65.5 435,-65.5"/>
<text text-anchor="middle" x="485.5" y="-72.3" font-family="Helvetica,sans-Serif" font-size="9.00">MexIFace/MexUtils.h</text>
</a>
</g>
</g>
<!-- Node1&#45;&gt;Node14 -->
<g id="edge16" class="edge"><title>Node1&#45;&gt;Node14</title>
<path fill="none" stroke="midnightblue" d="M491.576,-230.37C509.394,-223.719 530.777,-212.347 541.5,-194 562.349,-158.326 525.444,-113.638 502.228,-90.6729"/>
<polygon fill="midnightblue" stroke="midnightblue" points="504.359,-87.8692 494.704,-83.5063 499.531,-92.9378 504.359,-87.8692"/>
</g>
<!-- Node17 -->
<g id="node17" class="node"><title>Node17</title>
<g id="a_node17"><a xlink:href="MexIFaceBase_8h.html" target="_top" xlink:title="class MexIFaceBase declaration. ">
<polygon fill="white" stroke="black" points="554,-65.5 554,-83.5 681,-83.5 681,-65.5 554,-65.5"/>
<text text-anchor="middle" x="617.5" y="-72.3" font-family="Helvetica,sans-Serif" font-size="9.00">MexIFace/MexIFaceBase.h</text>
</a>
</g>
</g>
<!-- Node1&#45;&gt;Node17 -->
<g id="edge20" class="edge"><title>Node1&#45;&gt;Node17</title>
<path fill="none" stroke="midnightblue" d="M491.628,-230.451C512.119,-223.562 539.065,-211.878 557.5,-194 587.205,-165.192 604.746,-118.546 612.581,-93.2244"/>
<polygon fill="midnightblue" stroke="midnightblue" points="615.974,-94.0916 615.43,-83.5107 609.257,-92.1217 615.974,-94.0916"/>
</g>
<!-- Node18 -->
<g id="node18" class="node"><title>Node18</title>
<g id="a_node18"><a xlink:href="MexIFaceHandler_8h.html" target="_top" xlink:title="class MexIFaceBase declaration. ">
<polygon fill="white" stroke="black" points="393,-175.5 393,-193.5 532,-193.5 532,-175.5 393,-175.5"/>
<text text-anchor="middle" x="462.5" y="-182.3" font-family="Helvetica,sans-Serif" font-size="9.00">MexIFace/MexIFaceHandler.h</text>
</a>
</g>
</g>
<!-- Node1&#45;&gt;Node18 -->
<g id="edge23" class="edge"><title>Node1&#45;&gt;Node18</title>
<path fill="none" stroke="midnightblue" d="M462.5,-230.219C462.5,-223.177 462.5,-212.808 462.5,-203.828"/>
<polygon fill="midnightblue" stroke="midnightblue" points="466,-203.55 462.5,-193.55 459,-203.55 466,-203.55"/>
</g>
<!-- Node11 -->
<g id="node11" class="node"><title>Node11</title>
<polygon fill="white" stroke="#bfbfbf" points="112,-0.5 112,-28.5 219,-28.5 219,-0.5 112,-0.5"/>
<text text-anchor="start" x="120" y="-17.3" font-family="Helvetica,sans-Serif" font-size="9.00">BacktraceException</text>
<text text-anchor="middle" x="165.5" y="-7.3" font-family="Helvetica,sans-Serif" font-size="9.00">/BacktraceException.h</text>
</g>
<!-- Node10&#45;&gt;Node11 -->
<g id="edge10" class="edge"><title>Node10&#45;&gt;Node11</title>
<path fill="none" stroke="midnightblue" d="M165.5,-65.4353C165.5,-58.5603 165.5,-48.3238 165.5,-38.9057"/>
<polygon fill="midnightblue" stroke="midnightblue" points="169,-38.8427 165.5,-28.8428 162,-38.8428 169,-38.8427"/>
</g>
<!-- Node12&#45;&gt;Node4 -->
<g id="edge14" class="edge"><title>Node12&#45;&gt;Node4</title>
<path fill="none" stroke="midnightblue" d="M229.174,-175.45C203.994,-166.372 162.907,-151.558 134.834,-141.437"/>
<polygon fill="midnightblue" stroke="midnightblue" points="135.728,-138.038 125.133,-137.939 133.353,-144.624 135.728,-138.038"/>
</g>
<!-- Node12&#45;&gt;Node8 -->
<g id="edge12" class="edge"><title>Node12&#45;&gt;Node8</title>
<path fill="none" stroke="midnightblue" d="M239.198,-175.45C226.59,-167.201 206.745,-154.216 191.619,-144.319"/>
<polygon fill="midnightblue" stroke="midnightblue" points="193.202,-141.172 182.918,-138.625 189.369,-147.029 193.202,-141.172"/>
</g>
<!-- Node12&#45;&gt;Node10 -->
<g id="edge15" class="edge"><title>Node12&#45;&gt;Node10</title>
<path fill="none" stroke="midnightblue" d="M259.362,-175.108C270.302,-162.377 287.49,-137.785 275.5,-120 264.419,-103.563 246.126,-93.1957 227.609,-86.6572"/>
<polygon fill="midnightblue" stroke="midnightblue" points="228.533,-83.2782 217.942,-83.5751 226.407,-89.9475 228.533,-83.2782"/>
</g>
<!-- Node13 -->
<g id="node13" class="node"><title>Node13</title>
<polygon fill="white" stroke="#bfbfbf" points="216.5,-120.5 216.5,-138.5 266.5,-138.5 266.5,-120.5 216.5,-120.5"/>
<text text-anchor="middle" x="241.5" y="-127.3" font-family="Helvetica,sans-Serif" font-size="9.00">memory</text>
</g>
<!-- Node12&#45;&gt;Node13 -->
<g id="edge13" class="edge"><title>Node12&#45;&gt;Node13</title>
<path fill="none" stroke="midnightblue" d="M249.938,-175.219C248.594,-168.099 246.609,-157.577 244.902,-148.529"/>
<polygon fill="midnightblue" stroke="midnightblue" points="248.312,-147.727 243.019,-138.55 241.434,-149.025 248.312,-147.727"/>
</g>
<!-- Node14&#45;&gt;Node9 -->
<g id="edge19" class="edge"><title>Node14&#45;&gt;Node9</title>
<path fill="none" stroke="midnightblue" d="M498.709,-65.4353C514.149,-56.0091 539.938,-40.2641 558.433,-28.9728"/>
<polygon fill="midnightblue" stroke="midnightblue" points="560.385,-31.8813 567.097,-23.6831 556.738,-25.9068 560.385,-31.8813"/>
</g>
<!-- Node15 -->
<g id="node15" class="node"><title>Node15</title>
<polygon fill="white" stroke="#bfbfbf" points="321,-5.5 321,-23.5 364,-23.5 364,-5.5 321,-5.5"/>
<text text-anchor="middle" x="342.5" y="-12.3" font-family="Helvetica,sans-Serif" font-size="9.00">cstdint</text>
</g>
<!-- Node14&#45;&gt;Node15 -->
<g id="edge17" class="edge"><title>Node14&#45;&gt;Node15</title>
<path fill="none" stroke="midnightblue" d="M465.616,-65.4353C441.315,-55.5787 399.979,-38.813 371.975,-27.4549"/>
<polygon fill="midnightblue" stroke="midnightblue" points="373.258,-24.1984 362.676,-23.6831 370.627,-30.6851 373.258,-24.1984"/>
</g>
<!-- Node16 -->
<g id="node16" class="node"><title>Node16</title>
<polygon fill="white" stroke="#bfbfbf" points="466,-5.5 466,-23.5 505,-23.5 505,-5.5 466,-5.5"/>
<text text-anchor="middle" x="485.5" y="-12.3" font-family="Helvetica,sans-Serif" font-size="9.00">string</text>
</g>
<!-- Node14&#45;&gt;Node16 -->
<g id="edge18" class="edge"><title>Node14&#45;&gt;Node16</title>
<path fill="none" stroke="midnightblue" d="M485.5,-65.4353C485.5,-57.3891 485.5,-44.7388 485.5,-34.1846"/>
<polygon fill="midnightblue" stroke="midnightblue" points="489,-33.8717 485.5,-23.8718 482,-33.8718 489,-33.8717"/>
</g>
<!-- Node17&#45;&gt;Node9 -->
<g id="edge22" class="edge"><title>Node17&#45;&gt;Node9</title>
<path fill="none" stroke="midnightblue" d="M612.355,-65.4353C606.949,-56.9611 598.286,-43.38 591.357,-32.5192"/>
<polygon fill="midnightblue" stroke="midnightblue" points="594.17,-30.42 585.841,-23.8718 588.268,-34.1848 594.17,-30.42"/>
</g>
<!-- Node17&#45;&gt;Node16 -->
<g id="edge21" class="edge"><title>Node17&#45;&gt;Node16</title>
<path fill="none" stroke="midnightblue" d="M599.146,-65.4353C576.909,-55.6648 539.222,-39.1053 513.388,-27.7537"/>
<polygon fill="midnightblue" stroke="midnightblue" points="514.687,-24.5016 504.124,-23.6831 511.871,-30.9103 514.687,-24.5016"/>
</g>
<!-- Node18&#45;&gt;Node14 -->
<g id="edge32" class="edge"><title>Node18&#45;&gt;Node14</title>
<path fill="none" stroke="midnightblue" d="M464.229,-175.382C467.908,-158.104 476.592,-117.329 481.653,-93.5629"/>
<polygon fill="midnightblue" stroke="midnightblue" points="485.091,-94.2215 483.751,-83.7118 478.245,-92.7634 485.091,-94.2215"/>
</g>
<!-- Node18&#45;&gt;Node17 -->
<g id="edge31" class="edge"><title>Node18&#45;&gt;Node17</title>
<path fill="none" stroke="midnightblue" d="M474.15,-175.382C500.407,-157.088 564.468,-112.451 597.33,-89.5536"/>
<polygon fill="midnightblue" stroke="midnightblue" points="599.511,-92.3003 605.715,-83.7118 595.509,-86.557 599.511,-92.3003"/>
</g>
<!-- Node19 -->
<g id="node19" class="node"><title>Node19</title>
<g id="a_node19"><a xlink:href="Handle_8h.html" target="_top" xlink:title="Helper class and templated functions to represent and manipulate Handles to C++ objects as Matlab mxA...">
<polygon fill="white" stroke="black" points="360.5,-120.5 360.5,-138.5 456.5,-138.5 456.5,-120.5 360.5,-120.5"/>
<text text-anchor="middle" x="408.5" y="-127.3" font-family="Helvetica,sans-Serif" font-size="9.00">MexIFace/Handle.h</text>
</a>
</g>
</g>
<!-- Node18&#45;&gt;Node19 -->
<g id="edge24" class="edge"><title>Node18&#45;&gt;Node19</title>
<path fill="none" stroke="midnightblue" d="M454.062,-175.219C446.011,-167.316 433.691,-155.224 423.891,-145.606"/>
<polygon fill="midnightblue" stroke="midnightblue" points="426.29,-143.056 416.701,-138.55 421.387,-148.052 426.29,-143.056"/>
</g>
<!-- Node19&#45;&gt;Node9 -->
<g id="edge28" class="edge"><title>Node19&#45;&gt;Node9</title>
<path fill="none" stroke="midnightblue" d="M408.48,-120.292C408.901,-106.905 411.694,-80.3304 426.5,-65 443.693,-47.1986 510.208,-30.4459 549.981,-21.7357"/>
<polygon fill="midnightblue" stroke="midnightblue" points="550.905,-25.1173 559.949,-19.5983 549.438,-18.2729 550.905,-25.1173"/>
</g>
<!-- Node19&#45;&gt;Node10 -->
<g id="edge29" class="edge"><title>Node19&#45;&gt;Node10</title>
<path fill="none" stroke="midnightblue" d="M371.594,-120.45C328.919,-111.143 258.604,-95.8067 212.17,-85.6791"/>
<polygon fill="midnightblue" stroke="midnightblue" points="212.871,-82.2498 202.355,-83.5383 211.379,-89.089 212.871,-82.2498"/>
</g>
<!-- Node19&#45;&gt;Node14 -->
<g id="edge30" class="edge"><title>Node19&#45;&gt;Node14</title>
<path fill="none" stroke="midnightblue" d="M420.195,-120.45C432.18,-112.201 451.045,-99.2158 465.424,-89.3187"/>
<polygon fill="midnightblue" stroke="midnightblue" points="467.442,-92.1782 473.695,-83.6253 463.474,-86.4121 467.442,-92.1782"/>
</g>
<!-- Node19&#45;&gt;Node15 -->
<g id="edge25" class="edge"><title>Node19&#45;&gt;Node15</title>
<path fill="none" stroke="midnightblue" d="M370.68,-120.435C336.92,-112.378 291.202,-99.0515 280.5,-84 265.647,-63.1117 293.491,-41.612 316.517,-28.4022"/>
<polygon fill="midnightblue" stroke="midnightblue" points="318.218,-31.4615 325.321,-23.6007 314.866,-25.316 318.218,-31.4615"/>
</g>
<!-- Node19&#45;&gt;Node16 -->
<g id="edge26" class="edge"><title>Node19&#45;&gt;Node16</title>
<path fill="none" stroke="midnightblue" d="M375.124,-120.498C340.352,-110.54 293.515,-91.5476 313.5,-65 330.628,-42.2472 411.413,-26.6991 455.912,-19.7035"/>
<polygon fill="midnightblue" stroke="midnightblue" points="456.505,-23.1537 465.863,-18.1866 455.45,-16.2336 456.505,-23.1537"/>
</g>
<!-- Node20 -->
<g id="node20" class="node"><title>Node20</title>
<polygon fill="white" stroke="#bfbfbf" points="322.5,-65.5 322.5,-83.5 378.5,-83.5 378.5,-65.5 322.5,-65.5"/>
<text text-anchor="middle" x="350.5" y="-72.3" font-family="Helvetica,sans-Serif" font-size="9.00">typeindex</text>
</g>
<!-- Node19&#45;&gt;Node20 -->
<g id="edge27" class="edge"><title>Node19&#45;&gt;Node20</title>
<path fill="none" stroke="midnightblue" d="M399.438,-120.219C390.704,-112.238 377.294,-99.9842 366.719,-90.3207"/>
<polygon fill="midnightblue" stroke="midnightblue" points="369.052,-87.7116 359.309,-83.5496 364.33,-92.879 369.052,-87.7116"/>
</g>
</g>
</svg>
