<?xml version="1.0" encoding="UTF-8" standalone="no"?>
<!DOCTYPE svg PUBLIC "-//W3C//DTD SVG 1.1//EN"
 "http://www.w3.org/Graphics/SVG/1.1/DTD/svg11.dtd">
<!-- Generated by graphviz version 2.36.0 (20140111.2315)
 -->
<!-- Title: MexIFaceHandler.h Pages: 1 -->
<svg width="587pt" height="206pt"
 viewBox="0.00 0.00 587.00 206.00" xmlns="http://www.w3.org/2000/svg" xmlns:xlink="http://www.w3.org/1999/xlink">
<g id="graph0" class="graph" transform="scale(1 1) rotate(0) translate(4 202)">
<title>MexIFaceHandler.h</title>
<polygon fill="white" stroke="none" points="-4,4 -4,-202 583,-202 583,4 -4,4"/>
<!-- Node1 -->
<g id="node1" class="node"><title>Node1</title>
<polygon fill="#bfbfbf" stroke="black" points="296.5,-179 296.5,-197 393.5,-197 393.5,-179 296.5,-179"/>
<text text-anchor="middle" x="345" y="-185.8" font-family="Helvetica,sans-Serif" font-size="9.00">MexIFaceHandler.h</text>
</g>
<!-- Node2 -->
<g id="node2" class="node"><title>Node2</title>
<g id="a_node2"><a xlink:href="Handle_8h.html" target="_top" xlink:title="Helper class and templated functions to represent and manipulate Handles to C++ objects as Matlab mxA...">
<polygon fill="white" stroke="black" points="218,-123 218,-141 314,-141 314,-123 218,-123"/>
<text text-anchor="middle" x="266" y="-129.8" font-family="Helvetica,sans-Serif" font-size="9.00">MexIFace/Handle.h</text>
</a>
</g>
</g>
<!-- Node1&#45;&gt;Node2 -->
<g id="edge1" class="edge"><title>Node1&#45;&gt;Node2</title>
<path fill="none" stroke="midnightblue" d="M333.002,-178.799C320.634,-170.345 301.125,-157.009 286.341,-146.904"/>
<polygon fill="midnightblue" stroke="midnightblue" points="288.083,-143.855 277.852,-141.102 284.133,-149.634 288.083,-143.855"/>
</g>
<!-- Node9 -->
<g id="node9" class="node"><title>Node9</title>
<g id="a_node9"><a xlink:href="MexUtils_8h.html" target="_top" xlink:title="Helper functions for working with Matlab mxArrays and mxClassIDs. ">
<polygon fill="white" stroke="black" points="294.5,-67 294.5,-85 395.5,-85 395.5,-67 294.5,-67"/>
<text text-anchor="middle" x="345" y="-73.8" font-family="Helvetica,sans-Serif" font-size="9.00">MexIFace/MexUtils.h</text>
</a>
</g>
</g>
<!-- Node1&#45;&gt;Node9 -->
<g id="edge15" class="edge"><title>Node1&#45;&gt;Node9</title>
<path fill="none" stroke="midnightblue" d="M345,-178.732C345,-161.127 345,-119.575 345,-95.3716"/>
<polygon fill="midnightblue" stroke="midnightblue" points="348.5,-95.0648 345,-85.0649 341.5,-95.0649 348.5,-95.0648"/>
</g>
<!-- Node10 -->
<g id="node10" class="node"><title>Node10</title>
<g id="a_node10"><a xlink:href="MexIFaceBase_8h.html" target="_top" xlink:title="class MexIFaceBase declaration. ">
<polygon fill="white" stroke="black" points="452.5,-67 452.5,-85 579.5,-85 579.5,-67 452.5,-67"/>
<text text-anchor="middle" x="516" y="-73.8" font-family="Helvetica,sans-Serif" font-size="9.00">MexIFace/MexIFaceBase.h</text>
</a>
</g>
</g>
<!-- Node1&#45;&gt;Node10 -->
<g id="edge12" class="edge"><title>Node1&#45;&gt;Node10</title>
<path fill="none" stroke="midnightblue" d="M357.574,-178.911C386.603,-160.238 458.561,-113.949 494.649,-90.7348"/>
<polygon fill="midnightblue" stroke="midnightblue" points="496.891,-93.4541 503.408,-85.1004 493.104,-87.567 496.891,-93.4541"/>
</g>
<!-- Node3 -->
<g id="node3" class="node"><title>Node3</title>
<polygon fill="white" stroke="#bfbfbf" points="236.5,-6 236.5,-24 279.5,-24 279.5,-6 236.5,-6"/>
<text text-anchor="middle" x="258" y="-12.8" font-family="Helvetica,sans-Serif" font-size="9.00">cstdint</text>
</g>
<!-- Node2&#45;&gt;Node3 -->
<g id="edge2" class="edge"><title>Node2&#45;&gt;Node3</title>
<path fill="none" stroke="midnightblue" d="M262.656,-122.882C259.195,-114.003 254.016,-99.2659 252,-86 249.339,-68.492 251.627,-48.3277 254.105,-34.1514"/>
<polygon fill="midnightblue" stroke="midnightblue" points="257.561,-34.7169 256.043,-24.2313 250.691,-33.3747 257.561,-34.7169"/>
</g>
<!-- Node4 -->
<g id="node4" class="node"><title>Node4</title>
<polygon fill="white" stroke="#bfbfbf" points="325.5,-6 325.5,-24 364.5,-24 364.5,-6 325.5,-6"/>
<text text-anchor="middle" x="345" y="-12.8" font-family="Helvetica,sans-Serif" font-size="9.00">string</text>
</g>
<!-- Node2&#45;&gt;Node4 -->
<g id="edge3" class="edge"><title>Node2&#45;&gt;Node4</title>
<path fill="none" stroke="midnightblue" d="M267.017,-122.771C268.939,-109.78 274.037,-84.1343 286,-66 295.519,-51.5701 310.386,-39.0078 322.815,-30.0843"/>
<polygon fill="midnightblue" stroke="midnightblue" points="325.051,-32.7948 331.323,-24.2551 321.095,-27.0202 325.051,-32.7948"/>
</g>
<!-- Node5 -->
<g id="node5" class="node"><title>Node5</title>
<polygon fill="white" stroke="#bfbfbf" points="0,-67 0,-85 56,-85 56,-67 0,-67"/>
<text text-anchor="middle" x="28" y="-73.8" font-family="Helvetica,sans-Serif" font-size="9.00">typeindex</text>
</g>
<!-- Node2&#45;&gt;Node5 -->
<g id="edge4" class="edge"><title>Node2&#45;&gt;Node5</title>
<path fill="none" stroke="midnightblue" d="M229.276,-122.99C190.991,-114.593 128.985,-100.862 66.3273,-86.2798"/>
<polygon fill="midnightblue" stroke="midnightblue" points="66.8028,-82.7968 56.269,-83.9328 65.212,-89.6137 66.8028,-82.7968"/>
</g>
<!-- Node6 -->
<g id="node6" class="node"><title>Node6</title>
<polygon fill="white" stroke="#bfbfbf" points="403.5,-6 403.5,-24 444.5,-24 444.5,-6 403.5,-6"/>
<text text-anchor="middle" x="424" y="-12.8" font-family="Helvetica,sans-Serif" font-size="9.00">mex.h</text>
</g>
<!-- Node2&#45;&gt;Node6 -->
<g id="edge5" class="edge"><title>Node2&#45;&gt;Node6</title>
<path fill="none" stroke="midnightblue" d="M314.186,-126.647C343.855,-121.504 380.567,-110.314 404,-86 417.41,-72.086 421.936,-49.8239 423.406,-34.1481"/>
<polygon fill="midnightblue" stroke="midnightblue" points="426.903,-34.3063 424.02,-24.1112 419.916,-33.8787 426.903,-34.3063"/>
</g>
<!-- Node7 -->
<g id="node7" class="node"><title>Node7</title>
<g id="a_node7"><a xlink:href="MexIFaceError_8h.html" target="_top" xlink:title="Exception classes for MexIFace. ">
<polygon fill="white" stroke="black" points="74,-67 74,-85 200,-85 200,-67 74,-67"/>
<text text-anchor="middle" x="137" y="-73.8" font-family="Helvetica,sans-Serif" font-size="9.00">MexIFace/MexIFaceError.h</text>
</a>
</g>
</g>
<!-- Node2&#45;&gt;Node7 -->
<g id="edge6" class="edge"><title>Node2&#45;&gt;Node7</title>
<path fill="none" stroke="midnightblue" d="M246.687,-122.916C225.313,-113.968 190.634,-99.4516 165.996,-89.1378"/>
<polygon fill="midnightblue" stroke="midnightblue" points="167.021,-85.7725 156.445,-85.1396 164.318,-92.2296 167.021,-85.7725"/>
</g>
<!-- Node2&#45;&gt;Node9 -->
<g id="edge8" class="edge"><title>Node2&#45;&gt;Node9</title>
<path fill="none" stroke="midnightblue" d="M277.998,-122.799C290.366,-114.345 309.875,-101.009 324.659,-90.9039"/>
<polygon fill="midnightblue" stroke="midnightblue" points="326.867,-93.6343 333.148,-85.1017 322.917,-87.8553 326.867,-93.6343"/>
</g>
<!-- Node8 -->
<g id="node8" class="node"><title>Node8</title>
<polygon fill="white" stroke="#bfbfbf" points="83.5,-1 83.5,-29 190.5,-29 190.5,-1 83.5,-1"/>
<text text-anchor="start" x="91.5" y="-17.8" font-family="Helvetica,sans-Serif" font-size="9.00">BacktraceException</text>
<text text-anchor="middle" x="137" y="-7.8" font-family="Helvetica,sans-Serif" font-size="9.00">/BacktraceException.h</text>
</g>
<!-- Node7&#45;&gt;Node8 -->
<g id="edge7" class="edge"><title>Node7&#45;&gt;Node8</title>
<path fill="none" stroke="midnightblue" d="M137,-66.7963C137,-59.7107 137,-49.1152 137,-39.4315"/>
<polygon fill="midnightblue" stroke="midnightblue" points="140.5,-39.1215 137,-29.1215 133.5,-39.1215 140.5,-39.1215"/>
</g>
<!-- Node9&#45;&gt;Node3 -->
<g id="edge9" class="edge"><title>Node9&#45;&gt;Node3</title>
<path fill="none" stroke="midnightblue" d="M332.903,-66.7963C318.879,-57.2855 295.529,-41.4509 278.623,-29.986"/>
<polygon fill="midnightblue" stroke="midnightblue" points="280.235,-26.85 269.994,-24.134 276.306,-32.6435 280.235,-26.85"/>
</g>
<!-- Node9&#45;&gt;Node4 -->
<g id="edge10" class="edge"><title>Node9&#45;&gt;Node4</title>
<path fill="none" stroke="midnightblue" d="M345,-66.7963C345,-58.4303 345,-45.1713 345,-34.2974"/>
<polygon fill="midnightblue" stroke="midnightblue" points="348.5,-34.134 345,-24.134 341.5,-34.1341 348.5,-34.134"/>
</g>
<!-- Node9&#45;&gt;Node6 -->
<g id="edge11" class="edge"><title>Node9&#45;&gt;Node6</title>
<path fill="none" stroke="midnightblue" d="M355.985,-66.7963C368.602,-57.3735 389.53,-41.7436 404.845,-30.3056"/>
<polygon fill="midnightblue" stroke="midnightblue" points="407.191,-32.9221 413.109,-24.134 403.002,-27.3136 407.191,-32.9221"/>
</g>
<!-- Node10&#45;&gt;Node4 -->
<g id="edge13" class="edge"><title>Node10&#45;&gt;Node4</title>
<path fill="none" stroke="midnightblue" d="M492.582,-66.92C461.828,-56.309 407.824,-37.676 374.367,-26.1325"/>
<polygon fill="midnightblue" stroke="midnightblue" points="375.287,-22.7474 364.692,-22.7944 373.004,-29.3646 375.287,-22.7474"/>
</g>
<!-- Node10&#45;&gt;Node6 -->
<g id="edge14" class="edge"><title>Node10&#45;&gt;Node6</title>
<path fill="none" stroke="midnightblue" d="M503.208,-66.7963C488.24,-57.1974 463.228,-41.1571 445.314,-29.6686"/>
<polygon fill="midnightblue" stroke="midnightblue" points="446.991,-26.5862 436.684,-24.134 443.212,-32.4786 446.991,-26.5862"/>
</g>
</g>
</svg>
