<?xml version="1.0" encoding="UTF-8" standalone="no"?>
<!DOCTYPE svg PUBLIC "-//W3C//DTD SVG 1.1//EN"
 "http://www.w3.org/Graphics/SVG/1.1/DTD/svg11.dtd">
<!-- Generated by graphviz version 2.36.0 (20140111.2315)
 -->
<!-- Title: MexIFace.h Pages: 1 -->
<!--zoomable 262 -->
<svg id="main" version="1.1" xmlns="http://www.w3.org/2000/svg" xmlns:xlink="http://www.w3.org/1999/xlink" xml:space="preserve" onload="init(evt)">
<style type="text/css"><![CDATA[
.edge:hover path { stroke: red; }
.edge:hover polygon { stroke: red; fill: red; }
]]></style>
<script type="text/javascript"><![CDATA[
var edges = document.getElementsByTagName('g');
if (edges && edges.length) {
  for (var i=0;i<edges.length;i++) {
    if (edges[i].id.substr(0,4)=='edge') {
      edges[i].setAttribute('class','edge');
    }
  }
}
]]></script>
        <defs>
                <circle id="rim" cx="0" cy="0" r="7"/>
                <circle id="rim2" cx="0" cy="0" r="3.5"/>
                <g id="zoomPlus">
                        <use xlink:href="#rim" fill="#404040">
                                <set attributeName="fill" to="#808080" begin="zoomplus.mouseover" end="zoomplus.mouseout"/>
                        </use>
                        <path d="M-4,0h8M0,-4v8" fill="none" stroke="white" stroke-width="1.5" pointer-events="none"/>
                </g>
                <g id="zoomMin">
                        <use xlink:href="#rim" fill="#404040">
                                <set attributeName="fill" to="#808080" begin="zoomminus.mouseover" end="zoomminus.mouseout"/>
                        </use>
                        <path d="M-4,0h8" fill="none" stroke="white" stroke-width="1.5" pointer-events="none"/>
                </g>
                <g id="dirArrow">
                        <path fill="none" stroke="white" stroke-width="1.5" d="M0,-3.0v7 M-2.5,-0.5L0,-3.0L2.5,-0.5"/>
                </g>
               <g id="resetDef">
                       <use xlink:href="#rim2" fill="#404040">
                               <set attributeName="fill" to="#808080" begin="reset.mouseover" end="reset.mouseout"/>
                       </use>
               </g>
        </defs>

<script type="text/javascript">
var viewWidth = 872;
var viewHeight = 262;
var sectionId = 'dynsection-0';
</script>
<script xlink:href="svgpan.js"/>
<svg id="graph" class="graph">
<g id="viewport">
<title>MexIFace.h</title>
<polygon fill="white" stroke="none" points="-4,4 -4,-258 868,-258 868,4 -4,4"/>
<!-- Node1 -->
<g id="node1" class="node"><title>Node1</title>
<polygon fill="#bfbfbf" stroke="black" points="430,-235 430,-253 494,-253 494,-235 430,-235"/>
<text text-anchor="middle" x="462" y="-241.8" font-family="Helvetica,sans-Serif" font-size="9.00">MexIFace.h</text>
</g>
<!-- Node2 -->
<g id="node2" class="node"><title>Node2</title>
<polygon fill="white" stroke="#bfbfbf" points="-0.5,-179 -0.5,-197 48.5,-197 48.5,-179 -0.5,-179"/>
<text text-anchor="middle" x="24" y="-185.8" font-family="Helvetica,sans-Serif" font-size="9.00">sstream</text>
</g>
<!-- Node1&#45;&gt;Node2 -->
<g id="edge1" class="edge"><title>Node1&#45;&gt;Node2</title>
<path fill="none" stroke="midnightblue" d="M429.981,-241.142C362.744,-236.876 201.864,-224.769 58.6146,-198.064"/>
<polygon fill="midnightblue" stroke="midnightblue" points="59.2461,-194.621 48.7695,-196.2 57.9438,-201.499 59.2461,-194.621"/>
</g>
<!-- Node3 -->
<g id="node3" class="node"><title>Node3</title>
<polygon fill="white" stroke="#bfbfbf" points="66.5,-179 66.5,-197 101.5,-197 101.5,-179 66.5,-179"/>
<text text-anchor="middle" x="84" y="-185.8" font-family="Helvetica,sans-Serif" font-size="9.00">map</text>
</g>
<!-- Node1&#45;&gt;Node3 -->
<g id="edge2" class="edge"><title>Node1&#45;&gt;Node3</title>
<path fill="none" stroke="midnightblue" d="M429.783,-240.38C368.315,-235.036 230.242,-221.366 116,-198 114.551,-197.704 113.072,-197.376 111.582,-197.028"/>
<polygon fill="midnightblue" stroke="midnightblue" points="112.386,-193.62 101.828,-194.507 110.634,-200.398 112.386,-193.62"/>
</g>
<!-- Node4 -->
<g id="node4" class="node"><title>Node4</title>
<polygon fill="white" stroke="#bfbfbf" points="83.5,-123 83.5,-141 124.5,-141 124.5,-123 83.5,-123"/>
<text text-anchor="middle" x="104" y="-129.8" font-family="Helvetica,sans-Serif" font-size="9.00">vector</text>
</g>
<!-- Node1&#45;&gt;Node4 -->
<g id="edge3" class="edge"><title>Node1&#45;&gt;Node4</title>
<path fill="none" stroke="midnightblue" d="M429.814,-240.544C363.728,-235.098 215.151,-220.671 170,-198 147.413,-186.659 127.685,-164.746 115.818,-149.515"/>
<polygon fill="midnightblue" stroke="midnightblue" points="118.573,-147.356 109.777,-141.45 112.971,-151.552 118.573,-147.356"/>
</g>
<!-- Node5 -->
<g id="node5" class="node"><title>Node5</title>
<polygon fill="white" stroke="#bfbfbf" points="687.5,-179 687.5,-197 716.5,-197 716.5,-179 687.5,-179"/>
<text text-anchor="middle" x="702" y="-185.8" font-family="Helvetica,sans-Serif" font-size="9.00">list</text>
</g>
<!-- Node1&#45;&gt;Node5 -->
<g id="edge4" class="edge"><title>Node1&#45;&gt;Node5</title>
<path fill="none" stroke="midnightblue" d="M494.026,-237.109C535.557,-229.256 610.124,-214.425 673,-198 674.466,-197.617 675.969,-197.206 677.482,-196.779"/>
<polygon fill="midnightblue" stroke="midnightblue" points="678.742,-200.056 687.321,-193.839 676.738,-193.349 678.742,-200.056"/>
</g>
<!-- Node6 -->
<g id="node6" class="node"><title>Node6</title>
<polygon fill="white" stroke="#bfbfbf" points="734.5,-179 734.5,-197 789.5,-197 789.5,-179 734.5,-179"/>
<text text-anchor="middle" x="762" y="-185.8" font-family="Helvetica,sans-Serif" font-size="9.00">algorithm</text>
</g>
<!-- Node1&#45;&gt;Node6 -->
<g id="edge5" class="edge"><title>Node1&#45;&gt;Node6</title>
<path fill="none" stroke="midnightblue" d="M494.117,-238.238C542.007,-230.978 635.166,-216.245 724.176,-198.049"/>
<polygon fill="midnightblue" stroke="midnightblue" points="725.08,-201.437 734.166,-195.989 723.665,-194.581 725.08,-201.437"/>
</g>
<!-- Node7 -->
<g id="node7" class="node"><title>Node7</title>
<polygon fill="white" stroke="#bfbfbf" points="808,-179 808,-197 864,-197 864,-179 808,-179"/>
<text text-anchor="middle" x="836" y="-185.8" font-family="Helvetica,sans-Serif" font-size="9.00">functional</text>
</g>
<!-- Node1&#45;&gt;Node7 -->
<g id="edge6" class="edge"><title>Node1&#45;&gt;Node7</title>
<path fill="none" stroke="midnightblue" d="M494.134,-239.772C554.137,-233.507 687.173,-218.493 798,-198 798.1,-197.982 798.2,-197.963 798.3,-197.944"/>
<polygon fill="midnightblue" stroke="midnightblue" points="798.746,-201.426 807.844,-195.998 797.347,-194.567 798.746,-201.426"/>
</g>
<!-- Node8 -->
<g id="node8" class="node"><title>Node8</title>
<polygon fill="white" stroke="#bfbfbf" points="142.5,-123 142.5,-141 197.5,-141 197.5,-123 142.5,-123"/>
<text text-anchor="middle" x="170" y="-129.8" font-family="Helvetica,sans-Serif" font-size="9.00">armadillo</text>
</g>
<!-- Node1&#45;&gt;Node8 -->
<g id="edge7" class="edge"><title>Node1&#45;&gt;Node8</title>
<path fill="none" stroke="midnightblue" d="M429.539,-242.003C364.632,-239.34 222.056,-229.919 187,-198 174.079,-186.235 170.459,-165.98 169.679,-151.2"/>
<polygon fill="midnightblue" stroke="midnightblue" points="173.179,-151.144 169.529,-141.197 166.179,-151.248 173.179,-151.144"/>
</g>
<!-- Node9 -->
<g id="node9" class="node"><title>Node9</title>
<polygon fill="white" stroke="#bfbfbf" points="559.5,-6 559.5,-24 600.5,-24 600.5,-6 559.5,-6"/>
<text text-anchor="middle" x="580" y="-12.8" font-family="Helvetica,sans-Serif" font-size="9.00">mex.h</text>
</g>
<!-- Node1&#45;&gt;Node9 -->
<g id="edge8" class="edge"><title>Node1&#45;&gt;Node9</title>
<path fill="none" stroke="midnightblue" d="M492.735,-234.937C517.133,-227.656 551.439,-215.401 578,-198 636.623,-159.595 662.326,-150.808 689,-86 703.944,-49.6911 647.81,-30.3494 610.595,-21.7194"/>
<polygon fill="midnightblue" stroke="midnightblue" points="611.19,-18.2671 600.675,-19.5642 609.704,-25.1075 611.19,-18.2671"/>
</g>
<!-- Node10 -->
<g id="node10" class="node"><title>Node10</title>
<g id="a_node10"><a xlink:href="MexIFaceError_8h.html" target="_top" xlink:title="Exception classes for MexIFace. ">
<polygon fill="white" stroke="black" points="102,-67 102,-85 228,-85 228,-67 102,-67"/>
<text text-anchor="middle" x="165" y="-73.8" font-family="Helvetica,sans-Serif" font-size="9.00">MexIFace/MexIFaceError.h</text>
</a>
</g>
</g>
<!-- Node1&#45;&gt;Node10 -->
<g id="edge9" class="edge"><title>Node1&#45;&gt;Node10</title>
<path fill="none" stroke="midnightblue" d="M446.305,-234.916C430.224,-226.411 404.714,-212.3 384,-198 340.071,-167.674 337.48,-148.249 291,-122 264.306,-106.925 231.646,-95.4332 206.267,-87.8368"/>
<polygon fill="midnightblue" stroke="midnightblue" points="207.156,-84.4503 196.577,-85.0183 205.201,-91.1718 207.156,-84.4503"/>
</g>
<!-- Node12 -->
<g id="node12" class="node"><title>Node12</title>
<g id="a_node12"><a xlink:href="hypercube_8h.html" target="_top" xlink:title="The class declaration and inline and templated functions for hypercube. ">
<polygon fill="white" stroke="black" points="196,-179 196,-197 306,-197 306,-179 196,-179"/>
<text text-anchor="middle" x="251" y="-185.8" font-family="Helvetica,sans-Serif" font-size="9.00">MexIFace/hypercube.h</text>
</a>
</g>
</g>
<!-- Node1&#45;&gt;Node12 -->
<g id="edge11" class="edge"><title>Node1&#45;&gt;Node12</title>
<path fill="none" stroke="midnightblue" d="M430.411,-234.916C393.635,-225.504 332.779,-209.929 292.288,-199.567"/>
<polygon fill="midnightblue" stroke="midnightblue" points="293.015,-196.14 282.46,-197.051 291.28,-202.921 293.015,-196.14"/>
</g>
<!-- Node14 -->
<g id="node14" class="node"><title>Node14</title>
<g id="a_node14"><a xlink:href="MexUtils_8h.html" target="_top" xlink:title="Helper functions for working with Matlab mxArrays and mxClassIDs. ">
<polygon fill="white" stroke="black" points="434.5,-67 434.5,-85 535.5,-85 535.5,-67 434.5,-67"/>
<text text-anchor="middle" x="485" y="-73.8" font-family="Helvetica,sans-Serif" font-size="9.00">MexIFace/MexUtils.h</text>
</a>
</g>
</g>
<!-- Node1&#45;&gt;Node14 -->
<g id="edge16" class="edge"><title>Node1&#45;&gt;Node14</title>
<path fill="none" stroke="midnightblue" d="M489.95,-234.892C507.703,-228.131 529.288,-216.547 540,-198 561.048,-161.556 524.19,-115.625 501.251,-92.2223"/>
<polygon fill="midnightblue" stroke="midnightblue" points="503.692,-89.714 494.109,-85.1956 498.782,-94.7038 503.692,-89.714"/>
</g>
<!-- Node17 -->
<g id="node17" class="node"><title>Node17</title>
<g id="a_node17"><a xlink:href="MexIFaceBase_8h.html" target="_top" xlink:title="class MexIFaceBase declaration. ">
<polygon fill="white" stroke="black" points="553.5,-67 553.5,-85 680.5,-85 680.5,-67 553.5,-67"/>
<text text-anchor="middle" x="617" y="-73.8" font-family="Helvetica,sans-Serif" font-size="9.00">MexIFace/MexIFaceBase.h</text>
</a>
</g>
</g>
<!-- Node1&#45;&gt;Node17 -->
<g id="edge20" class="edge"><title>Node1&#45;&gt;Node17</title>
<path fill="none" stroke="midnightblue" d="M490.402,-234.873C510.733,-227.859 537.648,-215.98 556,-198 586.155,-168.456 604.007,-120.878 611.987,-95.0641"/>
<polygon fill="midnightblue" stroke="midnightblue" points="615.435,-95.7437 614.89,-85.163 608.718,-93.7747 615.435,-95.7437"/>
</g>
<!-- Node18 -->
<g id="node18" class="node"><title>Node18</title>
<g id="a_node18"><a xlink:href="MexIFaceHandler_8h.html" target="_top" xlink:title="class MexIFaceBase declaration. ">
<polygon fill="white" stroke="black" points="392.5,-179 392.5,-197 531.5,-197 531.5,-179 392.5,-179"/>
<text text-anchor="middle" x="462" y="-185.8" font-family="Helvetica,sans-Serif" font-size="9.00">MexIFace/MexIFaceHandler.h</text>
</a>
</g>
</g>
<!-- Node1&#45;&gt;Node18 -->
<g id="edge23" class="edge"><title>Node1&#45;&gt;Node18</title>
<path fill="none" stroke="midnightblue" d="M462,-234.562C462,-227.308 462,-216.588 462,-207.369"/>
<polygon fill="midnightblue" stroke="midnightblue" points="465.5,-207.201 462,-197.201 458.5,-207.201 465.5,-207.201"/>
</g>
<!-- Node11 -->
<g id="node11" class="node"><title>Node11</title>
<polygon fill="white" stroke="#bfbfbf" points="111.5,-1 111.5,-29 218.5,-29 218.5,-1 111.5,-1"/>
<text text-anchor="start" x="119.5" y="-17.8" font-family="Helvetica,sans-Serif" font-size="9.00">BacktraceException</text>
<text text-anchor="middle" x="165" y="-7.8" font-family="Helvetica,sans-Serif" font-size="9.00">/BacktraceException.h</text>
</g>
<!-- Node10&#45;&gt;Node11 -->
<g id="edge10" class="edge"><title>Node10&#45;&gt;Node11</title>
<path fill="none" stroke="midnightblue" d="M165,-66.7963C165,-59.7107 165,-49.1152 165,-39.4315"/>
<polygon fill="midnightblue" stroke="midnightblue" points="168.5,-39.1215 165,-29.1215 161.5,-39.1215 168.5,-39.1215"/>
</g>
<!-- Node12&#45;&gt;Node4 -->
<g id="edge14" class="edge"><title>Node12&#45;&gt;Node4</title>
<path fill="none" stroke="midnightblue" d="M228.993,-178.916C203.883,-169.692 162.661,-154.549 134.472,-144.194"/>
<polygon fill="midnightblue" stroke="midnightblue" points="135.324,-140.778 124.73,-140.615 132.91,-147.349 135.324,-140.778"/>
</g>
<!-- Node12&#45;&gt;Node8 -->
<g id="edge12" class="edge"><title>Node12&#45;&gt;Node8</title>
<path fill="none" stroke="midnightblue" d="M238.698,-178.799C226.017,-170.345 206.014,-157.009 190.856,-146.904"/>
<polygon fill="midnightblue" stroke="midnightblue" points="192.415,-143.737 182.153,-141.102 188.532,-149.561 192.415,-143.737"/>
</g>
<!-- Node12&#45;&gt;Node10 -->
<g id="edge15" class="edge"><title>Node12&#45;&gt;Node10</title>
<path fill="none" stroke="midnightblue" d="M258.555,-178.828C269.541,-165.916 287.337,-140.377 275,-122 263.786,-105.297 245.157,-94.7891 226.388,-88.1808"/>
<polygon fill="midnightblue" stroke="midnightblue" points="227.19,-84.763 216.599,-85.0684 225.069,-91.434 227.19,-84.763"/>
</g>
<!-- Node13 -->
<g id="node13" class="node"><title>Node13</title>
<polygon fill="white" stroke="#bfbfbf" points="216,-123 216,-141 266,-141 266,-123 216,-123"/>
<text text-anchor="middle" x="241" y="-129.8" font-family="Helvetica,sans-Serif" font-size="9.00">memory</text>
</g>
<!-- Node12&#45;&gt;Node13 -->
<g id="edge13" class="edge"><title>Node12&#45;&gt;Node13</title>
<path fill="none" stroke="midnightblue" d="M249.438,-178.562C248.079,-171.228 246.065,-160.352 244.345,-151.066"/>
<polygon fill="midnightblue" stroke="midnightblue" points="247.781,-150.397 242.519,-141.201 240.898,-151.672 247.781,-150.397"/>
</g>
<!-- Node14&#45;&gt;Node9 -->
<g id="edge19" class="edge"><title>Node14&#45;&gt;Node9</title>
<path fill="none" stroke="midnightblue" d="M498.209,-66.7963C513.736,-57.1534 539.73,-41.0098 558.245,-29.5108"/>
<polygon fill="midnightblue" stroke="midnightblue" points="560.254,-32.3832 566.903,-24.134 556.561,-26.4367 560.254,-32.3832"/>
</g>
<!-- Node15 -->
<g id="node15" class="node"><title>Node15</title>
<polygon fill="white" stroke="#bfbfbf" points="320.5,-6 320.5,-24 363.5,-24 363.5,-6 320.5,-6"/>
<text text-anchor="middle" x="342" y="-12.8" font-family="Helvetica,sans-Serif" font-size="9.00">cstdint</text>
</g>
<!-- Node14&#45;&gt;Node15 -->
<g id="edge17" class="edge"><title>Node14&#45;&gt;Node15</title>
<path fill="none" stroke="midnightblue" d="M465.416,-66.92C441.057,-56.8697 399.255,-39.6228 371.132,-28.0195"/>
<polygon fill="midnightblue" stroke="midnightblue" points="372.385,-24.7504 361.806,-24.1717 369.715,-31.2212 372.385,-24.7504"/>
</g>
<!-- Node16 -->
<g id="node16" class="node"><title>Node16</title>
<polygon fill="white" stroke="#bfbfbf" points="465.5,-6 465.5,-24 504.5,-24 504.5,-6 465.5,-6"/>
<text text-anchor="middle" x="485" y="-12.8" font-family="Helvetica,sans-Serif" font-size="9.00">string</text>
</g>
<!-- Node14&#45;&gt;Node16 -->
<g id="edge18" class="edge"><title>Node14&#45;&gt;Node16</title>
<path fill="none" stroke="midnightblue" d="M485,-66.7963C485,-58.4303 485,-45.1713 485,-34.2974"/>
<polygon fill="midnightblue" stroke="midnightblue" points="488.5,-34.134 485,-24.134 481.5,-34.1341 488.5,-34.134"/>
</g>
<!-- Node17&#45;&gt;Node9 -->
<g id="edge22" class="edge"><title>Node17&#45;&gt;Node9</title>
<path fill="none" stroke="midnightblue" d="M611.855,-66.7963C606.388,-58.078 597.588,-44.0461 590.622,-32.9371"/>
<polygon fill="midnightblue" stroke="midnightblue" points="593.379,-30.7464 585.101,-24.134 587.449,-34.4655 593.379,-30.7464"/>
</g>
<!-- Node17&#45;&gt;Node16 -->
<g id="edge21" class="edge"><title>Node17&#45;&gt;Node16</title>
<path fill="none" stroke="midnightblue" d="M598.923,-66.92C576.634,-56.9575 538.524,-39.9235 512.574,-28.3248"/>
<polygon fill="midnightblue" stroke="midnightblue" points="513.84,-25.0571 503.283,-24.1717 510.984,-31.4478 513.84,-25.0571"/>
</g>
<!-- Node18&#45;&gt;Node14 -->
<g id="edge32" class="edge"><title>Node18&#45;&gt;Node14</title>
<path fill="none" stroke="midnightblue" d="M463.729,-178.732C467.426,-161.047 476.177,-119.196 481.227,-95.0427"/>
<polygon fill="midnightblue" stroke="midnightblue" points="484.693,-95.5696 483.314,-85.0649 477.841,-94.1368 484.693,-95.5696"/>
</g>
<!-- Node18&#45;&gt;Node17 -->
<g id="edge31" class="edge"><title>Node18&#45;&gt;Node17</title>
<path fill="none" stroke="midnightblue" d="M473.398,-178.911C499.598,-160.317 564.381,-114.342 597.227,-91.0324"/>
<polygon fill="midnightblue" stroke="midnightblue" points="599.456,-93.7422 605.586,-85.1004 595.405,-88.0336 599.456,-93.7422"/>
</g>
<!-- Node19 -->
<g id="node19" class="node"><title>Node19</title>
<g id="a_node19"><a xlink:href="Handle_8h.html" target="_top" xlink:title="Helper class and templated functions to represent and manipulate Handles to C++ objects as Matlab mxA...">
<polygon fill="white" stroke="black" points="360,-123 360,-141 456,-141 456,-123 360,-123"/>
<text text-anchor="middle" x="408" y="-129.8" font-family="Helvetica,sans-Serif" font-size="9.00">MexIFace/Handle.h</text>
</a>
</g>
</g>
<!-- Node18&#45;&gt;Node19 -->
<g id="edge24" class="edge"><title>Node18&#45;&gt;Node19</title>
<path fill="none" stroke="midnightblue" d="M453.562,-178.562C445.511,-170.511 433.191,-158.191 423.391,-148.391"/>
<polygon fill="midnightblue" stroke="midnightblue" points="425.747,-145.798 416.201,-141.201 420.798,-150.747 425.747,-145.798"/>
</g>
<!-- Node19&#45;&gt;Node9 -->
<g id="edge28" class="edge"><title>Node19&#45;&gt;Node9</title>
<path fill="none" stroke="midnightblue" d="M407.924,-122.607C408.262,-108.918 410.94,-81.7339 426,-66 443.129,-48.1043 509.668,-31.1502 549.463,-22.3236"/>
<polygon fill="midnightblue" stroke="midnightblue" points="550.407,-25.7002 559.436,-20.1572 548.921,-18.8598 550.407,-25.7002"/>
</g>
<!-- Node19&#45;&gt;Node10 -->
<g id="edge29" class="edge"><title>Node19&#45;&gt;Node10</title>
<path fill="none" stroke="midnightblue" d="M371.883,-122.974C329.142,-113.476 257.896,-97.6436 211.181,-87.2625"/>
<polygon fill="midnightblue" stroke="midnightblue" points="211.837,-83.8228 201.315,-85.0701 210.318,-90.6561 211.837,-83.8228"/>
</g>
<!-- Node19&#45;&gt;Node14 -->
<g id="edge30" class="edge"><title>Node19&#45;&gt;Node14</title>
<path fill="none" stroke="midnightblue" d="M419.695,-122.799C431.749,-114.345 450.765,-101.009 465.174,-90.9039"/>
<polygon fill="midnightblue" stroke="midnightblue" points="467.27,-93.7091 473.448,-85.1017 463.251,-87.9779 467.27,-93.7091"/>
</g>
<!-- Node19&#45;&gt;Node15 -->
<g id="edge25" class="edge"><title>Node19&#45;&gt;Node15</title>
<path fill="none" stroke="midnightblue" d="M370.817,-122.941C336.994,-114.767 290.757,-101.185 280,-86 264.922,-64.7159 293.193,-42.5748 316.339,-29.0365"/>
<polygon fill="midnightblue" stroke="midnightblue" points="318.135,-32.0424 325.172,-24.122 314.732,-25.9254 318.135,-32.0424"/>
</g>
<!-- Node19&#45;&gt;Node16 -->
<g id="edge26" class="edge"><title>Node19&#45;&gt;Node16</title>
<path fill="none" stroke="midnightblue" d="M375.516,-122.939C340.62,-112.685 292.724,-93.0095 313,-66 330.111,-43.2066 410.903,-27.4196 455.408,-20.2917"/>
<polygon fill="midnightblue" stroke="midnightblue" points="456.016,-23.7393 465.36,-18.7452 454.941,-16.8223 456.016,-23.7393"/>
</g>
<!-- Node20 -->
<g id="node20" class="node"><title>Node20</title>
<polygon fill="white" stroke="#bfbfbf" points="322,-67 322,-85 378,-85 378,-67 322,-67"/>
<text text-anchor="middle" x="350" y="-73.8" font-family="Helvetica,sans-Serif" font-size="9.00">typeindex</text>
</g>
<!-- Node19&#45;&gt;Node20 -->
<g id="edge27" class="edge"><title>Node19&#45;&gt;Node20</title>
<path fill="none" stroke="midnightblue" d="M398.938,-122.562C390.204,-114.431 376.794,-101.946 366.219,-92.1003"/>
<polygon fill="midnightblue" stroke="midnightblue" points="368.513,-89.454 358.809,-85.2014 363.743,-94.5773 368.513,-89.454"/>
</g>
</g>
</svg>
        <g id="navigator" transform="translate(0 0)" fill="#404254">
                <rect fill="#f2f5e9" fill-opacity="0.5" stroke="#606060" stroke-width=".5" x="0" y="0" width="60" height="60"/>
                <use id="zoomplus" xlink:href="#zoomPlus" x="17" y="9" onmousedown="handleZoom(evt,'in')"/>
                <use id="zoomminus" xlink:href="#zoomMin" x="42" y="9" onmousedown="handleZoom(evt,'out')"/>
                <use id="reset" xlink:href="#resetDef" x="30" y="36" onmousedown="handleReset()"/>
                <g id="arrowUp" xlink:href="#dirArrow" transform="translate(30 24)" onmousedown="handlePan(0,-1)">
                  <use xlink:href="#rim" fill="#404040">
                        <set attributeName="fill" to="#808080" begin="arrowUp.mouseover" end="arrowUp.mouseout"/>
                  </use>
                  <path fill="none" stroke="white" stroke-width="1.5" d="M0,-3.0v7 M-2.5,-0.5L0,-3.0L2.5,-0.5"/>
                </g>
                <g id="arrowRight" xlink:href="#dirArrow" transform="rotate(90) translate(36 -43)" onmousedown="handlePan(1,0)">
                  <use xlink:href="#rim" fill="#404040">
                        <set attributeName="fill" to="#808080" begin="arrowRight.mouseover" end="arrowRight.mouseout"/>
                  </use>
                  <path fill="none" stroke="white" stroke-width="1.5" d="M0,-3.0v7 M-2.5,-0.5L0,-3.0L2.5,-0.5"/>
                </g>
                <g id="arrowDown" xlink:href="#dirArrow" transform="rotate(180) translate(-30 -48)" onmousedown="handlePan(0,1)">
                  <use xlink:href="#rim" fill="#404040">
                        <set attributeName="fill" to="#808080" begin="arrowDown.mouseover" end="arrowDown.mouseout"/>
                  </use>
                  <path fill="none" stroke="white" stroke-width="1.5" d="M0,-3.0v7 M-2.5,-0.5L0,-3.0L2.5,-0.5"/>
                </g>
                <g id="arrowLeft" xlink:href="#dirArrow" transform="rotate(270) translate(-36 17)" onmousedown="handlePan(-1,0)">
                  <use xlink:href="#rim" fill="#404040">
                        <set attributeName="fill" to="#808080" begin="arrowLeft.mouseover" end="arrowLeft.mouseout"/>
                  </use>
                  <path fill="none" stroke="white" stroke-width="1.5" d="M0,-3.0v7 M-2.5,-0.5L0,-3.0L2.5,-0.5"/>
                </g>
        </g>
        <svg viewBox="0 0 15 15" width="100%" height="30px" preserveAspectRatio="xMaxYMin meet">
         <g id="arrow_out" transform="scale(0.3 0.3)">
          <a xlink:href="MexIFace_8h__incl_org.svg" target="_base">
           <rect id="button" ry="5" rx="5" y="6" x="6" height="38" width="38"
                fill="#f2f5e9" fill-opacity="0.5" stroke="#606060" stroke-width="1.0"/>
           <path id="arrow"
             d="M 11.500037,31.436501 C 11.940474,20.09759 22.043105,11.32322 32.158766,21.979434 L 37.068811,17.246167 C 37.068811,17.246167 37.088388,32 37.088388,32 L 22.160133,31.978069 C 22.160133,31.978069 26.997745,27.140456 26.997745,27.140456 C 18.528582,18.264221 13.291696,25.230495 11.500037,31.436501 z"
             style="fill:#404040;"/>
          </a>
         </g>
        </svg>
</svg>
