<?xml version="1.0" encoding="UTF-8" standalone="no"?>
<!DOCTYPE svg PUBLIC "-//W3C//DTD SVG 1.1//EN"
 "http://www.w3.org/Graphics/SVG/1.1/DTD/svg11.dtd">
<!-- Generated by graphviz version 2.38.0 (20140413.2041)
 -->
<!-- Title: MexIFace.cpp Pages: 1 -->
<svg width="848pt" height="312pt"
 viewBox="0.00 0.00 848.08 312.00" xmlns="http://www.w3.org/2000/svg" xmlns:xlink="http://www.w3.org/1999/xlink">
<g id="graph0" class="graph" transform="scale(1 1) rotate(0) translate(4 308)">
<title>MexIFace.cpp</title>
<polygon fill="white" stroke="none" points="-4,4 -4,-308 844.077,-308 844.077,4 -4,4"/>
<!-- Node1 -->
<g id="node1" class="node"><title>Node1</title>
<polygon fill="#bfbfbf" stroke="black" points="212.577,-285.5 212.577,-303.5 286.577,-303.5 286.577,-285.5 212.577,-285.5"/>
<text text-anchor="middle" x="249.577" y="-292.3" font-family="Helvetica,sans-Serif" font-size="9.00">MexIFace.cpp</text>
</g>
<!-- Node2 -->
<g id="node2" class="node"><title>Node2</title>
<g id="a_node2"><a xlink:href="MexIFace_8h.html" target="_top" xlink:title="The class declaration and inline and templated functions for MexIFace. ">
<polygon fill="white" stroke="black" points="314.577,-230.5 314.577,-248.5 420.577,-248.5 420.577,-230.5 314.577,-230.5"/>
<text text-anchor="middle" x="367.577" y="-237.3" font-family="Helvetica,sans-Serif" font-size="9.00">MexIFace/MexIFace.h</text>
</a>
</g>
</g>
<!-- Node1&#45;&gt;Node2 -->
<g id="edge1" class="edge"><title>Node1&#45;&gt;Node2</title>
<path fill="none" stroke="midnightblue" d="M267.499,-285.45C286.819,-276.773 317.805,-262.856 340.183,-252.804"/>
<polygon fill="midnightblue" stroke="midnightblue" points="341.799,-255.915 349.487,-248.625 338.931,-249.53 341.799,-255.915"/>
</g>
<!-- Node22 -->
<g id="node22" class="node"><title>Node22</title>
<g id="a_node22"><a xlink:href="explore_8h.html" target="_top" xlink:title="MexIFace/explore.h">
<polygon fill="white" stroke="black" points="83.0773,-230.5 83.0773,-248.5 180.077,-248.5 180.077,-230.5 83.0773,-230.5"/>
<text text-anchor="middle" x="131.577" y="-237.3" font-family="Helvetica,sans-Serif" font-size="9.00">MexIFace/explore.h</text>
</a>
</g>
</g>
<!-- Node1&#45;&gt;Node22 -->
<g id="edge34" class="edge"><title>Node1&#45;&gt;Node22</title>
<path fill="none" stroke="midnightblue" d="M231.656,-285.45C212.336,-276.773 181.35,-262.856 158.971,-252.804"/>
<polygon fill="midnightblue" stroke="midnightblue" points="160.224,-249.53 149.668,-248.625 157.356,-255.915 160.224,-249.53"/>
</g>
<!-- Node3 -->
<g id="node3" class="node"><title>Node3</title>
<polygon fill="white" stroke="#bfbfbf" points="699.077,-175.5 699.077,-193.5 748.077,-193.5 748.077,-175.5 699.077,-175.5"/>
<text text-anchor="middle" x="723.577" y="-182.3" font-family="Helvetica,sans-Serif" font-size="9.00">sstream</text>
</g>
<!-- Node2&#45;&gt;Node3 -->
<g id="edge2" class="edge"><title>Node2&#45;&gt;Node3</title>
<path fill="none" stroke="midnightblue" d="M420.856,-232.916C482.886,-226.019 588.576,-213.045 688.774,-193.958"/>
<polygon fill="midnightblue" stroke="midnightblue" points="689.608,-197.362 698.764,-192.031 688.282,-190.489 689.608,-197.362"/>
</g>
<!-- Node4 -->
<g id="node4" class="node"><title>Node4</title>
<polygon fill="white" stroke="#bfbfbf" points="805.077,-175.5 805.077,-193.5 840.077,-193.5 840.077,-175.5 805.077,-175.5"/>
<text text-anchor="middle" x="822.577" y="-182.3" font-family="Helvetica,sans-Serif" font-size="9.00">map</text>
</g>
<!-- Node2&#45;&gt;Node4 -->
<g id="edge3" class="edge"><title>Node2&#45;&gt;Node4</title>
<path fill="none" stroke="midnightblue" d="M420.711,-235.558C501.238,-230.504 658.772,-218.287 790.577,-194 792.026,-193.733 793.505,-193.434 794.994,-193.113"/>
<polygon fill="midnightblue" stroke="midnightblue" points="795.849,-196.507 804.748,-190.759 794.206,-189.703 795.849,-196.507"/>
</g>
<!-- Node5 -->
<g id="node5" class="node"><title>Node5</title>
<polygon fill="white" stroke="#bfbfbf" points="31.0773,-120.5 31.0773,-138.5 72.0773,-138.5 72.0773,-120.5 31.0773,-120.5"/>
<text text-anchor="middle" x="51.5773" y="-127.3" font-family="Helvetica,sans-Serif" font-size="9.00">vector</text>
</g>
<!-- Node2&#45;&gt;Node5 -->
<g id="edge4" class="edge"><title>Node2&#45;&gt;Node5</title>
<path fill="none" stroke="midnightblue" d="M314.431,-235.309C244.245,-230.206 125.347,-218.217 89.5773,-194 73.483,-183.104 63.1402,-162.911 57.3717,-148.214"/>
<polygon fill="midnightblue" stroke="midnightblue" points="60.6294,-146.929 53.9629,-138.695 54.0393,-149.289 60.6294,-146.929"/>
</g>
<!-- Node6 -->
<g id="node6" class="node"><title>Node6</title>
<polygon fill="white" stroke="#bfbfbf" points="504.077,-175.5 504.077,-193.5 533.077,-193.5 533.077,-175.5 504.077,-175.5"/>
<text text-anchor="middle" x="518.577" y="-182.3" font-family="Helvetica,sans-Serif" font-size="9.00">list</text>
</g>
<!-- Node2&#45;&gt;Node6 -->
<g id="edge5" class="edge"><title>Node2&#45;&gt;Node6</title>
<path fill="none" stroke="midnightblue" d="M390.528,-230.484C414.181,-222.217 452.36,-208.858 494.285,-194.095"/>
<polygon fill="midnightblue" stroke="midnightblue" points="495.588,-197.346 503.857,-190.722 493.262,-190.744 495.588,-197.346"/>
</g>
<!-- Node7 -->
<g id="node7" class="node"><title>Node7</title>
<polygon fill="white" stroke="#bfbfbf" points="551.077,-175.5 551.077,-193.5 606.077,-193.5 606.077,-175.5 551.077,-175.5"/>
<text text-anchor="middle" x="578.577" y="-182.3" font-family="Helvetica,sans-Serif" font-size="9.00">algorithm</text>
</g>
<!-- Node2&#45;&gt;Node7 -->
<g id="edge6" class="edge"><title>Node2&#45;&gt;Node7</title>
<path fill="none" stroke="midnightblue" d="M399.624,-230.45C437.672,-220.893 501.024,-204.98 541.25,-194.876"/>
<polygon fill="midnightblue" stroke="midnightblue" points="542.103,-198.271 550.949,-192.44 540.397,-191.482 542.103,-198.271"/>
</g>
<!-- Node8 -->
<g id="node8" class="node"><title>Node8</title>
<polygon fill="white" stroke="#bfbfbf" points="624.577,-175.5 624.577,-193.5 680.577,-193.5 680.577,-175.5 624.577,-175.5"/>
<text text-anchor="middle" x="652.577" y="-182.3" font-family="Helvetica,sans-Serif" font-size="9.00">functional</text>
</g>
<!-- Node2&#45;&gt;Node8 -->
<g id="edge7" class="edge"><title>Node2&#45;&gt;Node8</title>
<path fill="none" stroke="midnightblue" d="M416.181,-230.492C464.125,-222.433 539.733,-209.297 614.292,-194.185"/>
<polygon fill="midnightblue" stroke="midnightblue" points="615.228,-197.566 624.326,-192.138 613.828,-190.708 615.228,-197.566"/>
</g>
<!-- Node9 -->
<g id="node9" class="node"><title>Node9</title>
<polygon fill="white" stroke="#bfbfbf" points="197.077,-120.5 197.077,-138.5 252.077,-138.5 252.077,-120.5 197.077,-120.5"/>
<text text-anchor="middle" x="224.577" y="-127.3" font-family="Helvetica,sans-Serif" font-size="9.00">armadillo</text>
</g>
<!-- Node2&#45;&gt;Node9 -->
<g id="edge8" class="edge"><title>Node2&#45;&gt;Node9</title>
<path fill="none" stroke="midnightblue" d="M338.156,-230.47C316.582,-223.482 287.522,-211.667 266.577,-194 251.456,-181.245 239.659,-161.698 232.469,-147.662"/>
<polygon fill="midnightblue" stroke="midnightblue" points="235.581,-146.059 228.066,-138.591 229.284,-149.116 235.581,-146.059"/>
</g>
<!-- Node10 -->
<g id="node10" class="node"><title>Node10</title>
<polygon fill="white" stroke="#bfbfbf" points="352.077,-5.5 352.077,-23.5 393.077,-23.5 393.077,-5.5 352.077,-5.5"/>
<text text-anchor="middle" x="372.577" y="-12.3" font-family="Helvetica,sans-Serif" font-size="9.00">mex.h</text>
</g>
<!-- Node2&#45;&gt;Node10 -->
<g id="edge9" class="edge"><title>Node2&#45;&gt;Node10</title>
<path fill="none" stroke="midnightblue" d="M359.394,-230.256C335.168,-204.815 267.452,-125.598 299.577,-65 308.665,-47.8584 326.639,-35.5592 342.477,-27.5081"/>
<polygon fill="midnightblue" stroke="midnightblue" points="344.409,-30.4669 351.964,-23.0388 341.426,-24.1344 344.409,-30.4669"/>
</g>
<!-- Node11 -->
<g id="node11" class="node"><title>Node11</title>
<g id="a_node11"><a xlink:href="MexIFaceError_8h.html" target="_top" xlink:title="Exception classes for MexIFace. ">
<polygon fill="white" stroke="black" points="37.5773,-65.5 37.5773,-83.5 163.577,-83.5 163.577,-65.5 37.5773,-65.5"/>
<text text-anchor="middle" x="100.577" y="-72.3" font-family="Helvetica,sans-Serif" font-size="9.00">MexIFace/MexIFaceError.h</text>
</a>
</g>
</g>
<!-- Node2&#45;&gt;Node11 -->
<g id="edge10" class="edge"><title>Node2&#45;&gt;Node11</title>
<path fill="none" stroke="midnightblue" d="M314.575,-235.165C240.073,-229.72 108.86,-217.133 67.5773,-194 33.7945,-175.069 2.03704,-153.434 21.5773,-120 30.4573,-104.806 46.6477,-94.3961 62.07,-87.4892"/>
<polygon fill="midnightblue" stroke="midnightblue" points="63.5714,-90.6566 71.501,-83.63 60.9204,-84.178 63.5714,-90.6566"/>
</g>
<!-- Node13 -->
<g id="node13" class="node"><title>Node13</title>
<g id="a_node13"><a xlink:href="hypercube_8h.html" target="_top" xlink:title="The class declaration and inline and templated functions for hypercube. ">
<polygon fill="white" stroke="black" points="98.5773,-175.5 98.5773,-193.5 208.577,-193.5 208.577,-175.5 98.5773,-175.5"/>
<text text-anchor="middle" x="153.577" y="-182.3" font-family="Helvetica,sans-Serif" font-size="9.00">MexIFace/hypercube.h</text>
</a>
</g>
</g>
<!-- Node2&#45;&gt;Node13 -->
<g id="edge12" class="edge"><title>Node2&#45;&gt;Node13</title>
<path fill="none" stroke="midnightblue" d="M335.075,-230.45C297.888,-221.24 236.866,-206.128 195.971,-195.999"/>
<polygon fill="midnightblue" stroke="midnightblue" points="196.582,-192.545 186.034,-193.538 194.899,-199.34 196.582,-192.545"/>
</g>
<!-- Node15 -->
<g id="node15" class="node"><title>Node15</title>
<g id="a_node15"><a xlink:href="MexUtils_8h.html" target="_top" xlink:title="Helper functions for working with Matlab mxArrays and mxClassIDs. ">
<polygon fill="white" stroke="black" points="643.077,-65.5 643.077,-83.5 744.077,-83.5 744.077,-65.5 643.077,-65.5"/>
<text text-anchor="middle" x="693.577" y="-72.3" font-family="Helvetica,sans-Serif" font-size="9.00">MexIFace/MexUtils.h</text>
</a>
</g>
</g>
<!-- Node2&#45;&gt;Node15 -->
<g id="edge17" class="edge"><title>Node2&#45;&gt;Node15</title>
<path fill="none" stroke="midnightblue" d="M420.858,-236.292C522.401,-231.533 735.543,-218.692 757.577,-194 786.359,-161.748 740.192,-114.278 712.318,-90.3899"/>
<polygon fill="midnightblue" stroke="midnightblue" points="714.286,-87.4747 704.358,-83.7765 709.813,-92.859 714.286,-87.4747"/>
</g>
<!-- Node18 -->
<g id="node18" class="node"><title>Node18</title>
<g id="a_node18"><a xlink:href="MexIFaceBase_8h.html" target="_top" xlink:title="class MexIFaceBase declaration. ">
<polygon fill="white" stroke="black" points="309.077,-65.5 309.077,-83.5 436.077,-83.5 436.077,-65.5 309.077,-65.5"/>
<text text-anchor="middle" x="372.577" y="-72.3" font-family="Helvetica,sans-Serif" font-size="9.00">MexIFace/MexIFaceBase.h</text>
</a>
</g>
</g>
<!-- Node2&#45;&gt;Node18 -->
<g id="edge21" class="edge"><title>Node2&#45;&gt;Node18</title>
<path fill="none" stroke="midnightblue" d="M359.923,-230.435C352.564,-222.075 341.934,-208.257 337.577,-194 326.496,-157.74 347.401,-115.062 361.406,-92.1129"/>
<polygon fill="midnightblue" stroke="midnightblue" points="364.435,-93.8726 366.872,-83.5619 358.537,-90.1023 364.435,-93.8726"/>
</g>
<!-- Node19 -->
<g id="node19" class="node"><title>Node19</title>
<g id="a_node19"><a xlink:href="MexIFaceHandler_8h.html" target="_top" xlink:title="class MexIFaceBase declaration. ">
<polygon fill="white" stroke="black" points="347.077,-175.5 347.077,-193.5 486.077,-193.5 486.077,-175.5 347.077,-175.5"/>
<text text-anchor="middle" x="416.577" y="-182.3" font-family="Helvetica,sans-Serif" font-size="9.00">MexIFace/MexIFaceHandler.h</text>
</a>
</g>
</g>
<!-- Node2&#45;&gt;Node19 -->
<g id="edge24" class="edge"><title>Node2&#45;&gt;Node19</title>
<path fill="none" stroke="midnightblue" d="M375.234,-230.219C382.395,-222.473 393.278,-210.701 402.081,-201.18"/>
<polygon fill="midnightblue" stroke="midnightblue" points="404.917,-203.268 409.135,-193.55 399.777,-198.516 404.917,-203.268"/>
</g>
<!-- Node12 -->
<g id="node12" class="node"><title>Node12</title>
<polygon fill="white" stroke="#bfbfbf" points="47.0773,-0.5 47.0773,-28.5 154.077,-28.5 154.077,-0.5 47.0773,-0.5"/>
<text text-anchor="start" x="55.0773" y="-17.3" font-family="Helvetica,sans-Serif" font-size="9.00">BacktraceException</text>
<text text-anchor="middle" x="100.577" y="-7.3" font-family="Helvetica,sans-Serif" font-size="9.00">/BacktraceException.h</text>
</g>
<!-- Node11&#45;&gt;Node12 -->
<g id="edge11" class="edge"><title>Node11&#45;&gt;Node12</title>
<path fill="none" stroke="midnightblue" d="M100.577,-65.4353C100.577,-58.5603 100.577,-48.3238 100.577,-38.9057"/>
<polygon fill="midnightblue" stroke="midnightblue" points="104.077,-38.8427 100.577,-28.8428 97.0774,-38.8428 104.077,-38.8427"/>
</g>
<!-- Node13&#45;&gt;Node5 -->
<g id="edge15" class="edge"><title>Node13&#45;&gt;Node5</title>
<path fill="none" stroke="midnightblue" d="M138.086,-175.45C121.685,-166.929 95.5589,-153.353 76.305,-143.349"/>
<polygon fill="midnightblue" stroke="midnightblue" points="77.7021,-140.13 67.2147,-138.625 74.4745,-146.342 77.7021,-140.13"/>
</g>
<!-- Node13&#45;&gt;Node9 -->
<g id="edge13" class="edge"><title>Node13&#45;&gt;Node9</title>
<path fill="none" stroke="midnightblue" d="M164.361,-175.45C175.203,-167.357 192.153,-154.704 205.311,-144.882"/>
<polygon fill="midnightblue" stroke="midnightblue" points="207.773,-147.412 213.692,-138.625 203.585,-141.803 207.773,-147.412"/>
</g>
<!-- Node13&#45;&gt;Node11 -->
<g id="edge16" class="edge"><title>Node13&#45;&gt;Node11</title>
<path fill="none" stroke="midnightblue" d="M145.801,-175.266C138.159,-166.776 126.644,-152.858 119.577,-139 112.219,-124.57 107.208,-106.81 104.188,-93.7445"/>
<polygon fill="midnightblue" stroke="midnightblue" points="107.548,-92.722 102.037,-83.6733 100.703,-94.1838 107.548,-92.722"/>
</g>
<!-- Node14 -->
<g id="node14" class="node"><title>Node14</title>
<polygon fill="white" stroke="#bfbfbf" points="128.577,-120.5 128.577,-138.5 178.577,-138.5 178.577,-120.5 128.577,-120.5"/>
<text text-anchor="middle" x="153.577" y="-127.3" font-family="Helvetica,sans-Serif" font-size="9.00">memory</text>
</g>
<!-- Node13&#45;&gt;Node14 -->
<g id="edge14" class="edge"><title>Node13&#45;&gt;Node14</title>
<path fill="none" stroke="midnightblue" d="M153.577,-175.219C153.577,-168.177 153.577,-157.808 153.577,-148.828"/>
<polygon fill="midnightblue" stroke="midnightblue" points="157.077,-148.55 153.577,-138.55 150.077,-148.55 157.077,-148.55"/>
</g>
<!-- Node15&#45;&gt;Node10 -->
<g id="edge20" class="edge"><title>Node15&#45;&gt;Node10</title>
<path fill="none" stroke="midnightblue" d="M649.281,-65.4962C583.059,-53.5309 459.952,-31.2872 402.968,-20.9911"/>
<polygon fill="midnightblue" stroke="midnightblue" points="403.589,-17.5468 393.126,-19.2128 402.344,-24.4352 403.589,-17.5468"/>
</g>
<!-- Node16 -->
<g id="node16" class="node"><title>Node16</title>
<polygon fill="white" stroke="#bfbfbf" points="643.077,-5.5 643.077,-23.5 686.077,-23.5 686.077,-5.5 643.077,-5.5"/>
<text text-anchor="middle" x="664.577" y="-12.3" font-family="Helvetica,sans-Serif" font-size="9.00">cstdint</text>
</g>
<!-- Node15&#45;&gt;Node16 -->
<g id="edge18" class="edge"><title>Node15&#45;&gt;Node16</title>
<path fill="none" stroke="midnightblue" d="M689.545,-65.4353C685.351,-57.0467 678.654,-43.6539 673.252,-32.8491"/>
<polygon fill="midnightblue" stroke="midnightblue" points="676.366,-31.2508 668.763,-23.8718 670.105,-34.3813 676.366,-31.2508"/>
</g>
<!-- Node17 -->
<g id="node17" class="node"><title>Node17</title>
<polygon fill="white" stroke="#bfbfbf" points="557.077,-5.5 557.077,-23.5 596.077,-23.5 596.077,-5.5 557.077,-5.5"/>
<text text-anchor="middle" x="576.577" y="-12.3" font-family="Helvetica,sans-Serif" font-size="9.00">string</text>
</g>
<!-- Node15&#45;&gt;Node17 -->
<g id="edge19" class="edge"><title>Node15&#45;&gt;Node17</title>
<path fill="none" stroke="midnightblue" d="M677.309,-65.4353C657.86,-55.7939 625.075,-39.5418 602.209,-28.2065"/>
<polygon fill="midnightblue" stroke="midnightblue" points="603.599,-24.9888 593.085,-23.6831 600.49,-31.2605 603.599,-24.9888"/>
</g>
<!-- Node18&#45;&gt;Node10 -->
<g id="edge23" class="edge"><title>Node18&#45;&gt;Node10</title>
<path fill="none" stroke="midnightblue" d="M372.577,-65.4353C372.577,-57.3891 372.577,-44.7388 372.577,-34.1846"/>
<polygon fill="midnightblue" stroke="midnightblue" points="376.077,-33.8717 372.577,-23.8718 369.077,-33.8718 376.077,-33.8717"/>
</g>
<!-- Node18&#45;&gt;Node17 -->
<g id="edge22" class="edge"><title>Node18&#45;&gt;Node17</title>
<path fill="none" stroke="midnightblue" d="M400.943,-65.4353C439.534,-54.4632 508.238,-34.9298 547.298,-23.8244"/>
<polygon fill="midnightblue" stroke="midnightblue" points="548.355,-27.1627 557.017,-21.0613 546.441,-20.4295 548.355,-27.1627"/>
</g>
<!-- Node19&#45;&gt;Node15 -->
<g id="edge33" class="edge"><title>Node19&#45;&gt;Node15</title>
<path fill="none" stroke="midnightblue" d="M455.134,-175.488C488.275,-167.981 536.998,-155.456 577.577,-139 612.359,-124.895 650.022,-102.91 672.703,-88.861"/>
<polygon fill="midnightblue" stroke="midnightblue" points="674.565,-91.8248 681.178,-83.5472 670.846,-85.8941 674.565,-91.8248"/>
</g>
<!-- Node19&#45;&gt;Node18 -->
<g id="edge32" class="edge"><title>Node19&#45;&gt;Node18</title>
<path fill="none" stroke="midnightblue" d="M413.27,-175.382C406.199,-158.026 389.468,-116.96 379.805,-93.2413"/>
<polygon fill="midnightblue" stroke="midnightblue" points="382.937,-91.6521 375.923,-83.7118 376.455,-94.2932 382.937,-91.6521"/>
</g>
<!-- Node20 -->
<g id="node20" class="node"><title>Node20</title>
<g id="a_node20"><a xlink:href="Handle_8h.html" target="_top" xlink:title="Helper class and templated functions to represent and manipulate Handles to C++ objects as Matlab mxA...">
<polygon fill="white" stroke="black" points="472.577,-120.5 472.577,-138.5 568.577,-138.5 568.577,-120.5 472.577,-120.5"/>
<text text-anchor="middle" x="520.577" y="-127.3" font-family="Helvetica,sans-Serif" font-size="9.00">MexIFace/Handle.h</text>
</a>
</g>
</g>
<!-- Node19&#45;&gt;Node20 -->
<g id="edge25" class="edge"><title>Node19&#45;&gt;Node20</title>
<path fill="none" stroke="midnightblue" d="M432.373,-175.45C449.171,-166.89 475.977,-153.229 495.633,-143.212"/>
<polygon fill="midnightblue" stroke="midnightblue" points="497.313,-146.284 504.633,-138.625 494.134,-140.047 497.313,-146.284"/>
</g>
<!-- Node20&#45;&gt;Node10 -->
<g id="edge29" class="edge"><title>Node20&#45;&gt;Node10</title>
<path fill="none" stroke="midnightblue" d="M511.446,-120.392C497.401,-108.031 469.505,-83.917 444.577,-65 427.925,-52.3626 408.336,-38.9863 393.798,-29.329"/>
<polygon fill="midnightblue" stroke="midnightblue" points="395.331,-26.1474 385.055,-23.5649 391.477,-31.9915 395.331,-26.1474"/>
</g>
<!-- Node20&#45;&gt;Node11 -->
<g id="edge30" class="edge"><title>Node20&#45;&gt;Node11</title>
<path fill="none" stroke="midnightblue" d="M472.398,-122.42C399.234,-113.188 259.577,-95.5643 173.802,-84.7403"/>
<polygon fill="midnightblue" stroke="midnightblue" points="174.234,-81.2671 163.875,-83.4875 173.358,-88.2121 174.234,-81.2671"/>
</g>
<!-- Node20&#45;&gt;Node15 -->
<g id="edge31" class="edge"><title>Node20&#45;&gt;Node15</title>
<path fill="none" stroke="midnightblue" d="M546.852,-120.45C576.406,-111.396 624.579,-96.6382 657.611,-86.5185"/>
<polygon fill="midnightblue" stroke="midnightblue" points="658.803,-89.8141 667.339,-83.5383 656.752,-83.1211 658.803,-89.8141"/>
</g>
<!-- Node20&#45;&gt;Node16 -->
<g id="edge26" class="edge"><title>Node20&#45;&gt;Node16</title>
<path fill="none" stroke="midnightblue" d="M530.933,-120.373C555.115,-101.397 615.562,-53.9632 646.183,-29.9347"/>
<polygon fill="midnightblue" stroke="midnightblue" points="648.609,-32.4799 654.315,-23.553 644.287,-26.973 648.609,-32.4799"/>
</g>
<!-- Node20&#45;&gt;Node17 -->
<g id="edge27" class="edge"><title>Node20&#45;&gt;Node17</title>
<path fill="none" stroke="midnightblue" d="M529.14,-120.429C537.534,-112.065 550.124,-98.2435 557.577,-84 565.975,-67.9516 570.989,-47.79 573.739,-33.5062"/>
<polygon fill="midnightblue" stroke="midnightblue" points="577.213,-33.954 575.48,-23.5019 570.317,-32.7537 577.213,-33.954"/>
</g>
<!-- Node21 -->
<g id="node21" class="node"><title>Node21</title>
<polygon fill="white" stroke="#bfbfbf" points="492.577,-65.5 492.577,-83.5 548.577,-83.5 548.577,-65.5 492.577,-65.5"/>
<text text-anchor="middle" x="520.577" y="-72.3" font-family="Helvetica,sans-Serif" font-size="9.00">typeindex</text>
</g>
<!-- Node20&#45;&gt;Node21 -->
<g id="edge28" class="edge"><title>Node20&#45;&gt;Node21</title>
<path fill="none" stroke="midnightblue" d="M520.577,-120.219C520.577,-113.177 520.577,-102.808 520.577,-93.8277"/>
<polygon fill="midnightblue" stroke="midnightblue" points="524.077,-93.5495 520.577,-83.5496 517.077,-93.5496 524.077,-93.5495"/>
</g>
<!-- Node22&#45;&gt;Node10 -->
<g id="edge35" class="edge"><title>Node22&#45;&gt;Node10</title>
<path fill="none" stroke="midnightblue" d="M99.0684,-230.366C78.2379,-223.672 51.9475,-212.254 34.5773,-194 -4.98818,-152.421 -14.7499,-102.643 28.5773,-65 52.0684,-44.5909 261.089,-24.9303 341.368,-18.0652"/>
<polygon fill="midnightblue" stroke="midnightblue" points="342.138,-21.5126 351.808,-17.1827 341.549,-14.5375 342.138,-21.5126"/>
</g>
</g>
</svg>
