<?xml version="1.0" encoding="UTF-8" standalone="no"?>
<!DOCTYPE svg PUBLIC "-//W3C//DTD SVG 1.1//EN"
 "http://www.w3.org/Graphics/SVG/1.1/DTD/svg11.dtd">
<!-- Generated by graphviz version 2.38.0 (20140413.2041)
 -->
<!-- Title: MexIFaceHandler.h Pages: 1 -->
<svg width="105pt" height="137pt"
 viewBox="0.00 0.00 105.00 137.00" xmlns="http://www.w3.org/2000/svg" xmlns:xlink="http://www.w3.org/1999/xlink">
<g id="graph0" class="graph" transform="scale(1 1) rotate(0) translate(4 133)">
<title>MexIFaceHandler.h</title>
<polygon fill="white" stroke="none" points="-4,4 -4,-133 101,-133 101,4 -4,4"/>
<!-- Node1 -->
<g id="node1" class="node"><title>Node1</title>
<polygon fill="#bfbfbf" stroke="black" points="-7.10543e-15,-110.5 -7.10543e-15,-128.5 97,-128.5 97,-110.5 -7.10543e-15,-110.5"/>
<text text-anchor="middle" x="48.5" y="-117.3" font-family="Helvetica,sans-Serif" font-size="9.00">MexIFaceHandler.h</text>
</g>
<!-- Node2 -->
<g id="node2" class="node"><title>Node2</title>
<g id="a_node2"><a xlink:href="MexIFace_8h.html" target="_top" xlink:title="The class declaration and inline and templated functions for MexIFace. ">
<polygon fill="white" stroke="black" points="16.5,-55.5 16.5,-73.5 80.5,-73.5 80.5,-55.5 16.5,-55.5"/>
<text text-anchor="middle" x="48.5" y="-62.3" font-family="Helvetica,sans-Serif" font-size="9.00">MexIFace.h</text>
</a>
</g>
</g>
<!-- Node1&#45;&gt;Node2 -->
<g id="edge1" class="edge"><title>Node1&#45;&gt;Node2</title>
<path fill="none" stroke="midnightblue" d="M48.5,-100.175C48.5,-91.0945 48.5,-80.5949 48.5,-73.5496"/>
<polygon fill="midnightblue" stroke="midnightblue" points="45.0001,-100.219 48.5,-110.219 52.0001,-100.219 45.0001,-100.219"/>
</g>
<!-- Node3 -->
<g id="node3" class="node"><title>Node3</title>
<g id="a_node3"><a xlink:href="MexIFace_8cpp.html" target="_top" xlink:title="The class definition for MexIFace. ">
<polygon fill="white" stroke="black" points="11.5,-0.5 11.5,-18.5 85.5,-18.5 85.5,-0.5 11.5,-0.5"/>
<text text-anchor="middle" x="48.5" y="-7.3" font-family="Helvetica,sans-Serif" font-size="9.00">MexIFace.cpp</text>
</a>
</g>
</g>
<!-- Node2&#45;&gt;Node3 -->
<g id="edge2" class="edge"><title>Node2&#45;&gt;Node3</title>
<path fill="none" stroke="midnightblue" d="M48.5,-45.1746C48.5,-36.0945 48.5,-25.5949 48.5,-18.5496"/>
<polygon fill="midnightblue" stroke="midnightblue" points="45.0001,-45.2187 48.5,-55.2188 52.0001,-45.2188 45.0001,-45.2187"/>
</g>
</g>
</svg>
