<?xml version="1.0" encoding="UTF-8" standalone="no"?>
<!DOCTYPE svg PUBLIC "-//W3C//DTD SVG 1.1//EN"
 "http://www.w3.org/Graphics/SVG/1.1/DTD/svg11.dtd">
<!-- Generated by graphviz version 2.36.0 (20140111.2315)
 -->
<!-- Title: MexIFaceBase.h Pages: 1 -->
<svg width="105pt" height="84pt"
 viewBox="0.00 0.00 105.00 84.00" xmlns="http://www.w3.org/2000/svg" xmlns:xlink="http://www.w3.org/1999/xlink">
<g id="graph0" class="graph" transform="scale(1 1) rotate(0) translate(4 80)">
<title>MexIFaceBase.h</title>
<polygon fill="white" stroke="none" points="-4,4 -4,-80 101,-80 101,4 -4,4"/>
<!-- Node1 -->
<g id="node1" class="node"><title>Node1</title>
<polygon fill="#bfbfbf" stroke="black" points="5.5,-57 5.5,-75 90.5,-75 90.5,-57 5.5,-57"/>
<text text-anchor="middle" x="48" y="-63.8" font-family="Helvetica,sans-Serif" font-size="9.00">MexIFaceBase.h</text>
</g>
<!-- Node2 -->
<g id="node2" class="node"><title>Node2</title>
<polygon fill="white" stroke="#bfbfbf" points="-0.5,-1 -0.5,-19 38.5,-19 38.5,-1 -0.5,-1"/>
<text text-anchor="middle" x="19" y="-7.8" font-family="Helvetica,sans-Serif" font-size="9.00">string</text>
</g>
<!-- Node1&#45;&gt;Node2 -->
<g id="edge1" class="edge"><title>Node1&#45;&gt;Node2</title>
<path fill="none" stroke="midnightblue" d="M43.4688,-56.5625C39.4016,-48.9891 33.3063,-37.6393 28.2169,-28.1625"/>
<polygon fill="midnightblue" stroke="midnightblue" points="31.2193,-26.3554 23.4045,-19.2014 25.0523,-29.6674 31.2193,-26.3554"/>
</g>
<!-- Node3 -->
<g id="node3" class="node"><title>Node3</title>
<polygon fill="white" stroke="#bfbfbf" points="56.5,-1 56.5,-19 97.5,-19 97.5,-1 56.5,-1"/>
<text text-anchor="middle" x="77" y="-7.8" font-family="Helvetica,sans-Serif" font-size="9.00">mex.h</text>
</g>
<!-- Node1&#45;&gt;Node3 -->
<g id="edge2" class="edge"><title>Node1&#45;&gt;Node3</title>
<path fill="none" stroke="midnightblue" d="M52.5312,-56.5625C56.5984,-48.9891 62.6937,-37.6393 67.7831,-28.1625"/>
<polygon fill="midnightblue" stroke="midnightblue" points="70.9477,-29.6674 72.5955,-19.2014 64.7807,-26.3554 70.9477,-29.6674"/>
</g>
</g>
</svg>
