<?xml version="1.0" encoding="UTF-8" standalone="no"?>
<!DOCTYPE svg PUBLIC "-//W3C//DTD SVG 1.1//EN"
 "http://www.w3.org/Graphics/SVG/1.1/DTD/svg11.dtd">
<!-- Generated by graphviz version 2.38.0 (20140413.2041)
 -->
<!-- Title: MexIFaceBase.h Pages: 1 -->
<svg width="106pt" height="82pt"
 viewBox="0.00 0.00 106.00 82.00" xmlns="http://www.w3.org/2000/svg" xmlns:xlink="http://www.w3.org/1999/xlink">
<g id="graph0" class="graph" transform="scale(1 1) rotate(0) translate(4 78)">
<title>MexIFaceBase.h</title>
<polygon fill="white" stroke="none" points="-4,4 -4,-78 102,-78 102,4 -4,4"/>
<!-- Node1 -->
<g id="node1" class="node"><title>Node1</title>
<polygon fill="#bfbfbf" stroke="black" points="6,-55.5 6,-73.5 91,-73.5 91,-55.5 6,-55.5"/>
<text text-anchor="middle" x="48.5" y="-62.3" font-family="Helvetica,sans-Serif" font-size="9.00">MexIFaceBase.h</text>
</g>
<!-- Node2 -->
<g id="node2" class="node"><title>Node2</title>
<polygon fill="white" stroke="#bfbfbf" points="0,-0.5 0,-18.5 39,-18.5 39,-0.5 0,-0.5"/>
<text text-anchor="middle" x="19.5" y="-7.3" font-family="Helvetica,sans-Serif" font-size="9.00">string</text>
</g>
<!-- Node1&#45;&gt;Node2 -->
<g id="edge1" class="edge"><title>Node1&#45;&gt;Node2</title>
<path fill="none" stroke="midnightblue" d="M43.9688,-55.2188C39.9016,-47.7856 33.8063,-36.646 28.7169,-27.3446"/>
<polygon fill="midnightblue" stroke="midnightblue" points="31.7751,-25.6421 23.9045,-18.5496 25.6342,-29.0023 31.7751,-25.6421"/>
</g>
<!-- Node3 -->
<g id="node3" class="node"><title>Node3</title>
<polygon fill="white" stroke="#bfbfbf" points="57,-0.5 57,-18.5 98,-18.5 98,-0.5 57,-0.5"/>
<text text-anchor="middle" x="77.5" y="-7.3" font-family="Helvetica,sans-Serif" font-size="9.00">mex.h</text>
</g>
<!-- Node1&#45;&gt;Node3 -->
<g id="edge2" class="edge"><title>Node1&#45;&gt;Node3</title>
<path fill="none" stroke="midnightblue" d="M53.0312,-55.2188C57.0984,-47.7856 63.1937,-36.646 68.2831,-27.3446"/>
<polygon fill="midnightblue" stroke="midnightblue" points="71.3658,-29.0023 73.0955,-18.5496 65.2249,-25.6421 71.3658,-29.0023"/>
</g>
</g>
</svg>
