<?xml version="1.0" encoding="UTF-8" standalone="no"?>
<!DOCTYPE svg PUBLIC "-//W3C//DTD SVG 1.1//EN"
 "http://www.w3.org/Graphics/SVG/1.1/DTD/svg11.dtd">
<!-- Generated by graphviz version 2.38.0 (20140413.2041)
 -->
<!-- Title: MexIFaceHandler.h Pages: 1 -->
<!--zoomable 202 -->
<svg id="main" version="1.1" xmlns="http://www.w3.org/2000/svg" xmlns:xlink="http://www.w3.org/1999/xlink" xml:space="preserve" onload="init(evt)">
<style type="text/css"><![CDATA[
.edge:hover path { stroke: red; }
.edge:hover polygon { stroke: red; fill: red; }
]]></style>
<script type="text/javascript"><![CDATA[
var edges = document.getElementsByTagName('g');
if (edges && edges.length) {
  for (var i=0;i<edges.length;i++) {
    if (edges[i].id.substr(0,4)=='edge') {
      edges[i].setAttribute('class','edge');
    }
  }
}
]]></script>
        <defs>
                <circle id="rim" cx="0" cy="0" r="7"/>
                <circle id="rim2" cx="0" cy="0" r="3.5"/>
                <g id="zoomPlus">
                        <use xlink:href="#rim" fill="#404040">
                                <set attributeName="fill" to="#808080" begin="zoomplus.mouseover" end="zoomplus.mouseout"/>
                        </use>
                        <path d="M-4,0h8M0,-4v8" fill="none" stroke="white" stroke-width="1.5" pointer-events="none"/>
                </g>
                <g id="zoomMin">
                        <use xlink:href="#rim" fill="#404040">
                                <set attributeName="fill" to="#808080" begin="zoomminus.mouseover" end="zoomminus.mouseout"/>
                        </use>
                        <path d="M-4,0h8" fill="none" stroke="white" stroke-width="1.5" pointer-events="none"/>
                </g>
                <g id="dirArrow">
                        <path fill="none" stroke="white" stroke-width="1.5" d="M0,-3.0v7 M-2.5,-0.5L0,-3.0L2.5,-0.5"/>
                </g>
               <g id="resetDef">
                       <use xlink:href="#rim2" fill="#404040">
                               <set attributeName="fill" to="#808080" begin="reset.mouseover" end="reset.mouseout"/>
                       </use>
               </g>
        </defs>

<script type="text/javascript">
var viewWidth = 588;
var viewHeight = 202;
var sectionId = 'dynsection-0';
</script>
<script xlink:href="svgpan.js"/>
<svg id="graph" class="graph">
<g id="viewport">
<title>MexIFaceHandler.h</title>
<polygon fill="white" stroke="none" points="-4,4 -4,-198 583.5,-198 583.5,4 -4,4"/>
<!-- Node1 -->
<g id="node1" class="node"><title>Node1</title>
<polygon fill="#bfbfbf" stroke="black" points="296.5,-175.5 296.5,-193.5 393.5,-193.5 393.5,-175.5 296.5,-175.5"/>
<text text-anchor="middle" x="345" y="-182.3" font-family="Helvetica,sans-Serif" font-size="9.00">MexIFaceHandler.h</text>
</g>
<!-- Node2 -->
<g id="node2" class="node"><title>Node2</title>
<g id="a_node2"><a xlink:href="Handle_8h.html" target="_top" xlink:title="Helper class and templated functions to represent and manipulate Handles to C++ objects as Matlab mxA...">
<polygon fill="white" stroke="black" points="218,-120.5 218,-138.5 314,-138.5 314,-120.5 218,-120.5"/>
<text text-anchor="middle" x="266" y="-127.3" font-family="Helvetica,sans-Serif" font-size="9.00">MexIFace/Handle.h</text>
</a>
</g>
</g>
<!-- Node1&#45;&gt;Node2 -->
<g id="edge1" class="edge"><title>Node1&#45;&gt;Node2</title>
<path fill="none" stroke="midnightblue" d="M333.002,-175.45C320.705,-167.201 301.35,-154.216 286.598,-144.319"/>
<polygon fill="midnightblue" stroke="midnightblue" points="288.366,-141.29 278.111,-138.625 284.466,-147.103 288.366,-141.29"/>
</g>
<!-- Node9 -->
<g id="node9" class="node"><title>Node9</title>
<g id="a_node9"><a xlink:href="MexUtils_8h.html" target="_top" xlink:title="Helper functions for working with Matlab mxArrays and mxClassIDs. ">
<polygon fill="white" stroke="black" points="294.5,-65.5 294.5,-83.5 395.5,-83.5 395.5,-65.5 294.5,-65.5"/>
<text text-anchor="middle" x="345" y="-72.3" font-family="Helvetica,sans-Serif" font-size="9.00">MexIFace/MexUtils.h</text>
</a>
</g>
</g>
<!-- Node1&#45;&gt;Node9 -->
<g id="edge15" class="edge"><title>Node1&#45;&gt;Node9</title>
<path fill="none" stroke="midnightblue" d="M345,-175.382C345,-158.182 345,-117.698 345,-93.8866"/>
<polygon fill="midnightblue" stroke="midnightblue" points="348.5,-93.7117 345,-83.7118 341.5,-93.7118 348.5,-93.7117"/>
</g>
<!-- Node10 -->
<g id="node10" class="node"><title>Node10</title>
<g id="a_node10"><a xlink:href="MexIFaceBase_8h.html" target="_top" xlink:title="class MexIFaceBase declaration. ">
<polygon fill="white" stroke="black" points="452.5,-65.5 452.5,-83.5 579.5,-83.5 579.5,-65.5 452.5,-65.5"/>
<text text-anchor="middle" x="516" y="-72.3" font-family="Helvetica,sans-Serif" font-size="9.00">MexIFace/MexIFaceBase.h</text>
</a>
</g>
</g>
<!-- Node1&#45;&gt;Node10 -->
<g id="edge12" class="edge"><title>Node1&#45;&gt;Node10</title>
<path fill="none" stroke="midnightblue" d="M357.853,-175.382C386.943,-157.009 458.099,-112.069 494.211,-89.2612"/>
<polygon fill="midnightblue" stroke="midnightblue" points="496.412,-92.0109 502.998,-83.7118 492.674,-86.0925 496.412,-92.0109"/>
</g>
<!-- Node3 -->
<g id="node3" class="node"><title>Node3</title>
<polygon fill="white" stroke="#bfbfbf" points="236.5,-5.5 236.5,-23.5 279.5,-23.5 279.5,-5.5 236.5,-5.5"/>
<text text-anchor="middle" x="258" y="-12.3" font-family="Helvetica,sans-Serif" font-size="9.00">cstdint</text>
</g>
<!-- Node2&#45;&gt;Node3 -->
<g id="edge2" class="edge"><title>Node2&#45;&gt;Node3</title>
<path fill="none" stroke="midnightblue" d="M262.657,-120.476C259.195,-111.699 254.016,-97.1284 252,-84 249.395,-67.0382 251.607,-47.5266 254.048,-33.677"/>
<polygon fill="midnightblue" stroke="midnightblue" points="257.543,-34.0447 256.052,-23.5553 250.677,-32.6854 257.543,-34.0447"/>
</g>
<!-- Node4 -->
<g id="node4" class="node"><title>Node4</title>
<polygon fill="white" stroke="#bfbfbf" points="325.5,-5.5 325.5,-23.5 364.5,-23.5 364.5,-5.5 325.5,-5.5"/>
<text text-anchor="middle" x="345" y="-12.3" font-family="Helvetica,sans-Serif" font-size="9.00">string</text>
</g>
<!-- Node2&#45;&gt;Node4 -->
<g id="edge3" class="edge"><title>Node2&#45;&gt;Node4</title>
<path fill="none" stroke="midnightblue" d="M267.053,-120.453C269.023,-107.752 274.187,-82.6843 286,-65 295.562,-50.6854 310.43,-38.2488 322.847,-29.422"/>
<polygon fill="midnightblue" stroke="midnightblue" points="325.034,-32.1676 331.345,-23.6574 321.105,-26.3746 325.034,-32.1676"/>
</g>
<!-- Node5 -->
<g id="node5" class="node"><title>Node5</title>
<polygon fill="white" stroke="#bfbfbf" points="0,-65.5 0,-83.5 56,-83.5 56,-65.5 0,-65.5"/>
<text text-anchor="middle" x="28" y="-72.3" font-family="Helvetica,sans-Serif" font-size="9.00">typeindex</text>
</g>
<!-- Node2&#45;&gt;Node5 -->
<g id="edge4" class="edge"><title>Node2&#45;&gt;Node5</title>
<path fill="none" stroke="midnightblue" d="M229.303,-120.467C191.04,-112.071 129.053,-98.4128 66.3436,-84.2901"/>
<polygon fill="midnightblue" stroke="midnightblue" points="66.8014,-80.8055 56.2765,-82.0202 65.2617,-87.6341 66.8014,-80.8055"/>
</g>
<!-- Node6 -->
<g id="node6" class="node"><title>Node6</title>
<polygon fill="white" stroke="#bfbfbf" points="403.5,-5.5 403.5,-23.5 444.5,-23.5 444.5,-5.5 403.5,-5.5"/>
<text text-anchor="middle" x="424" y="-12.3" font-family="Helvetica,sans-Serif" font-size="9.00">mex.h</text>
</g>
<!-- Node2&#45;&gt;Node6 -->
<g id="edge5" class="edge"><title>Node2&#45;&gt;Node6</title>
<path fill="none" stroke="midnightblue" d="M314.249,-124.545C344.21,-119.603 381.379,-108.567 405,-84 417.814,-70.6723 422.138,-49.4846 423.519,-34.2006"/>
<polygon fill="midnightblue" stroke="midnightblue" points="427.032,-34.0711 424.094,-23.8916 420.043,-33.6811 427.032,-34.0711"/>
</g>
<!-- Node7 -->
<g id="node7" class="node"><title>Node7</title>
<g id="a_node7"><a xlink:href="MexIFaceError_8h.html" target="_top" xlink:title="Exception classes for MexIFace. ">
<polygon fill="white" stroke="black" points="74,-65.5 74,-83.5 200,-83.5 200,-65.5 74,-65.5"/>
<text text-anchor="middle" x="137" y="-72.3" font-family="Helvetica,sans-Serif" font-size="9.00">MexIFace/MexIFaceError.h</text>
</a>
</g>
</g>
<!-- Node2&#45;&gt;Node7 -->
<g id="edge6" class="edge"><title>Node2&#45;&gt;Node7</title>
<path fill="none" stroke="midnightblue" d="M246.408,-120.45C225.098,-111.695 190.804,-97.6055 166.292,-87.5346"/>
<polygon fill="midnightblue" stroke="midnightblue" points="167.357,-84.1882 156.777,-83.6253 164.696,-90.6631 167.357,-84.1882"/>
</g>
<!-- Node2&#45;&gt;Node9 -->
<g id="edge8" class="edge"><title>Node2&#45;&gt;Node9</title>
<path fill="none" stroke="midnightblue" d="M277.998,-120.45C290.295,-112.201 309.65,-99.2158 324.402,-89.3187"/>
<polygon fill="midnightblue" stroke="midnightblue" points="326.534,-92.1031 332.889,-83.6253 322.634,-86.2901 326.534,-92.1031"/>
</g>
<!-- Node8 -->
<g id="node8" class="node"><title>Node8</title>
<polygon fill="white" stroke="#bfbfbf" points="83.5,-0.5 83.5,-28.5 190.5,-28.5 190.5,-0.5 83.5,-0.5"/>
<text text-anchor="start" x="91.5" y="-17.3" font-family="Helvetica,sans-Serif" font-size="9.00">BacktraceException</text>
<text text-anchor="middle" x="137" y="-7.3" font-family="Helvetica,sans-Serif" font-size="9.00">/BacktraceException.h</text>
</g>
<!-- Node7&#45;&gt;Node8 -->
<g id="edge7" class="edge"><title>Node7&#45;&gt;Node8</title>
<path fill="none" stroke="midnightblue" d="M137,-65.4353C137,-58.5603 137,-48.3238 137,-38.9057"/>
<polygon fill="midnightblue" stroke="midnightblue" points="140.5,-38.8427 137,-28.8428 133.5,-38.8428 140.5,-38.8427"/>
</g>
<!-- Node9&#45;&gt;Node3 -->
<g id="edge9" class="edge"><title>Node9&#45;&gt;Node3</title>
<path fill="none" stroke="midnightblue" d="M332.903,-65.4353C318.957,-56.1382 295.791,-40.6942 278.909,-29.4393"/>
<polygon fill="midnightblue" stroke="midnightblue" points="280.537,-26.318 270.275,-23.6831 276.654,-32.1424 280.537,-26.318"/>
</g>
<!-- Node9&#45;&gt;Node4 -->
<g id="edge10" class="edge"><title>Node9&#45;&gt;Node4</title>
<path fill="none" stroke="midnightblue" d="M345,-65.4353C345,-57.3891 345,-44.7388 345,-34.1846"/>
<polygon fill="midnightblue" stroke="midnightblue" points="348.5,-33.8717 345,-23.8718 341.5,-33.8718 348.5,-33.8717"/>
</g>
<!-- Node9&#45;&gt;Node6 -->
<g id="edge11" class="edge"><title>Node9&#45;&gt;Node6</title>
<path fill="none" stroke="midnightblue" d="M355.985,-65.4353C368.531,-56.2243 389.295,-40.9797 404.586,-29.753"/>
<polygon fill="midnightblue" stroke="midnightblue" points="406.865,-32.4225 412.854,-23.6831 402.722,-26.7799 406.865,-32.4225"/>
</g>
<!-- Node10&#45;&gt;Node4 -->
<g id="edge13" class="edge"><title>Node10&#45;&gt;Node4</title>
<path fill="none" stroke="midnightblue" d="M492.223,-65.4353C461.368,-54.97 407.551,-36.716 374.234,-25.4155"/>
<polygon fill="midnightblue" stroke="midnightblue" points="375.195,-22.0456 364.6,-22.148 372.946,-28.6747 375.195,-22.0456"/>
</g>
<!-- Node10&#45;&gt;Node6 -->
<g id="edge14" class="edge"><title>Node10&#45;&gt;Node6</title>
<path fill="none" stroke="midnightblue" d="M503.208,-65.4353C488.324,-56.0521 463.509,-40.4077 445.616,-29.1277"/>
<polygon fill="midnightblue" stroke="midnightblue" points="447.306,-26.0554 436.98,-23.6831 443.573,-31.9769 447.306,-26.0554"/>
</g>
</g>
</svg>
        <g id="navigator" transform="translate(0 0)" fill="#404254">
                <rect fill="#f2f5e9" fill-opacity="0.5" stroke="#606060" stroke-width=".5" x="0" y="0" width="60" height="60"/>
                <use id="zoomplus" xlink:href="#zoomPlus" x="17" y="9" onmousedown="handleZoom(evt,'in')"/>
                <use id="zoomminus" xlink:href="#zoomMin" x="42" y="9" onmousedown="handleZoom(evt,'out')"/>
                <use id="reset" xlink:href="#resetDef" x="30" y="36" onmousedown="handleReset()"/>
                <g id="arrowUp" xlink:href="#dirArrow" transform="translate(30 24)" onmousedown="handlePan(0,-1)">
                  <use xlink:href="#rim" fill="#404040">
                        <set attributeName="fill" to="#808080" begin="arrowUp.mouseover" end="arrowUp.mouseout"/>
                  </use>
                  <path fill="none" stroke="white" stroke-width="1.5" d="M0,-3.0v7 M-2.5,-0.5L0,-3.0L2.5,-0.5"/>
                </g>
                <g id="arrowRight" xlink:href="#dirArrow" transform="rotate(90) translate(36 -43)" onmousedown="handlePan(1,0)">
                  <use xlink:href="#rim" fill="#404040">
                        <set attributeName="fill" to="#808080" begin="arrowRight.mouseover" end="arrowRight.mouseout"/>
                  </use>
                  <path fill="none" stroke="white" stroke-width="1.5" d="M0,-3.0v7 M-2.5,-0.5L0,-3.0L2.5,-0.5"/>
                </g>
                <g id="arrowDown" xlink:href="#dirArrow" transform="rotate(180) translate(-30 -48)" onmousedown="handlePan(0,1)">
                  <use xlink:href="#rim" fill="#404040">
                        <set attributeName="fill" to="#808080" begin="arrowDown.mouseover" end="arrowDown.mouseout"/>
                  </use>
                  <path fill="none" stroke="white" stroke-width="1.5" d="M0,-3.0v7 M-2.5,-0.5L0,-3.0L2.5,-0.5"/>
                </g>
                <g id="arrowLeft" xlink:href="#dirArrow" transform="rotate(270) translate(-36 17)" onmousedown="handlePan(-1,0)">
                  <use xlink:href="#rim" fill="#404040">
                        <set attributeName="fill" to="#808080" begin="arrowLeft.mouseover" end="arrowLeft.mouseout"/>
                  </use>
                  <path fill="none" stroke="white" stroke-width="1.5" d="M0,-3.0v7 M-2.5,-0.5L0,-3.0L2.5,-0.5"/>
                </g>
        </g>
        <svg viewBox="0 0 15 15" width="100%" height="30px" preserveAspectRatio="xMaxYMin meet">
         <g id="arrow_out" transform="scale(0.3 0.3)">
          <a xlink:href="MexIFaceHandler_8h__incl_org.svg" target="_base">
           <rect id="button" ry="5" rx="5" y="6" x="6" height="38" width="38"
                fill="#f2f5e9" fill-opacity="0.5" stroke="#606060" stroke-width="1.0"/>
           <path id="arrow"
             d="M 11.500037,31.436501 C 11.940474,20.09759 22.043105,11.32322 32.158766,21.979434 L 37.068811,17.246167 C 37.068811,17.246167 37.088388,32 37.088388,32 L 22.160133,31.978069 C 22.160133,31.978069 26.997745,27.140456 26.997745,27.140456 C 18.528582,18.264221 13.291696,25.230495 11.500037,31.436501 z"
             style="fill:#404040;"/>
          </a>
         </g>
        </svg>
</svg>
