<?xml version="1.0" encoding="UTF-8" standalone="no"?>
<!DOCTYPE svg PUBLIC "-//W3C//DTD SVG 1.1//EN"
 "http://www.w3.org/Graphics/SVG/1.1/DTD/svg11.dtd">
<!-- Generated by graphviz version 2.38.0 (20140413.2041)
 -->
<!-- Title: MexIFaceBase.h Pages: 1 -->
<svg width="138pt" height="192pt"
 viewBox="0.00 0.00 138.00 192.00" xmlns="http://www.w3.org/2000/svg" xmlns:xlink="http://www.w3.org/1999/xlink">
<g id="graph0" class="graph" transform="scale(1 1) rotate(0) translate(4 188)">
<title>MexIFaceBase.h</title>
<polygon fill="white" stroke="none" points="-4,4 -4,-188 134,-188 134,4 -4,4"/>
<!-- Node1 -->
<g id="node1" class="node"><title>Node1</title>
<polygon fill="#bfbfbf" stroke="black" points="0,-165.5 0,-183.5 85,-183.5 85,-165.5 0,-165.5"/>
<text text-anchor="middle" x="42.5" y="-172.3" font-family="Helvetica,sans-Serif" font-size="9.00">MexIFaceBase.h</text>
</g>
<!-- Node2 -->
<g id="node2" class="node"><title>Node2</title>
<g id="a_node2"><a xlink:href="MexIFace_8h.html" target="_top" xlink:title="The class declaration and inline and templated functions for MexIFace. ">
<polygon fill="white" stroke="black" points="10.5,-55.5 10.5,-73.5 74.5,-73.5 74.5,-55.5 10.5,-55.5"/>
<text text-anchor="middle" x="42.5" y="-62.3" font-family="Helvetica,sans-Serif" font-size="9.00">MexIFace.h</text>
</a>
</g>
</g>
<!-- Node1&#45;&gt;Node2 -->
<g id="edge1" class="edge"><title>Node1&#45;&gt;Node2</title>
<path fill="none" stroke="midnightblue" d="M33.1256,-156.448C27.2728,-143.77 21.3914,-125.975 24.5,-110 27.0787,-96.7478 33.6019,-82.4478 38.0446,-73.733"/>
<polygon fill="midnightblue" stroke="midnightblue" points="30.0078,-158.039 37.641,-165.386 36.2558,-154.882 30.0078,-158.039"/>
</g>
<!-- Node4 -->
<g id="node4" class="node"><title>Node4</title>
<g id="a_node4"><a xlink:href="MexIFaceHandler_8h.html" target="_top" xlink:title="class MexIFaceBase declaration. ">
<polygon fill="white" stroke="black" points="33,-110.5 33,-128.5 130,-128.5 130,-110.5 33,-110.5"/>
<text text-anchor="middle" x="81.5" y="-117.3" font-family="Helvetica,sans-Serif" font-size="9.00">MexIFaceHandler.h</text>
</a>
</g>
</g>
<!-- Node1&#45;&gt;Node4 -->
<g id="edge3" class="edge"><title>Node1&#45;&gt;Node4</title>
<path fill="none" stroke="midnightblue" d="M54.6778,-156.951C61.6364,-147.494 70.0506,-136.059 75.5767,-128.55"/>
<polygon fill="midnightblue" stroke="midnightblue" points="51.7016,-155.09 48.5938,-165.219 57.3396,-159.239 51.7016,-155.09"/>
</g>
<!-- Node3 -->
<g id="node3" class="node"><title>Node3</title>
<g id="a_node3"><a xlink:href="MexIFace_8cpp.html" target="_top" xlink:title="The class definition for MexIFace. ">
<polygon fill="white" stroke="black" points="5.5,-0.5 5.5,-18.5 79.5,-18.5 79.5,-0.5 5.5,-0.5"/>
<text text-anchor="middle" x="42.5" y="-7.3" font-family="Helvetica,sans-Serif" font-size="9.00">MexIFace.cpp</text>
</a>
</g>
</g>
<!-- Node2&#45;&gt;Node3 -->
<g id="edge2" class="edge"><title>Node2&#45;&gt;Node3</title>
<path fill="none" stroke="midnightblue" d="M42.5,-45.1746C42.5,-36.0945 42.5,-25.5949 42.5,-18.5496"/>
<polygon fill="midnightblue" stroke="midnightblue" points="39.0001,-45.2187 42.5,-55.2188 46.0001,-45.2188 39.0001,-45.2187"/>
</g>
<!-- Node4&#45;&gt;Node2 -->
<g id="edge4" class="edge"><title>Node4&#45;&gt;Node2</title>
<path fill="none" stroke="midnightblue" d="M69.3222,-101.951C62.3636,-92.4941 53.9494,-81.0595 48.4233,-73.5496"/>
<polygon fill="midnightblue" stroke="midnightblue" points="66.6604,-104.239 75.4062,-110.219 72.2984,-100.09 66.6604,-104.239"/>
</g>
</g>
</svg>
