<?xml version="1.0" encoding="UTF-8" standalone="no"?>
<!DOCTYPE svg PUBLIC "-//W3C//DTD SVG 1.1//EN"
 "http://www.w3.org/Graphics/SVG/1.1/DTD/svg11.dtd">
<!-- Generated by graphviz version 2.36.0 (20140111.2315)
 -->
<!-- Title: MexUtils.h Pages: 1 -->
<svg width="213pt" height="252pt"
 viewBox="0.00 0.00 213.00 252.00" xmlns="http://www.w3.org/2000/svg" xmlns:xlink="http://www.w3.org/1999/xlink">
<g id="graph0" class="graph" transform="scale(1 1) rotate(0) translate(4 248)">
<title>MexUtils.h</title>
<polygon fill="white" stroke="none" points="-4,4 -4,-248 209,-248 209,4 -4,4"/>
<!-- Node1 -->
<g id="node1" class="node"><title>Node1</title>
<polygon fill="#bfbfbf" stroke="black" points="111.5,-225 111.5,-243 170.5,-243 170.5,-225 111.5,-225"/>
<text text-anchor="middle" x="141" y="-231.8" font-family="Helvetica,sans-Serif" font-size="9.00">MexUtils.h</text>
</g>
<!-- Node2 -->
<g id="node2" class="node"><title>Node2</title>
<g id="a_node2"><a xlink:href="MexUtils_8cpp.html" target="_top" xlink:title="Helper functions for working with Matlab mxArrays and mxClassIDs. ">
<polygon fill="white" stroke="black" points="-0.5,-169 -0.5,-187 68.5,-187 68.5,-169 -0.5,-169"/>
<text text-anchor="middle" x="34" y="-175.8" font-family="Helvetica,sans-Serif" font-size="9.00">MexUtils.cpp</text>
</a>
</g>
</g>
<!-- Node1&#45;&gt;Node2 -->
<g id="edge1" class="edge"><title>Node1&#45;&gt;Node2</title>
<path fill="none" stroke="midnightblue" d="M115.734,-220.249C95.3986,-209.986 67.4361,-195.874 50.0533,-187.102"/>
<polygon fill="midnightblue" stroke="midnightblue" points="114.245,-223.418 124.749,-224.799 117.398,-217.168 114.245,-223.418"/>
</g>
<!-- Node3 -->
<g id="node3" class="node"><title>Node3</title>
<g id="a_node3"><a xlink:href="Handle_8h.html" target="_top" xlink:title="Helper class and templated functions to represent and manipulate Handles to C++ objects as Matlab mxA...">
<polygon fill="white" stroke="black" points="87,-169 87,-187 141,-187 141,-169 87,-169"/>
<text text-anchor="middle" x="114" y="-175.8" font-family="Helvetica,sans-Serif" font-size="9.00">Handle.h</text>
</a>
</g>
</g>
<!-- Node1&#45;&gt;Node3 -->
<g id="edge2" class="edge"><title>Node1&#45;&gt;Node3</title>
<path fill="none" stroke="midnightblue" d="M132.27,-215.54C127.512,-206.025 121.848,-194.695 118.101,-187.201"/>
<polygon fill="midnightblue" stroke="midnightblue" points="129.179,-217.183 136.781,-224.562 135.44,-214.053 129.179,-217.183"/>
</g>
<!-- Node4 -->
<g id="node4" class="node"><title>Node4</title>
<g id="a_node4"><a xlink:href="MexIFaceHandler_8h.html" target="_top" xlink:title="class MexIFaceBase declaration. ">
<polygon fill="white" stroke="black" points="81.5,-113 81.5,-131 178.5,-131 178.5,-113 81.5,-113"/>
<text text-anchor="middle" x="130" y="-119.8" font-family="Helvetica,sans-Serif" font-size="9.00">MexIFaceHandler.h</text>
</a>
</g>
</g>
<!-- Node1&#45;&gt;Node4 -->
<g id="edge7" class="edge"><title>Node1&#45;&gt;Node4</title>
<path fill="none" stroke="midnightblue" d="M146.749,-215.277C150.214,-202.141 153.363,-183.846 150,-168 147.125,-154.452 139.88,-140.03 134.946,-131.266"/>
<polygon fill="midnightblue" stroke="midnightblue" points="143.374,-214.349 143.9,-224.931 150.087,-216.33 143.374,-214.349"/>
</g>
<!-- Node5 -->
<g id="node5" class="node"><title>Node5</title>
<g id="a_node5"><a xlink:href="MexIFace_8h.html" target="_top" xlink:title="The class declaration and inline and templated functions for MexIFace. ">
<polygon fill="white" stroke="black" points="136,-57 136,-75 200,-75 200,-57 136,-57"/>
<text text-anchor="middle" x="168" y="-63.8" font-family="Helvetica,sans-Serif" font-size="9.00">MexIFace.h</text>
</a>
</g>
</g>
<!-- Node1&#45;&gt;Node5 -->
<g id="edge6" class="edge"><title>Node1&#45;&gt;Node5</title>
<path fill="none" stroke="midnightblue" d="M151.593,-216.248C163.131,-196.857 180.777,-163.533 187,-132 188.721,-123.279 188.764,-120.712 187,-112 184.274,-98.5351 177.389,-84.0914 172.701,-75.2997"/>
<polygon fill="midnightblue" stroke="midnightblue" points="148.589,-214.452 146.352,-224.808 154.558,-218.107 148.589,-214.452"/>
</g>
<!-- Node3&#45;&gt;Node4 -->
<g id="edge3" class="edge"><title>Node3&#45;&gt;Node4</title>
<path fill="none" stroke="midnightblue" d="M119.352,-158.937C122.134,-149.549 125.396,-138.538 127.57,-131.201"/>
<polygon fill="midnightblue" stroke="midnightblue" points="115.985,-157.98 116.5,-168.562 122.697,-159.969 115.985,-157.98"/>
</g>
<!-- Node4&#45;&gt;Node5 -->
<g id="edge4" class="edge"><title>Node4&#45;&gt;Node5</title>
<path fill="none" stroke="midnightblue" d="M141.866,-104.138C148.646,-94.5034 156.844,-82.8531 162.229,-75.2014"/>
<polygon fill="midnightblue" stroke="midnightblue" points="138.83,-102.37 135.938,-112.562 144.555,-106.399 138.83,-102.37"/>
</g>
<!-- Node6 -->
<g id="node6" class="node"><title>Node6</title>
<g id="a_node6"><a xlink:href="MexIFace_8cpp.html" target="_top" xlink:title="The class definition for MexIFace. ">
<polygon fill="white" stroke="black" points="131,-1 131,-19 205,-19 205,-1 131,-1"/>
<text text-anchor="middle" x="168" y="-7.8" font-family="Helvetica,sans-Serif" font-size="9.00">MexIFace.cpp</text>
</a>
</g>
</g>
<!-- Node5&#45;&gt;Node6 -->
<g id="edge5" class="edge"><title>Node5&#45;&gt;Node6</title>
<path fill="none" stroke="midnightblue" d="M168,-46.3288C168,-37.0774 168,-26.3798 168,-19.2014"/>
<polygon fill="midnightblue" stroke="midnightblue" points="164.5,-46.5625 168,-56.5625 171.5,-46.5625 164.5,-46.5625"/>
</g>
</g>
</svg>
