<?xml version="1.0" encoding="UTF-8" standalone="no"?>
<!DOCTYPE svg PUBLIC "-//W3C//DTD SVG 1.1//EN"
 "http://www.w3.org/Graphics/SVG/1.1/DTD/svg11.dtd">
<!-- Generated by graphviz version 2.38.0 (20140413.2041)
 -->
<!-- Title: MexUtils.cpp Pages: 1 -->
<svg width="361pt" height="137pt"
 viewBox="0.00 0.00 360.50 137.00" xmlns="http://www.w3.org/2000/svg" xmlns:xlink="http://www.w3.org/1999/xlink">
<g id="graph0" class="graph" transform="scale(1 1) rotate(0) translate(4 133)">
<title>MexUtils.cpp</title>
<polygon fill="white" stroke="none" points="-4,4 -4,-133 356.5,-133 356.5,4 -4,4"/>
<!-- Node1 -->
<g id="node1" class="node"><title>Node1</title>
<polygon fill="#bfbfbf" stroke="black" points="105.5,-110.5 105.5,-128.5 174.5,-128.5 174.5,-110.5 105.5,-110.5"/>
<text text-anchor="middle" x="140" y="-117.3" font-family="Helvetica,sans-Serif" font-size="9.00">MexUtils.cpp</text>
</g>
<!-- Node2 -->
<g id="node2" class="node"><title>Node2</title>
<polygon fill="white" stroke="#bfbfbf" points="0,-55.5 0,-73.5 50,-73.5 50,-55.5 0,-55.5"/>
<text text-anchor="middle" x="25" y="-62.3" font-family="Helvetica,sans-Serif" font-size="9.00">memory</text>
</g>
<!-- Node1&#45;&gt;Node2 -->
<g id="edge1" class="edge"><title>Node1&#45;&gt;Node2</title>
<path fill="none" stroke="midnightblue" d="M122.534,-110.45C103.79,-101.812 73.778,-87.9803 51.9915,-77.9396"/>
<polygon fill="midnightblue" stroke="midnightblue" points="53.1773,-74.6323 42.6304,-73.6253 50.2473,-80.9896 53.1773,-74.6323"/>
</g>
<!-- Node3 -->
<g id="node3" class="node"><title>Node3</title>
<polygon fill="white" stroke="#bfbfbf" points="68,-55.5 68,-73.5 118,-73.5 118,-55.5 68,-55.5"/>
<text text-anchor="middle" x="93" y="-62.3" font-family="Helvetica,sans-Serif" font-size="9.00">cxxabi.h</text>
</g>
<!-- Node1&#45;&gt;Node3 -->
<g id="edge2" class="edge"><title>Node1&#45;&gt;Node3</title>
<path fill="none" stroke="midnightblue" d="M132.656,-110.219C125.787,-102.473 115.348,-90.7013 106.905,-81.1799"/>
<polygon fill="midnightblue" stroke="midnightblue" points="109.392,-78.7092 100.138,-73.5496 104.155,-83.3537 109.392,-78.7092"/>
</g>
<!-- Node4 -->
<g id="node4" class="node"><title>Node4</title>
<g id="a_node4"><a xlink:href="MexUtils_8h.html" target="_top" xlink:title="Helper functions for working with Matlab mxArrays and mxClassIDs. ">
<polygon fill="white" stroke="black" points="136.5,-55.5 136.5,-73.5 237.5,-73.5 237.5,-55.5 136.5,-55.5"/>
<text text-anchor="middle" x="187" y="-62.3" font-family="Helvetica,sans-Serif" font-size="9.00">MexIFace/MexUtils.h</text>
</a>
</g>
</g>
<!-- Node1&#45;&gt;Node4 -->
<g id="edge3" class="edge"><title>Node1&#45;&gt;Node4</title>
<path fill="none" stroke="midnightblue" d="M147.344,-110.219C154.213,-102.473 164.652,-90.7013 173.095,-81.1799"/>
<polygon fill="midnightblue" stroke="midnightblue" points="175.845,-83.3537 179.862,-73.5496 170.608,-78.7092 175.845,-83.3537"/>
</g>
<!-- Node8 -->
<g id="node8" class="node"><title>Node8</title>
<g id="a_node8"><a xlink:href="explore_8h.html" target="_top" xlink:title="MexIFace/explore.h">
<polygon fill="white" stroke="black" points="255.5,-55.5 255.5,-73.5 352.5,-73.5 352.5,-55.5 255.5,-55.5"/>
<text text-anchor="middle" x="304" y="-62.3" font-family="Helvetica,sans-Serif" font-size="9.00">MexIFace/explore.h</text>
</a>
</g>
</g>
<!-- Node1&#45;&gt;Node8 -->
<g id="edge7" class="edge"><title>Node1&#45;&gt;Node8</title>
<path fill="none" stroke="midnightblue" d="M164.908,-110.45C192.803,-101.436 238.198,-86.7653 269.499,-76.6496"/>
<polygon fill="midnightblue" stroke="midnightblue" points="270.688,-79.9439 279.127,-73.5383 268.535,-73.2831 270.688,-79.9439"/>
</g>
<!-- Node5 -->
<g id="node5" class="node"><title>Node5</title>
<polygon fill="white" stroke="#bfbfbf" points="121.5,-0.5 121.5,-18.5 164.5,-18.5 164.5,-0.5 121.5,-0.5"/>
<text text-anchor="middle" x="143" y="-7.3" font-family="Helvetica,sans-Serif" font-size="9.00">cstdint</text>
</g>
<!-- Node4&#45;&gt;Node5 -->
<g id="edge4" class="edge"><title>Node4&#45;&gt;Node5</title>
<path fill="none" stroke="midnightblue" d="M180.125,-55.2188C173.759,-47.5509 164.119,-35.9387 156.257,-26.4691"/>
<polygon fill="midnightblue" stroke="midnightblue" points="158.763,-24.008 149.683,-18.5496 153.377,-28.4793 158.763,-24.008"/>
</g>
<!-- Node6 -->
<g id="node6" class="node"><title>Node6</title>
<polygon fill="white" stroke="#bfbfbf" points="182.5,-0.5 182.5,-18.5 221.5,-18.5 221.5,-0.5 182.5,-0.5"/>
<text text-anchor="middle" x="202" y="-7.3" font-family="Helvetica,sans-Serif" font-size="9.00">string</text>
</g>
<!-- Node4&#45;&gt;Node6 -->
<g id="edge5" class="edge"><title>Node4&#45;&gt;Node6</title>
<path fill="none" stroke="midnightblue" d="M189.344,-55.2188C191.381,-48.0204 194.402,-37.3458 196.982,-28.2311"/>
<polygon fill="midnightblue" stroke="midnightblue" points="200.366,-29.1248 199.722,-18.5496 193.631,-27.2185 200.366,-29.1248"/>
</g>
<!-- Node7 -->
<g id="node7" class="node"><title>Node7</title>
<polygon fill="white" stroke="#bfbfbf" points="268.5,-0.5 268.5,-18.5 309.5,-18.5 309.5,-0.5 268.5,-0.5"/>
<text text-anchor="middle" x="289" y="-7.3" font-family="Helvetica,sans-Serif" font-size="9.00">mex.h</text>
</g>
<!-- Node4&#45;&gt;Node7 -->
<g id="edge6" class="edge"><title>Node4&#45;&gt;Node7</title>
<path fill="none" stroke="midnightblue" d="M202.492,-55.4504C218.892,-46.9286 245.018,-33.3532 264.272,-23.3487"/>
<polygon fill="midnightblue" stroke="midnightblue" points="266.103,-26.3419 273.363,-18.6253 262.875,-20.1304 266.103,-26.3419"/>
</g>
<!-- Node8&#45;&gt;Node7 -->
<g id="edge8" class="edge"><title>Node8&#45;&gt;Node7</title>
<path fill="none" stroke="midnightblue" d="M301.656,-55.2188C299.619,-48.0204 296.598,-37.3458 294.018,-28.2311"/>
<polygon fill="midnightblue" stroke="midnightblue" points="297.369,-27.2185 291.278,-18.5496 290.634,-29.1248 297.369,-27.2185"/>
</g>
</g>
</svg>
