<?xml version="1.0" encoding="UTF-8" standalone="no"?>
<!DOCTYPE svg PUBLIC "-//W3C//DTD SVG 1.1//EN"
 "http://www.w3.org/Graphics/SVG/1.1/DTD/svg11.dtd">
<!-- Generated by graphviz version 2.38.0 (20140413.2041)
 -->
<!-- Title: MexUtils.h Pages: 1 -->
<svg width="167pt" height="82pt"
 viewBox="0.00 0.00 167.00 82.00" xmlns="http://www.w3.org/2000/svg" xmlns:xlink="http://www.w3.org/1999/xlink">
<g id="graph0" class="graph" transform="scale(1 1) rotate(0) translate(4 78)">
<title>MexUtils.h</title>
<polygon fill="white" stroke="none" points="-4,4 -4,-78 163,-78 163,4 -4,4"/>
<!-- Node1 -->
<g id="node1" class="node"><title>Node1</title>
<polygon fill="#bfbfbf" stroke="black" points="51,-55.5 51,-73.5 110,-73.5 110,-55.5 51,-55.5"/>
<text text-anchor="middle" x="80.5" y="-62.3" font-family="Helvetica,sans-Serif" font-size="9.00">MexUtils.h</text>
</g>
<!-- Node2 -->
<g id="node2" class="node"><title>Node2</title>
<polygon fill="white" stroke="#bfbfbf" points="0,-0.5 0,-18.5 43,-18.5 43,-0.5 0,-0.5"/>
<text text-anchor="middle" x="21.5" y="-7.3" font-family="Helvetica,sans-Serif" font-size="9.00">cstdint</text>
</g>
<!-- Node1&#45;&gt;Node2 -->
<g id="edge1" class="edge"><title>Node1&#45;&gt;Node2</title>
<path fill="none" stroke="midnightblue" d="M71.5392,-55.4504C62.7024,-47.5123 48.9841,-35.1891 38.1446,-25.4519"/>
<polygon fill="midnightblue" stroke="midnightblue" points="40.3233,-22.7043 30.5452,-18.6253 35.6454,-27.9118 40.3233,-22.7043"/>
</g>
<!-- Node3 -->
<g id="node3" class="node"><title>Node3</title>
<polygon fill="white" stroke="#bfbfbf" points="61,-0.5 61,-18.5 100,-18.5 100,-0.5 61,-0.5"/>
<text text-anchor="middle" x="80.5" y="-7.3" font-family="Helvetica,sans-Serif" font-size="9.00">string</text>
</g>
<!-- Node1&#45;&gt;Node3 -->
<g id="edge2" class="edge"><title>Node1&#45;&gt;Node3</title>
<path fill="none" stroke="midnightblue" d="M80.5,-55.2188C80.5,-48.1769 80.5,-37.8083 80.5,-28.8277"/>
<polygon fill="midnightblue" stroke="midnightblue" points="84.0001,-28.5495 80.5,-18.5496 77.0001,-28.5496 84.0001,-28.5495"/>
</g>
<!-- Node4 -->
<g id="node4" class="node"><title>Node4</title>
<polygon fill="white" stroke="#bfbfbf" points="118,-0.5 118,-18.5 159,-18.5 159,-0.5 118,-0.5"/>
<text text-anchor="middle" x="138.5" y="-7.3" font-family="Helvetica,sans-Serif" font-size="9.00">mex.h</text>
</g>
<!-- Node1&#45;&gt;Node4 -->
<g id="edge3" class="edge"><title>Node1&#45;&gt;Node4</title>
<path fill="none" stroke="midnightblue" d="M89.5625,-55.2188C98.2962,-47.2379 111.706,-34.9842 122.281,-25.3207"/>
<polygon fill="midnightblue" stroke="midnightblue" points="124.67,-27.879 129.691,-18.5496 119.948,-22.7116 124.67,-27.879"/>
</g>
</g>
</svg>
