<?xml version="1.0" encoding="UTF-8" standalone="no"?>
<!DOCTYPE svg PUBLIC "-//W3C//DTD SVG 1.1//EN"
 "http://www.w3.org/Graphics/SVG/1.1/DTD/svg11.dtd">
<!-- Generated by graphviz version 2.38.0 (20140413.2041)
 -->
<!-- Title: MexUtils.h Pages: 1 -->
<svg width="214pt" height="247pt"
 viewBox="0.00 0.00 213.50 247.00" xmlns="http://www.w3.org/2000/svg" xmlns:xlink="http://www.w3.org/1999/xlink">
<g id="graph0" class="graph" transform="scale(1 1) rotate(0) translate(4 243)">
<title>MexUtils.h</title>
<polygon fill="white" stroke="none" points="-4,4 -4,-243 209.5,-243 209.5,4 -4,4"/>
<!-- Node1 -->
<g id="node1" class="node"><title>Node1</title>
<polygon fill="#bfbfbf" stroke="black" points="112,-220.5 112,-238.5 171,-238.5 171,-220.5 112,-220.5"/>
<text text-anchor="middle" x="141.5" y="-227.3" font-family="Helvetica,sans-Serif" font-size="9.00">MexUtils.h</text>
</g>
<!-- Node2 -->
<g id="node2" class="node"><title>Node2</title>
<g id="a_node2"><a xlink:href="MexUtils_8cpp.html" target="_top" xlink:title="Helper functions for working with Matlab mxArrays and mxClassIDs. ">
<polygon fill="white" stroke="black" points="0,-165.5 0,-183.5 69,-183.5 69,-165.5 0,-165.5"/>
<text text-anchor="middle" x="34.5" y="-172.3" font-family="Helvetica,sans-Serif" font-size="9.00">MexUtils.cpp</text>
</a>
</g>
</g>
<!-- Node1&#45;&gt;Node2 -->
<g id="edge1" class="edge"><title>Node1&#45;&gt;Node2</title>
<path fill="none" stroke="midnightblue" d="M116.015,-215.877C95.8349,-205.881 68.2475,-192.216 50.9039,-183.625"/>
<polygon fill="midnightblue" stroke="midnightblue" points="114.735,-219.148 125.249,-220.45 117.842,-212.875 114.735,-219.148"/>
</g>
<!-- Node3 -->
<g id="node3" class="node"><title>Node3</title>
<g id="a_node3"><a xlink:href="Handle_8h.html" target="_top" xlink:title="Helper class and templated functions to represent and manipulate Handles to C++ objects as Matlab mxA...">
<polygon fill="white" stroke="black" points="87.5,-165.5 87.5,-183.5 141.5,-183.5 141.5,-165.5 87.5,-165.5"/>
<text text-anchor="middle" x="114.5" y="-172.3" font-family="Helvetica,sans-Serif" font-size="9.00">Handle.h</text>
</a>
</g>
</g>
<!-- Node1&#45;&gt;Node3 -->
<g id="edge2" class="edge"><title>Node1&#45;&gt;Node3</title>
<path fill="none" stroke="midnightblue" d="M132.619,-211.068C127.893,-201.791 122.308,-190.827 118.601,-183.55"/>
<polygon fill="midnightblue" stroke="midnightblue" points="129.623,-212.897 137.281,-220.219 135.861,-209.72 129.623,-212.897"/>
</g>
<!-- Node4 -->
<g id="node4" class="node"><title>Node4</title>
<g id="a_node4"><a xlink:href="MexIFaceHandler_8h.html" target="_top" xlink:title="class MexIFaceBase declaration. ">
<polygon fill="white" stroke="black" points="82,-110.5 82,-128.5 179,-128.5 179,-110.5 82,-110.5"/>
<text text-anchor="middle" x="130.5" y="-117.3" font-family="Helvetica,sans-Serif" font-size="9.00">MexIFaceHandler.h</text>
</a>
</g>
</g>
<!-- Node1&#45;&gt;Node4 -->
<g id="edge7" class="edge"><title>Node1&#45;&gt;Node4</title>
<path fill="none" stroke="midnightblue" d="M147.439,-210.376C150.803,-197.608 153.749,-180.157 150.5,-165 147.624,-151.583 140.379,-137.327 135.446,-128.666"/>
<polygon fill="midnightblue" stroke="midnightblue" points="144.008,-209.632 144.52,-220.215 150.719,-211.623 144.008,-209.632"/>
</g>
<!-- Node5 -->
<g id="node5" class="node"><title>Node5</title>
<g id="a_node5"><a xlink:href="MexIFace_8h.html" target="_top" xlink:title="The class declaration and inline and templated functions for MexIFace. ">
<polygon fill="white" stroke="black" points="136.5,-55.5 136.5,-73.5 200.5,-73.5 200.5,-55.5 136.5,-55.5"/>
<text text-anchor="middle" x="168.5" y="-62.3" font-family="Helvetica,sans-Serif" font-size="9.00">MexIFace.h</text>
</a>
</g>
</g>
<!-- Node1&#45;&gt;Node5 -->
<g id="edge6" class="edge"><title>Node1&#45;&gt;Node5</title>
<path fill="none" stroke="midnightblue" d="M152.429,-211.783C164.171,-192.687 182.019,-160.055 188.5,-129 192.75,-108.634 181.136,-85.5142 173.865,-73.5819"/>
<polygon fill="midnightblue" stroke="midnightblue" points="149.33,-210.135 146.938,-220.456 155.244,-213.879 149.33,-210.135"/>
</g>
<!-- Node3&#45;&gt;Node4 -->
<g id="edge3" class="edge"><title>Node3&#45;&gt;Node4</title>
<path fill="none" stroke="midnightblue" d="M119.942,-155.473C122.704,-146.326 125.92,-135.672 128.07,-128.55"/>
<polygon fill="midnightblue" stroke="midnightblue" points="116.539,-154.634 117,-165.219 123.241,-156.657 116.539,-154.634"/>
</g>
<!-- Node4&#45;&gt;Node5 -->
<g id="edge4" class="edge"><title>Node4&#45;&gt;Node5</title>
<path fill="none" stroke="midnightblue" d="M142.366,-101.951C149.146,-92.4941 157.344,-81.0595 162.729,-73.5496"/>
<polygon fill="midnightblue" stroke="midnightblue" points="139.42,-100.052 136.438,-110.219 145.109,-104.131 139.42,-100.052"/>
</g>
<!-- Node6 -->
<g id="node6" class="node"><title>Node6</title>
<g id="a_node6"><a xlink:href="MexIFace_8cpp.html" target="_top" xlink:title="The class definition for MexIFace. ">
<polygon fill="white" stroke="black" points="131.5,-0.5 131.5,-18.5 205.5,-18.5 205.5,-0.5 131.5,-0.5"/>
<text text-anchor="middle" x="168.5" y="-7.3" font-family="Helvetica,sans-Serif" font-size="9.00">MexIFace.cpp</text>
</a>
</g>
</g>
<!-- Node5&#45;&gt;Node6 -->
<g id="edge5" class="edge"><title>Node5&#45;&gt;Node6</title>
<path fill="none" stroke="midnightblue" d="M168.5,-45.1746C168.5,-36.0945 168.5,-25.5949 168.5,-18.5496"/>
<polygon fill="midnightblue" stroke="midnightblue" points="165,-45.2187 168.5,-55.2188 172,-45.2188 165,-45.2187"/>
</g>
</g>
</svg>
