<?xml version="1.0" encoding="UTF-8" standalone="no"?>
<!DOCTYPE svg PUBLIC "-//W3C//DTD SVG 1.1//EN"
 "http://www.w3.org/Graphics/SVG/1.1/DTD/svg11.dtd">
<!-- Generated by graphviz version 2.36.0 (20140111.2315)
 -->
<!-- Title: MexUtils.cpp Pages: 1 -->
<svg width="360pt" height="140pt"
 viewBox="0.00 0.00 360.00 140.00" xmlns="http://www.w3.org/2000/svg" xmlns:xlink="http://www.w3.org/1999/xlink">
<g id="graph0" class="graph" transform="scale(1 1) rotate(0) translate(4 136)">
<title>MexUtils.cpp</title>
<polygon fill="white" stroke="none" points="-4,4 -4,-136 356,-136 356,4 -4,4"/>
<!-- Node1 -->
<g id="node1" class="node"><title>Node1</title>
<polygon fill="#bfbfbf" stroke="black" points="105.5,-113 105.5,-131 174.5,-131 174.5,-113 105.5,-113"/>
<text text-anchor="middle" x="140" y="-119.8" font-family="Helvetica,sans-Serif" font-size="9.00">MexUtils.cpp</text>
</g>
<!-- Node2 -->
<g id="node2" class="node"><title>Node2</title>
<polygon fill="white" stroke="#bfbfbf" points="0,-57 0,-75 50,-75 50,-57 0,-57"/>
<text text-anchor="middle" x="25" y="-63.8" font-family="Helvetica,sans-Serif" font-size="9.00">memory</text>
</g>
<!-- Node1&#45;&gt;Node2 -->
<g id="edge1" class="edge"><title>Node1&#45;&gt;Node2</title>
<path fill="none" stroke="midnightblue" d="M122.534,-112.799C103.596,-103.906 73.1559,-89.6123 51.3181,-79.3581"/>
<polygon fill="midnightblue" stroke="midnightblue" points="52.793,-76.184 42.2536,-75.1017 49.8177,-82.5202 52.793,-76.184"/>
</g>
<!-- Node3 -->
<g id="node3" class="node"><title>Node3</title>
<polygon fill="white" stroke="#bfbfbf" points="68,-57 68,-75 118,-75 118,-57 68,-57"/>
<text text-anchor="middle" x="93" y="-63.8" font-family="Helvetica,sans-Serif" font-size="9.00">cxxabi.h</text>
</g>
<!-- Node1&#45;&gt;Node3 -->
<g id="edge2" class="edge"><title>Node1&#45;&gt;Node3</title>
<path fill="none" stroke="midnightblue" d="M132.656,-112.562C125.787,-104.67 115.348,-92.6768 106.905,-82.9758"/>
<polygon fill="midnightblue" stroke="midnightblue" points="109.344,-80.4467 100.138,-75.2014 104.063,-85.0424 109.344,-80.4467"/>
</g>
<!-- Node4 -->
<g id="node4" class="node"><title>Node4</title>
<g id="a_node4"><a xlink:href="MexUtils_8h.html" target="_top" xlink:title="Helper functions for working with Matlab mxArrays and mxClassIDs. ">
<polygon fill="white" stroke="black" points="136.5,-57 136.5,-75 237.5,-75 237.5,-57 136.5,-57"/>
<text text-anchor="middle" x="187" y="-63.8" font-family="Helvetica,sans-Serif" font-size="9.00">MexIFace/MexUtils.h</text>
</a>
</g>
</g>
<!-- Node1&#45;&gt;Node4 -->
<g id="edge3" class="edge"><title>Node1&#45;&gt;Node4</title>
<path fill="none" stroke="midnightblue" d="M147.344,-112.562C154.213,-104.67 164.652,-92.6768 173.095,-82.9758"/>
<polygon fill="midnightblue" stroke="midnightblue" points="175.937,-85.0424 179.862,-75.2014 170.656,-80.4467 175.937,-85.0424"/>
</g>
<!-- Node8 -->
<g id="node8" class="node"><title>Node8</title>
<g id="a_node8"><a xlink:href="explore_8h.html" target="_top" xlink:title="MexIFace/explore.h">
<polygon fill="white" stroke="black" points="255.5,-57 255.5,-75 352.5,-75 352.5,-57 255.5,-57"/>
<text text-anchor="middle" x="304" y="-63.8" font-family="Helvetica,sans-Serif" font-size="9.00">MexIFace/explore.h</text>
</a>
</g>
</g>
<!-- Node1&#45;&gt;Node8 -->
<g id="edge7" class="edge"><title>Node1&#45;&gt;Node8</title>
<path fill="none" stroke="midnightblue" d="M164.552,-112.916C192.531,-103.703 238.441,-88.5863 269.887,-78.2322"/>
<polygon fill="midnightblue" stroke="midnightblue" points="271.144,-81.5033 279.548,-75.0513 268.955,-74.8544 271.144,-81.5033"/>
</g>
<!-- Node5 -->
<g id="node5" class="node"><title>Node5</title>
<polygon fill="white" stroke="#bfbfbf" points="121.5,-1 121.5,-19 164.5,-19 164.5,-1 121.5,-1"/>
<text text-anchor="middle" x="143" y="-7.8" font-family="Helvetica,sans-Serif" font-size="9.00">cstdint</text>
</g>
<!-- Node4&#45;&gt;Node5 -->
<g id="edge4" class="edge"><title>Node4&#45;&gt;Node5</title>
<path fill="none" stroke="midnightblue" d="M180.125,-56.5625C173.694,-48.6703 163.922,-36.6768 156.017,-26.9758"/>
<polygon fill="midnightblue" stroke="midnightblue" points="158.713,-24.7429 149.683,-19.2014 153.286,-29.1647 158.713,-24.7429"/>
</g>
<!-- Node6 -->
<g id="node6" class="node"><title>Node6</title>
<polygon fill="white" stroke="#bfbfbf" points="182.5,-1 182.5,-19 221.5,-19 221.5,-1 182.5,-1"/>
<text text-anchor="middle" x="202" y="-7.8" font-family="Helvetica,sans-Serif" font-size="9.00">string</text>
</g>
<!-- Node4&#45;&gt;Node6 -->
<g id="edge5" class="edge"><title>Node4&#45;&gt;Node6</title>
<path fill="none" stroke="midnightblue" d="M189.344,-56.5625C191.381,-49.2283 194.402,-38.3523 196.982,-29.0657"/>
<polygon fill="midnightblue" stroke="midnightblue" points="200.418,-29.7734 199.722,-19.2014 193.673,-27.8998 200.418,-29.7734"/>
</g>
<!-- Node7 -->
<g id="node7" class="node"><title>Node7</title>
<polygon fill="white" stroke="#bfbfbf" points="268.5,-1 268.5,-19 309.5,-19 309.5,-1 268.5,-1"/>
<text text-anchor="middle" x="289" y="-7.8" font-family="Helvetica,sans-Serif" font-size="9.00">mex.h</text>
</g>
<!-- Node4&#45;&gt;Node7 -->
<g id="edge6" class="edge"><title>Node4&#45;&gt;Node7</title>
<path fill="none" stroke="midnightblue" d="M202.492,-56.7986C218.987,-48.0654 245.323,-34.1234 264.607,-23.9137"/>
<polygon fill="midnightblue" stroke="midnightblue" points="266.497,-26.8739 273.697,-19.1017 263.221,-20.6874 266.497,-26.8739"/>
</g>
<!-- Node8&#45;&gt;Node7 -->
<g id="edge8" class="edge"><title>Node8&#45;&gt;Node7</title>
<path fill="none" stroke="midnightblue" d="M301.656,-56.5625C299.619,-49.2283 296.598,-38.3523 294.018,-29.0657"/>
<polygon fill="midnightblue" stroke="midnightblue" points="297.327,-27.8998 291.278,-19.2014 290.582,-29.7734 297.327,-27.8998"/>
</g>
</g>
</svg>
