<?xml version="1.0" encoding="UTF-8" standalone="no"?>
<!DOCTYPE svg PUBLIC "-//W3C//DTD SVG 1.1//EN"
 "http://www.w3.org/Graphics/SVG/1.1/DTD/svg11.dtd">
<!-- Generated by graphviz version 2.36.0 (20140111.2315)
 -->
<!-- Title: MexUtils.h Pages: 1 -->
<svg width="166pt" height="84pt"
 viewBox="0.00 0.00 166.00 84.00" xmlns="http://www.w3.org/2000/svg" xmlns:xlink="http://www.w3.org/1999/xlink">
<g id="graph0" class="graph" transform="scale(1 1) rotate(0) translate(4 80)">
<title>MexUtils.h</title>
<polygon fill="white" stroke="none" points="-4,4 -4,-80 162,-80 162,4 -4,4"/>
<!-- Node1 -->
<g id="node1" class="node"><title>Node1</title>
<polygon fill="#bfbfbf" stroke="black" points="50.5,-57 50.5,-75 109.5,-75 109.5,-57 50.5,-57"/>
<text text-anchor="middle" x="80" y="-63.8" font-family="Helvetica,sans-Serif" font-size="9.00">MexUtils.h</text>
</g>
<!-- Node2 -->
<g id="node2" class="node"><title>Node2</title>
<polygon fill="white" stroke="#bfbfbf" points="-0.5,-1 -0.5,-19 42.5,-19 42.5,-1 -0.5,-1"/>
<text text-anchor="middle" x="21" y="-7.8" font-family="Helvetica,sans-Serif" font-size="9.00">cstdint</text>
</g>
<!-- Node1&#45;&gt;Node2 -->
<g id="edge1" class="edge"><title>Node1&#45;&gt;Node2</title>
<path fill="none" stroke="midnightblue" d="M71.0392,-56.7986C62.2024,-48.7106 48.4841,-36.1549 37.6446,-26.234"/>
<polygon fill="midnightblue" stroke="midnightblue" points="39.785,-23.4484 30.0452,-19.2786 35.0588,-28.6121 39.785,-23.4484"/>
</g>
<!-- Node3 -->
<g id="node3" class="node"><title>Node3</title>
<polygon fill="white" stroke="#bfbfbf" points="60.5,-1 60.5,-19 99.5,-19 99.5,-1 60.5,-1"/>
<text text-anchor="middle" x="80" y="-7.8" font-family="Helvetica,sans-Serif" font-size="9.00">string</text>
</g>
<!-- Node1&#45;&gt;Node3 -->
<g id="edge2" class="edge"><title>Node1&#45;&gt;Node3</title>
<path fill="none" stroke="midnightblue" d="M80,-56.5625C80,-49.308 80,-38.5884 80,-29.3691"/>
<polygon fill="midnightblue" stroke="midnightblue" points="83.5001,-29.2014 80,-19.2014 76.5001,-29.2015 83.5001,-29.2014"/>
</g>
<!-- Node4 -->
<g id="node4" class="node"><title>Node4</title>
<polygon fill="white" stroke="#bfbfbf" points="117.5,-1 117.5,-19 158.5,-19 158.5,-1 117.5,-1"/>
<text text-anchor="middle" x="138" y="-7.8" font-family="Helvetica,sans-Serif" font-size="9.00">mex.h</text>
</g>
<!-- Node1&#45;&gt;Node4 -->
<g id="edge3" class="edge"><title>Node1&#45;&gt;Node4</title>
<path fill="none" stroke="midnightblue" d="M89.0625,-56.5625C97.7962,-48.4311 111.206,-35.9462 121.781,-26.1003"/>
<polygon fill="midnightblue" stroke="midnightblue" points="124.257,-28.5773 129.191,-19.2014 119.487,-23.454 124.257,-28.5773"/>
</g>
</g>
</svg>
