<?xml version="1.0" encoding="UTF-8" standalone="no"?>
<!DOCTYPE svg PUBLIC "-//W3C//DTD SVG 1.1//EN"
 "http://www.w3.org/Graphics/SVG/1.1/DTD/svg11.dtd">
<!-- Generated by graphviz version 2.36.0 (20140111.2315)
 -->
<!-- Title: mexiface::get_mx_class_name Pages: 1 -->
<svg width="492pt" height="402pt"
 viewBox="0.00 0.00 492.00 402.00" xmlns="http://www.w3.org/2000/svg" xmlns:xlink="http://www.w3.org/1999/xlink">
<g id="graph0" class="graph" transform="scale(1 1) rotate(0) translate(4 398)">
<title>mexiface::get_mx_class_name</title>
<polygon fill="white" stroke="none" points="-4,4 -4,-398 488,-398 488,4 -4,4"/>
<!-- Node1 -->
<g id="node1" class="node"><title>Node1</title>
<polygon fill="#bfbfbf" stroke="black" points="0.5,-183 0.5,-201 143.5,-201 143.5,-183 0.5,-183"/>
<text text-anchor="middle" x="72" y="-189.8" font-family="Helvetica,sans-Serif" font-size="9.00">mexiface::get_mx_class_name</text>
</g>
<!-- Node2 -->
<g id="node2" class="node"><title>Node2</title>
<g id="a_node2"><a xlink:href="classmexiface_1_1MexIFace.html#a1bc63ab6607be28746984fa06c74e110" target="_top" xlink:title="mexiface::MexIFace\l::checkedFloatToFloatConversion">
<polygon fill="white" stroke="black" points="188,-366 188,-394 342,-394 342,-366 188,-366"/>
<text text-anchor="start" x="196" y="-382.8" font-family="Helvetica,sans-Serif" font-size="9.00">mexiface::MexIFace</text>
<text text-anchor="middle" x="265" y="-372.8" font-family="Helvetica,sans-Serif" font-size="9.00">::checkedFloatToFloatConversion</text>
</a>
</g>
</g>
<!-- Node1&#45;&gt;Node2 -->
<g id="edge1" class="edge"><title>Node1&#45;&gt;Node2</title>
<path fill="none" stroke="midnightblue" d="M80.0205,-210.736C93.7963,-244.911 127.663,-317.397 180,-356 185.249,-359.871 191.104,-363.119 197.214,-365.844"/>
<polygon fill="midnightblue" stroke="midnightblue" points="83.1487,-209.124 76.2558,-201.077 76.6266,-211.666 83.1487,-209.124"/>
</g>
<!-- Node3 -->
<g id="node3" class="node"><title>Node3</title>
<g id="a_node3"><a xlink:href="classmexiface_1_1MexIFace.html#ab11573e3aadbd16acd11e7d1f0bf904c" target="_top" xlink:title="mexiface::MexIFace\l::checkedFloatToIntegerConversion">
<polygon fill="white" stroke="black" points="184,-319 184,-347 346,-347 346,-319 184,-319"/>
<text text-anchor="start" x="192" y="-335.8" font-family="Helvetica,sans-Serif" font-size="9.00">mexiface::MexIFace</text>
<text text-anchor="middle" x="265" y="-325.8" font-family="Helvetica,sans-Serif" font-size="9.00">::checkedFloatToIntegerConversion</text>
</a>
</g>
</g>
<!-- Node1&#45;&gt;Node3 -->
<g id="edge2" class="edge"><title>Node1&#45;&gt;Node3</title>
<path fill="none" stroke="midnightblue" d="M84.3203,-209.578C101.768,-235.257 137.682,-282.812 180,-309 186.32,-312.911 193.297,-316.204 200.45,-318.972"/>
<polygon fill="midnightblue" stroke="midnightblue" points="87.1967,-207.583 78.7499,-201.187 81.3648,-211.454 87.1967,-207.583"/>
</g>
<!-- Node4 -->
<g id="node4" class="node"><title>Node4</title>
<g id="a_node4"><a xlink:href="classmexiface_1_1MexIFace.html#a4538bd721402014ee94d3fa76ee42b65" target="_top" xlink:title="mexiface::MexIFace\l::checkedIntegerToFloatConversion">
<polygon fill="white" stroke="black" points="184,-272 184,-300 346,-300 346,-272 184,-272"/>
<text text-anchor="start" x="192" y="-288.8" font-family="Helvetica,sans-Serif" font-size="9.00">mexiface::MexIFace</text>
<text text-anchor="middle" x="265" y="-278.8" font-family="Helvetica,sans-Serif" font-size="9.00">::checkedIntegerToFloatConversion</text>
</a>
</g>
</g>
<!-- Node1&#45;&gt;Node4 -->
<g id="edge3" class="edge"><title>Node1&#45;&gt;Node4</title>
<path fill="none" stroke="midnightblue" d="M92.5041,-207.371C113.186,-223.025 147.32,-247.059 180,-262 188.276,-265.784 197.287,-269.112 206.234,-271.991"/>
<polygon fill="midnightblue" stroke="midnightblue" points="94.5693,-204.544 84.5073,-201.226 90.3042,-210.094 94.5693,-204.544"/>
</g>
<!-- Node5 -->
<g id="node5" class="node"><title>Node5</title>
<g id="a_node5"><a xlink:href="classmexiface_1_1MexIFace.html#aa169f2e0cb3a34b7aaf169cec1b14824" target="_top" xlink:title="mexiface::MexIFace\l::checkedIntegerToIntegerConversion">
<polygon fill="white" stroke="black" points="180,-225 180,-253 350,-253 350,-225 180,-225"/>
<text text-anchor="start" x="188" y="-241.8" font-family="Helvetica,sans-Serif" font-size="9.00">mexiface::MexIFace</text>
<text text-anchor="middle" x="265" y="-231.8" font-family="Helvetica,sans-Serif" font-size="9.00">::checkedIntegerToIntegerConversion</text>
</a>
</g>
</g>
<!-- Node1&#45;&gt;Node5 -->
<g id="edge4" class="edge"><title>Node1&#45;&gt;Node5</title>
<path fill="none" stroke="midnightblue" d="M119.568,-203.459C145.921,-209.944 179.084,-218.104 206.985,-224.97"/>
<polygon fill="midnightblue" stroke="midnightblue" points="120.373,-200.053 109.827,-201.062 118.701,-206.85 120.373,-200.053"/>
</g>
<!-- Node6 -->
<g id="node6" class="node"><title>Node6</title>
<g id="a_node6"><a xlink:href="classmexiface_1_1MexIFace.html#a1a514d468276ece9f3426db2f601d658" target="_top" xlink:title="mexiface::MexIFace\l::checkType">
<polygon fill="white" stroke="black" points="216,-178 216,-206 314,-206 314,-178 216,-178"/>
<text text-anchor="start" x="224" y="-194.8" font-family="Helvetica,sans-Serif" font-size="9.00">mexiface::MexIFace</text>
<text text-anchor="middle" x="265" y="-184.8" font-family="Helvetica,sans-Serif" font-size="9.00">::checkType</text>
</a>
</g>
</g>
<!-- Node1&#45;&gt;Node6 -->
<g id="edge5" class="edge"><title>Node1&#45;&gt;Node6</title>
<path fill="none" stroke="midnightblue" d="M153.826,-192C174.898,-192 196.947,-192 215.735,-192"/>
<polygon fill="midnightblue" stroke="midnightblue" points="153.579,-188.5 143.579,-192 153.579,-195.5 153.579,-188.5"/>
</g>
<!-- Node7 -->
<g id="node7" class="node"><title>Node7</title>
<g id="a_node7"><a xlink:href="namespacemexiface.html#a0a61f21777cac291b7baabb5726aacc1" target="_top" xlink:title="Returns a string representation of the mxArray class name. ">
<polygon fill="white" stroke="black" points="193.5,-141 193.5,-159 336.5,-159 336.5,-141 193.5,-141"/>
<text text-anchor="middle" x="265" y="-147.8" font-family="Helvetica,sans-Serif" font-size="9.00">mexiface::get_mx_class_name</text>
</a>
</g>
</g>
<!-- Node1&#45;&gt;Node7 -->
<g id="edge6" class="edge"><title>Node1&#45;&gt;Node7</title>
<path fill="none" stroke="midnightblue" d="M124.117,-180.76C155.001,-173.968 193.849,-165.426 222.764,-159.068"/>
<polygon fill="midnightblue" stroke="midnightblue" points="122.989,-177.424 113.974,-182.99 124.493,-184.261 122.989,-177.424"/>
</g>
<!-- Node8 -->
<g id="node8" class="node"><title>Node8</title>
<g id="a_node8"><a xlink:href="classmexiface_1_1MexIFace.html#a4bcf47602ed790926d4f1358ea76f754" target="_top" xlink:title="mexiface::MexIFace\l::getAsBool">
<polygon fill="white" stroke="black" points="216,-94 216,-122 314,-122 314,-94 216,-94"/>
<text text-anchor="start" x="224" y="-110.8" font-family="Helvetica,sans-Serif" font-size="9.00">mexiface::MexIFace</text>
<text text-anchor="middle" x="265" y="-100.8" font-family="Helvetica,sans-Serif" font-size="9.00">::getAsBool</text>
</a>
</g>
</g>
<!-- Node1&#45;&gt;Node8 -->
<g id="edge7" class="edge"><title>Node1&#45;&gt;Node8</title>
<path fill="none" stroke="midnightblue" d="M95.2158,-177.516C116.337,-164.242 149.345,-144.769 180,-132 191.341,-127.276 203.914,-123.139 215.805,-119.69"/>
<polygon fill="midnightblue" stroke="midnightblue" points="93.2216,-174.636 86.666,-182.959 96.9812,-180.541 93.2216,-174.636"/>
</g>
<!-- Node10 -->
<g id="node10" class="node"><title>Node10</title>
<g id="a_node10"><a xlink:href="classmexiface_1_1MexIFace.html#a56ccee3414969acdf963074988814eaa" target="_top" xlink:title="mexiface::MexIFace\l::getAsFloat">
<polygon fill="white" stroke="black" points="216,-47 216,-75 314,-75 314,-47 216,-47"/>
<text text-anchor="start" x="224" y="-63.8" font-family="Helvetica,sans-Serif" font-size="9.00">mexiface::MexIFace</text>
<text text-anchor="middle" x="265" y="-53.8" font-family="Helvetica,sans-Serif" font-size="9.00">::getAsFloat</text>
</a>
</g>
</g>
<!-- Node1&#45;&gt;Node10 -->
<g id="edge9" class="edge"><title>Node1&#45;&gt;Node10</title>
<path fill="none" stroke="midnightblue" d="M85.7241,-174.595C103.976,-150.868 139.845,-108.627 180,-85 190.85,-78.616 203.494,-73.8488 215.629,-70.3211"/>
<polygon fill="midnightblue" stroke="midnightblue" points="82.8374,-172.61 79.6195,-182.705 88.43,-176.82 82.8374,-172.61"/>
</g>
<!-- Node11 -->
<g id="node11" class="node"><title>Node11</title>
<g id="a_node11"><a xlink:href="classmexiface_1_1MexIFace.html#a56f4baac543e7f11bc20c70ec4c22a8e" target="_top" xlink:title="Reads a mxArray as a scalar C++ int32_t type. ">
<polygon fill="white" stroke="black" points="216,-0 216,-28 314,-28 314,-0 216,-0"/>
<text text-anchor="start" x="224" y="-16.8" font-family="Helvetica,sans-Serif" font-size="9.00">mexiface::MexIFace</text>
<text text-anchor="middle" x="265" y="-6.8" font-family="Helvetica,sans-Serif" font-size="9.00">::getAsInt</text>
</a>
</g>
</g>
<!-- Node1&#45;&gt;Node11 -->
<g id="edge10" class="edge"><title>Node1&#45;&gt;Node11</title>
<path fill="none" stroke="midnightblue" d="M80.7535,-173.486C95.3036,-141.026 129.824,-73.8916 180,-38 190.485,-30.4996 203.268,-25.3341 215.667,-21.7798"/>
<polygon fill="midnightblue" stroke="midnightblue" points="77.5149,-172.157 76.7366,-182.723 83.9342,-174.948 77.5149,-172.157"/>
</g>
<!-- Node9 -->
<g id="node9" class="node"><title>Node9</title>
<g id="a_node9"><a xlink:href="classmexiface_1_1MexIFace.html#aae9ab3291f0c57e4f62db4155a793f7a" target="_top" xlink:title="mexiface::MexIFace\l::getAsScalar">
<polygon fill="white" stroke="black" points="386,-94 386,-122 484,-122 484,-94 386,-94"/>
<text text-anchor="start" x="394" y="-110.8" font-family="Helvetica,sans-Serif" font-size="9.00">mexiface::MexIFace</text>
<text text-anchor="middle" x="435" y="-100.8" font-family="Helvetica,sans-Serif" font-size="9.00">::getAsScalar</text>
</a>
</g>
</g>
<!-- Node8&#45;&gt;Node9 -->
<g id="edge8" class="edge"><title>Node8&#45;&gt;Node9</title>
<path fill="none" stroke="midnightblue" d="M324.411,-108C344.476,-108 366.694,-108 385.851,-108"/>
<polygon fill="midnightblue" stroke="midnightblue" points="324.142,-104.5 314.142,-108 324.142,-111.5 324.142,-104.5"/>
</g>
</g>
</svg>
