<?xml version="1.0" encoding="UTF-8" standalone="no"?>
<!DOCTYPE svg PUBLIC "-//W3C//DTD SVG 1.1//EN"
 "http://www.w3.org/Graphics/SVG/1.1/DTD/svg11.dtd">
<!-- Generated by graphviz version 2.36.0 (20140111.2315)
 -->
<!-- Title: mexiface::explore::analyze_full Pages: 1 -->
<svg width="362pt" height="459pt"
 viewBox="0.00 0.00 362.00 459.00" xmlns="http://www.w3.org/2000/svg" xmlns:xlink="http://www.w3.org/1999/xlink">
<g id="graph0" class="graph" transform="scale(1 1) rotate(0) translate(4 455)">
<title>mexiface::explore::analyze_full</title>
<polygon fill="white" stroke="none" points="-4,4 -4,-455 358,-455 358,4 -4,4"/>
<!-- Node1 -->
<g id="node1" class="node"><title>Node1</title>
<polygon fill="#bfbfbf" stroke="black" points="0.5,-211 0.5,-239 93.5,-239 93.5,-211 0.5,-211"/>
<text text-anchor="start" x="8.5" y="-227.8" font-family="Helvetica,sans-Serif" font-size="9.00">mexiface::explore::</text>
<text text-anchor="middle" x="47" y="-217.8" font-family="Helvetica,sans-Serif" font-size="9.00">analyze_full</text>
</g>
<!-- Node2 -->
<g id="node2" class="node"><title>Node2</title>
<g id="a_node2"><a xlink:href="namespacemexiface_1_1explore.html#a3b7a85eeb040efe041ae992581c3861b" target="_top" xlink:title="mexiface::explore::\lanalyze_double">
<polygon fill="white" stroke="black" points="130.5,-423 130.5,-451 223.5,-451 223.5,-423 130.5,-423"/>
<text text-anchor="start" x="138.5" y="-439.8" font-family="Helvetica,sans-Serif" font-size="9.00">mexiface::explore::</text>
<text text-anchor="middle" x="177" y="-429.8" font-family="Helvetica,sans-Serif" font-size="9.00">analyze_double</text>
</a>
</g>
</g>
<!-- Node1&#45;&gt;Node2 -->
<g id="edge1" class="edge"><title>Node1&#45;&gt;Node2</title>
<path fill="none" stroke="midnightblue" d="M50.7489,-239.04C58.0234,-272.898 80.6958,-360.139 130,-413 131.336,-414.433 132.778,-415.795 134.296,-417.089"/>
<polygon fill="midnightblue" stroke="midnightblue" points="132.264,-419.939 142.409,-422.994 136.384,-414.279 132.264,-419.939"/>
</g>
<!-- Node4 -->
<g id="node4" class="node"><title>Node4</title>
<g id="a_node4"><a xlink:href="namespacemexiface_1_1explore.html#a2c3a4139675fbbf8ca7ab0f92d6f11fd" target="_top" xlink:title="mexiface::explore::\lanalyze_int16">
<polygon fill="white" stroke="black" points="130.5,-376 130.5,-404 223.5,-404 223.5,-376 130.5,-376"/>
<text text-anchor="start" x="138.5" y="-392.8" font-family="Helvetica,sans-Serif" font-size="9.00">mexiface::explore::</text>
<text text-anchor="middle" x="177" y="-382.8" font-family="Helvetica,sans-Serif" font-size="9.00">analyze_int16</text>
</a>
</g>
</g>
<!-- Node1&#45;&gt;Node4 -->
<g id="edge3" class="edge"><title>Node1&#45;&gt;Node4</title>
<path fill="none" stroke="midnightblue" d="M53.1089,-239.128C63.6665,-266.647 90.2735,-328.055 130,-366 131.466,-367.4 133.029,-368.739 134.661,-370.017"/>
<polygon fill="midnightblue" stroke="midnightblue" points="133.038,-373.148 143.269,-375.902 136.989,-367.369 133.038,-373.148"/>
</g>
<!-- Node5 -->
<g id="node5" class="node"><title>Node5</title>
<g id="a_node5"><a xlink:href="namespacemexiface_1_1explore.html#ad8657b3604a735ef428823cdf0a72722" target="_top" xlink:title="mexiface::explore::\lanalyze_int32">
<polygon fill="white" stroke="black" points="130.5,-329 130.5,-357 223.5,-357 223.5,-329 130.5,-329"/>
<text text-anchor="start" x="138.5" y="-345.8" font-family="Helvetica,sans-Serif" font-size="9.00">mexiface::explore::</text>
<text text-anchor="middle" x="177" y="-335.8" font-family="Helvetica,sans-Serif" font-size="9.00">analyze_int32</text>
</a>
</g>
</g>
<!-- Node1&#45;&gt;Node5 -->
<g id="edge5" class="edge"><title>Node1&#45;&gt;Node5</title>
<path fill="none" stroke="midnightblue" d="M57.7648,-239.219C71.9031,-259.02 99.7178,-295.147 130,-319 131.981,-320.561 134.08,-322.067 136.245,-323.512"/>
<polygon fill="midnightblue" stroke="midnightblue" points="134.474,-326.532 144.83,-328.77 138.13,-320.562 134.474,-326.532"/>
</g>
<!-- Node6 -->
<g id="node6" class="node"><title>Node6</title>
<g id="a_node6"><a xlink:href="namespacemexiface_1_1explore.html#a7025633935ccc85550b308e70b0fc771" target="_top" xlink:title="mexiface::explore::\lanalyze_int64">
<polygon fill="white" stroke="black" points="130.5,-282 130.5,-310 223.5,-310 223.5,-282 130.5,-282"/>
<text text-anchor="start" x="138.5" y="-298.8" font-family="Helvetica,sans-Serif" font-size="9.00">mexiface::explore::</text>
<text text-anchor="middle" x="177" y="-288.8" font-family="Helvetica,sans-Serif" font-size="9.00">analyze_int64</text>
</a>
</g>
</g>
<!-- Node1&#45;&gt;Node6 -->
<g id="edge7" class="edge"><title>Node1&#45;&gt;Node6</title>
<path fill="none" stroke="midnightblue" d="M71.8991,-239.031C88.1816,-248.508 110.279,-261.209 130,-272 133.097,-273.694 136.323,-275.432 139.567,-277.161"/>
<polygon fill="midnightblue" stroke="midnightblue" points="138.185,-280.389 148.663,-281.964 141.454,-274.199 138.185,-280.389"/>
</g>
<!-- Node7 -->
<g id="node7" class="node"><title>Node7</title>
<g id="a_node7"><a xlink:href="namespacemexiface_1_1explore.html#abbbd19941bd43d361d33e21fb0dadbae" target="_top" xlink:title="mexiface::explore::\lanalyze_int8">
<polygon fill="white" stroke="black" points="130.5,-235 130.5,-263 223.5,-263 223.5,-235 130.5,-235"/>
<text text-anchor="start" x="138.5" y="-251.8" font-family="Helvetica,sans-Serif" font-size="9.00">mexiface::explore::</text>
<text text-anchor="middle" x="177" y="-241.8" font-family="Helvetica,sans-Serif" font-size="9.00">analyze_int8</text>
</a>
</g>
</g>
<!-- Node1&#45;&gt;Node7 -->
<g id="edge9" class="edge"><title>Node1&#45;&gt;Node7</title>
<path fill="none" stroke="midnightblue" d="M93.8494,-233.597C102.501,-235.219 111.636,-236.932 120.545,-238.602"/>
<polygon fill="midnightblue" stroke="midnightblue" points="119.997,-242.06 130.471,-240.463 121.287,-235.18 119.997,-242.06"/>
</g>
<!-- Node8 -->
<g id="node8" class="node"><title>Node8</title>
<g id="a_node8"><a xlink:href="namespacemexiface_1_1explore.html#acaf0a238e5467e317ae037a966647626" target="_top" xlink:title="mexiface::explore::\lanalyze_single">
<polygon fill="white" stroke="black" points="130.5,-188 130.5,-216 223.5,-216 223.5,-188 130.5,-188"/>
<text text-anchor="start" x="138.5" y="-204.8" font-family="Helvetica,sans-Serif" font-size="9.00">mexiface::explore::</text>
<text text-anchor="middle" x="177" y="-194.8" font-family="Helvetica,sans-Serif" font-size="9.00">analyze_single</text>
</a>
</g>
</g>
<!-- Node1&#45;&gt;Node8 -->
<g id="edge11" class="edge"><title>Node1&#45;&gt;Node8</title>
<path fill="none" stroke="midnightblue" d="M93.8494,-216.761C102.501,-215.207 111.636,-213.565 120.545,-211.965"/>
<polygon fill="midnightblue" stroke="midnightblue" points="121.247,-215.395 130.471,-210.181 120.009,-208.505 121.247,-215.395"/>
</g>
<!-- Node9 -->
<g id="node9" class="node"><title>Node9</title>
<g id="a_node9"><a xlink:href="namespacemexiface_1_1explore.html#aa1951af918bc0b264d05f2db4fbec9e1" target="_top" xlink:title="mexiface::explore::\lanalyze_uint16">
<polygon fill="white" stroke="black" points="130.5,-141 130.5,-169 223.5,-169 223.5,-141 130.5,-141"/>
<text text-anchor="start" x="138.5" y="-157.8" font-family="Helvetica,sans-Serif" font-size="9.00">mexiface::explore::</text>
<text text-anchor="middle" x="177" y="-147.8" font-family="Helvetica,sans-Serif" font-size="9.00">analyze_uint16</text>
</a>
</g>
</g>
<!-- Node1&#45;&gt;Node9 -->
<g id="edge13" class="edge"><title>Node1&#45;&gt;Node9</title>
<path fill="none" stroke="midnightblue" d="M72.6513,-210.914C88.8763,-201.707 110.62,-189.488 130,-179 133.104,-177.32 136.336,-175.592 139.584,-173.87"/>
<polygon fill="midnightblue" stroke="midnightblue" points="141.467,-176.834 148.685,-169.078 138.206,-170.64 141.467,-176.834"/>
</g>
<!-- Node10 -->
<g id="node10" class="node"><title>Node10</title>
<g id="a_node10"><a xlink:href="namespacemexiface_1_1explore.html#aa0ebed3704023f9816e91293c9c08253" target="_top" xlink:title="mexiface::explore::\lanalyze_uint32">
<polygon fill="white" stroke="black" points="130.5,-94 130.5,-122 223.5,-122 223.5,-94 130.5,-94"/>
<text text-anchor="start" x="138.5" y="-110.8" font-family="Helvetica,sans-Serif" font-size="9.00">mexiface::explore::</text>
<text text-anchor="middle" x="177" y="-100.8" font-family="Helvetica,sans-Serif" font-size="9.00">analyze_uint32</text>
</a>
</g>
</g>
<!-- Node1&#45;&gt;Node10 -->
<g id="edge15" class="edge"><title>Node1&#45;&gt;Node10</title>
<path fill="none" stroke="midnightblue" d="M57.7981,-210.941C71.9761,-191.361 99.8376,-155.629 130,-132 131.985,-130.445 134.087,-128.942 136.255,-127.5"/>
<polygon fill="midnightblue" stroke="midnightblue" points="138.138,-130.452 144.846,-122.251 134.488,-124.479 138.138,-130.452"/>
</g>
<!-- Node11 -->
<g id="node11" class="node"><title>Node11</title>
<g id="a_node11"><a xlink:href="namespacemexiface_1_1explore.html#abe63c53129e4d37e66af71c8f66d9ae6" target="_top" xlink:title="mexiface::explore::\lanalyze_uint64">
<polygon fill="white" stroke="black" points="130.5,-47 130.5,-75 223.5,-75 223.5,-47 130.5,-47"/>
<text text-anchor="start" x="138.5" y="-63.8" font-family="Helvetica,sans-Serif" font-size="9.00">mexiface::explore::</text>
<text text-anchor="middle" x="177" y="-53.8" font-family="Helvetica,sans-Serif" font-size="9.00">analyze_uint64</text>
</a>
</g>
</g>
<!-- Node1&#45;&gt;Node11 -->
<g id="edge17" class="edge"><title>Node1&#45;&gt;Node11</title>
<path fill="none" stroke="midnightblue" d="M53.1357,-210.973C63.7401,-183.652 90.4255,-122.683 130,-85 131.468,-83.6024 133.033,-82.2651 134.667,-80.9882"/>
<polygon fill="midnightblue" stroke="midnightblue" points="136.993,-83.6377 143.279,-75.1089 133.047,-77.8564 136.993,-83.6377"/>
</g>
<!-- Node12 -->
<g id="node12" class="node"><title>Node12</title>
<g id="a_node12"><a xlink:href="namespacemexiface_1_1explore.html#ae0e1687942c1e218a665eedeadc63456" target="_top" xlink:title="mexiface::explore::\lanalyze_uint8">
<polygon fill="white" stroke="black" points="130.5,-0 130.5,-28 223.5,-28 223.5,-0 130.5,-0"/>
<text text-anchor="start" x="138.5" y="-16.8" font-family="Helvetica,sans-Serif" font-size="9.00">mexiface::explore::</text>
<text text-anchor="middle" x="177" y="-6.8" font-family="Helvetica,sans-Serif" font-size="9.00">analyze_uint8</text>
</a>
</g>
</g>
<!-- Node1&#45;&gt;Node12 -->
<g id="edge19" class="edge"><title>Node1&#45;&gt;Node12</title>
<path fill="none" stroke="midnightblue" d="M50.825,-210.784C58.2056,-176.928 80.9856,-90.4469 130,-38 131.338,-36.5686 132.78,-35.2072 134.3,-33.9142"/>
<polygon fill="midnightblue" stroke="midnightblue" points="136.387,-36.7244 142.416,-28.0123 132.269,-31.0632 136.387,-36.7244"/>
</g>
<!-- Node3 -->
<g id="node3" class="node"><title>Node3</title>
<g id="a_node3"><a xlink:href="namespacemexiface_1_1explore.html#ad41bff4081494e68399068077d57f1ea" target="_top" xlink:title="mexiface::explore::\ldisplay_subscript">
<polygon fill="white" stroke="black" points="260.5,-211 260.5,-239 353.5,-239 353.5,-211 260.5,-211"/>
<text text-anchor="start" x="268.5" y="-227.8" font-family="Helvetica,sans-Serif" font-size="9.00">mexiface::explore::</text>
<text text-anchor="middle" x="307" y="-217.8" font-family="Helvetica,sans-Serif" font-size="9.00">display_subscript</text>
</a>
</g>
</g>
<!-- Node2&#45;&gt;Node3 -->
<g id="edge2" class="edge"><title>Node2&#45;&gt;Node3</title>
<path fill="none" stroke="midnightblue" d="M211.591,-422.994C216.126,-420.142 220.436,-416.821 224,-413 269.067,-364.682 291.883,-287.639 301.027,-248.896"/>
<polygon fill="midnightblue" stroke="midnightblue" points="304.464,-249.566 303.251,-239.04 297.636,-248.025 304.464,-249.566"/>
</g>
<!-- Node4&#45;&gt;Node3 -->
<g id="edge4" class="edge"><title>Node4&#45;&gt;Node3</title>
<path fill="none" stroke="midnightblue" d="M210.731,-375.902C215.489,-373.035 220.092,-369.733 224,-366 259.692,-331.909 284.794,-278.878 297.181,-248.501"/>
<polygon fill="midnightblue" stroke="midnightblue" points="300.465,-249.714 300.891,-239.128 293.956,-247.138 300.465,-249.714"/>
</g>
<!-- Node5&#45;&gt;Node3 -->
<g id="edge6" class="edge"><title>Node5&#45;&gt;Node3</title>
<path fill="none" stroke="midnightblue" d="M209.17,-328.77C214.332,-325.851 219.471,-322.567 224,-319 250.497,-298.129 275.105,-267.86 290.314,-247.353"/>
<polygon fill="midnightblue" stroke="midnightblue" points="293.18,-249.363 296.235,-239.219 287.521,-245.244 293.18,-249.363"/>
</g>
<!-- Node6&#45;&gt;Node3 -->
<g id="edge8" class="edge"><title>Node6&#45;&gt;Node3</title>
<path fill="none" stroke="midnightblue" d="M205.337,-281.964C211.5,-278.736 217.994,-275.286 224,-272 240.331,-263.064 258.293,-252.817 273.231,-244.177"/>
<polygon fill="midnightblue" stroke="midnightblue" points="275.208,-247.077 282.101,-239.031 271.695,-241.022 275.208,-247.077"/>
</g>
<!-- Node7&#45;&gt;Node3 -->
<g id="edge10" class="edge"><title>Node7&#45;&gt;Node3</title>
<path fill="none" stroke="midnightblue" d="M223.849,-240.403C232.501,-238.781 241.636,-237.068 250.545,-235.398"/>
<polygon fill="midnightblue" stroke="midnightblue" points="251.287,-238.82 260.471,-233.537 249.997,-231.94 251.287,-238.82"/>
</g>
<!-- Node8&#45;&gt;Node3 -->
<g id="edge12" class="edge"><title>Node8&#45;&gt;Node3</title>
<path fill="none" stroke="midnightblue" d="M223.849,-210.239C232.501,-211.793 241.636,-213.435 250.545,-215.035"/>
<polygon fill="midnightblue" stroke="midnightblue" points="250.009,-218.495 260.471,-216.819 251.247,-211.605 250.009,-218.495"/>
</g>
<!-- Node9&#45;&gt;Node3 -->
<g id="edge14" class="edge"><title>Node9&#45;&gt;Node3</title>
<path fill="none" stroke="midnightblue" d="M205.315,-169.078C211.479,-172.303 217.979,-175.742 224,-179 240.049,-187.686 257.719,-197.558 272.534,-205.924"/>
<polygon fill="midnightblue" stroke="midnightblue" points="270.922,-209.034 281.349,-210.914 274.371,-202.942 270.922,-209.034"/>
</g>
<!-- Node10&#45;&gt;Node3 -->
<g id="edge16" class="edge"><title>Node10&#45;&gt;Node3</title>
<path fill="none" stroke="midnightblue" d="M209.154,-122.251C214.318,-125.167 219.462,-128.445 224,-132 250.274,-152.583 274.803,-182.35 290.061,-202.624"/>
<polygon fill="midnightblue" stroke="midnightblue" points="287.446,-204.975 296.202,-210.941 293.078,-200.817 287.446,-204.975"/>
</g>
<!-- Node11&#45;&gt;Node3 -->
<g id="edge18" class="edge"><title>Node11&#45;&gt;Node3</title>
<path fill="none" stroke="midnightblue" d="M210.721,-75.1089C215.48,-77.9747 220.086,-81.273 224,-85 259.555,-118.856 284.706,-171.508 297.139,-201.667"/>
<polygon fill="midnightblue" stroke="midnightblue" points="293.899,-202.99 300.864,-210.973 300.397,-200.389 293.899,-202.99"/>
</g>
<!-- Node12&#45;&gt;Node3 -->
<g id="edge20" class="edge"><title>Node12&#45;&gt;Node3</title>
<path fill="none" stroke="midnightblue" d="M211.584,-28.0123C216.121,-30.8636 220.433,-34.1829 224,-38 268.802,-85.9398 291.685,-162.316 300.924,-200.945"/>
<polygon fill="midnightblue" stroke="midnightblue" points="297.533,-201.816 303.175,-210.784 304.357,-200.255 297.533,-201.816"/>
</g>
</g>
</svg>
