<?xml version="1.0" encoding="UTF-8" standalone="no"?>
<!DOCTYPE svg PUBLIC "-//W3C//DTD SVG 1.1//EN"
 "http://www.w3.org/Graphics/SVG/1.1/DTD/svg11.dtd">
<!-- Generated by graphviz version 2.36.0 (20140111.2315)
 -->
<!-- Title: mexiface::explore::analyze_cell Pages: 1 -->
<!--zoomable 643 -->
<svg id="main" version="1.1" xmlns="http://www.w3.org/2000/svg" xmlns:xlink="http://www.w3.org/1999/xlink" xml:space="preserve" onload="init(evt)">
<style type="text/css"><![CDATA[
.edge:hover path { stroke: red; }
.edge:hover polygon { stroke: red; fill: red; }
]]></style>
<script type="text/javascript"><![CDATA[
var edges = document.getElementsByTagName('g');
if (edges && edges.length) {
  for (var i=0;i<edges.length;i++) {
    if (edges[i].id.substr(0,4)=='edge') {
      edges[i].setAttribute('class','edge');
    }
  }
}
]]></script>
        <defs>
                <circle id="rim" cx="0" cy="0" r="7"/>
                <circle id="rim2" cx="0" cy="0" r="3.5"/>
                <g id="zoomPlus">
                        <use xlink:href="#rim" fill="#404040">
                                <set attributeName="fill" to="#808080" begin="zoomplus.mouseover" end="zoomplus.mouseout"/>
                        </use>
                        <path d="M-4,0h8M0,-4v8" fill="none" stroke="white" stroke-width="1.5" pointer-events="none"/>
                </g>
                <g id="zoomMin">
                        <use xlink:href="#rim" fill="#404040">
                                <set attributeName="fill" to="#808080" begin="zoomminus.mouseover" end="zoomminus.mouseout"/>
                        </use>
                        <path d="M-4,0h8" fill="none" stroke="white" stroke-width="1.5" pointer-events="none"/>
                </g>
                <g id="dirArrow">
                        <path fill="none" stroke="white" stroke-width="1.5" d="M0,-3.0v7 M-2.5,-0.5L0,-3.0L2.5,-0.5"/>
                </g>
               <g id="resetDef">
                       <use xlink:href="#rim2" fill="#404040">
                               <set attributeName="fill" to="#808080" begin="reset.mouseover" end="reset.mouseout"/>
                       </use>
               </g>
        </defs>

<script type="text/javascript">
var viewWidth = 622;
var viewHeight = 643;
var sectionId = 'dynsection-0';
</script>
<script xlink:href="svgpan.js"/>
<svg id="graph" class="graph">
<g id="viewport">
<title>mexiface::explore::analyze_cell</title>
<polygon fill="white" stroke="none" points="-4,4 -4,-638.717 618,-638.717 618,4 -4,4"/>
<!-- Node1 -->
<g id="node1" class="node"><title>Node1</title>
<polygon fill="#bfbfbf" stroke="black" points="0.5,-481.354 0.5,-509.354 93.5,-509.354 93.5,-481.354 0.5,-481.354"/>
<text text-anchor="start" x="8.5" y="-498.154" font-family="Helvetica,sans-Serif" font-size="9.00">mexiface::explore::</text>
<text text-anchor="middle" x="47" y="-488.154" font-family="Helvetica,sans-Serif" font-size="9.00">analyze_cell</text>
</g>
<!-- Node2 -->
<g id="node2" class="node"><title>Node2</title>
<g id="a_node2"><a xlink:href="namespacemexiface_1_1explore.html#a5a5c7c4c0ce2b61c1fe8f55cd7a685c8" target="_top" xlink:title="mexiface::explore::\lanalyze_class">
<polygon fill="white" stroke="black" points="130.5,-368.354 130.5,-396.354 223.5,-396.354 223.5,-368.354 130.5,-368.354"/>
<text text-anchor="start" x="138.5" y="-385.154" font-family="Helvetica,sans-Serif" font-size="9.00">mexiface::explore::</text>
<text text-anchor="middle" x="177" y="-375.154" font-family="Helvetica,sans-Serif" font-size="9.00">analyze_class</text>
</a>
</g>
</g>
<!-- Node1&#45;&gt;Node2 -->
<g id="edge1" class="edge"><title>Node1&#45;&gt;Node2</title>
<path fill="none" stroke="midnightblue" d="M59.3591,-481.279C78.627,-461.409 118.319,-425.778 146.021,-403.001"/>
<polygon fill="midnightblue" stroke="midnightblue" points="148.28,-405.675 153.843,-396.659 143.871,-400.238 148.28,-405.675"/>
</g>
<!-- Node5 -->
<g id="node5" class="node"><title>Node5</title>
<g id="a_node5"><a xlink:href="namespacemexiface_1_1explore.html#ad41bff4081494e68399068077d57f1ea" target="_top" xlink:title="mexiface::explore::\ldisplay_subscript">
<polygon fill="white" stroke="black" points="520.5,-263.354 520.5,-291.354 613.5,-291.354 613.5,-263.354 520.5,-263.354"/>
<text text-anchor="start" x="528.5" y="-280.154" font-family="Helvetica,sans-Serif" font-size="9.00">mexiface::explore::</text>
<text text-anchor="middle" x="567" y="-270.154" font-family="Helvetica,sans-Serif" font-size="9.00">display_subscript</text>
</a>
</g>
</g>
<!-- Node1&#45;&gt;Node5 -->
<g id="edge33" class="edge"><title>Node1&#45;&gt;Node5</title>
<path fill="none" stroke="midnightblue" d="M66.8892,-509.659C132.142,-557.229 351.317,-701.403 484,-598.354 531.55,-561.423 556.167,-370.232 563.56,-301.772"/>
<polygon fill="midnightblue" stroke="midnightblue" points="567.072,-301.838 564.636,-291.527 560.111,-301.107 567.072,-301.838"/>
</g>
<!-- Node8 -->
<g id="node8" class="node"><title>Node8</title>
<g id="a_node8"><a xlink:href="namespacemexiface_1_1explore.html#af20e073842721a53872d786a38f401fe" target="_top" xlink:title="mexiface::explore::\lget_characteristics">
<polygon fill="white" stroke="black" points="390.5,-561.354 390.5,-589.354 483.5,-589.354 483.5,-561.354 390.5,-561.354"/>
<text text-anchor="start" x="398.5" y="-578.154" font-family="Helvetica,sans-Serif" font-size="9.00">mexiface::explore::</text>
<text text-anchor="middle" x="437" y="-568.154" font-family="Helvetica,sans-Serif" font-size="9.00">get_characteristics</text>
</a>
</g>
</g>
<!-- Node1&#45;&gt;Node8 -->
<g id="edge34" class="edge"><title>Node1&#45;&gt;Node8</title>
<path fill="none" stroke="midnightblue" d="M93.6495,-504.766C165.063,-519.49 303.002,-547.931 380.204,-563.849"/>
<polygon fill="midnightblue" stroke="midnightblue" points="379.723,-567.324 390.224,-565.915 381.137,-560.468 379.723,-567.324"/>
</g>
<!-- Node2&#45;&gt;Node1 -->
<g id="edge11" class="edge"><title>Node2&#45;&gt;Node1</title>
<path fill="none" stroke="midnightblue" d="M164.585,-396.486C145.258,-416.406 105.5,-452.09 77.8176,-474.839"/>
<polygon fill="midnightblue" stroke="midnightblue" points="75.5701,-472.155 70.004,-481.17 79.977,-477.594 75.5701,-472.155"/>
</g>
<!-- Node3 -->
<g id="node3" class="node"><title>Node3</title>
<g id="a_node3"><a xlink:href="namespacemexiface_1_1explore.html#a44ef87dec50add577651cf82ea3c8874" target="_top" xlink:title="mexiface::explore::\lanalyze_sparse">
<polygon fill="white" stroke="black" points="260.5,-170.354 260.5,-198.354 353.5,-198.354 353.5,-170.354 260.5,-170.354"/>
<text text-anchor="start" x="268.5" y="-187.154" font-family="Helvetica,sans-Serif" font-size="9.00">mexiface::explore::</text>
<text text-anchor="middle" x="307" y="-177.154" font-family="Helvetica,sans-Serif" font-size="9.00">analyze_sparse</text>
</a>
</g>
</g>
<!-- Node2&#45;&gt;Node3 -->
<g id="edge2" class="edge"><title>Node2&#45;&gt;Node3</title>
<path fill="none" stroke="midnightblue" d="M181.21,-368.278C189.221,-335.985 212.924,-255.643 260,-207.354 260.912,-206.418 261.869,-205.515 262.864,-204.643"/>
<polygon fill="midnightblue" stroke="midnightblue" points="265.135,-207.317 271.097,-198.559 260.975,-201.688 265.135,-207.317"/>
</g>
<!-- Node4 -->
<g id="node4" class="node"><title>Node4</title>
<g id="a_node4"><a xlink:href="namespacemexiface_1_1explore.html#ae6d95ef17338c9baa90e1ce1c3e33d0f" target="_top" xlink:title="mexiface::explore::\lanalyze_logical">
<polygon fill="white" stroke="black" points="260.5,-264.354 260.5,-292.354 353.5,-292.354 353.5,-264.354 260.5,-264.354"/>
<text text-anchor="start" x="268.5" y="-281.154" font-family="Helvetica,sans-Serif" font-size="9.00">mexiface::explore::</text>
<text text-anchor="middle" x="307" y="-271.154" font-family="Helvetica,sans-Serif" font-size="9.00">analyze_logical</text>
</a>
</g>
</g>
<!-- Node2&#45;&gt;Node4 -->
<g id="edge3" class="edge"><title>Node2&#45;&gt;Node4</title>
<path fill="none" stroke="midnightblue" d="M189.916,-368.083C204.939,-350.724 232.18,-321.276 260,-301.354 261.828,-300.044 263.742,-298.77 265.707,-297.536"/>
<polygon fill="midnightblue" stroke="midnightblue" points="267.651,-300.455 274.542,-292.407 264.136,-294.401 267.651,-300.455"/>
</g>
<!-- Node6 -->
<g id="node6" class="node"><title>Node6</title>
<g id="a_node6"><a xlink:href="namespacemexiface_1_1explore.html#aaa319b6e0131959ff3d2fbd9a4c368b3" target="_top" xlink:title="mexiface::explore::\lanalyze_string">
<polygon fill="white" stroke="black" points="260.5,-217.354 260.5,-245.354 353.5,-245.354 353.5,-217.354 260.5,-217.354"/>
<text text-anchor="start" x="268.5" y="-234.154" font-family="Helvetica,sans-Serif" font-size="9.00">mexiface::explore::</text>
<text text-anchor="middle" x="307" y="-224.154" font-family="Helvetica,sans-Serif" font-size="9.00">analyze_string</text>
</a>
</g>
</g>
<!-- Node2&#45;&gt;Node6 -->
<g id="edge5" class="edge"><title>Node2&#45;&gt;Node6</title>
<path fill="none" stroke="midnightblue" d="M183.925,-368.306C195.32,-342.72 222.517,-288.056 260,-254.354 261.278,-253.204 262.624,-252.098 264.021,-251.034"/>
<polygon fill="midnightblue" stroke="midnightblue" points="266.072,-253.873 272.449,-245.412 262.187,-248.05 266.072,-253.873"/>
</g>
<!-- Node7 -->
<g id="node7" class="node"><title>Node7</title>
<g id="a_node7"><a xlink:href="namespacemexiface_1_1explore.html#a6205a96e991f64a98345df5645dd0ba5" target="_top" xlink:title="mexiface::explore::\lanalyze_structure">
<polygon fill="white" stroke="black" points="260.5,-422.354 260.5,-450.354 353.5,-450.354 353.5,-422.354 260.5,-422.354"/>
<text text-anchor="start" x="268.5" y="-439.154" font-family="Helvetica,sans-Serif" font-size="9.00">mexiface::explore::</text>
<text text-anchor="middle" x="307" y="-429.154" font-family="Helvetica,sans-Serif" font-size="9.00">analyze_structure</text>
</a>
</g>
</g>
<!-- Node2&#45;&gt;Node7 -->
<g id="edge7" class="edge"><title>Node2&#45;&gt;Node7</title>
<path fill="none" stroke="midnightblue" d="M223.849,-395.194C241.077,-401.98 260.217,-410.276 275.686,-417.726"/>
<polygon fill="midnightblue" stroke="midnightblue" points="274.278,-420.934 284.793,-422.234 277.383,-414.661 274.278,-420.934"/>
</g>
<!-- Node9 -->
<g id="node9" class="node"><title>Node9</title>
<g id="a_node9"><a xlink:href="namespacemexiface_1_1explore.html#aad11efd374cd1c241da644051e4d3479" target="_top" xlink:title="mexiface::explore::\lanalyze_full">
<polygon fill="white" stroke="black" points="260.5,-311.354 260.5,-339.354 353.5,-339.354 353.5,-311.354 260.5,-311.354"/>
<text text-anchor="start" x="268.5" y="-328.154" font-family="Helvetica,sans-Serif" font-size="9.00">mexiface::explore::</text>
<text text-anchor="middle" x="307" y="-318.154" font-family="Helvetica,sans-Serif" font-size="9.00">analyze_full</text>
</a>
</g>
</g>
<!-- Node2&#45;&gt;Node9 -->
<g id="edge12" class="edge"><title>Node2&#45;&gt;Node9</title>
<path fill="none" stroke="midnightblue" d="M209.64,-368.264C226.256,-360.864 246.821,-351.707 264.679,-343.754"/>
<polygon fill="midnightblue" stroke="midnightblue" points="266.569,-346.744 274.28,-339.479 263.721,-340.35 266.569,-346.744"/>
</g>
<!-- Node4&#45;&gt;Node5 -->
<g id="edge4" class="edge"><title>Node4&#45;&gt;Node5</title>
<path fill="none" stroke="midnightblue" d="M343.827,-264.137C347.71,-261.38 351.244,-258.141 354,-254.354 410.232,-177.076 316.983,-104.017 390,-42.3535 421.919,-15.3982 449.938,-18.163 484,-42.3535 553.273,-91.5508 564.507,-203.811 565.992,-253.235"/>
<polygon fill="midnightblue" stroke="midnightblue" points="562.494,-253.385 566.183,-263.317 569.493,-253.252 562.494,-253.385"/>
</g>
<!-- Node6&#45;&gt;Node5 -->
<g id="edge6" class="edge"><title>Node6&#45;&gt;Node5</title>
<path fill="none" stroke="midnightblue" d="M343.751,-217.082C347.647,-214.333 351.204,-211.112 354,-207.354 404.775,-139.094 324.431,-73.5584 390,-19.3535 422.2,7.26533 450.28,5.31134 484,-19.3535 559.612,-74.6608 567.191,-200.249 566.84,-253.147"/>
<polygon fill="midnightblue" stroke="midnightblue" points="563.339,-253.222 566.667,-263.28 570.338,-253.342 563.339,-253.222"/>
</g>
<!-- Node7&#45;&gt;Node2 -->
<g id="edge10" class="edge"><title>Node7&#45;&gt;Node2</title>
<path fill="none" stroke="midnightblue" d="M260.393,-423.609C243.092,-416.801 223.832,-408.456 208.286,-400.967"/>
<polygon fill="midnightblue" stroke="midnightblue" points="209.651,-397.738 199.137,-396.437 206.545,-404.011 209.651,-397.738"/>
</g>
<!-- Node7&#45;&gt;Node5 -->
<g id="edge8" class="edge"><title>Node7&#45;&gt;Node5</title>
<path fill="none" stroke="midnightblue" d="M317.935,-450.64C331.67,-468.991 358.377,-499.952 390,-512.354 428.894,-527.606 449.938,-536.544 484,-512.354 553.273,-463.156 564.507,-350.896 565.992,-301.472"/>
<polygon fill="midnightblue" stroke="midnightblue" points="569.493,-301.455 566.183,-291.39 562.494,-301.322 569.493,-301.455"/>
</g>
<!-- Node7&#45;&gt;Node8 -->
<g id="edge9" class="edge"><title>Node7&#45;&gt;Node8</title>
<path fill="none" stroke="midnightblue" d="M316.175,-450.501C329.539,-472.789 357.823,-516.596 390,-546.354 393.539,-549.627 397.497,-552.748 401.565,-555.647"/>
<polygon fill="midnightblue" stroke="midnightblue" points="399.713,-558.619 409.972,-561.266 403.602,-552.799 399.713,-558.619"/>
</g>
<!-- Node10 -->
<g id="node10" class="node"><title>Node10</title>
<g id="a_node10"><a xlink:href="namespacemexiface_1_1explore.html#abbbd19941bd43d361d33e21fb0dadbae" target="_top" xlink:title="mexiface::explore::\lanalyze_int8">
<polygon fill="white" stroke="black" points="390.5,-287.354 390.5,-315.354 483.5,-315.354 483.5,-287.354 390.5,-287.354"/>
<text text-anchor="start" x="398.5" y="-304.154" font-family="Helvetica,sans-Serif" font-size="9.00">mexiface::explore::</text>
<text text-anchor="middle" x="437" y="-294.154" font-family="Helvetica,sans-Serif" font-size="9.00">analyze_int8</text>
</a>
</g>
</g>
<!-- Node9&#45;&gt;Node10 -->
<g id="edge13" class="edge"><title>Node9&#45;&gt;Node10</title>
<path fill="none" stroke="midnightblue" d="M353.849,-316.757C362.501,-315.135 371.636,-313.422 380.545,-311.751"/>
<polygon fill="midnightblue" stroke="midnightblue" points="381.287,-315.173 390.471,-309.89 379.997,-308.293 381.287,-315.173"/>
</g>
<!-- Node11 -->
<g id="node11" class="node"><title>Node11</title>
<g id="a_node11"><a xlink:href="namespacemexiface_1_1explore.html#ae0e1687942c1e218a665eedeadc63456" target="_top" xlink:title="mexiface::explore::\lanalyze_uint8">
<polygon fill="white" stroke="black" points="390.5,-240.354 390.5,-268.354 483.5,-268.354 483.5,-240.354 390.5,-240.354"/>
<text text-anchor="start" x="398.5" y="-257.154" font-family="Helvetica,sans-Serif" font-size="9.00">mexiface::explore::</text>
<text text-anchor="middle" x="437" y="-247.154" font-family="Helvetica,sans-Serif" font-size="9.00">analyze_uint8</text>
</a>
</g>
</g>
<!-- Node9&#45;&gt;Node11 -->
<g id="edge15" class="edge"><title>Node9&#45;&gt;Node11</title>
<path fill="none" stroke="midnightblue" d="M336.481,-311.101C342.338,-308.001 348.419,-304.657 354,-301.354 370.548,-291.559 373.368,-287.005 390,-277.354 392.462,-275.925 395.023,-274.496 397.622,-273.088"/>
<polygon fill="midnightblue" stroke="midnightblue" points="399.286,-276.168 406.509,-268.417 396.029,-269.971 399.286,-276.168"/>
</g>
<!-- Node12 -->
<g id="node12" class="node"><title>Node12</title>
<g id="a_node12"><a xlink:href="namespacemexiface_1_1explore.html#a2c3a4139675fbbf8ca7ab0f92d6f11fd" target="_top" xlink:title="mexiface::explore::\lanalyze_int16">
<polygon fill="white" stroke="black" points="390.5,-193.354 390.5,-221.354 483.5,-221.354 483.5,-193.354 390.5,-193.354"/>
<text text-anchor="start" x="398.5" y="-210.154" font-family="Helvetica,sans-Serif" font-size="9.00">mexiface::explore::</text>
<text text-anchor="middle" x="437" y="-200.154" font-family="Helvetica,sans-Serif" font-size="9.00">analyze_int16</text>
</a>
</g>
</g>
<!-- Node9&#45;&gt;Node12 -->
<g id="edge17" class="edge"><title>Node9&#45;&gt;Node12</title>
<path fill="none" stroke="midnightblue" d="M341.395,-311.159C345.958,-308.333 350.327,-305.069 354,-301.354 378.872,-276.191 364.912,-255.301 390,-230.354 391.068,-229.291 392.196,-228.269 393.37,-227.286"/>
<polygon fill="midnightblue" stroke="midnightblue" points="395.558,-230.024 401.663,-221.365 391.491,-224.327 395.558,-230.024"/>
</g>
<!-- Node13 -->
<g id="node13" class="node"><title>Node13</title>
<g id="a_node13"><a xlink:href="namespacemexiface_1_1explore.html#aa1951af918bc0b264d05f2db4fbec9e1" target="_top" xlink:title="mexiface::explore::\lanalyze_uint16">
<polygon fill="white" stroke="black" points="390.5,-146.354 390.5,-174.354 483.5,-174.354 483.5,-146.354 390.5,-146.354"/>
<text text-anchor="start" x="398.5" y="-163.154" font-family="Helvetica,sans-Serif" font-size="9.00">mexiface::explore::</text>
<text text-anchor="middle" x="437" y="-153.154" font-family="Helvetica,sans-Serif" font-size="9.00">analyze_uint16</text>
</a>
</g>
</g>
<!-- Node9&#45;&gt;Node13 -->
<g id="edge19" class="edge"><title>Node9&#45;&gt;Node13</title>
<path fill="none" stroke="midnightblue" d="M342.919,-311.096C347.049,-308.327 350.892,-305.096 354,-301.354 389.029,-259.171 354.609,-225.233 390,-183.354 390.72,-182.501 391.48,-181.677 392.274,-180.881"/>
<polygon fill="midnightblue" stroke="midnightblue" points="394.636,-183.471 400.177,-174.44 390.214,-178.044 394.636,-183.471"/>
</g>
<!-- Node14 -->
<g id="node14" class="node"><title>Node14</title>
<g id="a_node14"><a xlink:href="namespacemexiface_1_1explore.html#ad8657b3604a735ef428823cdf0a72722" target="_top" xlink:title="mexiface::explore::\lanalyze_int32">
<polygon fill="white" stroke="black" points="390.5,-99.3535 390.5,-127.354 483.5,-127.354 483.5,-99.3535 390.5,-99.3535"/>
<text text-anchor="start" x="398.5" y="-116.154" font-family="Helvetica,sans-Serif" font-size="9.00">mexiface::explore::</text>
<text text-anchor="middle" x="437" y="-106.154" font-family="Helvetica,sans-Serif" font-size="9.00">analyze_int32</text>
</a>
</g>
</g>
<!-- Node9&#45;&gt;Node14 -->
<g id="edge21" class="edge"><title>Node9&#45;&gt;Node14</title>
<path fill="none" stroke="midnightblue" d="M343.208,-311.326C347.293,-308.521 351.047,-305.219 354,-301.354 399.565,-241.708 343.922,-195.604 390,-136.354 390.576,-135.613 391.181,-134.895 391.814,-134.199"/>
<polygon fill="midnightblue" stroke="midnightblue" points="394.222,-136.743 399.456,-127.531 389.62,-131.468 394.222,-136.743"/>
</g>
<!-- Node15 -->
<g id="node15" class="node"><title>Node15</title>
<g id="a_node15"><a xlink:href="namespacemexiface_1_1explore.html#aa0ebed3704023f9816e91293c9c08253" target="_top" xlink:title="mexiface::explore::\lanalyze_uint32">
<polygon fill="white" stroke="black" points="390.5,-52.3535 390.5,-80.3535 483.5,-80.3535 483.5,-52.3535 390.5,-52.3535"/>
<text text-anchor="start" x="398.5" y="-69.1535" font-family="Helvetica,sans-Serif" font-size="9.00">mexiface::explore::</text>
<text text-anchor="middle" x="437" y="-59.1535" font-family="Helvetica,sans-Serif" font-size="9.00">analyze_uint32</text>
</a>
</g>
</g>
<!-- Node9&#45;&gt;Node15 -->
<g id="edge23" class="edge"><title>Node9&#45;&gt;Node15</title>
<path fill="none" stroke="midnightblue" d="M343.827,-311.137C347.71,-308.38 351.244,-305.141 354,-301.354 410.232,-224.076 333.104,-166.143 390,-89.3535 390.558,-88.6002 391.148,-87.87 391.766,-87.1623"/>
<polygon fill="midnightblue" stroke="midnightblue" points="394.188,-89.6918 399.298,-80.4111 389.515,-84.4791 394.188,-89.6918"/>
</g>
<!-- Node16 -->
<g id="node16" class="node"><title>Node16</title>
<g id="a_node16"><a xlink:href="namespacemexiface_1_1explore.html#a7025633935ccc85550b308e70b0fc771" target="_top" xlink:title="mexiface::explore::\lanalyze_int64">
<polygon fill="white" stroke="black" points="390.5,-475.354 390.5,-503.354 483.5,-503.354 483.5,-475.354 390.5,-475.354"/>
<text text-anchor="start" x="398.5" y="-492.154" font-family="Helvetica,sans-Serif" font-size="9.00">mexiface::explore::</text>
<text text-anchor="middle" x="437" y="-482.154" font-family="Helvetica,sans-Serif" font-size="9.00">analyze_int64</text>
</a>
</g>
</g>
<!-- Node9&#45;&gt;Node16 -->
<g id="edge25" class="edge"><title>Node9&#45;&gt;Node16</title>
<path fill="none" stroke="midnightblue" d="M315.622,-339.356C333.927,-372.834 379.622,-455.471 390,-465.354 391.468,-466.751 393.033,-468.088 394.667,-469.365"/>
<polygon fill="midnightblue" stroke="midnightblue" points="393.047,-472.497 403.279,-475.245 396.993,-466.716 393.047,-472.497"/>
</g>
<!-- Node17 -->
<g id="node17" class="node"><title>Node17</title>
<g id="a_node17"><a xlink:href="namespacemexiface_1_1explore.html#abe63c53129e4d37e66af71c8f66d9ae6" target="_top" xlink:title="mexiface::explore::\lanalyze_uint64">
<polygon fill="white" stroke="black" points="390.5,-428.354 390.5,-456.354 483.5,-456.354 483.5,-428.354 390.5,-428.354"/>
<text text-anchor="start" x="398.5" y="-445.154" font-family="Helvetica,sans-Serif" font-size="9.00">mexiface::explore::</text>
<text text-anchor="middle" x="437" y="-435.154" font-family="Helvetica,sans-Serif" font-size="9.00">analyze_uint64</text>
</a>
</g>
</g>
<!-- Node9&#45;&gt;Node17 -->
<g id="edge27" class="edge"><title>Node9&#45;&gt;Node17</title>
<path fill="none" stroke="midnightblue" d="M317.798,-339.412C331.976,-358.993 359.838,-394.725 390,-418.354 391.985,-419.909 394.087,-421.411 396.255,-422.853"/>
<polygon fill="midnightblue" stroke="midnightblue" points="394.488,-425.875 404.846,-428.103 398.138,-419.902 394.488,-425.875"/>
</g>
<!-- Node18 -->
<g id="node18" class="node"><title>Node18</title>
<g id="a_node18"><a xlink:href="namespacemexiface_1_1explore.html#acaf0a238e5467e317ae037a966647626" target="_top" xlink:title="mexiface::explore::\lanalyze_single">
<polygon fill="white" stroke="black" points="390.5,-381.354 390.5,-409.354 483.5,-409.354 483.5,-381.354 390.5,-381.354"/>
<text text-anchor="start" x="398.5" y="-398.154" font-family="Helvetica,sans-Serif" font-size="9.00">mexiface::explore::</text>
<text text-anchor="middle" x="437" y="-388.154" font-family="Helvetica,sans-Serif" font-size="9.00">analyze_single</text>
</a>
</g>
</g>
<!-- Node9&#45;&gt;Node18 -->
<g id="edge29" class="edge"><title>Node9&#45;&gt;Node18</title>
<path fill="none" stroke="midnightblue" d="M332.651,-339.439C348.876,-348.646 370.62,-360.865 390,-371.354 393.104,-373.034 396.336,-374.762 399.584,-376.484"/>
<polygon fill="midnightblue" stroke="midnightblue" points="398.206,-379.714 408.685,-381.276 401.467,-373.52 398.206,-379.714"/>
</g>
<!-- Node19 -->
<g id="node19" class="node"><title>Node19</title>
<g id="a_node19"><a xlink:href="namespacemexiface_1_1explore.html#a3b7a85eeb040efe041ae992581c3861b" target="_top" xlink:title="mexiface::explore::\lanalyze_double">
<polygon fill="white" stroke="black" points="390.5,-334.354 390.5,-362.354 483.5,-362.354 483.5,-334.354 390.5,-334.354"/>
<text text-anchor="start" x="398.5" y="-351.154" font-family="Helvetica,sans-Serif" font-size="9.00">mexiface::explore::</text>
<text text-anchor="middle" x="437" y="-341.154" font-family="Helvetica,sans-Serif" font-size="9.00">analyze_double</text>
</a>
</g>
</g>
<!-- Node9&#45;&gt;Node19 -->
<g id="edge31" class="edge"><title>Node9&#45;&gt;Node19</title>
<path fill="none" stroke="midnightblue" d="M353.849,-333.592C362.501,-335.147 371.636,-336.788 380.545,-338.389"/>
<polygon fill="midnightblue" stroke="midnightblue" points="380.009,-341.849 390.471,-340.172 381.247,-334.959 380.009,-341.849"/>
</g>
<!-- Node10&#45;&gt;Node5 -->
<g id="edge14" class="edge"><title>Node10&#45;&gt;Node5</title>
<path fill="none" stroke="midnightblue" d="M483.849,-292.757C492.501,-291.135 501.636,-289.422 510.545,-287.751"/>
<polygon fill="midnightblue" stroke="midnightblue" points="511.287,-291.173 520.471,-285.89 509.997,-284.293 511.287,-291.173"/>
</g>
<!-- Node11&#45;&gt;Node5 -->
<g id="edge16" class="edge"><title>Node11&#45;&gt;Node5</title>
<path fill="none" stroke="midnightblue" d="M483.849,-262.592C492.501,-264.147 501.636,-265.788 510.545,-267.389"/>
<polygon fill="midnightblue" stroke="midnightblue" points="510.009,-270.849 520.471,-269.172 511.247,-263.959 510.009,-270.849"/>
</g>
<!-- Node12&#45;&gt;Node5 -->
<g id="edge18" class="edge"><title>Node12&#45;&gt;Node5</title>
<path fill="none" stroke="midnightblue" d="M466.839,-221.459C472.556,-224.343 478.491,-227.401 484,-230.354 500.408,-239.149 518.378,-249.379 533.303,-258.045"/>
<polygon fill="midnightblue" stroke="midnightblue" points="531.759,-261.197 542.161,-263.212 535.286,-255.151 531.759,-261.197"/>
</g>
<!-- Node13&#45;&gt;Node5 -->
<g id="edge20" class="edge"><title>Node13&#45;&gt;Node5</title>
<path fill="none" stroke="midnightblue" d="M470.153,-174.39C474.985,-177.07 479.763,-180.075 484,-183.354 510.676,-203.995 535.245,-234.314 550.396,-254.895"/>
<polygon fill="midnightblue" stroke="midnightblue" points="547.601,-257.002 556.292,-263.062 553.277,-252.905 547.601,-257.002"/>
</g>
<!-- Node14&#45;&gt;Node5 -->
<g id="edge22" class="edge"><title>Node14&#45;&gt;Node5</title>
<path fill="none" stroke="midnightblue" d="M472.157,-127.551C476.406,-130.122 480.485,-133.053 484,-136.354 519.984,-170.136 544.98,-223.278 557.27,-253.758"/>
<polygon fill="midnightblue" stroke="midnightblue" points="554.047,-255.126 560.948,-263.165 560.566,-252.577 554.047,-255.126"/>
</g>
<!-- Node15&#45;&gt;Node5 -->
<g id="edge24" class="edge"><title>Node15&#45;&gt;Node5</title>
<path fill="none" stroke="midnightblue" d="M472.989,-80.4762C477.008,-83.037 480.804,-85.9856 484,-89.3535 529.482,-137.281 552.111,-214.5 561.122,-253.368"/>
<polygon fill="midnightblue" stroke="midnightblue" points="557.732,-254.25 563.309,-263.258 564.567,-252.738 557.732,-254.25"/>
</g>
<!-- Node16&#45;&gt;Node5 -->
<g id="edge26" class="edge"><title>Node16&#45;&gt;Node5</title>
<path fill="none" stroke="midnightblue" d="M471.591,-475.348C476.126,-472.495 480.436,-469.174 484,-465.354 529.067,-417.036 551.883,-339.992 561.027,-301.25"/>
<polygon fill="midnightblue" stroke="midnightblue" points="564.464,-301.919 563.251,-291.394 557.636,-300.378 564.464,-301.919"/>
</g>
<!-- Node17&#45;&gt;Node5 -->
<g id="edge28" class="edge"><title>Node17&#45;&gt;Node5</title>
<path fill="none" stroke="midnightblue" d="M470.731,-428.255C475.489,-425.388 480.092,-422.087 484,-418.354 519.692,-384.262 544.794,-331.232 557.181,-300.855"/>
<polygon fill="midnightblue" stroke="midnightblue" points="560.465,-302.068 560.891,-291.482 553.956,-299.491 560.465,-302.068"/>
</g>
<!-- Node18&#45;&gt;Node5 -->
<g id="edge30" class="edge"><title>Node18&#45;&gt;Node5</title>
<path fill="none" stroke="midnightblue" d="M469.17,-381.123C474.332,-378.204 479.471,-374.921 484,-371.354 510.497,-350.483 535.105,-320.213 550.314,-299.707"/>
<polygon fill="midnightblue" stroke="midnightblue" points="553.18,-301.717 556.235,-291.572 547.521,-297.598 553.18,-301.717"/>
</g>
<!-- Node19&#45;&gt;Node5 -->
<g id="edge32" class="edge"><title>Node19&#45;&gt;Node5</title>
<path fill="none" stroke="midnightblue" d="M465.337,-334.317C471.5,-331.09 477.994,-327.64 484,-324.354 500.331,-315.417 518.293,-305.171 533.231,-296.53"/>
<polygon fill="midnightblue" stroke="midnightblue" points="535.208,-299.43 542.101,-291.384 531.695,-293.375 535.208,-299.43"/>
</g>
</g>
</svg>
        <g id="navigator" transform="translate(0 0)" fill="#404254">
                <rect fill="#f2f5e9" fill-opacity="0.5" stroke="#606060" stroke-width=".5" x="0" y="0" width="60" height="60"/>
                <use id="zoomplus" xlink:href="#zoomPlus" x="17" y="9" onmousedown="handleZoom(evt,'in')"/>
                <use id="zoomminus" xlink:href="#zoomMin" x="42" y="9" onmousedown="handleZoom(evt,'out')"/>
                <use id="reset" xlink:href="#resetDef" x="30" y="36" onmousedown="handleReset()"/>
                <g id="arrowUp" xlink:href="#dirArrow" transform="translate(30 24)" onmousedown="handlePan(0,-1)">
                  <use xlink:href="#rim" fill="#404040">
                        <set attributeName="fill" to="#808080" begin="arrowUp.mouseover" end="arrowUp.mouseout"/>
                  </use>
                  <path fill="none" stroke="white" stroke-width="1.5" d="M0,-3.0v7 M-2.5,-0.5L0,-3.0L2.5,-0.5"/>
                </g>
                <g id="arrowRight" xlink:href="#dirArrow" transform="rotate(90) translate(36 -43)" onmousedown="handlePan(1,0)">
                  <use xlink:href="#rim" fill="#404040">
                        <set attributeName="fill" to="#808080" begin="arrowRight.mouseover" end="arrowRight.mouseout"/>
                  </use>
                  <path fill="none" stroke="white" stroke-width="1.5" d="M0,-3.0v7 M-2.5,-0.5L0,-3.0L2.5,-0.5"/>
                </g>
                <g id="arrowDown" xlink:href="#dirArrow" transform="rotate(180) translate(-30 -48)" onmousedown="handlePan(0,1)">
                  <use xlink:href="#rim" fill="#404040">
                        <set attributeName="fill" to="#808080" begin="arrowDown.mouseover" end="arrowDown.mouseout"/>
                  </use>
                  <path fill="none" stroke="white" stroke-width="1.5" d="M0,-3.0v7 M-2.5,-0.5L0,-3.0L2.5,-0.5"/>
                </g>
                <g id="arrowLeft" xlink:href="#dirArrow" transform="rotate(270) translate(-36 17)" onmousedown="handlePan(-1,0)">
                  <use xlink:href="#rim" fill="#404040">
                        <set attributeName="fill" to="#808080" begin="arrowLeft.mouseover" end="arrowLeft.mouseout"/>
                  </use>
                  <path fill="none" stroke="white" stroke-width="1.5" d="M0,-3.0v7 M-2.5,-0.5L0,-3.0L2.5,-0.5"/>
                </g>
        </g>
        <svg viewBox="0 0 15 15" width="100%" height="30px" preserveAspectRatio="xMaxYMin meet">
         <g id="arrow_out" transform="scale(0.3 0.3)">
          <a xlink:href="namespacemexiface_1_1explore_a2fd795aab0989018a48cfce5b8f63719_cgraph_org.svg" target="_base">
           <rect id="button" ry="5" rx="5" y="6" x="6" height="38" width="38"
                fill="#f2f5e9" fill-opacity="0.5" stroke="#606060" stroke-width="1.0"/>
           <path id="arrow"
             d="M 11.500037,31.436501 C 11.940474,20.09759 22.043105,11.32322 32.158766,21.979434 L 37.068811,17.246167 C 37.068811,17.246167 37.088388,32 37.088388,32 L 22.160133,31.978069 C 22.160133,31.978069 26.997745,27.140456 26.997745,27.140456 C 18.528582,18.264221 13.291696,25.230495 11.500037,31.436501 z"
             style="fill:#404040;"/>
          </a>
         </g>
        </svg>
</svg>
