<?xml version="1.0" encoding="UTF-8" standalone="no"?>
<!DOCTYPE svg PUBLIC "-//W3C//DTD SVG 1.1//EN"
 "http://www.w3.org/Graphics/SVG/1.1/DTD/svg11.dtd">
<!-- Generated by graphviz version 2.38.0 (20140413.2041)
 -->
<!-- Title: mexiface::exploreMexArgs Pages: 1 -->
<svg width="283pt" height="74pt"
 viewBox="0.00 0.00 283.00 74.00" xmlns="http://www.w3.org/2000/svg" xmlns:xlink="http://www.w3.org/1999/xlink">
<g id="graph0" class="graph" transform="scale(1 1) rotate(0) translate(4 70)">
<title>mexiface::exploreMexArgs</title>
<polygon fill="white" stroke="none" points="-4,4 -4,-70 279,-70 279,4 -4,4"/>
<!-- Node1 -->
<g id="node1" class="node"><title>Node1</title>
<polygon fill="#bfbfbf" stroke="black" points="0,-26.5 0,-44.5 125,-44.5 125,-26.5 0,-26.5"/>
<text text-anchor="middle" x="62.5" y="-33.3" font-family="Helvetica,sans-Serif" font-size="9.00">mexiface::exploreMexArgs</text>
</g>
<!-- Node2 -->
<g id="node2" class="node"><title>Node2</title>
<g id="a_node2"><a xlink:href="namespacemexiface.html#a54c9b82ac7205b64d9725bd8115614a4" target="_top" xlink:title="Templated function to returns the matlab mxClassID for given C++ data type. ">
<polygon fill="white" stroke="black" points="161,-47.5 161,-65.5 275,-65.5 275,-47.5 161,-47.5"/>
<text text-anchor="middle" x="218" y="-54.3" font-family="Helvetica,sans-Serif" font-size="9.00">mexiface::get_mx_class</text>
</a>
</g>
</g>
<!-- Node1&#45;&gt;Node2 -->
<g id="edge1" class="edge"><title>Node1&#45;&gt;Node2</title>
<path fill="none" stroke="midnightblue" d="M135.136,-45.3004C143.785,-46.4836 152.52,-47.6787 160.901,-48.8252"/>
<polygon fill="midnightblue" stroke="midnightblue" points="135.432,-41.8083 125.05,-43.9205 134.483,-48.7437 135.432,-41.8083"/>
</g>
<!-- Node3 -->
<g id="node3" class="node"><title>Node3</title>
<g id="a_node3"><a xlink:href="classmexiface_1_1MexIFace.html#a17f0280024d7cdd318b13223174b6151" target="_top" xlink:title="The mexFunction that will be exposed as the entry point for the .mex file. ">
<polygon fill="white" stroke="black" points="169,-0.5 169,-28.5 267,-28.5 267,-0.5 169,-0.5"/>
<text text-anchor="start" x="177" y="-17.3" font-family="Helvetica,sans-Serif" font-size="9.00">mexiface::MexIFace</text>
<text text-anchor="middle" x="218" y="-7.3" font-family="Helvetica,sans-Serif" font-size="9.00">::mexFunction</text>
</a>
</g>
</g>
<!-- Node1&#45;&gt;Node3 -->
<g id="edge2" class="edge"><title>Node1&#45;&gt;Node3</title>
<path fill="none" stroke="midnightblue" d="M135.005,-25.7176C146.408,-24.1576 157.966,-22.5764 168.665,-21.1126"/>
<polygon fill="midnightblue" stroke="midnightblue" points="134.483,-22.2563 125.05,-27.0795 135.432,-29.1917 134.483,-22.2563"/>
</g>
</g>
</svg>
