<?xml version="1.0" encoding="UTF-8" standalone="no"?>
<!DOCTYPE svg PUBLIC "-//W3C//DTD SVG 1.1//EN"
 "http://www.w3.org/Graphics/SVG/1.1/DTD/svg11.dtd">
<!-- Generated by graphviz version 2.38.0 (20140413.2041)
 -->
<!-- Title: mexiface::explore::analyze_uint16 Pages: 1 -->
<svg width="670pt" height="147pt"
 viewBox="0.00 0.00 670.00 147.00" xmlns="http://www.w3.org/2000/svg" xmlns:xlink="http://www.w3.org/1999/xlink">
<g id="graph0" class="graph" transform="scale(1 1) rotate(0) translate(4 143)">
<title>mexiface::explore::analyze_uint16</title>
<polygon fill="white" stroke="none" points="-4,4 -4,-143 666,-143 666,4 -4,4"/>
<!-- Node1 -->
<g id="node1" class="node"><title>Node1</title>
<polygon fill="#bfbfbf" stroke="black" points="0,-63.5 0,-91.5 93,-91.5 93,-63.5 0,-63.5"/>
<text text-anchor="start" x="8" y="-80.3" font-family="Helvetica,sans-Serif" font-size="9.00">mexiface::explore::</text>
<text text-anchor="middle" x="46.5" y="-70.3" font-family="Helvetica,sans-Serif" font-size="9.00">analyze_uint16</text>
</g>
<!-- Node2 -->
<g id="node2" class="node"><title>Node2</title>
<g id="a_node2"><a xlink:href="namespacemexiface_1_1explore.html#aad11efd374cd1c241da644051e4d3479" target="_top" xlink:title="mexiface::explore::\lanalyze_full">
<polygon fill="white" stroke="black" points="129,-63.5 129,-91.5 222,-91.5 222,-63.5 129,-63.5"/>
<text text-anchor="start" x="137" y="-80.3" font-family="Helvetica,sans-Serif" font-size="9.00">mexiface::explore::</text>
<text text-anchor="middle" x="175.5" y="-70.3" font-family="Helvetica,sans-Serif" font-size="9.00">analyze_full</text>
</a>
</g>
</g>
<!-- Node1&#45;&gt;Node2 -->
<g id="edge1" class="edge"><title>Node1&#45;&gt;Node2</title>
<path fill="none" stroke="midnightblue" d="M103.501,-77.5C111.93,-77.5 120.537,-77.5 128.717,-77.5"/>
<polygon fill="midnightblue" stroke="midnightblue" points="103.35,-74.0001 93.3499,-77.5 103.35,-81.0001 103.35,-74.0001"/>
</g>
<!-- Node3 -->
<g id="node3" class="node"><title>Node3</title>
<g id="a_node3"><a xlink:href="namespacemexiface_1_1explore.html#a5a5c7c4c0ce2b61c1fe8f55cd7a685c8" target="_top" xlink:title="mexiface::explore::\lanalyze_class">
<polygon fill="white" stroke="black" points="258,-63.5 258,-91.5 351,-91.5 351,-63.5 258,-63.5"/>
<text text-anchor="start" x="266" y="-80.3" font-family="Helvetica,sans-Serif" font-size="9.00">mexiface::explore::</text>
<text text-anchor="middle" x="304.5" y="-70.3" font-family="Helvetica,sans-Serif" font-size="9.00">analyze_class</text>
</a>
</g>
</g>
<!-- Node2&#45;&gt;Node3 -->
<g id="edge2" class="edge"><title>Node2&#45;&gt;Node3</title>
<path fill="none" stroke="midnightblue" d="M232.501,-77.5C240.93,-77.5 249.537,-77.5 257.717,-77.5"/>
<polygon fill="midnightblue" stroke="midnightblue" points="232.35,-74.0001 222.35,-77.5 232.35,-81.0001 232.35,-74.0001"/>
</g>
<!-- Node4 -->
<g id="node4" class="node"><title>Node4</title>
<g id="a_node4"><a xlink:href="namespacemexiface_1_1explore.html#a2fd795aab0989018a48cfce5b8f63719" target="_top" xlink:title="mexiface::explore::\lanalyze_cell">
<polygon fill="white" stroke="black" points="403,-110.5 403,-138.5 496,-138.5 496,-110.5 403,-110.5"/>
<text text-anchor="start" x="411" y="-127.3" font-family="Helvetica,sans-Serif" font-size="9.00">mexiface::explore::</text>
<text text-anchor="middle" x="449.5" y="-117.3" font-family="Helvetica,sans-Serif" font-size="9.00">analyze_cell</text>
</a>
</g>
</g>
<!-- Node3&#45;&gt;Node4 -->
<g id="edge3" class="edge"><title>Node3&#45;&gt;Node4</title>
<path fill="none" stroke="midnightblue" d="M360.936,-89.1239C381.928,-95.6155 404.869,-103.56 422.002,-110.408"/>
<polygon fill="midnightblue" stroke="midnightblue" points="361.724,-85.7059 351.139,-86.1591 359.697,-92.4058 361.724,-85.7059"/>
</g>
<!-- Node5 -->
<g id="node5" class="node"><title>Node5</title>
<g id="a_node5"><a xlink:href="namespacemexiface_1_1explore.html#a6205a96e991f64a98345df5645dd0ba5" target="_top" xlink:title="mexiface::explore::\lanalyze_structure">
<polygon fill="white" stroke="black" points="403,-63.5 403,-91.5 496,-91.5 496,-63.5 403,-63.5"/>
<text text-anchor="start" x="411" y="-80.3" font-family="Helvetica,sans-Serif" font-size="9.00">mexiface::explore::</text>
<text text-anchor="middle" x="449.5" y="-70.3" font-family="Helvetica,sans-Serif" font-size="9.00">analyze_structure</text>
</a>
</g>
</g>
<!-- Node3&#45;&gt;Node5 -->
<g id="edge5" class="edge"><title>Node3&#45;&gt;Node5</title>
<path fill="none" stroke="midnightblue" d="M361.428,-70.8943C375.134,-70.6365 389.643,-70.7241 402.804,-71.1569"/>
<polygon fill="midnightblue" stroke="midnightblue" points="361.046,-67.4029 351.139,-71.1588 361.226,-74.4006 361.046,-67.4029"/>
</g>
<!-- Node6 -->
<g id="node6" class="node"><title>Node6</title>
<g id="a_node6"><a xlink:href="namespacemexiface.html#ae54146cf35d29dcc6c83a8ca96b62549" target="_top" xlink:title="Given the arguments to a matlab mex function call, print out the details of each arguments. ">
<polygon fill="white" stroke="black" points="387,-26.5 387,-44.5 512,-44.5 512,-26.5 387,-26.5"/>
<text text-anchor="middle" x="449.5" y="-33.3" font-family="Helvetica,sans-Serif" font-size="9.00">mexiface::exploreMexArgs</text>
</a>
</g>
</g>
<!-- Node3&#45;&gt;Node6 -->
<g id="edge7" class="edge"><title>Node3&#45;&gt;Node6</title>
<path fill="none" stroke="midnightblue" d="M360.768,-61.2673C380.107,-55.5875 401.118,-49.4165 417.728,-44.5379"/>
<polygon fill="midnightblue" stroke="midnightblue" points="359.748,-57.9192 351.139,-64.0955 361.72,-64.6355 359.748,-57.9192"/>
</g>
<!-- Node4&#45;&gt;Node3 -->
<g id="edge4" class="edge"><title>Node4&#45;&gt;Node3</title>
<path fill="none" stroke="midnightblue" d="M393.165,-112.907C372.171,-106.418 349.215,-98.4709 332.062,-91.6181"/>
<polygon fill="midnightblue" stroke="midnightblue" points="392.376,-116.325 402.961,-115.87 394.402,-109.625 392.376,-116.325"/>
</g>
<!-- Node5&#45;&gt;Node3 -->
<g id="edge6" class="edge"><title>Node5&#45;&gt;Node3</title>
<path fill="none" stroke="midnightblue" d="M392.512,-84.1068C378.804,-84.3636 364.297,-84.2751 351.139,-83.8412"/>
<polygon fill="midnightblue" stroke="midnightblue" points="392.897,-87.5982 402.804,-83.8431 392.717,-80.6005 392.897,-87.5982"/>
</g>
<!-- Node7 -->
<g id="node7" class="node"><title>Node7</title>
<g id="a_node7"><a xlink:href="namespacemexiface.html#a54c9b82ac7205b64d9725bd8115614a4" target="_top" xlink:title="Templated function to returns the matlab mxClassID for given C++ data type. ">
<polygon fill="white" stroke="black" points="548,-47.5 548,-65.5 662,-65.5 662,-47.5 548,-47.5"/>
<text text-anchor="middle" x="605" y="-54.3" font-family="Helvetica,sans-Serif" font-size="9.00">mexiface::get_mx_class</text>
</a>
</g>
</g>
<!-- Node6&#45;&gt;Node7 -->
<g id="edge8" class="edge"><title>Node6&#45;&gt;Node7</title>
<path fill="none" stroke="midnightblue" d="M522.136,-45.3004C530.785,-46.4836 539.52,-47.6787 547.901,-48.8252"/>
<polygon fill="midnightblue" stroke="midnightblue" points="522.432,-41.8083 512.05,-43.9205 521.483,-48.7437 522.432,-41.8083"/>
</g>
<!-- Node8 -->
<g id="node8" class="node"><title>Node8</title>
<g id="a_node8"><a xlink:href="classmexiface_1_1MexIFace.html#a17f0280024d7cdd318b13223174b6151" target="_top" xlink:title="The mexFunction that will be exposed as the entry point for the .mex file. ">
<polygon fill="white" stroke="black" points="556,-0.5 556,-28.5 654,-28.5 654,-0.5 556,-0.5"/>
<text text-anchor="start" x="564" y="-17.3" font-family="Helvetica,sans-Serif" font-size="9.00">mexiface::MexIFace</text>
<text text-anchor="middle" x="605" y="-7.3" font-family="Helvetica,sans-Serif" font-size="9.00">::mexFunction</text>
</a>
</g>
</g>
<!-- Node6&#45;&gt;Node8 -->
<g id="edge9" class="edge"><title>Node6&#45;&gt;Node8</title>
<path fill="none" stroke="midnightblue" d="M522.005,-25.7176C533.408,-24.1576 544.966,-22.5764 555.665,-21.1126"/>
<polygon fill="midnightblue" stroke="midnightblue" points="521.483,-22.2563 512.05,-27.0795 522.432,-29.1917 521.483,-22.2563"/>
</g>
</g>
</svg>
