<?xml version="1.0" encoding="UTF-8" standalone="no"?>
<!DOCTYPE svg PUBLIC "-//W3C//DTD SVG 1.1//EN"
 "http://www.w3.org/Graphics/SVG/1.1/DTD/svg11.dtd">
<!-- Generated by graphviz version 2.38.0 (20140413.2041)
 -->
<!-- Title: mexiface::explore::analyze_class Pages: 1 -->
<svg width="488pt" height="687pt"
 viewBox="0.00 0.00 488.00 687.00" xmlns="http://www.w3.org/2000/svg" xmlns:xlink="http://www.w3.org/1999/xlink">
<g id="graph0" class="graph" transform="scale(1 1) rotate(0) translate(4 683)">
<title>mexiface::explore::analyze_class</title>
<polygon fill="white" stroke="none" points="-4,4 -4,-683 484,-683 484,4 -4,4"/>
<!-- Node1 -->
<g id="node1" class="node"><title>Node1</title>
<polygon fill="#bfbfbf" stroke="black" points="0,-141.5 0,-169.5 93,-169.5 93,-141.5 0,-141.5"/>
<text text-anchor="start" x="8" y="-158.3" font-family="Helvetica,sans-Serif" font-size="9.00">mexiface::explore::</text>
<text text-anchor="middle" x="46.5" y="-148.3" font-family="Helvetica,sans-Serif" font-size="9.00">analyze_class</text>
</g>
<!-- Node2 -->
<g id="node2" class="node"><title>Node2</title>
<g id="a_node2"><a xlink:href="namespacemexiface_1_1explore.html#a2fd795aab0989018a48cfce5b8f63719" target="_top" xlink:title="mexiface::explore::\lanalyze_cell">
<polygon fill="white" stroke="black" points="129,-141.5 129,-169.5 222,-169.5 222,-141.5 129,-141.5"/>
<text text-anchor="start" x="137" y="-158.3" font-family="Helvetica,sans-Serif" font-size="9.00">mexiface::explore::</text>
<text text-anchor="middle" x="175.5" y="-148.3" font-family="Helvetica,sans-Serif" font-size="9.00">analyze_cell</text>
</a>
</g>
</g>
<!-- Node1&#45;&gt;Node2 -->
<g id="edge1" class="edge"><title>Node1&#45;&gt;Node2</title>
<path fill="none" stroke="midnightblue" d="M93.3499,-148.987C101.533,-148.762 110.141,-148.697 118.568,-148.793"/>
<polygon fill="midnightblue" stroke="midnightblue" points="118.652,-152.295 128.717,-148.989 118.787,-145.296 118.652,-152.295"/>
</g>
<!-- Node5 -->
<g id="node5" class="node"><title>Node5</title>
<g id="a_node5"><a xlink:href="namespacemexiface_1_1explore.html#aad11efd374cd1c241da644051e4d3479" target="_top" xlink:title="mexiface::explore::\lanalyze_full">
<polygon fill="white" stroke="black" points="129,-415.5 129,-443.5 222,-443.5 222,-415.5 129,-415.5"/>
<text text-anchor="start" x="137" y="-432.3" font-family="Helvetica,sans-Serif" font-size="9.00">mexiface::explore::</text>
<text text-anchor="middle" x="175.5" y="-422.3" font-family="Helvetica,sans-Serif" font-size="9.00">analyze_full</text>
</a>
</g>
</g>
<!-- Node1&#45;&gt;Node5 -->
<g id="edge5" class="edge"><title>Node1&#45;&gt;Node5</title>
<path fill="none" stroke="midnightblue" d="M54.1493,-169.846C74.8095,-214.42 138.032,-350.821 163.599,-405.982"/>
<polygon fill="midnightblue" stroke="midnightblue" points="160.536,-407.695 167.917,-415.296 166.887,-404.752 160.536,-407.695"/>
</g>
<!-- Node16 -->
<g id="node16" class="node"><title>Node16</title>
<g id="a_node16"><a xlink:href="namespacemexiface_1_1explore.html#ae6d95ef17338c9baa90e1ce1c3e33d0f" target="_top" xlink:title="mexiface::explore::\lanalyze_logical">
<polygon fill="white" stroke="black" points="129,-47.5 129,-75.5 222,-75.5 222,-47.5 129,-47.5"/>
<text text-anchor="start" x="137" y="-64.3" font-family="Helvetica,sans-Serif" font-size="9.00">mexiface::explore::</text>
<text text-anchor="middle" x="175.5" y="-54.3" font-family="Helvetica,sans-Serif" font-size="9.00">analyze_logical</text>
</a>
</g>
</g>
<!-- Node1&#45;&gt;Node16 -->
<g id="edge26" class="edge"><title>Node1&#45;&gt;Node16</title>
<path fill="none" stroke="midnightblue" d="M61.6194,-141.239C77.201,-125.988 103.468,-101.682 129,-84.5 130.909,-83.2152 132.9,-81.9541 134.936,-80.7251"/>
<polygon fill="midnightblue" stroke="midnightblue" points="137.063,-83.5427 144.04,-75.5692 133.614,-77.4517 137.063,-83.5427"/>
</g>
<!-- Node17 -->
<g id="node17" class="node"><title>Node17</title>
<g id="a_node17"><a xlink:href="namespacemexiface_1_1explore.html#a44ef87dec50add577651cf82ea3c8874" target="_top" xlink:title="mexiface::explore::\lanalyze_sparse">
<polygon fill="white" stroke="black" points="129,-94.5 129,-122.5 222,-122.5 222,-94.5 129,-94.5"/>
<text text-anchor="start" x="137" y="-111.3" font-family="Helvetica,sans-Serif" font-size="9.00">mexiface::explore::</text>
<text text-anchor="middle" x="175.5" y="-101.3" font-family="Helvetica,sans-Serif" font-size="9.00">analyze_sparse</text>
</a>
</g>
</g>
<!-- Node1&#45;&gt;Node17 -->
<g id="edge28" class="edge"><title>Node1&#45;&gt;Node17</title>
<path fill="none" stroke="midnightblue" d="M85.6042,-141.398C98.5388,-136.612 113.156,-131.202 126.747,-126.172"/>
<polygon fill="midnightblue" stroke="midnightblue" points="128.259,-129.345 136.423,-122.592 125.83,-122.78 128.259,-129.345"/>
</g>
<!-- Node18 -->
<g id="node18" class="node"><title>Node18</title>
<g id="a_node18"><a xlink:href="namespacemexiface_1_1explore.html#aaa319b6e0131959ff3d2fbd9a4c368b3" target="_top" xlink:title="mexiface::explore::\lanalyze_string">
<polygon fill="white" stroke="black" points="129,-0.5 129,-28.5 222,-28.5 222,-0.5 129,-0.5"/>
<text text-anchor="start" x="137" y="-17.3" font-family="Helvetica,sans-Serif" font-size="9.00">mexiface::explore::</text>
<text text-anchor="middle" x="175.5" y="-7.3" font-family="Helvetica,sans-Serif" font-size="9.00">analyze_string</text>
</a>
</g>
</g>
<!-- Node1&#45;&gt;Node18 -->
<g id="edge29" class="edge"><title>Node1&#45;&gt;Node18</title>
<path fill="none" stroke="midnightblue" d="M54.2293,-141.458C66.3059,-117.482 93.7236,-68.2651 129,-37.5 130.284,-36.3801 131.632,-35.2986 133.028,-34.256"/>
<polygon fill="midnightblue" stroke="midnightblue" points="135.003,-37.1457 141.419,-28.7144 131.146,-31.3045 135.003,-37.1457"/>
</g>
<!-- Node19 -->
<g id="node19" class="node"><title>Node19</title>
<g id="a_node19"><a xlink:href="namespacemexiface_1_1explore.html#a6205a96e991f64a98345df5645dd0ba5" target="_top" xlink:title="mexiface::explore::\lanalyze_structure">
<polygon fill="white" stroke="black" points="129,-188.5 129,-216.5 222,-216.5 222,-188.5 129,-188.5"/>
<text text-anchor="start" x="137" y="-205.3" font-family="Helvetica,sans-Serif" font-size="9.00">mexiface::explore::</text>
<text text-anchor="middle" x="175.5" y="-195.3" font-family="Helvetica,sans-Serif" font-size="9.00">analyze_structure</text>
</a>
</g>
</g>
<!-- Node1&#45;&gt;Node19 -->
<g id="edge31" class="edge"><title>Node1&#45;&gt;Node19</title>
<path fill="none" stroke="midnightblue" d="M93.3499,-165.955C109.436,-171.465 127.164,-178.203 141.936,-184.468"/>
<polygon fill="midnightblue" stroke="midnightblue" points="140.604,-187.706 151.169,-188.499 143.405,-181.29 140.604,-187.706"/>
</g>
<!-- Node2&#45;&gt;Node1 -->
<g id="edge2" class="edge"><title>Node2&#45;&gt;Node1</title>
<path fill="none" stroke="midnightblue" d="M128.717,-162.011C120.537,-162.237 111.93,-162.303 103.501,-162.208"/>
<polygon fill="midnightblue" stroke="midnightblue" points="103.415,-158.706 93.3499,-162.013 103.281,-165.704 103.415,-158.706"/>
</g>
<!-- Node3 -->
<g id="node3" class="node"><title>Node3</title>
<g id="a_node3"><a xlink:href="namespacemexiface_1_1explore.html#ad41bff4081494e68399068077d57f1ea" target="_top" xlink:title="mexiface::explore::\ldisplay_subscript">
<polygon fill="white" stroke="black" points="387,-344.5 387,-372.5 480,-372.5 480,-344.5 387,-344.5"/>
<text text-anchor="start" x="395" y="-361.3" font-family="Helvetica,sans-Serif" font-size="9.00">mexiface::explore::</text>
<text text-anchor="middle" x="433.5" y="-351.3" font-family="Helvetica,sans-Serif" font-size="9.00">display_subscript</text>
</a>
</g>
</g>
<!-- Node2&#45;&gt;Node3 -->
<g id="edge3" class="edge"><title>Node2&#45;&gt;Node3</title>
<path fill="none" stroke="midnightblue" d="M202.828,-141.451C239.507,-124.018 306.479,-100.181 351,-131.5 417.882,-178.549 430.15,-285.914 432.208,-334.193"/>
<polygon fill="midnightblue" stroke="midnightblue" points="428.714,-334.456 432.524,-344.343 435.711,-334.239 428.714,-334.456"/>
</g>
<!-- Node4 -->
<g id="node4" class="node"><title>Node4</title>
<g id="a_node4"><a xlink:href="namespacemexiface_1_1explore.html#af20e073842721a53872d786a38f401fe" target="_top" xlink:title="mexiface::explore::\lget_characteristics">
<polygon fill="white" stroke="black" points="258,-141.5 258,-169.5 351,-169.5 351,-141.5 258,-141.5"/>
<text text-anchor="start" x="266" y="-158.3" font-family="Helvetica,sans-Serif" font-size="9.00">mexiface::explore::</text>
<text text-anchor="middle" x="304.5" y="-148.3" font-family="Helvetica,sans-Serif" font-size="9.00">get_characteristics</text>
</a>
</g>
</g>
<!-- Node2&#45;&gt;Node4 -->
<g id="edge4" class="edge"><title>Node2&#45;&gt;Node4</title>
<path fill="none" stroke="midnightblue" d="M222.35,-155.5C230.533,-155.5 239.141,-155.5 247.568,-155.5"/>
<polygon fill="midnightblue" stroke="midnightblue" points="247.717,-159 257.717,-155.5 247.717,-152 247.717,-159"/>
</g>
<!-- Node6 -->
<g id="node6" class="node"><title>Node6</title>
<g id="a_node6"><a xlink:href="namespacemexiface_1_1explore.html#abbbd19941bd43d361d33e21fb0dadbae" target="_top" xlink:title="mexiface::explore::\lanalyze_int8">
<polygon fill="white" stroke="black" points="258,-415.5 258,-443.5 351,-443.5 351,-415.5 258,-415.5"/>
<text text-anchor="start" x="266" y="-432.3" font-family="Helvetica,sans-Serif" font-size="9.00">mexiface::explore::</text>
<text text-anchor="middle" x="304.5" y="-422.3" font-family="Helvetica,sans-Serif" font-size="9.00">analyze_int8</text>
</a>
</g>
</g>
<!-- Node5&#45;&gt;Node6 -->
<g id="edge6" class="edge"><title>Node5&#45;&gt;Node6</title>
<path fill="none" stroke="midnightblue" d="M222.35,-429.5C230.533,-429.5 239.141,-429.5 247.568,-429.5"/>
<polygon fill="midnightblue" stroke="midnightblue" points="247.717,-433 257.717,-429.5 247.717,-426 247.717,-433"/>
</g>
<!-- Node7 -->
<g id="node7" class="node"><title>Node7</title>
<g id="a_node7"><a xlink:href="namespacemexiface_1_1explore.html#ae0e1687942c1e218a665eedeadc63456" target="_top" xlink:title="mexiface::explore::\lanalyze_uint8">
<polygon fill="white" stroke="black" points="258,-368.5 258,-396.5 351,-396.5 351,-368.5 258,-368.5"/>
<text text-anchor="start" x="266" y="-385.3" font-family="Helvetica,sans-Serif" font-size="9.00">mexiface::explore::</text>
<text text-anchor="middle" x="304.5" y="-375.3" font-family="Helvetica,sans-Serif" font-size="9.00">analyze_uint8</text>
</a>
</g>
</g>
<!-- Node5&#45;&gt;Node7 -->
<g id="edge8" class="edge"><title>Node5&#45;&gt;Node7</title>
<path fill="none" stroke="midnightblue" d="M214.604,-415.398C227.539,-410.612 242.156,-405.202 255.747,-400.172"/>
<polygon fill="midnightblue" stroke="midnightblue" points="257.259,-403.345 265.423,-396.592 254.83,-396.78 257.259,-403.345"/>
</g>
<!-- Node8 -->
<g id="node8" class="node"><title>Node8</title>
<g id="a_node8"><a xlink:href="namespacemexiface_1_1explore.html#a2c3a4139675fbbf8ca7ab0f92d6f11fd" target="_top" xlink:title="mexiface::explore::\lanalyze_int16">
<polygon fill="white" stroke="black" points="258,-321.5 258,-349.5 351,-349.5 351,-321.5 258,-321.5"/>
<text text-anchor="start" x="266" y="-338.3" font-family="Helvetica,sans-Serif" font-size="9.00">mexiface::explore::</text>
<text text-anchor="middle" x="304.5" y="-328.3" font-family="Helvetica,sans-Serif" font-size="9.00">analyze_int16</text>
</a>
</g>
</g>
<!-- Node5&#45;&gt;Node8 -->
<g id="edge10" class="edge"><title>Node5&#45;&gt;Node8</title>
<path fill="none" stroke="midnightblue" d="M191.001,-415.27C206.697,-400.306 232.865,-376.604 258,-359.5 260.503,-357.796 263.142,-356.123 265.836,-354.502"/>
<polygon fill="midnightblue" stroke="midnightblue" points="267.588,-357.532 274.531,-349.528 264.112,-351.456 267.588,-357.532"/>
</g>
<!-- Node9 -->
<g id="node9" class="node"><title>Node9</title>
<g id="a_node9"><a xlink:href="namespacemexiface_1_1explore.html#aa1951af918bc0b264d05f2db4fbec9e1" target="_top" xlink:title="mexiface::explore::\lanalyze_uint16">
<polygon fill="white" stroke="black" points="258,-274.5 258,-302.5 351,-302.5 351,-274.5 258,-274.5"/>
<text text-anchor="start" x="266" y="-291.3" font-family="Helvetica,sans-Serif" font-size="9.00">mexiface::explore::</text>
<text text-anchor="middle" x="304.5" y="-281.3" font-family="Helvetica,sans-Serif" font-size="9.00">analyze_uint16</text>
</a>
</g>
</g>
<!-- Node5&#45;&gt;Node9 -->
<g id="edge12" class="edge"><title>Node5&#45;&gt;Node9</title>
<path fill="none" stroke="midnightblue" d="M183.512,-415.265C195.816,-391.456 223.316,-343.159 258,-312.5 259.685,-311.01 261.48,-309.581 263.345,-308.216"/>
<polygon fill="midnightblue" stroke="midnightblue" points="265.411,-311.046 271.861,-302.641 261.577,-305.189 265.411,-311.046"/>
</g>
<!-- Node10 -->
<g id="node10" class="node"><title>Node10</title>
<g id="a_node10"><a xlink:href="namespacemexiface_1_1explore.html#ad8657b3604a735ef428823cdf0a72722" target="_top" xlink:title="mexiface::explore::\lanalyze_int32">
<polygon fill="white" stroke="black" points="258,-227.5 258,-255.5 351,-255.5 351,-227.5 258,-227.5"/>
<text text-anchor="start" x="266" y="-244.3" font-family="Helvetica,sans-Serif" font-size="9.00">mexiface::explore::</text>
<text text-anchor="middle" x="304.5" y="-234.3" font-family="Helvetica,sans-Serif" font-size="9.00">analyze_int32</text>
</a>
</g>
</g>
<!-- Node5&#45;&gt;Node10 -->
<g id="edge14" class="edge"><title>Node5&#45;&gt;Node10</title>
<path fill="none" stroke="midnightblue" d="M180.249,-415.463C189.072,-384.761 213.805,-310.777 258,-265.5 259.244,-264.226 260.57,-263.005 261.958,-261.836"/>
<polygon fill="midnightblue" stroke="midnightblue" points="264.383,-264.402 270.442,-255.71 260.285,-258.726 264.383,-264.402"/>
</g>
<!-- Node11 -->
<g id="node11" class="node"><title>Node11</title>
<g id="a_node11"><a xlink:href="namespacemexiface_1_1explore.html#aa0ebed3704023f9816e91293c9c08253" target="_top" xlink:title="mexiface::explore::\lanalyze_uint32">
<polygon fill="white" stroke="black" points="258,-650.5 258,-678.5 351,-678.5 351,-650.5 258,-650.5"/>
<text text-anchor="start" x="266" y="-667.3" font-family="Helvetica,sans-Serif" font-size="9.00">mexiface::explore::</text>
<text text-anchor="middle" x="304.5" y="-657.3" font-family="Helvetica,sans-Serif" font-size="9.00">analyze_uint32</text>
</a>
</g>
</g>
<!-- Node5&#45;&gt;Node11 -->
<g id="edge16" class="edge"><title>Node5&#45;&gt;Node11</title>
<path fill="none" stroke="midnightblue" d="M178.38,-443.706C183.952,-480.685 203.535,-581.236 258,-641.5 258.868,-642.46 259.785,-643.386 260.743,-644.278"/>
<polygon fill="midnightblue" stroke="midnightblue" points="258.696,-647.119 268.748,-650.467 262.978,-641.581 258.696,-647.119"/>
</g>
<!-- Node12 -->
<g id="node12" class="node"><title>Node12</title>
<g id="a_node12"><a xlink:href="namespacemexiface_1_1explore.html#a7025633935ccc85550b308e70b0fc771" target="_top" xlink:title="mexiface::explore::\lanalyze_int64">
<polygon fill="white" stroke="black" points="258,-603.5 258,-631.5 351,-631.5 351,-603.5 258,-603.5"/>
<text text-anchor="start" x="266" y="-620.3" font-family="Helvetica,sans-Serif" font-size="9.00">mexiface::explore::</text>
<text text-anchor="middle" x="304.5" y="-610.3" font-family="Helvetica,sans-Serif" font-size="9.00">analyze_int64</text>
</a>
</g>
</g>
<!-- Node5&#45;&gt;Node12 -->
<g id="edge18" class="edge"><title>Node5&#45;&gt;Node12</title>
<path fill="none" stroke="midnightblue" d="M180.167,-443.68C188.825,-474.684 213.25,-549.335 258,-594.5 259.051,-595.561 260.162,-596.582 261.319,-597.564"/>
<polygon fill="midnightblue" stroke="midnightblue" points="259.348,-600.458 269.503,-603.48 263.449,-594.785 259.348,-600.458"/>
</g>
<!-- Node13 -->
<g id="node13" class="node"><title>Node13</title>
<g id="a_node13"><a xlink:href="namespacemexiface_1_1explore.html#abe63c53129e4d37e66af71c8f66d9ae6" target="_top" xlink:title="mexiface::explore::\lanalyze_uint64">
<polygon fill="white" stroke="black" points="258,-556.5 258,-584.5 351,-584.5 351,-556.5 258,-556.5"/>
<text text-anchor="start" x="266" y="-573.3" font-family="Helvetica,sans-Serif" font-size="9.00">mexiface::explore::</text>
<text text-anchor="middle" x="304.5" y="-563.3" font-family="Helvetica,sans-Serif" font-size="9.00">analyze_uint64</text>
</a>
</g>
</g>
<!-- Node5&#45;&gt;Node13 -->
<g id="edge20" class="edge"><title>Node5&#45;&gt;Node13</title>
<path fill="none" stroke="midnightblue" d="M183.229,-443.542C195.306,-467.518 222.724,-516.735 258,-547.5 259.284,-548.62 260.632,-549.701 262.028,-550.744"/>
<polygon fill="midnightblue" stroke="midnightblue" points="260.146,-553.695 270.419,-556.286 264.003,-547.854 260.146,-553.695"/>
</g>
<!-- Node14 -->
<g id="node14" class="node"><title>Node14</title>
<g id="a_node14"><a xlink:href="namespacemexiface_1_1explore.html#acaf0a238e5467e317ae037a966647626" target="_top" xlink:title="mexiface::explore::\lanalyze_single">
<polygon fill="white" stroke="black" points="258,-509.5 258,-537.5 351,-537.5 351,-509.5 258,-509.5"/>
<text text-anchor="start" x="266" y="-526.3" font-family="Helvetica,sans-Serif" font-size="9.00">mexiface::explore::</text>
<text text-anchor="middle" x="304.5" y="-516.3" font-family="Helvetica,sans-Serif" font-size="9.00">analyze_single</text>
</a>
</g>
</g>
<!-- Node5&#45;&gt;Node14 -->
<g id="edge22" class="edge"><title>Node5&#45;&gt;Node14</title>
<path fill="none" stroke="midnightblue" d="M190.619,-443.761C206.201,-459.012 232.468,-483.318 258,-500.5 259.909,-501.785 261.9,-503.046 263.936,-504.275"/>
<polygon fill="midnightblue" stroke="midnightblue" points="262.614,-507.548 273.04,-509.431 266.063,-501.457 262.614,-507.548"/>
</g>
<!-- Node15 -->
<g id="node15" class="node"><title>Node15</title>
<g id="a_node15"><a xlink:href="namespacemexiface_1_1explore.html#a3b7a85eeb040efe041ae992581c3861b" target="_top" xlink:title="mexiface::explore::\lanalyze_double">
<polygon fill="white" stroke="black" points="258,-462.5 258,-490.5 351,-490.5 351,-462.5 258,-462.5"/>
<text text-anchor="start" x="266" y="-479.3" font-family="Helvetica,sans-Serif" font-size="9.00">mexiface::explore::</text>
<text text-anchor="middle" x="304.5" y="-469.3" font-family="Helvetica,sans-Serif" font-size="9.00">analyze_double</text>
</a>
</g>
</g>
<!-- Node5&#45;&gt;Node15 -->
<g id="edge24" class="edge"><title>Node5&#45;&gt;Node15</title>
<path fill="none" stroke="midnightblue" d="M214.604,-443.602C227.539,-448.388 242.156,-453.798 255.747,-458.828"/>
<polygon fill="midnightblue" stroke="midnightblue" points="254.83,-462.22 265.423,-462.408 257.259,-455.655 254.83,-462.22"/>
</g>
<!-- Node6&#45;&gt;Node3 -->
<g id="edge7" class="edge"><title>Node6&#45;&gt;Node3</title>
<path fill="none" stroke="midnightblue" d="M334.044,-415.424C339.698,-412.537 345.563,-409.471 351,-406.5 367.587,-397.435 385.735,-386.818 400.687,-377.877"/>
<polygon fill="midnightblue" stroke="midnightblue" points="402.773,-380.706 409.541,-372.555 399.167,-374.707 402.773,-380.706"/>
</g>
<!-- Node7&#45;&gt;Node3 -->
<g id="edge9" class="edge"><title>Node7&#45;&gt;Node3</title>
<path fill="none" stroke="midnightblue" d="M351.35,-373.835C359.623,-372.272 368.33,-370.627 376.846,-369.017"/>
<polygon fill="midnightblue" stroke="midnightblue" points="377.541,-372.448 386.717,-367.152 376.241,-365.57 377.541,-372.448"/>
</g>
<!-- Node8&#45;&gt;Node3 -->
<g id="edge11" class="edge"><title>Node8&#45;&gt;Node3</title>
<path fill="none" stroke="midnightblue" d="M351.35,-343.804C359.623,-345.302 368.33,-346.879 376.846,-348.421"/>
<polygon fill="midnightblue" stroke="midnightblue" points="376.254,-351.871 386.717,-350.209 377.501,-344.983 376.254,-351.871"/>
</g>
<!-- Node9&#45;&gt;Node3 -->
<g id="edge13" class="edge"><title>Node9&#45;&gt;Node3</title>
<path fill="none" stroke="midnightblue" d="M332.514,-302.587C338.612,-305.812 345.042,-309.248 351,-312.5 366.944,-321.202 384.505,-331.077 399.231,-339.44"/>
<polygon fill="midnightblue" stroke="midnightblue" points="397.571,-342.522 407.993,-344.428 401.034,-336.439 397.571,-342.522"/>
</g>
<!-- Node10&#45;&gt;Node3 -->
<g id="edge15" class="edge"><title>Node10&#45;&gt;Node3</title>
<path fill="none" stroke="midnightblue" d="M335.841,-255.501C341.108,-258.483 346.374,-261.848 351,-265.5 377.127,-286.127 401.503,-315.884 416.664,-336.145"/>
<polygon fill="midnightblue" stroke="midnightblue" points="414.026,-338.466 422.766,-344.455 419.669,-334.323 414.026,-338.466"/>
</g>
<!-- Node11&#45;&gt;Node3 -->
<g id="edge17" class="edge"><title>Node11&#45;&gt;Node3</title>
<path fill="none" stroke="midnightblue" d="M340.988,-650.411C344.722,-647.863 348.178,-644.909 351,-641.5 415.842,-563.188 429.124,-435.78 431.823,-382.802"/>
<polygon fill="midnightblue" stroke="midnightblue" points="435.326,-382.811 432.253,-372.671 428.332,-382.514 435.326,-382.811"/>
</g>
<!-- Node12&#45;&gt;Node3 -->
<g id="edge19" class="edge"><title>Node12&#45;&gt;Node3</title>
<path fill="none" stroke="midnightblue" d="M340.817,-603.266C344.581,-600.743 348.09,-597.834 351,-594.5 406.154,-531.315 424.493,-428.826 430.16,-382.541"/>
<polygon fill="midnightblue" stroke="midnightblue" points="433.645,-382.872 431.292,-372.542 426.69,-382.085 433.645,-382.872"/>
</g>
<!-- Node13&#45;&gt;Node3 -->
<g id="edge21" class="edge"><title>Node13&#45;&gt;Node3</title>
<path fill="none" stroke="midnightblue" d="M340.122,-556.347C344.096,-553.791 347.846,-550.852 351,-547.5 396.435,-499.21 418.823,-421.629 427.704,-382.588"/>
<polygon fill="midnightblue" stroke="midnightblue" points="431.159,-383.17 429.858,-372.655 424.318,-381.686 431.159,-383.17"/>
</g>
<!-- Node14&#45;&gt;Node3 -->
<g id="edge23" class="edge"><title>Node14&#45;&gt;Node3</title>
<path fill="none" stroke="midnightblue" d="M339.303,-509.282C343.502,-506.714 347.532,-503.789 351,-500.5 386.948,-466.408 411.726,-412.915 423.879,-382.242"/>
<polygon fill="midnightblue" stroke="midnightblue" points="427.197,-383.366 427.515,-372.776 420.662,-380.856 427.197,-383.366"/>
</g>
<!-- Node15&#45;&gt;Node3 -->
<g id="edge25" class="edge"><title>Node15&#45;&gt;Node3</title>
<path fill="none" stroke="midnightblue" d="M337.324,-462.46C342.101,-459.781 346.821,-456.777 351,-453.5 377.786,-432.501 402.303,-401.637 417.3,-380.839"/>
<polygon fill="midnightblue" stroke="midnightblue" points="420.21,-382.786 423.124,-372.6 414.494,-378.746 420.21,-382.786"/>
</g>
<!-- Node16&#45;&gt;Node3 -->
<g id="edge27" class="edge"><title>Node16&#45;&gt;Node3</title>
<path fill="none" stroke="midnightblue" d="M222.022,-63.3779C261.071,-67.3754 316.365,-79.0757 351,-112.5 414.374,-173.658 428.482,-285.122 431.613,-334.2"/>
<polygon fill="midnightblue" stroke="midnightblue" points="428.133,-334.681 432.163,-344.48 435.123,-334.307 428.133,-334.681"/>
</g>
<!-- Node18&#45;&gt;Node3 -->
<g id="edge30" class="edge"><title>Node18&#45;&gt;Node3</title>
<path fill="none" stroke="midnightblue" d="M222.039,-15.9335C261.372,-19.6271 317.077,-31.1314 351,-65.5 425.431,-140.908 433.251,-278.135 433.155,-333.927"/>
<polygon fill="midnightblue" stroke="midnightblue" points="429.652,-334.214 433.041,-344.251 436.651,-334.291 429.652,-334.214"/>
</g>
<!-- Node19&#45;&gt;Node1 -->
<g id="edge34" class="edge"><title>Node19&#45;&gt;Node1</title>
<path fill="none" stroke="midnightblue" d="M128.923,-192.138C112.867,-186.646 95.1455,-179.918 80.3463,-173.651"/>
<polygon fill="midnightblue" stroke="midnightblue" points="81.6557,-170.404 71.0901,-169.618 78.8594,-176.821 81.6557,-170.404"/>
</g>
<!-- Node19&#45;&gt;Node3 -->
<g id="edge32" class="edge"><title>Node19&#45;&gt;Node3</title>
<path fill="none" stroke="midnightblue" d="M222.055,-195.467C259.569,-192.094 312.636,-193.114 351,-217.5 393.417,-244.462 416.223,-301.966 426.201,-334.596"/>
<polygon fill="midnightblue" stroke="midnightblue" points="422.853,-335.616 428.999,-344.245 429.576,-333.666 422.853,-335.616"/>
</g>
<!-- Node19&#45;&gt;Node4 -->
<g id="edge33" class="edge"><title>Node19&#45;&gt;Node4</title>
<path fill="none" stroke="midnightblue" d="M214.604,-188.398C227.539,-183.612 242.156,-178.202 255.747,-173.172"/>
<polygon fill="midnightblue" stroke="midnightblue" points="257.259,-176.345 265.423,-169.592 254.83,-169.78 257.259,-176.345"/>
</g>
</g>
</svg>
