<?xml version="1.0" encoding="UTF-8" standalone="no"?>
<!DOCTYPE svg PUBLIC "-//W3C//DTD SVG 1.1//EN"
 "http://www.w3.org/Graphics/SVG/1.1/DTD/svg11.dtd">
<!-- Generated by graphviz version 2.38.0 (20140413.2041)
 -->
<!-- Title: mexiface::get_mx_class Pages: 1 -->
<svg width="799pt" height="648pt"
 viewBox="0.00 0.00 799.00 648.38" xmlns="http://www.w3.org/2000/svg" xmlns:xlink="http://www.w3.org/1999/xlink">
<g id="graph0" class="graph" transform="scale(1 1) rotate(0) translate(4 644.376)">
<title>mexiface::get_mx_class</title>
<polygon fill="white" stroke="none" points="-4,4 -4,-644.376 795,-644.376 795,4 -4,4"/>
<!-- Node1 -->
<g id="node1" class="node"><title>Node1</title>
<polygon fill="#bfbfbf" stroke="black" points="0,-49.0827 0,-67.0827 114,-67.0827 114,-49.0827 0,-49.0827"/>
<text text-anchor="middle" x="57" y="-55.8827" font-family="Helvetica,sans-Serif" font-size="9.00">mexiface::get_mx_class</text>
</g>
<!-- Node2 -->
<g id="node2" class="node"><title>Node2</title>
<g id="a_node2"><a xlink:href="namespacemexiface.html#ae54146cf35d29dcc6c83a8ca96b62549" target="_top" xlink:title="Given the arguments to a matlab mex function call, print out the details of each arguments. ">
<polygon fill="white" stroke="black" points="150,-49.0827 150,-67.0827 275,-67.0827 275,-49.0827 150,-49.0827"/>
<text text-anchor="middle" x="212.5" y="-55.8827" font-family="Helvetica,sans-Serif" font-size="9.00">mexiface::exploreMexArgs</text>
</a>
</g>
</g>
<!-- Node1&#45;&gt;Node2 -->
<g id="edge1" class="edge"><title>Node1&#45;&gt;Node2</title>
<path fill="none" stroke="midnightblue" d="M114.286,-58.0827C122.498,-58.0827 131.048,-58.0827 139.519,-58.0827"/>
<polygon fill="midnightblue" stroke="midnightblue" points="139.786,-61.5828 149.786,-58.0827 139.786,-54.5828 139.786,-61.5828"/>
</g>
<!-- Node3 -->
<g id="node3" class="node"><title>Node3</title>
<g id="a_node3"><a xlink:href="namespacemexiface_1_1explore.html#a5a5c7c4c0ce2b61c1fe8f55cd7a685c8" target="_top" xlink:title="mexiface::explore::\lanalyze_class">
<polygon fill="white" stroke="black" points="311,-113.083 311,-141.083 404,-141.083 404,-113.083 311,-113.083"/>
<text text-anchor="start" x="319" y="-129.883" font-family="Helvetica,sans-Serif" font-size="9.00">mexiface::explore::</text>
<text text-anchor="middle" x="357.5" y="-119.883" font-family="Helvetica,sans-Serif" font-size="9.00">analyze_class</text>
</a>
</g>
</g>
<!-- Node2&#45;&gt;Node3 -->
<g id="edge2" class="edge"><title>Node2&#45;&gt;Node3</title>
<path fill="none" stroke="midnightblue" d="M232.195,-67.1033C253.96,-77.6056 290.477,-95.2254 318.315,-108.658"/>
<polygon fill="midnightblue" stroke="midnightblue" points="316.862,-111.843 327.389,-113.036 319.904,-105.538 316.862,-111.843"/>
</g>
<!-- Node9 -->
<g id="node9" class="node"><title>Node9</title>
<g id="a_node9"><a xlink:href="namespacemexiface_1_1explore.html#af20e073842721a53872d786a38f401fe" target="_top" xlink:title="mexiface::explore::\lget_characteristics">
<polygon fill="white" stroke="black" points="569,-40.0827 569,-68.0827 662,-68.0827 662,-40.0827 569,-40.0827"/>
<text text-anchor="start" x="577" y="-56.8827" font-family="Helvetica,sans-Serif" font-size="9.00">mexiface::explore::</text>
<text text-anchor="middle" x="615.5" y="-46.8827" font-family="Helvetica,sans-Serif" font-size="9.00">get_characteristics</text>
</a>
</g>
</g>
<!-- Node2&#45;&gt;Node9 -->
<g id="edge37" class="edge"><title>Node2&#45;&gt;Node9</title>
<path fill="none" stroke="midnightblue" d="M234.728,-48.9958C286.422,-28.1215 422.687,19.3488 533,-9.08274 552.364,-14.0734 572.046,-24.7504 587.217,-34.4519"/>
<polygon fill="midnightblue" stroke="midnightblue" points="585.322,-37.3949 595.591,-40.001 589.188,-31.5597 585.322,-37.3949"/>
</g>
<!-- Node4 -->
<g id="node4" class="node"><title>Node4</title>
<g id="a_node4"><a xlink:href="namespacemexiface_1_1explore.html#a44ef87dec50add577651cf82ea3c8874" target="_top" xlink:title="mexiface::explore::\lanalyze_sparse">
<polygon fill="white" stroke="black" points="440,-66.0827 440,-94.0827 533,-94.0827 533,-66.0827 440,-66.0827"/>
<text text-anchor="start" x="448" y="-82.8827" font-family="Helvetica,sans-Serif" font-size="9.00">mexiface::explore::</text>
<text text-anchor="middle" x="486.5" y="-72.8827" font-family="Helvetica,sans-Serif" font-size="9.00">analyze_sparse</text>
</a>
</g>
</g>
<!-- Node3&#45;&gt;Node4 -->
<g id="edge3" class="edge"><title>Node3&#45;&gt;Node4</title>
<path fill="none" stroke="midnightblue" d="M396.604,-112.981C409.539,-108.194 424.156,-102.785 437.747,-97.7551"/>
<polygon fill="midnightblue" stroke="midnightblue" points="439.259,-100.928 447.423,-94.1743 436.83,-94.3627 439.259,-100.928"/>
</g>
<!-- Node5 -->
<g id="node5" class="node"><title>Node5</title>
<g id="a_node5"><a xlink:href="namespacemexiface_1_1explore.html#ae6d95ef17338c9baa90e1ce1c3e33d0f" target="_top" xlink:title="mexiface::explore::\lanalyze_logical">
<polygon fill="white" stroke="black" points="440,-514.083 440,-542.083 533,-542.083 533,-514.083 440,-514.083"/>
<text text-anchor="start" x="448" y="-530.883" font-family="Helvetica,sans-Serif" font-size="9.00">mexiface::explore::</text>
<text text-anchor="middle" x="486.5" y="-520.883" font-family="Helvetica,sans-Serif" font-size="9.00">analyze_logical</text>
</a>
</g>
</g>
<!-- Node3&#45;&gt;Node5 -->
<g id="edge4" class="edge"><title>Node3&#45;&gt;Node5</title>
<path fill="none" stroke="midnightblue" d="M362.844,-141.306C374.899,-180.725 409.872,-294.691 440,-389.083 452.94,-429.622 468.437,-476.654 477.598,-504.304"/>
<polygon fill="midnightblue" stroke="midnightblue" points="474.31,-505.508 480.78,-513.898 480.954,-503.305 474.31,-505.508"/>
</g>
<!-- Node7 -->
<g id="node7" class="node"><title>Node7</title>
<g id="a_node7"><a xlink:href="namespacemexiface_1_1explore.html#aaa319b6e0131959ff3d2fbd9a4c368b3" target="_top" xlink:title="mexiface::explore::\lanalyze_string">
<polygon fill="white" stroke="black" points="440,-160.083 440,-188.083 533,-188.083 533,-160.083 440,-160.083"/>
<text text-anchor="start" x="448" y="-176.883" font-family="Helvetica,sans-Serif" font-size="9.00">mexiface::explore::</text>
<text text-anchor="middle" x="486.5" y="-166.883" font-family="Helvetica,sans-Serif" font-size="9.00">analyze_string</text>
</a>
</g>
</g>
<!-- Node3&#45;&gt;Node7 -->
<g id="edge6" class="edge"><title>Node3&#45;&gt;Node7</title>
<path fill="none" stroke="midnightblue" d="M396.604,-141.184C409.539,-145.971 424.156,-151.381 437.747,-156.41"/>
<polygon fill="midnightblue" stroke="midnightblue" points="436.83,-159.803 447.423,-159.991 439.259,-153.238 436.83,-159.803"/>
</g>
<!-- Node8 -->
<g id="node8" class="node"><title>Node8</title>
<g id="a_node8"><a xlink:href="namespacemexiface_1_1explore.html#a6205a96e991f64a98345df5645dd0ba5" target="_top" xlink:title="mexiface::explore::\lanalyze_structure">
<polygon fill="white" stroke="black" points="440,-19.0827 440,-47.0827 533,-47.0827 533,-19.0827 440,-19.0827"/>
<text text-anchor="start" x="448" y="-35.8827" font-family="Helvetica,sans-Serif" font-size="9.00">mexiface::explore::</text>
<text text-anchor="middle" x="486.5" y="-25.8827" font-family="Helvetica,sans-Serif" font-size="9.00">analyze_structure</text>
</a>
</g>
</g>
<!-- Node3&#45;&gt;Node8 -->
<g id="edge8" class="edge"><title>Node3&#45;&gt;Node8</title>
<path fill="none" stroke="midnightblue" d="M366.953,-112.883C379.705,-97.0073 405.152,-72.255 431.198,-53.2585"/>
<polygon fill="midnightblue" stroke="midnightblue" points="433.491,-55.925 439.661,-47.3115 429.466,-50.1978 433.491,-55.925"/>
</g>
<!-- Node10 -->
<g id="node10" class="node"><title>Node10</title>
<g id="a_node10"><a xlink:href="namespacemexiface_1_1explore.html#a2fd795aab0989018a48cfce5b8f63719" target="_top" xlink:title="mexiface::explore::\lanalyze_cell">
<polygon fill="white" stroke="black" points="440,-113.083 440,-141.083 533,-141.083 533,-113.083 440,-113.083"/>
<text text-anchor="start" x="448" y="-129.883" font-family="Helvetica,sans-Serif" font-size="9.00">mexiface::explore::</text>
<text text-anchor="middle" x="486.5" y="-119.883" font-family="Helvetica,sans-Serif" font-size="9.00">analyze_cell</text>
</a>
</g>
</g>
<!-- Node3&#45;&gt;Node10 -->
<g id="edge12" class="edge"><title>Node3&#45;&gt;Node10</title>
<path fill="none" stroke="midnightblue" d="M404.35,-120.57C412.533,-120.345 421.141,-120.28 429.568,-120.376"/>
<polygon fill="midnightblue" stroke="midnightblue" points="429.652,-123.878 439.717,-120.572 429.787,-116.879 429.652,-123.878"/>
</g>
<!-- Node11 -->
<g id="node11" class="node"><title>Node11</title>
<g id="a_node11"><a xlink:href="namespacemexiface_1_1explore.html#aad11efd374cd1c241da644051e4d3479" target="_top" xlink:title="mexiface::explore::\lanalyze_full">
<polygon fill="white" stroke="black" points="440,-352.083 440,-380.083 533,-380.083 533,-352.083 440,-352.083"/>
<text text-anchor="start" x="448" y="-368.883" font-family="Helvetica,sans-Serif" font-size="9.00">mexiface::explore::</text>
<text text-anchor="middle" x="486.5" y="-358.883" font-family="Helvetica,sans-Serif" font-size="9.00">analyze_full</text>
</a>
</g>
</g>
<!-- Node3&#45;&gt;Node11 -->
<g id="edge16" class="edge"><title>Node3&#45;&gt;Node11</title>
<path fill="none" stroke="midnightblue" d="M366.064,-141.318C387.24,-181.169 447.263,-294.126 473.253,-343.035"/>
<polygon fill="midnightblue" stroke="midnightblue" points="470.192,-344.734 477.976,-351.923 476.374,-341.449 470.192,-344.734"/>
</g>
<!-- Node6 -->
<g id="node6" class="node"><title>Node6</title>
<g id="a_node6"><a xlink:href="namespacemexiface_1_1explore.html#ad41bff4081494e68399068077d57f1ea" target="_top" xlink:title="mexiface::explore::\ldisplay_subscript">
<polygon fill="white" stroke="black" points="698,-328.083 698,-356.083 791,-356.083 791,-328.083 698,-328.083"/>
<text text-anchor="start" x="706" y="-344.883" font-family="Helvetica,sans-Serif" font-size="9.00">mexiface::explore::</text>
<text text-anchor="middle" x="744.5" y="-334.883" font-family="Helvetica,sans-Serif" font-size="9.00">display_subscript</text>
</a>
</g>
</g>
<!-- Node5&#45;&gt;Node6 -->
<g id="edge5" class="edge"><title>Node5&#45;&gt;Node6</title>
<path fill="none" stroke="midnightblue" d="M494.359,-542.22C506.078,-564.526 532.294,-607.095 569,-624.083 606.511,-641.443 628.964,-648.923 662,-624.083 703.979,-592.518 731.194,-428.962 740.205,-366.43"/>
<polygon fill="midnightblue" stroke="midnightblue" points="743.702,-366.7 741.631,-356.309 736.77,-365.723 743.702,-366.7"/>
</g>
<!-- Node7&#45;&gt;Node6 -->
<g id="edge7" class="edge"><title>Node7&#45;&gt;Node6</title>
<path fill="none" stroke="midnightblue" d="M516.727,-160.01C553.712,-144.445 617.899,-125.134 662,-154.083 718.237,-190.998 735.862,-275.957 741.233,-317.84"/>
<polygon fill="midnightblue" stroke="midnightblue" points="737.779,-318.437 742.398,-327.971 744.733,-317.637 737.779,-318.437"/>
</g>
<!-- Node8&#45;&gt;Node3 -->
<g id="edge11" class="edge"><title>Node8&#45;&gt;Node3</title>
<path fill="none" stroke="midnightblue" d="M470.639,-47.2188C461.487,-52.6486 449.693,-58.5597 440,-65.0827 421.741,-77.3702 403.107,-93.3008 388.273,-106.092"/>
<polygon fill="midnightblue" stroke="midnightblue" points="385.741,-103.654 380.45,-112.833 390.31,-108.957 385.741,-103.654"/>
</g>
<!-- Node8&#45;&gt;Node6 -->
<g id="edge9" class="edge"><title>Node8&#45;&gt;Node6</title>
<path fill="none" stroke="midnightblue" d="M528.715,-19.038C567.249,-8.72139 624.351,-1.00516 662,-30.0827 708.273,-65.8213 733.292,-250.941 740.935,-317.888"/>
<polygon fill="midnightblue" stroke="midnightblue" points="737.468,-318.372 742.051,-327.924 744.425,-317.599 737.468,-318.372"/>
</g>
<!-- Node8&#45;&gt;Node9 -->
<g id="edge10" class="edge"><title>Node8&#45;&gt;Node9</title>
<path fill="none" stroke="midnightblue" d="M533.35,-40.6642C541.623,-42.0322 550.33,-43.4719 558.846,-44.8801"/>
<polygon fill="midnightblue" stroke="midnightblue" points="558.28,-48.334 568.717,-46.5124 559.422,-41.4278 558.28,-48.334"/>
</g>
<!-- Node10&#45;&gt;Node3 -->
<g id="edge15" class="edge"><title>Node10&#45;&gt;Node3</title>
<path fill="none" stroke="midnightblue" d="M439.717,-133.594C431.537,-133.82 422.93,-133.886 414.501,-133.791"/>
<polygon fill="midnightblue" stroke="midnightblue" points="414.415,-130.289 404.35,-133.595 414.281,-137.287 414.415,-130.289"/>
</g>
<!-- Node10&#45;&gt;Node6 -->
<g id="edge13" class="edge"><title>Node10&#45;&gt;Node6</title>
<path fill="none" stroke="midnightblue" d="M533.088,-116.84C571.126,-111.023 624.917,-109.452 662,-136.083 721.903,-179.101 737.793,-273.249 741.996,-317.798"/>
<polygon fill="midnightblue" stroke="midnightblue" points="738.526,-318.313 742.832,-327.994 745.503,-317.741 738.526,-318.313"/>
</g>
<!-- Node10&#45;&gt;Node9 -->
<g id="edge14" class="edge"><title>Node10&#45;&gt;Node9</title>
<path fill="none" stroke="midnightblue" d="M515.063,-112.861C521.012,-109.703 527.243,-106.328 533,-103.083 549.674,-93.6826 567.961,-82.7468 582.98,-73.5943"/>
<polygon fill="midnightblue" stroke="midnightblue" points="585.164,-76.3613 591.866,-68.1556 581.509,-70.3909 585.164,-76.3613"/>
</g>
<!-- Node12 -->
<g id="node12" class="node"><title>Node12</title>
<g id="a_node12"><a xlink:href="namespacemexiface_1_1explore.html#abbbd19941bd43d361d33e21fb0dadbae" target="_top" xlink:title="mexiface::explore::\lanalyze_int8">
<polygon fill="white" stroke="black" points="569,-399.083 569,-427.083 662,-427.083 662,-399.083 569,-399.083"/>
<text text-anchor="start" x="577" y="-415.883" font-family="Helvetica,sans-Serif" font-size="9.00">mexiface::explore::</text>
<text text-anchor="middle" x="615.5" y="-405.883" font-family="Helvetica,sans-Serif" font-size="9.00">analyze_int8</text>
</a>
</g>
</g>
<!-- Node11&#45;&gt;Node12 -->
<g id="edge17" class="edge"><title>Node11&#45;&gt;Node12</title>
<path fill="none" stroke="midnightblue" d="M525.604,-380.184C538.539,-384.971 553.156,-390.381 566.747,-395.41"/>
<polygon fill="midnightblue" stroke="midnightblue" points="565.83,-398.803 576.423,-398.991 568.259,-392.238 565.83,-398.803"/>
</g>
<!-- Node13 -->
<g id="node13" class="node"><title>Node13</title>
<g id="a_node13"><a xlink:href="namespacemexiface_1_1explore.html#ae0e1687942c1e218a665eedeadc63456" target="_top" xlink:title="mexiface::explore::\lanalyze_uint8">
<polygon fill="white" stroke="black" points="569,-352.083 569,-380.083 662,-380.083 662,-352.083 569,-352.083"/>
<text text-anchor="start" x="577" y="-368.883" font-family="Helvetica,sans-Serif" font-size="9.00">mexiface::explore::</text>
<text text-anchor="middle" x="615.5" y="-358.883" font-family="Helvetica,sans-Serif" font-size="9.00">analyze_uint8</text>
</a>
</g>
</g>
<!-- Node11&#45;&gt;Node13 -->
<g id="edge19" class="edge"><title>Node11&#45;&gt;Node13</title>
<path fill="none" stroke="midnightblue" d="M533.35,-366.083C541.533,-366.083 550.141,-366.083 558.568,-366.083"/>
<polygon fill="midnightblue" stroke="midnightblue" points="558.717,-369.583 568.717,-366.083 558.717,-362.583 558.717,-369.583"/>
</g>
<!-- Node14 -->
<g id="node14" class="node"><title>Node14</title>
<g id="a_node14"><a xlink:href="namespacemexiface_1_1explore.html#a2c3a4139675fbbf8ca7ab0f92d6f11fd" target="_top" xlink:title="mexiface::explore::\lanalyze_int16">
<polygon fill="white" stroke="black" points="569,-305.083 569,-333.083 662,-333.083 662,-305.083 569,-305.083"/>
<text text-anchor="start" x="577" y="-321.883" font-family="Helvetica,sans-Serif" font-size="9.00">mexiface::explore::</text>
<text text-anchor="middle" x="615.5" y="-311.883" font-family="Helvetica,sans-Serif" font-size="9.00">analyze_int16</text>
</a>
</g>
</g>
<!-- Node11&#45;&gt;Node14 -->
<g id="edge21" class="edge"><title>Node11&#45;&gt;Node14</title>
<path fill="none" stroke="midnightblue" d="M525.604,-351.981C538.539,-347.194 553.156,-341.785 566.747,-336.755"/>
<polygon fill="midnightblue" stroke="midnightblue" points="568.259,-339.928 576.423,-333.174 565.83,-333.363 568.259,-339.928"/>
</g>
<!-- Node15 -->
<g id="node15" class="node"><title>Node15</title>
<g id="a_node15"><a xlink:href="namespacemexiface_1_1explore.html#aa1951af918bc0b264d05f2db4fbec9e1" target="_top" xlink:title="mexiface::explore::\lanalyze_uint16">
<polygon fill="white" stroke="black" points="569,-258.083 569,-286.083 662,-286.083 662,-258.083 569,-258.083"/>
<text text-anchor="start" x="577" y="-274.883" font-family="Helvetica,sans-Serif" font-size="9.00">mexiface::explore::</text>
<text text-anchor="middle" x="615.5" y="-264.883" font-family="Helvetica,sans-Serif" font-size="9.00">analyze_uint16</text>
</a>
</g>
</g>
<!-- Node11&#45;&gt;Node15 -->
<g id="edge23" class="edge"><title>Node11&#45;&gt;Node15</title>
<path fill="none" stroke="midnightblue" d="M501.619,-351.822C517.201,-336.571 543.468,-312.265 569,-295.083 570.909,-293.798 572.9,-292.537 574.936,-291.308"/>
<polygon fill="midnightblue" stroke="midnightblue" points="577.063,-294.125 584.04,-286.152 573.614,-288.034 577.063,-294.125"/>
</g>
<!-- Node16 -->
<g id="node16" class="node"><title>Node16</title>
<g id="a_node16"><a xlink:href="namespacemexiface_1_1explore.html#ad8657b3604a735ef428823cdf0a72722" target="_top" xlink:title="mexiface::explore::\lanalyze_int32">
<polygon fill="white" stroke="black" points="569,-211.083 569,-239.083 662,-239.083 662,-211.083 569,-211.083"/>
<text text-anchor="start" x="577" y="-227.883" font-family="Helvetica,sans-Serif" font-size="9.00">mexiface::explore::</text>
<text text-anchor="middle" x="615.5" y="-217.883" font-family="Helvetica,sans-Serif" font-size="9.00">analyze_int32</text>
</a>
</g>
</g>
<!-- Node11&#45;&gt;Node16 -->
<g id="edge25" class="edge"><title>Node11&#45;&gt;Node16</title>
<path fill="none" stroke="midnightblue" d="M494.229,-352.041C506.306,-328.065 533.724,-278.848 569,-248.083 570.284,-246.963 571.632,-245.881 573.028,-244.839"/>
<polygon fill="midnightblue" stroke="midnightblue" points="575.003,-247.728 581.419,-239.297 571.146,-241.887 575.003,-247.728"/>
</g>
<!-- Node17 -->
<g id="node17" class="node"><title>Node17</title>
<g id="a_node17"><a xlink:href="namespacemexiface_1_1explore.html#aa0ebed3704023f9816e91293c9c08253" target="_top" xlink:title="mexiface::explore::\lanalyze_uint32">
<polygon fill="white" stroke="black" points="569,-164.083 569,-192.083 662,-192.083 662,-164.083 569,-164.083"/>
<text text-anchor="start" x="577" y="-180.883" font-family="Helvetica,sans-Serif" font-size="9.00">mexiface::explore::</text>
<text text-anchor="middle" x="615.5" y="-170.883" font-family="Helvetica,sans-Serif" font-size="9.00">analyze_uint32</text>
</a>
</g>
</g>
<!-- Node11&#45;&gt;Node17 -->
<g id="edge27" class="edge"><title>Node11&#45;&gt;Node17</title>
<path fill="none" stroke="midnightblue" d="M491.167,-351.903C499.825,-320.899 524.25,-246.248 569,-201.083 570.051,-200.022 571.162,-199.001 572.319,-198.019"/>
<polygon fill="midnightblue" stroke="midnightblue" points="574.449,-200.797 580.503,-192.102 570.348,-195.125 574.449,-200.797"/>
</g>
<!-- Node18 -->
<g id="node18" class="node"><title>Node18</title>
<g id="a_node18"><a xlink:href="namespacemexiface_1_1explore.html#a7025633935ccc85550b308e70b0fc771" target="_top" xlink:title="mexiface::explore::\lanalyze_int64">
<polygon fill="white" stroke="black" points="569,-587.083 569,-615.083 662,-615.083 662,-587.083 569,-587.083"/>
<text text-anchor="start" x="577" y="-603.883" font-family="Helvetica,sans-Serif" font-size="9.00">mexiface::explore::</text>
<text text-anchor="middle" x="615.5" y="-593.883" font-family="Helvetica,sans-Serif" font-size="9.00">analyze_int64</text>
</a>
</g>
</g>
<!-- Node11&#45;&gt;Node18 -->
<g id="edge29" class="edge"><title>Node11&#45;&gt;Node18</title>
<path fill="none" stroke="midnightblue" d="M492.341,-380.303C507.689,-425.126 555.069,-561.422 569,-577.083 570.143,-578.367 571.371,-579.594 572.665,-580.765"/>
<polygon fill="midnightblue" stroke="midnightblue" points="570.592,-583.586 580.666,-586.868 574.837,-578.02 570.592,-583.586"/>
</g>
<!-- Node19 -->
<g id="node19" class="node"><title>Node19</title>
<g id="a_node19"><a xlink:href="namespacemexiface_1_1explore.html#abe63c53129e4d37e66af71c8f66d9ae6" target="_top" xlink:title="mexiface::explore::\lanalyze_uint64">
<polygon fill="white" stroke="black" points="569,-540.083 569,-568.083 662,-568.083 662,-540.083 569,-540.083"/>
<text text-anchor="start" x="577" y="-556.883" font-family="Helvetica,sans-Serif" font-size="9.00">mexiface::explore::</text>
<text text-anchor="middle" x="615.5" y="-546.883" font-family="Helvetica,sans-Serif" font-size="9.00">analyze_uint64</text>
</a>
</g>
</g>
<!-- Node11&#45;&gt;Node19 -->
<g id="edge31" class="edge"><title>Node11&#45;&gt;Node19</title>
<path fill="none" stroke="midnightblue" d="M491.249,-380.12C500.072,-410.821 524.805,-484.806 569,-530.083 570.244,-531.357 571.57,-532.578 572.958,-533.747"/>
<polygon fill="midnightblue" stroke="midnightblue" points="571.285,-536.856 581.442,-539.873 575.383,-531.181 571.285,-536.856"/>
</g>
<!-- Node20 -->
<g id="node20" class="node"><title>Node20</title>
<g id="a_node20"><a xlink:href="namespacemexiface_1_1explore.html#acaf0a238e5467e317ae037a966647626" target="_top" xlink:title="mexiface::explore::\lanalyze_single">
<polygon fill="white" stroke="black" points="569,-493.083 569,-521.083 662,-521.083 662,-493.083 569,-493.083"/>
<text text-anchor="start" x="577" y="-509.883" font-family="Helvetica,sans-Serif" font-size="9.00">mexiface::explore::</text>
<text text-anchor="middle" x="615.5" y="-499.883" font-family="Helvetica,sans-Serif" font-size="9.00">analyze_single</text>
</a>
</g>
</g>
<!-- Node11&#45;&gt;Node20 -->
<g id="edge33" class="edge"><title>Node11&#45;&gt;Node20</title>
<path fill="none" stroke="midnightblue" d="M494.512,-380.318C506.816,-404.126 534.316,-452.424 569,-483.083 570.685,-484.573 572.48,-486.002 574.345,-487.367"/>
<polygon fill="midnightblue" stroke="midnightblue" points="572.577,-490.393 582.861,-492.942 576.411,-484.537 572.577,-490.393"/>
</g>
<!-- Node21 -->
<g id="node21" class="node"><title>Node21</title>
<g id="a_node21"><a xlink:href="namespacemexiface_1_1explore.html#a3b7a85eeb040efe041ae992581c3861b" target="_top" xlink:title="mexiface::explore::\lanalyze_double">
<polygon fill="white" stroke="black" points="569,-446.083 569,-474.083 662,-474.083 662,-446.083 569,-446.083"/>
<text text-anchor="start" x="577" y="-462.883" font-family="Helvetica,sans-Serif" font-size="9.00">mexiface::explore::</text>
<text text-anchor="middle" x="615.5" y="-452.883" font-family="Helvetica,sans-Serif" font-size="9.00">analyze_double</text>
</a>
</g>
</g>
<!-- Node11&#45;&gt;Node21 -->
<g id="edge35" class="edge"><title>Node11&#45;&gt;Node21</title>
<path fill="none" stroke="midnightblue" d="M502.001,-380.313C517.697,-395.277 543.865,-418.979 569,-436.083 571.503,-437.786 574.142,-439.46 576.836,-441.081"/>
<polygon fill="midnightblue" stroke="midnightblue" points="575.112,-444.127 585.531,-446.055 578.588,-438.051 575.112,-444.127"/>
</g>
<!-- Node12&#45;&gt;Node6 -->
<g id="edge18" class="edge"><title>Node12&#45;&gt;Node6</title>
<path fill="none" stroke="midnightblue" d="M643.537,-399.036C649.633,-395.81 656.057,-392.362 662,-389.083 678.225,-380.13 696.075,-369.881 710.925,-361.244"/>
<polygon fill="midnightblue" stroke="midnightblue" points="712.867,-364.163 719.741,-356.1 709.34,-358.116 712.867,-364.163"/>
</g>
<!-- Node13&#45;&gt;Node6 -->
<g id="edge20" class="edge"><title>Node13&#45;&gt;Node6</title>
<path fill="none" stroke="midnightblue" d="M662.35,-357.418C670.623,-355.855 679.33,-354.209 687.846,-352.6"/>
<polygon fill="midnightblue" stroke="midnightblue" points="688.541,-356.031 697.717,-350.735 687.241,-349.152 688.541,-356.031"/>
</g>
<!-- Node14&#45;&gt;Node6 -->
<g id="edge22" class="edge"><title>Node14&#45;&gt;Node6</title>
<path fill="none" stroke="midnightblue" d="M662.35,-327.386C670.623,-328.885 679.33,-330.461 687.846,-332.004"/>
<polygon fill="midnightblue" stroke="midnightblue" points="687.254,-335.453 697.717,-333.791 688.501,-328.565 687.254,-335.453"/>
</g>
<!-- Node15&#45;&gt;Node6 -->
<g id="edge24" class="edge"><title>Node15&#45;&gt;Node6</title>
<path fill="none" stroke="midnightblue" d="M645.023,-286.198C650.678,-289.082 656.55,-292.136 662,-295.083 678.302,-303.895 696.161,-314.127 710.996,-322.79"/>
<polygon fill="midnightblue" stroke="midnightblue" points="709.405,-325.915 719.801,-327.955 712.946,-319.877 709.405,-325.915"/>
</g>
<!-- Node16&#45;&gt;Node6 -->
<g id="edge26" class="edge"><title>Node16&#45;&gt;Node6</title>
<path fill="none" stroke="midnightblue" d="M648.309,-239.142C653.088,-241.819 657.812,-244.817 662,-248.083 688.529,-268.769 712.945,-299.078 727.999,-319.644"/>
<polygon fill="midnightblue" stroke="midnightblue" points="725.182,-321.722 733.856,-327.805 730.869,-317.64 725.182,-321.722"/>
</g>
<!-- Node17&#45;&gt;Node6 -->
<g id="edge28" class="edge"><title>Node17&#45;&gt;Node6</title>
<path fill="none" stroke="midnightblue" d="M650.293,-192.311C654.494,-194.877 658.527,-197.799 662,-201.083 697.81,-234.939 722.637,-288.055 734.837,-318.51"/>
<polygon fill="midnightblue" stroke="midnightblue" points="731.605,-319.855 738.488,-327.909 738.13,-317.32 731.605,-319.855"/>
</g>
<!-- Node18&#45;&gt;Node6 -->
<g id="edge30" class="edge"><title>Node18&#45;&gt;Node6</title>
<path fill="none" stroke="midnightblue" d="M650.454,-586.973C654.731,-584.159 658.741,-580.877 662,-577.083 716.308,-513.85 735.054,-412.37 740.99,-366.269"/>
<polygon fill="midnightblue" stroke="midnightblue" points="744.47,-366.642 742.182,-356.297 737.52,-365.811 744.47,-366.642"/>
</g>
<!-- Node19&#45;&gt;Node6 -->
<g id="edge32" class="edge"><title>Node19&#45;&gt;Node6</title>
<path fill="none" stroke="midnightblue" d="M649.734,-540.04C654.219,-537.193 658.48,-533.883 662,-530.083 706.861,-481.66 729.507,-404.664 738.573,-365.955"/>
<polygon fill="midnightblue" stroke="midnightblue" points="742.008,-366.632 740.777,-356.109 735.177,-365.102 742.008,-366.632"/>
</g>
<!-- Node20&#45;&gt;Node6 -->
<g id="edge34" class="edge"><title>Node20&#45;&gt;Node6</title>
<path fill="none" stroke="midnightblue" d="M648.883,-492.953C653.587,-490.09 658.138,-486.798 662,-483.083 697.515,-448.917 722.449,-395.913 734.747,-365.561"/>
<polygon fill="midnightblue" stroke="midnightblue" points="738.027,-366.783 738.43,-356.196 731.513,-364.221 738.027,-366.783"/>
</g>
<!-- Node21&#45;&gt;Node6 -->
<g id="edge36" class="edge"><title>Node21&#45;&gt;Node6</title>
<path fill="none" stroke="midnightblue" d="M647.336,-445.829C652.441,-442.913 657.523,-439.636 662,-436.083 688.349,-415.167 712.803,-384.908 727.916,-364.416"/>
<polygon fill="midnightblue" stroke="midnightblue" points="730.771,-366.44 733.799,-356.287 725.101,-362.336 730.771,-366.44"/>
</g>
</g>
</svg>
