<?xml version="1.0" encoding="UTF-8" standalone="no"?>
<!DOCTYPE svg PUBLIC "-//W3C//DTD SVG 1.1//EN"
 "http://www.w3.org/Graphics/SVG/1.1/DTD/svg11.dtd">
<!-- Generated by graphviz version 2.36.0 (20140111.2315)
 -->
<!-- Title: mexiface::explore::analyze_single Pages: 1 -->
<svg width="524pt" height="120pt"
 viewBox="0.00 0.00 524.00 120.00" xmlns="http://www.w3.org/2000/svg" xmlns:xlink="http://www.w3.org/1999/xlink">
<g id="graph0" class="graph" transform="scale(1 1) rotate(0) translate(4 116)">
<title>mexiface::explore::analyze_single</title>
<polygon fill="white" stroke="none" points="-4,4 -4,-116 520,-116 520,4 -4,4"/>
<!-- Node1 -->
<g id="node1" class="node"><title>Node1</title>
<polygon fill="#bfbfbf" stroke="black" points="0.5,-37 0.5,-65 93.5,-65 93.5,-37 0.5,-37"/>
<text text-anchor="start" x="8.5" y="-53.8" font-family="Helvetica,sans-Serif" font-size="9.00">mexiface::explore::</text>
<text text-anchor="middle" x="47" y="-43.8" font-family="Helvetica,sans-Serif" font-size="9.00">analyze_single</text>
</g>
<!-- Node2 -->
<g id="node2" class="node"><title>Node2</title>
<g id="a_node2"><a xlink:href="namespacemexiface_1_1explore.html#aad11efd374cd1c241da644051e4d3479" target="_top" xlink:title="mexiface::explore::\lanalyze_full">
<polygon fill="white" stroke="black" points="130.5,-37 130.5,-65 223.5,-65 223.5,-37 130.5,-37"/>
<text text-anchor="start" x="138.5" y="-53.8" font-family="Helvetica,sans-Serif" font-size="9.00">mexiface::explore::</text>
<text text-anchor="middle" x="177" y="-43.8" font-family="Helvetica,sans-Serif" font-size="9.00">analyze_full</text>
</a>
</g>
</g>
<!-- Node1&#45;&gt;Node2 -->
<g id="edge1" class="edge"><title>Node1&#45;&gt;Node2</title>
<path fill="none" stroke="midnightblue" d="M104.073,-51C112.896,-51 121.924,-51 130.471,-51"/>
<polygon fill="midnightblue" stroke="midnightblue" points="103.849,-47.5001 93.8494,-51 103.849,-54.5001 103.849,-47.5001"/>
</g>
<!-- Node3 -->
<g id="node3" class="node"><title>Node3</title>
<g id="a_node3"><a xlink:href="namespacemexiface_1_1explore.html#a5a5c7c4c0ce2b61c1fe8f55cd7a685c8" target="_top" xlink:title="mexiface::explore::\lanalyze_class">
<polygon fill="white" stroke="black" points="260.5,-37 260.5,-65 353.5,-65 353.5,-37 260.5,-37"/>
<text text-anchor="start" x="268.5" y="-53.8" font-family="Helvetica,sans-Serif" font-size="9.00">mexiface::explore::</text>
<text text-anchor="middle" x="307" y="-43.8" font-family="Helvetica,sans-Serif" font-size="9.00">analyze_class</text>
</a>
</g>
</g>
<!-- Node2&#45;&gt;Node3 -->
<g id="edge2" class="edge"><title>Node2&#45;&gt;Node3</title>
<path fill="none" stroke="midnightblue" d="M234.073,-51C242.896,-51 251.924,-51 260.471,-51"/>
<polygon fill="midnightblue" stroke="midnightblue" points="233.849,-47.5001 223.849,-51 233.849,-54.5001 233.849,-47.5001"/>
</g>
<!-- Node4 -->
<g id="node4" class="node"><title>Node4</title>
<g id="a_node4"><a xlink:href="namespacemexiface_1_1explore.html#a2fd795aab0989018a48cfce5b8f63719" target="_top" xlink:title="mexiface::explore::\lanalyze_cell">
<polygon fill="white" stroke="black" points="406.5,-84 406.5,-112 499.5,-112 499.5,-84 406.5,-84"/>
<text text-anchor="start" x="414.5" y="-100.8" font-family="Helvetica,sans-Serif" font-size="9.00">mexiface::explore::</text>
<text text-anchor="middle" x="453" y="-90.8" font-family="Helvetica,sans-Serif" font-size="9.00">analyze_cell</text>
</a>
</g>
</g>
<!-- Node3&#45;&gt;Node4 -->
<g id="edge3" class="edge"><title>Node3&#45;&gt;Node4</title>
<path fill="none" stroke="midnightblue" d="M363.155,-62.4191C384.415,-68.9293 407.749,-76.942 425.168,-83.8485"/>
<polygon fill="midnightblue" stroke="midnightblue" points="364.146,-59.0623 353.562,-59.543 362.136,-65.7674 364.146,-59.0623"/>
</g>
<!-- Node5 -->
<g id="node5" class="node"><title>Node5</title>
<g id="a_node5"><a xlink:href="namespacemexiface_1_1explore.html#a6205a96e991f64a98345df5645dd0ba5" target="_top" xlink:title="mexiface::explore::\lanalyze_structure">
<polygon fill="white" stroke="black" points="406.5,-37 406.5,-65 499.5,-65 499.5,-37 406.5,-37"/>
<text text-anchor="start" x="414.5" y="-53.8" font-family="Helvetica,sans-Serif" font-size="9.00">mexiface::explore::</text>
<text text-anchor="middle" x="453" y="-43.8" font-family="Helvetica,sans-Serif" font-size="9.00">analyze_structure</text>
</a>
</g>
</g>
<!-- Node3&#45;&gt;Node5 -->
<g id="edge5" class="edge"><title>Node3&#45;&gt;Node5</title>
<path fill="none" stroke="midnightblue" d="M363.634,-44.4074C377.725,-44.132 392.7,-44.218 406.24,-44.6653"/>
<polygon fill="midnightblue" stroke="midnightblue" points="363.467,-40.9105 353.562,-44.6719 363.651,-47.9081 363.467,-40.9105"/>
</g>
<!-- Node6 -->
<g id="node6" class="node"><title>Node6</title>
<g id="a_node6"><a xlink:href="namespacemexiface.html#ae54146cf35d29dcc6c83a8ca96b62549" target="_top" xlink:title="Given the arguments to a matlab mex function call, print out the details of each arguments. ">
<polygon fill="white" stroke="black" points="390.5,-0 390.5,-18 515.5,-18 515.5,-0 390.5,-0"/>
<text text-anchor="middle" x="453" y="-6.8" font-family="Helvetica,sans-Serif" font-size="9.00">mexiface::exploreMexArgs</text>
</a>
</g>
</g>
<!-- Node3&#45;&gt;Node6 -->
<g id="edge7" class="edge"><title>Node3&#45;&gt;Node6</title>
<path fill="none" stroke="midnightblue" d="M363.274,-34.8784C382.786,-29.1873 404.034,-22.9902 420.843,-18.0875"/>
<polygon fill="midnightblue" stroke="midnightblue" points="362.182,-31.5509 353.562,-37.7109 364.143,-38.2709 362.182,-31.5509"/>
</g>
<!-- Node4&#45;&gt;Node3 -->
<g id="edge4" class="edge"><title>Node4&#45;&gt;Node3</title>
<path fill="none" stroke="midnightblue" d="M396.823,-86.5744C375.536,-80.0548 352.169,-72.0299 334.748,-65.1181"/>
<polygon fill="midnightblue" stroke="midnightblue" points="395.845,-89.935 406.429,-89.4545 397.856,-83.2299 395.845,-89.935"/>
</g>
<!-- Node5&#45;&gt;Node3 -->
<g id="edge6" class="edge"><title>Node5&#45;&gt;Node3</title>
<path fill="none" stroke="midnightblue" d="M396.16,-57.5966C382.06,-57.8685 367.089,-57.779 353.562,-57.3281"/>
<polygon fill="midnightblue" stroke="midnightblue" points="396.334,-61.0933 406.24,-57.3347 396.152,-54.0957 396.334,-61.0933"/>
</g>
</g>
</svg>
