<?xml version="1.0" encoding="UTF-8" standalone="no"?>
<!DOCTYPE svg PUBLIC "-//W3C//DTD SVG 1.1//EN"
 "http://www.w3.org/Graphics/SVG/1.1/DTD/svg11.dtd">
<!-- Generated by graphviz version 2.38.0 (20140413.2041)
 -->
<!-- Title: mexiface::explore::get_characteristics Pages: 1 -->
<svg width="670pt" height="118pt"
 viewBox="0.00 0.00 670.00 117.98" xmlns="http://www.w3.org/2000/svg" xmlns:xlink="http://www.w3.org/1999/xlink">
<g id="graph0" class="graph" transform="scale(1 1) rotate(0) translate(4 113.981)">
<title>mexiface::explore::get_characteristics</title>
<polygon fill="white" stroke="none" points="-4,4 -4,-113.981 666,-113.981 666,4 -4,4"/>
<!-- Node1 -->
<g id="node1" class="node"><title>Node1</title>
<polygon fill="#bfbfbf" stroke="black" points="0,-63.5 0,-91.5 93,-91.5 93,-63.5 0,-63.5"/>
<text text-anchor="start" x="8" y="-80.3" font-family="Helvetica,sans-Serif" font-size="9.00">mexiface::explore::</text>
<text text-anchor="middle" x="46.5" y="-70.3" font-family="Helvetica,sans-Serif" font-size="9.00">get_characteristics</text>
</g>
<!-- Node2 -->
<g id="node2" class="node"><title>Node2</title>
<g id="a_node2"><a xlink:href="namespacemexiface_1_1explore.html#a2fd795aab0989018a48cfce5b8f63719" target="_top" xlink:title="mexiface::explore::\lanalyze_cell">
<polygon fill="white" stroke="black" points="129,-63.5 129,-91.5 222,-91.5 222,-63.5 129,-63.5"/>
<text text-anchor="start" x="137" y="-80.3" font-family="Helvetica,sans-Serif" font-size="9.00">mexiface::explore::</text>
<text text-anchor="middle" x="175.5" y="-70.3" font-family="Helvetica,sans-Serif" font-size="9.00">analyze_cell</text>
</a>
</g>
</g>
<!-- Node1&#45;&gt;Node2 -->
<g id="edge1" class="edge"><title>Node1&#45;&gt;Node2</title>
<path fill="none" stroke="midnightblue" d="M103.501,-77.5C111.93,-77.5 120.537,-77.5 128.717,-77.5"/>
<polygon fill="midnightblue" stroke="midnightblue" points="103.35,-74.0001 93.3499,-77.5 103.35,-81.0001 103.35,-74.0001"/>
</g>
<!-- Node4 -->
<g id="node4" class="node"><title>Node4</title>
<g id="a_node4"><a xlink:href="namespacemexiface_1_1explore.html#a6205a96e991f64a98345df5645dd0ba5" target="_top" xlink:title="mexiface::explore::\lanalyze_structure">
<polygon fill="white" stroke="black" points="403,-63.5 403,-91.5 496,-91.5 496,-63.5 403,-63.5"/>
<text text-anchor="start" x="411" y="-80.3" font-family="Helvetica,sans-Serif" font-size="9.00">mexiface::explore::</text>
<text text-anchor="middle" x="449.5" y="-70.3" font-family="Helvetica,sans-Serif" font-size="9.00">analyze_structure</text>
</a>
</g>
</g>
<!-- Node1&#45;&gt;Node4 -->
<g id="edge9" class="edge"><title>Node1&#45;&gt;Node4</title>
<path fill="none" stroke="midnightblue" d="M98.6722,-94.2477C108.628,-96.8475 119.061,-99.1244 129,-100.5 226.735,-114.027 252.994,-111.903 351,-100.5 368.102,-98.5101 386.558,-94.6196 402.763,-90.596"/>
<polygon fill="midnightblue" stroke="midnightblue" points="99.481,-90.8402 88.9108,-91.5616 97.6238,-97.5893 99.481,-90.8402"/>
</g>
<!-- Node5 -->
<g id="node5" class="node"><title>Node5</title>
<g id="a_node5"><a xlink:href="namespacemexiface.html#ae54146cf35d29dcc6c83a8ca96b62549" target="_top" xlink:title="Given the arguments to a matlab mex function call, print out the details of each arguments. ">
<polygon fill="white" stroke="black" points="387,-26.5 387,-44.5 512,-44.5 512,-26.5 387,-26.5"/>
<text text-anchor="middle" x="449.5" y="-33.3" font-family="Helvetica,sans-Serif" font-size="9.00">mexiface::exploreMexArgs</text>
</a>
</g>
</g>
<!-- Node1&#45;&gt;Node5 -->
<g id="edge10" class="edge"><title>Node1&#45;&gt;Node5</title>
<path fill="none" stroke="midnightblue" d="M98.3762,-60.5684C108.428,-57.7786 118.971,-55.2352 129,-53.5 217.684,-38.1552 322.072,-35.023 386.774,-34.7917"/>
<polygon fill="midnightblue" stroke="midnightblue" points="97.158,-57.2772 88.5253,-63.4195 99.1041,-64.0013 97.158,-57.2772"/>
</g>
<!-- Node3 -->
<g id="node3" class="node"><title>Node3</title>
<g id="a_node3"><a xlink:href="namespacemexiface_1_1explore.html#a5a5c7c4c0ce2b61c1fe8f55cd7a685c8" target="_top" xlink:title="mexiface::explore::\lanalyze_class">
<polygon fill="white" stroke="black" points="258,-63.5 258,-91.5 351,-91.5 351,-63.5 258,-63.5"/>
<text text-anchor="start" x="266" y="-80.3" font-family="Helvetica,sans-Serif" font-size="9.00">mexiface::explore::</text>
<text text-anchor="middle" x="304.5" y="-70.3" font-family="Helvetica,sans-Serif" font-size="9.00">analyze_class</text>
</a>
</g>
</g>
<!-- Node2&#45;&gt;Node3 -->
<g id="edge2" class="edge"><title>Node2&#45;&gt;Node3</title>
<path fill="none" stroke="midnightblue" d="M232.501,-70.792C240.93,-70.6972 249.537,-70.7629 257.717,-70.9892"/>
<polygon fill="midnightblue" stroke="midnightblue" points="232.281,-67.2955 222.35,-70.9873 232.415,-74.2942 232.281,-67.2955"/>
</g>
<!-- Node3&#45;&gt;Node2 -->
<g id="edge3" class="edge"><title>Node3&#45;&gt;Node2</title>
<path fill="none" stroke="midnightblue" d="M247.568,-84.2072C239.141,-84.3029 230.533,-84.2381 222.35,-84.0127"/>
<polygon fill="midnightblue" stroke="midnightblue" points="247.787,-87.7037 257.717,-84.0108 247.652,-80.705 247.787,-87.7037"/>
</g>
<!-- Node3&#45;&gt;Node4 -->
<g id="edge4" class="edge"><title>Node3&#45;&gt;Node4</title>
<path fill="none" stroke="midnightblue" d="M361.428,-70.8943C375.134,-70.6365 389.643,-70.7241 402.804,-71.1569"/>
<polygon fill="midnightblue" stroke="midnightblue" points="361.046,-67.4029 351.139,-71.1588 361.226,-74.4006 361.046,-67.4029"/>
</g>
<!-- Node3&#45;&gt;Node5 -->
<g id="edge6" class="edge"><title>Node3&#45;&gt;Node5</title>
<path fill="none" stroke="midnightblue" d="M360.92,-61.1666C369.647,-58.5986 378.568,-55.9755 387,-53.5 396.927,-50.5855 407.758,-47.4131 417.526,-44.5548"/>
<polygon fill="midnightblue" stroke="midnightblue" points="359.792,-57.8502 351.187,-64.0317 361.769,-64.5653 359.792,-57.8502"/>
</g>
<!-- Node4&#45;&gt;Node3 -->
<g id="edge5" class="edge"><title>Node4&#45;&gt;Node3</title>
<path fill="none" stroke="midnightblue" d="M392.512,-84.1068C378.804,-84.3636 364.297,-84.2751 351.139,-83.8412"/>
<polygon fill="midnightblue" stroke="midnightblue" points="392.897,-87.5982 402.804,-83.8431 392.717,-80.6005 392.897,-87.5982"/>
</g>
<!-- Node6 -->
<g id="node6" class="node"><title>Node6</title>
<g id="a_node6"><a xlink:href="namespacemexiface.html#a54c9b82ac7205b64d9725bd8115614a4" target="_top" xlink:title="Templated function to returns the matlab mxClassID for given C++ data type. ">
<polygon fill="white" stroke="black" points="548,-47.5 548,-65.5 662,-65.5 662,-47.5 548,-47.5"/>
<text text-anchor="middle" x="605" y="-54.3" font-family="Helvetica,sans-Serif" font-size="9.00">mexiface::get_mx_class</text>
</a>
</g>
</g>
<!-- Node5&#45;&gt;Node6 -->
<g id="edge7" class="edge"><title>Node5&#45;&gt;Node6</title>
<path fill="none" stroke="midnightblue" d="M522.136,-45.3004C530.785,-46.4836 539.52,-47.6787 547.901,-48.8252"/>
<polygon fill="midnightblue" stroke="midnightblue" points="522.432,-41.8083 512.05,-43.9205 521.483,-48.7437 522.432,-41.8083"/>
</g>
<!-- Node7 -->
<g id="node7" class="node"><title>Node7</title>
<g id="a_node7"><a xlink:href="classmexiface_1_1MexIFace.html#a17f0280024d7cdd318b13223174b6151" target="_top" xlink:title="The mexFunction that will be exposed as the entry point for the .mex file. ">
<polygon fill="white" stroke="black" points="556,-0.5 556,-28.5 654,-28.5 654,-0.5 556,-0.5"/>
<text text-anchor="start" x="564" y="-17.3" font-family="Helvetica,sans-Serif" font-size="9.00">mexiface::MexIFace</text>
<text text-anchor="middle" x="605" y="-7.3" font-family="Helvetica,sans-Serif" font-size="9.00">::mexFunction</text>
</a>
</g>
</g>
<!-- Node5&#45;&gt;Node7 -->
<g id="edge8" class="edge"><title>Node5&#45;&gt;Node7</title>
<path fill="none" stroke="midnightblue" d="M522.005,-25.7176C533.408,-24.1576 544.966,-22.5764 555.665,-21.1126"/>
<polygon fill="midnightblue" stroke="midnightblue" points="521.483,-22.2563 512.05,-27.0795 522.432,-29.1917 521.483,-22.2563"/>
</g>
</g>
</svg>
