<?xml version="1.0" encoding="UTF-8" standalone="no"?>
<!DOCTYPE svg PUBLIC "-//W3C//DTD SVG 1.1//EN"
 "http://www.w3.org/Graphics/SVG/1.1/DTD/svg11.dtd">
<!-- Generated by graphviz version 2.36.0 (20140111.2315)
 -->
<!-- Title: mexiface::explore::analyze_class Pages: 1 -->
<!--zoomable 686 -->
<svg id="main" version="1.1" xmlns="http://www.w3.org/2000/svg" xmlns:xlink="http://www.w3.org/1999/xlink" xml:space="preserve" onload="init(evt)">
<style type="text/css"><![CDATA[
.edge:hover path { stroke: red; }
.edge:hover polygon { stroke: red; fill: red; }
]]></style>
<script type="text/javascript"><![CDATA[
var edges = document.getElementsByTagName('g');
if (edges && edges.length) {
  for (var i=0;i<edges.length;i++) {
    if (edges[i].id.substr(0,4)=='edge') {
      edges[i].setAttribute('class','edge');
    }
  }
}
]]></script>
        <defs>
                <circle id="rim" cx="0" cy="0" r="7"/>
                <circle id="rim2" cx="0" cy="0" r="3.5"/>
                <g id="zoomPlus">
                        <use xlink:href="#rim" fill="#404040">
                                <set attributeName="fill" to="#808080" begin="zoomplus.mouseover" end="zoomplus.mouseout"/>
                        </use>
                        <path d="M-4,0h8M0,-4v8" fill="none" stroke="white" stroke-width="1.5" pointer-events="none"/>
                </g>
                <g id="zoomMin">
                        <use xlink:href="#rim" fill="#404040">
                                <set attributeName="fill" to="#808080" begin="zoomminus.mouseover" end="zoomminus.mouseout"/>
                        </use>
                        <path d="M-4,0h8" fill="none" stroke="white" stroke-width="1.5" pointer-events="none"/>
                </g>
                <g id="dirArrow">
                        <path fill="none" stroke="white" stroke-width="1.5" d="M0,-3.0v7 M-2.5,-0.5L0,-3.0L2.5,-0.5"/>
                </g>
               <g id="resetDef">
                       <use xlink:href="#rim2" fill="#404040">
                               <set attributeName="fill" to="#808080" begin="reset.mouseover" end="reset.mouseout"/>
                       </use>
               </g>
        </defs>

<script type="text/javascript">
var viewWidth = 492;
var viewHeight = 686;
var sectionId = 'dynsection-2';
</script>
<script xlink:href="svgpan.js"/>
<svg id="graph" class="graph">
<g id="viewport">
<title>mexiface::explore::analyze_class</title>
<polygon fill="white" stroke="none" points="-4,4 -4,-682 488,-682 488,4 -4,4"/>
<!-- Node1 -->
<g id="node1" class="node"><title>Node1</title>
<polygon fill="#bfbfbf" stroke="black" points="0.5,-141 0.5,-169 93.5,-169 93.5,-141 0.5,-141"/>
<text text-anchor="start" x="8.5" y="-157.8" font-family="Helvetica,sans-Serif" font-size="9.00">mexiface::explore::</text>
<text text-anchor="middle" x="47" y="-147.8" font-family="Helvetica,sans-Serif" font-size="9.00">analyze_class</text>
</g>
<!-- Node2 -->
<g id="node2" class="node"><title>Node2</title>
<g id="a_node2"><a xlink:href="namespacemexiface_1_1explore.html#a2fd795aab0989018a48cfce5b8f63719" target="_top" xlink:title="mexiface::explore::\lanalyze_cell">
<polygon fill="white" stroke="black" points="130.5,-141 130.5,-169 223.5,-169 223.5,-141 130.5,-141"/>
<text text-anchor="start" x="138.5" y="-157.8" font-family="Helvetica,sans-Serif" font-size="9.00">mexiface::explore::</text>
<text text-anchor="middle" x="177" y="-147.8" font-family="Helvetica,sans-Serif" font-size="9.00">analyze_cell</text>
</a>
</g>
</g>
<!-- Node1&#45;&gt;Node2 -->
<g id="edge1" class="edge"><title>Node1&#45;&gt;Node2</title>
<path fill="none" stroke="midnightblue" d="M93.8494,-148.497C102.408,-148.258 111.439,-148.192 120.258,-148.3"/>
<polygon fill="midnightblue" stroke="midnightblue" points="120.402,-151.804 130.471,-148.506 120.543,-144.805 120.402,-151.804"/>
</g>
<!-- Node5 -->
<g id="node5" class="node"><title>Node5</title>
<g id="a_node5"><a xlink:href="namespacemexiface_1_1explore.html#aad11efd374cd1c241da644051e4d3479" target="_top" xlink:title="mexiface::explore::\lanalyze_full">
<polygon fill="white" stroke="black" points="130.5,-415 130.5,-443 223.5,-443 223.5,-415 130.5,-415"/>
<text text-anchor="start" x="138.5" y="-431.8" font-family="Helvetica,sans-Serif" font-size="9.00">mexiface::explore::</text>
<text text-anchor="middle" x="177" y="-421.8" font-family="Helvetica,sans-Serif" font-size="9.00">analyze_full</text>
</a>
</g>
</g>
<!-- Node1&#45;&gt;Node5 -->
<g id="edge5" class="edge"><title>Node1&#45;&gt;Node5</title>
<path fill="none" stroke="midnightblue" d="M54.7016,-169.346C75.5245,-213.92 139.245,-350.321 165.014,-405.482"/>
<polygon fill="midnightblue" stroke="midnightblue" points="161.961,-407.218 169.365,-414.796 168.303,-404.255 161.961,-407.218"/>
</g>
<!-- Node16 -->
<g id="node16" class="node"><title>Node16</title>
<g id="a_node16"><a xlink:href="namespacemexiface_1_1explore.html#ae6d95ef17338c9baa90e1ce1c3e33d0f" target="_top" xlink:title="mexiface::explore::\lanalyze_logical">
<polygon fill="white" stroke="black" points="130.5,-47 130.5,-75 223.5,-75 223.5,-47 130.5,-47"/>
<text text-anchor="start" x="138.5" y="-63.8" font-family="Helvetica,sans-Serif" font-size="9.00">mexiface::explore::</text>
<text text-anchor="middle" x="177" y="-53.8" font-family="Helvetica,sans-Serif" font-size="9.00">analyze_logical</text>
</a>
</g>
</g>
<!-- Node1&#45;&gt;Node16 -->
<g id="edge26" class="edge"><title>Node1&#45;&gt;Node16</title>
<path fill="none" stroke="midnightblue" d="M62.2074,-140.725C77.8859,-125.463 104.315,-101.147 130,-84 132.079,-82.6119 134.254,-81.2523 136.478,-79.9316"/>
<polygon fill="midnightblue" stroke="midnightblue" points="138.186,-82.9866 145.208,-75.0522 134.771,-76.8764 138.186,-82.9866"/>
</g>
<!-- Node17 -->
<g id="node17" class="node"><title>Node17</title>
<g id="a_node17"><a xlink:href="namespacemexiface_1_1explore.html#a44ef87dec50add577651cf82ea3c8874" target="_top" xlink:title="mexiface::explore::\lanalyze_sparse">
<polygon fill="white" stroke="black" points="130.5,-94 130.5,-122 223.5,-122 223.5,-94 130.5,-94"/>
<text text-anchor="start" x="138.5" y="-110.8" font-family="Helvetica,sans-Serif" font-size="9.00">mexiface::explore::</text>
<text text-anchor="middle" x="177" y="-100.8" font-family="Helvetica,sans-Serif" font-size="9.00">analyze_sparse</text>
</a>
</g>
</g>
<!-- Node1&#45;&gt;Node17 -->
<g id="edge28" class="edge"><title>Node1&#45;&gt;Node17</title>
<path fill="none" stroke="midnightblue" d="M86.4042,-140.898C99.4406,-136.112 114.173,-130.702 127.871,-125.672"/>
<polygon fill="midnightblue" stroke="midnightblue" points="129.442,-128.824 137.623,-122.092 127.029,-122.253 129.442,-128.824"/>
</g>
<!-- Node18 -->
<g id="node18" class="node"><title>Node18</title>
<g id="a_node18"><a xlink:href="namespacemexiface_1_1explore.html#aaa319b6e0131959ff3d2fbd9a4c368b3" target="_top" xlink:title="mexiface::explore::\lanalyze_string">
<polygon fill="white" stroke="black" points="130.5,-0 130.5,-28 223.5,-28 223.5,-0 130.5,-0"/>
<text text-anchor="start" x="138.5" y="-16.8" font-family="Helvetica,sans-Serif" font-size="9.00">mexiface::explore::</text>
<text text-anchor="middle" x="177" y="-6.8" font-family="Helvetica,sans-Serif" font-size="9.00">analyze_string</text>
</a>
</g>
</g>
<!-- Node1&#45;&gt;Node18 -->
<g id="edge29" class="edge"><title>Node1&#45;&gt;Node18</title>
<path fill="none" stroke="midnightblue" d="M54.7779,-140.944C66.9398,-116.946 94.542,-67.6979 130,-37 131.299,-35.875 132.664,-34.7891 134.075,-33.7429"/>
<polygon fill="midnightblue" stroke="midnightblue" points="136.112,-36.5926 142.562,-28.1872 132.279,-30.7358 136.112,-36.5926"/>
</g>
<!-- Node19 -->
<g id="node19" class="node"><title>Node19</title>
<g id="a_node19"><a xlink:href="namespacemexiface_1_1explore.html#a6205a96e991f64a98345df5645dd0ba5" target="_top" xlink:title="mexiface::explore::\lanalyze_structure">
<polygon fill="white" stroke="black" points="130.5,-188 130.5,-216 223.5,-216 223.5,-188 130.5,-188"/>
<text text-anchor="start" x="138.5" y="-204.8" font-family="Helvetica,sans-Serif" font-size="9.00">mexiface::explore::</text>
<text text-anchor="middle" x="177" y="-194.8" font-family="Helvetica,sans-Serif" font-size="9.00">analyze_structure</text>
</a>
</g>
</g>
<!-- Node1&#45;&gt;Node19 -->
<g id="edge31" class="edge"><title>Node1&#45;&gt;Node19</title>
<path fill="none" stroke="midnightblue" d="M93.8494,-165.333C110.091,-170.842 128.032,-177.601 142.994,-183.89"/>
<polygon fill="midnightblue" stroke="midnightblue" points="141.78,-187.179 152.348,-187.937 144.56,-180.754 141.78,-187.179"/>
</g>
<!-- Node2&#45;&gt;Node1 -->
<g id="edge2" class="edge"><title>Node2&#45;&gt;Node1</title>
<path fill="none" stroke="midnightblue" d="M130.471,-161.494C121.924,-161.737 112.896,-161.807 104.073,-161.704"/>
<polygon fill="midnightblue" stroke="midnightblue" points="103.916,-158.2 93.8494,-161.503 103.779,-165.199 103.916,-158.2"/>
</g>
<!-- Node3 -->
<g id="node3" class="node"><title>Node3</title>
<g id="a_node3"><a xlink:href="namespacemexiface_1_1explore.html#ad41bff4081494e68399068077d57f1ea" target="_top" xlink:title="mexiface::explore::\ldisplay_subscript">
<polygon fill="white" stroke="black" points="390.5,-344 390.5,-372 483.5,-372 483.5,-344 390.5,-344"/>
<text text-anchor="start" x="398.5" y="-360.8" font-family="Helvetica,sans-Serif" font-size="9.00">mexiface::explore::</text>
<text text-anchor="middle" x="437" y="-350.8" font-family="Helvetica,sans-Serif" font-size="9.00">display_subscript</text>
</a>
</g>
</g>
<!-- Node2&#45;&gt;Node3 -->
<g id="edge3" class="edge"><title>Node2&#45;&gt;Node3</title>
<path fill="none" stroke="midnightblue" d="M204.548,-140.89C241.534,-123.384 309.073,-99.4607 354,-131 420.974,-178.017 433.485,-285.399 435.652,-333.687"/>
<polygon fill="midnightblue" stroke="midnightblue" points="432.159,-333.962 435.991,-343.839 439.155,-333.728 432.159,-333.962"/>
</g>
<!-- Node4 -->
<g id="node4" class="node"><title>Node4</title>
<g id="a_node4"><a xlink:href="namespacemexiface_1_1explore.html#af20e073842721a53872d786a38f401fe" target="_top" xlink:title="mexiface::explore::\lget_characteristics">
<polygon fill="white" stroke="black" points="260.5,-141 260.5,-169 353.5,-169 353.5,-141 260.5,-141"/>
<text text-anchor="start" x="268.5" y="-157.8" font-family="Helvetica,sans-Serif" font-size="9.00">mexiface::explore::</text>
<text text-anchor="middle" x="307" y="-147.8" font-family="Helvetica,sans-Serif" font-size="9.00">get_characteristics</text>
</a>
</g>
</g>
<!-- Node2&#45;&gt;Node4 -->
<g id="edge4" class="edge"><title>Node2&#45;&gt;Node4</title>
<path fill="none" stroke="midnightblue" d="M223.849,-155C232.408,-155 241.439,-155 250.258,-155"/>
<polygon fill="midnightblue" stroke="midnightblue" points="250.471,-158.5 260.471,-155 250.471,-151.5 250.471,-158.5"/>
</g>
<!-- Node6 -->
<g id="node6" class="node"><title>Node6</title>
<g id="a_node6"><a xlink:href="namespacemexiface_1_1explore.html#abbbd19941bd43d361d33e21fb0dadbae" target="_top" xlink:title="mexiface::explore::\lanalyze_int8">
<polygon fill="white" stroke="black" points="260.5,-415 260.5,-443 353.5,-443 353.5,-415 260.5,-415"/>
<text text-anchor="start" x="268.5" y="-431.8" font-family="Helvetica,sans-Serif" font-size="9.00">mexiface::explore::</text>
<text text-anchor="middle" x="307" y="-421.8" font-family="Helvetica,sans-Serif" font-size="9.00">analyze_int8</text>
</a>
</g>
</g>
<!-- Node5&#45;&gt;Node6 -->
<g id="edge6" class="edge"><title>Node5&#45;&gt;Node6</title>
<path fill="none" stroke="midnightblue" d="M223.849,-429C232.408,-429 241.439,-429 250.258,-429"/>
<polygon fill="midnightblue" stroke="midnightblue" points="250.471,-432.5 260.471,-429 250.471,-425.5 250.471,-432.5"/>
</g>
<!-- Node7 -->
<g id="node7" class="node"><title>Node7</title>
<g id="a_node7"><a xlink:href="namespacemexiface_1_1explore.html#ae0e1687942c1e218a665eedeadc63456" target="_top" xlink:title="mexiface::explore::\lanalyze_uint8">
<polygon fill="white" stroke="black" points="260.5,-368 260.5,-396 353.5,-396 353.5,-368 260.5,-368"/>
<text text-anchor="start" x="268.5" y="-384.8" font-family="Helvetica,sans-Serif" font-size="9.00">mexiface::explore::</text>
<text text-anchor="middle" x="307" y="-374.8" font-family="Helvetica,sans-Serif" font-size="9.00">analyze_uint8</text>
</a>
</g>
</g>
<!-- Node5&#45;&gt;Node7 -->
<g id="edge8" class="edge"><title>Node5&#45;&gt;Node7</title>
<path fill="none" stroke="midnightblue" d="M216.404,-414.898C229.441,-410.112 244.173,-404.702 257.871,-399.672"/>
<polygon fill="midnightblue" stroke="midnightblue" points="259.442,-402.824 267.623,-396.092 257.029,-396.253 259.442,-402.824"/>
</g>
<!-- Node8 -->
<g id="node8" class="node"><title>Node8</title>
<g id="a_node8"><a xlink:href="namespacemexiface_1_1explore.html#a2c3a4139675fbbf8ca7ab0f92d6f11fd" target="_top" xlink:title="mexiface::explore::\lanalyze_int16">
<polygon fill="white" stroke="black" points="260.5,-321 260.5,-349 353.5,-349 353.5,-321 260.5,-321"/>
<text text-anchor="start" x="268.5" y="-337.8" font-family="Helvetica,sans-Serif" font-size="9.00">mexiface::explore::</text>
<text text-anchor="middle" x="307" y="-327.8" font-family="Helvetica,sans-Serif" font-size="9.00">analyze_int16</text>
</a>
</g>
</g>
<!-- Node5&#45;&gt;Node8 -->
<g id="edge10" class="edge"><title>Node5&#45;&gt;Node8</title>
<path fill="none" stroke="midnightblue" d="M192.591,-414.756C208.383,-399.781 234.712,-376.07 260,-359 262.531,-357.291 265.199,-355.614 267.923,-353.99"/>
<polygon fill="midnightblue" stroke="midnightblue" points="269.737,-356.985 276.714,-349.011 266.288,-350.894 269.737,-356.985"/>
</g>
<!-- Node9 -->
<g id="node9" class="node"><title>Node9</title>
<g id="a_node9"><a xlink:href="namespacemexiface_1_1explore.html#aa1951af918bc0b264d05f2db4fbec9e1" target="_top" xlink:title="mexiface::explore::\lanalyze_uint16">
<polygon fill="white" stroke="black" points="260.5,-274 260.5,-302 353.5,-302 353.5,-274 260.5,-274"/>
<text text-anchor="start" x="268.5" y="-290.8" font-family="Helvetica,sans-Serif" font-size="9.00">mexiface::explore::</text>
<text text-anchor="middle" x="307" y="-280.8" font-family="Helvetica,sans-Serif" font-size="9.00">analyze_uint16</text>
</a>
</g>
</g>
<!-- Node5&#45;&gt;Node9 -->
<g id="edge12" class="edge"><title>Node5&#45;&gt;Node9</title>
<path fill="none" stroke="midnightblue" d="M185.061,-414.75C197.451,-390.92 225.134,-342.592 260,-312 261.705,-310.504 263.521,-309.069 265.407,-307.7"/>
<polygon fill="midnightblue" stroke="midnightblue" points="267.535,-310.491 274.02,-302.113 263.726,-304.619 267.535,-310.491"/>
</g>
<!-- Node10 -->
<g id="node10" class="node"><title>Node10</title>
<g id="a_node10"><a xlink:href="namespacemexiface_1_1explore.html#ad8657b3604a735ef428823cdf0a72722" target="_top" xlink:title="mexiface::explore::\lanalyze_int32">
<polygon fill="white" stroke="black" points="260.5,-227 260.5,-255 353.5,-255 353.5,-227 260.5,-227"/>
<text text-anchor="start" x="268.5" y="-243.8" font-family="Helvetica,sans-Serif" font-size="9.00">mexiface::explore::</text>
<text text-anchor="middle" x="307" y="-233.8" font-family="Helvetica,sans-Serif" font-size="9.00">analyze_int32</text>
</a>
</g>
</g>
<!-- Node5&#45;&gt;Node10 -->
<g id="edge14" class="edge"><title>Node5&#45;&gt;Node10</title>
<path fill="none" stroke="midnightblue" d="M181.781,-414.948C190.676,-384.217 215.594,-310.178 260,-265 261.373,-263.603 262.845,-262.27 264.389,-261"/>
<polygon fill="midnightblue" stroke="midnightblue" points="266.462,-263.821 272.586,-255.176 262.407,-258.115 266.462,-263.821"/>
</g>
<!-- Node11 -->
<g id="node11" class="node"><title>Node11</title>
<g id="a_node11"><a xlink:href="namespacemexiface_1_1explore.html#aa0ebed3704023f9816e91293c9c08253" target="_top" xlink:title="mexiface::explore::\lanalyze_uint32">
<polygon fill="white" stroke="black" points="260.5,-650 260.5,-678 353.5,-678 353.5,-650 260.5,-650"/>
<text text-anchor="start" x="268.5" y="-666.8" font-family="Helvetica,sans-Serif" font-size="9.00">mexiface::explore::</text>
<text text-anchor="middle" x="307" y="-656.8" font-family="Helvetica,sans-Serif" font-size="9.00">analyze_uint32</text>
</a>
</g>
</g>
<!-- Node5&#45;&gt;Node11 -->
<g id="edge16" class="edge"><title>Node5&#45;&gt;Node11</title>
<path fill="none" stroke="midnightblue" d="M179.982,-443.101C185.807,-479.813 205.993,-579.686 260,-640 261.157,-641.292 262.4,-642.525 263.709,-643.701"/>
<polygon fill="midnightblue" stroke="midnightblue" points="261.715,-646.582 271.802,-649.824 265.939,-640.999 261.715,-646.582"/>
</g>
<!-- Node12 -->
<g id="node12" class="node"><title>Node12</title>
<g id="a_node12"><a xlink:href="namespacemexiface_1_1explore.html#a7025633935ccc85550b308e70b0fc771" target="_top" xlink:title="mexiface::explore::\lanalyze_int64">
<polygon fill="white" stroke="black" points="260.5,-603 260.5,-631 353.5,-631 353.5,-603 260.5,-603"/>
<text text-anchor="start" x="268.5" y="-619.8" font-family="Helvetica,sans-Serif" font-size="9.00">mexiface::explore::</text>
<text text-anchor="middle" x="307" y="-609.8" font-family="Helvetica,sans-Serif" font-size="9.00">analyze_int64</text>
</a>
</g>
</g>
<!-- Node5&#45;&gt;Node12 -->
<g id="edge18" class="edge"><title>Node5&#45;&gt;Node12</title>
<path fill="none" stroke="midnightblue" d="M181.781,-443.052C190.676,-473.783 215.594,-547.822 260,-593 261.373,-594.397 262.845,-595.73 264.389,-597"/>
<polygon fill="midnightblue" stroke="midnightblue" points="262.407,-599.885 272.586,-602.824 266.462,-594.179 262.407,-599.885"/>
</g>
<!-- Node13 -->
<g id="node13" class="node"><title>Node13</title>
<g id="a_node13"><a xlink:href="namespacemexiface_1_1explore.html#abe63c53129e4d37e66af71c8f66d9ae6" target="_top" xlink:title="mexiface::explore::\lanalyze_uint64">
<polygon fill="white" stroke="black" points="260.5,-556 260.5,-584 353.5,-584 353.5,-556 260.5,-556"/>
<text text-anchor="start" x="268.5" y="-572.8" font-family="Helvetica,sans-Serif" font-size="9.00">mexiface::explore::</text>
<text text-anchor="middle" x="307" y="-562.8" font-family="Helvetica,sans-Serif" font-size="9.00">analyze_uint64</text>
</a>
</g>
</g>
<!-- Node5&#45;&gt;Node13 -->
<g id="edge20" class="edge"><title>Node5&#45;&gt;Node13</title>
<path fill="none" stroke="midnightblue" d="M185.061,-443.25C197.451,-467.08 225.134,-515.408 260,-546 261.705,-547.496 263.521,-548.931 265.407,-550.3"/>
<polygon fill="midnightblue" stroke="midnightblue" points="263.726,-553.381 274.02,-555.887 267.535,-547.509 263.726,-553.381"/>
</g>
<!-- Node14 -->
<g id="node14" class="node"><title>Node14</title>
<g id="a_node14"><a xlink:href="namespacemexiface_1_1explore.html#acaf0a238e5467e317ae037a966647626" target="_top" xlink:title="mexiface::explore::\lanalyze_single">
<polygon fill="white" stroke="black" points="260.5,-509 260.5,-537 353.5,-537 353.5,-509 260.5,-509"/>
<text text-anchor="start" x="268.5" y="-525.8" font-family="Helvetica,sans-Serif" font-size="9.00">mexiface::explore::</text>
<text text-anchor="middle" x="307" y="-515.8" font-family="Helvetica,sans-Serif" font-size="9.00">analyze_single</text>
</a>
</g>
</g>
<!-- Node5&#45;&gt;Node14 -->
<g id="edge22" class="edge"><title>Node5&#45;&gt;Node14</title>
<path fill="none" stroke="midnightblue" d="M192.591,-443.244C208.383,-458.219 234.712,-481.93 260,-499 262.531,-500.709 265.199,-502.386 267.923,-504.01"/>
<polygon fill="midnightblue" stroke="midnightblue" points="266.288,-507.106 276.714,-508.989 269.737,-501.015 266.288,-507.106"/>
</g>
<!-- Node15 -->
<g id="node15" class="node"><title>Node15</title>
<g id="a_node15"><a xlink:href="namespacemexiface_1_1explore.html#a3b7a85eeb040efe041ae992581c3861b" target="_top" xlink:title="mexiface::explore::\lanalyze_double">
<polygon fill="white" stroke="black" points="260.5,-462 260.5,-490 353.5,-490 353.5,-462 260.5,-462"/>
<text text-anchor="start" x="268.5" y="-478.8" font-family="Helvetica,sans-Serif" font-size="9.00">mexiface::explore::</text>
<text text-anchor="middle" x="307" y="-468.8" font-family="Helvetica,sans-Serif" font-size="9.00">analyze_double</text>
</a>
</g>
</g>
<!-- Node5&#45;&gt;Node15 -->
<g id="edge24" class="edge"><title>Node5&#45;&gt;Node15</title>
<path fill="none" stroke="midnightblue" d="M216.404,-443.102C229.441,-447.888 244.173,-453.298 257.871,-458.328"/>
<polygon fill="midnightblue" stroke="midnightblue" points="257.029,-461.747 267.623,-461.908 259.442,-455.176 257.029,-461.747"/>
</g>
<!-- Node6&#45;&gt;Node3 -->
<g id="edge7" class="edge"><title>Node6&#45;&gt;Node3</title>
<path fill="none" stroke="midnightblue" d="M335.337,-414.964C341.5,-411.736 347.994,-408.286 354,-405 370.331,-396.064 388.293,-385.817 403.231,-377.177"/>
<polygon fill="midnightblue" stroke="midnightblue" points="405.208,-380.077 412.101,-372.031 401.695,-374.022 405.208,-380.077"/>
</g>
<!-- Node7&#45;&gt;Node3 -->
<g id="edge9" class="edge"><title>Node7&#45;&gt;Node3</title>
<path fill="none" stroke="midnightblue" d="M353.849,-373.403C362.501,-371.781 371.636,-370.068 380.545,-368.398"/>
<polygon fill="midnightblue" stroke="midnightblue" points="381.287,-371.82 390.471,-366.537 379.997,-364.94 381.287,-371.82"/>
</g>
<!-- Node8&#45;&gt;Node3 -->
<g id="edge11" class="edge"><title>Node8&#45;&gt;Node3</title>
<path fill="none" stroke="midnightblue" d="M353.849,-343.239C362.501,-344.793 371.636,-346.435 380.545,-348.035"/>
<polygon fill="midnightblue" stroke="midnightblue" points="380.009,-351.495 390.471,-349.819 381.247,-344.605 380.009,-351.495"/>
</g>
<!-- Node9&#45;&gt;Node3 -->
<g id="edge13" class="edge"><title>Node9&#45;&gt;Node3</title>
<path fill="none" stroke="midnightblue" d="M335.315,-302.078C341.479,-305.303 347.979,-308.742 354,-312 370.049,-320.686 387.719,-330.558 402.534,-338.924"/>
<polygon fill="midnightblue" stroke="midnightblue" points="400.922,-342.034 411.349,-343.914 404.371,-335.942 400.922,-342.034"/>
</g>
<!-- Node10&#45;&gt;Node3 -->
<g id="edge15" class="edge"><title>Node10&#45;&gt;Node3</title>
<path fill="none" stroke="midnightblue" d="M339.154,-255.251C344.318,-258.167 349.462,-261.445 354,-265 380.274,-285.583 404.803,-315.35 420.061,-335.624"/>
<polygon fill="midnightblue" stroke="midnightblue" points="417.446,-337.975 426.202,-343.941 423.078,-333.817 417.446,-337.975"/>
</g>
<!-- Node11&#45;&gt;Node3 -->
<g id="edge17" class="edge"><title>Node11&#45;&gt;Node3</title>
<path fill="none" stroke="midnightblue" d="M342.965,-649.781C347.088,-647.006 350.917,-643.762 354,-640 418.259,-561.575 432.166,-434.833 435.172,-382.158"/>
<polygon fill="midnightblue" stroke="midnightblue" points="438.672,-382.244 435.662,-372.086 431.68,-381.904 438.672,-382.244"/>
</g>
<!-- Node12&#45;&gt;Node3 -->
<g id="edge19" class="edge"><title>Node12&#45;&gt;Node3</title>
<path fill="none" stroke="midnightblue" d="M342.319,-602.93C346.644,-600.111 350.701,-596.816 354,-593 408.546,-529.9 427.455,-428.352 433.457,-382.21"/>
<polygon fill="midnightblue" stroke="midnightblue" points="436.938,-382.577 434.664,-372.23 429.989,-381.737 436.938,-382.577"/>
</g>
<!-- Node13&#45;&gt;Node3 -->
<g id="edge21" class="edge"><title>Node13&#45;&gt;Node3</title>
<path fill="none" stroke="midnightblue" d="M341.591,-555.994C346.126,-553.142 350.436,-549.821 354,-546 399.067,-497.682 421.883,-420.639 431.027,-381.896"/>
<polygon fill="midnightblue" stroke="midnightblue" points="434.464,-382.566 433.251,-372.04 427.636,-381.025 434.464,-382.566"/>
</g>
<!-- Node14&#45;&gt;Node3 -->
<g id="edge23" class="edge"><title>Node14&#45;&gt;Node3</title>
<path fill="none" stroke="midnightblue" d="M340.731,-508.902C345.489,-506.035 350.092,-502.733 354,-499 389.692,-464.909 414.794,-411.878 427.181,-381.501"/>
<polygon fill="midnightblue" stroke="midnightblue" points="430.465,-382.714 430.891,-372.128 423.956,-380.138 430.465,-382.714"/>
</g>
<!-- Node15&#45;&gt;Node3 -->
<g id="edge25" class="edge"><title>Node15&#45;&gt;Node3</title>
<path fill="none" stroke="midnightblue" d="M339.17,-461.77C344.332,-458.851 349.471,-455.567 354,-452 380.497,-431.129 405.105,-400.86 420.314,-380.353"/>
<polygon fill="midnightblue" stroke="midnightblue" points="423.18,-382.363 426.235,-372.219 417.521,-378.244 423.18,-382.363"/>
</g>
<!-- Node16&#45;&gt;Node3 -->
<g id="edge27" class="edge"><title>Node16&#45;&gt;Node3</title>
<path fill="none" stroke="midnightblue" d="M223.504,-62.745C262.895,-66.6433 318.906,-78.2728 354,-112 417.538,-173.064 431.852,-284.578 435.07,-333.684"/>
<polygon fill="midnightblue" stroke="midnightblue" points="431.592,-334.178 435.638,-343.97 438.581,-333.792 431.592,-334.178"/>
</g>
<!-- Node18&#45;&gt;Node3 -->
<g id="edge30" class="edge"><title>Node18&#45;&gt;Node3</title>
<path fill="none" stroke="midnightblue" d="M223.521,-15.2982C263.199,-18.8868 319.629,-30.3125 354,-65 428.61,-140.297 436.636,-277.587 436.62,-333.411"/>
<polygon fill="midnightblue" stroke="midnightblue" points="433.117,-333.709 436.521,-343.742 440.117,-333.776 433.117,-333.709"/>
</g>
<!-- Node19&#45;&gt;Node1 -->
<g id="edge34" class="edge"><title>Node19&#45;&gt;Node1</title>
<path fill="none" stroke="midnightblue" d="M130.326,-191.727C114.09,-186.224 96.1357,-179.465 81.1483,-173.17"/>
<polygon fill="midnightblue" stroke="midnightblue" points="82.3437,-169.873 71.7758,-169.118 79.5661,-176.299 82.3437,-169.873"/>
</g>
<!-- Node19&#45;&gt;Node3 -->
<g id="edge32" class="edge"><title>Node19&#45;&gt;Node3</title>
<path fill="none" stroke="midnightblue" d="M223.547,-194.927C261.392,-191.469 315.138,-192.389 354,-217 396.528,-243.932 419.532,-301.447 429.621,-334.087"/>
<polygon fill="midnightblue" stroke="midnightblue" points="426.279,-335.129 432.451,-343.74 432.996,-333.159 426.279,-335.129"/>
</g>
<!-- Node19&#45;&gt;Node4 -->
<g id="edge33" class="edge"><title>Node19&#45;&gt;Node4</title>
<path fill="none" stroke="midnightblue" d="M216.404,-187.898C229.441,-183.112 244.173,-177.702 257.871,-172.672"/>
<polygon fill="midnightblue" stroke="midnightblue" points="259.442,-175.824 267.623,-169.092 257.029,-169.253 259.442,-175.824"/>
</g>
</g>
</svg>
        <g id="navigator" transform="translate(0 0)" fill="#404254">
                <rect fill="#f2f5e9" fill-opacity="0.5" stroke="#606060" stroke-width=".5" x="0" y="0" width="60" height="60"/>
                <use id="zoomplus" xlink:href="#zoomPlus" x="17" y="9" onmousedown="handleZoom(evt,'in')"/>
                <use id="zoomminus" xlink:href="#zoomMin" x="42" y="9" onmousedown="handleZoom(evt,'out')"/>
                <use id="reset" xlink:href="#resetDef" x="30" y="36" onmousedown="handleReset()"/>
                <g id="arrowUp" xlink:href="#dirArrow" transform="translate(30 24)" onmousedown="handlePan(0,-1)">
                  <use xlink:href="#rim" fill="#404040">
                        <set attributeName="fill" to="#808080" begin="arrowUp.mouseover" end="arrowUp.mouseout"/>
                  </use>
                  <path fill="none" stroke="white" stroke-width="1.5" d="M0,-3.0v7 M-2.5,-0.5L0,-3.0L2.5,-0.5"/>
                </g>
                <g id="arrowRight" xlink:href="#dirArrow" transform="rotate(90) translate(36 -43)" onmousedown="handlePan(1,0)">
                  <use xlink:href="#rim" fill="#404040">
                        <set attributeName="fill" to="#808080" begin="arrowRight.mouseover" end="arrowRight.mouseout"/>
                  </use>
                  <path fill="none" stroke="white" stroke-width="1.5" d="M0,-3.0v7 M-2.5,-0.5L0,-3.0L2.5,-0.5"/>
                </g>
                <g id="arrowDown" xlink:href="#dirArrow" transform="rotate(180) translate(-30 -48)" onmousedown="handlePan(0,1)">
                  <use xlink:href="#rim" fill="#404040">
                        <set attributeName="fill" to="#808080" begin="arrowDown.mouseover" end="arrowDown.mouseout"/>
                  </use>
                  <path fill="none" stroke="white" stroke-width="1.5" d="M0,-3.0v7 M-2.5,-0.5L0,-3.0L2.5,-0.5"/>
                </g>
                <g id="arrowLeft" xlink:href="#dirArrow" transform="rotate(270) translate(-36 17)" onmousedown="handlePan(-1,0)">
                  <use xlink:href="#rim" fill="#404040">
                        <set attributeName="fill" to="#808080" begin="arrowLeft.mouseover" end="arrowLeft.mouseout"/>
                  </use>
                  <path fill="none" stroke="white" stroke-width="1.5" d="M0,-3.0v7 M-2.5,-0.5L0,-3.0L2.5,-0.5"/>
                </g>
        </g>
        <svg viewBox="0 0 15 15" width="100%" height="30px" preserveAspectRatio="xMaxYMin meet">
         <g id="arrow_out" transform="scale(0.3 0.3)">
          <a xlink:href="namespacemexiface_1_1explore_a5a5c7c4c0ce2b61c1fe8f55cd7a685c8_cgraph_org.svg" target="_base">
           <rect id="button" ry="5" rx="5" y="6" x="6" height="38" width="38"
                fill="#f2f5e9" fill-opacity="0.5" stroke="#606060" stroke-width="1.0"/>
           <path id="arrow"
             d="M 11.500037,31.436501 C 11.940474,20.09759 22.043105,11.32322 32.158766,21.979434 L 37.068811,17.246167 C 37.068811,17.246167 37.088388,32 37.088388,32 L 22.160133,31.978069 C 22.160133,31.978069 26.997745,27.140456 26.997745,27.140456 C 18.528582,18.264221 13.291696,25.230495 11.500037,31.436501 z"
             style="fill:#404040;"/>
          </a>
         </g>
        </svg>
</svg>
