<?xml version="1.0" encoding="UTF-8" standalone="no"?>
<!DOCTYPE svg PUBLIC "-//W3C//DTD SVG 1.1//EN"
 "http://www.w3.org/Graphics/SVG/1.1/DTD/svg11.dtd">
<!-- Generated by graphviz version 2.38.0 (20140413.2041)
 -->
<!-- Title: mexiface::demangle Pages: 1 -->
<svg width="286pt" height="64pt"
 viewBox="0.00 0.00 286.00 64.00" xmlns="http://www.w3.org/2000/svg" xmlns:xlink="http://www.w3.org/1999/xlink">
<g id="graph0" class="graph" transform="scale(1 1) rotate(0) translate(4 60)">
<title>mexiface::demangle</title>
<polygon fill="white" stroke="none" points="-4,4 -4,-60 282,-60 282,4 -4,4"/>
<!-- Node1 -->
<g id="node1" class="node"><title>Node1</title>
<polygon fill="#bfbfbf" stroke="black" points="0,-18.5 0,-36.5 99,-36.5 99,-18.5 0,-18.5"/>
<text text-anchor="middle" x="49.5" y="-25.3" font-family="Helvetica,sans-Serif" font-size="9.00">mexiface::demangle</text>
</g>
<!-- Node2 -->
<g id="node2" class="node"><title>Node2</title>
<g id="a_node2"><a xlink:href="namespacemexiface.html#a0a61f21777cac291b7baabb5726aacc1" target="_top" xlink:title="Returns a string representation of the mxArray class name. ">
<polygon fill="white" stroke="black" points="135,-37.5 135,-55.5 278,-55.5 278,-37.5 135,-37.5"/>
<text text-anchor="middle" x="206.5" y="-44.3" font-family="Helvetica,sans-Serif" font-size="9.00">mexiface::get_mx_class_name</text>
</a>
</g>
</g>
<!-- Node1&#45;&gt;Node2 -->
<g id="edge1" class="edge"><title>Node1&#45;&gt;Node2</title>
<path fill="none" stroke="midnightblue" d="M109.186,-34.6938C117.592,-35.7241 126.312,-36.793 134.917,-37.8479"/>
<polygon fill="midnightblue" stroke="midnightblue" points="109.469,-31.2024 99.1177,-33.4596 108.618,-38.1504 109.469,-31.2024"/>
</g>
<!-- Node3 -->
<g id="node3" class="node"><title>Node3</title>
<g id="a_node3"><a xlink:href="namespacemexiface.html#a946b0b127870642dbd698c747c3beea3" target="_top" xlink:title="mexiface::type_name">
<polygon fill="white" stroke="black" points="154.5,-0.5 154.5,-18.5 258.5,-18.5 258.5,-0.5 154.5,-0.5"/>
<text text-anchor="middle" x="206.5" y="-7.3" font-family="Helvetica,sans-Serif" font-size="9.00">mexiface::type_name</text>
</a>
</g>
</g>
<!-- Node1&#45;&gt;Node3 -->
<g id="edge2" class="edge"><title>Node1&#45;&gt;Node3</title>
<path fill="none" stroke="midnightblue" d="M109.221,-20.6808C124.082,-18.955 139.924,-17.1153 154.376,-15.4369"/>
<polygon fill="midnightblue" stroke="midnightblue" points="108.647,-17.2238 99.1177,-21.8541 109.455,-24.1771 108.647,-17.2238"/>
</g>
</g>
</svg>
