<?xml version="1.0" encoding="UTF-8" standalone="no"?>
<!DOCTYPE svg PUBLIC "-//W3C//DTD SVG 1.1//EN"
 "http://www.w3.org/Graphics/SVG/1.1/DTD/svg11.dtd">
<!-- Generated by graphviz version 2.36.0 (20140111.2315)
 -->
<!-- Title: mexiface::explore::display_subscript Pages: 1 -->
<svg width="654pt" height="572pt"
 viewBox="0.00 0.00 654.00 572.16" xmlns="http://www.w3.org/2000/svg" xmlns:xlink="http://www.w3.org/1999/xlink">
<g id="graph0" class="graph" transform="scale(1 1) rotate(0) translate(4 568.156)">
<title>mexiface::explore::display_subscript</title>
<polygon fill="white" stroke="none" points="-4,4 -4,-568.156 650,-568.156 650,4 -4,4"/>
<!-- Node1 -->
<g id="node1" class="node"><title>Node1</title>
<polygon fill="#bfbfbf" stroke="black" points="0.5,-263.23 0.5,-291.23 93.5,-291.23 93.5,-263.23 0.5,-263.23"/>
<text text-anchor="start" x="8.5" y="-280.03" font-family="Helvetica,sans-Serif" font-size="9.00">mexiface::explore::</text>
<text text-anchor="middle" x="47" y="-270.03" font-family="Helvetica,sans-Serif" font-size="9.00">display_subscript</text>
</g>
<!-- Node2 -->
<g id="node2" class="node"><title>Node2</title>
<g id="a_node2"><a xlink:href="namespacemexiface_1_1explore.html#a2fd795aab0989018a48cfce5b8f63719" target="_top" xlink:title="mexiface::explore::\lanalyze_cell">
<polygon fill="white" stroke="black" points="260.5,-311.23 260.5,-339.23 353.5,-339.23 353.5,-311.23 260.5,-311.23"/>
<text text-anchor="start" x="268.5" y="-328.03" font-family="Helvetica,sans-Serif" font-size="9.00">mexiface::explore::</text>
<text text-anchor="middle" x="307" y="-318.03" font-family="Helvetica,sans-Serif" font-size="9.00">analyze_cell</text>
</a>
</g>
</g>
<!-- Node1&#45;&gt;Node2 -->
<g id="edge1" class="edge"><title>Node1&#45;&gt;Node2</title>
<path fill="none" stroke="midnightblue" d="M48.0079,-301.348C49.4928,-350.772 60.727,-463.033 130,-512.23 164.062,-536.42 189.026,-535.082 224,-512.23 285.132,-472.285 300.977,-375.54 304.834,-339.273"/>
<polygon fill="midnightblue" stroke="midnightblue" points="51.5058,-301.199 47.8174,-291.267 44.507,-301.331 51.5058,-301.199"/>
</g>
<!-- Node4 -->
<g id="node4" class="node"><title>Node4</title>
<g id="a_node4"><a xlink:href="namespacemexiface_1_1explore.html#a6205a96e991f64a98345df5645dd0ba5" target="_top" xlink:title="mexiface::explore::\lanalyze_structure">
<polygon fill="white" stroke="black" points="536.5,-308.23 536.5,-336.23 629.5,-336.23 629.5,-308.23 536.5,-308.23"/>
<text text-anchor="start" x="544.5" y="-325.03" font-family="Helvetica,sans-Serif" font-size="9.00">mexiface::explore::</text>
<text text-anchor="middle" x="583" y="-315.03" font-family="Helvetica,sans-Serif" font-size="9.00">analyze_structure</text>
</a>
</g>
</g>
<!-- Node1&#45;&gt;Node4 -->
<g id="edge24" class="edge"><title>Node1&#45;&gt;Node4</title>
<path fill="none" stroke="midnightblue" d="M47.1942,-301.346C46.9134,-354.046 54.6233,-479.16 130,-534.23 287.119,-649.021 516.275,-399.441 570.29,-336.283"/>
<polygon fill="midnightblue" stroke="midnightblue" points="50.6952,-301.305 47.3539,-291.25 43.6961,-301.194 50.6952,-301.305"/>
</g>
<!-- Node6 -->
<g id="node6" class="node"><title>Node6</title>
<g id="a_node6"><a xlink:href="namespacemexiface_1_1explore.html#a3b7a85eeb040efe041ae992581c3861b" target="_top" xlink:title="mexiface::explore::\lanalyze_double">
<polygon fill="white" stroke="black" points="130.5,-475.23 130.5,-503.23 223.5,-503.23 223.5,-475.23 130.5,-475.23"/>
<text text-anchor="start" x="138.5" y="-492.03" font-family="Helvetica,sans-Serif" font-size="9.00">mexiface::explore::</text>
<text text-anchor="middle" x="177" y="-482.03" font-family="Helvetica,sans-Serif" font-size="9.00">analyze_double</text>
</a>
</g>
</g>
<!-- Node1&#45;&gt;Node6 -->
<g id="edge7" class="edge"><title>Node1&#45;&gt;Node6</title>
<path fill="none" stroke="midnightblue" d="M52.9727,-301.126C62.1169,-339.869 84.9329,-416.912 130,-465.23 133.564,-469.051 137.874,-472.372 142.409,-475.224"/>
<polygon fill="midnightblue" stroke="midnightblue" points="56.3641,-300.255 50.7489,-291.27 49.5357,-301.796 56.3641,-300.255"/>
</g>
<!-- Node8 -->
<g id="node8" class="node"><title>Node8</title>
<g id="a_node8"><a xlink:href="namespacemexiface_1_1explore.html#a2c3a4139675fbbf8ca7ab0f92d6f11fd" target="_top" xlink:title="mexiface::explore::\lanalyze_int16">
<polygon fill="white" stroke="black" points="130.5,-428.23 130.5,-456.23 223.5,-456.23 223.5,-428.23 130.5,-428.23"/>
<text text-anchor="start" x="138.5" y="-445.03" font-family="Helvetica,sans-Serif" font-size="9.00">mexiface::explore::</text>
<text text-anchor="middle" x="177" y="-435.03" font-family="Helvetica,sans-Serif" font-size="9.00">analyze_int16</text>
</a>
</g>
</g>
<!-- Node1&#45;&gt;Node8 -->
<g id="edge10" class="edge"><title>Node1&#45;&gt;Node8</title>
<path fill="none" stroke="midnightblue" d="M56.8193,-300.731C69.2064,-331.108 94.3082,-384.139 130,-418.23 133.908,-421.963 138.511,-425.264 143.269,-428.132"/>
<polygon fill="midnightblue" stroke="midnightblue" points="60.0439,-299.368 53.1089,-291.358 53.5353,-301.944 60.0439,-299.368"/>
</g>
<!-- Node9 -->
<g id="node9" class="node"><title>Node9</title>
<g id="a_node9"><a xlink:href="namespacemexiface_1_1explore.html#ad8657b3604a735ef428823cdf0a72722" target="_top" xlink:title="mexiface::explore::\lanalyze_int32">
<polygon fill="white" stroke="black" points="130.5,-381.23 130.5,-409.23 223.5,-409.23 223.5,-381.23 130.5,-381.23"/>
<text text-anchor="start" x="138.5" y="-398.03" font-family="Helvetica,sans-Serif" font-size="9.00">mexiface::explore::</text>
<text text-anchor="middle" x="177" y="-388.03" font-family="Helvetica,sans-Serif" font-size="9.00">analyze_int32</text>
</a>
</g>
</g>
<!-- Node1&#45;&gt;Node9 -->
<g id="edge12" class="edge"><title>Node1&#45;&gt;Node9</title>
<path fill="none" stroke="midnightblue" d="M63.6858,-299.583C78.8954,-320.09 103.503,-350.359 130,-371.23 134.529,-374.797 139.668,-378.081 144.83,-381"/>
<polygon fill="midnightblue" stroke="midnightblue" points="66.4795,-297.474 57.7648,-291.449 60.8199,-301.593 66.4795,-297.474"/>
</g>
<!-- Node10 -->
<g id="node10" class="node"><title>Node10</title>
<g id="a_node10"><a xlink:href="namespacemexiface_1_1explore.html#a7025633935ccc85550b308e70b0fc771" target="_top" xlink:title="mexiface::explore::\lanalyze_int64">
<polygon fill="white" stroke="black" points="130.5,-334.23 130.5,-362.23 223.5,-362.23 223.5,-334.23 130.5,-334.23"/>
<text text-anchor="start" x="138.5" y="-351.03" font-family="Helvetica,sans-Serif" font-size="9.00">mexiface::explore::</text>
<text text-anchor="middle" x="177" y="-341.03" font-family="Helvetica,sans-Serif" font-size="9.00">analyze_int64</text>
</a>
</g>
</g>
<!-- Node1&#45;&gt;Node10 -->
<g id="edge14" class="edge"><title>Node1&#45;&gt;Node10</title>
<path fill="none" stroke="midnightblue" d="M80.7685,-296.407C95.7075,-305.047 113.669,-315.294 130,-324.23 136.006,-327.516 142.5,-330.966 148.663,-334.194"/>
<polygon fill="midnightblue" stroke="midnightblue" points="82.3051,-293.252 71.8991,-291.261 78.792,-299.307 82.3051,-293.252"/>
</g>
<!-- Node11 -->
<g id="node11" class="node"><title>Node11</title>
<g id="a_node11"><a xlink:href="namespacemexiface_1_1explore.html#abbbd19941bd43d361d33e21fb0dadbae" target="_top" xlink:title="mexiface::explore::\lanalyze_int8">
<polygon fill="white" stroke="black" points="130.5,-287.23 130.5,-315.23 223.5,-315.23 223.5,-287.23 130.5,-287.23"/>
<text text-anchor="start" x="138.5" y="-304.03" font-family="Helvetica,sans-Serif" font-size="9.00">mexiface::explore::</text>
<text text-anchor="middle" x="177" y="-294.03" font-family="Helvetica,sans-Serif" font-size="9.00">analyze_int8</text>
</a>
</g>
</g>
<!-- Node1&#45;&gt;Node11 -->
<g id="edge16" class="edge"><title>Node1&#45;&gt;Node11</title>
<path fill="none" stroke="midnightblue" d="M103.785,-287.69C112.7,-289.361 121.831,-291.073 130.471,-292.693"/>
<polygon fill="midnightblue" stroke="midnightblue" points="104.323,-284.23 93.8494,-285.827 103.033,-291.11 104.323,-284.23"/>
</g>
<!-- Node12 -->
<g id="node12" class="node"><title>Node12</title>
<g id="a_node12"><a xlink:href="namespacemexiface_1_1explore.html#ae6d95ef17338c9baa90e1ce1c3e33d0f" target="_top" xlink:title="mexiface::explore::\lanalyze_logical">
<polygon fill="white" stroke="black" points="260.5,-162.23 260.5,-190.23 353.5,-190.23 353.5,-162.23 260.5,-162.23"/>
<text text-anchor="start" x="268.5" y="-179.03" font-family="Helvetica,sans-Serif" font-size="9.00">mexiface::explore::</text>
<text text-anchor="middle" x="307" y="-169.03" font-family="Helvetica,sans-Serif" font-size="9.00">analyze_logical</text>
</a>
</g>
</g>
<!-- Node1&#45;&gt;Node12 -->
<g id="edge18" class="edge"><title>Node1&#45;&gt;Node12</title>
<path fill="none" stroke="midnightblue" d="M48.0079,-253.112C49.4928,-203.688 60.727,-91.4272 130,-42.23 164.062,-18.0395 187.555,-21.805 224,-42.23 270.633,-68.3649 293.926,-133.029 302.283,-161.905"/>
<polygon fill="midnightblue" stroke="midnightblue" points="44.507,-253.129 47.8174,-263.193 51.5058,-253.261 44.507,-253.129"/>
</g>
<!-- Node13 -->
<g id="node13" class="node"><title>Node13</title>
<g id="a_node13"><a xlink:href="namespacemexiface_1_1explore.html#acaf0a238e5467e317ae037a966647626" target="_top" xlink:title="mexiface::explore::\lanalyze_single">
<polygon fill="white" stroke="black" points="130.5,-240.23 130.5,-268.23 223.5,-268.23 223.5,-240.23 130.5,-240.23"/>
<text text-anchor="start" x="138.5" y="-257.03" font-family="Helvetica,sans-Serif" font-size="9.00">mexiface::explore::</text>
<text text-anchor="middle" x="177" y="-247.03" font-family="Helvetica,sans-Serif" font-size="9.00">analyze_single</text>
</a>
</g>
</g>
<!-- Node1&#45;&gt;Node13 -->
<g id="edge20" class="edge"><title>Node1&#45;&gt;Node13</title>
<path fill="none" stroke="midnightblue" d="M103.785,-267.206C112.7,-265.604 121.831,-263.963 130.471,-262.411"/>
<polygon fill="midnightblue" stroke="midnightblue" points="103.073,-263.778 93.8494,-268.991 104.311,-270.668 103.073,-263.778"/>
</g>
<!-- Node14 -->
<g id="node14" class="node"><title>Node14</title>
<g id="a_node14"><a xlink:href="namespacemexiface_1_1explore.html#aaa319b6e0131959ff3d2fbd9a4c368b3" target="_top" xlink:title="mexiface::explore::\lanalyze_string">
<polygon fill="white" stroke="black" points="260.5,-4.22995 260.5,-32.23 353.5,-32.23 353.5,-4.22995 260.5,-4.22995"/>
<text text-anchor="start" x="268.5" y="-21.03" font-family="Helvetica,sans-Serif" font-size="9.00">mexiface::explore::</text>
<text text-anchor="middle" x="307" y="-11.03" font-family="Helvetica,sans-Serif" font-size="9.00">analyze_string</text>
</a>
</g>
</g>
<!-- Node1&#45;&gt;Node14 -->
<g id="edge22" class="edge"><title>Node1&#45;&gt;Node14</title>
<path fill="none" stroke="midnightblue" d="M47.3557,-253.053C47.4377,-200.788 55.8926,-77.5442 130,-22.23 166.984,5.3754 221.572,1.80672 260.129,-5.7647"/>
<polygon fill="midnightblue" stroke="midnightblue" points="43.856,-253.11 47.4447,-263.078 50.8557,-253.048 43.856,-253.11"/>
</g>
<!-- Node15 -->
<g id="node15" class="node"><title>Node15</title>
<g id="a_node15"><a xlink:href="namespacemexiface_1_1explore.html#aa1951af918bc0b264d05f2db4fbec9e1" target="_top" xlink:title="mexiface::explore::\lanalyze_uint16">
<polygon fill="white" stroke="black" points="130.5,-193.23 130.5,-221.23 223.5,-221.23 223.5,-193.23 130.5,-193.23"/>
<text text-anchor="start" x="138.5" y="-210.03" font-family="Helvetica,sans-Serif" font-size="9.00">mexiface::explore::</text>
<text text-anchor="middle" x="177" y="-200.03" font-family="Helvetica,sans-Serif" font-size="9.00">analyze_uint16</text>
</a>
</g>
</g>
<!-- Node1&#45;&gt;Node15 -->
<g id="edge25" class="edge"><title>Node1&#45;&gt;Node15</title>
<path fill="none" stroke="midnightblue" d="M81.4664,-258.154C96.2808,-249.788 113.951,-239.916 130,-231.23 136.021,-227.972 142.521,-224.533 148.685,-221.307"/>
<polygon fill="midnightblue" stroke="midnightblue" points="79.6293,-255.172 72.6513,-263.144 83.0779,-261.264 79.6293,-255.172"/>
</g>
<!-- Node16 -->
<g id="node16" class="node"><title>Node16</title>
<g id="a_node16"><a xlink:href="namespacemexiface_1_1explore.html#aa0ebed3704023f9816e91293c9c08253" target="_top" xlink:title="mexiface::explore::\lanalyze_uint32">
<polygon fill="white" stroke="black" points="130.5,-146.23 130.5,-174.23 223.5,-174.23 223.5,-146.23 130.5,-146.23"/>
<text text-anchor="start" x="138.5" y="-163.03" font-family="Helvetica,sans-Serif" font-size="9.00">mexiface::explore::</text>
<text text-anchor="middle" x="177" y="-153.03" font-family="Helvetica,sans-Serif" font-size="9.00">analyze_uint32</text>
</a>
</g>
</g>
<!-- Node1&#45;&gt;Node16 -->
<g id="edge27" class="edge"><title>Node1&#45;&gt;Node16</title>
<path fill="none" stroke="midnightblue" d="M63.9388,-254.854C79.1974,-234.58 103.726,-204.813 130,-184.23 134.538,-180.675 139.682,-177.397 144.846,-174.481"/>
<polygon fill="midnightblue" stroke="midnightblue" points="60.9223,-253.047 57.7981,-263.171 66.5537,-257.205 60.9223,-253.047"/>
</g>
<!-- Node17 -->
<g id="node17" class="node"><title>Node17</title>
<g id="a_node17"><a xlink:href="namespacemexiface_1_1explore.html#abe63c53129e4d37e66af71c8f66d9ae6" target="_top" xlink:title="mexiface::explore::\lanalyze_uint64">
<polygon fill="white" stroke="black" points="130.5,-99.23 130.5,-127.23 223.5,-127.23 223.5,-99.23 130.5,-99.23"/>
<text text-anchor="start" x="138.5" y="-116.03" font-family="Helvetica,sans-Serif" font-size="9.00">mexiface::explore::</text>
<text text-anchor="middle" x="177" y="-106.03" font-family="Helvetica,sans-Serif" font-size="9.00">analyze_uint64</text>
</a>
</g>
</g>
<!-- Node1&#45;&gt;Node17 -->
<g id="edge29" class="edge"><title>Node1&#45;&gt;Node17</title>
<path fill="none" stroke="midnightblue" d="M56.7299,-253.634C69.0197,-223.154 94.0157,-170.012 130,-136.23 133.515,-132.93 137.594,-129.999 141.843,-127.427"/>
<polygon fill="midnightblue" stroke="midnightblue" points="53.4336,-252.453 53.0516,-263.041 59.953,-255.003 53.4336,-252.453"/>
</g>
<!-- Node18 -->
<g id="node18" class="node"><title>Node18</title>
<g id="a_node18"><a xlink:href="namespacemexiface_1_1explore.html#ae0e1687942c1e218a665eedeadc63456" target="_top" xlink:title="mexiface::explore::\lanalyze_uint8">
<polygon fill="white" stroke="black" points="130.5,-52.23 130.5,-80.23 223.5,-80.23 223.5,-52.23 130.5,-52.23"/>
<text text-anchor="start" x="138.5" y="-69.03" font-family="Helvetica,sans-Serif" font-size="9.00">mexiface::explore::</text>
<text text-anchor="middle" x="177" y="-59.03" font-family="Helvetica,sans-Serif" font-size="9.00">analyze_uint8</text>
</a>
</g>
</g>
<!-- Node1&#45;&gt;Node18 -->
<g id="edge31" class="edge"><title>Node1&#45;&gt;Node18</title>
<path fill="none" stroke="midnightblue" d="M52.8784,-253.245C61.8886,-214.376 84.5181,-137.158 130,-89.23 133.196,-85.8621 136.992,-82.9134 141.011,-80.3527"/>
<polygon fill="midnightblue" stroke="midnightblue" points="49.4333,-252.615 50.6906,-263.135 56.268,-254.127 49.4333,-252.615"/>
</g>
<!-- Node3 -->
<g id="node3" class="node"><title>Node3</title>
<g id="a_node3"><a xlink:href="namespacemexiface_1_1explore.html#a5a5c7c4c0ce2b61c1fe8f55cd7a685c8" target="_top" xlink:title="mexiface::explore::\lanalyze_class">
<polygon fill="white" stroke="black" points="390.5,-287.23 390.5,-315.23 483.5,-315.23 483.5,-287.23 390.5,-287.23"/>
<text text-anchor="start" x="398.5" y="-304.03" font-family="Helvetica,sans-Serif" font-size="9.00">mexiface::explore::</text>
<text text-anchor="middle" x="437" y="-294.03" font-family="Helvetica,sans-Serif" font-size="9.00">analyze_class</text>
</a>
</g>
</g>
<!-- Node2&#45;&gt;Node3 -->
<g id="edge2" class="edge"><title>Node2&#45;&gt;Node3</title>
<path fill="none" stroke="midnightblue" d="M358.648,-309.116C369.063,-306.954 379.972,-304.947 390.204,-303.315"/>
<polygon fill="midnightblue" stroke="midnightblue" points="357.889,-305.699 348.852,-311.229 359.365,-312.541 357.889,-305.699"/>
</g>
<!-- Node3&#45;&gt;Node2 -->
<g id="edge3" class="edge"><title>Node3&#45;&gt;Node2</title>
<path fill="none" stroke="midnightblue" d="M385.363,-317.342C374.963,-319.501 364.069,-321.505 353.849,-323.136"/>
<polygon fill="midnightblue" stroke="midnightblue" points="386.108,-320.762 395.145,-315.232 384.632,-313.919 386.108,-320.762"/>
</g>
<!-- Node3&#45;&gt;Node4 -->
<g id="edge4" class="edge"><title>Node3&#45;&gt;Node4</title>
<path fill="none" stroke="midnightblue" d="M493.634,-302.751C507.725,-304.53 522.7,-306.8 536.24,-309.222"/>
<polygon fill="midnightblue" stroke="midnightblue" points="493.907,-299.259 483.562,-301.546 493.076,-306.209 493.907,-299.259"/>
</g>
<!-- Node5 -->
<g id="node5" class="node"><title>Node5</title>
<g id="a_node5"><a xlink:href="namespacemexiface.html#ae54146cf35d29dcc6c83a8ca96b62549" target="_top" xlink:title="Given the arguments to a matlab mex function call, print out the details of each arguments. ">
<polygon fill="white" stroke="black" points="520.5,-271.23 520.5,-289.23 645.5,-289.23 645.5,-271.23 520.5,-271.23"/>
<text text-anchor="middle" x="583" y="-278.03" font-family="Helvetica,sans-Serif" font-size="9.00">mexiface::exploreMexArgs</text>
</a>
</g>
</g>
<!-- Node3&#45;&gt;Node5 -->
<g id="edge6" class="edge"><title>Node3&#45;&gt;Node5</title>
<path fill="none" stroke="midnightblue" d="M493.658,-293.113C502.42,-291.835 511.522,-290.508 520.409,-289.212"/>
<polygon fill="midnightblue" stroke="midnightblue" points="492.953,-289.679 483.562,-294.585 493.963,-296.606 492.953,-289.679"/>
</g>
<!-- Node4&#45;&gt;Node3 -->
<g id="edge5" class="edge"><title>Node4&#45;&gt;Node3</title>
<path fill="none" stroke="midnightblue" d="M526.16,-320.683C512.06,-318.899 497.089,-316.626 483.562,-314.203"/>
<polygon fill="midnightblue" stroke="midnightblue" points="525.894,-324.176 536.24,-321.891 526.727,-317.226 525.894,-324.176"/>
</g>
<!-- Node7 -->
<g id="node7" class="node"><title>Node7</title>
<g id="a_node7"><a xlink:href="namespacemexiface_1_1explore.html#aad11efd374cd1c241da644051e4d3479" target="_top" xlink:title="mexiface::explore::\lanalyze_full">
<polygon fill="white" stroke="black" points="260.5,-264.23 260.5,-292.23 353.5,-292.23 353.5,-264.23 260.5,-264.23"/>
<text text-anchor="start" x="268.5" y="-281.03" font-family="Helvetica,sans-Serif" font-size="9.00">mexiface::explore::</text>
<text text-anchor="middle" x="307" y="-271.03" font-family="Helvetica,sans-Serif" font-size="9.00">analyze_full</text>
</a>
</g>
</g>
<!-- Node6&#45;&gt;Node7 -->
<g id="edge8" class="edge"><title>Node6&#45;&gt;Node7</title>
<path fill="none" stroke="midnightblue" d="M221.007,-468.688C222.073,-467.589 223.076,-466.437 224,-465.23 269.114,-406.332 214.886,-361.128 260,-302.23 262.958,-298.368 266.715,-295.068 270.802,-292.264"/>
<polygon fill="midnightblue" stroke="midnightblue" points="218.639,-466.105 213.198,-475.196 223.121,-471.482 218.639,-466.105"/>
</g>
<!-- Node7&#45;&gt;Node3 -->
<g id="edge9" class="edge"><title>Node7&#45;&gt;Node3</title>
<path fill="none" stroke="midnightblue" d="M363.785,-288.254C372.7,-289.856 381.831,-291.496 390.471,-293.049"/>
<polygon fill="midnightblue" stroke="midnightblue" points="364.311,-284.792 353.849,-286.469 363.073,-291.682 364.311,-284.792"/>
</g>
<!-- Node8&#45;&gt;Node7 -->
<g id="edge11" class="edge"><title>Node8&#45;&gt;Node7</title>
<path fill="none" stroke="midnightblue" d="M220.877,-421.584C221.981,-420.515 223.026,-419.397 224,-418.23 258.586,-376.784 225.414,-343.676 260,-302.23 263.116,-298.495 266.965,-295.268 271.098,-292.501"/>
<polygon fill="midnightblue" stroke="midnightblue" points="218.528,-418.981 212.902,-427.959 222.899,-424.449 218.528,-418.981"/>
</g>
<!-- Node9&#45;&gt;Node7 -->
<g id="edge13" class="edge"><title>Node9&#45;&gt;Node7</title>
<path fill="none" stroke="midnightblue" d="M219.58,-375.2C221.133,-373.938 222.615,-372.615 224,-371.23 248.459,-346.771 235.541,-326.689 260,-302.23 263.694,-298.536 268.076,-295.283 272.643,-292.463"/>
<polygon fill="midnightblue" stroke="midnightblue" points="217.513,-372.375 211.357,-380.997 221.546,-378.096 217.513,-372.375"/>
</g>
<!-- Node10&#45;&gt;Node7 -->
<g id="edge15" class="edge"><title>Node10&#45;&gt;Node7</title>
<path fill="none" stroke="midnightblue" d="M214.74,-329.346C217.887,-327.643 221.008,-325.922 224,-324.23 240.322,-314.999 243.678,-311.461 260,-302.23 265.802,-298.948 272.093,-295.559 278.106,-292.398"/>
<polygon fill="midnightblue" stroke="midnightblue" points="213.071,-326.269 205.894,-334.062 216.364,-332.446 213.071,-326.269"/>
</g>
<!-- Node11&#45;&gt;Node7 -->
<g id="edge17" class="edge"><title>Node11&#45;&gt;Node7</title>
<path fill="none" stroke="midnightblue" d="M233.785,-291.206C242.7,-289.604 251.831,-287.963 260.471,-286.411"/>
<polygon fill="midnightblue" stroke="midnightblue" points="233.073,-287.778 223.849,-292.991 234.311,-294.668 233.073,-287.778"/>
</g>
<!-- Node12&#45;&gt;Node3 -->
<g id="edge19" class="edge"><title>Node12&#45;&gt;Node3</title>
<path fill="none" stroke="midnightblue" d="M329.904,-197.62C356.074,-223.177 399.121,-265.215 421.488,-287.058"/>
<polygon fill="midnightblue" stroke="midnightblue" points="332.283,-195.052 322.683,-190.569 327.392,-200.06 332.283,-195.052"/>
</g>
<!-- Node13&#45;&gt;Node7 -->
<g id="edge21" class="edge"><title>Node13&#45;&gt;Node7</title>
<path fill="none" stroke="midnightblue" d="M233.785,-264.69C242.7,-266.361 251.831,-268.073 260.471,-269.693"/>
<polygon fill="midnightblue" stroke="midnightblue" points="234.323,-261.23 223.849,-262.827 233.033,-268.11 234.323,-261.23"/>
</g>
<!-- Node14&#45;&gt;Node3 -->
<g id="edge23" class="edge"><title>Node14&#45;&gt;Node3</title>
<path fill="none" stroke="midnightblue" d="M318.512,-41.4714C344.094,-98.0308 409.001,-241.538 429.614,-287.111"/>
<polygon fill="midnightblue" stroke="midnightblue" points="321.658,-39.933 314.348,-32.264 315.28,-42.8177 321.658,-39.933"/>
</g>
<!-- Node15&#45;&gt;Node7 -->
<g id="edge26" class="edge"><title>Node15&#45;&gt;Node7</title>
<path fill="none" stroke="midnightblue" d="M214.433,-226.069C217.677,-227.798 220.903,-229.536 224,-231.23 243.721,-242.021 265.818,-254.722 282.101,-264.199"/>
<polygon fill="midnightblue" stroke="midnightblue" points="215.815,-222.841 205.337,-221.266 212.546,-229.031 215.815,-222.841"/>
</g>
<!-- Node16&#45;&gt;Node7 -->
<g id="edge28" class="edge"><title>Node16&#45;&gt;Node7</title>
<path fill="none" stroke="midnightblue" d="M217.755,-179.718C219.92,-181.163 222.019,-182.669 224,-184.23 254.282,-208.082 282.097,-244.21 296.235,-264.011"/>
<polygon fill="midnightblue" stroke="midnightblue" points="219.526,-176.698 209.17,-174.46 215.87,-182.668 219.526,-176.698"/>
</g>
<!-- Node17&#45;&gt;Node7 -->
<g id="edge30" class="edge"><title>Node17&#45;&gt;Node7</title>
<path fill="none" stroke="midnightblue" d="M220.562,-133.233C221.755,-134.196 222.905,-135.195 224,-136.23 247.427,-158.392 243.886,-171.295 260,-199.23 273.085,-221.914 288.412,-248.175 297.655,-263.979"/>
<polygon fill="midnightblue" stroke="midnightblue" points="222.389,-130.24 212.181,-127.403 218.391,-135.987 222.389,-130.24"/>
</g>
<!-- Node18&#45;&gt;Node7 -->
<g id="edge32" class="edge"><title>Node18&#45;&gt;Node7</title>
<path fill="none" stroke="midnightblue" d="M221.703,-86.7769C222.504,-87.5673 223.271,-88.3848 224,-89.23 257.598,-128.183 238.941,-152.298 260,-199.23 270.656,-222.977 286.537,-248.72 296.576,-264.156"/>
<polygon fill="midnightblue" stroke="midnightblue" points="223.74,-83.9229 213.757,-80.3735 219.347,-89.3734 223.74,-83.9229"/>
</g>
</g>
</svg>
