<?xml version="1.0" encoding="UTF-8" standalone="no"?>
<!DOCTYPE svg PUBLIC "-//W3C//DTD SVG 1.1//EN"
 "http://www.w3.org/Graphics/SVG/1.1/DTD/svg11.dtd">
<!-- Generated by graphviz version 2.36.0 (20140111.2315)
 -->
<!-- Title: mexiface::exploreMexArgs Pages: 1 -->
<svg width="654pt" height="649pt"
 viewBox="0.00 0.00 654.00 648.55" xmlns="http://www.w3.org/2000/svg" xmlns:xlink="http://www.w3.org/1999/xlink">
<g id="graph0" class="graph" transform="scale(1 1) rotate(0) translate(4 644.553)">
<title>mexiface::exploreMexArgs</title>
<polygon fill="white" stroke="none" points="-4,4 -4,-644.553 650,-644.553 650,4 -4,4"/>
<!-- Node1 -->
<g id="node1" class="node"><title>Node1</title>
<polygon fill="#bfbfbf" stroke="black" points="0.5,-49.1153 0.5,-67.1153 125.5,-67.1153 125.5,-49.1153 0.5,-49.1153"/>
<text text-anchor="middle" x="63" y="-55.9153" font-family="Helvetica,sans-Serif" font-size="9.00">mexiface::exploreMexArgs</text>
</g>
<!-- Node2 -->
<g id="node2" class="node"><title>Node2</title>
<g id="a_node2"><a xlink:href="namespacemexiface_1_1explore.html#a5a5c7c4c0ce2b61c1fe8f55cd7a685c8" target="_top" xlink:title="mexiface::explore::\lanalyze_class">
<polygon fill="white" stroke="black" points="162.5,-113.115 162.5,-141.115 255.5,-141.115 255.5,-113.115 162.5,-113.115"/>
<text text-anchor="start" x="170.5" y="-129.915" font-family="Helvetica,sans-Serif" font-size="9.00">mexiface::explore::</text>
<text text-anchor="middle" x="209" y="-119.915" font-family="Helvetica,sans-Serif" font-size="9.00">analyze_class</text>
</a>
</g>
</g>
<!-- Node1&#45;&gt;Node2 -->
<g id="edge1" class="edge"><title>Node1&#45;&gt;Node2</title>
<path fill="none" stroke="midnightblue" d="M82.8255,-67.1358C104.743,-77.6382 141.515,-95.2579 169.548,-108.69"/>
<polygon fill="midnightblue" stroke="midnightblue" points="168.155,-111.904 178.686,-113.069 171.18,-105.591 168.155,-111.904"/>
</g>
<!-- Node8 -->
<g id="node8" class="node"><title>Node8</title>
<g id="a_node8"><a xlink:href="namespacemexiface_1_1explore.html#af20e073842721a53872d786a38f401fe" target="_top" xlink:title="mexiface::explore::\lget_characteristics">
<polygon fill="white" stroke="black" points="422.5,-40.1153 422.5,-68.1153 515.5,-68.1153 515.5,-40.1153 422.5,-40.1153"/>
<text text-anchor="start" x="430.5" y="-56.9153" font-family="Helvetica,sans-Serif" font-size="9.00">mexiface::explore::</text>
<text text-anchor="middle" x="469" y="-46.9153" font-family="Helvetica,sans-Serif" font-size="9.00">get_characteristics</text>
</a>
</g>
</g>
<!-- Node1&#45;&gt;Node8 -->
<g id="edge36" class="edge"><title>Node1&#45;&gt;Node8</title>
<path fill="none" stroke="midnightblue" d="M85.392,-49.0189C137.486,-28.1235 274.807,19.39 386,-9.1153 405.461,-14.1043 425.264,-24.7812 440.532,-34.4831"/>
<polygon fill="midnightblue" stroke="midnightblue" points="438.685,-37.457 448.962,-40.0325 442.534,-31.6103 438.685,-37.457"/>
</g>
<!-- Node3 -->
<g id="node3" class="node"><title>Node3</title>
<g id="a_node3"><a xlink:href="namespacemexiface_1_1explore.html#a44ef87dec50add577651cf82ea3c8874" target="_top" xlink:title="mexiface::explore::\lanalyze_sparse">
<polygon fill="white" stroke="black" points="292.5,-66.1153 292.5,-94.1153 385.5,-94.1153 385.5,-66.1153 292.5,-66.1153"/>
<text text-anchor="start" x="300.5" y="-82.9153" font-family="Helvetica,sans-Serif" font-size="9.00">mexiface::explore::</text>
<text text-anchor="middle" x="339" y="-72.9153" font-family="Helvetica,sans-Serif" font-size="9.00">analyze_sparse</text>
</a>
</g>
</g>
<!-- Node2&#45;&gt;Node3 -->
<g id="edge2" class="edge"><title>Node2&#45;&gt;Node3</title>
<path fill="none" stroke="midnightblue" d="M248.404,-113.014C261.441,-108.227 276.173,-102.817 289.871,-97.7877"/>
<polygon fill="midnightblue" stroke="midnightblue" points="291.442,-100.939 299.623,-94.2069 289.029,-94.3683 291.442,-100.939"/>
</g>
<!-- Node4 -->
<g id="node4" class="node"><title>Node4</title>
<g id="a_node4"><a xlink:href="namespacemexiface_1_1explore.html#ae6d95ef17338c9baa90e1ce1c3e33d0f" target="_top" xlink:title="mexiface::explore::\lanalyze_logical">
<polygon fill="white" stroke="black" points="292.5,-514.115 292.5,-542.115 385.5,-542.115 385.5,-514.115 292.5,-514.115"/>
<text text-anchor="start" x="300.5" y="-530.915" font-family="Helvetica,sans-Serif" font-size="9.00">mexiface::explore::</text>
<text text-anchor="middle" x="339" y="-520.915" font-family="Helvetica,sans-Serif" font-size="9.00">analyze_logical</text>
</a>
</g>
</g>
<!-- Node2&#45;&gt;Node4 -->
<g id="edge3" class="edge"><title>Node2&#45;&gt;Node4</title>
<path fill="none" stroke="midnightblue" d="M214.363,-141.341C226.475,-180.767 261.62,-294.748 292,-389.115 305.054,-429.666 320.731,-476.694 330.001,-504.34"/>
<polygon fill="midnightblue" stroke="midnightblue" points="326.721,-505.567 333.222,-513.933 333.357,-503.339 326.721,-505.567"/>
</g>
<!-- Node6 -->
<g id="node6" class="node"><title>Node6</title>
<g id="a_node6"><a xlink:href="namespacemexiface_1_1explore.html#aaa319b6e0131959ff3d2fbd9a4c368b3" target="_top" xlink:title="mexiface::explore::\lanalyze_string">
<polygon fill="white" stroke="black" points="292.5,-160.115 292.5,-188.115 385.5,-188.115 385.5,-160.115 292.5,-160.115"/>
<text text-anchor="start" x="300.5" y="-176.915" font-family="Helvetica,sans-Serif" font-size="9.00">mexiface::explore::</text>
<text text-anchor="middle" x="339" y="-166.915" font-family="Helvetica,sans-Serif" font-size="9.00">analyze_string</text>
</a>
</g>
</g>
<!-- Node2&#45;&gt;Node6 -->
<g id="edge5" class="edge"><title>Node2&#45;&gt;Node6</title>
<path fill="none" stroke="midnightblue" d="M248.404,-141.217C261.441,-146.004 276.173,-151.413 289.871,-156.443"/>
<polygon fill="midnightblue" stroke="midnightblue" points="289.029,-159.862 299.623,-160.024 291.442,-153.291 289.029,-159.862"/>
</g>
<!-- Node7 -->
<g id="node7" class="node"><title>Node7</title>
<g id="a_node7"><a xlink:href="namespacemexiface_1_1explore.html#a6205a96e991f64a98345df5645dd0ba5" target="_top" xlink:title="mexiface::explore::\lanalyze_structure">
<polygon fill="white" stroke="black" points="292.5,-19.1153 292.5,-47.1153 385.5,-47.1153 385.5,-19.1153 292.5,-19.1153"/>
<text text-anchor="start" x="300.5" y="-35.9153" font-family="Helvetica,sans-Serif" font-size="9.00">mexiface::explore::</text>
<text text-anchor="middle" x="339" y="-25.9153" font-family="Helvetica,sans-Serif" font-size="9.00">analyze_structure</text>
</a>
</g>
</g>
<!-- Node2&#45;&gt;Node7 -->
<g id="edge7" class="edge"><title>Node2&#45;&gt;Node7</title>
<path fill="none" stroke="midnightblue" d="M218.506,-112.907C231.443,-96.888 257.367,-71.8412 284.128,-52.5903"/>
<polygon fill="midnightblue" stroke="midnightblue" points="286.226,-55.3946 292.447,-46.8183 282.236,-49.6434 286.226,-55.3946"/>
</g>
<!-- Node9 -->
<g id="node9" class="node"><title>Node9</title>
<g id="a_node9"><a xlink:href="namespacemexiface_1_1explore.html#a2fd795aab0989018a48cfce5b8f63719" target="_top" xlink:title="mexiface::explore::\lanalyze_cell">
<polygon fill="white" stroke="black" points="292.5,-113.115 292.5,-141.115 385.5,-141.115 385.5,-113.115 292.5,-113.115"/>
<text text-anchor="start" x="300.5" y="-129.915" font-family="Helvetica,sans-Serif" font-size="9.00">mexiface::explore::</text>
<text text-anchor="middle" x="339" y="-119.915" font-family="Helvetica,sans-Serif" font-size="9.00">analyze_cell</text>
</a>
</g>
</g>
<!-- Node2&#45;&gt;Node9 -->
<g id="edge11" class="edge"><title>Node2&#45;&gt;Node9</title>
<path fill="none" stroke="midnightblue" d="M255.849,-120.613C264.408,-120.373 273.439,-120.308 282.258,-120.415"/>
<polygon fill="midnightblue" stroke="midnightblue" points="282.402,-123.919 292.471,-120.622 282.543,-116.92 282.402,-123.919"/>
</g>
<!-- Node10 -->
<g id="node10" class="node"><title>Node10</title>
<g id="a_node10"><a xlink:href="namespacemexiface_1_1explore.html#aad11efd374cd1c241da644051e4d3479" target="_top" xlink:title="mexiface::explore::\lanalyze_full">
<polygon fill="white" stroke="black" points="292.5,-352.115 292.5,-380.115 385.5,-380.115 385.5,-352.115 292.5,-352.115"/>
<text text-anchor="start" x="300.5" y="-368.915" font-family="Helvetica,sans-Serif" font-size="9.00">mexiface::explore::</text>
<text text-anchor="middle" x="339" y="-358.915" font-family="Helvetica,sans-Serif" font-size="9.00">analyze_full</text>
</a>
</g>
</g>
<!-- Node2&#45;&gt;Node10 -->
<g id="edge15" class="edge"><title>Node2&#45;&gt;Node10</title>
<path fill="none" stroke="midnightblue" d="M217.624,-141.35C238.967,-181.202 299.462,-294.158 325.657,-343.068"/>
<polygon fill="midnightblue" stroke="midnightblue" points="322.61,-344.792 330.416,-351.955 328.78,-341.487 322.61,-344.792"/>
</g>
<!-- Node5 -->
<g id="node5" class="node"><title>Node5</title>
<g id="a_node5"><a xlink:href="namespacemexiface_1_1explore.html#ad41bff4081494e68399068077d57f1ea" target="_top" xlink:title="mexiface::explore::\ldisplay_subscript">
<polygon fill="white" stroke="black" points="552.5,-328.115 552.5,-356.115 645.5,-356.115 645.5,-328.115 552.5,-328.115"/>
<text text-anchor="start" x="560.5" y="-344.915" font-family="Helvetica,sans-Serif" font-size="9.00">mexiface::explore::</text>
<text text-anchor="middle" x="599" y="-334.915" font-family="Helvetica,sans-Serif" font-size="9.00">display_subscript</text>
</a>
</g>
</g>
<!-- Node4&#45;&gt;Node5 -->
<g id="edge4" class="edge"><title>Node4&#45;&gt;Node5</title>
<path fill="none" stroke="midnightblue" d="M346.926,-542.255C358.75,-564.565 385.174,-607.139 422,-624.115 459.941,-641.605 482.588,-649.196 516,-624.115 558.025,-592.57 585.536,-429.002 594.661,-366.465"/>
<polygon fill="midnightblue" stroke="midnightblue" points="598.157,-366.737 596.105,-356.343 591.227,-365.749 598.157,-366.737"/>
</g>
<!-- Node6&#45;&gt;Node5 -->
<g id="edge6" class="edge"><title>Node6&#45;&gt;Node5</title>
<path fill="none" stroke="midnightblue" d="M369.47,-159.981C406.764,-144.351 471.492,-124.971 516,-154.115 572.333,-191.003 590.185,-275.976 595.668,-317.867"/>
<polygon fill="midnightblue" stroke="midnightblue" points="592.216,-318.478 596.861,-328.001 599.168,-317.66 592.216,-318.478"/>
</g>
<!-- Node7&#45;&gt;Node2 -->
<g id="edge10" class="edge"><title>Node7&#45;&gt;Node2</title>
<path fill="none" stroke="midnightblue" d="M322.977,-47.2367C313.726,-52.6609 301.802,-58.5714 292,-65.1153 273.632,-77.3776 254.883,-93.3062 239.958,-106.103"/>
<polygon fill="midnightblue" stroke="midnightblue" points="237.403,-103.682 232.086,-112.846 241.958,-108.998 237.403,-103.682"/>
</g>
<!-- Node7&#45;&gt;Node5 -->
<g id="edge8" class="edge"><title>Node7&#45;&gt;Node5</title>
<path fill="none" stroke="midnightblue" d="M381.188,-19.0706C420.051,-8.63256 477.885,-0.72301 516,-30.1153 562.318,-65.8332 587.641,-250.966 595.395,-317.919"/>
<polygon fill="midnightblue" stroke="midnightblue" points="591.929,-318.411 596.528,-327.955 598.885,-317.626 591.929,-318.411"/>
</g>
<!-- Node7&#45;&gt;Node8 -->
<g id="edge9" class="edge"><title>Node7&#45;&gt;Node8</title>
<path fill="none" stroke="midnightblue" d="M385.849,-40.6375C394.501,-42.0569 403.636,-43.5555 412.545,-45.0172"/>
<polygon fill="midnightblue" stroke="midnightblue" points="412.036,-48.4804 422.471,-46.6457 413.169,-41.5728 412.036,-48.4804"/>
</g>
<!-- Node9&#45;&gt;Node2 -->
<g id="edge14" class="edge"><title>Node9&#45;&gt;Node2</title>
<path fill="none" stroke="midnightblue" d="M292.471,-133.609C283.924,-133.852 274.896,-133.922 266.073,-133.819"/>
<polygon fill="midnightblue" stroke="midnightblue" points="265.916,-130.315 255.849,-133.618 265.779,-137.314 265.916,-130.315"/>
</g>
<!-- Node9&#45;&gt;Node5 -->
<g id="edge12" class="edge"><title>Node9&#45;&gt;Node5</title>
<path fill="none" stroke="midnightblue" d="M385.559,-116.514C423.921,-110.333 478.397,-108.297 516,-135.115 576.473,-178.244 592.363,-273.254 596.527,-317.961"/>
<polygon fill="midnightblue" stroke="midnightblue" points="593.039,-318.252 597.337,-327.936 600.016,-317.686 593.039,-318.252"/>
</g>
<!-- Node9&#45;&gt;Node8 -->
<g id="edge13" class="edge"><title>Node9&#45;&gt;Node8</title>
<path fill="none" stroke="midnightblue" d="M367.869,-112.904C373.884,-109.746 380.182,-106.368 386,-103.115 402.783,-93.7331 421.183,-82.799 436.293,-73.6429"/>
<polygon fill="midnightblue" stroke="midnightblue" points="438.51,-76.3908 445.232,-68.2015 434.87,-70.4115 438.51,-76.3908"/>
</g>
<!-- Node11 -->
<g id="node11" class="node"><title>Node11</title>
<g id="a_node11"><a xlink:href="namespacemexiface_1_1explore.html#abbbd19941bd43d361d33e21fb0dadbae" target="_top" xlink:title="mexiface::explore::\lanalyze_int8">
<polygon fill="white" stroke="black" points="422.5,-399.115 422.5,-427.115 515.5,-427.115 515.5,-399.115 422.5,-399.115"/>
<text text-anchor="start" x="430.5" y="-415.915" font-family="Helvetica,sans-Serif" font-size="9.00">mexiface::explore::</text>
<text text-anchor="middle" x="469" y="-405.915" font-family="Helvetica,sans-Serif" font-size="9.00">analyze_int8</text>
</a>
</g>
</g>
<!-- Node10&#45;&gt;Node11 -->
<g id="edge16" class="edge"><title>Node10&#45;&gt;Node11</title>
<path fill="none" stroke="midnightblue" d="M378.404,-380.217C391.441,-385.004 406.173,-390.413 419.871,-395.443"/>
<polygon fill="midnightblue" stroke="midnightblue" points="419.029,-398.862 429.623,-399.024 421.442,-392.291 419.029,-398.862"/>
</g>
<!-- Node12 -->
<g id="node12" class="node"><title>Node12</title>
<g id="a_node12"><a xlink:href="namespacemexiface_1_1explore.html#ae0e1687942c1e218a665eedeadc63456" target="_top" xlink:title="mexiface::explore::\lanalyze_uint8">
<polygon fill="white" stroke="black" points="422.5,-352.115 422.5,-380.115 515.5,-380.115 515.5,-352.115 422.5,-352.115"/>
<text text-anchor="start" x="430.5" y="-368.915" font-family="Helvetica,sans-Serif" font-size="9.00">mexiface::explore::</text>
<text text-anchor="middle" x="469" y="-358.915" font-family="Helvetica,sans-Serif" font-size="9.00">analyze_uint8</text>
</a>
</g>
</g>
<!-- Node10&#45;&gt;Node12 -->
<g id="edge18" class="edge"><title>Node10&#45;&gt;Node12</title>
<path fill="none" stroke="midnightblue" d="M385.849,-366.115C394.408,-366.115 403.439,-366.115 412.258,-366.115"/>
<polygon fill="midnightblue" stroke="midnightblue" points="412.471,-369.615 422.471,-366.115 412.471,-362.615 412.471,-369.615"/>
</g>
<!-- Node13 -->
<g id="node13" class="node"><title>Node13</title>
<g id="a_node13"><a xlink:href="namespacemexiface_1_1explore.html#a2c3a4139675fbbf8ca7ab0f92d6f11fd" target="_top" xlink:title="mexiface::explore::\lanalyze_int16">
<polygon fill="white" stroke="black" points="422.5,-305.115 422.5,-333.115 515.5,-333.115 515.5,-305.115 422.5,-305.115"/>
<text text-anchor="start" x="430.5" y="-321.915" font-family="Helvetica,sans-Serif" font-size="9.00">mexiface::explore::</text>
<text text-anchor="middle" x="469" y="-311.915" font-family="Helvetica,sans-Serif" font-size="9.00">analyze_int16</text>
</a>
</g>
</g>
<!-- Node10&#45;&gt;Node13 -->
<g id="edge20" class="edge"><title>Node10&#45;&gt;Node13</title>
<path fill="none" stroke="midnightblue" d="M378.404,-352.014C391.441,-347.227 406.173,-341.817 419.871,-336.788"/>
<polygon fill="midnightblue" stroke="midnightblue" points="421.442,-339.939 429.623,-333.207 419.029,-333.368 421.442,-339.939"/>
</g>
<!-- Node14 -->
<g id="node14" class="node"><title>Node14</title>
<g id="a_node14"><a xlink:href="namespacemexiface_1_1explore.html#aa1951af918bc0b264d05f2db4fbec9e1" target="_top" xlink:title="mexiface::explore::\lanalyze_uint16">
<polygon fill="white" stroke="black" points="422.5,-258.115 422.5,-286.115 515.5,-286.115 515.5,-258.115 422.5,-258.115"/>
<text text-anchor="start" x="430.5" y="-274.915" font-family="Helvetica,sans-Serif" font-size="9.00">mexiface::explore::</text>
<text text-anchor="middle" x="469" y="-264.915" font-family="Helvetica,sans-Serif" font-size="9.00">analyze_uint16</text>
</a>
</g>
</g>
<!-- Node10&#45;&gt;Node14 -->
<g id="edge22" class="edge"><title>Node10&#45;&gt;Node14</title>
<path fill="none" stroke="midnightblue" d="M354.207,-351.841C369.886,-336.578 396.315,-312.262 422,-295.115 424.079,-293.727 426.254,-292.368 428.478,-291.047"/>
<polygon fill="midnightblue" stroke="midnightblue" points="430.186,-294.102 437.208,-286.167 426.771,-287.992 430.186,-294.102"/>
</g>
<!-- Node15 -->
<g id="node15" class="node"><title>Node15</title>
<g id="a_node15"><a xlink:href="namespacemexiface_1_1explore.html#ad8657b3604a735ef428823cdf0a72722" target="_top" xlink:title="mexiface::explore::\lanalyze_int32">
<polygon fill="white" stroke="black" points="422.5,-211.115 422.5,-239.115 515.5,-239.115 515.5,-211.115 422.5,-211.115"/>
<text text-anchor="start" x="430.5" y="-227.915" font-family="Helvetica,sans-Serif" font-size="9.00">mexiface::explore::</text>
<text text-anchor="middle" x="469" y="-217.915" font-family="Helvetica,sans-Serif" font-size="9.00">analyze_int32</text>
</a>
</g>
</g>
<!-- Node10&#45;&gt;Node15 -->
<g id="edge24" class="edge"><title>Node10&#45;&gt;Node15</title>
<path fill="none" stroke="midnightblue" d="M346.778,-352.059C358.94,-328.062 386.542,-278.813 422,-248.115 423.299,-246.99 424.664,-245.904 426.075,-244.858"/>
<polygon fill="midnightblue" stroke="midnightblue" points="428.112,-247.708 434.562,-239.302 424.279,-241.851 428.112,-247.708"/>
</g>
<!-- Node16 -->
<g id="node16" class="node"><title>Node16</title>
<g id="a_node16"><a xlink:href="namespacemexiface_1_1explore.html#aa0ebed3704023f9816e91293c9c08253" target="_top" xlink:title="mexiface::explore::\lanalyze_uint32">
<polygon fill="white" stroke="black" points="422.5,-164.115 422.5,-192.115 515.5,-192.115 515.5,-164.115 422.5,-164.115"/>
<text text-anchor="start" x="430.5" y="-180.915" font-family="Helvetica,sans-Serif" font-size="9.00">mexiface::explore::</text>
<text text-anchor="middle" x="469" y="-170.915" font-family="Helvetica,sans-Serif" font-size="9.00">analyze_uint32</text>
</a>
</g>
</g>
<!-- Node10&#45;&gt;Node16 -->
<g id="edge26" class="edge"><title>Node10&#45;&gt;Node16</title>
<path fill="none" stroke="midnightblue" d="M343.699,-351.921C352.43,-320.888 377.043,-246.182 422,-201.115 422.922,-200.191 423.889,-199.297 424.893,-198.433"/>
<polygon fill="midnightblue" stroke="midnightblue" points="427.156,-201.115 433.17,-192.392 423.029,-195.461 427.156,-201.115"/>
</g>
<!-- Node17 -->
<g id="node17" class="node"><title>Node17</title>
<g id="a_node17"><a xlink:href="namespacemexiface_1_1explore.html#a7025633935ccc85550b308e70b0fc771" target="_top" xlink:title="mexiface::explore::\lanalyze_int64">
<polygon fill="white" stroke="black" points="422.5,-587.115 422.5,-615.115 515.5,-615.115 515.5,-587.115 422.5,-587.115"/>
<text text-anchor="start" x="430.5" y="-603.915" font-family="Helvetica,sans-Serif" font-size="9.00">mexiface::explore::</text>
<text text-anchor="middle" x="469" y="-593.915" font-family="Helvetica,sans-Serif" font-size="9.00">analyze_int64</text>
</a>
</g>
</g>
<!-- Node10&#45;&gt;Node17 -->
<g id="edge28" class="edge"><title>Node10&#45;&gt;Node17</title>
<path fill="none" stroke="midnightblue" d="M344.873,-380.339C360.32,-425.17 408.007,-561.488 422,-577.115 423.157,-578.407 424.4,-579.64 425.709,-580.816"/>
<polygon fill="midnightblue" stroke="midnightblue" points="423.715,-583.697 433.802,-586.939 427.939,-578.115 423.715,-583.697"/>
</g>
<!-- Node18 -->
<g id="node18" class="node"><title>Node18</title>
<g id="a_node18"><a xlink:href="namespacemexiface_1_1explore.html#abe63c53129e4d37e66af71c8f66d9ae6" target="_top" xlink:title="mexiface::explore::\lanalyze_uint64">
<polygon fill="white" stroke="black" points="422.5,-540.115 422.5,-568.115 515.5,-568.115 515.5,-540.115 422.5,-540.115"/>
<text text-anchor="start" x="430.5" y="-556.915" font-family="Helvetica,sans-Serif" font-size="9.00">mexiface::explore::</text>
<text text-anchor="middle" x="469" y="-546.915" font-family="Helvetica,sans-Serif" font-size="9.00">analyze_uint64</text>
</a>
</g>
</g>
<!-- Node10&#45;&gt;Node18 -->
<g id="edge30" class="edge"><title>Node10&#45;&gt;Node18</title>
<path fill="none" stroke="midnightblue" d="M343.781,-380.167C352.676,-410.898 377.594,-484.937 422,-530.115 423.373,-531.513 424.845,-532.846 426.389,-534.115"/>
<polygon fill="midnightblue" stroke="midnightblue" points="424.407,-537 434.586,-539.94 428.462,-531.294 424.407,-537"/>
</g>
<!-- Node19 -->
<g id="node19" class="node"><title>Node19</title>
<g id="a_node19"><a xlink:href="namespacemexiface_1_1explore.html#acaf0a238e5467e317ae037a966647626" target="_top" xlink:title="mexiface::explore::\lanalyze_single">
<polygon fill="white" stroke="black" points="422.5,-493.115 422.5,-521.115 515.5,-521.115 515.5,-493.115 422.5,-493.115"/>
<text text-anchor="start" x="430.5" y="-509.915" font-family="Helvetica,sans-Serif" font-size="9.00">mexiface::explore::</text>
<text text-anchor="middle" x="469" y="-499.915" font-family="Helvetica,sans-Serif" font-size="9.00">analyze_single</text>
</a>
</g>
</g>
<!-- Node10&#45;&gt;Node19 -->
<g id="edge32" class="edge"><title>Node10&#45;&gt;Node19</title>
<path fill="none" stroke="midnightblue" d="M347.061,-380.365C359.451,-404.195 387.134,-452.523 422,-483.115 423.705,-484.612 425.521,-486.046 427.407,-487.416"/>
<polygon fill="midnightblue" stroke="midnightblue" points="425.726,-490.497 436.02,-493.002 429.535,-484.624 425.726,-490.497"/>
</g>
<!-- Node20 -->
<g id="node20" class="node"><title>Node20</title>
<g id="a_node20"><a xlink:href="namespacemexiface_1_1explore.html#a3b7a85eeb040efe041ae992581c3861b" target="_top" xlink:title="mexiface::explore::\lanalyze_double">
<polygon fill="white" stroke="black" points="422.5,-446.115 422.5,-474.115 515.5,-474.115 515.5,-446.115 422.5,-446.115"/>
<text text-anchor="start" x="430.5" y="-462.915" font-family="Helvetica,sans-Serif" font-size="9.00">mexiface::explore::</text>
<text text-anchor="middle" x="469" y="-452.915" font-family="Helvetica,sans-Serif" font-size="9.00">analyze_double</text>
</a>
</g>
</g>
<!-- Node10&#45;&gt;Node20 -->
<g id="edge34" class="edge"><title>Node10&#45;&gt;Node20</title>
<path fill="none" stroke="midnightblue" d="M354.591,-380.359C370.383,-395.334 396.712,-419.046 422,-436.115 424.531,-437.824 427.199,-439.501 429.923,-441.125"/>
<polygon fill="midnightblue" stroke="midnightblue" points="428.288,-444.221 438.714,-446.104 431.737,-438.13 428.288,-444.221"/>
</g>
<!-- Node11&#45;&gt;Node5 -->
<g id="edge17" class="edge"><title>Node11&#45;&gt;Node5</title>
<path fill="none" stroke="midnightblue" d="M497.337,-399.079C503.5,-395.852 509.994,-392.401 516,-389.115 532.331,-380.179 550.293,-369.933 565.231,-361.292"/>
<polygon fill="midnightblue" stroke="midnightblue" points="567.208,-364.192 574.101,-356.146 563.695,-358.137 567.208,-364.192"/>
</g>
<!-- Node12&#45;&gt;Node5 -->
<g id="edge19" class="edge"><title>Node12&#45;&gt;Node5</title>
<path fill="none" stroke="midnightblue" d="M515.849,-357.519C524.501,-355.896 533.636,-354.184 542.545,-352.513"/>
<polygon fill="midnightblue" stroke="midnightblue" points="543.287,-355.935 552.471,-350.652 541.997,-349.055 543.287,-355.935"/>
</g>
<!-- Node13&#45;&gt;Node5 -->
<g id="edge21" class="edge"><title>Node13&#45;&gt;Node5</title>
<path fill="none" stroke="midnightblue" d="M515.849,-327.354C524.501,-328.909 533.636,-330.55 542.545,-332.151"/>
<polygon fill="midnightblue" stroke="midnightblue" points="542.009,-335.61 552.471,-333.934 543.247,-328.721 542.009,-335.61"/>
</g>
<!-- Node14&#45;&gt;Node5 -->
<g id="edge23" class="edge"><title>Node14&#45;&gt;Node5</title>
<path fill="none" stroke="midnightblue" d="M498.839,-286.22C504.556,-289.105 510.491,-292.163 516,-295.115 532.408,-303.91 550.378,-314.141 565.303,-322.807"/>
<polygon fill="midnightblue" stroke="midnightblue" points="563.759,-325.959 574.161,-327.974 567.286,-319.912 563.759,-325.959"/>
</g>
<!-- Node15&#45;&gt;Node5 -->
<g id="edge25" class="edge"><title>Node15&#45;&gt;Node5</title>
<path fill="none" stroke="midnightblue" d="M502.153,-239.152C506.985,-241.832 511.763,-244.837 516,-248.115 542.676,-268.757 567.245,-299.076 582.396,-319.656"/>
<polygon fill="midnightblue" stroke="midnightblue" points="579.601,-321.764 588.292,-327.824 585.277,-317.667 579.601,-321.764"/>
</g>
<!-- Node16&#45;&gt;Node5 -->
<g id="edge27" class="edge"><title>Node16&#45;&gt;Node5</title>
<path fill="none" stroke="midnightblue" d="M504.157,-192.313C508.406,-194.884 512.485,-197.815 516,-201.115 551.984,-234.898 576.98,-288.04 589.27,-318.52"/>
<polygon fill="midnightblue" stroke="midnightblue" points="586.047,-319.888 592.948,-327.927 592.566,-317.339 586.047,-319.888"/>
</g>
<!-- Node17&#45;&gt;Node5 -->
<g id="edge29" class="edge"><title>Node17&#45;&gt;Node5</title>
<path fill="none" stroke="midnightblue" d="M504.319,-587.046C508.644,-584.226 512.701,-580.931 516,-577.115 570.546,-514.015 589.455,-412.468 595.457,-366.326"/>
<polygon fill="midnightblue" stroke="midnightblue" points="598.938,-366.693 596.664,-356.345 591.989,-365.853 598.938,-366.693"/>
</g>
<!-- Node18&#45;&gt;Node5 -->
<g id="edge31" class="edge"><title>Node18&#45;&gt;Node5</title>
<path fill="none" stroke="midnightblue" d="M503.591,-540.109C508.126,-537.257 512.436,-533.936 516,-530.115 561.067,-481.797 583.883,-404.754 593.027,-366.012"/>
<polygon fill="midnightblue" stroke="midnightblue" points="596.464,-366.681 595.251,-356.156 589.636,-365.14 596.464,-366.681"/>
</g>
<!-- Node19&#45;&gt;Node5 -->
<g id="edge33" class="edge"><title>Node19&#45;&gt;Node5</title>
<path fill="none" stroke="midnightblue" d="M502.731,-493.017C507.489,-490.15 512.092,-486.848 516,-483.115 551.692,-449.024 576.794,-395.994 589.181,-365.617"/>
<polygon fill="midnightblue" stroke="midnightblue" points="592.465,-366.83 592.891,-356.243 585.956,-364.253 592.465,-366.83"/>
</g>
<!-- Node20&#45;&gt;Node5 -->
<g id="edge35" class="edge"><title>Node20&#45;&gt;Node5</title>
<path fill="none" stroke="midnightblue" d="M501.17,-445.885C506.332,-442.966 511.471,-439.682 516,-436.115 542.497,-415.244 567.105,-384.975 582.314,-364.469"/>
<polygon fill="midnightblue" stroke="midnightblue" points="585.18,-366.479 588.235,-356.334 579.521,-362.359 585.18,-366.479"/>
</g>
</g>
</svg>
