<?xml version="1.0" encoding="UTF-8" standalone="no"?>
<!DOCTYPE svg PUBLIC "-//W3C//DTD SVG 1.1//EN"
 "http://www.w3.org/Graphics/SVG/1.1/DTD/svg11.dtd">
<!-- Generated by graphviz version 2.38.0 (20140413.2041)
 -->
<!-- Title: mexiface::exploreMexArgs Pages: 1 -->
<!--zoomable 648 -->
<svg id="main" version="1.1" xmlns="http://www.w3.org/2000/svg" xmlns:xlink="http://www.w3.org/1999/xlink" xml:space="preserve" onload="init(evt)">
<style type="text/css"><![CDATA[
.edge:hover path { stroke: red; }
.edge:hover polygon { stroke: red; fill: red; }
]]></style>
<script type="text/javascript"><![CDATA[
var edges = document.getElementsByTagName('g');
if (edges && edges.length) {
  for (var i=0;i<edges.length;i++) {
    if (edges[i].id.substr(0,4)=='edge') {
      edges[i].setAttribute('class','edge');
    }
  }
}
]]></script>
        <defs>
                <circle id="rim" cx="0" cy="0" r="7"/>
                <circle id="rim2" cx="0" cy="0" r="3.5"/>
                <g id="zoomPlus">
                        <use xlink:href="#rim" fill="#404040">
                                <set attributeName="fill" to="#808080" begin="zoomplus.mouseover" end="zoomplus.mouseout"/>
                        </use>
                        <path d="M-4,0h8M0,-4v8" fill="none" stroke="white" stroke-width="1.5" pointer-events="none"/>
                </g>
                <g id="zoomMin">
                        <use xlink:href="#rim" fill="#404040">
                                <set attributeName="fill" to="#808080" begin="zoomminus.mouseover" end="zoomminus.mouseout"/>
                        </use>
                        <path d="M-4,0h8" fill="none" stroke="white" stroke-width="1.5" pointer-events="none"/>
                </g>
                <g id="dirArrow">
                        <path fill="none" stroke="white" stroke-width="1.5" d="M0,-3.0v7 M-2.5,-0.5L0,-3.0L2.5,-0.5"/>
                </g>
               <g id="resetDef">
                       <use xlink:href="#rim2" fill="#404040">
                               <set attributeName="fill" to="#808080" begin="reset.mouseover" end="reset.mouseout"/>
                       </use>
               </g>
        </defs>

<script type="text/javascript">
var viewWidth = 649;
var viewHeight = 648;
var sectionId = 'dynsection-1';
</script>
<script xlink:href="svgpan.js"/>
<svg id="graph" class="graph">
<g id="viewport">
<title>mexiface::exploreMexArgs</title>
<polygon fill="white" stroke="none" points="-4,4 -4,-644.376 645,-644.376 645,4 -4,4"/>
<!-- Node1 -->
<g id="node1" class="node"><title>Node1</title>
<polygon fill="#bfbfbf" stroke="black" points="0,-49.0827 0,-67.0827 125,-67.0827 125,-49.0827 0,-49.0827"/>
<text text-anchor="middle" x="62.5" y="-55.8827" font-family="Helvetica,sans-Serif" font-size="9.00">mexiface::exploreMexArgs</text>
</g>
<!-- Node2 -->
<g id="node2" class="node"><title>Node2</title>
<g id="a_node2"><a xlink:href="namespacemexiface_1_1explore.html#a5a5c7c4c0ce2b61c1fe8f55cd7a685c8" target="_top" xlink:title="mexiface::explore::\lanalyze_class">
<polygon fill="white" stroke="black" points="161,-113.083 161,-141.083 254,-141.083 254,-113.083 161,-113.083"/>
<text text-anchor="start" x="169" y="-129.883" font-family="Helvetica,sans-Serif" font-size="9.00">mexiface::explore::</text>
<text text-anchor="middle" x="207.5" y="-119.883" font-family="Helvetica,sans-Serif" font-size="9.00">analyze_class</text>
</a>
</g>
</g>
<!-- Node1&#45;&gt;Node2 -->
<g id="edge1" class="edge"><title>Node1&#45;&gt;Node2</title>
<path fill="none" stroke="midnightblue" d="M82.1948,-67.1033C103.96,-77.6056 140.477,-95.2254 168.315,-108.658"/>
<polygon fill="midnightblue" stroke="midnightblue" points="166.862,-111.843 177.389,-113.036 169.904,-105.538 166.862,-111.843"/>
</g>
<!-- Node8 -->
<g id="node8" class="node"><title>Node8</title>
<g id="a_node8"><a xlink:href="namespacemexiface_1_1explore.html#af20e073842721a53872d786a38f401fe" target="_top" xlink:title="mexiface::explore::\lget_characteristics">
<polygon fill="white" stroke="black" points="419,-40.0827 419,-68.0827 512,-68.0827 512,-40.0827 419,-40.0827"/>
<text text-anchor="start" x="427" y="-56.8827" font-family="Helvetica,sans-Serif" font-size="9.00">mexiface::explore::</text>
<text text-anchor="middle" x="465.5" y="-46.8827" font-family="Helvetica,sans-Serif" font-size="9.00">get_characteristics</text>
</a>
</g>
</g>
<!-- Node1&#45;&gt;Node8 -->
<g id="edge36" class="edge"><title>Node1&#45;&gt;Node8</title>
<path fill="none" stroke="midnightblue" d="M84.7281,-48.9958C136.422,-28.1215 272.687,19.3488 383,-9.08274 402.364,-14.0734 422.046,-24.7504 437.217,-34.4519"/>
<polygon fill="midnightblue" stroke="midnightblue" points="435.322,-37.3949 445.591,-40.001 439.188,-31.5597 435.322,-37.3949"/>
</g>
<!-- Node3 -->
<g id="node3" class="node"><title>Node3</title>
<g id="a_node3"><a xlink:href="namespacemexiface_1_1explore.html#a44ef87dec50add577651cf82ea3c8874" target="_top" xlink:title="mexiface::explore::\lanalyze_sparse">
<polygon fill="white" stroke="black" points="290,-66.0827 290,-94.0827 383,-94.0827 383,-66.0827 290,-66.0827"/>
<text text-anchor="start" x="298" y="-82.8827" font-family="Helvetica,sans-Serif" font-size="9.00">mexiface::explore::</text>
<text text-anchor="middle" x="336.5" y="-72.8827" font-family="Helvetica,sans-Serif" font-size="9.00">analyze_sparse</text>
</a>
</g>
</g>
<!-- Node2&#45;&gt;Node3 -->
<g id="edge2" class="edge"><title>Node2&#45;&gt;Node3</title>
<path fill="none" stroke="midnightblue" d="M246.604,-112.981C259.539,-108.194 274.156,-102.785 287.747,-97.7551"/>
<polygon fill="midnightblue" stroke="midnightblue" points="289.259,-100.928 297.423,-94.1743 286.83,-94.3627 289.259,-100.928"/>
</g>
<!-- Node4 -->
<g id="node4" class="node"><title>Node4</title>
<g id="a_node4"><a xlink:href="namespacemexiface_1_1explore.html#ae6d95ef17338c9baa90e1ce1c3e33d0f" target="_top" xlink:title="mexiface::explore::\lanalyze_logical">
<polygon fill="white" stroke="black" points="290,-514.083 290,-542.083 383,-542.083 383,-514.083 290,-514.083"/>
<text text-anchor="start" x="298" y="-530.883" font-family="Helvetica,sans-Serif" font-size="9.00">mexiface::explore::</text>
<text text-anchor="middle" x="336.5" y="-520.883" font-family="Helvetica,sans-Serif" font-size="9.00">analyze_logical</text>
</a>
</g>
</g>
<!-- Node2&#45;&gt;Node4 -->
<g id="edge3" class="edge"><title>Node2&#45;&gt;Node4</title>
<path fill="none" stroke="midnightblue" d="M212.844,-141.306C224.899,-180.725 259.872,-294.691 290,-389.083 302.94,-429.622 318.437,-476.654 327.598,-504.304"/>
<polygon fill="midnightblue" stroke="midnightblue" points="324.31,-505.508 330.78,-513.898 330.954,-503.305 324.31,-505.508"/>
</g>
<!-- Node6 -->
<g id="node6" class="node"><title>Node6</title>
<g id="a_node6"><a xlink:href="namespacemexiface_1_1explore.html#aaa319b6e0131959ff3d2fbd9a4c368b3" target="_top" xlink:title="mexiface::explore::\lanalyze_string">
<polygon fill="white" stroke="black" points="290,-160.083 290,-188.083 383,-188.083 383,-160.083 290,-160.083"/>
<text text-anchor="start" x="298" y="-176.883" font-family="Helvetica,sans-Serif" font-size="9.00">mexiface::explore::</text>
<text text-anchor="middle" x="336.5" y="-166.883" font-family="Helvetica,sans-Serif" font-size="9.00">analyze_string</text>
</a>
</g>
</g>
<!-- Node2&#45;&gt;Node6 -->
<g id="edge5" class="edge"><title>Node2&#45;&gt;Node6</title>
<path fill="none" stroke="midnightblue" d="M246.604,-141.184C259.539,-145.971 274.156,-151.381 287.747,-156.41"/>
<polygon fill="midnightblue" stroke="midnightblue" points="286.83,-159.803 297.423,-159.991 289.259,-153.238 286.83,-159.803"/>
</g>
<!-- Node7 -->
<g id="node7" class="node"><title>Node7</title>
<g id="a_node7"><a xlink:href="namespacemexiface_1_1explore.html#a6205a96e991f64a98345df5645dd0ba5" target="_top" xlink:title="mexiface::explore::\lanalyze_structure">
<polygon fill="white" stroke="black" points="290,-19.0827 290,-47.0827 383,-47.0827 383,-19.0827 290,-19.0827"/>
<text text-anchor="start" x="298" y="-35.8827" font-family="Helvetica,sans-Serif" font-size="9.00">mexiface::explore::</text>
<text text-anchor="middle" x="336.5" y="-25.8827" font-family="Helvetica,sans-Serif" font-size="9.00">analyze_structure</text>
</a>
</g>
</g>
<!-- Node2&#45;&gt;Node7 -->
<g id="edge7" class="edge"><title>Node2&#45;&gt;Node7</title>
<path fill="none" stroke="midnightblue" d="M216.953,-112.883C229.705,-97.0073 255.152,-72.255 281.198,-53.2585"/>
<polygon fill="midnightblue" stroke="midnightblue" points="283.491,-55.925 289.661,-47.3115 279.466,-50.1978 283.491,-55.925"/>
</g>
<!-- Node9 -->
<g id="node9" class="node"><title>Node9</title>
<g id="a_node9"><a xlink:href="namespacemexiface_1_1explore.html#a2fd795aab0989018a48cfce5b8f63719" target="_top" xlink:title="mexiface::explore::\lanalyze_cell">
<polygon fill="white" stroke="black" points="290,-113.083 290,-141.083 383,-141.083 383,-113.083 290,-113.083"/>
<text text-anchor="start" x="298" y="-129.883" font-family="Helvetica,sans-Serif" font-size="9.00">mexiface::explore::</text>
<text text-anchor="middle" x="336.5" y="-119.883" font-family="Helvetica,sans-Serif" font-size="9.00">analyze_cell</text>
</a>
</g>
</g>
<!-- Node2&#45;&gt;Node9 -->
<g id="edge11" class="edge"><title>Node2&#45;&gt;Node9</title>
<path fill="none" stroke="midnightblue" d="M254.35,-120.57C262.533,-120.345 271.141,-120.28 279.568,-120.376"/>
<polygon fill="midnightblue" stroke="midnightblue" points="279.652,-123.878 289.717,-120.572 279.787,-116.879 279.652,-123.878"/>
</g>
<!-- Node10 -->
<g id="node10" class="node"><title>Node10</title>
<g id="a_node10"><a xlink:href="namespacemexiface_1_1explore.html#aad11efd374cd1c241da644051e4d3479" target="_top" xlink:title="mexiface::explore::\lanalyze_full">
<polygon fill="white" stroke="black" points="290,-352.083 290,-380.083 383,-380.083 383,-352.083 290,-352.083"/>
<text text-anchor="start" x="298" y="-368.883" font-family="Helvetica,sans-Serif" font-size="9.00">mexiface::explore::</text>
<text text-anchor="middle" x="336.5" y="-358.883" font-family="Helvetica,sans-Serif" font-size="9.00">analyze_full</text>
</a>
</g>
</g>
<!-- Node2&#45;&gt;Node10 -->
<g id="edge15" class="edge"><title>Node2&#45;&gt;Node10</title>
<path fill="none" stroke="midnightblue" d="M216.064,-141.318C237.24,-181.169 297.263,-294.126 323.253,-343.035"/>
<polygon fill="midnightblue" stroke="midnightblue" points="320.192,-344.734 327.976,-351.923 326.374,-341.449 320.192,-344.734"/>
</g>
<!-- Node5 -->
<g id="node5" class="node"><title>Node5</title>
<g id="a_node5"><a xlink:href="namespacemexiface_1_1explore.html#ad41bff4081494e68399068077d57f1ea" target="_top" xlink:title="mexiface::explore::\ldisplay_subscript">
<polygon fill="white" stroke="black" points="548,-328.083 548,-356.083 641,-356.083 641,-328.083 548,-328.083"/>
<text text-anchor="start" x="556" y="-344.883" font-family="Helvetica,sans-Serif" font-size="9.00">mexiface::explore::</text>
<text text-anchor="middle" x="594.5" y="-334.883" font-family="Helvetica,sans-Serif" font-size="9.00">display_subscript</text>
</a>
</g>
</g>
<!-- Node4&#45;&gt;Node5 -->
<g id="edge4" class="edge"><title>Node4&#45;&gt;Node5</title>
<path fill="none" stroke="midnightblue" d="M344.359,-542.22C356.078,-564.526 382.294,-607.095 419,-624.083 456.511,-641.443 478.964,-648.923 512,-624.083 553.979,-592.518 581.194,-428.962 590.205,-366.43"/>
<polygon fill="midnightblue" stroke="midnightblue" points="593.702,-366.7 591.631,-356.309 586.77,-365.723 593.702,-366.7"/>
</g>
<!-- Node6&#45;&gt;Node5 -->
<g id="edge6" class="edge"><title>Node6&#45;&gt;Node5</title>
<path fill="none" stroke="midnightblue" d="M366.727,-160.01C403.712,-144.445 467.899,-125.134 512,-154.083 568.237,-190.998 585.862,-275.957 591.233,-317.84"/>
<polygon fill="midnightblue" stroke="midnightblue" points="587.779,-318.437 592.398,-327.971 594.733,-317.637 587.779,-318.437"/>
</g>
<!-- Node7&#45;&gt;Node2 -->
<g id="edge10" class="edge"><title>Node7&#45;&gt;Node2</title>
<path fill="none" stroke="midnightblue" d="M320.639,-47.2188C311.487,-52.6486 299.693,-58.5597 290,-65.0827 271.741,-77.3702 253.107,-93.3008 238.273,-106.092"/>
<polygon fill="midnightblue" stroke="midnightblue" points="235.741,-103.654 230.45,-112.833 240.31,-108.957 235.741,-103.654"/>
</g>
<!-- Node7&#45;&gt;Node5 -->
<g id="edge8" class="edge"><title>Node7&#45;&gt;Node5</title>
<path fill="none" stroke="midnightblue" d="M378.715,-19.038C417.249,-8.72139 474.351,-1.00516 512,-30.0827 558.273,-65.8213 583.292,-250.941 590.935,-317.888"/>
<polygon fill="midnightblue" stroke="midnightblue" points="587.468,-318.372 592.051,-327.924 594.425,-317.599 587.468,-318.372"/>
</g>
<!-- Node7&#45;&gt;Node8 -->
<g id="edge9" class="edge"><title>Node7&#45;&gt;Node8</title>
<path fill="none" stroke="midnightblue" d="M383.35,-40.6642C391.623,-42.0322 400.33,-43.4719 408.846,-44.8801"/>
<polygon fill="midnightblue" stroke="midnightblue" points="408.28,-48.334 418.717,-46.5124 409.422,-41.4278 408.28,-48.334"/>
</g>
<!-- Node9&#45;&gt;Node2 -->
<g id="edge14" class="edge"><title>Node9&#45;&gt;Node2</title>
<path fill="none" stroke="midnightblue" d="M289.717,-133.594C281.537,-133.82 272.93,-133.886 264.501,-133.791"/>
<polygon fill="midnightblue" stroke="midnightblue" points="264.415,-130.289 254.35,-133.595 264.281,-137.287 264.415,-130.289"/>
</g>
<!-- Node9&#45;&gt;Node5 -->
<g id="edge12" class="edge"><title>Node9&#45;&gt;Node5</title>
<path fill="none" stroke="midnightblue" d="M383.088,-116.84C421.126,-111.023 474.917,-109.452 512,-136.083 571.903,-179.101 587.793,-273.249 591.996,-317.798"/>
<polygon fill="midnightblue" stroke="midnightblue" points="588.526,-318.313 592.832,-327.994 595.503,-317.741 588.526,-318.313"/>
</g>
<!-- Node9&#45;&gt;Node8 -->
<g id="edge13" class="edge"><title>Node9&#45;&gt;Node8</title>
<path fill="none" stroke="midnightblue" d="M365.063,-112.861C371.012,-109.703 377.243,-106.328 383,-103.083 399.674,-93.6826 417.961,-82.7468 432.98,-73.5943"/>
<polygon fill="midnightblue" stroke="midnightblue" points="435.164,-76.3613 441.866,-68.1556 431.509,-70.3909 435.164,-76.3613"/>
</g>
<!-- Node11 -->
<g id="node11" class="node"><title>Node11</title>
<g id="a_node11"><a xlink:href="namespacemexiface_1_1explore.html#abbbd19941bd43d361d33e21fb0dadbae" target="_top" xlink:title="mexiface::explore::\lanalyze_int8">
<polygon fill="white" stroke="black" points="419,-399.083 419,-427.083 512,-427.083 512,-399.083 419,-399.083"/>
<text text-anchor="start" x="427" y="-415.883" font-family="Helvetica,sans-Serif" font-size="9.00">mexiface::explore::</text>
<text text-anchor="middle" x="465.5" y="-405.883" font-family="Helvetica,sans-Serif" font-size="9.00">analyze_int8</text>
</a>
</g>
</g>
<!-- Node10&#45;&gt;Node11 -->
<g id="edge16" class="edge"><title>Node10&#45;&gt;Node11</title>
<path fill="none" stroke="midnightblue" d="M375.604,-380.184C388.539,-384.971 403.156,-390.381 416.747,-395.41"/>
<polygon fill="midnightblue" stroke="midnightblue" points="415.83,-398.803 426.423,-398.991 418.259,-392.238 415.83,-398.803"/>
</g>
<!-- Node12 -->
<g id="node12" class="node"><title>Node12</title>
<g id="a_node12"><a xlink:href="namespacemexiface_1_1explore.html#ae0e1687942c1e218a665eedeadc63456" target="_top" xlink:title="mexiface::explore::\lanalyze_uint8">
<polygon fill="white" stroke="black" points="419,-352.083 419,-380.083 512,-380.083 512,-352.083 419,-352.083"/>
<text text-anchor="start" x="427" y="-368.883" font-family="Helvetica,sans-Serif" font-size="9.00">mexiface::explore::</text>
<text text-anchor="middle" x="465.5" y="-358.883" font-family="Helvetica,sans-Serif" font-size="9.00">analyze_uint8</text>
</a>
</g>
</g>
<!-- Node10&#45;&gt;Node12 -->
<g id="edge18" class="edge"><title>Node10&#45;&gt;Node12</title>
<path fill="none" stroke="midnightblue" d="M383.35,-366.083C391.533,-366.083 400.141,-366.083 408.568,-366.083"/>
<polygon fill="midnightblue" stroke="midnightblue" points="408.717,-369.583 418.717,-366.083 408.717,-362.583 408.717,-369.583"/>
</g>
<!-- Node13 -->
<g id="node13" class="node"><title>Node13</title>
<g id="a_node13"><a xlink:href="namespacemexiface_1_1explore.html#a2c3a4139675fbbf8ca7ab0f92d6f11fd" target="_top" xlink:title="mexiface::explore::\lanalyze_int16">
<polygon fill="white" stroke="black" points="419,-305.083 419,-333.083 512,-333.083 512,-305.083 419,-305.083"/>
<text text-anchor="start" x="427" y="-321.883" font-family="Helvetica,sans-Serif" font-size="9.00">mexiface::explore::</text>
<text text-anchor="middle" x="465.5" y="-311.883" font-family="Helvetica,sans-Serif" font-size="9.00">analyze_int16</text>
</a>
</g>
</g>
<!-- Node10&#45;&gt;Node13 -->
<g id="edge20" class="edge"><title>Node10&#45;&gt;Node13</title>
<path fill="none" stroke="midnightblue" d="M375.604,-351.981C388.539,-347.194 403.156,-341.785 416.747,-336.755"/>
<polygon fill="midnightblue" stroke="midnightblue" points="418.259,-339.928 426.423,-333.174 415.83,-333.363 418.259,-339.928"/>
</g>
<!-- Node14 -->
<g id="node14" class="node"><title>Node14</title>
<g id="a_node14"><a xlink:href="namespacemexiface_1_1explore.html#aa1951af918bc0b264d05f2db4fbec9e1" target="_top" xlink:title="mexiface::explore::\lanalyze_uint16">
<polygon fill="white" stroke="black" points="419,-258.083 419,-286.083 512,-286.083 512,-258.083 419,-258.083"/>
<text text-anchor="start" x="427" y="-274.883" font-family="Helvetica,sans-Serif" font-size="9.00">mexiface::explore::</text>
<text text-anchor="middle" x="465.5" y="-264.883" font-family="Helvetica,sans-Serif" font-size="9.00">analyze_uint16</text>
</a>
</g>
</g>
<!-- Node10&#45;&gt;Node14 -->
<g id="edge22" class="edge"><title>Node10&#45;&gt;Node14</title>
<path fill="none" stroke="midnightblue" d="M351.619,-351.822C367.201,-336.571 393.468,-312.265 419,-295.083 420.909,-293.798 422.9,-292.537 424.936,-291.308"/>
<polygon fill="midnightblue" stroke="midnightblue" points="427.063,-294.125 434.04,-286.152 423.614,-288.034 427.063,-294.125"/>
</g>
<!-- Node15 -->
<g id="node15" class="node"><title>Node15</title>
<g id="a_node15"><a xlink:href="namespacemexiface_1_1explore.html#ad8657b3604a735ef428823cdf0a72722" target="_top" xlink:title="mexiface::explore::\lanalyze_int32">
<polygon fill="white" stroke="black" points="419,-211.083 419,-239.083 512,-239.083 512,-211.083 419,-211.083"/>
<text text-anchor="start" x="427" y="-227.883" font-family="Helvetica,sans-Serif" font-size="9.00">mexiface::explore::</text>
<text text-anchor="middle" x="465.5" y="-217.883" font-family="Helvetica,sans-Serif" font-size="9.00">analyze_int32</text>
</a>
</g>
</g>
<!-- Node10&#45;&gt;Node15 -->
<g id="edge24" class="edge"><title>Node10&#45;&gt;Node15</title>
<path fill="none" stroke="midnightblue" d="M344.229,-352.041C356.306,-328.065 383.724,-278.848 419,-248.083 420.284,-246.963 421.632,-245.881 423.028,-244.839"/>
<polygon fill="midnightblue" stroke="midnightblue" points="425.003,-247.728 431.419,-239.297 421.146,-241.887 425.003,-247.728"/>
</g>
<!-- Node16 -->
<g id="node16" class="node"><title>Node16</title>
<g id="a_node16"><a xlink:href="namespacemexiface_1_1explore.html#aa0ebed3704023f9816e91293c9c08253" target="_top" xlink:title="mexiface::explore::\lanalyze_uint32">
<polygon fill="white" stroke="black" points="419,-164.083 419,-192.083 512,-192.083 512,-164.083 419,-164.083"/>
<text text-anchor="start" x="427" y="-180.883" font-family="Helvetica,sans-Serif" font-size="9.00">mexiface::explore::</text>
<text text-anchor="middle" x="465.5" y="-170.883" font-family="Helvetica,sans-Serif" font-size="9.00">analyze_uint32</text>
</a>
</g>
</g>
<!-- Node10&#45;&gt;Node16 -->
<g id="edge26" class="edge"><title>Node10&#45;&gt;Node16</title>
<path fill="none" stroke="midnightblue" d="M341.167,-351.903C349.825,-320.899 374.25,-246.248 419,-201.083 420.051,-200.022 421.162,-199.001 422.319,-198.019"/>
<polygon fill="midnightblue" stroke="midnightblue" points="424.449,-200.797 430.503,-192.102 420.348,-195.125 424.449,-200.797"/>
</g>
<!-- Node17 -->
<g id="node17" class="node"><title>Node17</title>
<g id="a_node17"><a xlink:href="namespacemexiface_1_1explore.html#a7025633935ccc85550b308e70b0fc771" target="_top" xlink:title="mexiface::explore::\lanalyze_int64">
<polygon fill="white" stroke="black" points="419,-587.083 419,-615.083 512,-615.083 512,-587.083 419,-587.083"/>
<text text-anchor="start" x="427" y="-603.883" font-family="Helvetica,sans-Serif" font-size="9.00">mexiface::explore::</text>
<text text-anchor="middle" x="465.5" y="-593.883" font-family="Helvetica,sans-Serif" font-size="9.00">analyze_int64</text>
</a>
</g>
</g>
<!-- Node10&#45;&gt;Node17 -->
<g id="edge28" class="edge"><title>Node10&#45;&gt;Node17</title>
<path fill="none" stroke="midnightblue" d="M342.341,-380.303C357.689,-425.126 405.069,-561.422 419,-577.083 420.143,-578.367 421.371,-579.594 422.665,-580.765"/>
<polygon fill="midnightblue" stroke="midnightblue" points="420.592,-583.586 430.666,-586.868 424.837,-578.02 420.592,-583.586"/>
</g>
<!-- Node18 -->
<g id="node18" class="node"><title>Node18</title>
<g id="a_node18"><a xlink:href="namespacemexiface_1_1explore.html#abe63c53129e4d37e66af71c8f66d9ae6" target="_top" xlink:title="mexiface::explore::\lanalyze_uint64">
<polygon fill="white" stroke="black" points="419,-540.083 419,-568.083 512,-568.083 512,-540.083 419,-540.083"/>
<text text-anchor="start" x="427" y="-556.883" font-family="Helvetica,sans-Serif" font-size="9.00">mexiface::explore::</text>
<text text-anchor="middle" x="465.5" y="-546.883" font-family="Helvetica,sans-Serif" font-size="9.00">analyze_uint64</text>
</a>
</g>
</g>
<!-- Node10&#45;&gt;Node18 -->
<g id="edge30" class="edge"><title>Node10&#45;&gt;Node18</title>
<path fill="none" stroke="midnightblue" d="M341.249,-380.12C350.072,-410.821 374.805,-484.806 419,-530.083 420.244,-531.357 421.57,-532.578 422.958,-533.747"/>
<polygon fill="midnightblue" stroke="midnightblue" points="421.285,-536.856 431.442,-539.873 425.383,-531.181 421.285,-536.856"/>
</g>
<!-- Node19 -->
<g id="node19" class="node"><title>Node19</title>
<g id="a_node19"><a xlink:href="namespacemexiface_1_1explore.html#acaf0a238e5467e317ae037a966647626" target="_top" xlink:title="mexiface::explore::\lanalyze_single">
<polygon fill="white" stroke="black" points="419,-493.083 419,-521.083 512,-521.083 512,-493.083 419,-493.083"/>
<text text-anchor="start" x="427" y="-509.883" font-family="Helvetica,sans-Serif" font-size="9.00">mexiface::explore::</text>
<text text-anchor="middle" x="465.5" y="-499.883" font-family="Helvetica,sans-Serif" font-size="9.00">analyze_single</text>
</a>
</g>
</g>
<!-- Node10&#45;&gt;Node19 -->
<g id="edge32" class="edge"><title>Node10&#45;&gt;Node19</title>
<path fill="none" stroke="midnightblue" d="M344.512,-380.318C356.816,-404.126 384.316,-452.424 419,-483.083 420.685,-484.573 422.48,-486.002 424.345,-487.367"/>
<polygon fill="midnightblue" stroke="midnightblue" points="422.577,-490.393 432.861,-492.942 426.411,-484.537 422.577,-490.393"/>
</g>
<!-- Node20 -->
<g id="node20" class="node"><title>Node20</title>
<g id="a_node20"><a xlink:href="namespacemexiface_1_1explore.html#a3b7a85eeb040efe041ae992581c3861b" target="_top" xlink:title="mexiface::explore::\lanalyze_double">
<polygon fill="white" stroke="black" points="419,-446.083 419,-474.083 512,-474.083 512,-446.083 419,-446.083"/>
<text text-anchor="start" x="427" y="-462.883" font-family="Helvetica,sans-Serif" font-size="9.00">mexiface::explore::</text>
<text text-anchor="middle" x="465.5" y="-452.883" font-family="Helvetica,sans-Serif" font-size="9.00">analyze_double</text>
</a>
</g>
</g>
<!-- Node10&#45;&gt;Node20 -->
<g id="edge34" class="edge"><title>Node10&#45;&gt;Node20</title>
<path fill="none" stroke="midnightblue" d="M352.001,-380.313C367.697,-395.277 393.865,-418.979 419,-436.083 421.503,-437.786 424.142,-439.46 426.836,-441.081"/>
<polygon fill="midnightblue" stroke="midnightblue" points="425.112,-444.127 435.531,-446.055 428.588,-438.051 425.112,-444.127"/>
</g>
<!-- Node11&#45;&gt;Node5 -->
<g id="edge17" class="edge"><title>Node11&#45;&gt;Node5</title>
<path fill="none" stroke="midnightblue" d="M493.537,-399.036C499.633,-395.81 506.057,-392.362 512,-389.083 528.225,-380.13 546.075,-369.881 560.925,-361.244"/>
<polygon fill="midnightblue" stroke="midnightblue" points="562.867,-364.163 569.741,-356.1 559.34,-358.116 562.867,-364.163"/>
</g>
<!-- Node12&#45;&gt;Node5 -->
<g id="edge19" class="edge"><title>Node12&#45;&gt;Node5</title>
<path fill="none" stroke="midnightblue" d="M512.35,-357.418C520.623,-355.855 529.33,-354.209 537.846,-352.6"/>
<polygon fill="midnightblue" stroke="midnightblue" points="538.541,-356.031 547.717,-350.735 537.241,-349.152 538.541,-356.031"/>
</g>
<!-- Node13&#45;&gt;Node5 -->
<g id="edge21" class="edge"><title>Node13&#45;&gt;Node5</title>
<path fill="none" stroke="midnightblue" d="M512.35,-327.386C520.623,-328.885 529.33,-330.461 537.846,-332.004"/>
<polygon fill="midnightblue" stroke="midnightblue" points="537.254,-335.453 547.717,-333.791 538.501,-328.565 537.254,-335.453"/>
</g>
<!-- Node14&#45;&gt;Node5 -->
<g id="edge23" class="edge"><title>Node14&#45;&gt;Node5</title>
<path fill="none" stroke="midnightblue" d="M495.023,-286.198C500.678,-289.082 506.55,-292.136 512,-295.083 528.302,-303.895 546.161,-314.127 560.996,-322.79"/>
<polygon fill="midnightblue" stroke="midnightblue" points="559.405,-325.915 569.801,-327.955 562.946,-319.877 559.405,-325.915"/>
</g>
<!-- Node15&#45;&gt;Node5 -->
<g id="edge25" class="edge"><title>Node15&#45;&gt;Node5</title>
<path fill="none" stroke="midnightblue" d="M498.309,-239.142C503.088,-241.819 507.812,-244.817 512,-248.083 538.529,-268.769 562.945,-299.078 577.999,-319.644"/>
<polygon fill="midnightblue" stroke="midnightblue" points="575.182,-321.722 583.856,-327.805 580.869,-317.64 575.182,-321.722"/>
</g>
<!-- Node16&#45;&gt;Node5 -->
<g id="edge27" class="edge"><title>Node16&#45;&gt;Node5</title>
<path fill="none" stroke="midnightblue" d="M500.293,-192.311C504.494,-194.877 508.527,-197.799 512,-201.083 547.81,-234.939 572.637,-288.055 584.837,-318.51"/>
<polygon fill="midnightblue" stroke="midnightblue" points="581.605,-319.855 588.488,-327.909 588.13,-317.32 581.605,-319.855"/>
</g>
<!-- Node17&#45;&gt;Node5 -->
<g id="edge29" class="edge"><title>Node17&#45;&gt;Node5</title>
<path fill="none" stroke="midnightblue" d="M500.454,-586.973C504.731,-584.159 508.741,-580.877 512,-577.083 566.308,-513.85 585.054,-412.37 590.99,-366.269"/>
<polygon fill="midnightblue" stroke="midnightblue" points="594.47,-366.642 592.182,-356.297 587.52,-365.811 594.47,-366.642"/>
</g>
<!-- Node18&#45;&gt;Node5 -->
<g id="edge31" class="edge"><title>Node18&#45;&gt;Node5</title>
<path fill="none" stroke="midnightblue" d="M499.734,-540.04C504.219,-537.193 508.48,-533.883 512,-530.083 556.861,-481.66 579.507,-404.664 588.573,-365.955"/>
<polygon fill="midnightblue" stroke="midnightblue" points="592.008,-366.632 590.777,-356.109 585.177,-365.102 592.008,-366.632"/>
</g>
<!-- Node19&#45;&gt;Node5 -->
<g id="edge33" class="edge"><title>Node19&#45;&gt;Node5</title>
<path fill="none" stroke="midnightblue" d="M498.883,-492.953C503.587,-490.09 508.138,-486.798 512,-483.083 547.515,-448.917 572.449,-395.913 584.747,-365.561"/>
<polygon fill="midnightblue" stroke="midnightblue" points="588.027,-366.783 588.43,-356.196 581.513,-364.221 588.027,-366.783"/>
</g>
<!-- Node20&#45;&gt;Node5 -->
<g id="edge35" class="edge"><title>Node20&#45;&gt;Node5</title>
<path fill="none" stroke="midnightblue" d="M497.336,-445.829C502.441,-442.913 507.523,-439.636 512,-436.083 538.349,-415.167 562.803,-384.908 577.916,-364.416"/>
<polygon fill="midnightblue" stroke="midnightblue" points="580.771,-366.44 583.799,-356.287 575.101,-362.336 580.771,-366.44"/>
</g>
</g>
</svg>
        <g id="navigator" transform="translate(0 0)" fill="#404254">
                <rect fill="#f2f5e9" fill-opacity="0.5" stroke="#606060" stroke-width=".5" x="0" y="0" width="60" height="60"/>
                <use id="zoomplus" xlink:href="#zoomPlus" x="17" y="9" onmousedown="handleZoom(evt,'in')"/>
                <use id="zoomminus" xlink:href="#zoomMin" x="42" y="9" onmousedown="handleZoom(evt,'out')"/>
                <use id="reset" xlink:href="#resetDef" x="30" y="36" onmousedown="handleReset()"/>
                <g id="arrowUp" xlink:href="#dirArrow" transform="translate(30 24)" onmousedown="handlePan(0,-1)">
                  <use xlink:href="#rim" fill="#404040">
                        <set attributeName="fill" to="#808080" begin="arrowUp.mouseover" end="arrowUp.mouseout"/>
                  </use>
                  <path fill="none" stroke="white" stroke-width="1.5" d="M0,-3.0v7 M-2.5,-0.5L0,-3.0L2.5,-0.5"/>
                </g>
                <g id="arrowRight" xlink:href="#dirArrow" transform="rotate(90) translate(36 -43)" onmousedown="handlePan(1,0)">
                  <use xlink:href="#rim" fill="#404040">
                        <set attributeName="fill" to="#808080" begin="arrowRight.mouseover" end="arrowRight.mouseout"/>
                  </use>
                  <path fill="none" stroke="white" stroke-width="1.5" d="M0,-3.0v7 M-2.5,-0.5L0,-3.0L2.5,-0.5"/>
                </g>
                <g id="arrowDown" xlink:href="#dirArrow" transform="rotate(180) translate(-30 -48)" onmousedown="handlePan(0,1)">
                  <use xlink:href="#rim" fill="#404040">
                        <set attributeName="fill" to="#808080" begin="arrowDown.mouseover" end="arrowDown.mouseout"/>
                  </use>
                  <path fill="none" stroke="white" stroke-width="1.5" d="M0,-3.0v7 M-2.5,-0.5L0,-3.0L2.5,-0.5"/>
                </g>
                <g id="arrowLeft" xlink:href="#dirArrow" transform="rotate(270) translate(-36 17)" onmousedown="handlePan(-1,0)">
                  <use xlink:href="#rim" fill="#404040">
                        <set attributeName="fill" to="#808080" begin="arrowLeft.mouseover" end="arrowLeft.mouseout"/>
                  </use>
                  <path fill="none" stroke="white" stroke-width="1.5" d="M0,-3.0v7 M-2.5,-0.5L0,-3.0L2.5,-0.5"/>
                </g>
        </g>
        <svg viewBox="0 0 15 15" width="100%" height="30px" preserveAspectRatio="xMaxYMin meet">
         <g id="arrow_out" transform="scale(0.3 0.3)">
          <a xlink:href="namespacemexiface_ae54146cf35d29dcc6c83a8ca96b62549_cgraph_org.svg" target="_base">
           <rect id="button" ry="5" rx="5" y="6" x="6" height="38" width="38"
                fill="#f2f5e9" fill-opacity="0.5" stroke="#606060" stroke-width="1.0"/>
           <path id="arrow"
             d="M 11.500037,31.436501 C 11.940474,20.09759 22.043105,11.32322 32.158766,21.979434 L 37.068811,17.246167 C 37.068811,17.246167 37.088388,32 37.088388,32 L 22.160133,31.978069 C 22.160133,31.978069 26.997745,27.140456 26.997745,27.140456 C 18.528582,18.264221 13.291696,25.230495 11.500037,31.436501 z"
             style="fill:#404040;"/>
          </a>
         </g>
        </svg>
</svg>
