<?xml version="1.0" encoding="UTF-8" standalone="no"?>
<!DOCTYPE svg PUBLIC "-//W3C//DTD SVG 1.1//EN"
 "http://www.w3.org/Graphics/SVG/1.1/DTD/svg11.dtd">
<!-- Generated by graphviz version 2.38.0 (20140413.2041)
 -->
<!-- Title: mexiface::explore::display_subscript Pages: 1 -->
<svg width="799pt" height="573pt"
 viewBox="0.00 0.00 799.00 572.79" xmlns="http://www.w3.org/2000/svg" xmlns:xlink="http://www.w3.org/1999/xlink">
<g id="graph0" class="graph" transform="scale(1 1) rotate(0) translate(4 568.794)">
<title>mexiface::explore::display_subscript</title>
<polygon fill="white" stroke="none" points="-4,4 -4,-568.794 795,-568.794 795,4 -4,4"/>
<!-- Node1 -->
<g id="node1" class="node"><title>Node1</title>
<polygon fill="#bfbfbf" stroke="black" points="0,-263.073 0,-291.073 93,-291.073 93,-263.073 0,-263.073"/>
<text text-anchor="start" x="8" y="-279.873" font-family="Helvetica,sans-Serif" font-size="9.00">mexiface::explore::</text>
<text text-anchor="middle" x="46.5" y="-269.873" font-family="Helvetica,sans-Serif" font-size="9.00">display_subscript</text>
</g>
<!-- Node2 -->
<g id="node2" class="node"><title>Node2</title>
<g id="a_node2"><a xlink:href="namespacemexiface_1_1explore.html#a2fd795aab0989018a48cfce5b8f63719" target="_top" xlink:title="mexiface::explore::\lanalyze_cell">
<polygon fill="white" stroke="black" points="258,-311.073 258,-339.073 351,-339.073 351,-311.073 258,-311.073"/>
<text text-anchor="start" x="266" y="-327.873" font-family="Helvetica,sans-Serif" font-size="9.00">mexiface::explore::</text>
<text text-anchor="middle" x="304.5" y="-317.873" font-family="Helvetica,sans-Serif" font-size="9.00">analyze_cell</text>
</a>
</g>
</g>
<!-- Node1&#45;&gt;Node2 -->
<g id="edge1" class="edge"><title>Node1&#45;&gt;Node2</title>
<path fill="none" stroke="midnightblue" d="M47.4174,-301.285C48.7238,-350.902 59.589,-463.61 129,-513.073 162.661,-537.06 187.446,-535.755 222,-513.073 283.263,-472.86 298.704,-375.631 302.398,-339.185"/>
<polygon fill="midnightblue" stroke="midnightblue" points="50.9153,-301.11 47.2638,-291.164 43.9161,-301.216 50.9153,-301.11"/>
</g>
<!-- Node4 -->
<g id="node4" class="node"><title>Node4</title>
<g id="a_node4"><a xlink:href="namespacemexiface_1_1explore.html#a6205a96e991f64a98345df5645dd0ba5" target="_top" xlink:title="mexiface::explore::\lanalyze_structure">
<polygon fill="white" stroke="black" points="532,-308.073 532,-336.073 625,-336.073 625,-308.073 532,-308.073"/>
<text text-anchor="start" x="540" y="-324.873" font-family="Helvetica,sans-Serif" font-size="9.00">mexiface::explore::</text>
<text text-anchor="middle" x="578.5" y="-314.873" font-family="Helvetica,sans-Serif" font-size="9.00">analyze_structure</text>
</a>
</g>
</g>
<!-- Node1&#45;&gt;Node4 -->
<g id="edge26" class="edge"><title>Node1&#45;&gt;Node4</title>
<path fill="none" stroke="midnightblue" d="M46.6103,-301.274C46.1526,-354.162 53.479,-479.73 129,-535.073 285.092,-649.46 512.331,-399.416 565.889,-336.15"/>
<polygon fill="midnightblue" stroke="midnightblue" points="50.1121,-301.208 46.8044,-291.143 43.1134,-301.074 50.1121,-301.208"/>
</g>
<!-- Node8 -->
<g id="node8" class="node"><title>Node8</title>
<g id="a_node8"><a xlink:href="namespacemexiface_1_1explore.html#a3b7a85eeb040efe041ae992581c3861b" target="_top" xlink:title="mexiface::explore::\lanalyze_double">
<polygon fill="white" stroke="black" points="129,-475.073 129,-503.073 222,-503.073 222,-475.073 129,-475.073"/>
<text text-anchor="start" x="137" y="-491.873" font-family="Helvetica,sans-Serif" font-size="9.00">mexiface::explore::</text>
<text text-anchor="middle" x="175.5" y="-481.873" font-family="Helvetica,sans-Serif" font-size="9.00">analyze_double</text>
</a>
</g>
</g>
<!-- Node1&#45;&gt;Node8 -->
<g id="edge9" class="edge"><title>Node1&#45;&gt;Node8</title>
<path fill="none" stroke="midnightblue" d="M52.2963,-301.161C61.1771,-340.202 83.5649,-417.783 129,-466.073 132.154,-469.425 135.904,-472.365 139.878,-474.921"/>
<polygon fill="midnightblue" stroke="midnightblue" points="55.6821,-300.259 50.1417,-291.228 48.8412,-301.743 55.6821,-300.259"/>
</g>
<!-- Node10 -->
<g id="node10" class="node"><title>Node10</title>
<g id="a_node10"><a xlink:href="namespacemexiface_1_1explore.html#a2c3a4139675fbbf8ca7ab0f92d6f11fd" target="_top" xlink:title="mexiface::explore::\lanalyze_int16">
<polygon fill="white" stroke="black" points="129,-428.073 129,-456.073 222,-456.073 222,-428.073 129,-428.073"/>
<text text-anchor="start" x="137" y="-444.873" font-family="Helvetica,sans-Serif" font-size="9.00">mexiface::explore::</text>
<text text-anchor="middle" x="175.5" y="-434.873" font-family="Helvetica,sans-Serif" font-size="9.00">analyze_int16</text>
</a>
</g>
</g>
<!-- Node1&#45;&gt;Node10 -->
<g id="edge12" class="edge"><title>Node1&#45;&gt;Node10</title>
<path fill="none" stroke="midnightblue" d="M56.1206,-300.815C68.2743,-331.488 93.0515,-384.981 129,-419.073 132.468,-422.362 136.498,-425.287 140.697,-427.855"/>
<polygon fill="midnightblue" stroke="midnightblue" points="59.3376,-299.429 52.4849,-291.349 52.803,-301.939 59.3376,-299.429"/>
</g>
<!-- Node11 -->
<g id="node11" class="node"><title>Node11</title>
<g id="a_node11"><a xlink:href="namespacemexiface_1_1explore.html#ad8657b3604a735ef428823cdf0a72722" target="_top" xlink:title="mexiface::explore::\lanalyze_int32">
<polygon fill="white" stroke="black" points="129,-381.073 129,-409.073 222,-409.073 222,-381.073 129,-381.073"/>
<text text-anchor="start" x="137" y="-397.873" font-family="Helvetica,sans-Serif" font-size="9.00">mexiface::explore::</text>
<text text-anchor="middle" x="175.5" y="-387.873" font-family="Helvetica,sans-Serif" font-size="9.00">analyze_int32</text>
</a>
</g>
</g>
<!-- Node1&#45;&gt;Node11 -->
<g id="edge14" class="edge"><title>Node1&#45;&gt;Node11</title>
<path fill="none" stroke="midnightblue" d="M62.6996,-299.412C77.6974,-320.21 102.214,-351.074 129,-372.073 133.179,-375.35 137.899,-378.354 142.676,-381.033"/>
<polygon fill="midnightblue" stroke="midnightblue" points="65.5061,-297.319 56.8759,-291.173 59.79,-301.36 65.5061,-297.319"/>
</g>
<!-- Node12 -->
<g id="node12" class="node"><title>Node12</title>
<g id="a_node12"><a xlink:href="namespacemexiface_1_1explore.html#a7025633935ccc85550b308e70b0fc771" target="_top" xlink:title="mexiface::explore::\lanalyze_int64">
<polygon fill="white" stroke="black" points="129,-334.073 129,-362.073 222,-362.073 222,-334.073 129,-334.073"/>
<text text-anchor="start" x="137" y="-350.873" font-family="Helvetica,sans-Serif" font-size="9.00">mexiface::explore::</text>
<text text-anchor="middle" x="175.5" y="-340.873" font-family="Helvetica,sans-Serif" font-size="9.00">analyze_int64</text>
</a>
</g>
</g>
<!-- Node1&#45;&gt;Node12 -->
<g id="edge16" class="edge"><title>Node1&#45;&gt;Node12</title>
<path fill="none" stroke="midnightblue" d="M79.3131,-296.45C94.265,-305.391 112.413,-316.009 129,-325.073 134.437,-328.044 140.302,-331.11 145.956,-333.997"/>
<polygon fill="midnightblue" stroke="midnightblue" points="80.833,-293.28 70.459,-291.128 77.2269,-299.279 80.833,-293.28"/>
</g>
<!-- Node13 -->
<g id="node13" class="node"><title>Node13</title>
<g id="a_node13"><a xlink:href="namespacemexiface_1_1explore.html#abbbd19941bd43d361d33e21fb0dadbae" target="_top" xlink:title="mexiface::explore::\lanalyze_int8">
<polygon fill="white" stroke="black" points="129,-287.073 129,-315.073 222,-315.073 222,-287.073 129,-287.073"/>
<text text-anchor="start" x="137" y="-303.873" font-family="Helvetica,sans-Serif" font-size="9.00">mexiface::explore::</text>
<text text-anchor="middle" x="175.5" y="-293.873" font-family="Helvetica,sans-Serif" font-size="9.00">analyze_int8</text>
</a>
</g>
</g>
<!-- Node1&#45;&gt;Node13 -->
<g id="edge18" class="edge"><title>Node1&#45;&gt;Node13</title>
<path fill="none" stroke="midnightblue" d="M103.224,-287.604C111.74,-289.213 120.447,-290.858 128.717,-292.421"/>
<polygon fill="midnightblue" stroke="midnightblue" points="103.826,-284.156 93.3499,-285.738 102.526,-291.034 103.826,-284.156"/>
</g>
<!-- Node14 -->
<g id="node14" class="node"><title>Node14</title>
<g id="a_node14"><a xlink:href="namespacemexiface_1_1explore.html#ae6d95ef17338c9baa90e1ce1c3e33d0f" target="_top" xlink:title="mexiface::explore::\lanalyze_logical">
<polygon fill="white" stroke="black" points="258,-162.073 258,-190.073 351,-190.073 351,-162.073 258,-162.073"/>
<text text-anchor="start" x="266" y="-178.873" font-family="Helvetica,sans-Serif" font-size="9.00">mexiface::explore::</text>
<text text-anchor="middle" x="304.5" y="-168.873" font-family="Helvetica,sans-Serif" font-size="9.00">analyze_logical</text>
</a>
</g>
</g>
<!-- Node1&#45;&gt;Node14 -->
<g id="edge20" class="edge"><title>Node1&#45;&gt;Node14</title>
<path fill="none" stroke="midnightblue" d="M47.4546,-252.961C48.8306,-203.546 59.8194,-91.3037 129,-42.0732 162.677,-18.1081 185.971,-21.8166 222,-42.0732 268.52,-68.2281 291.58,-132.882 299.834,-161.751"/>
<polygon fill="midnightblue" stroke="midnightblue" points="43.9538,-252.983 47.2863,-263.04 50.9528,-253.099 43.9538,-252.983"/>
</g>
<!-- Node15 -->
<g id="node15" class="node"><title>Node15</title>
<g id="a_node15"><a xlink:href="namespacemexiface_1_1explore.html#acaf0a238e5467e317ae037a966647626" target="_top" xlink:title="mexiface::explore::\lanalyze_single">
<polygon fill="white" stroke="black" points="129,-240.073 129,-268.073 222,-268.073 222,-240.073 129,-240.073"/>
<text text-anchor="start" x="137" y="-256.873" font-family="Helvetica,sans-Serif" font-size="9.00">mexiface::explore::</text>
<text text-anchor="middle" x="175.5" y="-246.873" font-family="Helvetica,sans-Serif" font-size="9.00">analyze_single</text>
</a>
</g>
</g>
<!-- Node1&#45;&gt;Node15 -->
<g id="edge22" class="edge"><title>Node1&#45;&gt;Node15</title>
<path fill="none" stroke="midnightblue" d="M103.224,-266.982C111.74,-265.439 120.447,-263.862 128.717,-262.365"/>
<polygon fill="midnightblue" stroke="midnightblue" points="102.566,-263.544 93.3499,-268.77 103.814,-270.432 102.566,-263.544"/>
</g>
<!-- Node16 -->
<g id="node16" class="node"><title>Node16</title>
<g id="a_node16"><a xlink:href="namespacemexiface_1_1explore.html#aaa319b6e0131959ff3d2fbd9a4c368b3" target="_top" xlink:title="mexiface::explore::\lanalyze_string">
<polygon fill="white" stroke="black" points="258,-4.07322 258,-32.0732 351,-32.0732 351,-4.07322 258,-4.07322"/>
<text text-anchor="start" x="266" y="-20.8732" font-family="Helvetica,sans-Serif" font-size="9.00">mexiface::explore::</text>
<text text-anchor="middle" x="304.5" y="-10.8732" font-family="Helvetica,sans-Serif" font-size="9.00">analyze_string</text>
</a>
</g>
</g>
<!-- Node1&#45;&gt;Node16 -->
<g id="edge24" class="edge"><title>Node1&#45;&gt;Node16</title>
<path fill="none" stroke="midnightblue" d="M46.8066,-252.902C46.7826,-200.65 54.9894,-77.429 129,-22.0732 165.521,5.2424 219.411,1.82329 257.626,-5.63393"/>
<polygon fill="midnightblue" stroke="midnightblue" points="43.3069,-252.964 46.9159,-262.925 50.3065,-252.888 43.3069,-252.964"/>
</g>
<!-- Node17 -->
<g id="node17" class="node"><title>Node17</title>
<g id="a_node17"><a xlink:href="namespacemexiface_1_1explore.html#aa1951af918bc0b264d05f2db4fbec9e1" target="_top" xlink:title="mexiface::explore::\lanalyze_uint16">
<polygon fill="white" stroke="black" points="129,-193.073 129,-221.073 222,-221.073 222,-193.073 129,-193.073"/>
<text text-anchor="start" x="137" y="-209.873" font-family="Helvetica,sans-Serif" font-size="9.00">mexiface::explore::</text>
<text text-anchor="middle" x="175.5" y="-199.873" font-family="Helvetica,sans-Serif" font-size="9.00">analyze_uint16</text>
</a>
</g>
</g>
<!-- Node1&#45;&gt;Node17 -->
<g id="edge27" class="edge"><title>Node1&#45;&gt;Node17</title>
<path fill="none" stroke="midnightblue" d="M80.7693,-258.013C95.4947,-249.65 113.056,-239.775 129,-231.073 134.958,-227.821 141.388,-224.385 147.486,-221.161"/>
<polygon fill="midnightblue" stroke="midnightblue" points="78.966,-255.012 72.0069,-263.001 82.429,-261.095 78.966,-255.012"/>
</g>
<!-- Node18 -->
<g id="node18" class="node"><title>Node18</title>
<g id="a_node18"><a xlink:href="namespacemexiface_1_1explore.html#aa0ebed3704023f9816e91293c9c08253" target="_top" xlink:title="mexiface::explore::\lanalyze_uint32">
<polygon fill="white" stroke="black" points="129,-146.073 129,-174.073 222,-174.073 222,-146.073 129,-146.073"/>
<text text-anchor="start" x="137" y="-162.873" font-family="Helvetica,sans-Serif" font-size="9.00">mexiface::explore::</text>
<text text-anchor="middle" x="175.5" y="-152.873" font-family="Helvetica,sans-Serif" font-size="9.00">analyze_uint32</text>
</a>
</g>
</g>
<!-- Node1&#45;&gt;Node18 -->
<g id="edge29" class="edge"><title>Node1&#45;&gt;Node18</title>
<path fill="none" stroke="midnightblue" d="M63.3356,-254.718C78.4971,-234.457 102.873,-204.7 129,-184.073 133.626,-180.421 138.892,-177.056 144.159,-174.074"/>
<polygon fill="midnightblue" stroke="midnightblue" points="60.3312,-252.896 57.2343,-263.028 65.9737,-257.039 60.3312,-252.896"/>
</g>
<!-- Node19 -->
<g id="node19" class="node"><title>Node19</title>
<g id="a_node19"><a xlink:href="namespacemexiface_1_1explore.html#abe63c53129e4d37e66af71c8f66d9ae6" target="_top" xlink:title="mexiface::explore::\lanalyze_uint64">
<polygon fill="white" stroke="black" points="129,-99.0732 129,-127.073 222,-127.073 222,-99.0732 129,-99.0732"/>
<text text-anchor="start" x="137" y="-115.873" font-family="Helvetica,sans-Serif" font-size="9.00">mexiface::explore::</text>
<text text-anchor="middle" x="175.5" y="-105.873" font-family="Helvetica,sans-Serif" font-size="9.00">analyze_uint64</text>
</a>
</g>
</g>
<!-- Node1&#45;&gt;Node19 -->
<g id="edge31" class="edge"><title>Node1&#45;&gt;Node19</title>
<path fill="none" stroke="midnightblue" d="M56.1629,-253.5C68.3627,-223.045 93.19,-169.93 129,-136.073 132.473,-132.79 136.506,-129.868 140.707,-127.301"/>
<polygon fill="midnightblue" stroke="midnightblue" points="52.8703,-252.31 52.512,-262.899 59.3953,-254.845 52.8703,-252.31"/>
</g>
<!-- Node20 -->
<g id="node20" class="node"><title>Node20</title>
<g id="a_node20"><a xlink:href="namespacemexiface_1_1explore.html#ae0e1687942c1e218a665eedeadc63456" target="_top" xlink:title="mexiface::explore::\lanalyze_uint8">
<polygon fill="white" stroke="black" points="129,-52.0732 129,-80.0732 222,-80.0732 222,-52.0732 129,-52.0732"/>
<text text-anchor="start" x="137" y="-68.8732" font-family="Helvetica,sans-Serif" font-size="9.00">mexiface::explore::</text>
<text text-anchor="middle" x="175.5" y="-58.8732" font-family="Helvetica,sans-Serif" font-size="9.00">analyze_uint8</text>
</a>
</g>
</g>
<!-- Node1&#45;&gt;Node20 -->
<g id="edge33" class="edge"><title>Node1&#45;&gt;Node20</title>
<path fill="none" stroke="midnightblue" d="M52.3318,-253.112C61.263,-214.277 83.7211,-137.104 129,-89.0732 132.157,-85.7241 135.909,-82.7866 139.884,-80.2317"/>
<polygon fill="midnightblue" stroke="midnightblue" points="48.8884,-252.475 50.1637,-262.992 55.7257,-253.975 48.8884,-252.475"/>
</g>
<!-- Node3 -->
<g id="node3" class="node"><title>Node3</title>
<g id="a_node3"><a xlink:href="namespacemexiface_1_1explore.html#a5a5c7c4c0ce2b61c1fe8f55cd7a685c8" target="_top" xlink:title="mexiface::explore::\lanalyze_class">
<polygon fill="white" stroke="black" points="387,-287.073 387,-315.073 480,-315.073 480,-287.073 387,-287.073"/>
<text text-anchor="start" x="395" y="-303.873" font-family="Helvetica,sans-Serif" font-size="9.00">mexiface::explore::</text>
<text text-anchor="middle" x="433.5" y="-293.873" font-family="Helvetica,sans-Serif" font-size="9.00">analyze_class</text>
</a>
</g>
</g>
<!-- Node2&#45;&gt;Node3 -->
<g id="edge2" class="edge"><title>Node2&#45;&gt;Node3</title>
<path fill="none" stroke="midnightblue" d="M355.958,-308.916C366.079,-306.802 376.66,-304.838 386.615,-303.231"/>
<polygon fill="midnightblue" stroke="midnightblue" points="355.062,-305.529 346.033,-311.072 356.548,-312.369 355.062,-305.529"/>
</g>
<!-- Node3&#45;&gt;Node2 -->
<g id="edge3" class="edge"><title>Node3&#45;&gt;Node2</title>
<path fill="none" stroke="midnightblue" d="M381.879,-317.265C371.796,-319.368 361.261,-321.321 351.35,-322.921"/>
<polygon fill="midnightblue" stroke="midnightblue" points="382.74,-320.659 391.771,-315.119 381.256,-313.818 382.74,-320.659"/>
</g>
<!-- Node3&#45;&gt;Node4 -->
<g id="edge4" class="edge"><title>Node3&#45;&gt;Node4</title>
<path fill="none" stroke="midnightblue" d="M490.428,-302.681C504.134,-304.436 518.643,-306.654 531.804,-309.02"/>
<polygon fill="midnightblue" stroke="midnightblue" points="490.488,-299.162 480.139,-301.434 489.646,-306.112 490.488,-299.162"/>
</g>
<!-- Node5 -->
<g id="node5" class="node"><title>Node5</title>
<g id="a_node5"><a xlink:href="namespacemexiface.html#ae54146cf35d29dcc6c83a8ca96b62549" target="_top" xlink:title="Given the arguments to a matlab mex function call, print out the details of each arguments. ">
<polygon fill="white" stroke="black" points="516,-271.073 516,-289.073 641,-289.073 641,-271.073 516,-271.073"/>
<text text-anchor="middle" x="578.5" y="-277.873" font-family="Helvetica,sans-Serif" font-size="9.00">mexiface::exploreMexArgs</text>
</a>
</g>
</g>
<!-- Node3&#45;&gt;Node5 -->
<g id="edge6" class="edge"><title>Node3&#45;&gt;Node5</title>
<path fill="none" stroke="midnightblue" d="M490.285,-292.881C498.756,-291.637 507.537,-290.348 516.119,-289.087"/>
<polygon fill="midnightblue" stroke="midnightblue" points="489.525,-289.455 480.139,-294.371 490.542,-296.381 489.525,-289.455"/>
</g>
<!-- Node4&#45;&gt;Node3 -->
<g id="edge5" class="edge"><title>Node4&#45;&gt;Node3</title>
<path fill="none" stroke="midnightblue" d="M521.512,-320.458C507.804,-318.702 493.297,-316.483 480.139,-314.117"/>
<polygon fill="midnightblue" stroke="midnightblue" points="521.455,-323.977 531.804,-321.706 522.298,-317.028 521.455,-323.977"/>
</g>
<!-- Node6 -->
<g id="node6" class="node"><title>Node6</title>
<g id="a_node6"><a xlink:href="namespacemexiface.html#a54c9b82ac7205b64d9725bd8115614a4" target="_top" xlink:title="Templated function to returns the matlab mxClassID for given C++ data type. ">
<polygon fill="white" stroke="black" points="677,-292.073 677,-310.073 791,-310.073 791,-292.073 677,-292.073"/>
<text text-anchor="middle" x="734" y="-298.873" font-family="Helvetica,sans-Serif" font-size="9.00">mexiface::get_mx_class</text>
</a>
</g>
</g>
<!-- Node5&#45;&gt;Node6 -->
<g id="edge7" class="edge"><title>Node5&#45;&gt;Node6</title>
<path fill="none" stroke="midnightblue" d="M651.136,-289.874C659.785,-291.057 668.52,-292.252 676.901,-293.398"/>
<polygon fill="midnightblue" stroke="midnightblue" points="651.432,-286.382 641.05,-288.494 650.483,-293.317 651.432,-286.382"/>
</g>
<!-- Node7 -->
<g id="node7" class="node"><title>Node7</title>
<g id="a_node7"><a xlink:href="classmexiface_1_1MexIFace.html#a17f0280024d7cdd318b13223174b6151" target="_top" xlink:title="The mexFunction that will be exposed as the entry point for the .mex file. ">
<polygon fill="white" stroke="black" points="685,-245.073 685,-273.073 783,-273.073 783,-245.073 685,-245.073"/>
<text text-anchor="start" x="693" y="-261.873" font-family="Helvetica,sans-Serif" font-size="9.00">mexiface::MexIFace</text>
<text text-anchor="middle" x="734" y="-251.873" font-family="Helvetica,sans-Serif" font-size="9.00">::mexFunction</text>
</a>
</g>
</g>
<!-- Node5&#45;&gt;Node7 -->
<g id="edge8" class="edge"><title>Node5&#45;&gt;Node7</title>
<path fill="none" stroke="midnightblue" d="M651.005,-270.291C662.408,-268.731 673.966,-267.15 684.665,-265.686"/>
<polygon fill="midnightblue" stroke="midnightblue" points="650.483,-266.829 641.05,-271.653 651.432,-273.765 650.483,-266.829"/>
</g>
<!-- Node9 -->
<g id="node9" class="node"><title>Node9</title>
<g id="a_node9"><a xlink:href="namespacemexiface_1_1explore.html#aad11efd374cd1c241da644051e4d3479" target="_top" xlink:title="mexiface::explore::\lanalyze_full">
<polygon fill="white" stroke="black" points="258,-264.073 258,-292.073 351,-292.073 351,-264.073 258,-264.073"/>
<text text-anchor="start" x="266" y="-280.873" font-family="Helvetica,sans-Serif" font-size="9.00">mexiface::explore::</text>
<text text-anchor="middle" x="304.5" y="-270.873" font-family="Helvetica,sans-Serif" font-size="9.00">analyze_full</text>
</a>
</g>
</g>
<!-- Node8&#45;&gt;Node9 -->
<g id="edge10" class="edge"><title>Node8&#45;&gt;Node9</title>
<path fill="none" stroke="midnightblue" d="M220.206,-468.213C220.831,-467.521 221.431,-466.808 222,-466.073 267.719,-407.094 212.794,-361.447 258,-302.073 260.921,-298.236 264.635,-294.95 268.676,-292.153"/>
<polygon fill="midnightblue" stroke="midnightblue" points="217.854,-465.62 212.646,-474.846 222.471,-470.881 217.854,-465.62"/>
</g>
<!-- Node9&#45;&gt;Node3 -->
<g id="edge11" class="edge"><title>Node9&#45;&gt;Node3</title>
<path fill="none" stroke="midnightblue" d="M361.224,-288.165C369.74,-289.707 378.447,-291.284 386.717,-292.782"/>
<polygon fill="midnightblue" stroke="midnightblue" points="361.814,-284.715 351.35,-286.377 360.566,-291.603 361.814,-284.715"/>
</g>
<!-- Node10&#45;&gt;Node9 -->
<g id="edge13" class="edge"><title>Node10&#45;&gt;Node9</title>
<path fill="none" stroke="midnightblue" d="M219.749,-421.528C220.535,-420.737 221.287,-419.919 222,-419.073 257.075,-377.483 223.287,-343.966 258,-302.073 261.191,-298.222 265.163,-294.908 269.422,-292.079"/>
<polygon fill="midnightblue" stroke="midnightblue" points="217.446,-418.89 211.928,-427.934 221.882,-424.305 217.446,-418.89"/>
</g>
<!-- Node11&#45;&gt;Node9 -->
<g id="edge15" class="edge"><title>Node11&#45;&gt;Node9</title>
<path fill="none" stroke="midnightblue" d="M218.659,-375.115C219.822,-374.139 220.94,-373.126 222,-372.073 246.824,-347.422 233.391,-326.939 258,-302.073 261.644,-298.392 265.972,-295.146 270.487,-292.328"/>
<polygon fill="midnightblue" stroke="midnightblue" points="216.534,-372.331 210.446,-381.002 220.612,-378.021 216.534,-372.331"/>
</g>
<!-- Node12&#45;&gt;Node9 -->
<g id="edge17" class="edge"><title>Node12&#45;&gt;Node9</title>
<path fill="none" stroke="midnightblue" d="M214.682,-329.129C217.173,-327.783 219.631,-326.424 222,-325.073 238.493,-315.667 241.589,-311.622 258,-302.073 263.712,-298.75 269.924,-295.342 275.869,-292.177"/>
<polygon fill="midnightblue" stroke="midnightblue" points="212.832,-326.147 205.615,-333.904 216.094,-332.341 212.832,-326.147"/>
</g>
<!-- Node13&#45;&gt;Node9 -->
<g id="edge19" class="edge"><title>Node13&#45;&gt;Node9</title>
<path fill="none" stroke="midnightblue" d="M232.224,-290.982C240.74,-289.439 249.447,-287.862 257.717,-286.365"/>
<polygon fill="midnightblue" stroke="midnightblue" points="231.566,-287.544 222.35,-292.77 232.814,-294.432 231.566,-287.544"/>
</g>
<!-- Node14&#45;&gt;Node3 -->
<g id="edge21" class="edge"><title>Node14&#45;&gt;Node3</title>
<path fill="none" stroke="midnightblue" d="M327.233,-197.464C353.198,-223.02 395.909,-265.058 418.101,-286.901"/>
<polygon fill="midnightblue" stroke="midnightblue" points="329.651,-194.933 320.069,-190.412 324.74,-199.922 329.651,-194.933"/>
</g>
<!-- Node15&#45;&gt;Node9 -->
<g id="edge23" class="edge"><title>Node15&#45;&gt;Node9</title>
<path fill="none" stroke="midnightblue" d="M232.224,-264.604C240.74,-266.213 249.447,-267.858 257.717,-269.421"/>
<polygon fill="midnightblue" stroke="midnightblue" points="232.826,-261.156 222.35,-262.738 231.526,-268.034 232.826,-261.156"/>
</g>
<!-- Node16&#45;&gt;Node3 -->
<g id="edge25" class="edge"><title>Node16&#45;&gt;Node3</title>
<path fill="none" stroke="midnightblue" d="M315.93,-41.3146C341.312,-97.8741 405.712,-241.381 426.164,-286.954"/>
<polygon fill="midnightblue" stroke="midnightblue" points="319.085,-39.7977 311.798,-32.1072 312.699,-42.6637 319.085,-39.7977"/>
</g>
<!-- Node17&#45;&gt;Node9 -->
<g id="edge28" class="edge"><title>Node17&#45;&gt;Node9</title>
<path fill="none" stroke="midnightblue" d="M212.534,-225.92C215.744,-227.647 218.936,-229.382 222,-231.073 241.592,-241.884 263.555,-254.585 279.741,-264.056"/>
<polygon fill="midnightblue" stroke="midnightblue" points="214.007,-222.739 203.537,-221.12 210.712,-228.915 214.007,-222.739"/>
</g>
<!-- Node18&#45;&gt;Node9 -->
<g id="edge30" class="edge"><title>Node18&#45;&gt;Node9</title>
<path fill="none" stroke="midnightblue" d="M216.283,-179.885C218.263,-181.232 220.181,-182.63 222,-184.073 252.113,-207.976 279.752,-244.084 293.799,-263.869"/>
<polygon fill="midnightblue" stroke="midnightblue" points="217.677,-176.631 207.336,-174.326 213.983,-182.577 217.677,-176.631"/>
</g>
<!-- Node19&#45;&gt;Node9 -->
<g id="edge32" class="edge"><title>Node19&#45;&gt;Node9</title>
<path fill="none" stroke="midnightblue" d="M218.608,-133.084C219.786,-134.044 220.921,-135.041 222,-136.073 245.583,-158.633 241.777,-171.755 258,-200.073 270.858,-222.518 286.043,-248.433 295.214,-264.021"/>
<polygon fill="midnightblue" stroke="midnightblue" points="220.523,-130.152 210.329,-127.264 216.497,-135.878 220.523,-130.152"/>
</g>
<!-- Node20&#45;&gt;Node9 -->
<g id="edge34" class="edge"><title>Node20&#45;&gt;Node9</title>
<path fill="none" stroke="midnightblue" d="M219.732,-86.6332C220.522,-87.4197 221.28,-88.2329 222,-89.0732 255.735,-128.465 236.812,-152.736 258,-200.073 268.44,-223.397 284.031,-248.642 293.982,-263.905"/>
<polygon fill="midnightblue" stroke="midnightblue" points="221.848,-83.8426 211.879,-80.254 217.434,-89.2758 221.848,-83.8426"/>
</g>
</g>
</svg>
