<?xml version="1.0" encoding="UTF-8" standalone="no"?>
<!DOCTYPE svg PUBLIC "-//W3C//DTD SVG 1.1//EN"
 "http://www.w3.org/Graphics/SVG/1.1/DTD/svg11.dtd">
<!-- Generated by graphviz version 2.38.0 (20140413.2041)
 -->
<!-- Title: mexiface::explore::analyze_cell Pages: 1 -->
<!--zoomable 641 -->
<svg id="main" version="1.1" xmlns="http://www.w3.org/2000/svg" xmlns:xlink="http://www.w3.org/1999/xlink" xml:space="preserve" onload="init(evt)">
<style type="text/css"><![CDATA[
.edge:hover path { stroke: red; }
.edge:hover polygon { stroke: red; fill: red; }
]]></style>
<script type="text/javascript"><![CDATA[
var edges = document.getElementsByTagName('g');
if (edges && edges.length) {
  for (var i=0;i<edges.length;i++) {
    if (edges[i].id.substr(0,4)=='edge') {
      edges[i].setAttribute('class','edge');
    }
  }
}
]]></script>
        <defs>
                <circle id="rim" cx="0" cy="0" r="7"/>
                <circle id="rim2" cx="0" cy="0" r="3.5"/>
                <g id="zoomPlus">
                        <use xlink:href="#rim" fill="#404040">
                                <set attributeName="fill" to="#808080" begin="zoomplus.mouseover" end="zoomplus.mouseout"/>
                        </use>
                        <path d="M-4,0h8M0,-4v8" fill="none" stroke="white" stroke-width="1.5" pointer-events="none"/>
                </g>
                <g id="zoomMin">
                        <use xlink:href="#rim" fill="#404040">
                                <set attributeName="fill" to="#808080" begin="zoomminus.mouseover" end="zoomminus.mouseout"/>
                        </use>
                        <path d="M-4,0h8" fill="none" stroke="white" stroke-width="1.5" pointer-events="none"/>
                </g>
                <g id="dirArrow">
                        <path fill="none" stroke="white" stroke-width="1.5" d="M0,-3.0v7 M-2.5,-0.5L0,-3.0L2.5,-0.5"/>
                </g>
               <g id="resetDef">
                       <use xlink:href="#rim2" fill="#404040">
                               <set attributeName="fill" to="#808080" begin="reset.mouseover" end="reset.mouseout"/>
                       </use>
               </g>
        </defs>

<script type="text/javascript">
var viewWidth = 617;
var viewHeight = 641;
var sectionId = 'dynsection-0';
</script>
<script xlink:href="svgpan.js"/>
<svg id="graph" class="graph">
<g id="viewport">
<title>mexiface::explore::analyze_cell</title>
<polygon fill="white" stroke="none" points="-4,4 -4,-637.174 613,-637.174 613,4 -4,4"/>
<!-- Node1 -->
<g id="node1" class="node"><title>Node1</title>
<polygon fill="#bfbfbf" stroke="black" points="0,-480.144 0,-508.144 93,-508.144 93,-480.144 0,-480.144"/>
<text text-anchor="start" x="8" y="-496.944" font-family="Helvetica,sans-Serif" font-size="9.00">mexiface::explore::</text>
<text text-anchor="middle" x="46.5" y="-486.944" font-family="Helvetica,sans-Serif" font-size="9.00">analyze_cell</text>
</g>
<!-- Node2 -->
<g id="node2" class="node"><title>Node2</title>
<g id="a_node2"><a xlink:href="namespacemexiface_1_1explore.html#a5a5c7c4c0ce2b61c1fe8f55cd7a685c8" target="_top" xlink:title="mexiface::explore::\lanalyze_class">
<polygon fill="white" stroke="black" points="129,-367.144 129,-395.144 222,-395.144 222,-367.144 129,-367.144"/>
<text text-anchor="start" x="137" y="-383.944" font-family="Helvetica,sans-Serif" font-size="9.00">mexiface::explore::</text>
<text text-anchor="middle" x="175.5" y="-373.944" font-family="Helvetica,sans-Serif" font-size="9.00">analyze_class</text>
</a>
</g>
</g>
<!-- Node1&#45;&gt;Node2 -->
<g id="edge1" class="edge"><title>Node1&#45;&gt;Node2</title>
<path fill="none" stroke="midnightblue" d="M58.7704,-480.069C77.8877,-460.199 117.269,-424.568 144.756,-401.791"/>
<polygon fill="midnightblue" stroke="midnightblue" points="146.988,-404.487 152.516,-395.449 142.558,-399.067 146.988,-404.487"/>
</g>
<!-- Node5 -->
<g id="node5" class="node"><title>Node5</title>
<g id="a_node5"><a xlink:href="namespacemexiface_1_1explore.html#ad41bff4081494e68399068077d57f1ea" target="_top" xlink:title="mexiface::explore::\ldisplay_subscript">
<polygon fill="white" stroke="black" points="516,-262.144 516,-290.144 609,-290.144 609,-262.144 516,-262.144"/>
<text text-anchor="start" x="524" y="-278.944" font-family="Helvetica,sans-Serif" font-size="9.00">mexiface::explore::</text>
<text text-anchor="middle" x="562.5" y="-268.944" font-family="Helvetica,sans-Serif" font-size="9.00">display_subscript</text>
</a>
</g>
</g>
<!-- Node1&#45;&gt;Node5 -->
<g id="edge33" class="edge"><title>Node1&#45;&gt;Node5</title>
<path fill="none" stroke="midnightblue" d="M66.2389,-508.399C130.972,-555.805 348.4,-699.507 480,-597.144 527.505,-560.193 551.816,-369.015 559.099,-300.56"/>
<polygon fill="midnightblue" stroke="midnightblue" points="562.611,-300.623 560.159,-290.316 555.649,-299.903 562.611,-300.623"/>
</g>
<!-- Node8 -->
<g id="node8" class="node"><title>Node8</title>
<g id="a_node8"><a xlink:href="namespacemexiface_1_1explore.html#af20e073842721a53872d786a38f401fe" target="_top" xlink:title="mexiface::explore::\lget_characteristics">
<polygon fill="white" stroke="black" points="387,-560.144 387,-588.144 480,-588.144 480,-560.144 387,-560.144"/>
<text text-anchor="start" x="395" y="-576.944" font-family="Helvetica,sans-Serif" font-size="9.00">mexiface::explore::</text>
<text text-anchor="middle" x="433.5" y="-566.944" font-family="Helvetica,sans-Serif" font-size="9.00">get_characteristics</text>
</a>
</g>
</g>
<!-- Node1&#45;&gt;Node8 -->
<g id="edge34" class="edge"><title>Node1&#45;&gt;Node8</title>
<path fill="none" stroke="midnightblue" d="M93.1764,-503.635C164.089,-518.37 300.448,-546.705 376.952,-562.602"/>
<polygon fill="midnightblue" stroke="midnightblue" points="376.38,-566.057 386.883,-564.665 377.804,-559.204 376.38,-566.057"/>
</g>
<!-- Node2&#45;&gt;Node1 -->
<g id="edge11" class="edge"><title>Node2&#45;&gt;Node1</title>
<path fill="none" stroke="midnightblue" d="M163.174,-395.277C143.999,-415.197 104.551,-450.88 77.0846,-473.63"/>
<polygon fill="midnightblue" stroke="midnightblue" points="74.8636,-470.924 69.3321,-479.961 79.2913,-476.346 74.8636,-470.924"/>
</g>
<!-- Node3 -->
<g id="node3" class="node"><title>Node3</title>
<g id="a_node3"><a xlink:href="namespacemexiface_1_1explore.html#a44ef87dec50add577651cf82ea3c8874" target="_top" xlink:title="mexiface::explore::\lanalyze_sparse">
<polygon fill="white" stroke="black" points="258,-169.144 258,-197.144 351,-197.144 351,-169.144 258,-169.144"/>
<text text-anchor="start" x="266" y="-185.944" font-family="Helvetica,sans-Serif" font-size="9.00">mexiface::explore::</text>
<text text-anchor="middle" x="304.5" y="-175.944" font-family="Helvetica,sans-Serif" font-size="9.00">analyze_sparse</text>
</a>
</g>
</g>
<!-- Node2&#45;&gt;Node3 -->
<g id="edge2" class="edge"><title>Node2&#45;&gt;Node3</title>
<path fill="none" stroke="midnightblue" d="M179.68,-367.084C187.622,-334.821 211.138,-254.539 258,-206.144 258.9,-205.214 259.847,-204.315 260.83,-203.447"/>
<polygon fill="midnightblue" stroke="midnightblue" points="263.041,-206.165 268.969,-197.384 258.859,-200.552 263.041,-206.165"/>
</g>
<!-- Node4 -->
<g id="node4" class="node"><title>Node4</title>
<g id="a_node4"><a xlink:href="namespacemexiface_1_1explore.html#ae6d95ef17338c9baa90e1ce1c3e33d0f" target="_top" xlink:title="mexiface::explore::\lanalyze_logical">
<polygon fill="white" stroke="black" points="258,-263.144 258,-291.144 351,-291.144 351,-263.144 258,-263.144"/>
<text text-anchor="start" x="266" y="-279.944" font-family="Helvetica,sans-Serif" font-size="9.00">mexiface::explore::</text>
<text text-anchor="middle" x="304.5" y="-269.944" font-family="Helvetica,sans-Serif" font-size="9.00">analyze_logical</text>
</a>
</g>
</g>
<!-- Node2&#45;&gt;Node4 -->
<g id="edge3" class="edge"><title>Node2&#45;&gt;Node4</title>
<path fill="none" stroke="midnightblue" d="M188.34,-366.887C203.268,-349.542 230.34,-320.108 258,-300.144 259.808,-298.839 261.7,-297.569 263.643,-296.338"/>
<polygon fill="midnightblue" stroke="midnightblue" points="265.523,-299.294 272.38,-291.217 261.983,-293.254 265.523,-299.294"/>
</g>
<!-- Node6 -->
<g id="node6" class="node"><title>Node6</title>
<g id="a_node6"><a xlink:href="namespacemexiface_1_1explore.html#aaa319b6e0131959ff3d2fbd9a4c368b3" target="_top" xlink:title="mexiface::explore::\lanalyze_string">
<polygon fill="white" stroke="black" points="258,-216.144 258,-244.144 351,-244.144 351,-216.144 258,-216.144"/>
<text text-anchor="start" x="266" y="-232.944" font-family="Helvetica,sans-Serif" font-size="9.00">mexiface::explore::</text>
<text text-anchor="middle" x="304.5" y="-222.944" font-family="Helvetica,sans-Serif" font-size="9.00">analyze_string</text>
</a>
</g>
</g>
<!-- Node2&#45;&gt;Node6 -->
<g id="edge5" class="edge"><title>Node2&#45;&gt;Node6</title>
<path fill="none" stroke="midnightblue" d="M182.381,-367.111C193.693,-341.548 220.704,-286.921 258,-253.144 259.263,-252 260.593,-250.899 261.974,-249.839"/>
<polygon fill="midnightblue" stroke="midnightblue" points="263.964,-252.718 270.306,-244.231 260.056,-246.911 263.964,-252.718"/>
</g>
<!-- Node7 -->
<g id="node7" class="node"><title>Node7</title>
<g id="a_node7"><a xlink:href="namespacemexiface_1_1explore.html#a6205a96e991f64a98345df5645dd0ba5" target="_top" xlink:title="mexiface::explore::\lanalyze_structure">
<polygon fill="white" stroke="black" points="258,-421.144 258,-449.144 351,-449.144 351,-421.144 258,-421.144"/>
<text text-anchor="start" x="266" y="-437.944" font-family="Helvetica,sans-Serif" font-size="9.00">mexiface::explore::</text>
<text text-anchor="middle" x="304.5" y="-427.944" font-family="Helvetica,sans-Serif" font-size="9.00">analyze_structure</text>
</a>
</g>
</g>
<!-- Node2&#45;&gt;Node7 -->
<g id="edge7" class="edge"><title>Node2&#45;&gt;Node7</title>
<path fill="none" stroke="midnightblue" d="M222.35,-394.127C239.413,-400.912 258.323,-409.18 273.593,-416.599"/>
<polygon fill="midnightblue" stroke="midnightblue" points="272.072,-419.752 282.582,-421.088 275.199,-413.489 272.072,-419.752"/>
</g>
<!-- Node9 -->
<g id="node9" class="node"><title>Node9</title>
<g id="a_node9"><a xlink:href="namespacemexiface_1_1explore.html#aad11efd374cd1c241da644051e4d3479" target="_top" xlink:title="mexiface::explore::\lanalyze_full">
<polygon fill="white" stroke="black" points="258,-310.144 258,-338.144 351,-338.144 351,-310.144 258,-310.144"/>
<text text-anchor="start" x="266" y="-326.944" font-family="Helvetica,sans-Serif" font-size="9.00">mexiface::explore::</text>
<text text-anchor="middle" x="304.5" y="-316.944" font-family="Helvetica,sans-Serif" font-size="9.00">analyze_full</text>
</a>
</g>
</g>
<!-- Node2&#45;&gt;Node9 -->
<g id="edge12" class="edge"><title>Node2&#45;&gt;Node9</title>
<path fill="none" stroke="midnightblue" d="M207.893,-367.054C224.379,-359.655 244.783,-350.497 262.502,-342.545"/>
<polygon fill="midnightblue" stroke="midnightblue" points="264.338,-345.557 272.028,-338.269 261.471,-339.171 264.338,-345.557"/>
</g>
<!-- Node4&#45;&gt;Node5 -->
<g id="edge4" class="edge"><title>Node4&#45;&gt;Node5</title>
<path fill="none" stroke="midnightblue" d="M340.941,-262.878C344.781,-260.129 348.276,-256.905 351,-253.144 407.059,-175.741 313.983,-102.807 387,-41.1441 418.579,-14.4755 446.323,-17.179 480,-41.1441 549.181,-90.3745 560.169,-202.617 561.545,-252.031"/>
<polygon fill="midnightblue" stroke="midnightblue" points="558.047,-252.17 561.714,-262.11 565.046,-252.053 558.047,-252.17"/>
</g>
<!-- Node6&#45;&gt;Node5 -->
<g id="edge6" class="edge"><title>Node6&#45;&gt;Node5</title>
<path fill="none" stroke="midnightblue" d="M340.417,-216.134C344.444,-213.327 348.128,-210.019 351,-206.144 401.395,-138.146 321.74,-73.0387 387,-19.1441 418.87,7.17583 446.647,5.2691 480,-19.1441 555.286,-74.25 562.743,-199.344 562.355,-252.034"/>
<polygon fill="midnightblue" stroke="midnightblue" points="558.854,-252.066 562.175,-262.127 565.853,-252.191 558.854,-252.066"/>
</g>
<!-- Node7&#45;&gt;Node2 -->
<g id="edge10" class="edge"><title>Node7&#45;&gt;Node2</title>
<path fill="none" stroke="midnightblue" d="M257.984,-422.294C240.871,-415.499 221.86,-407.193 206.508,-399.738"/>
<polygon fill="midnightblue" stroke="midnightblue" points="207.982,-396.562 197.471,-395.227 204.856,-402.825 207.982,-396.562"/>
</g>
<!-- Node7&#45;&gt;Node5 -->
<g id="edge8" class="edge"><title>Node7&#45;&gt;Node5</title>
<path fill="none" stroke="midnightblue" d="M315.353,-449.428C328.981,-467.777 355.499,-498.736 387,-511.144 425.457,-526.293 446.323,-535.109 480,-511.144 549.181,-461.914 560.169,-349.671 561.545,-300.257"/>
<polygon fill="midnightblue" stroke="midnightblue" points="565.046,-300.235 561.714,-290.178 558.047,-300.118 565.046,-300.235"/>
</g>
<!-- Node7&#45;&gt;Node8 -->
<g id="edge9" class="edge"><title>Node7&#45;&gt;Node8</title>
<path fill="none" stroke="midnightblue" d="M313.623,-449.277C326.903,-471.545 355.01,-515.325 387,-545.144 390.499,-548.406 394.412,-551.52 398.435,-554.416"/>
<polygon fill="midnightblue" stroke="midnightblue" points="396.504,-557.335 406.75,-560.03 400.422,-551.533 396.504,-557.335"/>
</g>
<!-- Node10 -->
<g id="node10" class="node"><title>Node10</title>
<g id="a_node10"><a xlink:href="namespacemexiface_1_1explore.html#abbbd19941bd43d361d33e21fb0dadbae" target="_top" xlink:title="mexiface::explore::\lanalyze_int8">
<polygon fill="white" stroke="black" points="387,-286.144 387,-314.144 480,-314.144 480,-286.144 387,-286.144"/>
<text text-anchor="start" x="395" y="-302.944" font-family="Helvetica,sans-Serif" font-size="9.00">mexiface::explore::</text>
<text text-anchor="middle" x="433.5" y="-292.944" font-family="Helvetica,sans-Serif" font-size="9.00">analyze_int8</text>
</a>
</g>
</g>
<!-- Node9&#45;&gt;Node10 -->
<g id="edge13" class="edge"><title>Node9&#45;&gt;Node10</title>
<path fill="none" stroke="midnightblue" d="M351.35,-315.48C359.623,-313.916 368.33,-312.271 376.846,-310.661"/>
<polygon fill="midnightblue" stroke="midnightblue" points="377.541,-314.092 386.717,-308.796 376.241,-307.214 377.541,-314.092"/>
</g>
<!-- Node11 -->
<g id="node11" class="node"><title>Node11</title>
<g id="a_node11"><a xlink:href="namespacemexiface_1_1explore.html#ae0e1687942c1e218a665eedeadc63456" target="_top" xlink:title="mexiface::explore::\lanalyze_uint8">
<polygon fill="white" stroke="black" points="387,-239.144 387,-267.144 480,-267.144 480,-239.144 387,-239.144"/>
<text text-anchor="start" x="395" y="-255.944" font-family="Helvetica,sans-Serif" font-size="9.00">mexiface::explore::</text>
<text text-anchor="middle" x="433.5" y="-245.944" font-family="Helvetica,sans-Serif" font-size="9.00">analyze_uint8</text>
</a>
</g>
</g>
<!-- Node9&#45;&gt;Node11 -->
<g id="edge15" class="edge"><title>Node9&#45;&gt;Node11</title>
<path fill="none" stroke="midnightblue" d="M333.18,-310.125C339.122,-306.954 345.32,-303.523 351,-300.144 367.526,-290.312 370.389,-285.832 387,-276.144 389.356,-274.77 391.804,-273.394 394.287,-272.035"/>
<polygon fill="midnightblue" stroke="midnightblue" points="396.145,-275.011 403.337,-267.232 392.863,-268.828 396.145,-275.011"/>
</g>
<!-- Node12 -->
<g id="node12" class="node"><title>Node12</title>
<g id="a_node12"><a xlink:href="namespacemexiface_1_1explore.html#a2c3a4139675fbbf8ca7ab0f92d6f11fd" target="_top" xlink:title="mexiface::explore::\lanalyze_int16">
<polygon fill="white" stroke="black" points="387,-192.144 387,-220.144 480,-220.144 480,-192.144 387,-192.144"/>
<text text-anchor="start" x="395" y="-208.944" font-family="Helvetica,sans-Serif" font-size="9.00">mexiface::explore::</text>
<text text-anchor="middle" x="433.5" y="-198.944" font-family="Helvetica,sans-Serif" font-size="9.00">analyze_int16</text>
</a>
</g>
</g>
<!-- Node9&#45;&gt;Node12 -->
<g id="edge17" class="edge"><title>Node9&#45;&gt;Node12</title>
<path fill="none" stroke="midnightblue" d="M338.532,-309.908C343.045,-307.087 347.367,-303.836 351,-300.144 375.815,-274.926 361.967,-254.146 387,-229.144 388.057,-228.089 389.172,-227.072 390.333,-226.095"/>
<polygon fill="midnightblue" stroke="midnightblue" points="392.46,-228.876 398.536,-220.197 388.374,-223.193 392.46,-228.876"/>
</g>
<!-- Node13 -->
<g id="node13" class="node"><title>Node13</title>
<g id="a_node13"><a xlink:href="namespacemexiface_1_1explore.html#aa1951af918bc0b264d05f2db4fbec9e1" target="_top" xlink:title="mexiface::explore::\lanalyze_uint16">
<polygon fill="white" stroke="black" points="387,-145.144 387,-173.144 480,-173.144 480,-145.144 387,-145.144"/>
<text text-anchor="start" x="395" y="-161.944" font-family="Helvetica,sans-Serif" font-size="9.00">mexiface::explore::</text>
<text text-anchor="middle" x="433.5" y="-151.944" font-family="Helvetica,sans-Serif" font-size="9.00">analyze_uint16</text>
</a>
</g>
</g>
<!-- Node9&#45;&gt;Node13 -->
<g id="edge19" class="edge"><title>Node9&#45;&gt;Node13</title>
<path fill="none" stroke="midnightblue" d="M340.041,-309.84C344.126,-307.078 347.927,-303.861 351,-300.144 385.934,-257.883 351.701,-224.101 387,-182.144 387.712,-181.297 388.463,-180.479 389.248,-179.687"/>
<polygon fill="midnightblue" stroke="midnightblue" points="391.552,-182.324 397.064,-173.276 387.112,-176.912 391.552,-182.324"/>
</g>
<!-- Node14 -->
<g id="node14" class="node"><title>Node14</title>
<g id="a_node14"><a xlink:href="namespacemexiface_1_1explore.html#ad8657b3604a735ef428823cdf0a72722" target="_top" xlink:title="mexiface::explore::\lanalyze_int32">
<polygon fill="white" stroke="black" points="387,-98.1441 387,-126.144 480,-126.144 480,-98.1441 387,-98.1441"/>
<text text-anchor="start" x="395" y="-114.944" font-family="Helvetica,sans-Serif" font-size="9.00">mexiface::explore::</text>
<text text-anchor="middle" x="433.5" y="-104.944" font-family="Helvetica,sans-Serif" font-size="9.00">analyze_int32</text>
</a>
</g>
</g>
<!-- Node9&#45;&gt;Node14 -->
<g id="edge21" class="edge"><title>Node9&#45;&gt;Node14</title>
<path fill="none" stroke="midnightblue" d="M340.328,-310.068C344.369,-307.27 348.081,-303.983 351,-300.144 396.431,-240.396 341.052,-194.495 387,-135.144 387.569,-134.409 388.168,-133.696 388.793,-133.004"/>
<polygon fill="midnightblue" stroke="midnightblue" points="391.145,-135.596 396.35,-126.368 386.526,-130.336 391.145,-135.596"/>
</g>
<!-- Node15 -->
<g id="node15" class="node"><title>Node15</title>
<g id="a_node15"><a xlink:href="namespacemexiface_1_1explore.html#aa0ebed3704023f9816e91293c9c08253" target="_top" xlink:title="mexiface::explore::\lanalyze_uint32">
<polygon fill="white" stroke="black" points="387,-51.1441 387,-79.1441 480,-79.1441 480,-51.1441 387,-51.1441"/>
<text text-anchor="start" x="395" y="-67.9441" font-family="Helvetica,sans-Serif" font-size="9.00">mexiface::explore::</text>
<text text-anchor="middle" x="433.5" y="-57.9441" font-family="Helvetica,sans-Serif" font-size="9.00">analyze_uint32</text>
</a>
</g>
</g>
<!-- Node9&#45;&gt;Node15 -->
<g id="edge23" class="edge"><title>Node9&#45;&gt;Node15</title>
<path fill="none" stroke="midnightblue" d="M340.941,-309.878C344.781,-307.129 348.276,-303.905 351,-300.144 407.059,-222.741 330.272,-165.058 387,-88.1441 387.552,-87.3961 388.135,-86.6709 388.745,-85.9676"/>
<polygon fill="midnightblue" stroke="midnightblue" points="391.112,-88.5466 396.193,-79.2499 386.423,-83.3486 391.112,-88.5466"/>
</g>
<!-- Node16 -->
<g id="node16" class="node"><title>Node16</title>
<g id="a_node16"><a xlink:href="namespacemexiface_1_1explore.html#a7025633935ccc85550b308e70b0fc771" target="_top" xlink:title="mexiface::explore::\lanalyze_int64">
<polygon fill="white" stroke="black" points="387,-474.144 387,-502.144 480,-502.144 480,-474.144 387,-474.144"/>
<text text-anchor="start" x="395" y="-490.944" font-family="Helvetica,sans-Serif" font-size="9.00">mexiface::explore::</text>
<text text-anchor="middle" x="433.5" y="-480.944" font-family="Helvetica,sans-Serif" font-size="9.00">analyze_int64</text>
</a>
</g>
</g>
<!-- Node9&#45;&gt;Node16 -->
<g id="edge25" class="edge"><title>Node9&#45;&gt;Node16</title>
<path fill="none" stroke="midnightblue" d="M312.58,-338.516C328.376,-370.178 366.702,-444.677 387,-464.144 388.45,-465.535 389.997,-466.867 391.612,-468.139"/>
<polygon fill="midnightblue" stroke="midnightblue" points="389.907,-471.214 400.128,-474.004 393.877,-465.449 389.907,-471.214"/>
</g>
<!-- Node17 -->
<g id="node17" class="node"><title>Node17</title>
<g id="a_node17"><a xlink:href="namespacemexiface_1_1explore.html#abe63c53129e4d37e66af71c8f66d9ae6" target="_top" xlink:title="mexiface::explore::\lanalyze_uint64">
<polygon fill="white" stroke="black" points="387,-427.144 387,-455.144 480,-455.144 480,-427.144 387,-427.144"/>
<text text-anchor="start" x="395" y="-443.944" font-family="Helvetica,sans-Serif" font-size="9.00">mexiface::explore::</text>
<text text-anchor="middle" x="433.5" y="-433.944" font-family="Helvetica,sans-Serif" font-size="9.00">analyze_uint64</text>
</a>
</g>
</g>
<!-- Node9&#45;&gt;Node17 -->
<g id="edge27" class="edge"><title>Node9&#45;&gt;Node17</title>
<path fill="none" stroke="midnightblue" d="M315.234,-338.189C329.321,-357.753 357.007,-393.465 387,-417.144 389.024,-418.742 391.17,-420.285 393.386,-421.765"/>
<polygon fill="midnightblue" stroke="midnightblue" points="391.804,-424.9 402.159,-427.143 395.462,-418.932 391.804,-424.9"/>
</g>
<!-- Node18 -->
<g id="node18" class="node"><title>Node18</title>
<g id="a_node18"><a xlink:href="namespacemexiface_1_1explore.html#acaf0a238e5467e317ae037a966647626" target="_top" xlink:title="mexiface::explore::\lanalyze_single">
<polygon fill="white" stroke="black" points="387,-380.144 387,-408.144 480,-408.144 480,-380.144 387,-380.144"/>
<text text-anchor="start" x="395" y="-396.944" font-family="Helvetica,sans-Serif" font-size="9.00">mexiface::explore::</text>
<text text-anchor="middle" x="433.5" y="-386.944" font-family="Helvetica,sans-Serif" font-size="9.00">analyze_single</text>
</a>
</g>
</g>
<!-- Node9&#45;&gt;Node18 -->
<g id="edge29" class="edge"><title>Node9&#45;&gt;Node18</title>
<path fill="none" stroke="midnightblue" d="M330.007,-338.216C346.135,-347.418 367.747,-359.636 387,-370.144 390.072,-371.821 393.27,-373.547 396.483,-375.267"/>
<polygon fill="midnightblue" stroke="midnightblue" points="395.013,-378.45 405.486,-380.057 398.301,-372.27 395.013,-378.45"/>
</g>
<!-- Node19 -->
<g id="node19" class="node"><title>Node19</title>
<g id="a_node19"><a xlink:href="namespacemexiface_1_1explore.html#a3b7a85eeb040efe041ae992581c3861b" target="_top" xlink:title="mexiface::explore::\lanalyze_double">
<polygon fill="white" stroke="black" points="387,-333.144 387,-361.144 480,-361.144 480,-333.144 387,-333.144"/>
<text text-anchor="start" x="395" y="-349.944" font-family="Helvetica,sans-Serif" font-size="9.00">mexiface::explore::</text>
<text text-anchor="middle" x="433.5" y="-339.944" font-family="Helvetica,sans-Serif" font-size="9.00">analyze_double</text>
</a>
</g>
</g>
<!-- Node9&#45;&gt;Node19 -->
<g id="edge31" class="edge"><title>Node9&#45;&gt;Node19</title>
<path fill="none" stroke="midnightblue" d="M351.35,-332.448C359.623,-333.946 368.33,-335.523 376.846,-337.065"/>
<polygon fill="midnightblue" stroke="midnightblue" points="376.254,-340.515 386.717,-338.853 377.501,-333.627 376.254,-340.515"/>
</g>
<!-- Node10&#45;&gt;Node5 -->
<g id="edge14" class="edge"><title>Node10&#45;&gt;Node5</title>
<path fill="none" stroke="midnightblue" d="M480.35,-291.48C488.623,-289.916 497.33,-288.271 505.846,-286.661"/>
<polygon fill="midnightblue" stroke="midnightblue" points="506.541,-290.092 515.717,-284.796 505.241,-283.214 506.541,-290.092"/>
</g>
<!-- Node11&#45;&gt;Node5 -->
<g id="edge16" class="edge"><title>Node11&#45;&gt;Node5</title>
<path fill="none" stroke="midnightblue" d="M480.35,-261.448C488.623,-262.946 497.33,-264.523 505.846,-266.065"/>
<polygon fill="midnightblue" stroke="midnightblue" points="505.254,-269.515 515.717,-267.853 506.501,-262.627 505.254,-269.515"/>
</g>
<!-- Node12&#45;&gt;Node5 -->
<g id="edge18" class="edge"><title>Node12&#45;&gt;Node5</title>
<path fill="none" stroke="midnightblue" d="M463.023,-220.26C468.678,-223.143 474.55,-226.198 480,-229.144 496.302,-237.956 514.161,-248.189 528.996,-256.852"/>
<polygon fill="midnightblue" stroke="midnightblue" points="527.405,-259.976 537.801,-262.016 530.946,-253.938 527.405,-259.976"/>
</g>
<!-- Node13&#45;&gt;Node5 -->
<g id="edge20" class="edge"><title>Node13&#45;&gt;Node5</title>
<path fill="none" stroke="midnightblue" d="M466.309,-173.203C471.088,-175.88 475.812,-178.878 480,-182.144 506.529,-202.83 530.945,-233.139 545.999,-253.706"/>
<polygon fill="midnightblue" stroke="midnightblue" points="543.182,-255.783 551.856,-261.867 548.869,-251.702 543.182,-255.783"/>
</g>
<!-- Node14&#45;&gt;Node5 -->
<g id="edge22" class="edge"><title>Node14&#45;&gt;Node5</title>
<path fill="none" stroke="midnightblue" d="M468.293,-126.372C472.494,-128.939 476.527,-131.86 480,-135.144 515.81,-169.001 540.637,-222.116 552.837,-252.571"/>
<polygon fill="midnightblue" stroke="midnightblue" points="549.605,-253.916 556.488,-261.97 556.13,-251.381 549.605,-253.916"/>
</g>
<!-- Node15&#45;&gt;Node5 -->
<g id="edge24" class="edge"><title>Node15&#45;&gt;Node5</title>
<path fill="none" stroke="midnightblue" d="M469.116,-79.3026C473.091,-81.8575 476.843,-84.795 480,-88.1441 525.279,-136.175 547.737,-213.348 556.668,-252.183"/>
<polygon fill="midnightblue" stroke="midnightblue" points="553.274,-253.046 558.836,-262.063 560.112,-251.545 553.274,-253.046"/>
</g>
<!-- Node16&#45;&gt;Node5 -->
<g id="edge26" class="edge"><title>Node16&#45;&gt;Node5</title>
<path fill="none" stroke="midnightblue" d="M467.734,-474.101C472.219,-471.254 476.48,-467.944 480,-464.144 524.861,-415.722 547.507,-338.725 556.573,-300.017"/>
<polygon fill="midnightblue" stroke="midnightblue" points="560.008,-300.693 558.777,-290.17 553.177,-299.164 560.008,-300.693"/>
</g>
<!-- Node17&#45;&gt;Node5 -->
<g id="edge28" class="edge"><title>Node17&#45;&gt;Node5</title>
<path fill="none" stroke="midnightblue" d="M466.883,-427.014C471.587,-424.151 476.138,-420.859 480,-417.144 515.515,-382.978 540.449,-329.975 552.747,-299.623"/>
<polygon fill="midnightblue" stroke="midnightblue" points="556.027,-300.845 556.43,-290.258 549.513,-298.283 556.027,-300.845"/>
</g>
<!-- Node18&#45;&gt;Node5 -->
<g id="edge30" class="edge"><title>Node18&#45;&gt;Node5</title>
<path fill="none" stroke="midnightblue" d="M465.336,-379.891C470.441,-376.975 475.523,-373.698 480,-370.144 506.349,-349.229 530.803,-318.969 545.916,-298.477"/>
<polygon fill="midnightblue" stroke="midnightblue" points="548.771,-300.502 551.799,-290.349 543.101,-296.397 548.771,-300.502"/>
</g>
<!-- Node19&#45;&gt;Node5 -->
<g id="edge32" class="edge"><title>Node19&#45;&gt;Node5</title>
<path fill="none" stroke="midnightblue" d="M461.537,-333.098C467.633,-329.871 474.057,-326.423 480,-323.144 496.225,-314.191 514.075,-303.942 528.925,-295.305"/>
<polygon fill="midnightblue" stroke="midnightblue" points="530.867,-298.224 537.741,-290.161 527.34,-292.178 530.867,-298.224"/>
</g>
</g>
</svg>
        <g id="navigator" transform="translate(0 0)" fill="#404254">
                <rect fill="#f2f5e9" fill-opacity="0.5" stroke="#606060" stroke-width=".5" x="0" y="0" width="60" height="60"/>
                <use id="zoomplus" xlink:href="#zoomPlus" x="17" y="9" onmousedown="handleZoom(evt,'in')"/>
                <use id="zoomminus" xlink:href="#zoomMin" x="42" y="9" onmousedown="handleZoom(evt,'out')"/>
                <use id="reset" xlink:href="#resetDef" x="30" y="36" onmousedown="handleReset()"/>
                <g id="arrowUp" xlink:href="#dirArrow" transform="translate(30 24)" onmousedown="handlePan(0,-1)">
                  <use xlink:href="#rim" fill="#404040">
                        <set attributeName="fill" to="#808080" begin="arrowUp.mouseover" end="arrowUp.mouseout"/>
                  </use>
                  <path fill="none" stroke="white" stroke-width="1.5" d="M0,-3.0v7 M-2.5,-0.5L0,-3.0L2.5,-0.5"/>
                </g>
                <g id="arrowRight" xlink:href="#dirArrow" transform="rotate(90) translate(36 -43)" onmousedown="handlePan(1,0)">
                  <use xlink:href="#rim" fill="#404040">
                        <set attributeName="fill" to="#808080" begin="arrowRight.mouseover" end="arrowRight.mouseout"/>
                  </use>
                  <path fill="none" stroke="white" stroke-width="1.5" d="M0,-3.0v7 M-2.5,-0.5L0,-3.0L2.5,-0.5"/>
                </g>
                <g id="arrowDown" xlink:href="#dirArrow" transform="rotate(180) translate(-30 -48)" onmousedown="handlePan(0,1)">
                  <use xlink:href="#rim" fill="#404040">
                        <set attributeName="fill" to="#808080" begin="arrowDown.mouseover" end="arrowDown.mouseout"/>
                  </use>
                  <path fill="none" stroke="white" stroke-width="1.5" d="M0,-3.0v7 M-2.5,-0.5L0,-3.0L2.5,-0.5"/>
                </g>
                <g id="arrowLeft" xlink:href="#dirArrow" transform="rotate(270) translate(-36 17)" onmousedown="handlePan(-1,0)">
                  <use xlink:href="#rim" fill="#404040">
                        <set attributeName="fill" to="#808080" begin="arrowLeft.mouseover" end="arrowLeft.mouseout"/>
                  </use>
                  <path fill="none" stroke="white" stroke-width="1.5" d="M0,-3.0v7 M-2.5,-0.5L0,-3.0L2.5,-0.5"/>
                </g>
        </g>
        <svg viewBox="0 0 15 15" width="100%" height="30px" preserveAspectRatio="xMaxYMin meet">
         <g id="arrow_out" transform="scale(0.3 0.3)">
          <a xlink:href="namespacemexiface_1_1explore_a2fd795aab0989018a48cfce5b8f63719_cgraph_org.svg" target="_base">
           <rect id="button" ry="5" rx="5" y="6" x="6" height="38" width="38"
                fill="#f2f5e9" fill-opacity="0.5" stroke="#606060" stroke-width="1.0"/>
           <path id="arrow"
             d="M 11.500037,31.436501 C 11.940474,20.09759 22.043105,11.32322 32.158766,21.979434 L 37.068811,17.246167 C 37.068811,17.246167 37.088388,32 37.088388,32 L 22.160133,31.978069 C 22.160133,31.978069 26.997745,27.140456 26.997745,27.140456 C 18.528582,18.264221 13.291696,25.230495 11.500037,31.436501 z"
             style="fill:#404040;"/>
          </a>
         </g>
        </svg>
</svg>
