<?xml version="1.0" encoding="UTF-8" standalone="no"?>
<!DOCTYPE svg PUBLIC "-//W3C//DTD SVG 1.1//EN"
 "http://www.w3.org/Graphics/SVG/1.1/DTD/svg11.dtd">
<!-- Generated by graphviz version 2.38.0 (20140413.2041)
 -->
<!-- Title: mexiface::get_mx_class_name Pages: 1 -->
<svg width="330pt" height="64pt"
 viewBox="0.00 0.00 330.00 64.00" xmlns="http://www.w3.org/2000/svg" xmlns:xlink="http://www.w3.org/1999/xlink">
<g id="graph0" class="graph" transform="scale(1 1) rotate(0) translate(4 60)">
<title>mexiface::get_mx_class_name</title>
<polygon fill="white" stroke="none" points="-4,4 -4,-60 326,-60 326,4 -4,4"/>
<!-- Node1 -->
<g id="node1" class="node"><title>Node1</title>
<polygon fill="#bfbfbf" stroke="black" points="0,-18.5 0,-36.5 143,-36.5 143,-18.5 0,-18.5"/>
<text text-anchor="middle" x="71.5" y="-25.3" font-family="Helvetica,sans-Serif" font-size="9.00">mexiface::get_mx_class_name</text>
</g>
<!-- Node2 -->
<g id="node2" class="node"><title>Node2</title>
<g id="a_node2"><a xlink:href="namespacemexiface.html#ae975525972a7d72c76057c96485b8c2e" target="_top" xlink:title="mexiface::demangle">
<polygon fill="white" stroke="black" points="201,-37.5 201,-55.5 300,-55.5 300,-37.5 201,-37.5"/>
<text text-anchor="middle" x="250.5" y="-44.3" font-family="Helvetica,sans-Serif" font-size="9.00">mexiface::demangle</text>
</a>
</g>
</g>
<!-- Node1&#45;&gt;Node2 -->
<g id="edge1" class="edge"><title>Node1&#45;&gt;Node2</title>
<path fill="none" stroke="midnightblue" d="M143.218,-35.0912C158.944,-36.7793 175.451,-38.5512 190.641,-40.1818"/>
<polygon fill="midnightblue" stroke="midnightblue" points="190.604,-43.6979 200.92,-41.2852 191.351,-36.7378 190.604,-43.6979"/>
</g>
<!-- Node3 -->
<g id="node3" class="node"><title>Node3</title>
<g id="a_node3"><a xlink:href="namespacemexiface.html#a32119030d13151b65f1f70cd35e0ceb7" target="_top" xlink:title="Returns a string representation of the class with given mxClassID. ">
<polygon fill="white" stroke="black" points="179,-0.5 179,-18.5 322,-18.5 322,-0.5 179,-0.5"/>
<text text-anchor="middle" x="250.5" y="-7.3" font-family="Helvetica,sans-Serif" font-size="9.00">mexiface::get_mx_class_name</text>
</a>
</g>
</g>
<!-- Node1&#45;&gt;Node3 -->
<g id="edge2" class="edge"><title>Node1&#45;&gt;Node3</title>
<path fill="none" stroke="midnightblue" d="M143.218,-20.3083C151.662,-19.4497 160.331,-18.5681 168.9,-17.6966"/>
<polygon fill="midnightblue" stroke="midnightblue" points="169.3,-21.1741 178.894,-16.6803 168.591,-14.21 169.3,-21.1741"/>
</g>
</g>
</svg>
