<?xml version="1.0" encoding="UTF-8" standalone="no"?>
<!DOCTYPE svg PUBLIC "-//W3C//DTD SVG 1.1//EN"
 "http://www.w3.org/Graphics/SVG/1.1/DTD/svg11.dtd">
<!-- Generated by graphviz version 2.38.0 (20140413.2041)
 -->
<!-- Title: mexiface::explore::analyze_logical Pages: 1 -->
<svg width="541pt" height="147pt"
 viewBox="0.00 0.00 541.00 147.00" xmlns="http://www.w3.org/2000/svg" xmlns:xlink="http://www.w3.org/1999/xlink">
<g id="graph0" class="graph" transform="scale(1 1) rotate(0) translate(4 143)">
<title>mexiface::explore::analyze_logical</title>
<polygon fill="white" stroke="none" points="-4,4 -4,-143 537,-143 537,4 -4,4"/>
<!-- Node1 -->
<g id="node1" class="node"><title>Node1</title>
<polygon fill="#bfbfbf" stroke="black" points="0,-63.5 0,-91.5 93,-91.5 93,-63.5 0,-63.5"/>
<text text-anchor="start" x="8" y="-80.3" font-family="Helvetica,sans-Serif" font-size="9.00">mexiface::explore::</text>
<text text-anchor="middle" x="46.5" y="-70.3" font-family="Helvetica,sans-Serif" font-size="9.00">analyze_logical</text>
</g>
<!-- Node2 -->
<g id="node2" class="node"><title>Node2</title>
<g id="a_node2"><a xlink:href="namespacemexiface_1_1explore.html#a5a5c7c4c0ce2b61c1fe8f55cd7a685c8" target="_top" xlink:title="mexiface::explore::\lanalyze_class">
<polygon fill="white" stroke="black" points="129,-63.5 129,-91.5 222,-91.5 222,-63.5 129,-63.5"/>
<text text-anchor="start" x="137" y="-80.3" font-family="Helvetica,sans-Serif" font-size="9.00">mexiface::explore::</text>
<text text-anchor="middle" x="175.5" y="-70.3" font-family="Helvetica,sans-Serif" font-size="9.00">analyze_class</text>
</a>
</g>
</g>
<!-- Node1&#45;&gt;Node2 -->
<g id="edge1" class="edge"><title>Node1&#45;&gt;Node2</title>
<path fill="none" stroke="midnightblue" d="M103.501,-77.5C111.93,-77.5 120.537,-77.5 128.717,-77.5"/>
<polygon fill="midnightblue" stroke="midnightblue" points="103.35,-74.0001 93.3499,-77.5 103.35,-81.0001 103.35,-74.0001"/>
</g>
<!-- Node3 -->
<g id="node3" class="node"><title>Node3</title>
<g id="a_node3"><a xlink:href="namespacemexiface_1_1explore.html#a2fd795aab0989018a48cfce5b8f63719" target="_top" xlink:title="mexiface::explore::\lanalyze_cell">
<polygon fill="white" stroke="black" points="274,-110.5 274,-138.5 367,-138.5 367,-110.5 274,-110.5"/>
<text text-anchor="start" x="282" y="-127.3" font-family="Helvetica,sans-Serif" font-size="9.00">mexiface::explore::</text>
<text text-anchor="middle" x="320.5" y="-117.3" font-family="Helvetica,sans-Serif" font-size="9.00">analyze_cell</text>
</a>
</g>
</g>
<!-- Node2&#45;&gt;Node3 -->
<g id="edge2" class="edge"><title>Node2&#45;&gt;Node3</title>
<path fill="none" stroke="midnightblue" d="M231.936,-89.1239C252.928,-95.6155 275.869,-103.56 293.002,-110.408"/>
<polygon fill="midnightblue" stroke="midnightblue" points="232.724,-85.7059 222.139,-86.1591 230.697,-92.4058 232.724,-85.7059"/>
</g>
<!-- Node4 -->
<g id="node4" class="node"><title>Node4</title>
<g id="a_node4"><a xlink:href="namespacemexiface_1_1explore.html#a6205a96e991f64a98345df5645dd0ba5" target="_top" xlink:title="mexiface::explore::\lanalyze_structure">
<polygon fill="white" stroke="black" points="274,-63.5 274,-91.5 367,-91.5 367,-63.5 274,-63.5"/>
<text text-anchor="start" x="282" y="-80.3" font-family="Helvetica,sans-Serif" font-size="9.00">mexiface::explore::</text>
<text text-anchor="middle" x="320.5" y="-70.3" font-family="Helvetica,sans-Serif" font-size="9.00">analyze_structure</text>
</a>
</g>
</g>
<!-- Node2&#45;&gt;Node4 -->
<g id="edge4" class="edge"><title>Node2&#45;&gt;Node4</title>
<path fill="none" stroke="midnightblue" d="M232.428,-70.8943C246.134,-70.6365 260.643,-70.7241 273.804,-71.1569"/>
<polygon fill="midnightblue" stroke="midnightblue" points="232.046,-67.4029 222.139,-71.1588 232.226,-74.4006 232.046,-67.4029"/>
</g>
<!-- Node5 -->
<g id="node5" class="node"><title>Node5</title>
<g id="a_node5"><a xlink:href="namespacemexiface.html#ae54146cf35d29dcc6c83a8ca96b62549" target="_top" xlink:title="Given the arguments to a matlab mex function call, print out the details of each arguments. ">
<polygon fill="white" stroke="black" points="258,-26.5 258,-44.5 383,-44.5 383,-26.5 258,-26.5"/>
<text text-anchor="middle" x="320.5" y="-33.3" font-family="Helvetica,sans-Serif" font-size="9.00">mexiface::exploreMexArgs</text>
</a>
</g>
</g>
<!-- Node2&#45;&gt;Node5 -->
<g id="edge6" class="edge"><title>Node2&#45;&gt;Node5</title>
<path fill="none" stroke="midnightblue" d="M231.768,-61.2673C251.107,-55.5875 272.118,-49.4165 288.728,-44.5379"/>
<polygon fill="midnightblue" stroke="midnightblue" points="230.748,-57.9192 222.139,-64.0955 232.72,-64.6355 230.748,-57.9192"/>
</g>
<!-- Node3&#45;&gt;Node2 -->
<g id="edge3" class="edge"><title>Node3&#45;&gt;Node2</title>
<path fill="none" stroke="midnightblue" d="M264.165,-112.907C243.171,-106.418 220.215,-98.4709 203.062,-91.6181"/>
<polygon fill="midnightblue" stroke="midnightblue" points="263.376,-116.325 273.961,-115.87 265.402,-109.625 263.376,-116.325"/>
</g>
<!-- Node4&#45;&gt;Node2 -->
<g id="edge5" class="edge"><title>Node4&#45;&gt;Node2</title>
<path fill="none" stroke="midnightblue" d="M263.512,-84.1068C249.804,-84.3636 235.297,-84.2751 222.139,-83.8412"/>
<polygon fill="midnightblue" stroke="midnightblue" points="263.897,-87.5982 273.804,-83.8431 263.717,-80.6005 263.897,-87.5982"/>
</g>
<!-- Node6 -->
<g id="node6" class="node"><title>Node6</title>
<g id="a_node6"><a xlink:href="namespacemexiface.html#a54c9b82ac7205b64d9725bd8115614a4" target="_top" xlink:title="Templated function to returns the matlab mxClassID for given C++ data type. ">
<polygon fill="white" stroke="black" points="419,-47.5 419,-65.5 533,-65.5 533,-47.5 419,-47.5"/>
<text text-anchor="middle" x="476" y="-54.3" font-family="Helvetica,sans-Serif" font-size="9.00">mexiface::get_mx_class</text>
</a>
</g>
</g>
<!-- Node5&#45;&gt;Node6 -->
<g id="edge7" class="edge"><title>Node5&#45;&gt;Node6</title>
<path fill="none" stroke="midnightblue" d="M393.136,-45.3004C401.785,-46.4836 410.52,-47.6787 418.901,-48.8252"/>
<polygon fill="midnightblue" stroke="midnightblue" points="393.432,-41.8083 383.05,-43.9205 392.483,-48.7437 393.432,-41.8083"/>
</g>
<!-- Node7 -->
<g id="node7" class="node"><title>Node7</title>
<g id="a_node7"><a xlink:href="classmexiface_1_1MexIFace.html#a17f0280024d7cdd318b13223174b6151" target="_top" xlink:title="The mexFunction that will be exposed as the entry point for the .mex file. ">
<polygon fill="white" stroke="black" points="427,-0.5 427,-28.5 525,-28.5 525,-0.5 427,-0.5"/>
<text text-anchor="start" x="435" y="-17.3" font-family="Helvetica,sans-Serif" font-size="9.00">mexiface::MexIFace</text>
<text text-anchor="middle" x="476" y="-7.3" font-family="Helvetica,sans-Serif" font-size="9.00">::mexFunction</text>
</a>
</g>
</g>
<!-- Node5&#45;&gt;Node7 -->
<g id="edge8" class="edge"><title>Node5&#45;&gt;Node7</title>
<path fill="none" stroke="midnightblue" d="M393.005,-25.7176C404.408,-24.1576 415.966,-22.5764 426.665,-21.1126"/>
<polygon fill="midnightblue" stroke="midnightblue" points="392.483,-22.2563 383.05,-27.0795 393.432,-29.1917 392.483,-22.2563"/>
</g>
</g>
</svg>
