<?xml version="1.0" encoding="UTF-8" standalone="no"?>
<!DOCTYPE svg PUBLIC "-//W3C//DTD SVG 1.1//EN"
 "http://www.w3.org/Graphics/SVG/1.1/DTD/svg11.dtd">
<!-- Generated by graphviz version 2.36.0 (20140111.2315)
 -->
<!-- Title: mexiface::explore::analyze_structure Pages: 1 -->
<svg width="622pt" height="631pt"
 viewBox="0.00 0.00 622.00 630.74" xmlns="http://www.w3.org/2000/svg" xmlns:xlink="http://www.w3.org/1999/xlink">
<g id="graph0" class="graph" transform="scale(1 1) rotate(0) translate(4 626.743)">
<title>mexiface::explore::analyze_structure</title>
<polygon fill="white" stroke="none" points="-4,4 -4,-626.743 618,-626.743 618,4 -4,4"/>
<!-- Node1 -->
<g id="node1" class="node"><title>Node1</title>
<polygon fill="#bfbfbf" stroke="black" points="0.5,-256 0.5,-284 93.5,-284 93.5,-256 0.5,-256"/>
<text text-anchor="start" x="8.5" y="-272.8" font-family="Helvetica,sans-Serif" font-size="9.00">mexiface::explore::</text>
<text text-anchor="middle" x="47" y="-262.8" font-family="Helvetica,sans-Serif" font-size="9.00">analyze_structure</text>
</g>
<!-- Node2 -->
<g id="node2" class="node"><title>Node2</title>
<g id="a_node2"><a xlink:href="namespacemexiface_1_1explore.html#a5a5c7c4c0ce2b61c1fe8f55cd7a685c8" target="_top" xlink:title="mexiface::explore::\lanalyze_class">
<polygon fill="white" stroke="black" points="130.5,-256 130.5,-284 223.5,-284 223.5,-256 130.5,-256"/>
<text text-anchor="start" x="138.5" y="-272.8" font-family="Helvetica,sans-Serif" font-size="9.00">mexiface::explore::</text>
<text text-anchor="middle" x="177" y="-262.8" font-family="Helvetica,sans-Serif" font-size="9.00">analyze_class</text>
</a>
</g>
</g>
<!-- Node1&#45;&gt;Node2 -->
<g id="edge1" class="edge"><title>Node1&#45;&gt;Node2</title>
<path fill="none" stroke="midnightblue" d="M93.8494,-263.497C102.408,-263.258 111.439,-263.192 120.258,-263.3"/>
<polygon fill="midnightblue" stroke="midnightblue" points="120.402,-266.804 130.471,-263.506 120.543,-259.805 120.402,-266.804"/>
</g>
<!-- Node4 -->
<g id="node4" class="node"><title>Node4</title>
<g id="a_node4"><a xlink:href="namespacemexiface_1_1explore.html#ad41bff4081494e68399068077d57f1ea" target="_top" xlink:title="mexiface::explore::\ldisplay_subscript">
<polygon fill="white" stroke="black" points="520.5,-335 520.5,-363 613.5,-363 613.5,-335 520.5,-335"/>
<text text-anchor="start" x="528.5" y="-351.8" font-family="Helvetica,sans-Serif" font-size="9.00">mexiface::explore::</text>
<text text-anchor="middle" x="567" y="-341.8" font-family="Helvetica,sans-Serif" font-size="9.00">display_subscript</text>
</a>
</g>
</g>
<!-- Node1&#45;&gt;Node4 -->
<g id="edge33" class="edge"><title>Node1&#45;&gt;Node4</title>
<path fill="none" stroke="midnightblue" d="M56.5498,-284.366C90.2946,-339.458 220.702,-537.603 390,-607 428.656,-622.845 450.28,-631.665 484,-607 559.612,-551.693 567.191,-426.105 566.84,-373.206"/>
<polygon fill="midnightblue" stroke="midnightblue" points="570.338,-373.012 566.667,-363.073 563.339,-373.132 570.338,-373.012"/>
</g>
<!-- Node5 -->
<g id="node5" class="node"><title>Node5</title>
<g id="a_node5"><a xlink:href="namespacemexiface_1_1explore.html#af20e073842721a53872d786a38f401fe" target="_top" xlink:title="mexiface::explore::\lget_characteristics">
<polygon fill="white" stroke="black" points="390.5,-0 390.5,-28 483.5,-28 483.5,-0 390.5,-0"/>
<text text-anchor="start" x="398.5" y="-16.8" font-family="Helvetica,sans-Serif" font-size="9.00">mexiface::explore::</text>
<text text-anchor="middle" x="437" y="-6.8" font-family="Helvetica,sans-Serif" font-size="9.00">get_characteristics</text>
</a>
</g>
</g>
<!-- Node1&#45;&gt;Node5 -->
<g id="edge34" class="edge"><title>Node1&#45;&gt;Node5</title>
<path fill="none" stroke="midnightblue" d="M69.4132,-255.872C134.6,-212.862 330.746,-83.4461 406.081,-33.7401"/>
<polygon fill="midnightblue" stroke="midnightblue" points="408.234,-36.5133 414.653,-28.0847 404.378,-30.6705 408.234,-36.5133"/>
</g>
<!-- Node2&#45;&gt;Node1 -->
<g id="edge32" class="edge"><title>Node2&#45;&gt;Node1</title>
<path fill="none" stroke="midnightblue" d="M130.471,-276.494C121.924,-276.737 112.896,-276.807 104.073,-276.704"/>
<polygon fill="midnightblue" stroke="midnightblue" points="103.916,-273.2 93.8494,-276.503 103.779,-280.199 103.916,-273.2"/>
</g>
<!-- Node3 -->
<g id="node3" class="node"><title>Node3</title>
<g id="a_node3"><a xlink:href="namespacemexiface_1_1explore.html#a2fd795aab0989018a48cfce5b8f63719" target="_top" xlink:title="mexiface::explore::\lanalyze_cell">
<polygon fill="white" stroke="black" points="260.5,-146 260.5,-174 353.5,-174 353.5,-146 260.5,-146"/>
<text text-anchor="start" x="268.5" y="-162.8" font-family="Helvetica,sans-Serif" font-size="9.00">mexiface::explore::</text>
<text text-anchor="middle" x="307" y="-152.8" font-family="Helvetica,sans-Serif" font-size="9.00">analyze_cell</text>
</a>
</g>
</g>
<!-- Node2&#45;&gt;Node3 -->
<g id="edge2" class="edge"><title>Node2&#45;&gt;Node3</title>
<path fill="none" stroke="midnightblue" d="M189.812,-255.735C209.107,-236.372 247.981,-202.384 275.437,-180.411"/>
<polygon fill="midnightblue" stroke="midnightblue" points="277.873,-182.948 283.558,-174.007 273.538,-177.452 277.873,-182.948"/>
</g>
<!-- Node6 -->
<g id="node6" class="node"><title>Node6</title>
<g id="a_node6"><a xlink:href="namespacemexiface_1_1explore.html#aad11efd374cd1c241da644051e4d3479" target="_top" xlink:title="mexiface::explore::\lanalyze_full">
<polygon fill="white" stroke="black" points="260.5,-288 260.5,-316 353.5,-316 353.5,-288 260.5,-288"/>
<text text-anchor="start" x="268.5" y="-304.8" font-family="Helvetica,sans-Serif" font-size="9.00">mexiface::explore::</text>
<text text-anchor="middle" x="307" y="-294.8" font-family="Helvetica,sans-Serif" font-size="9.00">analyze_full</text>
</a>
</g>
</g>
<!-- Node2&#45;&gt;Node6 -->
<g id="edge6" class="edge"><title>Node2&#45;&gt;Node6</title>
<path fill="none" stroke="midnightblue" d="M223.849,-281.462C232.501,-283.625 241.636,-285.909 250.545,-288.136"/>
<polygon fill="midnightblue" stroke="midnightblue" points="249.92,-291.588 260.471,-290.618 251.618,-284.797 249.92,-291.588"/>
</g>
<!-- Node17 -->
<g id="node17" class="node"><title>Node17</title>
<g id="a_node17"><a xlink:href="namespacemexiface_1_1explore.html#ae6d95ef17338c9baa90e1ce1c3e33d0f" target="_top" xlink:title="mexiface::explore::\lanalyze_logical">
<polygon fill="white" stroke="black" points="260.5,-225 260.5,-253 353.5,-253 353.5,-225 260.5,-225"/>
<text text-anchor="start" x="268.5" y="-241.8" font-family="Helvetica,sans-Serif" font-size="9.00">mexiface::explore::</text>
<text text-anchor="middle" x="307" y="-231.8" font-family="Helvetica,sans-Serif" font-size="9.00">analyze_logical</text>
</a>
</g>
</g>
<!-- Node2&#45;&gt;Node17 -->
<g id="edge27" class="edge"><title>Node2&#45;&gt;Node17</title>
<path fill="none" stroke="midnightblue" d="M223.849,-258.896C232.501,-256.8 241.636,-254.588 250.545,-252.431"/>
<polygon fill="midnightblue" stroke="midnightblue" points="251.576,-255.782 260.471,-250.027 249.928,-248.979 251.576,-255.782"/>
</g>
<!-- Node18 -->
<g id="node18" class="node"><title>Node18</title>
<g id="a_node18"><a xlink:href="namespacemexiface_1_1explore.html#a44ef87dec50add577651cf82ea3c8874" target="_top" xlink:title="mexiface::explore::\lanalyze_sparse">
<polygon fill="white" stroke="black" points="260.5,-382 260.5,-410 353.5,-410 353.5,-382 260.5,-382"/>
<text text-anchor="start" x="268.5" y="-398.8" font-family="Helvetica,sans-Serif" font-size="9.00">mexiface::explore::</text>
<text text-anchor="middle" x="307" y="-388.8" font-family="Helvetica,sans-Serif" font-size="9.00">analyze_sparse</text>
</a>
</g>
</g>
<!-- Node2&#45;&gt;Node18 -->
<g id="edge29" class="edge"><title>Node2&#45;&gt;Node18</title>
<path fill="none" stroke="midnightblue" d="M186.581,-284.065C200.075,-305.279 228.035,-345.764 260,-372 261.95,-373.6 264.023,-375.137 266.17,-376.606"/>
<polygon fill="midnightblue" stroke="midnightblue" points="264.368,-379.608 274.707,-381.922 268.068,-373.665 264.368,-379.608"/>
</g>
<!-- Node19 -->
<g id="node19" class="node"><title>Node19</title>
<g id="a_node19"><a xlink:href="namespacemexiface_1_1explore.html#aaa319b6e0131959ff3d2fbd9a4c368b3" target="_top" xlink:title="mexiface::explore::\lanalyze_string">
<polygon fill="white" stroke="black" points="260.5,-335 260.5,-363 353.5,-363 353.5,-335 260.5,-335"/>
<text text-anchor="start" x="268.5" y="-351.8" font-family="Helvetica,sans-Serif" font-size="9.00">mexiface::explore::</text>
<text text-anchor="middle" x="307" y="-341.8" font-family="Helvetica,sans-Serif" font-size="9.00">analyze_string</text>
</a>
</g>
</g>
<!-- Node2&#45;&gt;Node19 -->
<g id="edge30" class="edge"><title>Node2&#45;&gt;Node19</title>
<path fill="none" stroke="midnightblue" d="M197.822,-284.191C214.188,-295.688 238.186,-312.047 260,-325 262.788,-326.656 265.702,-328.32 268.651,-329.959"/>
<polygon fill="midnightblue" stroke="midnightblue" points="267.052,-333.073 277.512,-334.759 270.387,-326.918 267.052,-333.073"/>
</g>
<!-- Node3&#45;&gt;Node2 -->
<g id="edge3" class="edge"><title>Node3&#45;&gt;Node2</title>
<path fill="none" stroke="midnightblue" d="M294.366,-174.085C275.174,-193.377 236.266,-227.406 208.734,-249.452"/>
<polygon fill="midnightblue" stroke="midnightblue" points="206.271,-246.936 200.589,-255.879 210.608,-252.432 206.271,-246.936"/>
</g>
<!-- Node3&#45;&gt;Node4 -->
<g id="edge4" class="edge"><title>Node3&#45;&gt;Node4</title>
<path fill="none" stroke="midnightblue" d="M319.578,-145.95C334.062,-129.598 360.563,-103.497 390,-93 429.351,-78.9679 450.252,-68.3732 484,-93 558.966,-147.705 566.945,-271.889 566.773,-324.605"/>
<polygon fill="midnightblue" stroke="midnightblue" points="563.271,-324.671 566.633,-334.718 570.271,-324.767 563.271,-324.671"/>
</g>
<!-- Node3&#45;&gt;Node5 -->
<g id="edge5" class="edge"><title>Node3&#45;&gt;Node5</title>
<path fill="none" stroke="midnightblue" d="M315.546,-145.677C328.442,-122.164 356.59,-74.8177 390,-43 393.32,-39.8382 397.036,-36.8325 400.877,-34.0373"/>
<polygon fill="midnightblue" stroke="midnightblue" points="403.068,-36.7812 409.385,-28.2757 399.142,-30.9854 403.068,-36.7812"/>
</g>
<!-- Node7 -->
<g id="node7" class="node"><title>Node7</title>
<g id="a_node7"><a xlink:href="namespacemexiface_1_1explore.html#a3b7a85eeb040efe041ae992581c3861b" target="_top" xlink:title="mexiface::explore::\lanalyze_double">
<polygon fill="white" stroke="black" points="390.5,-359 390.5,-387 483.5,-387 483.5,-359 390.5,-359"/>
<text text-anchor="start" x="398.5" y="-375.8" font-family="Helvetica,sans-Serif" font-size="9.00">mexiface::explore::</text>
<text text-anchor="middle" x="437" y="-365.8" font-family="Helvetica,sans-Serif" font-size="9.00">analyze_double</text>
</a>
</g>
</g>
<!-- Node6&#45;&gt;Node7 -->
<g id="edge7" class="edge"><title>Node6&#45;&gt;Node7</title>
<path fill="none" stroke="midnightblue" d="M335.944,-316.08C341.954,-319.247 348.231,-322.661 354,-326 370.432,-335.512 373.568,-339.488 390,-349 392.975,-350.722 396.084,-352.464 399.223,-354.181"/>
<polygon fill="midnightblue" stroke="midnightblue" points="397.59,-357.276 408.056,-358.92 400.899,-351.108 397.59,-357.276"/>
</g>
<!-- Node8 -->
<g id="node8" class="node"><title>Node8</title>
<g id="a_node8"><a xlink:href="namespacemexiface_1_1explore.html#a2c3a4139675fbbf8ca7ab0f92d6f11fd" target="_top" xlink:title="mexiface::explore::\lanalyze_int16">
<polygon fill="white" stroke="black" points="390.5,-312 390.5,-340 483.5,-340 483.5,-312 390.5,-312"/>
<text text-anchor="start" x="398.5" y="-328.8" font-family="Helvetica,sans-Serif" font-size="9.00">mexiface::explore::</text>
<text text-anchor="middle" x="437" y="-318.8" font-family="Helvetica,sans-Serif" font-size="9.00">analyze_int16</text>
</a>
</g>
</g>
<!-- Node6&#45;&gt;Node8 -->
<g id="edge9" class="edge"><title>Node6&#45;&gt;Node8</title>
<path fill="none" stroke="midnightblue" d="M353.849,-310.597C362.501,-312.219 371.636,-313.932 380.545,-315.602"/>
<polygon fill="midnightblue" stroke="midnightblue" points="379.997,-319.06 390.471,-317.463 381.287,-312.18 379.997,-319.06"/>
</g>
<!-- Node9 -->
<g id="node9" class="node"><title>Node9</title>
<g id="a_node9"><a xlink:href="namespacemexiface_1_1explore.html#ad8657b3604a735ef428823cdf0a72722" target="_top" xlink:title="mexiface::explore::\lanalyze_int32">
<polygon fill="white" stroke="black" points="390.5,-265 390.5,-293 483.5,-293 483.5,-265 390.5,-265"/>
<text text-anchor="start" x="398.5" y="-281.8" font-family="Helvetica,sans-Serif" font-size="9.00">mexiface::explore::</text>
<text text-anchor="middle" x="437" y="-271.8" font-family="Helvetica,sans-Serif" font-size="9.00">analyze_int32</text>
</a>
</g>
</g>
<!-- Node6&#45;&gt;Node9 -->
<g id="edge11" class="edge"><title>Node6&#45;&gt;Node9</title>
<path fill="none" stroke="midnightblue" d="M353.849,-293.761C362.501,-292.207 371.636,-290.565 380.545,-288.965"/>
<polygon fill="midnightblue" stroke="midnightblue" points="381.247,-292.395 390.471,-287.181 380.009,-285.505 381.247,-292.395"/>
</g>
<!-- Node10 -->
<g id="node10" class="node"><title>Node10</title>
<g id="a_node10"><a xlink:href="namespacemexiface_1_1explore.html#a7025633935ccc85550b308e70b0fc771" target="_top" xlink:title="mexiface::explore::\lanalyze_int64">
<polygon fill="white" stroke="black" points="390.5,-218 390.5,-246 483.5,-246 483.5,-218 390.5,-218"/>
<text text-anchor="start" x="398.5" y="-234.8" font-family="Helvetica,sans-Serif" font-size="9.00">mexiface::explore::</text>
<text text-anchor="middle" x="437" y="-224.8" font-family="Helvetica,sans-Serif" font-size="9.00">analyze_int64</text>
</a>
</g>
</g>
<!-- Node6&#45;&gt;Node10 -->
<g id="edge13" class="edge"><title>Node6&#45;&gt;Node10</title>
<path fill="none" stroke="midnightblue" d="M331.839,-287.859C348.096,-278.334 370.187,-265.62 390,-255 392.668,-253.57 395.437,-252.115 398.232,-250.667"/>
<polygon fill="midnightblue" stroke="midnightblue" points="399.848,-253.772 407.161,-246.105 396.664,-247.538 399.848,-253.772"/>
</g>
<!-- Node11 -->
<g id="node11" class="node"><title>Node11</title>
<g id="a_node11"><a xlink:href="namespacemexiface_1_1explore.html#abbbd19941bd43d361d33e21fb0dadbae" target="_top" xlink:title="mexiface::explore::\lanalyze_int8">
<polygon fill="white" stroke="black" points="390.5,-171 390.5,-199 483.5,-199 483.5,-171 390.5,-171"/>
<text text-anchor="start" x="398.5" y="-187.8" font-family="Helvetica,sans-Serif" font-size="9.00">mexiface::explore::</text>
<text text-anchor="middle" x="437" y="-177.8" font-family="Helvetica,sans-Serif" font-size="9.00">analyze_int8</text>
</a>
</g>
</g>
<!-- Node6&#45;&gt;Node11 -->
<g id="edge15" class="edge"><title>Node6&#45;&gt;Node11</title>
<path fill="none" stroke="midnightblue" d="M326.499,-287.835C335.333,-280.607 345.751,-271.376 354,-262 373.053,-240.344 368.376,-227.089 390,-208 391.289,-206.863 392.643,-205.766 394.047,-204.711"/>
<polygon fill="midnightblue" stroke="midnightblue" points="396.092,-207.555 402.504,-199.121 392.232,-201.715 396.092,-207.555"/>
</g>
<!-- Node12 -->
<g id="node12" class="node"><title>Node12</title>
<g id="a_node12"><a xlink:href="namespacemexiface_1_1explore.html#acaf0a238e5467e317ae037a966647626" target="_top" xlink:title="mexiface::explore::\lanalyze_single">
<polygon fill="white" stroke="black" points="390.5,-124 390.5,-152 483.5,-152 483.5,-124 390.5,-124"/>
<text text-anchor="start" x="398.5" y="-140.8" font-family="Helvetica,sans-Serif" font-size="9.00">mexiface::explore::</text>
<text text-anchor="middle" x="437" y="-130.8" font-family="Helvetica,sans-Serif" font-size="9.00">analyze_single</text>
</a>
</g>
</g>
<!-- Node6&#45;&gt;Node12 -->
<g id="edge17" class="edge"><title>Node6&#45;&gt;Node12</title>
<path fill="none" stroke="midnightblue" d="M328.482,-287.931C337.335,-280.988 347.2,-271.966 354,-262 380.858,-222.634 358.406,-196.677 390,-161 390.74,-160.164 391.517,-159.356 392.327,-158.573"/>
<polygon fill="midnightblue" stroke="midnightblue" points="394.674,-161.178 400.328,-152.218 390.321,-155.697 394.674,-161.178"/>
</g>
<!-- Node13 -->
<g id="node13" class="node"><title>Node13</title>
<g id="a_node13"><a xlink:href="namespacemexiface_1_1explore.html#aa1951af918bc0b264d05f2db4fbec9e1" target="_top" xlink:title="mexiface::explore::\lanalyze_uint16">
<polygon fill="white" stroke="black" points="390.5,-547 390.5,-575 483.5,-575 483.5,-547 390.5,-547"/>
<text text-anchor="start" x="398.5" y="-563.8" font-family="Helvetica,sans-Serif" font-size="9.00">mexiface::explore::</text>
<text text-anchor="middle" x="437" y="-553.8" font-family="Helvetica,sans-Serif" font-size="9.00">analyze_uint16</text>
</a>
</g>
</g>
<!-- Node6&#45;&gt;Node13 -->
<g id="edge19" class="edge"><title>Node6&#45;&gt;Node13</title>
<path fill="none" stroke="midnightblue" d="M343.824,-316.219C347.707,-318.975 351.243,-322.214 354,-326 410.005,-402.901 333.995,-460.099 390,-537 390.776,-538.065 391.613,-539.086 392.502,-540.066"/>
<polygon fill="midnightblue" stroke="midnightblue" points="390.345,-542.83 400.176,-546.781 394.955,-537.562 390.345,-542.83"/>
</g>
<!-- Node14 -->
<g id="node14" class="node"><title>Node14</title>
<g id="a_node14"><a xlink:href="namespacemexiface_1_1explore.html#aa0ebed3704023f9816e91293c9c08253" target="_top" xlink:title="mexiface::explore::\lanalyze_uint32">
<polygon fill="white" stroke="black" points="390.5,-500 390.5,-528 483.5,-528 483.5,-500 390.5,-500"/>
<text text-anchor="start" x="398.5" y="-516.8" font-family="Helvetica,sans-Serif" font-size="9.00">mexiface::explore::</text>
<text text-anchor="middle" x="437" y="-506.8" font-family="Helvetica,sans-Serif" font-size="9.00">analyze_uint32</text>
</a>
</g>
</g>
<!-- Node6&#45;&gt;Node14 -->
<g id="edge21" class="edge"><title>Node6&#45;&gt;Node14</title>
<path fill="none" stroke="midnightblue" d="M343.203,-316.031C347.289,-318.835 351.045,-322.137 354,-326 399.339,-385.272 344.661,-430.728 390,-490 390.924,-491.207 391.925,-492.36 392.991,-493.459"/>
<polygon fill="midnightblue" stroke="midnightblue" points="390.875,-496.253 400.797,-499.969 395.359,-490.877 390.875,-496.253"/>
</g>
<!-- Node15 -->
<g id="node15" class="node"><title>Node15</title>
<g id="a_node15"><a xlink:href="namespacemexiface_1_1explore.html#abe63c53129e4d37e66af71c8f66d9ae6" target="_top" xlink:title="mexiface::explore::\lanalyze_uint64">
<polygon fill="white" stroke="black" points="390.5,-453 390.5,-481 483.5,-481 483.5,-453 390.5,-453"/>
<text text-anchor="start" x="398.5" y="-469.8" font-family="Helvetica,sans-Serif" font-size="9.00">mexiface::explore::</text>
<text text-anchor="middle" x="437" y="-459.8" font-family="Helvetica,sans-Serif" font-size="9.00">analyze_uint64</text>
</a>
</g>
</g>
<!-- Node6&#45;&gt;Node15 -->
<g id="edge23" class="edge"><title>Node6&#45;&gt;Node15</title>
<path fill="none" stroke="midnightblue" d="M342.91,-316.264C347.042,-319.032 350.888,-322.262 354,-326 388.807,-367.814 355.193,-401.186 390,-443 390.972,-444.168 392.017,-445.287 393.119,-446.357"/>
<polygon fill="midnightblue" stroke="midnightblue" points="391.095,-449.22 401.09,-452.736 395.469,-443.755 391.095,-449.22"/>
</g>
<!-- Node16 -->
<g id="node16" class="node"><title>Node16</title>
<g id="a_node16"><a xlink:href="namespacemexiface_1_1explore.html#ae0e1687942c1e218a665eedeadc63456" target="_top" xlink:title="mexiface::explore::\lanalyze_uint8">
<polygon fill="white" stroke="black" points="390.5,-406 390.5,-434 483.5,-434 483.5,-406 390.5,-406"/>
<text text-anchor="start" x="398.5" y="-422.8" font-family="Helvetica,sans-Serif" font-size="9.00">mexiface::explore::</text>
<text text-anchor="middle" x="437" y="-412.8" font-family="Helvetica,sans-Serif" font-size="9.00">analyze_uint8</text>
</a>
</g>
</g>
<!-- Node6&#45;&gt;Node16 -->
<g id="edge25" class="edge"><title>Node6&#45;&gt;Node16</title>
<path fill="none" stroke="midnightblue" d="M341.376,-316.213C345.941,-319.037 350.317,-322.295 354,-326 378.665,-350.81 365.335,-371.19 390,-396 391.381,-397.389 392.86,-398.716 394.409,-399.98"/>
<polygon fill="midnightblue" stroke="midnightblue" points="392.438,-402.873 402.624,-405.787 396.478,-397.157 392.438,-402.873"/>
</g>
<!-- Node7&#45;&gt;Node4 -->
<g id="edge8" class="edge"><title>Node7&#45;&gt;Node4</title>
<path fill="none" stroke="midnightblue" d="M483.849,-364.403C492.501,-362.781 501.636,-361.068 510.545,-359.398"/>
<polygon fill="midnightblue" stroke="midnightblue" points="511.287,-362.82 520.471,-357.537 509.997,-355.94 511.287,-362.82"/>
</g>
<!-- Node8&#45;&gt;Node4 -->
<g id="edge10" class="edge"><title>Node8&#45;&gt;Node4</title>
<path fill="none" stroke="midnightblue" d="M483.849,-334.239C492.501,-335.793 501.636,-337.435 510.545,-339.035"/>
<polygon fill="midnightblue" stroke="midnightblue" points="510.009,-342.495 520.471,-340.819 511.247,-335.605 510.009,-342.495"/>
</g>
<!-- Node9&#45;&gt;Node4 -->
<g id="edge12" class="edge"><title>Node9&#45;&gt;Node4</title>
<path fill="none" stroke="midnightblue" d="M466.839,-293.105C472.556,-295.99 478.491,-299.047 484,-302 500.408,-310.795 518.378,-321.026 533.303,-329.692"/>
<polygon fill="midnightblue" stroke="midnightblue" points="531.759,-332.844 542.161,-334.859 535.286,-326.797 531.759,-332.844"/>
</g>
<!-- Node10&#45;&gt;Node4 -->
<g id="edge14" class="edge"><title>Node10&#45;&gt;Node4</title>
<path fill="none" stroke="midnightblue" d="M470.153,-246.037C474.985,-248.716 479.763,-251.721 484,-255 510.676,-275.642 535.245,-305.961 550.396,-326.541"/>
<polygon fill="midnightblue" stroke="midnightblue" points="547.601,-328.649 556.292,-334.708 553.277,-324.552 547.601,-328.649"/>
</g>
<!-- Node11&#45;&gt;Node4 -->
<g id="edge16" class="edge"><title>Node11&#45;&gt;Node4</title>
<path fill="none" stroke="midnightblue" d="M472.157,-199.198C476.406,-201.769 480.485,-204.7 484,-208 519.984,-241.782 544.98,-294.924 557.27,-325.404"/>
<polygon fill="midnightblue" stroke="midnightblue" points="554.047,-326.773 560.948,-334.811 560.566,-324.223 554.047,-326.773"/>
</g>
<!-- Node12&#45;&gt;Node4 -->
<g id="edge18" class="edge"><title>Node12&#45;&gt;Node4</title>
<path fill="none" stroke="midnightblue" d="M472.989,-152.123C477.008,-154.683 480.804,-157.632 484,-161 529.482,-208.928 552.111,-286.146 561.122,-325.015"/>
<polygon fill="midnightblue" stroke="midnightblue" points="557.732,-325.897 563.309,-334.905 564.567,-324.385 557.732,-325.897"/>
</g>
<!-- Node13&#45;&gt;Node4 -->
<g id="edge20" class="edge"><title>Node13&#45;&gt;Node4</title>
<path fill="none" stroke="midnightblue" d="M471.591,-546.994C476.126,-544.142 480.436,-540.821 484,-537 529.067,-488.682 551.883,-411.639 561.027,-372.896"/>
<polygon fill="midnightblue" stroke="midnightblue" points="564.464,-373.566 563.251,-363.04 557.636,-372.025 564.464,-373.566"/>
</g>
<!-- Node14&#45;&gt;Node4 -->
<g id="edge22" class="edge"><title>Node14&#45;&gt;Node4</title>
<path fill="none" stroke="midnightblue" d="M470.731,-499.902C475.489,-497.035 480.092,-493.733 484,-490 519.692,-455.909 544.794,-402.878 557.181,-372.501"/>
<polygon fill="midnightblue" stroke="midnightblue" points="560.465,-373.714 560.891,-363.128 553.956,-371.138 560.465,-373.714"/>
</g>
<!-- Node15&#45;&gt;Node4 -->
<g id="edge24" class="edge"><title>Node15&#45;&gt;Node4</title>
<path fill="none" stroke="midnightblue" d="M469.17,-452.77C474.332,-449.851 479.471,-446.567 484,-443 510.497,-422.129 535.105,-391.86 550.314,-371.353"/>
<polygon fill="midnightblue" stroke="midnightblue" points="553.18,-373.363 556.235,-363.219 547.521,-369.244 553.18,-373.363"/>
</g>
<!-- Node16&#45;&gt;Node4 -->
<g id="edge26" class="edge"><title>Node16&#45;&gt;Node4</title>
<path fill="none" stroke="midnightblue" d="M465.337,-405.964C471.5,-402.736 477.994,-399.286 484,-396 500.331,-387.064 518.293,-376.817 533.231,-368.177"/>
<polygon fill="midnightblue" stroke="midnightblue" points="535.208,-371.077 542.101,-363.031 531.695,-365.022 535.208,-371.077"/>
</g>
<!-- Node17&#45;&gt;Node4 -->
<g id="edge28" class="edge"><title>Node17&#45;&gt;Node4</title>
<path fill="none" stroke="midnightblue" d="M320.971,-224.9C330.701,-213.942 344.006,-198.112 354,-183 373.08,-154.148 360.421,-131.931 390,-114 425.726,-92.3433 449.938,-89.8095 484,-114 553.273,-163.197 564.507,-275.458 565.992,-324.882"/>
<polygon fill="midnightblue" stroke="midnightblue" points="562.494,-325.031 566.183,-334.963 569.493,-324.899 562.494,-325.031"/>
</g>
<!-- Node19&#45;&gt;Node4 -->
<g id="edge31" class="edge"><title>Node19&#45;&gt;Node4</title>
<path fill="none" stroke="midnightblue" d="M343.824,-363.219C347.707,-365.975 351.243,-369.214 354,-373 410.005,-449.901 317.294,-522.648 390,-584 421.929,-610.943 449.938,-608.19 484,-584 553.273,-534.803 564.507,-422.542 565.992,-373.118"/>
<polygon fill="midnightblue" stroke="midnightblue" points="569.493,-373.101 566.183,-363.037 562.494,-372.969 569.493,-373.101"/>
</g>
</g>
</svg>
