<?xml version="1.0" encoding="UTF-8" standalone="no"?>
<!DOCTYPE svg PUBLIC "-//W3C//DTD SVG 1.1//EN"
 "http://www.w3.org/Graphics/SVG/1.1/DTD/svg11.dtd">
<!-- Generated by graphviz version 2.38.0 (20140413.2041)
 -->
<!-- Title: mexiface::get_mx_class_name Pages: 1 -->
<svg width="491pt" height="403pt"
 viewBox="0.00 0.00 491.00 403.00" xmlns="http://www.w3.org/2000/svg" xmlns:xlink="http://www.w3.org/1999/xlink">
<g id="graph0" class="graph" transform="scale(1 1) rotate(0) translate(4 399)">
<title>mexiface::get_mx_class_name</title>
<polygon fill="white" stroke="none" points="-4,4 -4,-399 487,-399 487,4 -4,4"/>
<!-- Node1 -->
<g id="node1" class="node"><title>Node1</title>
<polygon fill="#bfbfbf" stroke="black" points="0,-183.5 0,-201.5 143,-201.5 143,-183.5 0,-183.5"/>
<text text-anchor="middle" x="71.5" y="-190.3" font-family="Helvetica,sans-Serif" font-size="9.00">mexiface::get_mx_class_name</text>
</g>
<!-- Node2 -->
<g id="node2" class="node"><title>Node2</title>
<g id="a_node2"><a xlink:href="classmexiface_1_1MexIFace.html#a1bc63ab6607be28746984fa06c74e110" target="_top" xlink:title="mexiface::MexIFace\l::checkedFloatToFloatConversion">
<polygon fill="white" stroke="black" points="187,-366.5 187,-394.5 341,-394.5 341,-366.5 187,-366.5"/>
<text text-anchor="start" x="195" y="-383.3" font-family="Helvetica,sans-Serif" font-size="9.00">mexiface::MexIFace</text>
<text text-anchor="middle" x="264" y="-373.3" font-family="Helvetica,sans-Serif" font-size="9.00">::checkedFloatToFloatConversion</text>
</a>
</g>
</g>
<!-- Node1&#45;&gt;Node2 -->
<g id="edge1" class="edge"><title>Node1&#45;&gt;Node2</title>
<path fill="none" stroke="midnightblue" d="M79.3891,-211.404C92.9391,-245.877 126.393,-318.946 179,-357.5 183.756,-360.986 189.013,-363.943 194.507,-366.452"/>
<polygon fill="midnightblue" stroke="midnightblue" points="82.5115,-209.767 75.6901,-201.661 75.9672,-212.252 82.5115,-209.767"/>
</g>
<!-- Node3 -->
<g id="node3" class="node"><title>Node3</title>
<g id="a_node3"><a xlink:href="classmexiface_1_1MexIFace.html#ab11573e3aadbd16acd11e7d1f0bf904c" target="_top" xlink:title="mexiface::MexIFace\l::checkedFloatToIntegerConversion">
<polygon fill="white" stroke="black" points="183,-319.5 183,-347.5 345,-347.5 345,-319.5 183,-319.5"/>
<text text-anchor="start" x="191" y="-336.3" font-family="Helvetica,sans-Serif" font-size="9.00">mexiface::MexIFace</text>
<text text-anchor="middle" x="264" y="-326.3" font-family="Helvetica,sans-Serif" font-size="9.00">::checkedFloatToIntegerConversion</text>
</a>
</g>
</g>
<!-- Node1&#45;&gt;Node3 -->
<g id="edge2" class="edge"><title>Node1&#45;&gt;Node3</title>
<path fill="none" stroke="midnightblue" d="M83.6731,-210.294C100.92,-236.275 136.515,-284.34 179,-310.5 184.665,-313.988 190.864,-316.957 197.246,-319.481"/>
<polygon fill="midnightblue" stroke="midnightblue" points="86.5459,-208.291 78.1704,-201.802 80.6714,-212.097 86.5459,-208.291"/>
</g>
<!-- Node4 -->
<g id="node4" class="node"><title>Node4</title>
<g id="a_node4"><a xlink:href="classmexiface_1_1MexIFace.html#a4538bd721402014ee94d3fa76ee42b65" target="_top" xlink:title="mexiface::MexIFace\l::checkedIntegerToFloatConversion">
<polygon fill="white" stroke="black" points="183,-272.5 183,-300.5 345,-300.5 345,-272.5 183,-272.5"/>
<text text-anchor="start" x="191" y="-289.3" font-family="Helvetica,sans-Serif" font-size="9.00">mexiface::MexIFace</text>
<text text-anchor="middle" x="264" y="-279.3" font-family="Helvetica,sans-Serif" font-size="9.00">::checkedIntegerToFloatConversion</text>
</a>
</g>
</g>
<!-- Node1&#45;&gt;Node4 -->
<g id="edge3" class="edge"><title>Node1&#45;&gt;Node4</title>
<path fill="none" stroke="midnightblue" d="M91.4984,-207.928C111.981,-223.877 146.091,-248.501 179,-263.5 186.43,-266.886 194.462,-269.867 202.513,-272.463"/>
<polygon fill="midnightblue" stroke="midnightblue" points="93.6116,-205.137 83.5976,-201.678 89.2684,-210.627 93.6116,-205.137"/>
</g>
<!-- Node5 -->
<g id="node5" class="node"><title>Node5</title>
<g id="a_node5"><a xlink:href="classmexiface_1_1MexIFace.html#aa169f2e0cb3a34b7aaf169cec1b14824" target="_top" xlink:title="mexiface::MexIFace\l::checkedIntegerToIntegerConversion">
<polygon fill="white" stroke="black" points="179,-225.5 179,-253.5 349,-253.5 349,-225.5 179,-225.5"/>
<text text-anchor="start" x="187" y="-242.3" font-family="Helvetica,sans-Serif" font-size="9.00">mexiface::MexIFace</text>
<text text-anchor="middle" x="264" y="-232.3" font-family="Helvetica,sans-Serif" font-size="9.00">::checkedIntegerToIntegerConversion</text>
</a>
</g>
</g>
<!-- Node1&#45;&gt;Node5 -->
<g id="edge4" class="edge"><title>Node1&#45;&gt;Node5</title>
<path fill="none" stroke="midnightblue" d="M118.946,-203.959C145.23,-210.444 178.306,-218.604 206.134,-225.47"/>
<polygon fill="midnightblue" stroke="midnightblue" points="119.778,-200.559 109.23,-201.562 118.101,-207.356 119.778,-200.559"/>
</g>
<!-- Node6 -->
<g id="node6" class="node"><title>Node6</title>
<g id="a_node6"><a xlink:href="classmexiface_1_1MexIFace.html#a1a514d468276ece9f3426db2f601d658" target="_top" xlink:title="mexiface::MexIFace\l::checkType">
<polygon fill="white" stroke="black" points="215,-178.5 215,-206.5 313,-206.5 313,-178.5 215,-178.5"/>
<text text-anchor="start" x="223" y="-195.3" font-family="Helvetica,sans-Serif" font-size="9.00">mexiface::MexIFace</text>
<text text-anchor="middle" x="264" y="-185.3" font-family="Helvetica,sans-Serif" font-size="9.00">::checkType</text>
</a>
</g>
</g>
<!-- Node1&#45;&gt;Node6 -->
<g id="edge5" class="edge"><title>Node1&#45;&gt;Node6</title>
<path fill="none" stroke="midnightblue" d="M153.374,-192.5C174.364,-192.5 196.307,-192.5 214.999,-192.5"/>
<polygon fill="midnightblue" stroke="midnightblue" points="153.164,-189 143.164,-192.5 153.164,-196 153.164,-189"/>
</g>
<!-- Node7 -->
<g id="node7" class="node"><title>Node7</title>
<g id="a_node7"><a xlink:href="namespacemexiface.html#a0a61f21777cac291b7baabb5726aacc1" target="_top" xlink:title="Returns a string representation of the mxArray class name. ">
<polygon fill="white" stroke="black" points="192.5,-141.5 192.5,-159.5 335.5,-159.5 335.5,-141.5 192.5,-141.5"/>
<text text-anchor="middle" x="264" y="-148.3" font-family="Helvetica,sans-Serif" font-size="9.00">mexiface::get_mx_class_name</text>
</a>
</g>
</g>
<!-- Node1&#45;&gt;Node7 -->
<g id="edge6" class="edge"><title>Node1&#45;&gt;Node7</title>
<path fill="none" stroke="midnightblue" d="M123.483,-181.26C154.286,-174.468 193.033,-165.926 221.872,-159.568"/>
<polygon fill="midnightblue" stroke="midnightblue" points="122.379,-177.919 113.367,-183.49 123.886,-184.755 122.379,-177.919"/>
</g>
<!-- Node8 -->
<g id="node8" class="node"><title>Node8</title>
<g id="a_node8"><a xlink:href="classmexiface_1_1MexIFace.html#a4bcf47602ed790926d4f1358ea76f754" target="_top" xlink:title="mexiface::MexIFace\l::getAsBool">
<polygon fill="white" stroke="black" points="215,-94.5 215,-122.5 313,-122.5 313,-94.5 215,-94.5"/>
<text text-anchor="start" x="223" y="-111.3" font-family="Helvetica,sans-Serif" font-size="9.00">mexiface::MexIFace</text>
<text text-anchor="middle" x="264" y="-101.3" font-family="Helvetica,sans-Serif" font-size="9.00">::getAsBool</text>
</a>
</g>
</g>
<!-- Node1&#45;&gt;Node8 -->
<g id="edge7" class="edge"><title>Node1&#45;&gt;Node8</title>
<path fill="none" stroke="midnightblue" d="M94.6021,-178.009C115.618,-164.731 148.466,-145.254 179,-132.5 190.336,-127.765 202.908,-123.623 214.799,-120.174"/>
<polygon fill="midnightblue" stroke="midnightblue" points="92.6304,-175.115 86.0955,-183.455 96.4046,-181.011 92.6304,-175.115"/>
</g>
<!-- Node10 -->
<g id="node10" class="node"><title>Node10</title>
<g id="a_node10"><a xlink:href="classmexiface_1_1MexIFace.html#a56ccee3414969acdf963074988814eaa" target="_top" xlink:title="mexiface::MexIFace\l::getAsFloat">
<polygon fill="white" stroke="black" points="215,-47.5 215,-75.5 313,-75.5 313,-47.5 215,-47.5"/>
<text text-anchor="start" x="223" y="-64.3" font-family="Helvetica,sans-Serif" font-size="9.00">mexiface::MexIFace</text>
<text text-anchor="middle" x="264" y="-54.3" font-family="Helvetica,sans-Serif" font-size="9.00">::getAsFloat</text>
</a>
</g>
</g>
<!-- Node1&#45;&gt;Node10 -->
<g id="edge9" class="edge"><title>Node1&#45;&gt;Node10</title>
<path fill="none" stroke="midnightblue" d="M85.1459,-175.093C103.29,-151.363 138.967,-109.119 179,-85.5 189.842,-79.1033 202.484,-74.3316 214.618,-70.8037"/>
<polygon fill="midnightblue" stroke="midnightblue" points="82.266,-173.1 79.0778,-183.203 87.8709,-177.293 82.266,-173.1"/>
</g>
<!-- Node11 -->
<g id="node11" class="node"><title>Node11</title>
<g id="a_node11"><a xlink:href="classmexiface_1_1MexIFace.html#a56f4baac543e7f11bc20c70ec4c22a8e" target="_top" xlink:title="Reads a mxArray as a scalar C++ int32_t type. ">
<polygon fill="white" stroke="black" points="215,-0.5 215,-28.5 313,-28.5 313,-0.5 215,-0.5"/>
<text text-anchor="start" x="223" y="-17.3" font-family="Helvetica,sans-Serif" font-size="9.00">mexiface::MexIFace</text>
<text text-anchor="middle" x="264" y="-7.3" font-family="Helvetica,sans-Serif" font-size="9.00">::getAsInt</text>
</a>
</g>
</g>
<!-- Node1&#45;&gt;Node11 -->
<g id="edge10" class="edge"><title>Node1&#45;&gt;Node11</title>
<path fill="none" stroke="midnightblue" d="M80.1931,-173.986C94.6375,-141.526 128.94,-74.392 179,-38.5 189.477,-30.9881 202.257,-25.8187 214.656,-22.2644"/>
<polygon fill="midnightblue" stroke="midnightblue" points="76.9557,-172.655 76.2064,-183.223 83.3827,-175.429 76.9557,-172.655"/>
</g>
<!-- Node9 -->
<g id="node9" class="node"><title>Node9</title>
<g id="a_node9"><a xlink:href="classmexiface_1_1MexIFace.html#aae9ab3291f0c57e4f62db4155a793f7a" target="_top" xlink:title="mexiface::MexIFace\l::getAsScalar">
<polygon fill="white" stroke="black" points="385,-94.5 385,-122.5 483,-122.5 483,-94.5 385,-94.5"/>
<text text-anchor="start" x="393" y="-111.3" font-family="Helvetica,sans-Serif" font-size="9.00">mexiface::MexIFace</text>
<text text-anchor="middle" x="434" y="-101.3" font-family="Helvetica,sans-Serif" font-size="9.00">::getAsScalar</text>
</a>
</g>
</g>
<!-- Node8&#45;&gt;Node9 -->
<g id="edge8" class="edge"><title>Node8&#45;&gt;Node9</title>
<path fill="none" stroke="midnightblue" d="M323.411,-108.5C343.476,-108.5 365.694,-108.5 384.851,-108.5"/>
<polygon fill="midnightblue" stroke="midnightblue" points="323.142,-105 313.142,-108.5 323.142,-112 323.142,-105"/>
</g>
</g>
</svg>
