<?xml version="1.0" encoding="UTF-8" standalone="no"?>
<!DOCTYPE svg PUBLIC "-//W3C//DTD SVG 1.1//EN"
 "http://www.w3.org/Graphics/SVG/1.1/DTD/svg11.dtd">
<!-- Generated by graphviz version 2.36.0 (20140111.2315)
 -->
<!-- Title: mexiface::explore::analyze_class Pages: 1 -->
<svg width="264pt" height="120pt"
 viewBox="0.00 0.00 264.00 120.00" xmlns="http://www.w3.org/2000/svg" xmlns:xlink="http://www.w3.org/1999/xlink">
<g id="graph0" class="graph" transform="scale(1 1) rotate(0) translate(4 116)">
<title>mexiface::explore::analyze_class</title>
<polygon fill="white" stroke="none" points="-4,4 -4,-116 260,-116 260,4 -4,4"/>
<!-- Node1 -->
<g id="node1" class="node"><title>Node1</title>
<polygon fill="#bfbfbf" stroke="black" points="0.5,-37 0.5,-65 93.5,-65 93.5,-37 0.5,-37"/>
<text text-anchor="start" x="8.5" y="-53.8" font-family="Helvetica,sans-Serif" font-size="9.00">mexiface::explore::</text>
<text text-anchor="middle" x="47" y="-43.8" font-family="Helvetica,sans-Serif" font-size="9.00">analyze_class</text>
</g>
<!-- Node2 -->
<g id="node2" class="node"><title>Node2</title>
<g id="a_node2"><a xlink:href="namespacemexiface_1_1explore.html#a2fd795aab0989018a48cfce5b8f63719" target="_top" xlink:title="mexiface::explore::\lanalyze_cell">
<polygon fill="white" stroke="black" points="146.5,-84 146.5,-112 239.5,-112 239.5,-84 146.5,-84"/>
<text text-anchor="start" x="154.5" y="-100.8" font-family="Helvetica,sans-Serif" font-size="9.00">mexiface::explore::</text>
<text text-anchor="middle" x="193" y="-90.8" font-family="Helvetica,sans-Serif" font-size="9.00">analyze_cell</text>
</a>
</g>
</g>
<!-- Node1&#45;&gt;Node2 -->
<g id="edge1" class="edge"><title>Node1&#45;&gt;Node2</title>
<path fill="none" stroke="midnightblue" d="M103.155,-62.4191C124.415,-68.9293 147.749,-76.942 165.168,-83.8485"/>
<polygon fill="midnightblue" stroke="midnightblue" points="104.146,-59.0623 93.5625,-59.543 102.136,-65.7674 104.146,-59.0623"/>
</g>
<!-- Node3 -->
<g id="node3" class="node"><title>Node3</title>
<g id="a_node3"><a xlink:href="namespacemexiface_1_1explore.html#a6205a96e991f64a98345df5645dd0ba5" target="_top" xlink:title="mexiface::explore::\lanalyze_structure">
<polygon fill="white" stroke="black" points="146.5,-37 146.5,-65 239.5,-65 239.5,-37 146.5,-37"/>
<text text-anchor="start" x="154.5" y="-53.8" font-family="Helvetica,sans-Serif" font-size="9.00">mexiface::explore::</text>
<text text-anchor="middle" x="193" y="-43.8" font-family="Helvetica,sans-Serif" font-size="9.00">analyze_structure</text>
</a>
</g>
</g>
<!-- Node1&#45;&gt;Node3 -->
<g id="edge3" class="edge"><title>Node1&#45;&gt;Node3</title>
<path fill="none" stroke="midnightblue" d="M103.634,-44.4074C117.725,-44.132 132.7,-44.218 146.24,-44.6653"/>
<polygon fill="midnightblue" stroke="midnightblue" points="103.467,-40.9105 93.5625,-44.6719 103.651,-47.9081 103.467,-40.9105"/>
</g>
<!-- Node4 -->
<g id="node4" class="node"><title>Node4</title>
<g id="a_node4"><a xlink:href="namespacemexiface.html#ae54146cf35d29dcc6c83a8ca96b62549" target="_top" xlink:title="Given the arguments to a matlab mex function call, print out the details of each arguments. ">
<polygon fill="white" stroke="black" points="130.5,-0 130.5,-18 255.5,-18 255.5,-0 130.5,-0"/>
<text text-anchor="middle" x="193" y="-6.8" font-family="Helvetica,sans-Serif" font-size="9.00">mexiface::exploreMexArgs</text>
</a>
</g>
</g>
<!-- Node1&#45;&gt;Node4 -->
<g id="edge5" class="edge"><title>Node1&#45;&gt;Node4</title>
<path fill="none" stroke="midnightblue" d="M103.274,-34.8784C122.786,-29.1873 144.034,-22.9902 160.843,-18.0875"/>
<polygon fill="midnightblue" stroke="midnightblue" points="102.182,-31.5509 93.5625,-37.7109 104.143,-38.2709 102.182,-31.5509"/>
</g>
<!-- Node2&#45;&gt;Node1 -->
<g id="edge2" class="edge"><title>Node2&#45;&gt;Node1</title>
<path fill="none" stroke="midnightblue" d="M136.823,-86.5744C115.536,-80.0548 92.1695,-72.0299 74.7478,-65.1181"/>
<polygon fill="midnightblue" stroke="midnightblue" points="135.845,-89.935 146.429,-89.4545 137.856,-83.2299 135.845,-89.935"/>
</g>
<!-- Node3&#45;&gt;Node1 -->
<g id="edge4" class="edge"><title>Node3&#45;&gt;Node1</title>
<path fill="none" stroke="midnightblue" d="M136.16,-57.5966C122.06,-57.8685 107.089,-57.779 93.5625,-57.3281"/>
<polygon fill="midnightblue" stroke="midnightblue" points="136.334,-61.0933 146.24,-57.3347 136.152,-54.0957 136.334,-61.0933"/>
</g>
</g>
</svg>
