<?xml version="1.0" encoding="UTF-8" standalone="no"?>
<!DOCTYPE svg PUBLIC "-//W3C//DTD SVG 1.1//EN"
 "http://www.w3.org/Graphics/SVG/1.1/DTD/svg11.dtd">
<!-- Generated by graphviz version 2.38.0 (20140413.2041)
 -->
<!-- Title: mexiface::explore::analyze_full Pages: 1 -->
<!--zoomable 460 -->
<svg id="main" version="1.1" xmlns="http://www.w3.org/2000/svg" xmlns:xlink="http://www.w3.org/1999/xlink" xml:space="preserve" onload="init(evt)">
<style type="text/css"><![CDATA[
.edge:hover path { stroke: red; }
.edge:hover polygon { stroke: red; fill: red; }
]]></style>
<script type="text/javascript"><![CDATA[
var edges = document.getElementsByTagName('g');
if (edges && edges.length) {
  for (var i=0;i<edges.length;i++) {
    if (edges[i].id.substr(0,4)=='edge') {
      edges[i].setAttribute('class','edge');
    }
  }
}
]]></script>
        <defs>
                <circle id="rim" cx="0" cy="0" r="7"/>
                <circle id="rim2" cx="0" cy="0" r="3.5"/>
                <g id="zoomPlus">
                        <use xlink:href="#rim" fill="#404040">
                                <set attributeName="fill" to="#808080" begin="zoomplus.mouseover" end="zoomplus.mouseout"/>
                        </use>
                        <path d="M-4,0h8M0,-4v8" fill="none" stroke="white" stroke-width="1.5" pointer-events="none"/>
                </g>
                <g id="zoomMin">
                        <use xlink:href="#rim" fill="#404040">
                                <set attributeName="fill" to="#808080" begin="zoomminus.mouseover" end="zoomminus.mouseout"/>
                        </use>
                        <path d="M-4,0h8" fill="none" stroke="white" stroke-width="1.5" pointer-events="none"/>
                </g>
                <g id="dirArrow">
                        <path fill="none" stroke="white" stroke-width="1.5" d="M0,-3.0v7 M-2.5,-0.5L0,-3.0L2.5,-0.5"/>
                </g>
               <g id="resetDef">
                       <use xlink:href="#rim2" fill="#404040">
                               <set attributeName="fill" to="#808080" begin="reset.mouseover" end="reset.mouseout"/>
                       </use>
               </g>
        </defs>

<script type="text/javascript">
var viewWidth = 359;
var viewHeight = 460;
var sectionId = 'dynsection-6';
</script>
<script xlink:href="svgpan.js"/>
<svg id="graph" class="graph">
<g id="viewport">
<title>mexiface::explore::analyze_full</title>
<polygon fill="white" stroke="none" points="-4,4 -4,-456 355,-456 355,4 -4,4"/>
<!-- Node1 -->
<g id="node1" class="node"><title>Node1</title>
<polygon fill="#bfbfbf" stroke="black" points="0,-211.5 0,-239.5 93,-239.5 93,-211.5 0,-211.5"/>
<text text-anchor="start" x="8" y="-228.3" font-family="Helvetica,sans-Serif" font-size="9.00">mexiface::explore::</text>
<text text-anchor="middle" x="46.5" y="-218.3" font-family="Helvetica,sans-Serif" font-size="9.00">analyze_full</text>
</g>
<!-- Node2 -->
<g id="node2" class="node"><title>Node2</title>
<g id="a_node2"><a xlink:href="namespacemexiface_1_1explore.html#a3b7a85eeb040efe041ae992581c3861b" target="_top" xlink:title="mexiface::explore::\lanalyze_double">
<polygon fill="white" stroke="black" points="129,-423.5 129,-451.5 222,-451.5 222,-423.5 129,-423.5"/>
<text text-anchor="start" x="137" y="-440.3" font-family="Helvetica,sans-Serif" font-size="9.00">mexiface::explore::</text>
<text text-anchor="middle" x="175.5" y="-430.3" font-family="Helvetica,sans-Serif" font-size="9.00">analyze_double</text>
</a>
</g>
</g>
<!-- Node1&#45;&gt;Node2 -->
<g id="edge1" class="edge"><title>Node1&#45;&gt;Node2</title>
<path fill="none" stroke="midnightblue" d="M50.1417,-239.655C57.1711,-273.782 79.2932,-361.67 129,-414.5 129.887,-415.443 130.821,-416.353 131.794,-417.231"/>
<polygon fill="midnightblue" stroke="midnightblue" points="129.791,-420.104 139.878,-423.347 134.015,-414.522 129.791,-420.104"/>
</g>
<!-- Node4 -->
<g id="node4" class="node"><title>Node4</title>
<g id="a_node4"><a xlink:href="namespacemexiface_1_1explore.html#a2c3a4139675fbbf8ca7ab0f92d6f11fd" target="_top" xlink:title="mexiface::explore::\lanalyze_int16">
<polygon fill="white" stroke="black" points="129,-376.5 129,-404.5 222,-404.5 222,-376.5 129,-376.5"/>
<text text-anchor="start" x="137" y="-393.3" font-family="Helvetica,sans-Serif" font-size="9.00">mexiface::explore::</text>
<text text-anchor="middle" x="175.5" y="-383.3" font-family="Helvetica,sans-Serif" font-size="9.00">analyze_int16</text>
</a>
</g>
</g>
<!-- Node1&#45;&gt;Node4 -->
<g id="edge3" class="edge"><title>Node1&#45;&gt;Node4</title>
<path fill="none" stroke="midnightblue" d="M52.4849,-239.776C62.8153,-267.572 88.9878,-329.554 129,-367.5 130.084,-368.528 131.222,-369.52 132.404,-370.477"/>
<polygon fill="midnightblue" stroke="midnightblue" points="130.498,-373.415 140.697,-376.282 134.512,-367.68 130.498,-373.415"/>
</g>
<!-- Node5 -->
<g id="node5" class="node"><title>Node5</title>
<g id="a_node5"><a xlink:href="namespacemexiface_1_1explore.html#ad8657b3604a735ef428823cdf0a72722" target="_top" xlink:title="mexiface::explore::\lanalyze_int32">
<polygon fill="white" stroke="black" points="129,-329.5 129,-357.5 222,-357.5 222,-329.5 129,-329.5"/>
<text text-anchor="start" x="137" y="-346.3" font-family="Helvetica,sans-Serif" font-size="9.00">mexiface::explore::</text>
<text text-anchor="middle" x="175.5" y="-336.3" font-family="Helvetica,sans-Serif" font-size="9.00">analyze_int32</text>
</a>
</g>
</g>
<!-- Node1&#45;&gt;Node5 -->
<g id="edge5" class="edge"><title>Node1&#45;&gt;Node5</title>
<path fill="none" stroke="midnightblue" d="M56.8759,-239.6C70.7389,-259.617 98.3878,-296.501 129,-320.5 130.567,-321.729 132.211,-322.919 133.904,-324.068"/>
<polygon fill="midnightblue" stroke="midnightblue" points="132.324,-327.205 142.676,-329.46 135.99,-321.242 132.324,-327.205"/>
</g>
<!-- Node6 -->
<g id="node6" class="node"><title>Node6</title>
<g id="a_node6"><a xlink:href="namespacemexiface_1_1explore.html#a7025633935ccc85550b308e70b0fc771" target="_top" xlink:title="mexiface::explore::\lanalyze_int64">
<polygon fill="white" stroke="black" points="129,-282.5 129,-310.5 222,-310.5 222,-282.5 129,-282.5"/>
<text text-anchor="start" x="137" y="-299.3" font-family="Helvetica,sans-Serif" font-size="9.00">mexiface::explore::</text>
<text text-anchor="middle" x="175.5" y="-289.3" font-family="Helvetica,sans-Serif" font-size="9.00">analyze_int64</text>
</a>
</g>
</g>
<!-- Node1&#45;&gt;Node6 -->
<g id="edge7" class="edge"><title>Node1&#45;&gt;Node6</title>
<path fill="none" stroke="midnightblue" d="M70.459,-239.555C86.6645,-249.344 108.971,-262.554 129,-273.5 131.549,-274.893 134.191,-276.306 136.862,-277.713"/>
<polygon fill="midnightblue" stroke="midnightblue" points="135.467,-280.931 145.956,-282.424 138.687,-274.716 135.467,-280.931"/>
</g>
<!-- Node7 -->
<g id="node7" class="node"><title>Node7</title>
<g id="a_node7"><a xlink:href="namespacemexiface_1_1explore.html#abbbd19941bd43d361d33e21fb0dadbae" target="_top" xlink:title="mexiface::explore::\lanalyze_int8">
<polygon fill="white" stroke="black" points="129,-235.5 129,-263.5 222,-263.5 222,-235.5 129,-235.5"/>
<text text-anchor="start" x="137" y="-252.3" font-family="Helvetica,sans-Serif" font-size="9.00">mexiface::explore::</text>
<text text-anchor="middle" x="175.5" y="-242.3" font-family="Helvetica,sans-Serif" font-size="9.00">analyze_int8</text>
</a>
</g>
</g>
<!-- Node1&#45;&gt;Node7 -->
<g id="edge9" class="edge"><title>Node1&#45;&gt;Node7</title>
<path fill="none" stroke="midnightblue" d="M93.3499,-234.165C101.623,-235.728 110.33,-237.373 118.846,-238.983"/>
<polygon fill="midnightblue" stroke="midnightblue" points="118.241,-242.43 128.717,-240.848 119.541,-235.552 118.241,-242.43"/>
</g>
<!-- Node8 -->
<g id="node8" class="node"><title>Node8</title>
<g id="a_node8"><a xlink:href="namespacemexiface_1_1explore.html#acaf0a238e5467e317ae037a966647626" target="_top" xlink:title="mexiface::explore::\lanalyze_single">
<polygon fill="white" stroke="black" points="129,-188.5 129,-216.5 222,-216.5 222,-188.5 129,-188.5"/>
<text text-anchor="start" x="137" y="-205.3" font-family="Helvetica,sans-Serif" font-size="9.00">mexiface::explore::</text>
<text text-anchor="middle" x="175.5" y="-195.3" font-family="Helvetica,sans-Serif" font-size="9.00">analyze_single</text>
</a>
</g>
</g>
<!-- Node1&#45;&gt;Node8 -->
<g id="edge11" class="edge"><title>Node1&#45;&gt;Node8</title>
<path fill="none" stroke="midnightblue" d="M93.3499,-217.196C101.623,-215.698 110.33,-214.121 118.846,-212.579"/>
<polygon fill="midnightblue" stroke="midnightblue" points="119.501,-216.017 128.717,-210.791 118.254,-209.129 119.501,-216.017"/>
</g>
<!-- Node9 -->
<g id="node9" class="node"><title>Node9</title>
<g id="a_node9"><a xlink:href="namespacemexiface_1_1explore.html#aa1951af918bc0b264d05f2db4fbec9e1" target="_top" xlink:title="mexiface::explore::\lanalyze_uint16">
<polygon fill="white" stroke="black" points="129,-141.5 129,-169.5 222,-169.5 222,-141.5 129,-141.5"/>
<text text-anchor="start" x="137" y="-158.3" font-family="Helvetica,sans-Serif" font-size="9.00">mexiface::explore::</text>
<text text-anchor="middle" x="175.5" y="-148.3" font-family="Helvetica,sans-Serif" font-size="9.00">analyze_uint16</text>
</a>
</g>
</g>
<!-- Node1&#45;&gt;Node9 -->
<g id="edge13" class="edge"><title>Node1&#45;&gt;Node9</title>
<path fill="none" stroke="midnightblue" d="M72.0069,-211.428C88.1354,-202.226 109.747,-190.008 129,-179.5 132.072,-177.823 135.27,-176.098 138.483,-174.377"/>
<polygon fill="midnightblue" stroke="midnightblue" points="140.301,-177.374 147.486,-169.587 137.013,-171.194 140.301,-177.374"/>
</g>
<!-- Node10 -->
<g id="node10" class="node"><title>Node10</title>
<g id="a_node10"><a xlink:href="namespacemexiface_1_1explore.html#aa0ebed3704023f9816e91293c9c08253" target="_top" xlink:title="mexiface::explore::\lanalyze_uint32">
<polygon fill="white" stroke="black" points="129,-94.5 129,-122.5 222,-122.5 222,-94.5 129,-94.5"/>
<text text-anchor="start" x="137" y="-111.3" font-family="Helvetica,sans-Serif" font-size="9.00">mexiface::explore::</text>
<text text-anchor="middle" x="175.5" y="-101.3" font-family="Helvetica,sans-Serif" font-size="9.00">analyze_uint32</text>
</a>
</g>
</g>
<!-- Node1&#45;&gt;Node10 -->
<g id="edge15" class="edge"><title>Node1&#45;&gt;Node10</title>
<path fill="none" stroke="midnightblue" d="M57.2343,-211.455C71.321,-191.891 99.0068,-156.179 129,-132.5 131.024,-130.902 133.17,-129.359 135.386,-127.879"/>
<polygon fill="midnightblue" stroke="midnightblue" points="137.462,-130.712 144.159,-122.501 133.804,-124.744 137.462,-130.712"/>
</g>
<!-- Node11 -->
<g id="node11" class="node"><title>Node11</title>
<g id="a_node11"><a xlink:href="namespacemexiface_1_1explore.html#abe63c53129e4d37e66af71c8f66d9ae6" target="_top" xlink:title="mexiface::explore::\lanalyze_uint64">
<polygon fill="white" stroke="black" points="129,-47.5 129,-75.5 222,-75.5 222,-47.5 129,-47.5"/>
<text text-anchor="start" x="137" y="-64.3" font-family="Helvetica,sans-Serif" font-size="9.00">mexiface::explore::</text>
<text text-anchor="middle" x="175.5" y="-54.3" font-family="Helvetica,sans-Serif" font-size="9.00">analyze_uint64</text>
</a>
</g>
</g>
<!-- Node1&#45;&gt;Node11 -->
<g id="edge17" class="edge"><title>Node1&#45;&gt;Node11</title>
<path fill="none" stroke="midnightblue" d="M52.5965,-211.488C63.1224,-184.192 89.6219,-123.265 129,-85.5 130.45,-84.1091 131.997,-82.7773 133.612,-81.505"/>
<polygon fill="midnightblue" stroke="midnightblue" points="135.877,-84.195 142.128,-75.6404 131.907,-78.43 135.877,-84.195"/>
</g>
<!-- Node12 -->
<g id="node12" class="node"><title>Node12</title>
<g id="a_node12"><a xlink:href="namespacemexiface_1_1explore.html#ae0e1687942c1e218a665eedeadc63456" target="_top" xlink:title="mexiface::explore::\lanalyze_uint8">
<polygon fill="white" stroke="black" points="129,-0.5 129,-28.5 222,-28.5 222,-0.5 129,-0.5"/>
<text text-anchor="start" x="137" y="-17.3" font-family="Helvetica,sans-Serif" font-size="9.00">mexiface::explore::</text>
<text text-anchor="middle" x="175.5" y="-7.3" font-family="Helvetica,sans-Serif" font-size="9.00">analyze_uint8</text>
</a>
</g>
</g>
<!-- Node1&#45;&gt;Node12 -->
<g id="edge19" class="edge"><title>Node1&#45;&gt;Node12</title>
<path fill="none" stroke="midnightblue" d="M50.2981,-211.299C57.6125,-177.476 80.2105,-91.0602 129,-38.5 130.211,-37.195 131.51,-35.9477 132.875,-34.757"/>
<polygon fill="midnightblue" stroke="midnightblue" points="135.312,-37.3083 141.273,-28.5494 131.151,-31.6793 135.312,-37.3083"/>
</g>
<!-- Node3 -->
<g id="node3" class="node"><title>Node3</title>
<g id="a_node3"><a xlink:href="namespacemexiface_1_1explore.html#ad41bff4081494e68399068077d57f1ea" target="_top" xlink:title="mexiface::explore::\ldisplay_subscript">
<polygon fill="white" stroke="black" points="258,-211.5 258,-239.5 351,-239.5 351,-211.5 258,-211.5"/>
<text text-anchor="start" x="266" y="-228.3" font-family="Helvetica,sans-Serif" font-size="9.00">mexiface::explore::</text>
<text text-anchor="middle" x="304.5" y="-218.3" font-family="Helvetica,sans-Serif" font-size="9.00">display_subscript</text>
</a>
</g>
</g>
<!-- Node2&#45;&gt;Node3 -->
<g id="edge2" class="edge"><title>Node2&#45;&gt;Node3</title>
<path fill="none" stroke="midnightblue" d="M211.122,-423.347C215.096,-420.791 218.846,-417.852 222,-414.5 267.435,-366.21 289.823,-288.629 298.704,-249.588"/>
<polygon fill="midnightblue" stroke="midnightblue" points="302.159,-250.17 300.858,-239.655 295.318,-248.686 302.159,-250.17"/>
</g>
<!-- Node4&#45;&gt;Node3 -->
<g id="edge4" class="edge"><title>Node4&#45;&gt;Node3</title>
<path fill="none" stroke="midnightblue" d="M210.303,-376.282C214.502,-373.714 218.532,-370.789 222,-367.5 257.948,-333.408 282.726,-279.915 294.879,-249.242"/>
<polygon fill="midnightblue" stroke="midnightblue" points="298.197,-250.366 298.515,-239.776 291.662,-247.856 298.197,-250.366"/>
</g>
<!-- Node5&#45;&gt;Node3 -->
<g id="edge6" class="edge"><title>Node5&#45;&gt;Node3</title>
<path fill="none" stroke="midnightblue" d="M208.324,-329.46C213.101,-326.781 217.821,-323.777 222,-320.5 248.786,-299.501 273.303,-268.637 288.3,-247.839"/>
<polygon fill="midnightblue" stroke="midnightblue" points="291.21,-249.786 294.124,-239.6 285.494,-245.746 291.21,-249.786"/>
</g>
<!-- Node6&#45;&gt;Node3 -->
<g id="edge8" class="edge"><title>Node6&#45;&gt;Node3</title>
<path fill="none" stroke="midnightblue" d="M205.044,-282.424C210.698,-279.537 216.563,-276.471 222,-273.5 238.587,-264.435 256.735,-253.818 271.687,-244.877"/>
<polygon fill="midnightblue" stroke="midnightblue" points="273.773,-247.706 280.541,-239.555 270.167,-241.707 273.773,-247.706"/>
</g>
<!-- Node7&#45;&gt;Node3 -->
<g id="edge10" class="edge"><title>Node7&#45;&gt;Node3</title>
<path fill="none" stroke="midnightblue" d="M222.35,-240.835C230.623,-239.272 239.33,-237.627 247.846,-236.017"/>
<polygon fill="midnightblue" stroke="midnightblue" points="248.541,-239.448 257.717,-234.152 247.241,-232.57 248.541,-239.448"/>
</g>
<!-- Node8&#45;&gt;Node3 -->
<g id="edge12" class="edge"><title>Node8&#45;&gt;Node3</title>
<path fill="none" stroke="midnightblue" d="M222.35,-210.804C230.623,-212.302 239.33,-213.879 247.846,-215.421"/>
<polygon fill="midnightblue" stroke="midnightblue" points="247.254,-218.871 257.717,-217.209 248.501,-211.983 247.254,-218.871"/>
</g>
<!-- Node9&#45;&gt;Node3 -->
<g id="edge14" class="edge"><title>Node9&#45;&gt;Node3</title>
<path fill="none" stroke="midnightblue" d="M203.514,-169.587C209.612,-172.812 216.042,-176.248 222,-179.5 237.944,-188.202 255.505,-198.077 270.231,-206.44"/>
<polygon fill="midnightblue" stroke="midnightblue" points="268.571,-209.522 278.993,-211.428 272.034,-203.439 268.571,-209.522"/>
</g>
<!-- Node10&#45;&gt;Node3 -->
<g id="edge16" class="edge"><title>Node10&#45;&gt;Node3</title>
<path fill="none" stroke="midnightblue" d="M206.841,-122.501C212.108,-125.483 217.374,-128.848 222,-132.5 248.127,-153.127 272.503,-182.884 287.664,-203.145"/>
<polygon fill="midnightblue" stroke="midnightblue" points="285.026,-205.466 293.766,-211.455 290.669,-201.323 285.026,-205.466"/>
</g>
<!-- Node11&#45;&gt;Node3 -->
<g id="edge18" class="edge"><title>Node11&#45;&gt;Node3</title>
<path fill="none" stroke="midnightblue" d="M208.872,-75.6404C213.579,-78.5022 218.133,-81.791 222,-85.5 257.379,-119.43 282.362,-172.055 294.705,-202.19"/>
<polygon fill="midnightblue" stroke="midnightblue" points="291.455,-203.489 298.404,-211.488 297.96,-200.902 291.455,-203.489"/>
</g>
<!-- Node12&#45;&gt;Node3 -->
<g id="edge20" class="edge"><title>Node12&#45;&gt;Node3</title>
<path fill="none" stroke="midnightblue" d="M209.727,-28.5494C214.213,-31.3955 218.476,-34.7036 222,-38.5 266.597,-86.5433 289.31,-162.873 298.471,-201.468"/>
<polygon fill="midnightblue" stroke="midnightblue" points="295.075,-202.322 300.702,-211.299 301.902,-200.772 295.075,-202.322"/>
</g>
</g>
</svg>
        <g id="navigator" transform="translate(0 0)" fill="#404254">
                <rect fill="#f2f5e9" fill-opacity="0.5" stroke="#606060" stroke-width=".5" x="0" y="0" width="60" height="60"/>
                <use id="zoomplus" xlink:href="#zoomPlus" x="17" y="9" onmousedown="handleZoom(evt,'in')"/>
                <use id="zoomminus" xlink:href="#zoomMin" x="42" y="9" onmousedown="handleZoom(evt,'out')"/>
                <use id="reset" xlink:href="#resetDef" x="30" y="36" onmousedown="handleReset()"/>
                <g id="arrowUp" xlink:href="#dirArrow" transform="translate(30 24)" onmousedown="handlePan(0,-1)">
                  <use xlink:href="#rim" fill="#404040">
                        <set attributeName="fill" to="#808080" begin="arrowUp.mouseover" end="arrowUp.mouseout"/>
                  </use>
                  <path fill="none" stroke="white" stroke-width="1.5" d="M0,-3.0v7 M-2.5,-0.5L0,-3.0L2.5,-0.5"/>
                </g>
                <g id="arrowRight" xlink:href="#dirArrow" transform="rotate(90) translate(36 -43)" onmousedown="handlePan(1,0)">
                  <use xlink:href="#rim" fill="#404040">
                        <set attributeName="fill" to="#808080" begin="arrowRight.mouseover" end="arrowRight.mouseout"/>
                  </use>
                  <path fill="none" stroke="white" stroke-width="1.5" d="M0,-3.0v7 M-2.5,-0.5L0,-3.0L2.5,-0.5"/>
                </g>
                <g id="arrowDown" xlink:href="#dirArrow" transform="rotate(180) translate(-30 -48)" onmousedown="handlePan(0,1)">
                  <use xlink:href="#rim" fill="#404040">
                        <set attributeName="fill" to="#808080" begin="arrowDown.mouseover" end="arrowDown.mouseout"/>
                  </use>
                  <path fill="none" stroke="white" stroke-width="1.5" d="M0,-3.0v7 M-2.5,-0.5L0,-3.0L2.5,-0.5"/>
                </g>
                <g id="arrowLeft" xlink:href="#dirArrow" transform="rotate(270) translate(-36 17)" onmousedown="handlePan(-1,0)">
                  <use xlink:href="#rim" fill="#404040">
                        <set attributeName="fill" to="#808080" begin="arrowLeft.mouseover" end="arrowLeft.mouseout"/>
                  </use>
                  <path fill="none" stroke="white" stroke-width="1.5" d="M0,-3.0v7 M-2.5,-0.5L0,-3.0L2.5,-0.5"/>
                </g>
        </g>
        <svg viewBox="0 0 15 15" width="100%" height="30px" preserveAspectRatio="xMaxYMin meet">
         <g id="arrow_out" transform="scale(0.3 0.3)">
          <a xlink:href="namespacemexiface_1_1explore_aad11efd374cd1c241da644051e4d3479_cgraph_org.svg" target="_base">
           <rect id="button" ry="5" rx="5" y="6" x="6" height="38" width="38"
                fill="#f2f5e9" fill-opacity="0.5" stroke="#606060" stroke-width="1.0"/>
           <path id="arrow"
             d="M 11.500037,31.436501 C 11.940474,20.09759 22.043105,11.32322 32.158766,21.979434 L 37.068811,17.246167 C 37.068811,17.246167 37.088388,32 37.088388,32 L 22.160133,31.978069 C 22.160133,31.978069 26.997745,27.140456 26.997745,27.140456 C 18.528582,18.264221 13.291696,25.230495 11.500037,31.436501 z"
             style="fill:#404040;"/>
          </a>
         </g>
        </svg>
</svg>
