<?xml version="1.0" encoding="UTF-8" standalone="no"?>
<!DOCTYPE svg PUBLIC "-//W3C//DTD SVG 1.1//EN"
 "http://www.w3.org/Graphics/SVG/1.1/DTD/svg11.dtd">
<!-- Generated by graphviz version 2.38.0 (20140413.2041)
 -->
<!-- Title: mexiface::explore::analyze_class Pages: 1 -->
<svg width="412pt" height="147pt"
 viewBox="0.00 0.00 412.00 147.00" xmlns="http://www.w3.org/2000/svg" xmlns:xlink="http://www.w3.org/1999/xlink">
<g id="graph0" class="graph" transform="scale(1 1) rotate(0) translate(4 143)">
<title>mexiface::explore::analyze_class</title>
<polygon fill="white" stroke="none" points="-4,4 -4,-143 408,-143 408,4 -4,4"/>
<!-- Node1 -->
<g id="node1" class="node"><title>Node1</title>
<polygon fill="#bfbfbf" stroke="black" points="0,-63.5 0,-91.5 93,-91.5 93,-63.5 0,-63.5"/>
<text text-anchor="start" x="8" y="-80.3" font-family="Helvetica,sans-Serif" font-size="9.00">mexiface::explore::</text>
<text text-anchor="middle" x="46.5" y="-70.3" font-family="Helvetica,sans-Serif" font-size="9.00">analyze_class</text>
</g>
<!-- Node2 -->
<g id="node2" class="node"><title>Node2</title>
<g id="a_node2"><a xlink:href="namespacemexiface_1_1explore.html#a2fd795aab0989018a48cfce5b8f63719" target="_top" xlink:title="mexiface::explore::\lanalyze_cell">
<polygon fill="white" stroke="black" points="145,-110.5 145,-138.5 238,-138.5 238,-110.5 145,-110.5"/>
<text text-anchor="start" x="153" y="-127.3" font-family="Helvetica,sans-Serif" font-size="9.00">mexiface::explore::</text>
<text text-anchor="middle" x="191.5" y="-117.3" font-family="Helvetica,sans-Serif" font-size="9.00">analyze_cell</text>
</a>
</g>
</g>
<!-- Node1&#45;&gt;Node2 -->
<g id="edge1" class="edge"><title>Node1&#45;&gt;Node2</title>
<path fill="none" stroke="midnightblue" d="M102.936,-89.1239C123.928,-95.6155 146.869,-103.56 164.002,-110.408"/>
<polygon fill="midnightblue" stroke="midnightblue" points="103.724,-85.7059 93.1393,-86.1591 101.697,-92.4058 103.724,-85.7059"/>
</g>
<!-- Node3 -->
<g id="node3" class="node"><title>Node3</title>
<g id="a_node3"><a xlink:href="namespacemexiface_1_1explore.html#a6205a96e991f64a98345df5645dd0ba5" target="_top" xlink:title="mexiface::explore::\lanalyze_structure">
<polygon fill="white" stroke="black" points="145,-63.5 145,-91.5 238,-91.5 238,-63.5 145,-63.5"/>
<text text-anchor="start" x="153" y="-80.3" font-family="Helvetica,sans-Serif" font-size="9.00">mexiface::explore::</text>
<text text-anchor="middle" x="191.5" y="-70.3" font-family="Helvetica,sans-Serif" font-size="9.00">analyze_structure</text>
</a>
</g>
</g>
<!-- Node1&#45;&gt;Node3 -->
<g id="edge3" class="edge"><title>Node1&#45;&gt;Node3</title>
<path fill="none" stroke="midnightblue" d="M103.428,-70.8943C117.134,-70.6365 131.643,-70.7241 144.804,-71.1569"/>
<polygon fill="midnightblue" stroke="midnightblue" points="103.046,-67.4029 93.1393,-71.1588 103.226,-74.4006 103.046,-67.4029"/>
</g>
<!-- Node4 -->
<g id="node4" class="node"><title>Node4</title>
<g id="a_node4"><a xlink:href="namespacemexiface.html#ae54146cf35d29dcc6c83a8ca96b62549" target="_top" xlink:title="Given the arguments to a matlab mex function call, print out the details of each arguments. ">
<polygon fill="white" stroke="black" points="129,-26.5 129,-44.5 254,-44.5 254,-26.5 129,-26.5"/>
<text text-anchor="middle" x="191.5" y="-33.3" font-family="Helvetica,sans-Serif" font-size="9.00">mexiface::exploreMexArgs</text>
</a>
</g>
</g>
<!-- Node1&#45;&gt;Node4 -->
<g id="edge5" class="edge"><title>Node1&#45;&gt;Node4</title>
<path fill="none" stroke="midnightblue" d="M102.768,-61.2673C122.107,-55.5875 143.118,-49.4165 159.728,-44.5379"/>
<polygon fill="midnightblue" stroke="midnightblue" points="101.748,-57.9192 93.1393,-64.0955 103.72,-64.6355 101.748,-57.9192"/>
</g>
<!-- Node2&#45;&gt;Node1 -->
<g id="edge2" class="edge"><title>Node2&#45;&gt;Node1</title>
<path fill="none" stroke="midnightblue" d="M135.165,-112.907C114.171,-106.418 91.2151,-98.4709 74.0621,-91.6181"/>
<polygon fill="midnightblue" stroke="midnightblue" points="134.376,-116.325 144.961,-115.87 136.402,-109.625 134.376,-116.325"/>
</g>
<!-- Node3&#45;&gt;Node1 -->
<g id="edge4" class="edge"><title>Node3&#45;&gt;Node1</title>
<path fill="none" stroke="midnightblue" d="M134.512,-84.1068C120.804,-84.3636 106.297,-84.2751 93.1393,-83.8412"/>
<polygon fill="midnightblue" stroke="midnightblue" points="134.897,-87.5982 144.804,-83.8431 134.717,-80.6005 134.897,-87.5982"/>
</g>
<!-- Node5 -->
<g id="node5" class="node"><title>Node5</title>
<g id="a_node5"><a xlink:href="namespacemexiface.html#a54c9b82ac7205b64d9725bd8115614a4" target="_top" xlink:title="Templated function to returns the matlab mxClassID for given C++ data type. ">
<polygon fill="white" stroke="black" points="290,-47.5 290,-65.5 404,-65.5 404,-47.5 290,-47.5"/>
<text text-anchor="middle" x="347" y="-54.3" font-family="Helvetica,sans-Serif" font-size="9.00">mexiface::get_mx_class</text>
</a>
</g>
</g>
<!-- Node4&#45;&gt;Node5 -->
<g id="edge6" class="edge"><title>Node4&#45;&gt;Node5</title>
<path fill="none" stroke="midnightblue" d="M264.136,-45.3004C272.785,-46.4836 281.52,-47.6787 289.901,-48.8252"/>
<polygon fill="midnightblue" stroke="midnightblue" points="264.432,-41.8083 254.05,-43.9205 263.483,-48.7437 264.432,-41.8083"/>
</g>
<!-- Node6 -->
<g id="node6" class="node"><title>Node6</title>
<g id="a_node6"><a xlink:href="classmexiface_1_1MexIFace.html#a17f0280024d7cdd318b13223174b6151" target="_top" xlink:title="The mexFunction that will be exposed as the entry point for the .mex file. ">
<polygon fill="white" stroke="black" points="298,-0.5 298,-28.5 396,-28.5 396,-0.5 298,-0.5"/>
<text text-anchor="start" x="306" y="-17.3" font-family="Helvetica,sans-Serif" font-size="9.00">mexiface::MexIFace</text>
<text text-anchor="middle" x="347" y="-7.3" font-family="Helvetica,sans-Serif" font-size="9.00">::mexFunction</text>
</a>
</g>
</g>
<!-- Node4&#45;&gt;Node6 -->
<g id="edge7" class="edge"><title>Node4&#45;&gt;Node6</title>
<path fill="none" stroke="midnightblue" d="M264.005,-25.7176C275.408,-24.1576 286.966,-22.5764 297.665,-21.1126"/>
<polygon fill="midnightblue" stroke="midnightblue" points="263.483,-22.2563 254.05,-27.0795 264.432,-29.1917 263.483,-22.2563"/>
</g>
</g>
</svg>
