<?xml version="1.0" encoding="UTF-8" standalone="no"?>
<!DOCTYPE svg PUBLIC "-//W3C//DTD SVG 1.1//EN"
 "http://www.w3.org/Graphics/SVG/1.1/DTD/svg11.dtd">
<!-- Generated by graphviz version 2.36.0 (20140111.2315)
 -->
<!-- Title: mexiface::explore::get_characteristics Pages: 1 -->
<!--zoomable 92 -->
<svg id="main" version="1.1" xmlns="http://www.w3.org/2000/svg" xmlns:xlink="http://www.w3.org/1999/xlink" xml:space="preserve" onload="init(evt)">
<style type="text/css"><![CDATA[
.edge:hover path { stroke: red; }
.edge:hover polygon { stroke: red; fill: red; }
]]></style>
<script type="text/javascript"><![CDATA[
var edges = document.getElementsByTagName('g');
if (edges && edges.length) {
  for (var i=0;i<edges.length;i++) {
    if (edges[i].id.substr(0,4)=='edge') {
      edges[i].setAttribute('class','edge');
    }
  }
}
]]></script>
        <defs>
                <circle id="rim" cx="0" cy="0" r="7"/>
                <circle id="rim2" cx="0" cy="0" r="3.5"/>
                <g id="zoomPlus">
                        <use xlink:href="#rim" fill="#404040">
                                <set attributeName="fill" to="#808080" begin="zoomplus.mouseover" end="zoomplus.mouseout"/>
                        </use>
                        <path d="M-4,0h8M0,-4v8" fill="none" stroke="white" stroke-width="1.5" pointer-events="none"/>
                </g>
                <g id="zoomMin">
                        <use xlink:href="#rim" fill="#404040">
                                <set attributeName="fill" to="#808080" begin="zoomminus.mouseover" end="zoomminus.mouseout"/>
                        </use>
                        <path d="M-4,0h8" fill="none" stroke="white" stroke-width="1.5" pointer-events="none"/>
                </g>
                <g id="dirArrow">
                        <path fill="none" stroke="white" stroke-width="1.5" d="M0,-3.0v7 M-2.5,-0.5L0,-3.0L2.5,-0.5"/>
                </g>
               <g id="resetDef">
                       <use xlink:href="#rim2" fill="#404040">
                               <set attributeName="fill" to="#808080" begin="reset.mouseover" end="reset.mouseout"/>
                       </use>
               </g>
        </defs>

<script type="text/javascript">
var viewWidth = 524;
var viewHeight = 92;
var sectionId = 'dynsection-34';
</script>
<script xlink:href="svgpan.js"/>
<svg id="graph" class="graph">
<g id="viewport">
<title>mexiface::explore::get_characteristics</title>
<polygon fill="white" stroke="none" points="-4,4 -4,-87.5148 520,-87.5148 520,4 -4,4"/>
<!-- Node1 -->
<g id="node1" class="node"><title>Node1</title>
<polygon fill="#bfbfbf" stroke="black" points="0.5,-37 0.5,-65 93.5,-65 93.5,-37 0.5,-37"/>
<text text-anchor="start" x="8.5" y="-53.8" font-family="Helvetica,sans-Serif" font-size="9.00">mexiface::explore::</text>
<text text-anchor="middle" x="47" y="-43.8" font-family="Helvetica,sans-Serif" font-size="9.00">get_characteristics</text>
</g>
<!-- Node2 -->
<g id="node2" class="node"><title>Node2</title>
<g id="a_node2"><a xlink:href="namespacemexiface_1_1explore.html#a2fd795aab0989018a48cfce5b8f63719" target="_top" xlink:title="mexiface::explore::\lanalyze_cell">
<polygon fill="white" stroke="black" points="130.5,-37 130.5,-65 223.5,-65 223.5,-37 130.5,-37"/>
<text text-anchor="start" x="138.5" y="-53.8" font-family="Helvetica,sans-Serif" font-size="9.00">mexiface::explore::</text>
<text text-anchor="middle" x="177" y="-43.8" font-family="Helvetica,sans-Serif" font-size="9.00">analyze_cell</text>
</a>
</g>
</g>
<!-- Node1&#45;&gt;Node2 -->
<g id="edge1" class="edge"><title>Node1&#45;&gt;Node2</title>
<path fill="none" stroke="midnightblue" d="M104.073,-51C112.896,-51 121.924,-51 130.471,-51"/>
<polygon fill="midnightblue" stroke="midnightblue" points="103.849,-47.5001 93.8494,-51 103.849,-54.5001 103.849,-47.5001"/>
</g>
<!-- Node4 -->
<g id="node4" class="node"><title>Node4</title>
<g id="a_node4"><a xlink:href="namespacemexiface_1_1explore.html#a6205a96e991f64a98345df5645dd0ba5" target="_top" xlink:title="mexiface::explore::\lanalyze_structure">
<polygon fill="white" stroke="black" points="406.5,-37 406.5,-65 499.5,-65 499.5,-37 406.5,-37"/>
<text text-anchor="start" x="414.5" y="-53.8" font-family="Helvetica,sans-Serif" font-size="9.00">mexiface::explore::</text>
<text text-anchor="middle" x="453" y="-43.8" font-family="Helvetica,sans-Serif" font-size="9.00">analyze_structure</text>
</a>
</g>
</g>
<!-- Node1&#45;&gt;Node4 -->
<g id="edge7" class="edge"><title>Node1&#45;&gt;Node4</title>
<path fill="none" stroke="midnightblue" d="M99.4916,-67.7479C109.508,-70.3477 120.003,-72.6245 130,-74 228.626,-87.5699 255.105,-85.4495 354,-74 371.187,-72.0102 389.737,-68.1197 406.025,-64.0962"/>
<polygon fill="midnightblue" stroke="midnightblue" points="100.24,-64.324 89.6705,-65.0619 98.3929,-71.076 100.24,-64.324"/>
</g>
<!-- Node5 -->
<g id="node5" class="node"><title>Node5</title>
<g id="a_node5"><a xlink:href="namespacemexiface.html#ae54146cf35d29dcc6c83a8ca96b62549" target="_top" xlink:title="Given the arguments to a matlab mex function call, print out the details of each arguments. ">
<polygon fill="white" stroke="black" points="390.5,-0 390.5,-18 515.5,-18 515.5,-0 390.5,-0"/>
<text text-anchor="middle" x="453" y="-6.8" font-family="Helvetica,sans-Serif" font-size="9.00">mexiface::exploreMexArgs</text>
</a>
</g>
</g>
<!-- Node1&#45;&gt;Node5 -->
<g id="edge8" class="edge"><title>Node1&#45;&gt;Node5</title>
<path fill="none" stroke="midnightblue" d="M99.1933,-34.0672C109.307,-31.2775 119.913,-28.7345 130,-27 219.668,-11.5815 325.242,-8.48454 390.4,-8.27912"/>
<polygon fill="midnightblue" stroke="midnightblue" points="97.9247,-30.7901 89.282,-36.9183 99.8599,-37.5173 97.9247,-30.7901"/>
</g>
<!-- Node3 -->
<g id="node3" class="node"><title>Node3</title>
<g id="a_node3"><a xlink:href="namespacemexiface_1_1explore.html#a5a5c7c4c0ce2b61c1fe8f55cd7a685c8" target="_top" xlink:title="mexiface::explore::\lanalyze_class">
<polygon fill="white" stroke="black" points="260.5,-37 260.5,-65 353.5,-65 353.5,-37 260.5,-37"/>
<text text-anchor="start" x="268.5" y="-53.8" font-family="Helvetica,sans-Serif" font-size="9.00">mexiface::explore::</text>
<text text-anchor="middle" x="307" y="-43.8" font-family="Helvetica,sans-Serif" font-size="9.00">analyze_class</text>
</a>
</g>
</g>
<!-- Node2&#45;&gt;Node3 -->
<g id="edge2" class="edge"><title>Node2&#45;&gt;Node3</title>
<path fill="none" stroke="midnightblue" d="M234.073,-44.2962C242.896,-44.1928 251.924,-44.2629 260.471,-44.5063"/>
<polygon fill="midnightblue" stroke="midnightblue" points="233.779,-40.8012 223.849,-44.4973 233.916,-47.7999 233.779,-40.8012"/>
</g>
<!-- Node3&#45;&gt;Node2 -->
<g id="edge3" class="edge"><title>Node3&#45;&gt;Node2</title>
<path fill="none" stroke="midnightblue" d="M250.258,-57.6998C241.439,-57.8075 232.408,-57.7418 223.849,-57.5027"/>
<polygon fill="midnightblue" stroke="midnightblue" points="250.543,-61.1948 260.471,-57.4937 250.402,-54.1963 250.543,-61.1948"/>
</g>
<!-- Node3&#45;&gt;Node4 -->
<g id="edge4" class="edge"><title>Node3&#45;&gt;Node4</title>
<path fill="none" stroke="midnightblue" d="M363.634,-44.4074C377.725,-44.132 392.7,-44.218 406.24,-44.6653"/>
<polygon fill="midnightblue" stroke="midnightblue" points="363.467,-40.9105 353.562,-44.6719 363.651,-47.9081 363.467,-40.9105"/>
</g>
<!-- Node3&#45;&gt;Node5 -->
<g id="edge6" class="edge"><title>Node3&#45;&gt;Node5</title>
<path fill="none" stroke="midnightblue" d="M363.151,-34.8403C372.125,-32.2162 381.32,-29.5303 390,-27 400.007,-24.0829 410.926,-20.9097 420.773,-18.0515"/>
<polygon fill="midnightblue" stroke="midnightblue" points="362.152,-31.4859 353.537,-37.653 364.117,-38.2043 362.152,-31.4859"/>
</g>
<!-- Node4&#45;&gt;Node3 -->
<g id="edge5" class="edge"><title>Node4&#45;&gt;Node3</title>
<path fill="none" stroke="midnightblue" d="M396.16,-57.5966C382.06,-57.8685 367.089,-57.779 353.562,-57.3281"/>
<polygon fill="midnightblue" stroke="midnightblue" points="396.334,-61.0933 406.24,-57.3347 396.152,-54.0957 396.334,-61.0933"/>
</g>
</g>
</svg>
        <g id="navigator" transform="translate(0 0)" fill="#404254">
                <rect fill="#f2f5e9" fill-opacity="0.5" stroke="#606060" stroke-width=".5" x="0" y="0" width="60" height="60"/>
                <use id="zoomplus" xlink:href="#zoomPlus" x="17" y="9" onmousedown="handleZoom(evt,'in')"/>
                <use id="zoomminus" xlink:href="#zoomMin" x="42" y="9" onmousedown="handleZoom(evt,'out')"/>
                <use id="reset" xlink:href="#resetDef" x="30" y="36" onmousedown="handleReset()"/>
                <g id="arrowUp" xlink:href="#dirArrow" transform="translate(30 24)" onmousedown="handlePan(0,-1)">
                  <use xlink:href="#rim" fill="#404040">
                        <set attributeName="fill" to="#808080" begin="arrowUp.mouseover" end="arrowUp.mouseout"/>
                  </use>
                  <path fill="none" stroke="white" stroke-width="1.5" d="M0,-3.0v7 M-2.5,-0.5L0,-3.0L2.5,-0.5"/>
                </g>
                <g id="arrowRight" xlink:href="#dirArrow" transform="rotate(90) translate(36 -43)" onmousedown="handlePan(1,0)">
                  <use xlink:href="#rim" fill="#404040">
                        <set attributeName="fill" to="#808080" begin="arrowRight.mouseover" end="arrowRight.mouseout"/>
                  </use>
                  <path fill="none" stroke="white" stroke-width="1.5" d="M0,-3.0v7 M-2.5,-0.5L0,-3.0L2.5,-0.5"/>
                </g>
                <g id="arrowDown" xlink:href="#dirArrow" transform="rotate(180) translate(-30 -48)" onmousedown="handlePan(0,1)">
                  <use xlink:href="#rim" fill="#404040">
                        <set attributeName="fill" to="#808080" begin="arrowDown.mouseover" end="arrowDown.mouseout"/>
                  </use>
                  <path fill="none" stroke="white" stroke-width="1.5" d="M0,-3.0v7 M-2.5,-0.5L0,-3.0L2.5,-0.5"/>
                </g>
                <g id="arrowLeft" xlink:href="#dirArrow" transform="rotate(270) translate(-36 17)" onmousedown="handlePan(-1,0)">
                  <use xlink:href="#rim" fill="#404040">
                        <set attributeName="fill" to="#808080" begin="arrowLeft.mouseover" end="arrowLeft.mouseout"/>
                  </use>
                  <path fill="none" stroke="white" stroke-width="1.5" d="M0,-3.0v7 M-2.5,-0.5L0,-3.0L2.5,-0.5"/>
                </g>
        </g>
        <svg viewBox="0 0 15 15" width="100%" height="30px" preserveAspectRatio="xMaxYMin meet">
         <g id="arrow_out" transform="scale(0.3 0.3)">
          <a xlink:href="namespacemexiface_1_1explore_af20e073842721a53872d786a38f401fe_icgraph_org.svg" target="_base">
           <rect id="button" ry="5" rx="5" y="6" x="6" height="38" width="38"
                fill="#f2f5e9" fill-opacity="0.5" stroke="#606060" stroke-width="1.0"/>
           <path id="arrow"
             d="M 11.500037,31.436501 C 11.940474,20.09759 22.043105,11.32322 32.158766,21.979434 L 37.068811,17.246167 C 37.068811,17.246167 37.088388,32 37.088388,32 L 22.160133,31.978069 C 22.160133,31.978069 26.997745,27.140456 26.997745,27.140456 C 18.528582,18.264221 13.291696,25.230495 11.500037,31.436501 z"
             style="fill:#404040;"/>
          </a>
         </g>
        </svg>
</svg>
