<?xml version="1.0" encoding="UTF-8" standalone="no"?>
<!DOCTYPE svg PUBLIC "-//W3C//DTD SVG 1.1//EN"
 "http://www.w3.org/Graphics/SVG/1.1/DTD/svg11.dtd">
<!-- Generated by graphviz version 2.38.0 (20140413.2041)
 -->
<!-- Title: mexiface::explore::analyze_structure Pages: 1 -->
<!--zoomable 632 -->
<svg id="main" version="1.1" xmlns="http://www.w3.org/2000/svg" xmlns:xlink="http://www.w3.org/1999/xlink" xml:space="preserve" onload="init(evt)">
<style type="text/css"><![CDATA[
.edge:hover path { stroke: red; }
.edge:hover polygon { stroke: red; fill: red; }
]]></style>
<script type="text/javascript"><![CDATA[
var edges = document.getElementsByTagName('g');
if (edges && edges.length) {
  for (var i=0;i<edges.length;i++) {
    if (edges[i].id.substr(0,4)=='edge') {
      edges[i].setAttribute('class','edge');
    }
  }
}
]]></script>
        <defs>
                <circle id="rim" cx="0" cy="0" r="7"/>
                <circle id="rim2" cx="0" cy="0" r="3.5"/>
                <g id="zoomPlus">
                        <use xlink:href="#rim" fill="#404040">
                                <set attributeName="fill" to="#808080" begin="zoomplus.mouseover" end="zoomplus.mouseout"/>
                        </use>
                        <path d="M-4,0h8M0,-4v8" fill="none" stroke="white" stroke-width="1.5" pointer-events="none"/>
                </g>
                <g id="zoomMin">
                        <use xlink:href="#rim" fill="#404040">
                                <set attributeName="fill" to="#808080" begin="zoomminus.mouseover" end="zoomminus.mouseout"/>
                        </use>
                        <path d="M-4,0h8" fill="none" stroke="white" stroke-width="1.5" pointer-events="none"/>
                </g>
                <g id="dirArrow">
                        <path fill="none" stroke="white" stroke-width="1.5" d="M0,-3.0v7 M-2.5,-0.5L0,-3.0L2.5,-0.5"/>
                </g>
               <g id="resetDef">
                       <use xlink:href="#rim2" fill="#404040">
                               <set attributeName="fill" to="#808080" begin="reset.mouseover" end="reset.mouseout"/>
                       </use>
               </g>
        </defs>

<script type="text/javascript">
var viewWidth = 617;
var viewHeight = 632;
var sectionId = 'dynsection-23';
</script>
<script xlink:href="svgpan.js"/>
<svg id="graph" class="graph">
<g id="viewport">
<title>mexiface::explore::analyze_structure</title>
<polygon fill="white" stroke="none" points="-4,4 -4,-628.127 613,-628.127 613,4 -4,4"/>
<!-- Node1 -->
<g id="node1" class="node"><title>Node1</title>
<polygon fill="#bfbfbf" stroke="black" points="0,-256.5 0,-284.5 93,-284.5 93,-256.5 0,-256.5"/>
<text text-anchor="start" x="8" y="-273.3" font-family="Helvetica,sans-Serif" font-size="9.00">mexiface::explore::</text>
<text text-anchor="middle" x="46.5" y="-263.3" font-family="Helvetica,sans-Serif" font-size="9.00">analyze_structure</text>
</g>
<!-- Node2 -->
<g id="node2" class="node"><title>Node2</title>
<g id="a_node2"><a xlink:href="namespacemexiface_1_1explore.html#a5a5c7c4c0ce2b61c1fe8f55cd7a685c8" target="_top" xlink:title="mexiface::explore::\lanalyze_class">
<polygon fill="white" stroke="black" points="129,-256.5 129,-284.5 222,-284.5 222,-256.5 129,-256.5"/>
<text text-anchor="start" x="137" y="-273.3" font-family="Helvetica,sans-Serif" font-size="9.00">mexiface::explore::</text>
<text text-anchor="middle" x="175.5" y="-263.3" font-family="Helvetica,sans-Serif" font-size="9.00">analyze_class</text>
</a>
</g>
</g>
<!-- Node1&#45;&gt;Node2 -->
<g id="edge1" class="edge"><title>Node1&#45;&gt;Node2</title>
<path fill="none" stroke="midnightblue" d="M93.3499,-263.987C101.533,-263.762 110.141,-263.697 118.568,-263.793"/>
<polygon fill="midnightblue" stroke="midnightblue" points="118.652,-267.295 128.717,-263.989 118.787,-260.296 118.652,-267.295"/>
</g>
<!-- Node4 -->
<g id="node4" class="node"><title>Node4</title>
<g id="a_node4"><a xlink:href="namespacemexiface_1_1explore.html#ad41bff4081494e68399068077d57f1ea" target="_top" xlink:title="mexiface::explore::\ldisplay_subscript">
<polygon fill="white" stroke="black" points="516,-335.5 516,-363.5 609,-363.5 609,-335.5 516,-335.5"/>
<text text-anchor="start" x="524" y="-352.3" font-family="Helvetica,sans-Serif" font-size="9.00">mexiface::explore::</text>
<text text-anchor="middle" x="562.5" y="-342.3" font-family="Helvetica,sans-Serif" font-size="9.00">display_subscript</text>
</a>
</g>
</g>
<!-- Node1&#45;&gt;Node4 -->
<g id="edge33" class="edge"><title>Node1&#45;&gt;Node4</title>
<path fill="none" stroke="midnightblue" d="M55.7194,-284.529C88.704,-339.237 217.874,-538.665 387,-608.5 425.205,-624.275 446.674,-632.95 480,-608.5 555.756,-552.92 562.952,-426.878 562.424,-373.792"/>
<polygon fill="midnightblue" stroke="midnightblue" points="565.92,-373.549 562.216,-363.622 558.922,-373.692 565.92,-373.549"/>
</g>
<!-- Node5 -->
<g id="node5" class="node"><title>Node5</title>
<g id="a_node5"><a xlink:href="namespacemexiface_1_1explore.html#af20e073842721a53872d786a38f401fe" target="_top" xlink:title="mexiface::explore::\lget_characteristics">
<polygon fill="white" stroke="black" points="387,-0.5 387,-28.5 480,-28.5 480,-0.5 387,-0.5"/>
<text text-anchor="start" x="395" y="-17.3" font-family="Helvetica,sans-Serif" font-size="9.00">mexiface::explore::</text>
<text text-anchor="middle" x="433.5" y="-7.3" font-family="Helvetica,sans-Serif" font-size="9.00">get_characteristics</text>
</a>
</g>
</g>
<!-- Node1&#45;&gt;Node5 -->
<g id="edge34" class="edge"><title>Node1&#45;&gt;Node5</title>
<path fill="none" stroke="midnightblue" d="M68.7477,-256.372C133.43,-213.362 328.06,-83.9461 402.813,-34.2401"/>
<polygon fill="midnightblue" stroke="midnightblue" points="404.929,-37.0362 411.318,-28.5847 401.053,-31.2072 404.929,-37.0362"/>
</g>
<!-- Node2&#45;&gt;Node1 -->
<g id="edge32" class="edge"><title>Node2&#45;&gt;Node1</title>
<path fill="none" stroke="midnightblue" d="M128.717,-277.011C120.537,-277.237 111.93,-277.303 103.501,-277.208"/>
<polygon fill="midnightblue" stroke="midnightblue" points="103.415,-273.706 93.3499,-277.013 103.281,-280.704 103.415,-273.706"/>
</g>
<!-- Node3 -->
<g id="node3" class="node"><title>Node3</title>
<g id="a_node3"><a xlink:href="namespacemexiface_1_1explore.html#a2fd795aab0989018a48cfce5b8f63719" target="_top" xlink:title="mexiface::explore::\lanalyze_cell">
<polygon fill="white" stroke="black" points="258,-146.5 258,-174.5 351,-174.5 351,-146.5 258,-146.5"/>
<text text-anchor="start" x="266" y="-163.3" font-family="Helvetica,sans-Serif" font-size="9.00">mexiface::explore::</text>
<text text-anchor="middle" x="304.5" y="-153.3" font-family="Helvetica,sans-Serif" font-size="9.00">analyze_cell</text>
</a>
</g>
</g>
<!-- Node2&#45;&gt;Node3 -->
<g id="edge2" class="edge"><title>Node2&#45;&gt;Node3</title>
<path fill="none" stroke="midnightblue" d="M188.22,-256.235C207.364,-236.872 245.934,-202.884 273.176,-180.911"/>
<polygon fill="midnightblue" stroke="midnightblue" points="275.583,-183.47 281.233,-174.507 271.227,-177.99 275.583,-183.47"/>
</g>
<!-- Node6 -->
<g id="node6" class="node"><title>Node6</title>
<g id="a_node6"><a xlink:href="namespacemexiface_1_1explore.html#aad11efd374cd1c241da644051e4d3479" target="_top" xlink:title="mexiface::explore::\lanalyze_full">
<polygon fill="white" stroke="black" points="258,-288.5 258,-316.5 351,-316.5 351,-288.5 258,-288.5"/>
<text text-anchor="start" x="266" y="-305.3" font-family="Helvetica,sans-Serif" font-size="9.00">mexiface::explore::</text>
<text text-anchor="middle" x="304.5" y="-295.3" font-family="Helvetica,sans-Serif" font-size="9.00">analyze_full</text>
</a>
</g>
</g>
<!-- Node2&#45;&gt;Node6 -->
<g id="edge6" class="edge"><title>Node2&#45;&gt;Node6</title>
<path fill="none" stroke="midnightblue" d="M222.35,-282.053C230.623,-284.137 239.33,-286.331 247.846,-288.477"/>
<polygon fill="midnightblue" stroke="midnightblue" points="247.165,-291.915 257.717,-290.964 248.876,-285.127 247.165,-291.915"/>
</g>
<!-- Node17 -->
<g id="node17" class="node"><title>Node17</title>
<g id="a_node17"><a xlink:href="namespacemexiface_1_1explore.html#ae6d95ef17338c9baa90e1ce1c3e33d0f" target="_top" xlink:title="mexiface::explore::\lanalyze_logical">
<polygon fill="white" stroke="black" points="258,-225.5 258,-253.5 351,-253.5 351,-225.5 258,-225.5"/>
<text text-anchor="start" x="266" y="-242.3" font-family="Helvetica,sans-Serif" font-size="9.00">mexiface::explore::</text>
<text text-anchor="middle" x="304.5" y="-232.3" font-family="Helvetica,sans-Serif" font-size="9.00">analyze_logical</text>
</a>
</g>
</g>
<!-- Node2&#45;&gt;Node17 -->
<g id="edge27" class="edge"><title>Node2&#45;&gt;Node17</title>
<path fill="none" stroke="midnightblue" d="M222.35,-259.308C230.623,-257.289 239.33,-255.164 247.846,-253.085"/>
<polygon fill="midnightblue" stroke="midnightblue" points="248.833,-256.447 257.717,-250.675 247.173,-249.647 248.833,-256.447"/>
</g>
<!-- Node18 -->
<g id="node18" class="node"><title>Node18</title>
<g id="a_node18"><a xlink:href="namespacemexiface_1_1explore.html#a44ef87dec50add577651cf82ea3c8874" target="_top" xlink:title="mexiface::explore::\lanalyze_sparse">
<polygon fill="white" stroke="black" points="258,-382.5 258,-410.5 351,-410.5 351,-382.5 258,-382.5"/>
<text text-anchor="start" x="266" y="-399.3" font-family="Helvetica,sans-Serif" font-size="9.00">mexiface::explore::</text>
<text text-anchor="middle" x="304.5" y="-389.3" font-family="Helvetica,sans-Serif" font-size="9.00">analyze_sparse</text>
</a>
</g>
</g>
<!-- Node2&#45;&gt;Node18 -->
<g id="edge29" class="edge"><title>Node2&#45;&gt;Node18</title>
<path fill="none" stroke="midnightblue" d="M184.935,-284.764C198.223,-306.266 225.853,-347.252 258,-373.5 259.367,-374.616 260.797,-375.698 262.272,-376.744"/>
<polygon fill="midnightblue" stroke="midnightblue" points="260.765,-379.933 271.085,-382.334 264.515,-374.022 260.765,-379.933"/>
</g>
<!-- Node19 -->
<g id="node19" class="node"><title>Node19</title>
<g id="a_node19"><a xlink:href="namespacemexiface_1_1explore.html#aaa319b6e0131959ff3d2fbd9a4c368b3" target="_top" xlink:title="mexiface::explore::\lanalyze_string">
<polygon fill="white" stroke="black" points="258,-335.5 258,-363.5 351,-363.5 351,-335.5 258,-335.5"/>
<text text-anchor="start" x="266" y="-352.3" font-family="Helvetica,sans-Serif" font-size="9.00">mexiface::explore::</text>
<text text-anchor="middle" x="304.5" y="-342.3" font-family="Helvetica,sans-Serif" font-size="9.00">analyze_string</text>
</a>
</g>
</g>
<!-- Node2&#45;&gt;Node19 -->
<g id="edge30" class="edge"><title>Node2&#45;&gt;Node19</title>
<path fill="none" stroke="midnightblue" d="M196.204,-284.678C212.472,-296.167 236.325,-312.522 258,-325.5 260.672,-327.1 263.461,-328.71 266.284,-330.296"/>
<polygon fill="midnightblue" stroke="midnightblue" points="264.871,-333.513 275.323,-335.247 268.234,-327.373 264.871,-333.513"/>
</g>
<!-- Node3&#45;&gt;Node2 -->
<g id="edge3" class="edge"><title>Node3&#45;&gt;Node2</title>
<path fill="none" stroke="midnightblue" d="M291.957,-174.585C272.915,-193.877 234.311,-227.906 206.994,-249.952"/>
<polygon fill="midnightblue" stroke="midnightblue" points="204.56,-247.415 198.913,-256.379 208.918,-252.893 204.56,-247.415"/>
</g>
<!-- Node3&#45;&gt;Node4 -->
<g id="edge4" class="edge"><title>Node3&#45;&gt;Node4</title>
<path fill="none" stroke="midnightblue" d="M316.989,-146.452C331.365,-130.102 357.686,-104.003 387,-93.5 425.911,-79.5589 446.633,-69.1056 480,-93.5 554.875,-148.24 562.603,-272.405 562.323,-325.11"/>
<polygon fill="midnightblue" stroke="midnightblue" points="558.821,-325.167 562.162,-335.221 565.82,-325.278 558.821,-325.167"/>
</g>
<!-- Node3&#45;&gt;Node5 -->
<g id="edge5" class="edge"><title>Node3&#45;&gt;Node5</title>
<path fill="none" stroke="midnightblue" d="M312.997,-146.192C325.81,-122.7 353.782,-75.384 387,-43.5 390.451,-40.1878 394.335,-37.0431 398.343,-34.1309"/>
<polygon fill="midnightblue" stroke="midnightblue" points="400.332,-37.0108 406.643,-28.5006 396.403,-31.2178 400.332,-37.0108"/>
</g>
<!-- Node7 -->
<g id="node7" class="node"><title>Node7</title>
<g id="a_node7"><a xlink:href="namespacemexiface_1_1explore.html#a3b7a85eeb040efe041ae992581c3861b" target="_top" xlink:title="mexiface::explore::\lanalyze_double">
<polygon fill="white" stroke="black" points="387,-359.5 387,-387.5 480,-387.5 480,-359.5 387,-359.5"/>
<text text-anchor="start" x="395" y="-376.3" font-family="Helvetica,sans-Serif" font-size="9.00">mexiface::explore::</text>
<text text-anchor="middle" x="433.5" y="-366.3" font-family="Helvetica,sans-Serif" font-size="9.00">analyze_double</text>
</a>
</g>
</g>
<!-- Node6&#45;&gt;Node7 -->
<g id="edge7" class="edge"><title>Node6&#45;&gt;Node7</title>
<path fill="none" stroke="midnightblue" d="M333.18,-316.52C339.122,-319.69 345.32,-323.121 351,-326.5 367.526,-336.332 370.389,-340.812 387,-350.5 389.356,-351.874 391.804,-353.251 394.287,-354.609"/>
<polygon fill="midnightblue" stroke="midnightblue" points="392.863,-357.816 403.337,-359.412 396.145,-351.633 392.863,-357.816"/>
</g>
<!-- Node8 -->
<g id="node8" class="node"><title>Node8</title>
<g id="a_node8"><a xlink:href="namespacemexiface_1_1explore.html#a2c3a4139675fbbf8ca7ab0f92d6f11fd" target="_top" xlink:title="mexiface::explore::\lanalyze_int16">
<polygon fill="white" stroke="black" points="387,-312.5 387,-340.5 480,-340.5 480,-312.5 387,-312.5"/>
<text text-anchor="start" x="395" y="-329.3" font-family="Helvetica,sans-Serif" font-size="9.00">mexiface::explore::</text>
<text text-anchor="middle" x="433.5" y="-319.3" font-family="Helvetica,sans-Serif" font-size="9.00">analyze_int16</text>
</a>
</g>
</g>
<!-- Node6&#45;&gt;Node8 -->
<g id="edge9" class="edge"><title>Node6&#45;&gt;Node8</title>
<path fill="none" stroke="midnightblue" d="M351.35,-311.165C359.623,-312.728 368.33,-314.373 376.846,-315.983"/>
<polygon fill="midnightblue" stroke="midnightblue" points="376.241,-319.43 386.717,-317.848 377.541,-312.552 376.241,-319.43"/>
</g>
<!-- Node9 -->
<g id="node9" class="node"><title>Node9</title>
<g id="a_node9"><a xlink:href="namespacemexiface_1_1explore.html#ad8657b3604a735ef428823cdf0a72722" target="_top" xlink:title="mexiface::explore::\lanalyze_int32">
<polygon fill="white" stroke="black" points="387,-265.5 387,-293.5 480,-293.5 480,-265.5 387,-265.5"/>
<text text-anchor="start" x="395" y="-282.3" font-family="Helvetica,sans-Serif" font-size="9.00">mexiface::explore::</text>
<text text-anchor="middle" x="433.5" y="-272.3" font-family="Helvetica,sans-Serif" font-size="9.00">analyze_int32</text>
</a>
</g>
</g>
<!-- Node6&#45;&gt;Node9 -->
<g id="edge11" class="edge"><title>Node6&#45;&gt;Node9</title>
<path fill="none" stroke="midnightblue" d="M351.35,-294.196C359.623,-292.698 368.33,-291.121 376.846,-289.579"/>
<polygon fill="midnightblue" stroke="midnightblue" points="377.501,-293.017 386.717,-287.791 376.254,-286.129 377.501,-293.017"/>
</g>
<!-- Node10 -->
<g id="node10" class="node"><title>Node10</title>
<g id="a_node10"><a xlink:href="namespacemexiface_1_1explore.html#a7025633935ccc85550b308e70b0fc771" target="_top" xlink:title="mexiface::explore::\lanalyze_int64">
<polygon fill="white" stroke="black" points="387,-218.5 387,-246.5 480,-246.5 480,-218.5 387,-218.5"/>
<text text-anchor="start" x="395" y="-235.3" font-family="Helvetica,sans-Serif" font-size="9.00">mexiface::explore::</text>
<text text-anchor="middle" x="433.5" y="-225.3" font-family="Helvetica,sans-Serif" font-size="9.00">analyze_int64</text>
</a>
</g>
</g>
<!-- Node6&#45;&gt;Node10 -->
<g id="edge13" class="edge"><title>Node6&#45;&gt;Node10</title>
<path fill="none" stroke="midnightblue" d="M329.199,-288.372C345.358,-278.853 367.315,-266.141 387,-255.5 389.555,-254.119 392.202,-252.714 394.877,-251.314"/>
<polygon fill="midnightblue" stroke="midnightblue" points="396.697,-254.313 403.977,-246.615 393.486,-248.093 396.697,-254.313"/>
</g>
<!-- Node11 -->
<g id="node11" class="node"><title>Node11</title>
<g id="a_node11"><a xlink:href="namespacemexiface_1_1explore.html#abbbd19941bd43d361d33e21fb0dadbae" target="_top" xlink:title="mexiface::explore::\lanalyze_int8">
<polygon fill="white" stroke="black" points="387,-171.5 387,-199.5 480,-199.5 480,-171.5 387,-171.5"/>
<text text-anchor="start" x="395" y="-188.3" font-family="Helvetica,sans-Serif" font-size="9.00">mexiface::explore::</text>
<text text-anchor="middle" x="433.5" y="-178.3" font-family="Helvetica,sans-Serif" font-size="9.00">analyze_int8</text>
</a>
</g>
</g>
<!-- Node6&#45;&gt;Node11 -->
<g id="edge15" class="edge"><title>Node6&#45;&gt;Node11</title>
<path fill="none" stroke="midnightblue" d="M323.786,-288.304C332.522,-281.069 342.827,-271.84 351,-262.5 369.994,-240.792 365.418,-227.637 387,-208.5 388.275,-207.37 389.615,-206.279 391.004,-205.229"/>
<polygon fill="midnightblue" stroke="midnightblue" points="392.986,-208.114 399.37,-199.658 389.107,-202.288 392.986,-208.114"/>
</g>
<!-- Node12 -->
<g id="node12" class="node"><title>Node12</title>
<g id="a_node12"><a xlink:href="namespacemexiface_1_1explore.html#acaf0a238e5467e317ae037a966647626" target="_top" xlink:title="mexiface::explore::\lanalyze_single">
<polygon fill="white" stroke="black" points="387,-124.5 387,-152.5 480,-152.5 480,-124.5 387,-124.5"/>
<text text-anchor="start" x="395" y="-141.3" font-family="Helvetica,sans-Serif" font-size="9.00">mexiface::explore::</text>
<text text-anchor="middle" x="433.5" y="-131.3" font-family="Helvetica,sans-Serif" font-size="9.00">analyze_single</text>
</a>
</g>
</g>
<!-- Node6&#45;&gt;Node12 -->
<g id="edge17" class="edge"><title>Node6&#45;&gt;Node12</title>
<path fill="none" stroke="midnightblue" d="M325.755,-288.391C334.51,-281.44 344.269,-272.423 351,-262.5 377.751,-223.062 355.485,-197.246 387,-161.5 387.732,-160.67 388.5,-159.866 389.301,-159.088"/>
<polygon fill="midnightblue" stroke="midnightblue" points="391.589,-161.74 397.214,-152.762 387.218,-156.272 391.589,-161.74"/>
</g>
<!-- Node13 -->
<g id="node13" class="node"><title>Node13</title>
<g id="a_node13"><a xlink:href="namespacemexiface_1_1explore.html#aa1951af918bc0b264d05f2db4fbec9e1" target="_top" xlink:title="mexiface::explore::\lanalyze_uint16">
<polygon fill="white" stroke="black" points="387,-547.5 387,-575.5 480,-575.5 480,-547.5 387,-547.5"/>
<text text-anchor="start" x="395" y="-564.3" font-family="Helvetica,sans-Serif" font-size="9.00">mexiface::explore::</text>
<text text-anchor="middle" x="433.5" y="-554.3" font-family="Helvetica,sans-Serif" font-size="9.00">analyze_uint16</text>
</a>
</g>
</g>
<!-- Node6&#45;&gt;Node13 -->
<g id="edge19" class="edge"><title>Node6&#45;&gt;Node13</title>
<path fill="none" stroke="midnightblue" d="M340.941,-316.766C344.781,-319.515 348.276,-322.739 351,-326.5 407.059,-403.903 330.272,-461.586 387,-538.5 387.552,-539.248 388.135,-539.973 388.745,-540.676"/>
<polygon fill="midnightblue" stroke="midnightblue" points="386.423,-543.296 396.193,-547.394 391.112,-538.097 386.423,-543.296"/>
</g>
<!-- Node14 -->
<g id="node14" class="node"><title>Node14</title>
<g id="a_node14"><a xlink:href="namespacemexiface_1_1explore.html#aa0ebed3704023f9816e91293c9c08253" target="_top" xlink:title="mexiface::explore::\lanalyze_uint32">
<polygon fill="white" stroke="black" points="387,-500.5 387,-528.5 480,-528.5 480,-500.5 387,-500.5"/>
<text text-anchor="start" x="395" y="-517.3" font-family="Helvetica,sans-Serif" font-size="9.00">mexiface::explore::</text>
<text text-anchor="middle" x="433.5" y="-507.3" font-family="Helvetica,sans-Serif" font-size="9.00">analyze_uint32</text>
</a>
</g>
</g>
<!-- Node6&#45;&gt;Node14 -->
<g id="edge21" class="edge"><title>Node6&#45;&gt;Node14</title>
<path fill="none" stroke="midnightblue" d="M340.328,-316.576C344.369,-319.374 348.081,-322.661 351,-326.5 396.431,-386.248 341.052,-432.149 387,-491.5 387.569,-492.235 388.168,-492.948 388.793,-493.64"/>
<polygon fill="midnightblue" stroke="midnightblue" points="386.526,-496.308 396.35,-500.276 391.145,-491.048 386.526,-496.308"/>
</g>
<!-- Node15 -->
<g id="node15" class="node"><title>Node15</title>
<g id="a_node15"><a xlink:href="namespacemexiface_1_1explore.html#abe63c53129e4d37e66af71c8f66d9ae6" target="_top" xlink:title="mexiface::explore::\lanalyze_uint64">
<polygon fill="white" stroke="black" points="387,-453.5 387,-481.5 480,-481.5 480,-453.5 387,-453.5"/>
<text text-anchor="start" x="395" y="-470.3" font-family="Helvetica,sans-Serif" font-size="9.00">mexiface::explore::</text>
<text text-anchor="middle" x="433.5" y="-460.3" font-family="Helvetica,sans-Serif" font-size="9.00">analyze_uint64</text>
</a>
</g>
</g>
<!-- Node6&#45;&gt;Node15 -->
<g id="edge23" class="edge"><title>Node6&#45;&gt;Node15</title>
<path fill="none" stroke="midnightblue" d="M340.041,-316.804C344.126,-319.566 347.927,-322.783 351,-326.5 385.934,-368.761 351.701,-402.543 387,-444.5 387.712,-445.347 388.463,-446.165 389.248,-446.957"/>
<polygon fill="midnightblue" stroke="midnightblue" points="387.112,-449.732 397.064,-453.368 391.552,-444.32 387.112,-449.732"/>
</g>
<!-- Node16 -->
<g id="node16" class="node"><title>Node16</title>
<g id="a_node16"><a xlink:href="namespacemexiface_1_1explore.html#ae0e1687942c1e218a665eedeadc63456" target="_top" xlink:title="mexiface::explore::\lanalyze_uint8">
<polygon fill="white" stroke="black" points="387,-406.5 387,-434.5 480,-434.5 480,-406.5 387,-406.5"/>
<text text-anchor="start" x="395" y="-423.3" font-family="Helvetica,sans-Serif" font-size="9.00">mexiface::explore::</text>
<text text-anchor="middle" x="433.5" y="-413.3" font-family="Helvetica,sans-Serif" font-size="9.00">analyze_uint8</text>
</a>
</g>
</g>
<!-- Node6&#45;&gt;Node16 -->
<g id="edge25" class="edge"><title>Node6&#45;&gt;Node16</title>
<path fill="none" stroke="midnightblue" d="M338.532,-316.736C343.045,-319.557 347.367,-322.808 351,-326.5 375.815,-351.718 361.967,-372.498 387,-397.5 388.057,-398.556 389.172,-399.572 390.333,-400.549"/>
<polygon fill="midnightblue" stroke="midnightblue" points="388.374,-403.451 398.536,-406.447 392.46,-397.768 388.374,-403.451"/>
</g>
<!-- Node7&#45;&gt;Node4 -->
<g id="edge8" class="edge"><title>Node7&#45;&gt;Node4</title>
<path fill="none" stroke="midnightblue" d="M480.35,-364.835C488.623,-363.272 497.33,-361.627 505.846,-360.017"/>
<polygon fill="midnightblue" stroke="midnightblue" points="506.541,-363.448 515.717,-358.152 505.241,-356.57 506.541,-363.448"/>
</g>
<!-- Node8&#45;&gt;Node4 -->
<g id="edge10" class="edge"><title>Node8&#45;&gt;Node4</title>
<path fill="none" stroke="midnightblue" d="M480.35,-334.804C488.623,-336.302 497.33,-337.879 505.846,-339.421"/>
<polygon fill="midnightblue" stroke="midnightblue" points="505.254,-342.871 515.717,-341.209 506.501,-335.983 505.254,-342.871"/>
</g>
<!-- Node9&#45;&gt;Node4 -->
<g id="edge12" class="edge"><title>Node9&#45;&gt;Node4</title>
<path fill="none" stroke="midnightblue" d="M463.023,-293.615C468.678,-296.499 474.55,-299.554 480,-302.5 496.302,-311.312 514.161,-321.545 528.996,-330.208"/>
<polygon fill="midnightblue" stroke="midnightblue" points="527.405,-333.332 537.801,-335.372 530.946,-327.294 527.405,-333.332"/>
</g>
<!-- Node10&#45;&gt;Node4 -->
<g id="edge14" class="edge"><title>Node10&#45;&gt;Node4</title>
<path fill="none" stroke="midnightblue" d="M466.309,-246.559C471.088,-249.236 475.812,-252.234 480,-255.5 506.529,-276.186 530.945,-306.495 545.999,-327.061"/>
<polygon fill="midnightblue" stroke="midnightblue" points="543.182,-329.139 551.856,-335.222 548.869,-325.058 543.182,-329.139"/>
</g>
<!-- Node11&#45;&gt;Node4 -->
<g id="edge16" class="edge"><title>Node11&#45;&gt;Node4</title>
<path fill="none" stroke="midnightblue" d="M468.293,-199.728C472.494,-202.295 476.527,-205.216 480,-208.5 515.81,-242.357 540.637,-295.472 552.837,-325.927"/>
<polygon fill="midnightblue" stroke="midnightblue" points="549.605,-327.272 556.488,-335.326 556.13,-324.737 549.605,-327.272"/>
</g>
<!-- Node12&#45;&gt;Node4 -->
<g id="edge18" class="edge"><title>Node12&#45;&gt;Node4</title>
<path fill="none" stroke="midnightblue" d="M469.116,-152.658C473.091,-155.213 476.843,-158.151 480,-161.5 525.279,-209.531 547.737,-286.703 556.668,-325.538"/>
<polygon fill="midnightblue" stroke="midnightblue" points="553.274,-326.402 558.836,-335.419 560.112,-324.901 553.274,-326.402"/>
</g>
<!-- Node13&#45;&gt;Node4 -->
<g id="edge20" class="edge"><title>Node13&#45;&gt;Node4</title>
<path fill="none" stroke="midnightblue" d="M469.122,-547.347C473.096,-544.791 476.846,-541.852 480,-538.5 525.435,-490.21 547.823,-412.629 556.704,-373.588"/>
<polygon fill="midnightblue" stroke="midnightblue" points="560.159,-374.17 558.858,-363.655 553.318,-372.686 560.159,-374.17"/>
</g>
<!-- Node14&#45;&gt;Node4 -->
<g id="edge22" class="edge"><title>Node14&#45;&gt;Node4</title>
<path fill="none" stroke="midnightblue" d="M468.303,-500.282C472.502,-497.714 476.532,-494.789 480,-491.5 515.948,-457.408 540.726,-403.915 552.879,-373.242"/>
<polygon fill="midnightblue" stroke="midnightblue" points="556.197,-374.366 556.515,-363.776 549.662,-371.856 556.197,-374.366"/>
</g>
<!-- Node15&#45;&gt;Node4 -->
<g id="edge24" class="edge"><title>Node15&#45;&gt;Node4</title>
<path fill="none" stroke="midnightblue" d="M466.324,-453.46C471.101,-450.781 475.821,-447.777 480,-444.5 506.786,-423.501 531.303,-392.637 546.3,-371.839"/>
<polygon fill="midnightblue" stroke="midnightblue" points="549.21,-373.786 552.124,-363.6 543.494,-369.746 549.21,-373.786"/>
</g>
<!-- Node16&#45;&gt;Node4 -->
<g id="edge26" class="edge"><title>Node16&#45;&gt;Node4</title>
<path fill="none" stroke="midnightblue" d="M463.044,-406.424C468.698,-403.537 474.563,-400.471 480,-397.5 496.587,-388.435 514.735,-377.818 529.687,-368.877"/>
<polygon fill="midnightblue" stroke="midnightblue" points="531.773,-371.706 538.541,-363.555 528.167,-365.707 531.773,-371.706"/>
</g>
<!-- Node17&#45;&gt;Node4 -->
<g id="edge28" class="edge"><title>Node17&#45;&gt;Node4</title>
<path fill="none" stroke="midnightblue" d="M318.316,-225.378C327.932,-214.407 341.09,-198.573 351,-183.5 370.002,-154.597 357.421,-132.431 387,-114.5 422.346,-93.0737 446.323,-90.5349 480,-114.5 549.181,-163.73 560.169,-275.973 561.545,-325.387"/>
<polygon fill="midnightblue" stroke="midnightblue" points="558.047,-325.526 561.714,-335.466 565.046,-325.409 558.047,-325.526"/>
</g>
<!-- Node19&#45;&gt;Node4 -->
<g id="edge31" class="edge"><title>Node19&#45;&gt;Node4</title>
<path fill="none" stroke="midnightblue" d="M340.941,-363.766C344.781,-366.515 348.276,-369.739 351,-373.5 407.059,-450.903 313.983,-523.837 387,-585.5 418.579,-612.169 446.339,-609.487 480,-585.5 549.411,-536.037 560.276,-423.329 561.583,-373.712"/>
<polygon fill="midnightblue" stroke="midnightblue" points="565.084,-373.643 561.736,-363.591 558.085,-373.537 565.084,-373.643"/>
</g>
</g>
</svg>
        <g id="navigator" transform="translate(0 0)" fill="#404254">
                <rect fill="#f2f5e9" fill-opacity="0.5" stroke="#606060" stroke-width=".5" x="0" y="0" width="60" height="60"/>
                <use id="zoomplus" xlink:href="#zoomPlus" x="17" y="9" onmousedown="handleZoom(evt,'in')"/>
                <use id="zoomminus" xlink:href="#zoomMin" x="42" y="9" onmousedown="handleZoom(evt,'out')"/>
                <use id="reset" xlink:href="#resetDef" x="30" y="36" onmousedown="handleReset()"/>
                <g id="arrowUp" xlink:href="#dirArrow" transform="translate(30 24)" onmousedown="handlePan(0,-1)">
                  <use xlink:href="#rim" fill="#404040">
                        <set attributeName="fill" to="#808080" begin="arrowUp.mouseover" end="arrowUp.mouseout"/>
                  </use>
                  <path fill="none" stroke="white" stroke-width="1.5" d="M0,-3.0v7 M-2.5,-0.5L0,-3.0L2.5,-0.5"/>
                </g>
                <g id="arrowRight" xlink:href="#dirArrow" transform="rotate(90) translate(36 -43)" onmousedown="handlePan(1,0)">
                  <use xlink:href="#rim" fill="#404040">
                        <set attributeName="fill" to="#808080" begin="arrowRight.mouseover" end="arrowRight.mouseout"/>
                  </use>
                  <path fill="none" stroke="white" stroke-width="1.5" d="M0,-3.0v7 M-2.5,-0.5L0,-3.0L2.5,-0.5"/>
                </g>
                <g id="arrowDown" xlink:href="#dirArrow" transform="rotate(180) translate(-30 -48)" onmousedown="handlePan(0,1)">
                  <use xlink:href="#rim" fill="#404040">
                        <set attributeName="fill" to="#808080" begin="arrowDown.mouseover" end="arrowDown.mouseout"/>
                  </use>
                  <path fill="none" stroke="white" stroke-width="1.5" d="M0,-3.0v7 M-2.5,-0.5L0,-3.0L2.5,-0.5"/>
                </g>
                <g id="arrowLeft" xlink:href="#dirArrow" transform="rotate(270) translate(-36 17)" onmousedown="handlePan(-1,0)">
                  <use xlink:href="#rim" fill="#404040">
                        <set attributeName="fill" to="#808080" begin="arrowLeft.mouseover" end="arrowLeft.mouseout"/>
                  </use>
                  <path fill="none" stroke="white" stroke-width="1.5" d="M0,-3.0v7 M-2.5,-0.5L0,-3.0L2.5,-0.5"/>
                </g>
        </g>
        <svg viewBox="0 0 15 15" width="100%" height="30px" preserveAspectRatio="xMaxYMin meet">
         <g id="arrow_out" transform="scale(0.3 0.3)">
          <a xlink:href="namespacemexiface_1_1explore_a6205a96e991f64a98345df5645dd0ba5_cgraph_org.svg" target="_base">
           <rect id="button" ry="5" rx="5" y="6" x="6" height="38" width="38"
                fill="#f2f5e9" fill-opacity="0.5" stroke="#606060" stroke-width="1.0"/>
           <path id="arrow"
             d="M 11.500037,31.436501 C 11.940474,20.09759 22.043105,11.32322 32.158766,21.979434 L 37.068811,17.246167 C 37.068811,17.246167 37.088388,32 37.088388,32 L 22.160133,31.978069 C 22.160133,31.978069 26.997745,27.140456 26.997745,27.140456 C 18.528582,18.264221 13.291696,25.230495 11.500037,31.436501 z"
             style="fill:#404040;"/>
          </a>
         </g>
        </svg>
</svg>
